<?xml version="1.0" encoding="utf-8"?>
<!-- Generator: Adobe Illustrator 18.0.0, SVG Export Plug-In . SVG Version: 6.00 Build 0)  -->
<!DOCTYPE svg PUBLIC "-//W3C//DTD SVG 1.1//EN" "http://www.w3.org/Graphics/SVG/1.1/DTD/svg11.dtd">
<svg version="1.1" id="Layer_1" xmlns="http://www.w3.org/2000/svg" xmlns:xlink="http://www.w3.org/1999/xlink" x="0px" y="0px"
	 viewBox="220.9 0 425.2 595.3" style="enable-background:new 220.9 0 425.2 595.3;" xml:space="preserve">
<style type="text/css">
	.st0{fill:#27348B;}
	.st1{fill:#F9B233;}
	.st2{fill:#E30613;}
</style>
<g id="elfteG">
	<path class="st0" d="M607.1,18.9L607.1,18.9c0-4.1-3.4-7.9-8.8-10.7c-0.6-0.3-1.4-0.5-2.3-0.5h-44.6c-0.8,0-1.5,0.2-2.3,0.5
		c-5.4,2.8-8.8,6.5-8.8,10.6l0,0c0,0.2,0,0.8,0,1l0,0c0,3.2,3.6,6.2,9.3,8.4c0.3,0.1,0.6,0.2,1.1,0.2h45.8c0.3,0,0.8-0.1,1.1-0.2
		c5.7-2.2,9.3-5.1,9.3-8.4l0,0C607.1,19.7,607.1,19.1,607.1,18.9z"/>
	<circle class="st1" cx="573.8" cy="18" r="18"/>
</g>
<g id="zehnteG">
	<path class="st1" d="M607.1,74.8L607.1,74.8c0-4.1-3.4-7.9-8.8-10.7c-0.6-0.3-1.4-0.5-2.3-0.5h-44.6c-0.8,0-1.5,0.2-2.3,0.5
		c-5.4,2.8-8.8,6.5-8.8,10.6l0,0c0,0.2,0,0.8,0,1l0,0c0,3.2,3.6,6.2,9.3,8.4c0.3,0.1,0.6,0.2,1.1,0.2h45.8c0.3,0,0.8-0.1,1.1-0.2
		c5.7-2.2,9.3-5.1,9.3-8.4l0,0C607.1,75.7,607.1,75,607.1,74.8z"/>
	<circle class="st0" cx="573.8" cy="74" r="18"/>
</g>
<g id="neunteG">
	<path class="st1" d="M607.1,130.8C607.1,130.8,607.1,130.7,607.1,130.8c0-4.1-3.4-7.9-8.8-10.7c-0.6-0.3-1.4-0.5-2.3-0.5h-44.6
		c-0.8,0-1.5,0.2-2.3,0.5c-5.4,2.8-8.8,6.5-8.8,10.6l0,0c0,0.2,0,0.8,0,1l0,0c0,3.2,3.6,6.2,9.3,8.4c0.3,0.1,0.6,0.2,1.1,0.2h45.8
		c0.3,0,0.8-0.1,1.1-0.2c5.7-2.2,9.3-5.1,9.3-8.4l0,0C607.1,131.5,607.1,130.9,607.1,130.8z"/>
	<circle class="st2" cx="573.8" cy="129.9" r="18"/>
</g>
<g id="achteG">
	<g>
		<path class="st2" d="M511.1,186.6L511.1,186.6c0-4.1-3.4-7.9-8.8-10.7c-0.6-0.3-1.4-0.5-2.3-0.5h-44.6c-0.8,0-1.5,0.2-2.3,0.5
			c-5.4,2.8-8.8,6.5-8.8,10.6l0,0c0,0.2,0,0.8,0,1l0,0c0,3.2,3.6,6.2,9.3,8.4c0.3,0.1,0.6,0.2,1.1,0.2h45.8c0.3,0,0.8-0.1,1.1-0.2
			c5.7-2.2,9.3-5.1,9.3-8.4l0,0C511.1,187.4,511.1,186.9,511.1,186.6z"/>
		<circle class="st1" cx="477.7" cy="185.9" r="18"/>
	</g>
	<g>
		<path class="st2" d="M607.1,186.6L607.1,186.6c0-4.1-3.4-7.9-8.8-10.7c-0.6-0.3-1.4-0.5-2.3-0.5h-44.6c-0.8,0-1.5,0.2-2.3,0.5
			c-5.4,2.8-8.8,6.5-8.8,10.6l0,0c0,0.2,0,0.8,0,1l0,0c0,3.2,3.6,6.2,9.3,8.4c0.3,0.1,0.6,0.2,1.1,0.2h45.8c0.3,0,0.8-0.1,1.1-0.2
			c5.7-2.2,9.3-5.1,9.3-8.4l0,0C607.1,187.4,607.1,186.8,607.1,186.6z"/>
		<circle class="st0" cx="573.8" cy="185.8" r="18"/>
	</g>
</g>
<g id="siebteG">
	<g>
		<path class="st1" d="M511.1,242.5L511.1,242.5c0-4.1-3.4-7.9-8.8-10.7c-0.6-0.3-1.4-0.5-2.3-0.5h-44.6c-0.8,0-1.5,0.2-2.3,0.5
			c-5.4,2.8-8.8,6.5-8.8,10.6l0,0c0,0.2,0,0.8,0,1l0,0c0,3.2,3.6,6.2,9.3,8.4c0.3,0.1,0.6,0.2,1.1,0.2h45.8c0.3,0,0.8-0.1,1.1-0.2
			c5.7-2.2,9.3-5.1,9.3-8.4l0,0C511.1,243.4,511.1,242.7,511.1,242.5z"/>
		<circle class="st2" cx="477.7" cy="241.8" r="18"/>
	</g>
	<g>
		<path class="st0" d="M607.1,242.5L607.1,242.5c0-4.1-3.4-7.9-8.8-10.7c-0.6-0.3-1.4-0.5-2.3-0.5h-44.6c-0.8,0-1.5,0.2-2.3,0.5
			c-5.4,2.8-8.8,6.5-8.8,10.6l0,0c0,0.2,0,0.8,0,1l0,0c0,3.2,3.6,6.2,9.3,8.4c0.3,0.1,0.6,0.2,1.1,0.2h45.8c0.3,0,0.8-0.1,1.1-0.2
			c5.7-2.2,9.3-5.1,9.3-8.4l0,0C607.1,243.3,607.1,242.7,607.1,242.5z"/>
		<circle class="st1" cx="573.8" cy="241.7" r="18"/>
	</g>
</g>
<g id="sechsteG">
	<g>
		<path class="st2" d="M511.1,298.5C511.1,298.5,511.1,298.4,511.1,298.5c0-4.1-3.4-7.9-8.8-10.7c-0.6-0.3-1.4-0.5-2.3-0.5h-44.6
			c-0.8,0-1.5,0.2-2.3,0.5c-5.4,2.8-8.8,6.5-8.8,10.6l0,0c0,0.2,0,0.8,0,1l0,0c0,3.2,3.6,6.2,9.3,8.4c0.3,0.1,0.6,0.2,1.1,0.2h45.8
			c0.3,0,0.8-0.1,1.1-0.2c5.7-2.2,9.3-5.1,9.3-8.4l0,0C511.1,299.3,511.1,298.6,511.1,298.5z"/>
		<circle class="st0" cx="477.7" cy="297.6" r="18"/>
	</g>
	<g>
		<path class="st2" d="M607.1,298.4L607.1,298.4c0-4.1-3.4-7.9-8.8-10.7c-0.6-0.3-1.4-0.5-2.3-0.5h-44.6c-0.8,0-1.5,0.2-2.3,0.5
			c-5.4,2.8-8.8,6.5-8.8,10.6l0,0c0,0.2,0,0.8,0,1l0,0c0,3.2,3.6,6.2,9.3,8.4c0.3,0.1,0.6,0.2,1.1,0.2h45.8c0.3,0,0.8-0.1,1.1-0.2
			c5.7-2.2,9.3-5.1,9.3-8.4l0,0C607.1,299.3,607.1,298.6,607.1,298.4z"/>
		<circle class="st0" cx="573.8" cy="297.6" r="18"/>
	</g>
	<g>
		<path class="st1" d="M406.4,298.5C406.4,298.5,406.4,298.4,406.4,298.5c0-4.1-3.4-7.9-8.8-10.7c-0.6-0.3-1.4-0.5-2.3-0.5h-44.6
			c-0.8,0-1.5,0.2-2.3,0.5c-5.4,2.8-8.8,6.5-8.8,10.6l0,0c0,0.2,0,0.8,0,1l0,0c0,3.2,3.6,6.2,9.3,8.4c0.3,0.1,0.6,0.2,1.1,0.2h45.8
			c0.3,0,0.8-0.1,1.1-0.2c5.7-2.2,9.3-5.1,9.3-8.4l0,0C406.4,299.3,406.4,298.6,406.4,298.5z"/>
		<circle class="st0" cx="373.1" cy="297.6" r="18"/>
	</g>
</g>
<g id="fünfte_G">
	<g>
		<path class="st1" d="M301.4,354.4L301.4,354.4c0-4.1-3.4-7.9-8.8-10.7c-0.6-0.3-1.4-0.5-2.3-0.5h-44.5c-0.8,0-1.5,0.2-2.3,0.5
			c-5.4,2.8-8.8,6.5-8.8,10.6l0,0c0,0.2,0,0.8,0,1l0,0c0,3.2,3.6,6.2,9.3,8.4c0.3,0.1,0.6,0.2,1.1,0.2H291c0.3,0,0.8-0.1,1.1-0.2
			c5.7-2.2,9.3-5.1,9.3-8.4l0,0C301.4,355.1,301.4,354.6,301.4,354.4z"/>
		<circle class="st2" cx="268.1" cy="353.5" r="18"/>
	</g>
	<g>
		<path class="st1" d="M511.1,354.4L511.1,354.4c0-4.1-3.4-7.9-8.8-10.7c-0.6-0.3-1.4-0.5-2.3-0.5h-44.6c-0.8,0-1.5,0.2-2.3,0.5
			c-5.4,2.8-8.8,6.5-8.8,10.6l0,0c0,0.2,0,0.8,0,1l0,0c0,3.2,3.6,6.2,9.3,8.4c0.3,0.1,0.6,0.2,1.1,0.2h45.8c0.3,0,0.8-0.1,1.1-0.2
			c5.7-2.2,9.3-5.1,9.3-8.4l0,0C511.1,355.1,511.1,354.6,511.1,354.4z"/>
		<circle class="st2" cx="477.7" cy="353.5" r="18"/>
	</g>
	<g>
		<path class="st2" d="M607.1,354.4C607.1,354.4,607.1,354.3,607.1,354.4c0-4.1-3.4-7.9-8.8-10.7c-0.6-0.3-1.4-0.5-2.3-0.5h-44.6
			c-0.8,0-1.5,0.2-2.3,0.5c-5.4,2.8-8.8,6.5-8.8,10.6l0,0c0,0.2,0,0.8,0,1l0,0c0,3.2,3.6,6.2,9.3,8.4c0.3,0.1,0.6,0.2,1.1,0.2h45.8
			c0.3,0,0.8-0.1,1.1-0.2c5.7-2.2,9.3-5.1,9.3-8.4l0,0C607.1,355.1,607.1,354.5,607.1,354.4z"/>
		<circle class="st1" cx="573.8" cy="353.5" r="18"/>
	</g>
	<g>
		<path class="st0" d="M406.4,354.4L406.4,354.4c0-4.1-3.4-7.9-8.8-10.7c-0.6-0.3-1.4-0.5-2.3-0.5h-44.6c-0.8,0-1.5,0.2-2.3,0.5
			c-5.4,2.8-8.8,6.5-8.8,10.6l0,0c0,0.2,0,0.8,0,1l0,0c0,3.2,3.6,6.2,9.3,8.4c0.3,0.1,0.6,0.2,1.1,0.2h45.8c0.3,0,0.8-0.1,1.1-0.2
			c5.7-2.2,9.3-5.1,9.3-8.4l0,0C406.4,355.1,406.4,354.6,406.4,354.4z"/>
		<circle class="st1" cx="373.1" cy="353.5" r="18"/>
	</g>
</g>
<g id="vierteG">
	<g>
		<path class="st1" d="M301.4,410.3L301.4,410.3c0-4.1-3.4-7.9-8.8-10.7c-0.6-0.3-1.4-0.5-2.3-0.5h-44.5c-0.8,0-1.5,0.2-2.3,0.5
			c-5.4,2.8-8.8,6.5-8.8,10.6l0,0c0,0.2,0,0.8,0,1l0,0c0,3.2,3.6,6.2,9.3,8.4c0.3,0.1,0.6,0.2,1.1,0.2H291c0.3,0,0.8-0.1,1.1-0.2
			c5.7-2.2,9.3-5.1,9.3-8.4l0,0C301.4,411.1,301.4,410.5,301.4,410.3z"/>
		<circle class="st0" cx="268.1" cy="409.5" r="18"/>
	</g>
	<g>
		<path class="st2" d="M511.1,410.3L511.1,410.3c0-4.1-3.4-7.9-8.8-10.7c-0.6-0.3-1.4-0.5-2.3-0.5h-44.6c-0.8,0-1.5,0.2-2.3,0.5
			c-5.4,2.8-8.8,6.5-8.8,10.6l0,0c0,0.2,0,0.8,0,1l0,0c0,3.2,3.6,6.2,9.3,8.4c0.3,0.1,0.6,0.2,1.1,0.2h45.8c0.3,0,0.8-0.1,1.1-0.2
			c5.7-2.2,9.3-5.1,9.3-8.4l0,0C511.1,411.1,511.1,410.5,511.1,410.3z"/>
		<circle class="st0" cx="477.7" cy="409.5" r="18"/>
	</g>
	<g>
		<path class="st0" d="M607.1,410.3L607.1,410.3c0-4.1-3.4-7.9-8.8-10.7c-0.6-0.3-1.4-0.5-2.3-0.5h-44.6c-0.8,0-1.5,0.2-2.3,0.5
			c-5.4,2.8-8.8,6.5-8.8,10.6l0,0c0,0.2,0,0.8,0,1l0,0c0,3.2,3.6,6.2,9.3,8.4c0.3,0.1,0.6,0.2,1.1,0.2h45.8c0.3,0,0.8-0.1,1.1-0.2
			c5.7-2.2,9.3-5.1,9.3-8.4l0,0C607.1,411,607.1,410.5,607.1,410.3z"/>
		<circle class="st1" cx="573.8" cy="409.4" r="18"/>
	</g>
	<g>
		<path class="st0" d="M406.4,410.3L406.4,410.3c0-4.1-3.4-7.9-8.8-10.7c-0.6-0.3-1.4-0.5-2.3-0.5h-44.6c-0.8,0-1.5,0.2-2.3,0.5
			c-5.4,2.8-8.8,6.5-8.8,10.6l0,0c0,0.2,0,0.8,0,1l0,0c0,3.2,3.6,6.2,9.3,8.4c0.3,0.1,0.6,0.2,1.1,0.2h45.8c0.3,0,0.8-0.1,1.1-0.2
			c5.7-2.2,9.3-5.1,9.3-8.4l0,0C406.4,411.1,406.4,410.5,406.4,410.3z"/>
		<circle class="st2" cx="373.1" cy="409.5" r="18"/>
	</g>
</g>
<g id="dritteG">
	<g>
		<path class="st2" d="M301.4,466.2L301.4,466.2c0-4.1-3.4-7.9-8.8-10.7c-0.6-0.3-1.4-0.5-2.3-0.5h-44.5c-0.8,0-1.5,0.2-2.3,0.5
			c-5.4,2.8-8.8,6.5-8.8,10.6l0,0c0,0.2,0,0.8,0,1l0,0c0,3.2,3.6,6.2,9.3,8.4c0.3,0.1,0.6,0.2,1.1,0.2H291c0.3,0,0.8-0.1,1.1-0.2
			c5.7-2.2,9.3-5.1,9.3-8.4l0,0C301.4,467,301.4,466.5,301.4,466.2z"/>
		<circle class="st1" cx="268.1" cy="465.4" r="18"/>
	</g>
	<g>
		<path class="st0" d="M511.1,466.2L511.1,466.2c0-4.1-3.4-7.9-8.8-10.7c-0.6-0.3-1.4-0.5-2.3-0.5h-44.6c-0.8,0-1.5,0.2-2.3,0.5
			c-5.4,2.8-8.8,6.5-8.8,10.6l0,0c0,0.2,0,0.8,0,1l0,0c0,3.2,3.6,6.2,9.3,8.4c0.3,0.1,0.6,0.2,1.1,0.2h45.8c0.3,0,0.8-0.1,1.1-0.2
			c5.7-2.2,9.3-5.1,9.3-8.4l0,0C511.1,467,511.1,466.5,511.1,466.2z"/>
		<circle class="st1" cx="477.7" cy="465.4" r="18"/>
	</g>
	<g>
		<path class="st1" d="M607.1,466.1L607.1,466.1c0-4.1-3.4-7.9-8.8-10.7c-0.6-0.3-1.4-0.5-2.3-0.5h-44.6c-0.8,0-1.5,0.2-2.3,0.5
			c-5.4,2.8-8.8,6.5-8.8,10.6l0,0c0,0.2,0,0.8,0,1l0,0c0,3.2,3.6,6.2,9.3,8.4c0.3,0.1,0.6,0.2,1.1,0.2h45.8c0.3,0,0.8-0.1,1.1-0.2
			c5.7-2.2,9.3-5.1,9.3-8.4l0,0C607.1,467,607.1,466.3,607.1,466.1z"/>
		<circle class="st2" cx="573.8" cy="465.4" r="18"/>
	</g>
	<g>
		<path class="st1" d="M406.4,466.2L406.4,466.2c0-4.1-3.4-7.9-8.8-10.7c-0.6-0.3-1.4-0.5-2.3-0.5h-44.6c-0.8,0-1.5,0.2-2.3,0.5
			c-5.4,2.8-8.8,6.5-8.8,10.6l0,0c0,0.2,0,0.8,0,1l0,0c0,3.2,3.6,6.2,9.3,8.4c0.3,0.1,0.6,0.2,1.1,0.2h45.8c0.3,0,0.8-0.1,1.1-0.2
			c5.7-2.2,9.3-5.1,9.3-8.4l0,0C406.4,467,406.4,466.5,406.4,466.2z"/>
		<circle class="st0" cx="373.1" cy="465.4" r="18"/>
	</g>
</g>
<g id="zweiteG">
	<g>
		<path class="st2" d="M301.4,525.8L301.4,525.8c0-4.1-3.4-7.9-8.8-10.7c-0.6-0.3-1.4-0.5-2.3-0.5h-44.5c-0.8,0-1.5,0.2-2.3,0.5
			c-5.4,2.8-8.8,6.5-8.8,10.6l0,0c0,0.2,0,0.8,0,1l0,0c0,3.2,3.6,6.2,9.3,8.4c0.3,0.1,0.6,0.2,1.1,0.2H291c0.3,0,0.8-0.1,1.1-0.2
			c5.7-2.2,9.3-5.1,9.3-8.4l0,0C301.4,526.7,301.4,526,301.4,525.8z"/>
		<circle class="st0" cx="268.1" cy="525" r="18"/>
	</g>
	<g>
		<path class="st2" d="M511.1,522.1L511.1,522.1c0-4.1-3.4-7.9-8.8-10.7c-0.6-0.3-1.4-0.5-2.3-0.5h-44.6c-0.8,0-1.5,0.2-2.3,0.5
			c-5.4,2.8-8.8,6.5-8.8,10.6l0,0c0,0.2,0,0.8,0,1l0,0c0,3.2,3.6,6.2,9.3,8.4c0.3,0.1,0.6,0.2,1.1,0.2h45.8c0.3,0,0.8-0.1,1.1-0.2
			c5.7-2.2,9.3-5.1,9.3-8.4l0,0C511.1,523,511.1,522.3,511.1,522.1z"/>
		<circle class="st0" cx="477.7" cy="521.4" r="18"/>
	</g>
	<g>
		<path class="st0" d="M607.1,522.1L607.1,522.1c0-4.1-3.4-7.9-8.8-10.7c-0.6-0.3-1.4-0.5-2.3-0.5h-44.6c-0.8,0-1.5,0.2-2.3,0.5
			c-5.4,2.8-8.8,6.5-8.8,10.6l0,0c0,0.2,0,0.8,0,1l0,0c0,3.2,3.6,6.2,9.3,8.4c0.3,0.1,0.6,0.2,1.1,0.2h45.8c0.3,0,0.8-0.1,1.1-0.2
			c5.7-2.2,9.3-5.1,9.3-8.4l0,0C607.1,522.9,607.1,522.3,607.1,522.1z"/>
		<circle class="st1" cx="573.8" cy="521.2" r="18"/>
	</g>
	<g>
		<path class="st1" d="M406.4,525.8L406.4,525.8c0-4.1-3.4-7.9-8.8-10.7c-0.6-0.3-1.4-0.5-2.3-0.5h-44.6c-0.8,0-1.5,0.2-2.3,0.5
			c-5.4,2.8-8.8,6.5-8.8,10.6l0,0c0,0.2,0,0.8,0,1l0,0c0,3.2,3.6,6.2,9.3,8.4c0.3,0.1,0.6,0.2,1.1,0.2h45.8c0.3,0,0.8-0.1,1.1-0.2
			c5.7-2.2,9.3-5.1,9.3-8.4l0,0C406.4,526.7,406.4,526,406.4,525.8z"/>
		<circle class="st2" cx="373.1" cy="525" r="18"/>
	</g>
</g>
<g id="ersteG">
	<g>
		<path class="st0" d="M301.4,578.1L301.4,578.1c0-4.1-3.4-7.9-8.8-10.7c-0.6-0.3-1.4-0.5-2.3-0.5h-44.5c-0.8,0-1.5,0.2-2.3,0.5
			c-5.4,2.8-8.8,6.5-8.8,10.6l0,0c0,0.2,0,0.8,0,1l0,0c0,3.2,3.6,6.2,9.3,8.4c0.3,0.1,0.6,0.2,1.1,0.2H291c0.3,0,0.8-0.1,1.1-0.2
			c5.7-2.2,9.3-5.1,9.3-8.4l0,0C301.4,578.9,301.4,578.2,301.4,578.1z"/>
		<circle class="st1" cx="268.1" cy="577.2" r="18"/>
	</g>
	<g>
		<path class="st1" d="M511.1,578.1L511.1,578.1c0-4.1-3.4-7.9-8.8-10.7c-0.6-0.3-1.4-0.5-2.3-0.5h-44.6c-0.8,0-1.5,0.2-2.3,0.5
			c-5.4,2.8-8.8,6.5-8.8,10.6l0,0c0,0.2,0,0.8,0,1l0,0c0,3.2,3.6,6.2,9.3,8.4c0.3,0.1,0.6,0.2,1.1,0.2h45.8c0.3,0,0.8-0.1,1.1-0.2
			c5.7-2.2,9.3-5.1,9.3-8.4l0,0C511.1,578.9,511.1,578.2,511.1,578.1z"/>
		<circle class="st2" cx="477.7" cy="577.2" r="18"/>
	</g>
	<g>
		<path class="st1" d="M607.1,578L607.1,578c0-4.1-3.4-7.9-8.8-10.7c-0.6-0.3-1.4-0.5-2.3-0.5h-44.6c-0.8,0-1.5,0.2-2.3,0.5
			c-5.4,2.8-8.8,6.5-8.8,10.6l0,0c0,0.2,0,0.8,0,1l0,0c0,3.2,3.6,6.2,9.3,8.4c0.3,0.1,0.6,0.2,1.1,0.2h45.8c0.3,0,0.8-0.1,1.1-0.2
			c5.7-2.2,9.3-5.1,9.3-8.4l0,0C607.1,578.9,607.1,578.2,607.1,578z"/>
		<circle class="st0" cx="573.8" cy="577.2" r="18"/>
	</g>
	<g>
		<path class="st2" d="M406.4,578.1L406.4,578.1c0-4.1-3.4-7.9-8.8-10.7c-0.6-0.3-1.4-0.5-2.3-0.5h-44.6c-0.8,0-1.5,0.2-2.3,0.5
			c-5.4,2.8-8.8,6.5-8.8,10.6l0,0c0,0.2,0,0.8,0,1l0,0c0,3.2,3.6,6.2,9.3,8.4c0.3,0.1,0.6,0.2,1.1,0.2h45.8c0.3,0,0.8-0.1,1.1-0.2
			c5.7-2.2,9.3-5.1,9.3-8.4l0,0C406.4,578.9,406.4,578.2,406.4,578.1z"/>
		<circle class="st0" cx="373.1" cy="577.2" r="18"/>
	</g>
</g>
</svg>
