<?xml version="1.0" encoding="utf-8"?>
<!-- Generator: Adobe Illustrator 18.0.0, SVG Export Plug-In . SVG Version: 6.00 Build 0)  -->
<!DOCTYPE svg PUBLIC "-//W3C//DTD SVG 1.1//EN" "http://www.w3.org/Graphics/SVG/1.1/DTD/svg11.dtd">
<svg version="1.1" id="Layer_1" xmlns="http://www.w3.org/2000/svg" xmlns:xlink="http://www.w3.org/1999/xlink" x="0px" y="0px"
	 viewBox="0 0 344.5 550.8" enable-background="new 0 0 344.5 550.8" xml:space="preserve">
<g>
	<g>
		<path fill="#E30613" d="M255.7,172.7C255.7,172.7,255.7,172.7,255.7,172.7c0-3.8-3.1-7.3-8.1-9.9c-0.6-0.3-1.3-0.5-2.1-0.5h-41.3
			c-0.7,0-1.4,0.2-2.1,0.5c-5,2.6-8.1,6-8.1,9.8c0,0,0,0,0,0c0,0.2,0,0.7,0,0.9c0,0,0,0,0,0c0,3,3.3,5.7,8.6,7.8
			c0.3,0.1,0.6,0.2,1,0.2h42.4c0.3,0,0.7-0.1,1-0.2c5.3-2,8.6-4.7,8.6-7.8c0,0,0,0,0,0C255.7,173.4,255.7,172.9,255.7,172.7z"/>
		<circle fill="#F9B233" cx="224.8" cy="172" r="16.7"/>
	</g>
	<g>
		<path fill="#E30613" d="M344.5,172.7C344.5,172.7,344.5,172.7,344.5,172.7c0-3.8-3.1-7.3-8.1-9.9c-0.6-0.3-1.3-0.5-2.1-0.5h-41.3
			c-0.7,0-1.4,0.2-2.1,0.5c-5,2.6-8.1,6-8.1,9.8c0,0,0,0,0,0c0,0.2,0,0.7,0,0.9c0,0,0,0,0,0c0,3,3.3,5.7,8.6,7.8
			c0.3,0.1,0.6,0.2,1,0.2h42.4c0.3,0,0.7-0.1,1-0.2c5.3-2,8.6-4.7,8.6-7.8c0,0,0,0,0,0C344.5,173.4,344.5,172.8,344.5,172.7z"/>
		<circle fill="#27348B" cx="313.7" cy="171.9" r="16.7"/>
	</g>
</g>
<g>
	<g>
		<path fill="#F9B233" d="M255.7,224.4C255.7,224.4,255.7,224.4,255.7,224.4c0-3.8-3.1-7.3-8.1-9.9c-0.6-0.3-1.3-0.5-2.1-0.5h-41.3
			c-0.7,0-1.4,0.2-2.1,0.5c-5,2.6-8.1,6-8.1,9.8c0,0,0,0,0,0c0,0.2,0,0.7,0,0.9c0,0,0,0,0,0c0,3,3.3,5.7,8.6,7.8
			c0.3,0.1,0.6,0.2,1,0.2h42.4c0.3,0,0.7-0.1,1-0.2c5.3-2,8.6-4.7,8.6-7.8c0,0,0,0,0,0C255.7,225.2,255.7,224.6,255.7,224.4z"/>
		<circle fill="#E30613" cx="224.8" cy="223.7" r="16.7"/>
	</g>
	<g>
		<path fill="#27348B" d="M344.5,224.4C344.5,224.4,344.5,224.4,344.5,224.4c0-3.8-3.1-7.3-8.1-9.9c-0.6-0.3-1.3-0.5-2.1-0.5h-41.3
			c-0.7,0-1.4,0.2-2.1,0.5c-5,2.6-8.1,6-8.1,9.8c0,0,0,0,0,0c0,0.2,0,0.7,0,0.9c0,0,0,0,0,0c0,3,3.3,5.7,8.6,7.8
			c0.3,0.1,0.6,0.2,1,0.2h42.4c0.3,0,0.7-0.1,1-0.2c5.3-2,8.6-4.7,8.6-7.8c0,0,0,0,0,0C344.5,225.1,344.5,224.6,344.5,224.4z"/>
		<circle fill="#F9B233" cx="313.7" cy="223.6" r="16.7"/>
	</g>
</g>
<g>
	<path fill="#F9B233" d="M344.5,121C344.5,121,344.5,120.9,344.5,121c0-3.8-3.1-7.3-8.1-9.9c-0.6-0.3-1.3-0.5-2.1-0.5h-41.3
		c-0.7,0-1.4,0.2-2.1,0.5c-5,2.6-8.1,6-8.1,9.8c0,0,0,0,0,0c0,0.2,0,0.7,0,0.9c0,0,0,0,0,0c0,3,3.3,5.7,8.6,7.8
		c0.3,0.1,0.6,0.2,1,0.2h42.4c0.3,0,0.7-0.1,1-0.2c5.3-2,8.6-4.7,8.6-7.8c0,0,0,0,0,0C344.5,121.7,344.5,121.1,344.5,121z"/>
	<circle fill="#E30613" cx="313.7" cy="120.2" r="16.7"/>
</g>
<g>
	<path fill="#27348B" d="M344.5,17.5C344.5,17.5,344.5,17.5,344.5,17.5c0-3.8-3.1-7.3-8.1-9.9c-0.6-0.3-1.3-0.5-2.1-0.5h-41.3
		c-0.7,0-1.4,0.2-2.1,0.5c-5,2.6-8.1,6-8.1,9.8c0,0,0,0,0,0c0,0.2,0,0.7,0,0.9c0,0,0,0,0,0c0,3,3.3,5.7,8.6,7.8
		c0.3,0.1,0.6,0.2,1,0.2h42.4c0.3,0,0.7-0.1,1-0.2c5.3-2,8.6-4.7,8.6-7.8c0,0,0,0,0,0C344.5,18.2,344.5,17.7,344.5,17.5z"/>
	<circle fill="#F9B233" cx="313.7" cy="16.7" r="16.7"/>
</g>
<g>
	<path fill="#F9B233" d="M344.5,69.2C344.5,69.2,344.5,69.2,344.5,69.2c0-3.8-3.1-7.3-8.1-9.9c-0.6-0.3-1.3-0.5-2.1-0.5h-41.3
		c-0.7,0-1.4,0.2-2.1,0.5c-5,2.6-8.1,6-8.1,9.8c0,0,0,0,0,0c0,0.2,0,0.7,0,0.9c0,0,0,0,0,0c0,3,3.3,5.7,8.6,7.8
		c0.3,0.1,0.6,0.2,1,0.2h42.4c0.3,0,0.7-0.1,1-0.2c5.3-2,8.6-4.7,8.6-7.8c0,0,0,0,0,0C344.5,70,344.5,69.4,344.5,69.2z"/>
	<circle fill="#27348B" cx="313.7" cy="68.5" r="16.7"/>
</g>
<g>
	<g>
		<path fill="#E30613" d="M61.6,486.5C61.6,486.5,61.6,486.5,61.6,486.5c0-3.8-3.1-7.3-8.1-9.9c-0.6-0.3-1.3-0.5-2.1-0.5H10.2
			c-0.7,0-1.4,0.2-2.1,0.5c-5,2.6-8.1,6-8.1,9.8c0,0,0,0,0,0c0,0.2,0,0.7,0,0.9c0,0,0,0,0,0c0,3,3.3,5.7,8.6,7.8
			c0.3,0.1,0.6,0.2,1,0.2H52c0.3,0,0.7-0.1,1-0.2c5.3-2,8.6-4.7,8.6-7.8c0,0,0,0,0,0C61.6,487.3,61.6,486.7,61.6,486.5z"/>
		<circle fill="#27348B" cx="30.8" cy="485.8" r="16.7"/>
	</g>
	<g>
		<path fill="#E30613" d="M255.7,483.1C255.7,483.1,255.7,483.1,255.7,483.1c0-3.8-3.1-7.3-8.1-9.9c-0.6-0.3-1.3-0.5-2.1-0.5h-41.3
			c-0.7,0-1.4,0.2-2.1,0.5c-5,2.6-8.1,6-8.1,9.8c0,0,0,0,0,0c0,0.2,0,0.7,0,0.9c0,0,0,0,0,0c0,3,3.3,5.7,8.6,7.8
			c0.3,0.1,0.6,0.2,1,0.2h42.4c0.3,0,0.7-0.1,1-0.2c5.3-2,8.6-4.7,8.6-7.8c0,0,0,0,0,0C255.7,483.9,255.7,483.3,255.7,483.1z"/>
		<circle fill="#27348B" cx="224.8" cy="482.4" r="16.7"/>
	</g>
	<g>
		<path fill="#27348B" d="M344.5,483.1C344.5,483.1,344.5,483.1,344.5,483.1c0-3.8-3.1-7.3-8.1-9.9c-0.6-0.3-1.3-0.5-2.1-0.5h-41.3
			c-0.7,0-1.4,0.2-2.1,0.5c-5,2.6-8.1,6-8.1,9.8c0,0,0,0,0,0c0,0.2,0,0.7,0,0.9c0,0,0,0,0,0c0,3,3.3,5.7,8.6,7.8
			c0.3,0.1,0.6,0.2,1,0.2h42.4c0.3,0,0.7-0.1,1-0.2c5.3-2,8.6-4.7,8.6-7.8c0,0,0,0,0,0C344.5,483.8,344.5,483.3,344.5,483.1z"/>
		<circle fill="#F9B233" cx="313.7" cy="482.3" r="16.7"/>
	</g>
	<g>
		<path fill="#F9B233" d="M158.8,486.5C158.8,486.5,158.8,486.5,158.8,486.5c0-3.8-3.1-7.3-8.1-9.9c-0.6-0.3-1.3-0.5-2.1-0.5h-41.3
			c-0.7,0-1.4,0.2-2.1,0.5c-5,2.6-8.1,6-8.1,9.8c0,0,0,0,0,0c0,0.2,0,0.7,0,0.9c0,0,0,0,0,0c0,3,3.3,5.7,8.6,7.8
			c0.3,0.1,0.6,0.2,1,0.2h42.4c0.3,0,0.7-0.1,1-0.2c5.3-2,8.6-4.7,8.6-7.8c0,0,0,0,0,0C158.8,487.3,158.8,486.7,158.8,486.5z"/>
		<circle fill="#E30613" cx="128" cy="485.8" r="16.7"/>
	</g>
</g>
<g>
	<g>
		<path fill="#E30613" d="M61.6,431.4C61.6,431.4,61.6,431.4,61.6,431.4c0-3.8-3.1-7.3-8.1-9.9c-0.6-0.3-1.3-0.5-2.1-0.5H10.2
			c-0.7,0-1.4,0.2-2.1,0.5c-5,2.6-8.1,6-8.1,9.8c0,0,0,0,0,0c0,0.2,0,0.7,0,0.9c0,0,0,0,0,0c0,3,3.3,5.7,8.6,7.8
			c0.3,0.1,0.6,0.2,1,0.2H52c0.3,0,0.7-0.1,1-0.2c5.3-2,8.6-4.7,8.6-7.8c0,0,0,0,0,0C61.6,432.1,61.6,431.6,61.6,431.4z"/>
		<circle fill="#F9B233" cx="30.8" cy="430.6" r="16.7"/>
	</g>
	<g>
		<path fill="#27348B" d="M255.7,431.4C255.7,431.4,255.7,431.4,255.7,431.4c0-3.8-3.1-7.3-8.1-9.9c-0.6-0.3-1.3-0.5-2.1-0.5h-41.3
			c-0.7,0-1.4,0.2-2.1,0.5c-5,2.6-8.1,6-8.1,9.8c0,0,0,0,0,0c0,0.2,0,0.7,0,0.9c0,0,0,0,0,0c0,3,3.3,5.7,8.6,7.8
			c0.3,0.1,0.6,0.2,1,0.2h42.4c0.3,0,0.7-0.1,1-0.2c5.3-2,8.6-4.7,8.6-7.8c0,0,0,0,0,0C255.7,432.1,255.7,431.6,255.7,431.4z"/>
		<circle fill="#F9B233" cx="224.8" cy="430.6" r="16.7"/>
	</g>
	<g>
		<path fill="#F9B233" d="M344.5,431.3C344.5,431.3,344.5,431.3,344.5,431.3c0-3.8-3.1-7.3-8.1-9.9c-0.6-0.3-1.3-0.5-2.1-0.5h-41.3
			c-0.7,0-1.4,0.2-2.1,0.5c-5,2.6-8.1,6-8.1,9.8c0,0,0,0,0,0c0,0.2,0,0.7,0,0.9c0,0,0,0,0,0c0,3,3.3,5.7,8.6,7.8
			c0.3,0.1,0.6,0.2,1,0.2h42.4c0.3,0,0.7-0.1,1-0.2c5.3-2,8.6-4.7,8.6-7.8c0,0,0,0,0,0C344.5,432.1,344.5,431.5,344.5,431.3z"/>
		<circle fill="#E30613" cx="313.7" cy="430.6" r="16.7"/>
	</g>
	<g>
		<path fill="#F9B233" d="M158.8,431.4C158.8,431.4,158.8,431.4,158.8,431.4c0-3.8-3.1-7.3-8.1-9.9c-0.6-0.3-1.3-0.5-2.1-0.5h-41.3
			c-0.7,0-1.4,0.2-2.1,0.5c-5,2.6-8.1,6-8.1,9.8c0,0,0,0,0,0c0,0.2,0,0.7,0,0.9c0,0,0,0,0,0c0,3,3.3,5.7,8.6,7.8
			c0.3,0.1,0.6,0.2,1,0.2h42.4c0.3,0,0.7-0.1,1-0.2c5.3-2,8.6-4.7,8.6-7.8c0,0,0,0,0,0C158.8,432.1,158.8,431.6,158.8,431.4z"/>
		<circle fill="#27348B" cx="128" cy="430.6" r="16.7"/>
	</g>
</g>
<g>
	<g>
		<path fill="#27348B" d="M61.6,534.9C61.6,534.9,61.6,534.9,61.6,534.9c0-3.8-3.1-7.3-8.1-9.9c-0.6-0.3-1.3-0.5-2.1-0.5H10.2
			c-0.7,0-1.4,0.2-2.1,0.5c-5,2.6-8.1,6-8.1,9.8c0,0,0,0,0,0c0,0.2,0,0.7,0,0.9c0,0,0,0,0,0c0,3,3.3,5.7,8.6,7.8
			c0.3,0.1,0.6,0.2,1,0.2H52c0.3,0,0.7-0.1,1-0.2c5.3-2,8.6-4.7,8.6-7.8c0,0,0,0,0,0C61.6,535.6,61.6,535,61.6,534.9z"/>
		<circle fill="#F9B233" cx="30.8" cy="534.1" r="16.7"/>
	</g>
	<g>
		<path fill="#F9B233" d="M255.7,534.9C255.7,534.9,255.7,534.9,255.7,534.9c0-3.8-3.1-7.3-8.1-9.9c-0.6-0.3-1.3-0.5-2.1-0.5h-41.3
			c-0.7,0-1.4,0.2-2.1,0.5c-5,2.6-8.1,6-8.1,9.8c0,0,0,0,0,0c0,0.2,0,0.7,0,0.9c0,0,0,0,0,0c0,3,3.3,5.7,8.6,7.8
			c0.3,0.1,0.6,0.2,1,0.2h42.4c0.3,0,0.7-0.1,1-0.2c5.3-2,8.6-4.7,8.6-7.8c0,0,0,0,0,0C255.7,535.6,255.7,535,255.7,534.9z"/>
		<circle fill="#E30613" cx="224.8" cy="534.1" r="16.7"/>
	</g>
	<g>
		<path fill="#F9B233" d="M344.5,534.8C344.5,534.8,344.5,534.8,344.5,534.8c0-3.8-3.1-7.3-8.1-9.9c-0.6-0.3-1.3-0.5-2.1-0.5h-41.3
			c-0.7,0-1.4,0.2-2.1,0.5c-5,2.6-8.1,6-8.1,9.8c0,0,0,0,0,0c0,0.2,0,0.7,0,0.9c0,0,0,0,0,0c0,3,3.3,5.7,8.6,7.8
			c0.3,0.1,0.6,0.2,1,0.2h42.4c0.3,0,0.7-0.1,1-0.2c5.3-2,8.6-4.7,8.6-7.8c0,0,0,0,0,0C344.5,535.6,344.5,535,344.5,534.8z"/>
		<circle fill="#27348B" cx="313.7" cy="534.1" r="16.7"/>
	</g>
	<g>
		<path fill="#E30613" d="M158.8,534.9C158.8,534.9,158.8,534.9,158.8,534.9c0-3.8-3.1-7.3-8.1-9.9c-0.6-0.3-1.3-0.5-2.1-0.5h-41.3
			c-0.7,0-1.4,0.2-2.1,0.5c-5,2.6-8.1,6-8.1,9.8c0,0,0,0,0,0c0,0.2,0,0.7,0,0.9c0,0,0,0,0,0c0,3,3.3,5.7,8.6,7.8
			c0.3,0.1,0.6,0.2,1,0.2h42.4c0.3,0,0.7-0.1,1-0.2c5.3-2,8.6-4.7,8.6-7.8c0,0,0,0,0,0C158.8,535.6,158.8,535,158.8,534.9z"/>
		<circle fill="#27348B" cx="128" cy="534.1" r="16.7"/>
	</g>
</g>
<g>
	<g>
		<path fill="#F9B233" d="M61.6,327.9C61.6,327.9,61.6,327.9,61.6,327.9c0-3.8-3.1-7.3-8.1-9.9c-0.6-0.3-1.3-0.5-2.1-0.5H10.2
			c-0.7,0-1.4,0.2-2.1,0.5c-5,2.6-8.1,6-8.1,9.8c0,0,0,0,0,0c0,0.2,0,0.7,0,0.9c0,0,0,0,0,0c0,3,3.3,5.7,8.6,7.8
			c0.3,0.1,0.6,0.2,1,0.2H52c0.3,0,0.7-0.1,1-0.2c5.3-2,8.6-4.7,8.6-7.8c0,0,0,0,0,0C61.6,328.6,61.6,328.1,61.6,327.9z"/>
		<circle fill="#E30613" cx="30.8" cy="327.1" r="16.7"/>
	</g>
	<g>
		<path fill="#F9B233" d="M255.7,327.9C255.7,327.9,255.7,327.9,255.7,327.9c0-3.8-3.1-7.3-8.1-9.9c-0.6-0.3-1.3-0.5-2.1-0.5h-41.3
			c-0.7,0-1.4,0.2-2.1,0.5c-5,2.6-8.1,6-8.1,9.8c0,0,0,0,0,0c0,0.2,0,0.7,0,0.9c0,0,0,0,0,0c0,3,3.3,5.7,8.6,7.8
			c0.3,0.1,0.6,0.2,1,0.2h42.4c0.3,0,0.7-0.1,1-0.2c5.3-2,8.6-4.7,8.6-7.8c0,0,0,0,0,0C255.7,328.6,255.7,328.1,255.7,327.9z"/>
		<circle fill="#E30613" cx="224.8" cy="327.1" r="16.7"/>
	</g>
	<g>
		<path fill="#E30613" d="M344.5,327.9C344.5,327.9,344.5,327.8,344.5,327.9c0-3.8-3.1-7.3-8.1-9.9c-0.6-0.3-1.3-0.5-2.1-0.5h-41.3
			c-0.7,0-1.4,0.2-2.1,0.5c-5,2.6-8.1,6-8.1,9.8c0,0,0,0,0,0c0,0.2,0,0.7,0,0.9c0,0,0,0,0,0c0,3,3.3,5.7,8.6,7.8
			c0.3,0.1,0.6,0.2,1,0.2h42.4c0.3,0,0.7-0.1,1-0.2c5.3-2,8.6-4.7,8.6-7.8c0,0,0,0,0,0C344.5,328.6,344.5,328,344.5,327.9z"/>
		<circle fill="#F9B233" cx="313.7" cy="327.1" r="16.7"/>
	</g>
	<g>
		<path fill="#27348B" d="M158.8,327.9C158.8,327.9,158.8,327.9,158.8,327.9c0-3.8-3.1-7.3-8.1-9.9c-0.6-0.3-1.3-0.5-2.1-0.5h-41.3
			c-0.7,0-1.4,0.2-2.1,0.5c-5,2.6-8.1,6-8.1,9.8c0,0,0,0,0,0c0,0.2,0,0.7,0,0.9c0,0,0,0,0,0c0,3,3.3,5.7,8.6,7.8
			c0.3,0.1,0.6,0.2,1,0.2h42.4c0.3,0,0.7-0.1,1-0.2c5.3-2,8.6-4.7,8.6-7.8c0,0,0,0,0,0C158.8,328.6,158.8,328.1,158.8,327.9z"/>
		<circle fill="#F9B233" cx="128" cy="327.1" r="16.7"/>
	</g>
</g>
<g>
	<g>
		<path fill="#F9B233" d="M61.6,379.6C61.6,379.6,61.6,379.6,61.6,379.6c0-3.8-3.1-7.3-8.1-9.9c-0.6-0.3-1.3-0.5-2.1-0.5H10.2
			c-0.7,0-1.4,0.2-2.1,0.5c-5,2.6-8.1,6-8.1,9.8c0,0,0,0,0,0c0,0.2,0,0.7,0,0.9c0,0,0,0,0,0c0,3,3.3,5.7,8.6,7.8
			c0.3,0.1,0.6,0.2,1,0.2H52c0.3,0,0.7-0.1,1-0.2c5.3-2,8.6-4.7,8.6-7.8c0,0,0,0,0,0C61.6,380.4,61.6,379.8,61.6,379.6z"/>
		<circle fill="#27348B" cx="30.8" cy="378.9" r="16.7"/>
	</g>
	<g>
		<path fill="#E30613" d="M255.7,379.6C255.7,379.6,255.7,379.6,255.7,379.6c0-3.8-3.1-7.3-8.1-9.9c-0.6-0.3-1.3-0.5-2.1-0.5h-41.3
			c-0.7,0-1.4,0.2-2.1,0.5c-5,2.6-8.1,6-8.1,9.8c0,0,0,0,0,0c0,0.2,0,0.7,0,0.9c0,0,0,0,0,0c0,3,3.3,5.7,8.6,7.8
			c0.3,0.1,0.6,0.2,1,0.2h42.4c0.3,0,0.7-0.1,1-0.2c5.3-2,8.6-4.7,8.6-7.8c0,0,0,0,0,0C255.7,380.4,255.7,379.8,255.7,379.6z"/>
		<circle fill="#27348B" cx="224.8" cy="378.9" r="16.7"/>
	</g>
	<g>
		<path fill="#27348B" d="M344.5,379.6C344.5,379.6,344.5,379.6,344.5,379.6c0-3.8-3.1-7.3-8.1-9.9c-0.6-0.3-1.3-0.5-2.1-0.5h-41.3
			c-0.7,0-1.4,0.2-2.1,0.5c-5,2.6-8.1,6-8.1,9.8c0,0,0,0,0,0c0,0.2,0,0.7,0,0.9c0,0,0,0,0,0c0,3,3.3,5.7,8.6,7.8
			c0.3,0.1,0.6,0.2,1,0.2h42.4c0.3,0,0.7-0.1,1-0.2c5.3-2,8.6-4.7,8.6-7.8c0,0,0,0,0,0C344.5,380.3,344.5,379.8,344.5,379.6z"/>
		<circle fill="#F9B233" cx="313.7" cy="378.8" r="16.7"/>
	</g>
	<g>
		<path fill="#27348B" d="M158.8,379.6C158.8,379.6,158.8,379.6,158.8,379.6c0-3.8-3.1-7.3-8.1-9.9c-0.6-0.3-1.3-0.5-2.1-0.5h-41.3
			c-0.7,0-1.4,0.2-2.1,0.5c-5,2.6-8.1,6-8.1,9.8c0,0,0,0,0,0c0,0.2,0,0.7,0,0.9c0,0,0,0,0,0c0,3,3.3,5.7,8.6,7.8
			c0.3,0.1,0.6,0.2,1,0.2h42.4c0.3,0,0.7-0.1,1-0.2c5.3-2,8.6-4.7,8.6-7.8c0,0,0,0,0,0C158.8,380.4,158.8,379.8,158.8,379.6z"/>
		<circle fill="#E30613" cx="128" cy="378.9" r="16.7"/>
	</g>
</g>
<g>
	<g>
		<path fill="#E30613" d="M255.7,276.2C255.7,276.2,255.7,276.1,255.7,276.2c0-3.8-3.1-7.3-8.1-9.9c-0.6-0.3-1.3-0.5-2.1-0.5h-41.3
			c-0.7,0-1.4,0.2-2.1,0.5c-5,2.6-8.1,6-8.1,9.8c0,0,0,0,0,0c0,0.2,0,0.7,0,0.9c0,0,0,0,0,0c0,3,3.3,5.7,8.6,7.8
			c0.3,0.1,0.6,0.2,1,0.2h42.4c0.3,0,0.7-0.1,1-0.2c5.3-2,8.6-4.7,8.6-7.8c0,0,0,0,0,0C255.7,276.9,255.7,276.3,255.7,276.2z"/>
		<circle fill="#27348B" cx="224.8" cy="275.4" r="16.7"/>
	</g>
	<g>
		<path fill="#E30613" d="M344.5,276.1C344.5,276.1,344.5,276.1,344.5,276.1c0-3.8-3.1-7.3-8.1-9.9c-0.6-0.3-1.3-0.5-2.1-0.5h-41.3
			c-0.7,0-1.4,0.2-2.1,0.5c-5,2.6-8.1,6-8.1,9.8c0,0,0,0,0,0c0,0.2,0,0.7,0,0.9c0,0,0,0,0,0c0,3,3.3,5.7,8.6,7.8
			c0.3,0.1,0.6,0.2,1,0.2h42.4c0.3,0,0.7-0.1,1-0.2c5.3-2,8.6-4.7,8.6-7.8c0,0,0,0,0,0C344.5,276.9,344.5,276.3,344.5,276.1z"/>
		<circle fill="#27348B" cx="313.7" cy="275.4" r="16.7"/>
	</g>
	<g>
		<path fill="#F9B233" d="M158.8,276.2C158.8,276.2,158.8,276.1,158.8,276.2c0-3.8-3.1-7.3-8.1-9.9c-0.6-0.3-1.3-0.5-2.1-0.5h-41.3
			c-0.7,0-1.4,0.2-2.1,0.5c-5,2.6-8.1,6-8.1,9.8c0,0,0,0,0,0c0,0.2,0,0.7,0,0.9c0,0,0,0,0,0c0,3,3.3,5.7,8.6,7.8
			c0.3,0.1,0.6,0.2,1,0.2h42.4c0.3,0,0.7-0.1,1-0.2c5.3-2,8.6-4.7,8.6-7.8c0,0,0,0,0,0C158.8,276.9,158.8,276.3,158.8,276.2z"/>
		<circle fill="#27348B" cx="128" cy="275.4" r="16.7"/>
	</g>
</g>
</svg>
