<?xml version="1.0" encoding="utf-8"?>
<!-- Generator: Adobe Illustrator 19.1.0, SVG Export Plug-In . SVG Version: 6.00 Build 0)  -->
<svg version="1.1" id="Ebene_1" xmlns="http://www.w3.org/2000/svg" xmlns:xlink="http://www.w3.org/1999/xlink" x="0px" y="0px"
	 viewBox="0 0 2422 676.4" style="enable-background:new 0 0 2422 676.4;" xml:space="preserve">
<style type="text/css">
	.st0{display:none;}
	.st1{display:none;fill:#D42016;stroke:#941914;stroke-miterlimit:10;}
	.st2{display:none;fill:#294B9B;}
	.st3{fill:#294B9B;}
	.st4{fill:#E30613;}
	.st5{fill:#F9B233;}
	.st6{fill:#27348B;}
	.st7{fill:#27348B;stroke:#FFFFFF;stroke-width:4;stroke-miterlimit:10;}
	.st8{fill:#E6332A;}
	.st9{fill:#F39200;}
</style>
<g>
	<path class="st5" d="M752.4,378.7c-22.7-41.2-94.8-5.9-97.7-5c-68,20.4-119.4,28.3-184.6,16.8c-65.2-11.5-102.5-58.3-102.5-58.3
		c-1.4-1.9-3-3.8-4.6-5.7c-3.8-4.3-7.8-8.1-12.1-11.5c-7.7-6.9-17.3-14.2-27.4-18.7l-6.3-61.4c-0.8-8.2-8.3-14.2-16.5-13.4
		c-8.2,0.8-14.2,8.3-13.4,16.5l5.8,56.7c-7.9,3.7-15.1,11.5-20.9,25.3c0,0,0,0,0,0c-5.8,12.1-4.3,27.2-0.3,43.1
		c32.5,131,276,190.9,432.2,97.7C727.1,447,775.8,421,752.4,378.7z"/>
	<g>
		<path class="st6" d="M476.6,391.1h-1c-2.3,0-4.2-1.9-4.2-4.2v-46.6c0-2.3,1.9-4.2,4.2-4.2h1c2.3,0,4.2,1.9,4.2,4.2v46.6
			C480.8,389.2,478.9,391.1,476.6,391.1z"/>
		<ellipse class="st6" cx="525.1" cy="338.7" rx="53.8" ry="30.5"/>
		<path class="st4" d="M476,389.4c-67.6-42.1-111.9,14.4-111.9,75.1c0,61,49.4,110.4,110.4,110.4c0.5,0,1,0,1.5,0c0.5,0,1,0,1.5,0
			c61,0,110.4-49.4,110.4-110.4C587.9,403.8,543.7,347.3,476,389.4z"/>
	</g>
	<g>
		
			<ellipse transform="matrix(9.623148e-02 0.9954 -0.9954 9.623148e-02 797.7968 273.0257)" class="st7" cx="248.6" cy="575.8" rx="30.7" ry="24.3"/>
		<path class="st4" d="M210.3,429.7L210.3,429.7c0.6,2.3-0.8,4.6-3,5.2l-39.3,10.3c-2.3,0.6-4.6-0.8-5.2-3l0,0
			c-0.6-2.3,0.8-4.6,3-5.2l39.3-10.3C207.3,426.1,209.7,427.4,210.3,429.7z"/>
		
			<rect x="142.4" y="367.8" transform="matrix(0.3875 -0.9219 0.9219 0.3875 -310.9473 401.424)" class="st4" width="8.5" height="133.9"/>
		
			<ellipse transform="matrix(-0.1458 0.9893 -0.9893 -0.1458 726.1701 463.5863)" class="st7" cx="162.9" cy="545.3" rx="30.7" ry="24.3"/>
		
			<ellipse transform="matrix(-0.2089 0.9779 -0.9779 -0.2089 938.9846 364.5974)" class="st7" cx="322" cy="562.1" rx="27.4" ry="21.7"/>
		
			<ellipse transform="matrix(-0.5227 -0.8525 0.8525 -0.5227 75.4148 1192.7988)" class="st7" cx="371.6" cy="575.3" rx="31.6" ry="25.1"/>
		
			<ellipse transform="matrix(-0.9406 0.3394 -0.3394 -0.9406 827.2833 741.6583)" class="st7" cx="348.8" cy="443.2" rx="25.7" ry="20.4"/>
		
			<ellipse transform="matrix(-1 -5.128868e-03 5.128868e-03 -1 721.8098 944.4793)" class="st7" cx="362.1" cy="471.3" rx="25.7" ry="20.4"/>
		
			<ellipse transform="matrix(-0.9647 -0.2633 0.2633 -0.9647 504.052 1083.0682)" class="st7" cx="324.6" cy="507.8" rx="26.2" ry="20.8"/>
		
			<ellipse transform="matrix(-0.8245 -0.5658 0.5658 -0.8245 231.5683 1123.6951)" class="st7" cx="290" cy="525.9" rx="26.2" ry="20.8"/>
		
			<ellipse transform="matrix(-0.7109 0.7033 -0.7033 -0.7109 689.6847 589.0091)" class="st7" cx="223.8" cy="436.3" rx="27.4" ry="21.7"/>
		
			<ellipse transform="matrix(-0.9973 7.375007e-02 -7.375007e-02 -0.9973 573.0455 977.9384)" class="st7" cx="268.5" cy="499.5" rx="31.6" ry="25.1"/>
		
			<ellipse transform="matrix(0.2355 -0.9719 0.9719 0.2355 -351.712 628.7299)" class="st7" cx="223.8" cy="537.9" rx="24.4" ry="19.4"/>
		
			<ellipse transform="matrix(0.5337 -0.8457 0.8457 0.5337 -288.9878 543.7446)" class="st7" cx="348.6" cy="533.9" rx="31.6" ry="25.1"/>
		
			<ellipse transform="matrix(0.5337 -0.8457 0.8457 0.5337 -290.8876 623.038)" class="st7" cx="419.5" cy="575.3" rx="31.6" ry="25.1"/>
		
			<ellipse transform="matrix(-0.7788 0.6273 -0.6273 -0.7788 1052.7996 635.2481)" class="st7" cx="414.4" cy="503.3" rx="31.6" ry="25.1"/>
		
			<ellipse transform="matrix(-0.6986 0.7155 -0.7155 -0.6986 1025.687 507.8194)" class="st7" cx="405.9" cy="469.9" rx="25.7" ry="20.4"/>
		
			<ellipse transform="matrix(-0.9051 -0.4251 0.4251 -0.9051 623.4501 1263.3267)" class="st7" cx="452.7" cy="562.1" rx="31.6" ry="25.1"/>
		
			<ellipse transform="matrix(-0.7071 -0.7071 0.7071 -0.7071 350.0362 1369.1807)" class="st7" cx="458.6" cy="612.1" rx="31.6" ry="25.1"/>
		
			<ellipse transform="matrix(-0.7071 -0.7071 0.7071 -0.7071 434.4626 1368.1512)" class="st7" cx="500.6" cy="594.1" rx="31.6" ry="25.1"/>
		
			<ellipse transform="matrix(-0.9051 -0.4251 0.4251 -0.9051 635.0144 1193.5767)" class="st7" cx="450.7" cy="525.9" rx="31.6" ry="25.1"/>
		
			<ellipse transform="matrix(4.734129e-03 -1 1 4.734129e-03 -210.1731 913.0371)" class="st7" cx="353.6" cy="562.1" rx="31.6" ry="25.1"/>
		
			<ellipse transform="matrix(-0.9051 -0.4251 0.4251 -0.9051 526.076 1188.8195)" class="st7" cx="395.7" cy="535.7" rx="31.6" ry="25.1"/>
		
			<ellipse transform="matrix(-0.8374 -0.5465 0.5465 -0.8374 320.8488 1062.259)" class="st7" cx="318.4" cy="483.4" rx="26.2" ry="20.8"/>
		
			<ellipse transform="matrix(-0.8245 -0.5658 0.5658 -0.8245 278.3991 972.695)" class="st7" cx="290" cy="443.2" rx="26.2" ry="20.8"/>
		
			<ellipse transform="matrix(-0.8245 -0.5658 0.5658 -0.8245 115.8889 994.7761)" class="st7" cx="212.2" cy="479.4" rx="26.2" ry="20.8"/>
		
			<ellipse transform="matrix(-0.9865 -0.1639 0.1639 -0.9865 566.1313 944.1877)" class="st7" cx="322" cy="448.7" rx="26.2" ry="20.8"/>
		
			<ellipse transform="matrix(-0.9051 -0.4251 0.4251 -0.9051 350.6015 1161.6729)" class="st7" cx="304.9" cy="541.7" rx="24.4" ry="19.4"/>
		
			<ellipse transform="matrix(0.2355 -0.9719 0.9719 0.2355 -360.1622 666.3606)" class="st7" cx="243.5" cy="562.1" rx="24.4" ry="19.4"/>
		
			<ellipse transform="matrix(-0.9406 0.3394 -0.3394 -0.9406 1151.2683 914.2133)" class="st7" cx="495.7" cy="557.8" rx="25.7" ry="20.4"/>
		
			<ellipse transform="matrix(-1 -5.128868e-03 5.128868e-03 -1 848.53 969.0007)" class="st7" cx="425.5" cy="483.4" rx="25.7" ry="20.4"/>
		
			<ellipse transform="matrix(-0.4251 0.9051 -0.9051 -0.4251 706.1237 559.515)" class="st7" cx="175.4" cy="504" rx="27.4" ry="21.7"/>
		
			<ellipse transform="matrix(-0.9961 8.813899e-02 -8.813899e-02 -0.9961 504.2422 907.6788)" class="st7" cx="232.1" cy="465" rx="27.4" ry="21.7"/>
		
			<ellipse transform="matrix(-4.217022e-02 0.9991 -0.9991 -4.217022e-02 697.6481 178.7134)" class="st7" cx="263.2" cy="423.8" rx="27.4" ry="21.7"/>
		
			<ellipse transform="matrix(0.3588 0.9334 -0.9334 0.3588 701.978 105.2095)" class="st7" cx="274.4" cy="563.5" rx="30.7" ry="24.3"/>
		
			<ellipse transform="matrix(-0.7705 0.6375 -0.6375 -0.7705 815.6824 531.4014)" class="st7" cx="312.2" cy="412.5" rx="31.6" ry="25.1"/>
		
			<ellipse transform="matrix(0.1454 -0.9894 0.9894 0.1454 -390.3697 672.2646)" class="st7" cx="194" cy="562.1" rx="32.8" ry="26"/>
		
			<ellipse transform="matrix(-0.8643 -0.5029 0.5029 -0.8643 196.75 1075.725)" class="st7" cx="243.5" cy="511.3" rx="32.8" ry="26"/>
		
			<ellipse transform="matrix(0.1454 -0.9894 0.9894 0.1454 -350.0337 637.4241)" class="st7" cx="194" cy="521.3" rx="32.8" ry="26"/>
		
			<ellipse transform="matrix(-0.6488 -0.761 0.761 -0.6488 226.6006 1087.7025)" class="st7" cx="364.3" cy="491.6" rx="25.7" ry="20.4"/>
		
			<ellipse transform="matrix(-0.2469 0.969 -0.969 -0.2469 821.2219 505.4407)" class="st7" cx="214.2" cy="571.8" rx="30.7" ry="24.3"/>
		
			<ellipse transform="matrix(-0.8245 -0.5658 0.5658 -0.8245 250.1376 1007.5209)" class="st7" cx="281.3" cy="465" rx="26.2" ry="20.8"/>
		
			<ellipse transform="matrix(-0.4251 0.9051 -0.9051 -0.4251 682.0647 521.6345)" class="st7" cx="175.4" cy="477.4" rx="27.4" ry="21.7"/>
	</g>
</g>
</svg>
