<?xml version="1.0" encoding="utf-8"?>
<!-- Generator: Adobe Illustrator 19.1.0, SVG Export Plug-In . SVG Version: 6.00 Build 0)  -->
<svg version="1.1" id="Einkaufswagen" xmlns="http://www.w3.org/2000/svg" xmlns:xlink="http://www.w3.org/1999/xlink" x="0px"
	 y="0px" viewBox="277.4 -106.8 1403.1 807.9" style="enable-background:new 277.4 -106.8 1403.1 807.9;" xml:space="preserve">
<style type="text/css">
	.st0{fill:#27348B;}
	.st1{fill:#FFFFFF;}
	.st2{fill:none;stroke:#FFFFFF;stroke-width:2.223;stroke-miterlimit:10;}
	.st3{fill:none;stroke:#FFFFFF;stroke-width:2.1433;stroke-miterlimit:10;}
	.st4{fill:none;}
	.st5{fill:none;stroke:#FFFFFF;stroke-width:2.143;stroke-miterlimit:10;}
</style>
<g>
	<g>
		<g>
			<g>
				<path class="st0" d="M411.4,134.2l4.4,37.6c0.6,4.4-2.7,8.5-7.1,8.9l0,0c-4.4,0.6-8.5-2.7-8.9-7.1l-4.4-37.6
					c-0.6-4.4,2.7-8.5,7.1-8.9l0,0C407,126.6,411,129.9,411.4,134.2z"/>
				<path class="st0" d="M609.2,134.2l-4.4,37.6c-0.6,4.4,2.7,8.5,7.1,8.9l0,0c4.4,0.6,8.5-2.7,8.9-7.1l4.4-37.6
					c0.6-4.4-2.7-8.5-7.1-8.9l0,0C613.6,126.6,609.8,129.9,609.2,134.2z"/>
				<rect x="410.8" y="133.2" class="st0" width="201.3" height="23.7"/>
			</g>
		</g>
		<g>
			<rect x="410.8" y="237.1" class="st0" width="201.3" height="23.7"/>
			<path class="st0" d="M413.9,312.3l33,233.7c0,14.8,18.9,15,33.7,15h30.3h1.2h30.3c14.8,0,33.7-0.4,33.7-15l33-233.7
				c0-14.8-12-26.8-26.8-26.8h-70.4h-1.2h-70.2C425.9,285.5,413.9,297.4,413.9,312.3z"/>
			<g>
				<path class="st0" d="M411.4,238.1l4.4,37.6c0.6,4.4-2.7,8.5-7.1,8.9l0,0c-4.4,0.6-8.5-2.7-8.9-7.1l-4.4-37.6
					c-0.6-4.4,2.7-8.5,7.1-8.9l0,0C407,230.4,411,233.6,411.4,238.1z"/>
				<path class="st0" d="M609.2,238.1l-4.4,37.6c-0.6,4.4,2.7,8.5,7.1,8.9l0,0c4.4,0.6,8.5-2.7,8.9-7.1l4.4-37.6
					c0.6-4.4-2.7-8.5-7.1-8.9l0,0C613.6,230.4,609.8,233.6,609.2,238.1z"/>
			</g>
		</g>
		<g>
			<path class="st1" d="M315.6,430.3H416l-2.3-16.2v-0.2v-0.2c0-14.8,12-26.8,26.8-26.8h70.4h1.2h70.4c13.9,0,25.4,10.8,26.6,24.3
				c0.2,1,0.2,1.9,0.2,2.9l-2.3,16.2h57.8v-75.6l-347.2,5.4L315.6,430.3z M622.9,360.9L621,379c-0.6,4.4-4.4,7.5-8.9,7.1
				c-4.4-0.6-7.5-4.4-7.1-8.9l1.7-14.8H414.1l1.7,14.8c0.6,4.4-2.7,8.5-7.1,8.9c-4.4,0.6-8.5-2.7-8.9-7.1l-2.3-20.4L622.9,360.9z"/>
			<rect x="411.2" y="334.6" class="st1" width="201.3" height="4"/>
		</g>
		<g>
			<path class="st0" d="M512,383.2h71.3c5.6,0,10.8,1.7,15,4.6l3.1-21.4h-180l3.1,21.4c4.2-2.9,9.4-4.6,15-4.6h71.3H512z"/>
			<polygon class="st0" points="420.9,362.2 602.1,362.2 602.5,359.5 420.5,359.5 			"/>
		</g>
		<g>
			<polygon class="st2" points="443.8,384.8 579.1,384.8 581.6,366.3 441.5,366.3 			"/>
		</g>
		<polygon class="st0" points="580.5,366.5 442.7,366.4 443.5,373.2 579.6,372.6 		"/>
		<polygon class="st0" points="445.5,380.7 445.7,383 577.2,383 577.4,381.5 		"/>
		<g>
			<path class="st0" d="M413.9,208.6l4,28.5H592l13.5-2.7l3.7-25.8c0-14.8-12-26.8-26.8-26.8H512h-1.2h-70.4
				C425.9,181.8,413.9,193.7,413.9,208.6z"/>
			<path class="st3" d="M437.6,234.8h147.9c0-11.2-9.1-19.5-20.2-19.5h-53.2h-1h-53.2C446.7,215.3,437.6,223.6,437.6,234.8z"/>
			<rect x="413.1" y="233.1" class="st1" width="194.1" height="4"/>
		</g>
		<g>
			<path class="st0" d="M443.6,264.1h-22.2l3.1,21.4c4.2-2.9,9.4-4.6,15-4.6h71.3h1.2h71.3c5.6,0,10.8,1.7,15,4.6l3.1-21.4H482.7
				H443.6L443.6,264.1z"/>
			<g>
				<polygon class="st2" points="443.8,282 579.1,282 581.6,263.7 441.5,263.7 				"/>
			</g>
			<polygon class="st0" points="579.5,264.3 443.8,264.1 444.6,270.8 578.8,270.1 			"/>
			<polygon class="st0" points="445.5,278.5 445.9,280.9 577.2,280.9 577.6,279.3 			"/>
		</g>
		<g>
			<path class="st0" d="M412.6,104.7l4,28.5h174.1l13.5-2.7l3.7-25.8c0-14.8-12-26.8-26.8-26.8h-70.4h-1.2h-70.2
				C424.7,77.9,412.6,89.8,412.6,104.7z"/>
			<path class="st3" d="M436.5,130.9h147.9c0-11.2-9.1-19.5-20.2-19.5H511h-1h-53.2C445.5,111.4,436.5,119.7,436.5,130.9z"/>
			<rect x="412" y="129.1" class="st1" width="194.1" height="4"/>
		</g>
		<g>
			<path class="st0" d="M444,160.2h-22l3.1,21.4c4.2-2.9,9.4-4.6,15-4.6h71.3h1.2h71.3c5.6,0,10.8,1.7,15,4.6l3.1-21.4H483.3H444
				L444,160.2z"/>
			<g>
				<polygon class="st2" points="444.4,178.1 579.7,178.1 582.2,159.8 442.1,159.8 				"/>
			</g>
			<polygon class="st0" points="580.1,160.2 444.2,160.2 445.2,166.7 579.3,166 			"/>
			<polygon class="st0" points="446.1,174.4 446.5,176.9 577.8,176.9 578,175.4 			"/>
		</g>
		<g>
			<g>
				<path class="st0" d="M412.4,30.2l4.4,37.6c0.6,4.4-2.7,8.5-7.1,8.9l0,0c-4.4,0.6-8.5-2.7-8.9-7.1L396.4,32
					c-0.6-4.4,2.7-8.5,7.1-8.9l0,0C407.8,22.7,411.8,26,412.4,30.2z"/>
				<path class="st0" d="M610,30.2l-4.4,37.6c-0.6,4.4,2.7,8.5,7.1,8.9l0,0c4.4,0.6,8.5-2.7,8.9-7.1L626,32c0.6-4.4-2.7-8.5-7.1-8.9
					l0,0C614.6,22.7,610.6,26,610,30.2z"/>
				<rect x="411.8" y="29.3" class="st0" width="201.3" height="23.7"/>
			</g>
		</g>
		<g>
			<path class="st0" d="M412.8,30.4l4.4,37.6c0.6,4.4-2.7,8.5-7.1,8.9l0,0c-4.4,0.6-8.5-2.7-8.9-7.1l-4.4-37.6
				c-0.6-4.4,2.7-8.5,7.1-8.9l0,0C408.3,22.9,412.2,26,412.8,30.4z"/>
			<path class="st0" d="M609.2,30.4L604.8,68c-0.6,4.4,2.7,8.5,7.1,8.9l0,0c4.4,0.6,8.5-2.7,8.9-7.1l4.4-37.6
				c0.6-4.4-2.7-8.5-7.1-8.9l0,0C613.8,22.9,609.8,26,609.2,30.4z"/>
			<polyline class="st0" points="613.5,29.5 613.5,53.2 412.2,53.2 412.2,29.5 			"/>
		</g>
		<path class="st0" d="M413.9,0.9l4,28.5H592l13.5-2.7l3.7-25.8c0-14.8-12-26.8-26.8-26.8H512h-1.2h-70.2
			C425.9-25.9,413.9-13.9,413.9,0.9z"/>
		<rect x="413.3" y="25.4" class="st1" width="194.1" height="4"/>
		<path class="st0" d="M443.4,56.5h-22l3.1,21.4c4.2-2.9,9.4-4.6,15-4.6h71.3h1.2h71.3c5.6,0,10.8,1.7,15,4.6l3.1-21.4H482.7H443.4
			L443.4,56.5z"/>
		<line class="st2" x1="441.3" y1="56.1" x2="443.8" y2="74.4"/>
		<polygon class="st0" points="581.4,56.5 445.5,56.5 446.5,63 580.5,62.2 		"/>
		<line class="st4" x1="578" y1="71.7" x2="446.1" y2="70.7"/>
		<path class="st3" d="M437.2,27.3h147.9c0-11.2-9.1-19.5-20.2-19.5h-53.4h-1h-53C446.3,7.7,437.2,16.2,437.2,27.3z"/>
		<line class="st2" x1="579.9" y1="74" x2="582.4" y2="55.7"/>
		<g>
			<path class="st0" d="M411.8-74.1l4.4,37.6c0.6,4.4-2.7,8.5-7.1,8.9l0,0c-4.4,0.6-8.5-2.7-8.9-7.1l-4.4-37.6
				c-0.6-4.4,2.7-8.5,7.1-8.9l0,0C407.4-81.8,411.4-78.5,411.8-74.1z"/>
			<path class="st0" d="M608.4-74.1L604-36.5c-0.6,4.4,2.7,8.5,7.1,8.9l0,0c4.4,0.6,8.5-2.7,8.9-7.1l4.4-37.6
				c0.6-4.4-2.7-8.5-7.1-8.9l0,0C612.9-81.8,608.8-78.5,608.4-74.1z"/>
			<polyline class="st0" points="612.5,-75 612.5,-51.3 411.2,-51.3 411.2,-75 			"/>
		</g>
	</g>
	<path class="st5" d="M437.6,339.3l24.9,176.8c0,11.2,14.3,11.4,25.4,11.4h22.9h1h22.9c11.2,0,25.4-0.2,25.4-11.4L585,339.3
		c0-11.2-9.1-20.2-20.2-20.2h-53.2h-1h-52.8C446.7,319,437.6,328.1,437.6,339.3z"/>
	<g id="color">
		<g id="Griff1">
			<path class="st0" d="M411.4,339.7l4.4,37.6c0.6,4.4-2.7,8.5-7.1,8.9l0,0c-4.4,0.6-8.5-2.7-8.9-7.1l-4.4-37.6
				c-0.6-4.4,2.7-8.5,7.1-8.9l0,0C407,331.9,411,335.2,411.4,339.7z"/>
			<path class="st0" d="M609.2,339.7l-4.4,37.6c-0.6,4.4,2.7,8.5,7.1,8.9l0,0c4.4,0.6,8.5-2.7,8.9-7.1l4.4-37.6
				c0.6-4.4-2.7-8.5-7.1-8.9l0,0C613.6,331.9,609.8,335.2,609.2,339.7z"/>
			<rect x="410.8" y="338.7" class="st0" width="201.3" height="23.7"/>
		</g>
		<g>
			<path class="st0" d="M487.9,526.4h46.8c12.8,0,24.4-0.8,24.4-10.3V516l18.1-128.8h-65.3h-1.2h-65.5L463.6,516v0.1
				C463.6,525.6,475.1,526.4,487.9,526.4z"/>
			<path class="st0" d="M582.4,387.1h-2.9l-18.2,129c-0.1,12.4-16,12.4-26.5,12.4H488c-10.5,0-26.5,0-26.5-12.4l-18.2-129h-2.8
				c-14.7,0-26.6,12-26.6,26.8l33,233.7c0,14.8,18.9,15,33.7,15h30.3h1.2h30.3c14.8,0,33.7-0.4,33.7-15l33.2-233.7
				C609.2,399,597.3,387.1,582.4,387.1z"/>
		</g>
	</g>
	<path class="st1" d="M534.8,630.1H488c-10.5,0-26.5,0-26.5-12.4l-24.9-176.8v-0.1c0-11.8,9.6-21.3,21.3-21.3h107
		c11.8,0,21.3,9.6,21.3,21.3v0.1l-24.9,176.7C561.2,630.1,545.3,630.1,534.8,630.1z M438.7,440.8l24.9,176.8v0.1
		c0,9.5,11.5,10.3,24.4,10.3h46.8c12.8,0,24.4-0.8,24.4-10.3v-0.1L584,440.8c0-10.5-8.6-19.1-19.2-19.1h-107
		C447.3,421.7,438.7,430.3,438.7,440.8z"/>
	<g>
		<g>
			<g>
				<path class="st0" d="M746.4,134.2l4.4,37.6c0.6,4.4-2.7,8.5-7.1,8.9l0,0c-4.4,0.6-8.5-2.7-8.9-7.1l-4.4-37.6
					c-0.6-4.4,2.7-8.5,7.1-8.9l0,0C741.9,126.6,746,129.9,746.4,134.2z"/>
				<path class="st0" d="M944.2,134.2l-4.4,37.6c-0.6,4.4,2.7,8.5,7.1,8.9l0,0c4.4,0.6,8.5-2.7,8.9-7.1l4.4-37.6
					c0.6-4.4-2.7-8.5-7.1-8.9l0,0C948.6,126.6,944.7,129.9,944.2,134.2z"/>
				<rect x="745.8" y="133.2" class="st0" width="201.3" height="23.7"/>
			</g>
		</g>
		<g>
			<rect x="745.8" y="237.1" class="st0" width="201.3" height="23.7"/>
			<path class="st0" d="M748.9,312.3l33,233.7c0,14.8,18.9,15,33.7,15h30.3h1.2h30.3c14.8,0,33.7-0.4,33.7-15l33-233.7
				c0-14.8-12-26.8-26.8-26.8h-70.4h-1.2h-70.2C760.8,285.5,748.9,297.4,748.9,312.3z"/>
			<g>
				<path class="st0" d="M746.4,238.1l4.4,37.6c0.6,4.4-2.7,8.5-7.1,8.9l0,0c-4.4,0.6-8.5-2.7-8.9-7.1l-4.4-37.6
					c-0.6-4.4,2.7-8.5,7.1-8.9l0,0C741.9,230.4,746,233.6,746.4,238.1z"/>
				<path class="st0" d="M944.2,238.1l-4.4,37.6c-0.6,4.4,2.7,8.5,7.1,8.9l0,0c4.4,0.6,8.5-2.7,8.9-7.1l4.4-37.6
					c0.6-4.4-2.7-8.5-7.1-8.9l0,0C948.6,230.4,944.7,233.6,944.2,238.1z"/>
			</g>
		</g>
		<g>
			<path class="st1" d="M650.6,430.3H751l-2.3-16.2v-0.2v-0.2c0-14.8,12-26.8,26.8-26.8h70.4h1.2h70.4c13.9,0,25.4,10.8,26.6,24.3
				c0.2,1,0.2,1.9,0.2,2.9l-2.3,16.2h57.8v-75.6l-347.2,5.4L650.6,430.3z M957.9,360.9L956,379c-0.6,4.4-4.4,7.5-8.9,7.1
				c-4.4-0.6-7.5-4.4-7.1-8.9l1.7-14.8H749.1l1.7,14.8c0.6,4.4-2.7,8.5-7.1,8.9c-4.4,0.6-8.5-2.7-8.9-7.1l-2.3-20.4L957.9,360.9z"/>
			<rect x="746.2" y="334.6" class="st1" width="201.3" height="4"/>
		</g>
		<g>
			<path class="st0" d="M847,383.2h71.3c5.6,0,10.8,1.7,15,4.6l3.1-21.4h-180l3.1,21.4c4.2-2.9,9.4-4.6,15-4.6h71.3H847z"/>
			<polygon class="st0" points="755.8,362.2 937,362.2 937.4,359.5 755.4,359.5 			"/>
		</g>
		<g>
			<polygon class="st2" points="778.8,384.8 914.1,384.8 916.6,366.3 776.4,366.3 			"/>
		</g>
		<polygon class="st0" points="915.5,366.5 777.6,366.4 778.4,373.2 914.6,372.6 		"/>
		<polygon class="st0" points="780.5,380.7 780.7,383 912.2,383 912.4,381.5 		"/>
		<g>
			<path class="st0" d="M748.9,208.6l4,28.5H927l13.5-2.7l3.7-25.8c0-14.8-12-26.8-26.8-26.8H847h-1.2h-70.4
				C760.8,181.8,748.9,193.7,748.9,208.6z"/>
			<path class="st3" d="M772.6,234.8h147.9c0-11.2-9.1-19.5-20.2-19.5h-53.2h-1h-53.2C781.7,215.3,772.6,223.6,772.6,234.8z"/>
			<rect x="748.1" y="233.1" class="st1" width="194.1" height="4"/>
		</g>
		<g>
			<path class="st0" d="M778.6,264.1h-22.2l3.1,21.4c4.2-2.9,9.4-4.6,15-4.6h71.3h1.2h71.3c5.6,0,10.8,1.7,15,4.6l3.1-21.4H817.7
				H778.6L778.6,264.1z"/>
			<g>
				<polygon class="st2" points="778.8,282 914.1,282 916.6,263.7 776.4,263.7 				"/>
			</g>
			<polygon class="st0" points="914.5,264.3 778.8,264.1 779.5,270.8 913.7,270.1 			"/>
			<polygon class="st0" points="780.5,278.5 780.9,280.9 912.2,280.9 912.6,279.3 			"/>
		</g>
		<g>
			<path class="st0" d="M747.5,104.7l4,28.5h174.1l13.5-2.7l3.7-25.8c0-14.8-12-26.8-26.8-26.8h-70.4h-1.2h-70.2
				C759.7,77.9,747.5,89.8,747.5,104.7z"/>
			<path class="st3" d="M771.4,130.9h147.9c0-11.2-9.1-19.5-20.2-19.5h-53.2h-1h-53.2C780.5,111.4,771.4,119.7,771.4,130.9z"/>
			<rect x="747" y="129.1" class="st1" width="194.1" height="4"/>
		</g>
		<g>
			<path class="st0" d="M779,160.2h-22l3.1,21.4c4.2-2.9,9.4-4.6,15-4.6h71.3h1.2h71.3c5.6,0,10.8,1.7,15,4.6l3.1-21.4H818.3H779
				L779,160.2z"/>
			<g>
				<polygon class="st2" points="779.3,178.1 914.7,178.1 917.2,159.8 777,159.8 				"/>
			</g>
			<polygon class="st0" points="915.1,160.2 779.1,160.2 780.1,166.7 914.3,166 			"/>
			<polygon class="st0" points="781.1,174.4 781.5,176.9 912.7,176.9 912.9,175.4 			"/>
		</g>
		<g>
			<g>
				<path class="st0" d="M747.3,30.2l4.4,37.6c0.6,4.4-2.7,8.5-7.1,8.9l0,0c-4.4,0.6-8.5-2.7-8.9-7.1L731.3,32
					c-0.6-4.4,2.7-8.5,7.1-8.9l0,0C742.7,22.7,746.8,26,747.3,30.2z"/>
				<path class="st0" d="M944.9,30.2l-4.4,37.6c-0.6,4.4,2.7,8.5,7.1,8.9l0,0c4.4,0.6,8.5-2.7,8.9-7.1l4.4-37.6
					c0.6-4.4-2.7-8.5-7.1-8.9l0,0C949.6,22.7,945.5,26,944.9,30.2z"/>
				<rect x="746.8" y="29.3" class="st0" width="201.3" height="23.7"/>
			</g>
		</g>
		<g>
			<path class="st0" d="M747.7,30.4l4.4,37.6c0.6,4.4-2.7,8.5-7.1,8.9l0,0c-4.4,0.6-8.5-2.7-8.9-7.1l-4.4-37.6
				c-0.6-4.4,2.7-8.5,7.1-8.9l0,0C743.3,22.9,747.1,26,747.7,30.4z"/>
			<path class="st0" d="M944.2,30.4L939.8,68c-0.6,4.4,2.7,8.5,7.1,8.9l0,0c4.4,0.6,8.5-2.7,8.9-7.1l4.4-37.6
				c0.6-4.4-2.7-8.5-7.1-8.9l0,0C948.8,22.9,944.7,26,944.2,30.4z"/>
			<polyline class="st0" points="948.4,29.5 948.4,53.2 747.1,53.2 747.1,29.5 			"/>
		</g>
		<path class="st0" d="M748.9,0.9l4,28.5H927l13.5-2.7l3.7-25.8c0-14.8-12-26.8-26.8-26.8H847h-1.2h-70.2
			C760.8-25.9,748.9-13.9,748.9,0.9z"/>
		<rect x="748.3" y="25.4" class="st1" width="194.1" height="4"/>
		<path class="st0" d="M778.4,56.5h-22l3.1,21.4c4.2-2.9,9.4-4.6,15-4.6h71.3h1.2h71.3c5.6,0,10.8,1.7,15,4.6l3.1-21.4H817.7H778.4
			L778.4,56.5z"/>
		<line class="st2" x1="776.3" y1="56.1" x2="778.8" y2="74.4"/>
		<polygon class="st0" points="916.4,56.5 780.5,56.5 781.5,63 915.4,62.2 		"/>
		<line class="st4" x1="912.9" y1="71.7" x2="781.1" y2="70.7"/>
		<path class="st3" d="M772.2,27.3h147.9c0-11.2-9.1-19.5-20.2-19.5h-53.4h-1h-53C781.3,7.7,772.2,16.2,772.2,27.3z"/>
		<line class="st2" x1="914.9" y1="74" x2="917.4" y2="55.7"/>
		<g>
			<path class="st0" d="M746.8-74.1l4.4,37.6c0.6,4.4-2.7,8.5-7.1,8.9l0,0c-4.4,0.6-8.5-2.7-8.9-7.1l-4.4-37.6
				c-0.6-4.4,2.7-8.5,7.1-8.9l0,0C742.3-81.8,746.4-78.5,746.8-74.1z"/>
			<path class="st0" d="M943.4-74.1L939-36.5c-0.6,4.4,2.7,8.5,7.1,8.9l0,0c4.4,0.6,8.5-2.7,8.9-7.1l4.4-37.6
				c0.6-4.4-2.7-8.5-7.1-8.9l0,0C947.8-81.8,943.8-78.5,943.4-74.1z"/>
			<polyline class="st0" points="947.4,-75 947.4,-51.3 746.2,-51.3 746.2,-75 			"/>
		</g>
	</g>
	<path class="st5" d="M772.6,339.3l24.9,176.8c0,11.2,14.3,11.4,25.4,11.4h22.9h1h22.9c11.2,0,25.4-0.2,25.4-11.4L920,339.3
		c0-11.2-9.1-20.2-20.2-20.2h-53.2h-1h-52.8C781.7,319,772.6,328.1,772.6,339.3z"/>
	<g id="color_1_">
		<g id="Griff1_1_">
			<path class="st0" d="M746.4,339.7l4.4,37.6c0.6,4.4-2.7,8.5-7.1,8.9l0,0c-4.4,0.6-8.5-2.7-8.9-7.1l-4.4-37.6
				c-0.6-4.4,2.7-8.5,7.1-8.9l0,0C741.9,331.9,746,335.2,746.4,339.7z"/>
			<path class="st0" d="M944.2,339.7l-4.4,37.6c-0.6,4.4,2.7,8.5,7.1,8.9l0,0c4.4,0.6,8.5-2.7,8.9-7.1l4.4-37.6
				c0.6-4.4-2.7-8.5-7.1-8.9l0,0C948.6,331.9,944.7,335.2,944.2,339.7z"/>
			<rect x="745.8" y="338.7" class="st0" width="201.3" height="23.7"/>
		</g>
		<g>
			<path class="st0" d="M822.9,526.4h46.8c12.8,0,24.4-0.8,24.4-10.3V516l18.1-128.8h-65.3h-1.2h-65.5l18.1,128.9v0.1
				C798.5,525.6,810.1,526.4,822.9,526.4z"/>
			<path class="st0" d="M917.4,387.1h-2.9l-18.2,129c-0.1,12.4-16,12.4-26.5,12.4H823c-10.5,0-26.5,0-26.5-12.4l-18.2-129h-2.8
				c-14.7,0-26.6,12-26.6,26.8l33,233.7c0,14.8,18.9,15,33.7,15h30.3h1.2h30.3c14.8,0,33.7-0.4,33.7-15l33.2-233.7
				C944.2,399,932.2,387.1,917.4,387.1z"/>
		</g>
	</g>
	<path class="st1" d="M869.8,630.1H823c-10.5,0-26.5,0-26.5-12.4l-24.9-176.8v-0.1c0-11.8,9.6-21.3,21.3-21.3h107
		c11.8,0,21.3,9.6,21.3,21.3v0.1l-24.9,176.7C896.2,630.1,880.3,630.1,869.8,630.1z M773.7,440.8l24.9,176.8v0.1
		c0,9.5,11.5,10.3,24.4,10.3h46.8c12.8,0,24.4-0.8,24.4-10.3v-0.1L919,440.8c0-10.5-8.6-19.1-19.2-19.1h-107
		C782.3,421.7,773.7,430.3,773.7,440.8z"/>
	<g>
		<g>
			<g>
				<path class="st0" d="M1081.3,134.2l4.4,37.6c0.6,4.4-2.7,8.5-7.1,8.9l0,0c-4.4,0.6-8.5-2.7-8.9-7.1l-4.4-37.6
					c-0.6-4.4,2.7-8.5,7.1-8.9l0,0C1076.9,126.6,1080.9,129.9,1081.3,134.2z"/>
				<path class="st0" d="M1279.1,134.2l-4.4,37.6c-0.6,4.4,2.7,8.5,7.1,8.9l0,0c4.4,0.6,8.5-2.7,8.9-7.1l4.4-37.6
					c0.6-4.4-2.7-8.5-7.1-8.9l0,0C1283.6,126.6,1279.7,129.9,1279.1,134.2z"/>
				<rect x="1080.8" y="133.2" class="st0" width="201.3" height="23.7"/>
			</g>
		</g>
		<g>
			<rect x="1080.8" y="237.1" class="st0" width="201.3" height="23.7"/>
			<path class="st0" d="M1083.8,312.3l33,233.7c0,14.8,18.9,15,33.7,15h30.3h1.2h30.3c14.8,0,33.7-0.4,33.7-15l33-233.7
				c0-14.8-12-26.8-26.8-26.8h-70.4h-1.2h-70.2C1095.8,285.5,1083.8,297.4,1083.8,312.3z"/>
			<g>
				<path class="st0" d="M1081.3,238.1l4.4,37.6c0.6,4.4-2.7,8.5-7.1,8.9l0,0c-4.4,0.6-8.5-2.7-8.9-7.1l-4.4-37.6
					c-0.6-4.4,2.7-8.5,7.1-8.9l0,0C1076.9,230.4,1080.9,233.6,1081.3,238.1z"/>
				<path class="st0" d="M1279.1,238.1l-4.4,37.6c-0.6,4.4,2.7,8.5,7.1,8.9l0,0c4.4,0.6,8.5-2.7,8.9-7.1l4.4-37.6
					c0.6-4.4-2.7-8.5-7.1-8.9l0,0C1283.6,230.4,1279.7,233.6,1279.1,238.1z"/>
			</g>
		</g>
		<g>
			<path class="st1" d="M985.5,430.3h100.4l-2.3-16.2v-0.2v-0.2c0-14.8,12-26.8,26.8-26.8h70.4h1.2h70.4c13.9,0,25.4,10.8,26.6,24.3
				c0.2,1,0.2,1.9,0.2,2.9l-2.3,16.2h57.8v-75.6l-347.2,5.4L985.5,430.3z M1292.8,360.9l-1.9,18.1c-0.6,4.4-4.4,7.5-8.9,7.1
				c-4.4-0.6-7.5-4.4-7.1-8.9l1.7-14.8H1084l1.7,14.8c0.6,4.4-2.7,8.5-7.1,8.9c-4.4,0.6-8.5-2.7-8.9-7.1l-2.3-20.4L1292.8,360.9z"/>
			<rect x="1081.1" y="334.6" class="st1" width="201.3" height="4"/>
		</g>
		<g>
			<path class="st0" d="M1182,383.2h71.3c5.6,0,10.8,1.7,15,4.6l3.1-21.4h-180.1l3.1,21.4c4.2-2.9,9.4-4.6,15-4.6h71.3H1182z"/>
			<polygon class="st0" points="1090.8,362.2 1272,362.2 1272.4,359.5 1090.4,359.5 			"/>
		</g>
		<g>
			<polygon class="st2" points="1113.7,384.8 1249.1,384.8 1251.6,366.3 1111.4,366.3 			"/>
		</g>
		<polygon class="st0" points="1250.4,366.5 1112.6,366.4 1113.4,373.2 1249.5,372.6 		"/>
		<polygon class="st0" points="1115.5,380.7 1115.6,383 1247.1,383 1247.3,381.5 		"/>
		<g>
			<path class="st0" d="M1083.8,208.6l4,28.5h174.1l13.5-2.7l3.7-25.8c0-14.8-12-26.8-26.8-26.8h-70.4h-1.2h-70.4
				C1095.8,181.8,1083.8,193.7,1083.8,208.6z"/>
			<path class="st3" d="M1107.6,234.8h147.9c0-11.2-9.1-19.5-20.2-19.5h-53.2h-1h-53.2C1116.6,215.3,1107.6,223.6,1107.6,234.8z"/>
			<rect x="1083.1" y="233.1" class="st1" width="194.1" height="4"/>
		</g>
		<g>
			<path class="st0" d="M1113.5,264.1h-22.2l3.1,21.4c4.2-2.9,9.4-4.6,15-4.6h71.3h1.2h71.3c5.6,0,10.8,1.7,15,4.6l3.1-21.4h-118.8
				H1113.5L1113.5,264.1z"/>
			<g>
				<polygon class="st2" points="1113.7,282 1249.1,282 1251.6,263.7 1111.4,263.7 				"/>
			</g>
			<polygon class="st0" points="1249.4,264.3 1113.7,264.1 1114.5,270.8 1248.7,270.1 			"/>
			<polygon class="st0" points="1115.5,278.5 1115.8,280.9 1247.1,280.9 1247.5,279.3 			"/>
		</g>
		<g>
			<path class="st0" d="M1082.5,104.7l4,28.5h174.1l13.5-2.7l3.7-25.8c0-14.8-12-26.8-26.8-26.8h-70.4h-1.2h-70.2
				C1094.6,77.9,1082.5,89.8,1082.5,104.7z"/>
			<path class="st3" d="M1106.4,130.9h147.9c0-11.2-9.1-19.5-20.2-19.5h-53.2h-1h-53.3C1115.5,111.4,1106.4,119.7,1106.4,130.9z"/>
			<rect x="1081.9" y="129.1" class="st1" width="194.1" height="4"/>
		</g>
		<g>
			<path class="st0" d="M1113.9,160.2h-22l3.1,21.4c4.2-2.9,9.4-4.6,15-4.6h71.3h1.2h71.3c5.6,0,10.8,1.7,15,4.6l3.1-21.4h-118.8
				H1113.9L1113.9,160.2z"/>
			<g>
				<polygon class="st2" points="1114.3,178.1 1249.6,178.1 1252.1,159.8 1112,159.8 				"/>
			</g>
			<polygon class="st0" points="1250,160.2 1114.1,160.2 1115.1,166.7 1249.2,166 			"/>
			<polygon class="st0" points="1116,174.4 1116.4,176.9 1247.7,176.9 1247.9,175.4 			"/>
		</g>
		<g>
			<g>
				<path class="st0" d="M1082.3,30.2l4.4,37.6c0.6,4.4-2.7,8.5-7.1,8.9l0,0c-4.4,0.6-8.5-2.7-8.9-7.1l-4.4-37.6
					c-0.6-4.4,2.7-8.5,7.1-8.9l0,0C1077.7,22.7,1081.7,26,1082.3,30.2z"/>
				<path class="st0" d="M1279.9,30.2l-4.4,37.6c-0.6,4.4,2.7,8.5,7.1,8.9l0,0c4.4,0.6,8.5-2.7,8.9-7.1l4.4-37.6
					c0.6-4.4-2.7-8.5-7.1-8.9l0,0C1284.5,22.7,1280.5,26,1279.9,30.2z"/>
				<rect x="1081.7" y="29.3" class="st0" width="201.3" height="23.7"/>
			</g>
		</g>
		<g>
			<path class="st0" d="M1082.7,30.4l4.4,37.6c0.6,4.4-2.7,8.5-7.1,8.9l0,0c-4.4,0.6-8.5-2.7-8.9-7.1l-4.4-37.6
				c-0.6-4.4,2.7-8.5,7.1-8.9l0,0C1078.2,22.9,1082.1,26,1082.7,30.4z"/>
			<path class="st0" d="M1279.1,30.4l-4.4,37.6c-0.6,4.4,2.7,8.5,7.1,8.9l0,0c4.4,0.6,8.5-2.7,8.9-7.1l4.4-37.6
				c0.6-4.4-2.7-8.5-7.1-8.9l0,0C1283.8,22.9,1279.7,26,1279.1,30.4z"/>
			<polyline class="st0" points="1283.4,29.5 1283.4,53.2 1082.1,53.2 1082.1,29.5 			"/>
		</g>
		<path class="st0" d="M1083.8,0.9l4,28.5h174.1l13.5-2.7l3.7-25.8c0-14.8-12-26.8-26.8-26.8h-70.4h-1.2h-70.1
			C1095.8-25.9,1083.8-13.9,1083.8,0.9z"/>
		<rect x="1083.3" y="25.4" class="st1" width="194.1" height="4"/>
		<path class="st0" d="M1113.3,56.5h-22l3.1,21.4c4.2-2.9,9.4-4.6,15-4.6h71.3h1.2h71.3c5.6,0,10.8,1.7,15,4.6l3.1-21.4h-118.8
			H1113.3L1113.3,56.5z"/>
		<line class="st2" x1="1111.2" y1="56.1" x2="1113.7" y2="74.4"/>
		<polygon class="st0" points="1251.4,56.5 1115.5,56.5 1116.4,63 1250.4,62.2 		"/>
		<line class="st4" x1="1247.9" y1="71.7" x2="1116" y2="70.7"/>
		<path class="st3" d="M1107.2,27.3h147.9c0-11.2-9.1-19.5-20.2-19.5h-53.4h-1h-53C1116.2,7.7,1107.2,16.2,1107.2,27.3z"/>
		<line class="st2" x1="1249.8" y1="74" x2="1252.3" y2="55.7"/>
		<g>
			<path class="st0" d="M1081.7-74.1l4.4,37.6c0.6,4.4-2.7,8.5-7.1,8.9l0,0c-4.4,0.6-8.5-2.7-8.9-7.1l-4.4-37.6
				c-0.6-4.4,2.7-8.5,7.1-8.9l0,0C1077.3-81.8,1081.3-78.5,1081.7-74.1z"/>
			<path class="st0" d="M1278.4-74.1l-4.4,37.6c-0.6,4.4,2.7,8.5,7.1,8.9l0,0c4.4,0.6,8.5-2.7,8.9-7.1l4.4-37.6
				c0.6-4.4-2.7-8.5-7.1-8.9l0,0C1282.8-81.8,1278.7-78.5,1278.4-74.1z"/>
			<polyline class="st0" points="1282.4,-75 1282.4,-51.3 1081.1,-51.3 1081.1,-75 			"/>
		</g>
	</g>
	<path class="st5" d="M1107.6,339.3l24.9,176.8c0,11.2,14.3,11.4,25.4,11.4h22.9h1h22.9c11.2,0,25.4-0.2,25.4-11.4l24.9-176.8
		c0-11.2-9.1-20.2-20.2-20.2h-53.2h-1h-52.8C1116.6,319,1107.6,328.1,1107.6,339.3z"/>
	<g id="color_2_">
		<g id="Griff1_2_">
			<path class="st0" d="M1081.3,339.7l4.4,37.6c0.6,4.4-2.7,8.5-7.1,8.9l0,0c-4.4,0.6-8.5-2.7-8.9-7.1l-4.4-37.6
				c-0.6-4.4,2.7-8.5,7.1-8.9l0,0C1076.9,331.9,1080.9,335.2,1081.3,339.7z"/>
			<path class="st0" d="M1279.1,339.7l-4.4,37.6c-0.6,4.4,2.7,8.5,7.1,8.9l0,0c4.4,0.6,8.5-2.7,8.9-7.1l4.4-37.6
				c0.6-4.4-2.7-8.5-7.1-8.9l0,0C1283.6,331.9,1279.7,335.2,1279.1,339.7z"/>
			<rect x="1080.8" y="338.7" class="st0" width="201.3" height="23.7"/>
		</g>
		<g>
			<path class="st0" d="M1157.9,526.4h46.8c12.8,0,24.4-0.8,24.4-10.3V516l18.1-128.8h-65.3h-1.2h-65.5l18.1,128.9v0.1
				C1133.5,525.6,1145,526.4,1157.9,526.4z"/>
			<path class="st0" d="M1252.3,387.1h-2.9l-18.2,129c-0.1,12.4-16,12.4-26.5,12.4h-46.8c-10.5,0-26.5,0-26.5-12.4l-18.2-129h-2.8
				c-14.7,0-26.6,12-26.6,26.8l33,233.7c0,14.8,18.9,15,33.7,15h30.3h1.2h30.3c14.8,0,33.7-0.4,33.7-15l33.2-233.7
				C1279.1,399,1267.2,387.1,1252.3,387.1z"/>
		</g>
	</g>
	<path class="st1" d="M1204.7,630.1h-46.8c-10.5,0-26.5,0-26.5-12.4l-24.9-176.8v-0.1c0-11.8,9.6-21.3,21.3-21.3h107
		c11.8,0,21.3,9.6,21.3,21.3v0.1l-24.9,176.7C1231.2,630.1,1215.3,630.1,1204.7,630.1z M1108.6,440.8l24.9,176.8v0.1
		c0,9.5,11.5,10.3,24.4,10.3h46.8c12.8,0,24.4-0.8,24.4-10.3v-0.1l24.9-176.7c0-10.5-8.6-19.1-19.2-19.1h-107
		C1117.2,421.7,1108.7,430.3,1108.6,440.8z"/>
	<g>
		<g>
			<g>
				<path class="st0" d="M1416.3,134.2l4.4,37.6c0.6,4.4-2.7,8.5-7.1,8.9l0,0c-4.4,0.6-8.5-2.7-8.9-7.1l-4.4-37.6
					c-0.6-4.4,2.7-8.5,7.1-8.9l0,0C1411.9,126.6,1415.9,129.9,1416.3,134.2z"/>
				<path class="st0" d="M1614.1,134.2l-4.4,37.6c-0.6,4.4,2.7,8.5,7.1,8.9l0,0c4.4,0.6,8.5-2.7,8.9-7.1l4.4-37.6
					c0.6-4.4-2.7-8.5-7.1-8.9l0,0C1618.5,126.6,1614.7,129.9,1614.1,134.2z"/>
				<rect x="1415.7" y="133.2" class="st0" width="201.3" height="23.7"/>
			</g>
		</g>
		<g>
			<rect x="1415.7" y="237.1" class="st0" width="201.3" height="23.7"/>
			<path class="st0" d="M1418.8,312.3l33,233.7c0,14.8,18.9,15,33.7,15h30.3h1.2h30.3c14.8,0,33.7-0.4,33.7-15l33-233.7
				c0-14.8-12-26.8-26.8-26.8h-70.4h-1.2h-70.2C1430.8,285.5,1418.8,297.4,1418.8,312.3z"/>
			<g>
				<path class="st0" d="M1416.3,238.1l4.4,37.6c0.6,4.4-2.7,8.5-7.1,8.9l0,0c-4.4,0.6-8.5-2.7-8.9-7.1l-4.4-37.6
					c-0.6-4.4,2.7-8.5,7.1-8.9l0,0C1411.9,230.4,1415.9,233.6,1416.3,238.1z"/>
				<path class="st0" d="M1614.1,238.1l-4.4,37.6c-0.6,4.4,2.7,8.5,7.1,8.9l0,0c4.4,0.6,8.5-2.7,8.9-7.1l4.4-37.6
					c0.6-4.4-2.7-8.5-7.1-8.9l0,0C1618.5,230.4,1614.7,233.6,1614.1,238.1z"/>
			</g>
		</g>
		<g>
			<path class="st1" d="M1320.5,430.3h100.4l-2.3-16.2v-0.2v-0.2c0-14.8,12-26.8,26.8-26.8h70.4h1.2h70.4
				c13.9,0,25.4,10.8,26.6,24.3c0.2,1,0.2,1.9,0.2,2.9l-2.3,16.2h57.8v-75.6l-347.2,5.4L1320.5,430.3z M1627.8,360.9l-1.9,18.1
				c-0.6,4.4-4.4,7.5-8.9,7.1c-4.4-0.6-7.5-4.4-7.1-8.9l1.7-14.8H1419l1.7,14.8c0.6,4.4-2.7,8.5-7.1,8.9c-4.4,0.6-8.5-2.7-8.9-7.1
				l-2.3-20.4L1627.8,360.9z"/>
			<rect x="1416.1" y="334.6" class="st1" width="201.3" height="4"/>
		</g>
		<g>
			<path class="st0" d="M1516.9,383.2h71.3c5.6,0,10.8,1.7,15,4.6l3.1-21.4h-180.1l3.1,21.4c4.2-2.9,9.4-4.6,15-4.6h71.3H1516.9z"/>
			<polygon class="st0" points="1425.7,362.2 1607,362.2 1607.3,359.5 1425.4,359.5 			"/>
		</g>
		<g>
			<polygon class="st2" points="1448.7,384.8 1584,384.8 1586.5,366.3 1446.4,366.3 			"/>
		</g>
		<polygon class="st0" points="1585.4,366.5 1447.5,366.4 1448.3,373.2 1584.5,372.6 		"/>
		<polygon class="st0" points="1450.4,380.7 1450.6,383 1582.1,383 1582.3,381.5 		"/>
		<g>
			<path class="st0" d="M1418.8,208.6l4,28.5h174.1l13.5-2.7l3.7-25.8c0-14.8-12-26.8-26.8-26.8h-70.4h-1.2h-70.4
				C1430.8,181.8,1418.8,193.7,1418.8,208.6z"/>
			<path class="st3" d="M1442.5,234.8h147.9c0-11.2-9.1-19.5-20.2-19.5H1517h-1h-53.2C1451.6,215.3,1442.5,223.6,1442.5,234.8z"/>
			<rect x="1418" y="233.1" class="st1" width="194.1" height="4"/>
		</g>
		<g>
			<path class="st0" d="M1448.5,264.1h-22.2l3.1,21.4c4.2-2.9,9.4-4.6,15-4.6h71.3h1.2h71.3c5.6,0,10.8,1.7,15,4.6l3.1-21.4h-118.7
				H1448.5L1448.5,264.1z"/>
			<g>
				<polygon class="st2" points="1448.7,282 1584,282 1586.5,263.7 1446.4,263.7 				"/>
			</g>
			<polygon class="st0" points="1584.4,264.3 1448.7,264.1 1449.5,270.8 1583.6,270.1 			"/>
			<polygon class="st0" points="1450.4,278.5 1450.8,280.9 1582.1,280.9 1582.5,279.3 			"/>
		</g>
		<g>
			<path class="st0" d="M1417.4,104.7l4,28.5h174.2l13.5-2.7l3.7-25.8c0-14.8-12-26.8-26.8-26.8h-70.4h-1.2h-70.2
				C1429.6,77.9,1417.4,89.8,1417.4,104.7z"/>
			<path class="st3" d="M1441.4,130.9h147.9c0-11.2-9.1-19.5-20.2-19.5h-53.2h-1h-53.3C1450.4,111.4,1441.4,119.7,1441.4,130.9z"/>
			<rect x="1416.9" y="129.1" class="st1" width="194.1" height="4"/>
		</g>
		<g>
			<path class="st0" d="M1448.9,160.2h-22l3.1,21.4c4.2-2.9,9.4-4.6,15-4.6h71.3h1.2h71.3c5.6,0,10.8,1.7,15,4.6l3.1-21.4h-118.8
				H1448.9L1448.9,160.2z"/>
			<g>
				<polygon class="st2" points="1449.3,178.1 1584.6,178.1 1587.1,159.8 1446.9,159.8 				"/>
			</g>
			<polygon class="st0" points="1585,160.2 1449.1,160.2 1450,166.7 1584.2,166 			"/>
			<polygon class="st0" points="1451,174.4 1451.4,176.9 1582.7,176.9 1582.9,175.4 			"/>
		</g>
		<g>
			<g>
				<path class="st0" d="M1417.3,30.2l4.4,37.6c0.6,4.4-2.7,8.5-7.1,8.9l0,0c-4.4,0.6-8.5-2.7-8.9-7.1l-4.4-37.6
					c-0.6-4.4,2.7-8.5,7.1-8.9l0,0C1412.6,22.7,1416.7,26,1417.3,30.2z"/>
				<path class="st0" d="M1614.9,30.2l-4.4,37.6c-0.6,4.4,2.7,8.5,7.1,8.9l0,0c4.4,0.6,8.5-2.7,8.9-7.1l4.4-37.6
					c0.6-4.4-2.7-8.5-7.1-8.9l0,0C1619.5,22.7,1615.4,26,1614.9,30.2z"/>
				<rect x="1416.7" y="29.3" class="st0" width="201.3" height="23.7"/>
			</g>
		</g>
		<g>
			<path class="st0" d="M1417.6,30.4L1422,68c0.6,4.4-2.7,8.5-7.1,8.9l0,0c-4.4,0.6-8.5-2.7-8.9-7.1l-4.4-37.6
				c-0.6-4.4,2.7-8.5,7.1-8.9l0,0C1413.2,22.9,1417.1,26,1417.6,30.4z"/>
			<path class="st0" d="M1614.1,30.4l-4.4,37.6c-0.6,4.4,2.7,8.5,7.1,8.9l0,0c4.4,0.6,8.5-2.7,8.9-7.1l4.4-37.6
				c0.6-4.4-2.7-8.5-7.1-8.9l0,0C1618.7,22.9,1614.7,26,1614.1,30.4z"/>
			<polyline class="st0" points="1618.3,29.5 1618.3,53.2 1417.1,53.2 1417.1,29.5 			"/>
		</g>
		<path class="st0" d="M1418.8,0.9l4,28.5h174.1l13.5-2.7l3.7-25.8c0-14.8-12-26.8-26.8-26.8h-70.4h-1.2h-70.1
			C1430.8-25.9,1418.8-13.9,1418.8,0.9z"/>
		<rect x="1418.2" y="25.4" class="st1" width="194.1" height="4"/>
		<path class="st0" d="M1448.3,56.5h-22l3.1,21.4c4.2-2.9,9.4-4.6,15-4.6h71.3h1.2h71.3c5.6,0,10.8,1.7,15,4.6l3.1-21.4h-118.7
			H1448.3L1448.3,56.5z"/>
		<line class="st2" x1="1446.2" y1="56.1" x2="1448.7" y2="74.4"/>
		<polygon class="st0" points="1586.3,56.5 1450.4,56.5 1451.4,63 1585.4,62.2 		"/>
		<line class="st4" x1="1582.9" y1="71.7" x2="1451" y2="70.7"/>
		<path class="st3" d="M1442.1,27.3H1590c0-11.2-9.1-19.5-20.2-19.5h-53.4h-1h-53C1451.2,7.7,1442.1,16.2,1442.1,27.3z"/>
		<line class="st2" x1="1584.8" y1="74" x2="1587.3" y2="55.7"/>
		<g>
			<path class="st0" d="M1416.7-74.1l4.4,37.6c0.6,4.4-2.7,8.5-7.1,8.9l0,0c-4.4,0.6-8.5-2.7-8.9-7.1l-4.4-37.6
				c-0.6-4.4,2.7-8.5,7.1-8.9l0,0C1412.2-81.8,1416.3-78.5,1416.7-74.1z"/>
			<path class="st0" d="M1613.3-74.1l-4.4,37.6c-0.6,4.4,2.7,8.5,7.1,8.9l0,0c4.4,0.6,8.5-2.7,8.9-7.1l4.4-37.6
				c0.6-4.4-2.7-8.5-7.1-8.9l0,0C1617.8-81.8,1613.7-78.5,1613.3-74.1z"/>
			<polyline class="st0" points="1617.4,-75 1617.4,-51.3 1416.1,-51.3 1416.1,-75 			"/>
		</g>
	</g>
	<path class="st5" d="M1442.5,339.3l24.9,176.8c0,11.2,14.3,11.4,25.4,11.4h22.9h1h22.9c11.2,0,25.4-0.2,25.4-11.4l24.9-176.8
		c0-11.2-9.1-20.2-20.2-20.2h-53.2h-1h-52.8C1451.6,319,1442.5,328.1,1442.5,339.3z"/>
	<g id="color_3_">
		<g id="Griff1_3_">
			<path class="st0" d="M1416.3,339.7l4.4,37.6c0.6,4.4-2.7,8.5-7.1,8.9l0,0c-4.4,0.6-8.5-2.7-8.9-7.1l-4.4-37.6
				c-0.6-4.4,2.7-8.5,7.1-8.9l0,0C1411.9,331.9,1415.9,335.2,1416.3,339.7z"/>
			<path class="st0" d="M1614.1,339.7l-4.4,37.6c-0.6,4.4,2.7,8.5,7.1,8.9l0,0c4.4,0.6,8.5-2.7,8.9-7.1l4.4-37.6
				c0.6-4.4-2.7-8.5-7.1-8.9l0,0C1618.5,331.9,1614.7,335.2,1614.1,339.7z"/>
			<rect x="1415.7" y="338.7" class="st0" width="201.3" height="23.7"/>
		</g>
		<g>
			<path class="st0" d="M1492.8,526.4h46.8c12.8,0,24.4-0.8,24.4-10.3V516l18.1-128.8h-65.3h-1.2h-65.5l18.1,128.9v0.1
				C1468.5,525.6,1480,526.4,1492.8,526.4z"/>
			<path class="st0" d="M1587.3,387.1h-2.9l-18.2,129c-0.1,12.4-16,12.4-26.5,12.4h-46.8c-10.5,0-26.5,0-26.5-12.4l-18.2-129h-2.8
				c-14.7,0-26.6,12-26.6,26.8l33,233.7c0,14.8,18.9,15,33.7,15h30.3h1.2h30.3c14.8,0,33.7-0.4,33.7-15l33.2-233.7
				C1614.1,399,1602.1,387.1,1587.3,387.1z"/>
		</g>
	</g>
	<path class="st1" d="M1539.7,630.1h-46.8c-10.5,0-26.5,0-26.5-12.4l-24.9-176.8v-0.1c0-11.8,9.6-21.3,21.3-21.3h107
		c11.8,0,21.3,9.6,21.3,21.3v0.1l-24.9,176.7C1566.1,630.1,1550.2,630.1,1539.7,630.1z M1443.6,440.8l24.9,176.8v0.1
		c0,9.5,11.5,10.3,24.4,10.3h46.8c12.8,0,24.4-0.8,24.4-10.3v-0.1l24.9-176.7c0-10.5-8.6-19.1-19.2-19.1h-107
		C1452.2,421.7,1443.6,430.3,1443.6,440.8z"/>
</g>
</svg>
