<?xml version="1.0" encoding="utf-8"?>
<!-- Generator: Adobe Illustrator 18.0.0, SVG Export Plug-In . SVG Version: 6.00 Build 0)  -->
<!DOCTYPE svg PUBLIC "-//W3C//DTD SVG 1.1//EN" "http://www.w3.org/Graphics/SVG/1.1/DTD/svg11.dtd">
<svg version="1.1" id="Meistgekauft" xmlns="http://www.w3.org/2000/svg" xmlns:xlink="http://www.w3.org/1999/xlink" x="0px"
	 y="0px" viewBox="0 0 1961 3046" enable-background="new 0 0 1961 3046" xml:space="preserve">
<g>
	<rect x="193.5" y="179.5" fill="#27348B" width="1601.3" height="188.4"/>
	<path fill="#27348B" d="M217.2,777.6l262.4,1859.1c0,117.6,150.9,120.2,268.5,120.2h241.5h9.1h241.5c117.6,0,268.5-2.6,268.5-120.2
		l262.4-1859.1c0-117.6-95.3-212.9-212.9-212.9H998.7h-9.1H430C312.5,564.8,217.2,660.1,217.2,777.6z"/>
	<g>
		<path fill="#27348B" d="M193.8,150.8L237,522c1.8,15.3-9.2,29.2-24.5,30.9l-72,8.4c-15.3,1.8-29.2-9.2-30.9-24.5L66.4,165.6
			c-1.8-15.3,9.2-29.2,24.5-30.9l72-8.4C178.2,124.5,192.1,135.5,193.8,150.8z"/>
		<path fill="#27348B" d="M1774.2,165.3l-39.8,342.2c-2.7,23.3,14,44.4,37.3,47.1l43.1,5c23.3,2.7,44.4-14,47.1-37.3l39.8-342.2
			c2.7-23.3-14-44.4-37.3-47.1l-43.1-5C1797.9,125.3,1776.9,142,1774.2,165.3z"/>
	</g>
	<path fill="none" stroke="#FFFFFF" stroke-width="34.2525" stroke-miterlimit="10" d="M406.1,992.5l198.6,1407
		c0,89,114.2,91,203.2,91h182.7h6.9h182.7c89,0,203.2-2,203.2-91l198.6-1407c0-89-72.1-161.1-161.1-161.1H997.6h-6.9H567.2
		C478.3,831.4,406.1,903.5,406.1,992.5z"/>
</g>
<g id="Teigwaren">
	<g>
		<path fill="#F39200" stroke="#FFFFFF" stroke-width="6" stroke-miterlimit="10" d="M1127.9,1033.6l52.2,59.9l103.9,121.2
			c13.1,15.3,32.8,24.1,41.2,18c10.2-7.4,13.8-69.4,0.7-84.7l-52.2-59.9l-103.9-121.2c-13.1-15.3-32.8-24.1-41.2-18
			C1118.3,956.3,1114.8,1018.3,1127.9,1033.6z"/>
		<path fill="#E30613" stroke="#FFFFFF" stroke-width="6" stroke-miterlimit="10" d="M1147.6,1027.6c-6.6,4.8-12.7,4.8-18.8-9.8
			c-7.7-18.4-5.3-61.2,4.6-63.7C1163.2,946.7,1154.2,1022.9,1147.6,1027.6z"/>
	</g>
	<g>
		<path fill="#F39200" stroke="#FFFFFF" stroke-width="6" stroke-miterlimit="10" d="M1346.5,1507l-78.1,14.8l-157.1,28.5
			c-19.8,3.6-37.3,16.2-36.3,26.5c1.2,12.6,52.9,47,72.8,43.4l78.1-14.8l157.1-28.5c19.8-3.6,37.3-16.2,36.3-26.5
			C1418,1537.8,1366.3,1503.4,1346.5,1507z"/>
		<path fill="#E30613" stroke="#FFFFFF" stroke-width="6" stroke-miterlimit="10" d="M1341.7,1527.1c-0.8-8.1,2.2-13.4,17.9-11.3
			c19.8,2.6,55.5,26.3,52.6,36.1C1403.7,1581.4,1342.5,1535.2,1341.7,1527.1z"/>
	</g>
	<g>
		<path fill="#F39200" stroke="#FFFFFF" stroke-width="6" stroke-miterlimit="10" d="M1476.3,1316.7l-30.1-73.5l-59.3-148.2
			c-7.5-18.7-23.3-33.3-33.2-30.3c-12.1,3.7-35.5,61.2-28,80l30.1,73.5l59.3,148.2c7.5,18.7,23.3,33.3,33.2,30.3
			C1460.5,1393,1483.8,1335.4,1476.3,1316.7z"/>
		<path fill="#E30613" stroke="#FFFFFF" stroke-width="6" stroke-miterlimit="10" d="M1455.7,1316.1c7.8-2.4,13.5-0.5,14.6,15.3
			c1.4,19.9-14.7,59.7-24.9,58.8C1414.9,1387.6,1448,1318.5,1455.7,1316.1z"/>
	</g>
	<g>
		<path fill="#F39200" stroke="#FFFFFF" stroke-width="6" stroke-miterlimit="10" d="M1017.1,1467.7l-12.7-78.4l-24.2-157.8
			c-3.1-19.9-15.1-37.7-25.5-37c-12.6,0.9-48.4,51.6-45.3,71.5l12.7,78.4l24.2,157.8c3.1,19.9,15.1,37.7,25.5,37
			C984.3,1538.4,1020.1,1487.7,1017.1,1467.7z"/>
		<path fill="#E30613" stroke="#FFFFFF" stroke-width="6" stroke-miterlimit="10" d="M997.1,1462.4c8.1-0.6,13.3,2.6,10.8,18.2
			c-3.2,19.7-27.8,54.8-37.6,51.6C941.2,1522.9,989,1463,997.1,1462.4z"/>
	</g>
	<g>
		<path fill="#F39200" stroke="#FFFFFF" stroke-width="6" stroke-miterlimit="10" d="M1090.2,1323.8l79.5-0.5l159.7,0.3
			c20.1,0,39.6-9.2,40.5-19.5c1.1-12.6-43.6-55.8-63.7-55.8l-79.5,0.5l-159.7-0.3c-20.1,0-39.6,9.2-40.5,19.5
			C1025.4,1280.5,1070.1,1323.7,1090.2,1323.8z"/>
		<path fill="#E30613" stroke="#FFFFFF" stroke-width="6" stroke-miterlimit="10" d="M1098.5,1304.9c-0.7,8.1-4.6,12.7-19.7,7.8
			c-19-6.2-49.9-35.9-45.3-45C1047.4,1240.3,1099.2,1296.8,1098.5,1304.9z"/>
	</g>
	<g>
		<path fill="#F39200" stroke="#FFFFFF" stroke-width="6" stroke-miterlimit="10" d="M1280.5,1330.9l-76.5,21.4l-154.1,41.7
			c-19.4,5.3-35.8,19.3-33.9,29.5c2.3,12.4,56.7,42.3,76.2,37l76.5-21.4l154.1-41.7c19.4-5.3,35.8-19.3,33.9-29.5
			C1354.4,1355.6,1299.9,1325.7,1280.5,1330.9z"/>
		<path fill="#E30613" stroke="#FFFFFF" stroke-width="6" stroke-miterlimit="10" d="M1277.5,1351.3c-1.5-8,1.1-13.5,16.9-12.7
			c19.9,0.9,57.6,21.5,55.5,31.5C1343.8,1400.2,1278.9,1359.3,1277.5,1351.3z"/>
	</g>
	<g>
		<path fill="#F39200" stroke="#FFFFFF" stroke-width="6" stroke-miterlimit="10" d="M1198.6,1145l-75.9-23.7l-152-48.8
			c-19.2-6.2-40.5-3.3-44.5,6.3c-4.8,11.7,24.6,66.4,43.8,72.5l75.9,23.7l152,48.8c19.2,6.2,40.5,3.3,44.5-6.3
			C1247.3,1205.9,1217.8,1151.2,1198.6,1145z"/>
		<path fill="#E30613" stroke="#FFFFFF" stroke-width="6" stroke-miterlimit="10" d="M1185,1160.5c3.1-7.5,8.3-10.7,21.1-1.5
			c16.2,11.6,36.6,49.3,29.4,56.7C1214.1,1237.5,1181.9,1168,1185,1160.5z"/>
	</g>
	<g>
		<path fill="#F39200" stroke="#FFFFFF" stroke-width="6" stroke-miterlimit="10" d="M1176,1535.3l74.8-26.7l150.8-52.5
			c19-6.6,34.4-21.7,31.8-31.8c-3.2-12.2-59.6-38.2-78.6-31.6l-74.8,26.7l-150.8,52.5c-19,6.6-34.4,21.7-31.8,31.8
			C1100.6,1516,1157,1542,1176,1535.3z"/>
		<path fill="#E30613" stroke="#FFFFFF" stroke-width="6" stroke-miterlimit="10" d="M1177.6,1514.8c2,7.9-0.1,13.5-16,13.9
			c-20,0.5-58.9-17.4-57.6-27.6C1108,1470.7,1175.6,1506.9,1177.6,1514.8z"/>
	</g>
</g>
<g id="Tafelschoko">
	<path fill="#F39200" d="M871.2,1575.9l-268.4,44.2c-6.2,1-12-3.2-13-9.3l-88.2-535.9c-1-6.2,3.2-12,9.3-13l268.4-44.2
		c6.2-1,12,3.2,13,9.3l88.2,535.9C881.6,1569.1,877.4,1574.9,871.2,1575.9z"/>
	<g>
		<g>
			<path fill="none" stroke="#FFFFFF" stroke-width="5" stroke-miterlimit="10" d="M660.2,1230.6l-37,6.1c-8.7,1.4-17-4.5-18.4-13.2
				l-9.7-59.1c-1.4-8.7,4.5-17,13.2-18.4l37-6.1c8.7-1.4,17,4.5,18.4,13.2l9.7,59.1C674.8,1220.9,668.9,1229.2,660.2,1230.6z"/>
			<path fill="none" stroke="#FFFFFF" stroke-width="5" stroke-miterlimit="10" d="M591.9,1241.9l-37,6.1c-8.7,1.4-17-4.5-18.4-13.2
				l-9.7-59.1c-1.4-8.7,4.5-17,13.2-18.4l37-6.1c8.7-1.4,17,4.5,18.4,13.2l9.7,59.1C606.5,1232.2,600.6,1240.4,591.9,1241.9z"/>
			<path fill="none" stroke="#FFFFFF" stroke-width="5" stroke-miterlimit="10" d="M728.8,1219.3l-37,6.1c-8.7,1.4-17-4.5-18.4-13.2
				l-9.7-59.1c-1.4-8.7,4.5-17,13.2-18.4l37-6.1c8.7-1.4,17,4.5,18.4,13.2l9.7,59.1C743.4,1209.6,737.5,1217.9,728.8,1219.3z"/>
			<path fill="none" stroke="#FFFFFF" stroke-width="5" stroke-miterlimit="10" d="M797.4,1208.1l-37,6.1c-8.7,1.4-17-4.5-18.4-13.2
				l-9.7-59.1c-1.4-8.7,4.5-17,13.2-18.4l37-6.1c8.7-1.4,17,4.5,18.4,13.2l9.7,59.1C812,1198.4,806.1,1206.6,797.4,1208.1z"/>
		</g>
		<g>
			<path fill="none" stroke="#FFFFFF" stroke-width="5" stroke-miterlimit="10" d="M675.1,1321.3l-37,6.1c-8.7,1.4-17-4.5-18.4-13.2
				l-9.7-59.1c-1.4-8.7,4.5-17,13.2-18.4l37-6.1c8.7-1.4,17,4.5,18.4,13.2l9.7,59.1C689.8,1311.6,683.8,1319.9,675.1,1321.3z"/>
			<path fill="none" stroke="#FFFFFF" stroke-width="5" stroke-miterlimit="10" d="M606.8,1332.6l-37,6.1c-8.7,1.4-17-4.5-18.4-13.2
				l-9.7-59.1c-1.4-8.7,4.5-17,13.2-18.4l37-6.1c8.7-1.4,17,4.5,18.4,13.2l9.7,59.1C621.4,1322.8,615.5,1331.1,606.8,1332.6z"/>
			<path fill="none" stroke="#FFFFFF" stroke-width="5" stroke-miterlimit="10" d="M743.7,1310l-37,6.1c-8.7,1.4-17-4.5-18.4-13.2
				l-9.7-59.1c-1.4-8.7,4.5-17,13.2-18.4l37-6.1c8.7-1.4,17,4.5,18.4,13.2l9.7,59.1C758.3,1300.3,752.4,1308.6,743.7,1310z"/>
			<path fill="none" stroke="#FFFFFF" stroke-width="5" stroke-miterlimit="10" d="M812.3,1298.7l-37,6.1c-8.7,1.4-17-4.5-18.4-13.2
				l-9.7-59.1c-1.4-8.7,4.5-17,13.2-18.4l37-6.1c8.7-1.4,17,4.5,18.4,13.2l9.7,59.1C826.9,1289,821,1297.3,812.3,1298.7z"/>
		</g>
		<g>
			<path fill="none" stroke="#FFFFFF" stroke-width="5" stroke-miterlimit="10" d="M690.1,1412l-37,6.1c-8.7,1.4-17-4.5-18.4-13.2
				l-9.7-59.1c-1.4-8.7,4.5-17,13.2-18.4l37-6.1c8.7-1.4,17,4.5,18.4,13.2l9.7,59.1C704.7,1402.3,698.8,1410.6,690.1,1412z"/>
			<path fill="none" stroke="#FFFFFF" stroke-width="5" stroke-miterlimit="10" d="M621.7,1423.2l-37,6.1c-8.7,1.4-17-4.5-18.4-13.2
				l-9.7-59.1c-1.4-8.7,4.5-17,13.2-18.4l37-6.1c8.7-1.4,17,4.5,18.4,13.2l9.7,59.1C636.3,1413.5,630.4,1421.8,621.7,1423.2z"/>
			<path fill="none" stroke="#FFFFFF" stroke-width="5" stroke-miterlimit="10" d="M758.6,1400.7l-37,6.1c-8.7,1.4-17-4.5-18.4-13.2
				l-9.7-59.1c-1.4-8.7,4.5-17,13.2-18.4l37-6.1c8.7-1.4,17,4.5,18.4,13.2l9.7,59.1C773.3,1391,767.3,1399.3,758.6,1400.7z"/>
			<path fill="none" stroke="#FFFFFF" stroke-width="5" stroke-miterlimit="10" d="M827.2,1389.4l-37,6.1c-8.7,1.4-17-4.5-18.4-13.2
				l-9.7-59.1c-1.4-8.7,4.5-17,13.2-18.4l37-6.1c8.7-1.4,17,4.5,18.4,13.2l9.7,59.1C841.8,1379.7,835.9,1388,827.2,1389.4z"/>
		</g>
		<g>
			<path fill="none" stroke="#FFFFFF" stroke-width="5" stroke-miterlimit="10" d="M705.1,1503.1l-37,6.1c-8.7,1.4-17-4.5-18.4-13.2
				l-9.7-59.1c-1.4-8.7,4.5-17,13.2-18.4l37-6.1c8.7-1.4,17,4.5,18.4,13.2l9.7,59.1C719.7,1493.4,713.7,1501.6,705.1,1503.1z"/>
			<path fill="none" stroke="#FFFFFF" stroke-width="5" stroke-miterlimit="10" d="M636.7,1514.3l-37,6.1c-8.7,1.4-17-4.5-18.4-13.2
				l-9.7-59.1c-1.4-8.7,4.5-17,13.2-18.4l37-6.1c8.7-1.4,17,4.5,18.4,13.2l9.7,59.1C651.3,1504.6,645.4,1512.9,636.7,1514.3z"/>
			<path fill="none" stroke="#FFFFFF" stroke-width="5" stroke-miterlimit="10" d="M773.6,1491.8l-37,6.1c-8.7,1.4-17-4.5-18.4-13.2
				l-9.7-59.1c-1.4-8.7,4.5-17,13.2-18.4l37-6.1c8.7-1.4,17,4.5,18.4,13.2l9.7,59.1C788.2,1482.1,782.3,1490.4,773.6,1491.8z"/>
			<path fill="none" stroke="#FFFFFF" stroke-width="5" stroke-miterlimit="10" d="M842.2,1480.5l-37,6.1c-8.7,1.4-17-4.5-18.4-13.2
				l-9.7-59.1c-1.4-8.7,4.5-17,13.2-18.4l37-6.1c8.7-1.4,17,4.5,18.4,13.2l9.7,59.1C856.8,1470.8,850.9,1479.1,842.2,1480.5z"/>
		</g>
		<g>
			<path fill="none" stroke="#FFFFFF" stroke-width="5" stroke-miterlimit="10" d="M720,1593.8l-37,6.1c-8.7,1.4-17-4.5-18.4-13.2
				l-9.7-59.1c-1.4-8.7,4.5-17,13.2-18.4l37-6.1c8.7-1.4,17,4.5,18.4,13.2l9.7,59.1C734.6,1584.1,728.7,1592.4,720,1593.8z"/>
			<path fill="none" stroke="#FFFFFF" stroke-width="5" stroke-miterlimit="10" d="M651.6,1605l-37,6.1c-8.7,1.4-17-4.5-18.4-13.2
				l-9.7-59.1c-1.4-8.7,4.5-17,13.2-18.4l37-6.1c8.7-1.4,17,4.5,18.4,13.2l9.7,59.1C666.2,1595.3,660.3,1603.6,651.6,1605z"/>
			<path fill="none" stroke="#FFFFFF" stroke-width="5" stroke-miterlimit="10" d="M788.6,1582.5l-37,6.1c-8.7,1.4-17-4.5-18.4-13.2
				l-9.7-59.1c-1.4-8.7,4.5-17,13.2-18.4l37-6.1c8.7-1.4,17,4.5,18.4,13.2l9.7,59.1C803.2,1572.8,797.2,1581.1,788.6,1582.5z"/>
			<path fill="none" stroke="#FFFFFF" stroke-width="5" stroke-miterlimit="10" d="M857.1,1571.2l-37,6.1c-8.7,1.4-17-4.5-18.4-13.2
				L792,1505c-1.4-8.7,4.5-17,13.2-18.4l37-6.1c8.7-1.4,17,4.5,18.4,13.2l9.7,59.1C871.7,1561.5,865.8,1569.8,857.1,1571.2z"/>
		</g>
		<g>
			<path fill="none" stroke="#FFFFFF" stroke-width="5" stroke-miterlimit="10" d="M645.3,1139.9l-37,6.1c-8.7,1.4-17-4.5-18.4-13.2
				l-9.7-59.1c-1.4-8.7,4.5-17,13.2-18.4l37-6.1c8.7-1.4,17,4.5,18.4,13.2l9.7,59.1C659.9,1130.2,654,1138.5,645.3,1139.9z"/>
			<path fill="none" stroke="#FFFFFF" stroke-width="5" stroke-miterlimit="10" d="M576.9,1151.1l-37,6.1c-8.7,1.4-17-4.5-18.4-13.2
				l-9.7-59.1c-1.4-8.7,4.5-17,13.2-18.4l37-6.1c8.7-1.4,17,4.5,18.4,13.2l9.7,59.1C591.6,1141.4,585.6,1149.7,576.9,1151.1z"/>
			<path fill="none" stroke="#FFFFFF" stroke-width="5" stroke-miterlimit="10" d="M713.9,1128.6l-37,6.1c-8.7,1.4-17-4.5-18.4-13.2
				l-9.7-59.1c-1.4-8.7,4.5-17,13.2-18.4l37-6.1c8.7-1.4,17,4.5,18.4,13.2l9.7,59.1C728.5,1118.9,722.6,1127.2,713.9,1128.6z"/>
			<path fill="none" stroke="#FFFFFF" stroke-width="5" stroke-miterlimit="10" d="M782.4,1117.3l-37,6.1c-8.7,1.4-17-4.5-18.4-13.2
				l-9.7-59.1c-1.4-8.7,4.5-17,13.2-18.4l37-6.1c8.7-1.4,17,4.5,18.4,13.2l9.7,59.1C797.1,1107.6,791.1,1115.9,782.4,1117.3z"/>
		</g>
	</g>
</g>
<g id="salziges">
	<path fill="#F39200" d="M1002.2,1883.6c19.1,41.9,119.5,50.8,145.3-7c12.8-28.6,17.1-75-25.8-88.4c-32.1-10-47.4,1.5-53.1,7.9
		c-1.8,2-4.7,2.6-7.2,1.5c-9.5-4.4-32.2-12.7-46.3-1.4C999.2,1809.1,976.6,1827.5,1002.2,1883.6z M1103.7,1802.2
		c29,0.1,26,32.1,23,46.9c-0.8,3.9-4.9,6-8.5,4.4l-31.1-13.6c-2.1-0.9-3.5-2.9-3.7-5.2C1082.8,1825.4,1083.2,1802.1,1103.7,1802.2z
		 M1070.5,1856.1c1.9-1.5,4.4-1.7,6.5-0.7l38.1,18.6c3.9,1.9,4.7,7.3,1.4,10.2c-36.5,31.5-64.4,13.9-75.3,4.1
		c-2.8-2.5-2.6-7,0.4-9.4L1070.5,1856.1z M1032.7,1811.6c19.9-4.7,25.5,17.9,27,27.1c0.4,2.3-0.6,4.5-2.4,5.9l-27.2,20.3
		c-3.2,2.4-7.7,1.2-9.3-2.4C1014.6,1848.7,1004.5,1818.2,1032.7,1811.6z"/>
	<path fill="#F39200" d="M678.6,1864.8c29.5,35.5,128.7,17.7,138.4-44.8c4.8-30.9-3.2-76.9-48-78.6c-33.6-1.3-45.4,13.9-49.2,21.5
		c-1.2,2.4-3.9,3.7-6.5,3.3c-10.4-1.7-34.4-3.8-45.1,10.8C656.1,1793.7,639.2,1817.4,678.6,1864.8z M755.2,1759.7
		c28-7.5,33.5,24.2,34.5,39.2c0.3,3.9-3.2,7.1-7.1,6.5l-33.6-5c-2.3-0.3-4.1-1.9-4.9-4.1C741.1,1787.6,735.4,1765,755.2,1759.7z
		 M737.3,1820.4c1.4-1.9,3.8-2.8,6.1-2.4l41.6,8c4.3,0.8,6.4,5.8,4,9.4c-27,40-58.5,30.3-71.6,23.7c-3.4-1.7-4.4-6.1-2.1-9.1
		L737.3,1820.4z M689.2,1787.3c18-9.7,29.3,10.6,33.2,19.1c0.9,2.1,0.7,4.5-0.8,6.3l-20.9,26.7c-2.4,3.1-7.1,3.1-9.6,0.1
		C681.4,1827.9,663.7,1801.2,689.2,1787.3z"/>
	<path fill="#F39200" d="M1155.9,1886c-27.7,36.9,12.6,129.3,75.7,124.2c31.2-2.5,74-20.9,65.3-65c-6.6-33-24-40.9-32.3-42.8
		c-2.6-0.6-4.5-2.9-4.7-5.6c-0.7-10.5-4.2-34.3-21-41.3C1219.8,1847.6,1192.8,1836.7,1155.9,1886z M1275.9,1936.2
		c13.8,25.5-15.7,38.2-30.2,42.7c-3.8,1.2-7.6-1.4-8-5.3l-2.9-33.8c-0.2-2.3,0.9-4.5,2.8-5.7
		C1245.5,1928.9,1266.2,1918.1,1275.9,1936.2z M1212.7,1932.8c2.2,0.9,3.6,3,3.7,5.4l1.9,42.4c0.2,4.4-4.2,7.6-8.3,6.1
		c-45.2-16.9-43-49.9-39.6-64.2c0.9-3.7,4.9-5.7,8.4-4.2L1212.7,1932.8z M1233.7,1878.3c13.6,15.2-3.5,31-10.9,36.7
		c-1.8,1.4-4.3,1.7-6.3,0.7l-30.8-14.2c-3.6-1.6-4.7-6.2-2.3-9.3C1192.4,1880.2,1214.3,1856.7,1233.7,1878.3z"/>
	<path fill="#F39200" d="M993.5,1929.8c16.4-43.1-47.9-120.7-107.1-98.5c-29.3,11-65.4,40.6-44.8,80.5
		c15.4,29.9,34.4,32.7,42.9,32.2c2.7-0.2,5.2,1.5,6.1,4.1c3.6,9.9,13.6,31.8,31.6,33.9C942.6,1984.4,971.6,1987.5,993.5,1929.8z
		 M864.3,1914.9c-20.3-20.7,4.6-41,17.2-49.4c3.3-2.2,7.7-0.7,9.1,2.9l12.1,31.7c0.8,2.1,0.4,4.6-1.1,6.3
		C895.4,1913.4,878.6,1929.5,864.3,1914.9z M925.9,1900.6c-2.3-0.3-4.3-1.9-5.1-4.1l-13.5-40.2c-1.4-4.2,1.9-8.4,6.3-8.1
		c48.1,3.8,55.1,36.1,55.8,50.7c0.2,3.8-3.1,6.8-6.9,6.3L925.9,1900.6z M920.8,1958.8c-17.3-10.9-5.2-30.7,0.3-38.3
		c1.4-1.8,3.6-2.8,5.9-2.4l33.5,5.1c3.9,0.6,6.2,4.6,4.8,8.3C959.9,1945.6,945.4,1974.2,920.8,1958.8z"/>
	<path fill="#F39200" d="M1007.5,1759.3c16.4-43.1-47.7-120.8-107-98.6c-29.3,11-65.4,40.5-44.9,80.4c15.4,29.9,34.4,32.7,42.9,32.3
		c2.7-0.1,5.2,1.5,6.1,4.1c3.6,9.9,13.5,31.8,31.6,34C956.6,1813.8,985.5,1816.9,1007.5,1759.3z M878.3,1744.1
		c-20.3-20.7,4.6-41,17.2-49.3c3.3-2.2,7.7-0.7,9.1,2.9l12.1,31.7c0.8,2.1,0.4,4.6-1.1,6.3C909.5,1742.7,892.6,1758.8,878.3,1744.1z
		 M939.9,1729.9c-2.3-0.3-4.3-1.9-5.1-4.2l-13.5-40.2c-1.4-4.2,1.9-8.4,6.3-8.1c48.1,3.9,55.1,36.1,55.8,50.8
		c0.2,3.8-3.2,6.8-6.9,6.3L939.9,1729.9z M934.8,1788.1c-17.3-10.9-5.2-30.8,0.4-38.3c1.4-1.8,3.6-2.8,5.9-2.4l33.5,5.1
		c3.9,0.6,6.2,4.6,4.8,8.3C974,1775,959.4,1803.6,934.8,1788.1z"/>
</g>
<g id="süßes">
	<path fill="#F39200" d="M959.4,2305.6c3.1-2.1,3.5-5.4,0.8-8.2c-0.7-0.7-0.9-1.1-0.1-1.9c2.6-2.7,2.5-5.1-0.2-7.9
		c-0.6-0.6-0.5-0.9,0-1.5c2.7-2.8,2.7-5.1,0.1-7.9c-0.7-0.7-0.7-1.1,0-1.8c2.6-2.6,2.6-5.4-0.1-7.9c-0.6-0.5-0.8-0.7-0.1-1.4
		c2.8-2.9,2.8-5.1,0-8.2c-0.4-0.5-0.7-0.7-0.1-1.3c2.9-3,2.9-5.2,0.1-8.1c-0.5-0.6-0.7-0.8,0-1.5c2.7-2.7,2.8-5.3,0.1-8
		c-0.4-0.4-0.5-0.6-0.5-0.9h0c-0.1-0.4,0.3-0.8,0.7-1.2c2.3-2.4,2.3-5.3-0.1-7.5c-1-0.9-0.6-1.3,0.1-2c2.4-2.5,2.3-5.9-0.5-7.8
		c-1.1-0.8-1.3-1.2-0.4-2.4c3-4.1,3.6-8.6,1.3-13.1h0c-1.2-2.5-3.3-4.5-6.2-5.7c-4.6-2-9-1.3-13,1.9c-0.9,0.8-1.2,0.4-1.7-0.4
		c-2.1-3.1-5.4-3.5-8.2-0.8c-0.7,0.7-1.1,0.9-1.9,0.1c-2.7-2.6-5.1-2.5-7.9,0.2c-0.6,0.6-0.9,0.5-1.5,0c-2.8-2.7-5.1-2.7-7.9-0.1
		c-0.7,0.7-1.1,0.7-1.8,0c-2.6-2.6-5.4-2.6-7.9,0.1c-0.5,0.6-0.7,0.8-1.4,0.1c-0.3-0.2-0.5-0.5-0.7-0.7c-2.1-2.2-5-2.2-7.4,0.2
		c-0.5,0.5-0.8,0.8-1.3,0.6c0,0,0,0-0.1-0.1c-0.7-0.6-1.3-1.1-1.9-1.5c-2.1-1.4-4.2-1-6.5,1.3c-0.4,0.4-0.6,0.5-0.9,0.4
		c-0.1-0.1-0.2-0.1-0.3-0.2c-0.6-0.7-1.3-1.1-1.9-1.5c-2.1-1.3-4-0.9-6.3,1.2c-0.7,0.7-1.1,0.7-1.8,0c-2.6-2.6-5.4-2.6-7.9,0.1
		c-0.5,0.6-0.7,0.8-1.4,0.1c-2.9-2.8-5.1-2.8-8.2,0c-0.5,0.4-0.7,0.7-1.3,0.1c-3-2.9-5.2-2.9-8.1-0.1c-0.6,0.5-0.8,0.7-1.5,0
		c-2.7-2.7-5.3-2.8-8-0.1c-0.4,0.4-0.6,0.5-0.9,0.5v0c-0.4,0.1-0.8-0.3-1.2-0.7c-2.4-2.3-5.3-2.3-7.5,0.1c-0.9,1-1.3,0.6-2-0.1
		c-2.5-2.4-5.9-2.3-7.8,0.5c-0.8,1.1-1.2,1.3-2.4,0.4c-4.1-3-8.6-3.6-13.2-1.2c-2.6,1.3-4.8,3-6,5.4h0c0,0,0,0,0,0.1
		c0,0,0,0.1,0,0.1c-0.7,1.4-1.1,3-1.1,4.9c0,0.2,0,0.4,0,0.7c0.1,2.6,1.1,5,3,7.3c0.8,0.9,0.4,1.2-0.4,1.7c-3.1,2.1-3.5,5.4-0.8,8.2
		c0.7,0.7,0.9,1.1,0.1,1.9c-2.6,2.7-2.5,5.1,0.2,7.9c0.6,0.6,0.5,0.9,0,1.5c-2.7,2.8-2.7,5.1-0.1,7.9c0.7,0.7,0.7,1.1,0,1.8
		c-2.6,2.6-2.6,5.4,0.1,7.9c0.6,0.5,0.8,0.7,0.1,1.4c-2.8,2.9-2.8,5.1,0,8.2c0.4,0.5,0.7,0.7,0.1,1.3c-2.9,3-2.9,5.2-0.1,8.1
		c0.5,0.6,0.7,0.8,0,1.5c-2.7,2.7-2.8,5.3-0.1,8c0.4,0.4,0.5,0.6,0.5,0.9h0c0.1,0.4-0.3,0.8-0.7,1.2c-2.3,2.4-2.3,5.3,0.1,7.5
		c1,0.9,0.6,1.3-0.1,2c-2.4,2.5-2.3,5.9,0.5,7.8c1.1,0.8,1.3,1.2,0.4,2.4c-3,4.1-3.6,8.6-1.3,13.1h0c1.2,2.8,3.3,4.9,6.4,6.3
		c4.6,2,9,1.3,13-1.9c0.9-0.8,1.2-0.4,1.7,0.4c2.1,3.1,5.4,3.5,8.2,0.8c0.7-0.7,1.1-0.9,1.9-0.1c2.7,2.6,5.1,2.5,7.9-0.2
		c0.6-0.6,0.9-0.5,1.5,0c2.8,2.7,5.1,2.7,7.9,0.1c0.7-0.7,1.1-0.7,1.8,0c2.6,2.6,5.4,2.6,7.9-0.1c0.5-0.6,0.7-0.8,1.4-0.1
		c0.3,0.2,0.5,0.5,0.7,0.7c2.1,2.2,5,2.2,7.4-0.2c0.5-0.5,0.8-0.8,1.3-0.6c0,0,0,0,0.1,0.1c0.7,0.6,1.3,1.1,1.9,1.5
		c2.1,1.4,4.2,1,6.5-1.3c0.4-0.4,0.6-0.5,0.9-0.4c0.1,0.1,0.2,0.1,0.3,0.2c0.6,0.7,1.3,1.1,1.9,1.5c2.1,1.3,4,0.9,6.3-1.2
		c0.7-0.7,1.1-0.7,1.8,0c2.6,2.6,5.4,2.6,7.9-0.1c0.5-0.6,0.7-0.8,1.4-0.1c2.9,2.8,5.1,2.8,8.2,0c0.5-0.4,0.7-0.7,1.3-0.1
		c3,2.9,5.2,2.9,8.1,0.1c0.6-0.5,0.8-0.7,1.5,0c2.7,2.7,5.3,2.8,8,0.1c0.4-0.4,0.6-0.5,0.9-0.5v0c0.4-0.1,0.8,0.3,1.2,0.7
		c2.4,2.3,5.3,2.3,7.5-0.1c0.9-1,1.3-0.6,2,0.1c2.5,2.4,5.9,2.3,7.8-0.5c0.8-1.1,1.2-1.3,2.4-0.4c4.1,3,8.6,3.6,13.2,1.2
		c3.2-1.7,5.4-4.1,6.3-7.4c1.3-4.1,0.4-8-2.4-11.5C958.3,2306.3,958.6,2306.1,959.4,2305.6z"/>
	<path fill="#F39200" d="M1055,2192.5c3.7-0.7,5.3-3.6,3.9-7.2c-0.4-0.9-0.4-1.4,0.7-1.8c3.4-1.4,4.3-3.7,2.9-7.3
		c-0.3-0.8-0.1-1,0.6-1.3c3.6-1.5,4.5-3.6,3.1-7.2c-0.4-0.9-0.2-1.3,0.7-1.6c3.4-1.4,4.5-3.9,3-7.3c-0.3-0.7-0.4-1,0.4-1.3
		c3.8-1.6,4.6-3.6,3.2-7.5c-0.2-0.6-0.3-0.9,0.5-1.3c3.9-1.6,4.7-3.6,3.3-7.4c-0.3-0.7-0.3-1,0.6-1.4c3.6-1.4,4.6-3.8,3.2-7.3
		c-0.2-0.5-0.3-0.8-0.1-1l0,0c0.1-0.4,0.6-0.6,1.1-0.8c3-1.3,4.2-3.9,2.8-6.9c-0.6-1.2-0.1-1.4,0.9-1.8c3.2-1.3,4.4-4.5,2.6-7.4
		c-0.7-1.2-0.7-1.6,0.6-2.3c4.3-2.6,6.6-6.5,6.3-11.5l0,0c-0.1-2.8-1.2-5.4-3.4-7.7c-3.4-3.6-7.8-4.7-12.7-3.3
		c-1.2,0.3-1.2-0.1-1.4-1c-0.7-3.7-3.6-5.3-7.2-3.9c-0.9,0.4-1.4,0.4-1.8-0.7c-1.4-3.4-3.7-4.3-7.3-2.9c-0.8,0.3-1,0.1-1.3-0.6
		c-1.5-3.6-3.6-4.5-7.2-3.1c-0.9,0.4-1.3,0.2-1.6-0.7c-1.4-3.4-3.9-4.5-7.3-3c-0.7,0.3-1,0.4-1.3-0.4c-0.1-0.3-0.3-0.6-0.4-0.9
		c-1.1-2.8-3.7-3.9-6.9-2.7c-0.7,0.3-1.1,0.4-1.4,0c0,0,0-0.1,0-0.1c-0.4-0.9-0.7-1.6-1.2-2.1c-1.4-2.1-3.5-2.5-6.5-1.4
		c-0.5,0.2-0.8,0.2-1,0c0-0.1-0.1-0.2-0.1-0.3c-0.3-0.9-0.7-1.6-1.2-2.1c-1.4-2-3.3-2.4-6.2-1.3c-0.9,0.4-1.3,0.2-1.6-0.7
		c-1.4-3.4-3.9-4.5-7.3-3c-0.7,0.3-1,0.4-1.3-0.4c-1.6-3.8-3.6-4.6-7.5-3.2c-0.6,0.2-0.9,0.3-1.3-0.5c-1.6-3.9-3.6-4.7-7.4-3.3
		c-0.7,0.3-1,0.3-1.4-0.6c-1.4-3.6-3.8-4.6-7.3-3.2c-0.5,0.2-0.8,0.3-1,0.1l0,0c-0.4-0.1-0.6-0.6-0.8-1.1c-1.3-3-3.9-4.2-6.9-2.8
		c-1.2,0.6-1.4,0.1-1.8-0.9c-1.3-3.2-4.5-4.4-7.4-2.6c-1.2,0.7-1.6,0.7-2.3-0.6c-2.6-4.3-6.5-6.7-11.7-6.3c-2.9,0.2-5.6,0.9-7.6,2.6
		l0,0c0,0,0,0,0,0c0,0,0,0-0.1,0.1c-1.2,1-2.2,2.3-2.9,4.1c-0.1,0.2-0.2,0.4-0.2,0.6c-0.9,2.4-0.9,5.1-0.1,7.9
		c0.3,1.2-0.1,1.2-1,1.4c-3.7,0.7-5.3,3.6-3.9,7.2c0.4,0.9,0.4,1.4-0.7,1.8c-3.4,1.4-4.3,3.7-2.9,7.3c0.3,0.8,0.1,1-0.6,1.3
		c-3.6,1.5-4.5,3.6-3.1,7.2c0.4,0.9,0.2,1.3-0.7,1.6c-3.4,1.4-4.5,3.9-3,7.3c0.3,0.7,0.4,1-0.4,1.3c-3.8,1.6-4.6,3.6-3.2,7.5
		c0.2,0.6,0.3,0.9-0.5,1.3c-3.9,1.6-4.7,3.6-3.3,7.4c0.3,0.7,0.3,1-0.6,1.4c-3.6,1.4-4.6,3.8-3.2,7.3c0.2,0.5,0.3,0.8,0.1,1l0,0
		c-0.1,0.4-0.6,0.6-1.1,0.8c-3,1.3-4.2,3.9-2.8,6.9c0.6,1.2,0.1,1.4-0.9,1.8c-3.2,1.3-4.4,4.5-2.6,7.4c0.7,1.2,0.7,1.6-0.6,2.3
		c-4.3,2.6-6.6,6.5-6.3,11.5l0,0c0,3,1.1,5.8,3.5,8.3c3.4,3.6,7.8,4.7,12.7,3.3c1.2-0.3,1.2,0.1,1.4,1c0.7,3.7,3.6,5.3,7.2,3.9
		c0.9-0.4,1.4-0.4,1.8,0.7c1.4,3.4,3.7,4.3,7.3,2.9c0.8-0.3,1-0.1,1.3,0.6c1.5,3.6,3.6,4.5,7.2,3.1c0.9-0.4,1.3-0.2,1.6,0.7
		c1.4,3.4,3.9,4.5,7.3,3c0.7-0.3,1-0.4,1.3,0.4c0.1,0.3,0.3,0.6,0.4,0.9c1.1,2.8,3.7,3.9,6.9,2.7c0.7-0.3,1.1-0.4,1.4,0
		c0,0,0,0.1,0,0.1c0.4,0.9,0.7,1.6,1.2,2.1c1.4,2.1,3.5,2.5,6.5,1.4c0.5-0.2,0.8-0.2,1,0c0,0.1,0.1,0.2,0.1,0.3
		c0.3,0.9,0.7,1.6,1.2,2.1c1.4,2,3.3,2.4,6.2,1.3c0.9-0.4,1.3-0.2,1.6,0.7c1.4,3.4,3.9,4.5,7.3,3c0.7-0.3,1-0.4,1.3,0.4
		c1.6,3.8,3.6,4.6,7.5,3.2c0.6-0.2,0.9-0.3,1.3,0.5c1.6,3.9,3.6,4.7,7.4,3.3c0.7-0.3,1-0.3,1.4,0.6c1.4,3.6,3.8,4.6,7.3,3.2
		c0.5-0.2,0.8-0.3,1-0.1l0,0c0.4,0.1,0.6,0.6,0.8,1.1c1.3,3,3.9,4.2,6.9,2.8c1.2-0.6,1.4-0.1,1.8,0.9c1.3,3.2,4.5,4.4,7.4,2.6
		c1.2-0.7,1.6-0.7,2.3,0.6c2.6,4.3,6.5,6.7,11.7,6.3c3.6-0.3,6.6-1.7,8.7-4.3c2.8-3.2,3.5-7.2,2.3-11.6
		C1053.6,2192.7,1054.1,2192.7,1055,2192.5z"/>
	<path fill="#F39200" d="M1146.7,2366.3c3.5-1.3,4.6-4.5,2.6-7.8c-0.5-0.8-0.7-1.3,0.3-1.9c3.2-2,3.6-4.4,1.6-7.7
		c-0.5-0.8-0.3-1,0.4-1.4c3.3-2.1,3.8-4.3,1.9-7.6c-0.5-0.9-0.4-1.2,0.4-1.7c3.1-2,3.8-4.7,1.7-7.7c-0.4-0.7-0.6-0.9,0.2-1.4
		c3.4-2.2,3.9-4.4,1.9-7.9c-0.3-0.6-0.5-0.8,0.3-1.3c3.5-2.3,4-4.4,2-7.9c-0.4-0.7-0.5-1,0.3-1.4c3.3-2,3.9-4.6,1.9-7.8
		c-0.3-0.5-0.4-0.7-0.3-1l0,0c0-0.4,0.5-0.7,1-1c2.8-1.8,3.5-4.6,1.6-7.3c-0.8-1.1-0.3-1.4,0.5-1.9c2.9-1.8,3.5-5.2,1.3-7.8
		c-0.9-1.1-1-1.4,0.2-2.4c3.8-3.3,5.4-7.5,4.2-12.5l0,0c-0.6-2.7-2.2-5.1-4.7-7c-4-3-8.5-3.3-13.1-1.1c-1.1,0.5-1.2,0.1-1.5-0.7
		c-1.3-3.5-4.5-4.6-7.8-2.6c-0.8,0.5-1.3,0.7-1.9-0.3c-2-3.2-4.4-3.6-7.7-1.6c-0.8,0.5-1,0.3-1.4-0.4c-2.1-3.3-4.3-3.8-7.6-1.9
		c-0.9,0.5-1.2,0.4-1.7-0.4c-2-3.1-4.7-3.7-7.7-1.7c-0.7,0.4-0.9,0.6-1.4-0.2c-0.2-0.3-0.4-0.6-0.6-0.8c-1.5-2.6-4.3-3.2-7.2-1.5
		c-0.6,0.4-1,0.6-1.4,0.2c0,0,0-0.1-0.1-0.1c-0.5-0.8-1-1.4-1.5-1.9c-1.8-1.9-3.9-1.9-6.6-0.2c-0.5,0.3-0.7,0.3-1,0.2
		c-0.1-0.1-0.1-0.2-0.2-0.3c-0.5-0.8-1-1.4-1.5-1.9c-1.7-1.8-3.7-1.8-6.4-0.2c-0.9,0.5-1.2,0.4-1.7-0.4c-2-3.1-4.7-3.8-7.7-1.7
		c-0.7,0.4-0.9,0.6-1.4-0.2c-2.2-3.4-4.4-3.9-7.9-1.9c-0.6,0.3-0.8,0.5-1.3-0.3c-2.3-3.5-4.4-4-7.9-2c-0.7,0.4-1,0.5-1.4-0.3
		c-2-3.3-4.6-3.9-7.8-1.9c-0.5,0.3-0.7,0.4-1,0.3l0,0c-0.4,0-0.7-0.5-1-1c-1.8-2.8-4.6-3.5-7.3-1.6c-1.1,0.8-1.4,0.3-1.9-0.5
		c-1.8-2.9-5.2-3.5-7.8-1.3c-1.1,0.9-1.4,1-2.4-0.2c-3.3-3.8-7.6-5.4-12.6-4.2c-2.8,0.7-5.3,1.9-7.1,3.9l0,0c0,0,0,0,0,0
		c0,0,0,0.1-0.1,0.1c-1,1.2-1.7,2.7-2.2,4.5c-0.1,0.2-0.1,0.4-0.1,0.7c-0.5,2.5,0,5.2,1.2,7.8c0.5,1.1,0.1,1.2-0.7,1.5
		c-3.5,1.3-4.6,4.5-2.6,7.8c0.5,0.8,0.7,1.3-0.3,1.9c-3.2,2-3.6,4.4-1.6,7.7c0.5,0.8,0.3,1-0.4,1.4c-3.3,2.1-3.8,4.3-1.9,7.6
		c0.5,0.9,0.4,1.2-0.4,1.7c-3.1,2-3.7,4.7-1.7,7.7c0.4,0.7,0.6,0.9-0.2,1.4c-3.4,2.2-3.9,4.4-1.9,7.9c0.3,0.6,0.5,0.8-0.3,1.3
		c-3.5,2.3-4,4.4-2,7.9c0.4,0.7,0.5,1-0.3,1.4c-3.3,2-3.9,4.6-1.9,7.8c0.3,0.5,0.4,0.7,0.3,1l0,0c0,0.4-0.5,0.7-1,1
		c-2.8,1.8-3.5,4.6-1.6,7.3c0.8,1.1,0.3,1.4-0.5,1.9c-2.9,1.8-3.5,5.2-1.3,7.8c0.9,1.1,1,1.4-0.2,2.4c-3.8,3.3-5.4,7.5-4.2,12.5l0,0
		c0.5,2.9,2.1,5.5,4.8,7.6c4,3,8.5,3.3,13.1,1.1c1.1-0.5,1.2-0.1,1.5,0.7c1.3,3.5,4.5,4.6,7.8,2.6c0.8-0.5,1.3-0.7,1.9,0.3
		c2,3.2,4.4,3.6,7.7,1.6c0.8-0.5,1-0.3,1.4,0.4c2.1,3.3,4.3,3.8,7.6,1.9c0.9-0.5,1.2-0.4,1.7,0.4c2,3.1,4.7,3.7,7.7,1.7
		c0.7-0.4,0.9-0.6,1.4,0.2c0.2,0.3,0.4,0.6,0.6,0.8c1.5,2.6,4.3,3.2,7.2,1.5c0.6-0.4,1-0.6,1.4-0.2c0,0,0,0,0.1,0.1
		c0.5,0.8,1,1.4,1.5,1.9c1.8,1.9,3.9,1.9,6.6,0.2c0.5-0.3,0.7-0.3,1-0.2c0.1,0.1,0.1,0.2,0.2,0.3c0.5,0.8,1,1.4,1.5,1.9
		c1.7,1.8,3.7,1.8,6.4,0.2c0.9-0.5,1.2-0.4,1.7,0.4c2,3.1,4.7,3.7,7.7,1.7c0.7-0.4,0.9-0.6,1.4,0.2c2.2,3.4,4.4,3.9,7.9,1.9
		c0.6-0.3,0.8-0.5,1.3,0.3c2.3,3.5,4.4,4,7.9,2c0.7-0.4,1-0.5,1.4,0.3c2,3.3,4.6,3.9,7.8,1.9c0.5-0.3,0.7-0.4,1-0.3l0,0
		c0.4,0,0.7,0.5,1,1c1.8,2.8,4.6,3.5,7.3,1.6c1.1-0.8,1.4-0.3,1.9,0.5c1.8,2.9,5.2,3.5,7.8,1.3c1.1-0.9,1.4-0.9,2.4,0.2
		c3.3,3.8,7.6,5.4,12.6,4.2c3.5-0.9,6.2-2.8,7.8-5.8c2.2-3.7,2.2-7.7,0.3-11.8C1145.4,2366.7,1145.8,2366.6,1146.7,2366.3z"/>
</g>
</svg>
