<?xml version="1.0" encoding="utf-8"?>
<!-- Generator: Adobe Illustrator 19.1.0, SVG Export Plug-In . SVG Version: 6.00 Build 0)  -->
<svg version="1.1" id="Meistgekauft" xmlns="http://www.w3.org/2000/svg" xmlns:xlink="http://www.w3.org/1999/xlink" x="0px"
	 y="0px" viewBox="560 -1225.7 1961 3046" enable-background="new 560 -1225.7 1961 3046" xml:space="preserve">
<g>
	<rect x="769.5" y="-927.9" fill="#27348B" width="1601.3" height="188.4"/>
	<path fill="#27348B" d="M793.2-329.8l262.4,1859.1c0,117.6,150.9,120.2,268.5,120.2h241.5h9.1h241.5c117.6,0,268.5-2.6,268.5-120.2
		l262.4-1859.1c0-117.6-95.3-212.9-212.9-212.9h-559.5h-9.1H1006C888.5-542.6,793.2-447.3,793.2-329.8z"/>
	<g>
		<path fill="#27348B" d="M769.8-956.6L813-585.4c1.8,15.3-9.2,29.2-24.5,30.9l-72,8.4c-15.3,1.8-29.2-9.2-30.9-24.5l-43.2-371.2
			c-1.8-15.3,9.2-29.2,24.5-30.9l72-8.4C754.2-982.9,768.1-971.9,769.8-956.6z"/>
		<path fill="#27348B" d="M2350.2-942.1l-39.8,342.2c-2.7,23.3,14,44.4,37.3,47.1l43.1,5c23.3,2.7,44.4-14,47.1-37.3l39.8-342.2
			c2.7-23.3-14-44.4-37.3-47.1l-43.1-5C2373.9-982.1,2352.9-965.4,2350.2-942.1z"/>
	</g>
	<path fill="none" stroke="#FFFFFF" stroke-width="34.2525" stroke-miterlimit="10" d="M982.1-114.9l198.6,1407
		c0,89,114.2,91,203.2,91h182.7h6.9h182.7c89,0,203.2-2,203.2-91l198.6-1407c0-89-72.1-161.1-161.1-161.1h-423.3h-6.9h-423.5
		C1054.3-276,982.1-203.9,982.1-114.9z"/>
</g>
<g id="Teigwaren">
	<g>
		<path fill="#F9B233" stroke="#FFFFFF" stroke-width="6" stroke-miterlimit="10" d="M1703.9-73.8l52.2,59.9L1860,107.3
			c13.1,15.3,32.8,24.1,41.2,18c10.2-7.4,13.8-69.4,0.7-84.7l-52.2-59.9l-103.9-121.2c-13.1-15.3-32.8-24.1-41.2-18
			C1694.3-151.1,1690.8-89.1,1703.9-73.8z"/>
		<path fill="#E30613" stroke="#FFFFFF" stroke-width="6" stroke-miterlimit="10" d="M1723.6-79.8c-6.6,4.8-12.7,4.8-18.8-9.8
			c-7.7-18.4-5.3-61.2,4.6-63.7C1739.2-160.7,1730.2-84.5,1723.6-79.8z"/>
	</g>
	<g>
		<path fill="#F9B233" stroke="#FFFFFF" stroke-width="6" stroke-miterlimit="10" d="M1922.5,399.6l-78.1,14.8l-157.1,28.5
			c-19.8,3.6-37.3,16.2-36.3,26.5c1.2,12.6,52.9,47,72.8,43.4l78.1-14.8l157.1-28.5c19.8-3.6,37.3-16.2,36.3-26.5
			C1994,430.4,1942.3,396,1922.5,399.6z"/>
		<path fill="#E30613" stroke="#FFFFFF" stroke-width="6" stroke-miterlimit="10" d="M1917.7,419.7c-0.8-8.1,2.2-13.4,17.9-11.3
			c19.8,2.6,55.5,26.3,52.6,36.1C1979.7,474,1918.5,427.8,1917.7,419.7z"/>
	</g>
	<g>
		<path fill="#F9B233" stroke="#FFFFFF" stroke-width="6" stroke-miterlimit="10" d="M2052.3,209.3l-30.1-73.5l-59.3-148.2
			c-7.5-18.7-23.3-33.3-33.2-30.3c-12.1,3.7-35.5,61.2-28,80l30.1,73.5l59.3,148.2c7.5,18.7,23.3,33.3,33.2,30.3
			C2036.5,285.6,2059.8,228,2052.3,209.3z"/>
		<path fill="#E30613" stroke="#FFFFFF" stroke-width="6" stroke-miterlimit="10" d="M2031.7,208.7c7.8-2.4,13.5-0.5,14.6,15.3
			c1.4,19.9-14.7,59.7-24.9,58.8C1990.9,280.2,2024,211.1,2031.7,208.7z"/>
	</g>
	<g>
		<path fill="#F9B233" stroke="#FFFFFF" stroke-width="6" stroke-miterlimit="10" d="M1593.1,360.3l-12.7-78.4l-24.2-157.8
			c-3.1-19.9-15.1-37.7-25.5-37c-12.6,0.9-48.4,51.6-45.3,71.5l12.7,78.4l24.2,157.8c3.1,19.9,15.1,37.7,25.5,37
			C1560.3,431,1596.1,380.3,1593.1,360.3z"/>
		<path fill="#E30613" stroke="#FFFFFF" stroke-width="6" stroke-miterlimit="10" d="M1573.1,355c8.1-0.6,13.3,2.6,10.8,18.2
			c-3.2,19.7-27.8,54.8-37.6,51.6C1517.2,415.5,1565,355.6,1573.1,355z"/>
	</g>
	<g>
		<path fill="#F9B233" stroke="#FFFFFF" stroke-width="6" stroke-miterlimit="10" d="M1666.2,216.4l79.5-0.5l159.7,0.3
			c20.1,0,39.6-9.2,40.5-19.5c1.1-12.6-43.6-55.8-63.7-55.8l-79.5,0.5l-159.7-0.3c-20.1,0-39.6,9.2-40.5,19.5
			C1601.4,173.1,1646.1,216.3,1666.2,216.4z"/>
		<path fill="#E30613" stroke="#FFFFFF" stroke-width="6" stroke-miterlimit="10" d="M1674.5,197.5c-0.7,8.1-4.6,12.7-19.7,7.8
			c-19-6.2-49.9-35.9-45.3-45C1623.4,132.9,1675.2,189.4,1674.5,197.5z"/>
	</g>
	<g>
		<path fill="#F9B233" stroke="#FFFFFF" stroke-width="6" stroke-miterlimit="10" d="M1856.5,223.5l-76.5,21.4l-154.1,41.7
			c-19.4,5.3-35.8,19.3-33.9,29.5c2.3,12.4,56.7,42.3,76.2,37l76.5-21.4l154.1-41.7c19.4-5.3,35.8-19.3,33.9-29.5
			C1930.4,248.2,1875.9,218.3,1856.5,223.5z"/>
		<path fill="#E30613" stroke="#FFFFFF" stroke-width="6" stroke-miterlimit="10" d="M1853.5,243.9c-1.5-8,1.1-13.5,16.9-12.7
			c19.9,0.9,57.6,21.5,55.5,31.5C1919.8,292.8,1854.9,251.9,1853.5,243.9z"/>
	</g>
	<g>
		<path fill="#F9B233" stroke="#FFFFFF" stroke-width="6" stroke-miterlimit="10" d="M1774.6,37.6l-75.9-23.7l-152-48.8
			c-19.2-6.2-40.5-3.3-44.5,6.3c-4.8,11.7,24.6,66.4,43.8,72.5l75.9,23.7l152,48.8c19.2,6.2,40.5,3.3,44.5-6.3
			C1823.3,98.5,1793.8,43.8,1774.6,37.6z"/>
		<path fill="#E30613" stroke="#FFFFFF" stroke-width="6" stroke-miterlimit="10" d="M1761,53.1c3.1-7.5,8.3-10.7,21.1-1.5
			c16.2,11.6,36.6,49.3,29.4,56.7C1790.1,130.1,1757.9,60.6,1761,53.1z"/>
	</g>
	<g>
		<path fill="#F9B233" stroke="#FFFFFF" stroke-width="6" stroke-miterlimit="10" d="M1752,427.9l74.8-26.7l150.8-52.5
			c19-6.6,34.4-21.7,31.8-31.8c-3.2-12.2-59.6-38.2-78.6-31.6L1856,312l-150.8,52.5c-19,6.6-34.4,21.7-31.8,31.8
			C1676.6,408.6,1733,434.6,1752,427.9z"/>
		<path fill="#E30613" stroke="#FFFFFF" stroke-width="6" stroke-miterlimit="10" d="M1753.6,407.4c2,7.9-0.1,13.5-16,13.9
			c-20,0.5-58.9-17.4-57.6-27.6C1684,363.3,1751.6,399.5,1753.6,407.4z"/>
	</g>
</g>
<g id="Tafelschoko">
	<path fill="#F9B233" d="M1447.2,468.5l-268.4,44.2c-6.2,1-12-3.2-13-9.3l-88.2-535.9c-1-6.2,3.2-12,9.3-13l268.4-44.2
		c6.2-1,12,3.2,13,9.3l88.2,535.9C1457.6,461.7,1453.4,467.5,1447.2,468.5z"/>
	<g>
		<g>
			<path fill="none" stroke="#FFFFFF" stroke-width="5" stroke-miterlimit="10" d="M1236.2,123.2l-37,6.1c-8.7,1.4-17-4.5-18.4-13.2
				l-9.7-59.1c-1.4-8.7,4.5-17,13.2-18.4l37-6.1c8.7-1.4,17,4.5,18.4,13.2l9.7,59.1C1250.8,113.5,1244.9,121.8,1236.2,123.2z"/>
			<path fill="none" stroke="#FFFFFF" stroke-width="5" stroke-miterlimit="10" d="M1167.9,134.5l-37,6.1c-8.7,1.4-17-4.5-18.4-13.2
				l-9.7-59.1c-1.4-8.7,4.5-17,13.2-18.4l37-6.1c8.7-1.4,17,4.5,18.4,13.2l9.7,59.1C1182.5,124.8,1176.6,133,1167.9,134.5z"/>
			<path fill="none" stroke="#FFFFFF" stroke-width="5" stroke-miterlimit="10" d="M1304.8,111.9l-37,6.1c-8.7,1.4-17-4.5-18.4-13.2
				l-9.7-59.1c-1.4-8.7,4.5-17,13.2-18.4l37-6.1c8.7-1.4,17,4.5,18.4,13.2l9.7,59.1C1319.4,102.2,1313.5,110.5,1304.8,111.9z"/>
			<path fill="none" stroke="#FFFFFF" stroke-width="5" stroke-miterlimit="10" d="M1373.4,100.7l-37,6.1c-8.7,1.4-17-4.5-18.4-13.2
				l-9.7-59.1c-1.4-8.7,4.5-17,13.2-18.4l37-6.1c8.7-1.4,17,4.5,18.4,13.2l9.7,59.1C1388,91,1382.1,99.2,1373.4,100.7z"/>
		</g>
		<g>
			<path fill="none" stroke="#FFFFFF" stroke-width="5" stroke-miterlimit="10" d="M1251.1,213.9l-37,6.1c-8.7,1.4-17-4.5-18.4-13.2
				l-9.7-59.1c-1.4-8.7,4.5-17,13.2-18.4l37-6.1c8.7-1.4,17,4.5,18.4,13.2l9.7,59.1C1265.8,204.2,1259.8,212.5,1251.1,213.9z"/>
			<path fill="none" stroke="#FFFFFF" stroke-width="5" stroke-miterlimit="10" d="M1182.8,225.2l-37,6.1c-8.7,1.4-17-4.5-18.4-13.2
				l-9.7-59.1c-1.4-8.7,4.5-17,13.2-18.4l37-6.1c8.7-1.4,17,4.5,18.4,13.2l9.7,59.1C1197.4,215.4,1191.5,223.7,1182.8,225.2z"/>
			<path fill="none" stroke="#FFFFFF" stroke-width="5" stroke-miterlimit="10" d="M1319.7,202.6l-37,6.1c-8.7,1.4-17-4.5-18.4-13.2
				l-9.7-59.1c-1.4-8.7,4.5-17,13.2-18.4l37-6.1c8.7-1.4,17,4.5,18.4,13.2l9.7,59.1C1334.3,192.9,1328.4,201.2,1319.7,202.6z"/>
			<path fill="none" stroke="#FFFFFF" stroke-width="5" stroke-miterlimit="10" d="M1388.3,191.3l-37,6.1c-8.7,1.4-17-4.5-18.4-13.2
				l-9.7-59.1c-1.4-8.7,4.5-17,13.2-18.4l37-6.1c8.7-1.4,17,4.5,18.4,13.2l9.7,59.1C1402.9,181.6,1397,189.9,1388.3,191.3z"/>
		</g>
		<g>
			<path fill="none" stroke="#FFFFFF" stroke-width="5" stroke-miterlimit="10" d="M1266.1,304.6l-37,6.1c-8.7,1.4-17-4.5-18.4-13.2
				l-9.7-59.1c-1.4-8.7,4.5-17,13.2-18.4l37-6.1c8.7-1.4,17,4.5,18.4,13.2l9.7,59.1C1280.7,294.9,1274.8,303.2,1266.1,304.6z"/>
			<path fill="none" stroke="#FFFFFF" stroke-width="5" stroke-miterlimit="10" d="M1197.7,315.8l-37,6.1c-8.7,1.4-17-4.5-18.4-13.2
				l-9.7-59.1c-1.4-8.7,4.5-17,13.2-18.4l37-6.1c8.7-1.4,17,4.5,18.4,13.2l9.7,59.1C1212.3,306.1,1206.4,314.4,1197.7,315.8z"/>
			<path fill="none" stroke="#FFFFFF" stroke-width="5" stroke-miterlimit="10" d="M1334.6,293.3l-37,6.1c-8.7,1.4-17-4.5-18.4-13.2
				l-9.7-59.1c-1.4-8.7,4.5-17,13.2-18.4l37-6.1c8.7-1.4,17,4.5,18.4,13.2l9.7,59.1C1349.3,283.6,1343.3,291.9,1334.6,293.3z"/>
			<path fill="none" stroke="#FFFFFF" stroke-width="5" stroke-miterlimit="10" d="M1403.2,282l-37,6.1c-8.7,1.4-17-4.5-18.4-13.2
				l-9.7-59.1c-1.4-8.7,4.5-17,13.2-18.4l37-6.1c8.7-1.4,17,4.5,18.4,13.2l9.7,59.1C1417.8,272.3,1411.9,280.6,1403.2,282z"/>
		</g>
		<g>
			<path fill="none" stroke="#FFFFFF" stroke-width="5" stroke-miterlimit="10" d="M1281.1,395.7l-37,6.1c-8.7,1.4-17-4.5-18.4-13.2
				l-9.7-59.1c-1.4-8.7,4.5-17,13.2-18.4l37-6.1c8.7-1.4,17,4.5,18.4,13.2l9.7,59.1C1295.7,386,1289.7,394.2,1281.1,395.7z"/>
			<path fill="none" stroke="#FFFFFF" stroke-width="5" stroke-miterlimit="10" d="M1212.7,406.9l-37,6.1c-8.7,1.4-17-4.5-18.4-13.2
				l-9.7-59.1c-1.4-8.7,4.5-17,13.2-18.4l37-6.1c8.7-1.4,17,4.5,18.4,13.2l9.7,59.1C1227.3,397.2,1221.4,405.5,1212.7,406.9z"/>
			<path fill="none" stroke="#FFFFFF" stroke-width="5" stroke-miterlimit="10" d="M1349.6,384.4l-37,6.1c-8.7,1.4-17-4.5-18.4-13.2
				l-9.7-59.1c-1.4-8.7,4.5-17,13.2-18.4l37-6.1c8.7-1.4,17,4.5,18.4,13.2l9.7,59.1C1364.2,374.7,1358.3,383,1349.6,384.4z"/>
			<path fill="none" stroke="#FFFFFF" stroke-width="5" stroke-miterlimit="10" d="M1418.2,373.1l-37,6.1c-8.7,1.4-17-4.5-18.4-13.2
				l-9.7-59.1c-1.4-8.7,4.5-17,13.2-18.4l37-6.1c8.7-1.4,17,4.5,18.4,13.2l9.7,59.1C1432.8,363.4,1426.9,371.7,1418.2,373.1z"/>
		</g>
		<g>
			<path fill="none" stroke="#FFFFFF" stroke-width="5" stroke-miterlimit="10" d="M1296,486.4l-37,6.1c-8.7,1.4-17-4.5-18.4-13.2
				l-9.7-59.1c-1.4-8.7,4.5-17,13.2-18.4l37-6.1c8.7-1.4,17,4.5,18.4,13.2l9.7,59.1C1310.6,476.7,1304.7,485,1296,486.4z"/>
			<path fill="none" stroke="#FFFFFF" stroke-width="5" stroke-miterlimit="10" d="M1227.6,497.6l-37,6.1c-8.7,1.4-17-4.5-18.4-13.2
				l-9.7-59.1c-1.4-8.7,4.5-17,13.2-18.4l37-6.1c8.7-1.4,17,4.5,18.4,13.2l9.7,59.1C1242.2,487.9,1236.3,496.2,1227.6,497.6z"/>
			<path fill="none" stroke="#FFFFFF" stroke-width="5" stroke-miterlimit="10" d="M1364.6,475.1l-37,6.1c-8.7,1.4-17-4.5-18.4-13.2
				l-9.7-59.1c-1.4-8.7,4.5-17,13.2-18.4l37-6.1c8.7-1.4,17,4.5,18.4,13.2l9.7,59.1C1379.2,465.4,1373.2,473.7,1364.6,475.1z"/>
			<path fill="none" stroke="#FFFFFF" stroke-width="5" stroke-miterlimit="10" d="M1433.1,463.8l-37,6.1c-8.7,1.4-17-4.5-18.4-13.2
				l-9.7-59.1c-1.4-8.7,4.5-17,13.2-18.4l37-6.1c8.7-1.4,17,4.5,18.4,13.2l9.7,59.1C1447.7,454.1,1441.8,462.4,1433.1,463.8z"/>
		</g>
		<g>
			<path fill="none" stroke="#FFFFFF" stroke-width="5" stroke-miterlimit="10" d="M1221.3,32.5l-37,6.1c-8.7,1.4-17-4.5-18.4-13.2
				l-9.7-59.1c-1.4-8.7,4.5-17,13.2-18.4l37-6.1c8.7-1.4,17,4.5,18.4,13.2l9.7,59.1C1235.9,22.8,1230,31.1,1221.3,32.5z"/>
			<path fill="none" stroke="#FFFFFF" stroke-width="5" stroke-miterlimit="10" d="M1152.9,43.7l-37,6.1c-8.7,1.4-17-4.5-18.4-13.2
				l-9.7-59.1c-1.4-8.7,4.5-17,13.2-18.4l37-6.1c8.7-1.4,17,4.5,18.4,13.2l9.7,59.1C1167.6,34,1161.6,42.3,1152.9,43.7z"/>
			<path fill="none" stroke="#FFFFFF" stroke-width="5" stroke-miterlimit="10" d="M1289.9,21.2l-37,6.1c-8.7,1.4-17-4.5-18.4-13.2
				l-9.7-59.1c-1.4-8.7,4.5-17,13.2-18.4l37-6.1c8.7-1.4,17,4.5,18.4,13.2l9.7,59.1C1304.5,11.5,1298.6,19.8,1289.9,21.2z"/>
			<path fill="none" stroke="#FFFFFF" stroke-width="5" stroke-miterlimit="10" d="M1358.4,9.9l-37,6.1c-8.7,1.4-17-4.5-18.4-13.2
				l-9.7-59.1c-1.4-8.7,4.5-17,13.2-18.4l37-6.1c8.7-1.4,17,4.5,18.4,13.2l9.7,59.1C1373.1,0.2,1367.1,8.5,1358.4,9.9z"/>
		</g>
	</g>
</g>
<g id="salziges">
	<path fill="#F9B233" d="M1578.2,776.2c19.1,41.9,119.5,50.8,145.3-7c12.8-28.6,17.1-75-25.8-88.4c-32.1-10-47.4,1.5-53.1,7.9
		c-1.8,2-4.7,2.6-7.2,1.5c-9.5-4.4-32.2-12.7-46.3-1.4C1575.2,701.7,1552.6,720.1,1578.2,776.2z M1679.7,694.8
		c29,0.1,26,32.1,23,46.9c-0.8,3.9-4.9,6-8.5,4.4l-31.1-13.6c-2.1-0.9-3.5-2.9-3.7-5.2C1658.8,718,1659.2,694.7,1679.7,694.8z
		 M1646.5,748.7c1.9-1.5,4.4-1.7,6.5-0.7l38.1,18.6c3.9,1.9,4.7,7.3,1.4,10.2c-36.5,31.5-64.4,13.9-75.3,4.1c-2.8-2.5-2.6-7,0.4-9.4
		L1646.5,748.7z M1608.7,704.2c19.9-4.7,25.5,17.9,27,27.1c0.4,2.3-0.6,4.5-2.4,5.9l-27.2,20.3c-3.2,2.4-7.7,1.2-9.3-2.4
		C1590.6,741.3,1580.5,710.8,1608.7,704.2z"/>
	<path fill="#F9B233" d="M1254.6,757.4c29.5,35.5,128.7,17.7,138.4-44.8c4.8-30.9-3.2-76.9-48-78.6c-33.6-1.3-45.4,13.9-49.2,21.5
		c-1.2,2.4-3.9,3.7-6.5,3.3c-10.4-1.7-34.4-3.8-45.1,10.8C1232.1,686.3,1215.2,710,1254.6,757.4z M1331.2,652.3
		c28-7.5,33.5,24.2,34.5,39.2c0.3,3.9-3.2,7.1-7.1,6.5l-33.6-5c-2.3-0.3-4.1-1.9-4.9-4.1C1317.1,680.2,1311.4,657.6,1331.2,652.3z
		 M1313.3,713c1.4-1.9,3.8-2.8,6.1-2.4l41.6,8c4.3,0.8,6.4,5.8,4,9.4c-27,40-58.5,30.3-71.6,23.7c-3.4-1.7-4.4-6.1-2.1-9.1
		L1313.3,713z M1265.2,679.9c18-9.7,29.3,10.6,33.2,19.1c0.9,2.1,0.7,4.5-0.8,6.3l-20.9,26.7c-2.4,3.1-7.1,3.1-9.6,0.1
		C1257.4,720.5,1239.7,693.8,1265.2,679.9z"/>
	<path fill="#F9B233" d="M1731.9,778.6c-27.7,36.9,12.6,129.3,75.7,124.2c31.2-2.5,74-20.9,65.3-65c-6.6-33-24-40.9-32.3-42.8
		c-2.6-0.6-4.5-2.9-4.7-5.6c-0.7-10.5-4.2-34.3-21-41.3C1795.8,740.2,1768.8,729.3,1731.9,778.6z M1851.9,828.8
		c13.8,25.5-15.7,38.2-30.2,42.7c-3.8,1.2-7.6-1.4-8-5.3l-2.9-33.8c-0.2-2.3,0.9-4.5,2.8-5.7
		C1821.5,821.5,1842.2,810.7,1851.9,828.8z M1788.7,825.4c2.2,0.9,3.6,3,3.7,5.4l1.9,42.4c0.2,4.4-4.2,7.6-8.3,6.1
		c-45.2-16.9-43-49.9-39.6-64.2c0.9-3.7,4.9-5.7,8.4-4.2L1788.7,825.4z M1809.7,770.9c13.6,15.2-3.5,31-10.9,36.7
		c-1.8,1.4-4.3,1.7-6.3,0.7l-30.8-14.2c-3.6-1.6-4.7-6.2-2.3-9.3C1768.4,772.8,1790.3,749.3,1809.7,770.9z"/>
	<path fill="#F9B233" d="M1569.5,822.4c16.4-43.1-47.9-120.7-107.1-98.5c-29.3,11-65.4,40.6-44.8,80.5
		c15.4,29.9,34.4,32.7,42.9,32.2c2.7-0.2,5.2,1.5,6.1,4.1c3.6,9.9,13.6,31.8,31.6,33.9C1518.6,877,1547.6,880.1,1569.5,822.4z
		 M1440.3,807.5c-20.3-20.7,4.6-41,17.2-49.4c3.3-2.2,7.7-0.7,9.1,2.9l12.1,31.7c0.8,2.1,0.4,4.6-1.1,6.3
		C1471.4,806,1454.6,822.1,1440.3,807.5z M1501.9,793.2c-2.3-0.3-4.3-1.9-5.1-4.1l-13.5-40.2c-1.4-4.2,1.9-8.4,6.3-8.1
		c48.1,3.8,55.1,36.1,55.8,50.7c0.2,3.8-3.1,6.8-6.9,6.3L1501.9,793.2z M1496.8,851.4c-17.3-10.9-5.2-30.7,0.3-38.3
		c1.4-1.8,3.6-2.8,5.9-2.4l33.5,5.1c3.9,0.6,6.2,4.6,4.8,8.3C1535.9,838.2,1521.4,866.8,1496.8,851.4z"/>
	<path fill="#F9B233" d="M1583.5,651.9c16.4-43.1-47.7-120.8-107-98.6c-29.3,11-65.4,40.5-44.9,80.4c15.4,29.9,34.4,32.7,42.9,32.3
		c2.7-0.1,5.2,1.5,6.1,4.1c3.6,9.9,13.5,31.8,31.6,34C1532.6,706.4,1561.5,709.5,1583.5,651.9z M1454.3,636.7
		c-20.3-20.7,4.6-41,17.2-49.3c3.3-2.2,7.7-0.7,9.1,2.9l12.1,31.7c0.8,2.1,0.4,4.6-1.1,6.3C1485.5,635.3,1468.6,651.4,1454.3,636.7z
		 M1515.9,622.5c-2.3-0.3-4.3-1.9-5.1-4.2l-13.5-40.2c-1.4-4.2,1.9-8.4,6.3-8.1c48.1,3.9,55.1,36.1,55.8,50.8
		c0.2,3.8-3.2,6.8-6.9,6.3L1515.9,622.5z M1510.8,680.7c-17.3-10.9-5.2-30.8,0.4-38.3c1.4-1.8,3.6-2.8,5.9-2.4l33.5,5.1
		c3.9,0.6,6.2,4.6,4.8,8.3C1550,667.6,1535.4,696.2,1510.8,680.7z"/>
</g>
<g id="süßes">
	<path fill="#F9B233" d="M1535.4,1198.2c3.1-2.1,3.5-5.4,0.8-8.2c-0.7-0.7-0.9-1.1-0.1-1.9c2.6-2.7,2.5-5.1-0.2-7.9
		c-0.6-0.6-0.5-0.9,0-1.5c2.7-2.8,2.7-5.1,0.1-7.9c-0.7-0.7-0.7-1.1,0-1.8c2.6-2.6,2.6-5.4-0.1-7.9c-0.6-0.5-0.8-0.7-0.1-1.4
		c2.8-2.9,2.8-5.1,0-8.2c-0.4-0.5-0.7-0.7-0.1-1.3c2.9-3,2.9-5.2,0.1-8.1c-0.5-0.6-0.7-0.8,0-1.5c2.7-2.7,2.8-5.3,0.1-8
		c-0.4-0.4-0.5-0.6-0.5-0.9l0,0c-0.1-0.4,0.3-0.8,0.7-1.2c2.3-2.4,2.3-5.3-0.1-7.5c-1-0.9-0.6-1.3,0.1-2c2.4-2.5,2.3-5.9-0.5-7.8
		c-1.1-0.8-1.3-1.2-0.4-2.4c3-4.1,3.6-8.6,1.3-13.1l0,0c-1.2-2.5-3.3-4.5-6.2-5.7c-4.6-2-9-1.3-13,1.9c-0.9,0.8-1.2,0.4-1.7-0.4
		c-2.1-3.1-5.4-3.5-8.2-0.8c-0.7,0.7-1.1,0.9-1.9,0.1c-2.7-2.6-5.1-2.5-7.9,0.2c-0.6,0.6-0.9,0.5-1.5,0c-2.8-2.7-5.1-2.7-7.9-0.1
		c-0.7,0.7-1.1,0.7-1.8,0c-2.6-2.6-5.4-2.6-7.9,0.1c-0.5,0.6-0.7,0.8-1.4,0.1c-0.3-0.2-0.5-0.5-0.7-0.7c-2.1-2.2-5-2.2-7.4,0.2
		c-0.5,0.5-0.8,0.8-1.3,0.6c0,0,0,0-0.1-0.1c-0.7-0.6-1.3-1.1-1.9-1.5c-2.1-1.4-4.2-1-6.5,1.3c-0.4,0.4-0.6,0.5-0.9,0.4
		c-0.1-0.1-0.2-0.1-0.3-0.2c-0.6-0.7-1.3-1.1-1.9-1.5c-2.1-1.3-4-0.9-6.3,1.2c-0.7,0.7-1.1,0.7-1.8,0c-2.6-2.6-5.4-2.6-7.9,0.1
		c-0.5,0.6-0.7,0.8-1.4,0.1c-2.9-2.8-5.1-2.8-8.2,0c-0.5,0.4-0.7,0.7-1.3,0.1c-3-2.9-5.2-2.9-8.1-0.1c-0.6,0.5-0.8,0.7-1.5,0
		c-2.7-2.7-5.3-2.8-8-0.1c-0.4,0.4-0.6,0.5-0.9,0.5l0,0c-0.4,0.1-0.8-0.3-1.2-0.7c-2.4-2.3-5.3-2.3-7.5,0.1c-0.9,1-1.3,0.6-2-0.1
		c-2.5-2.4-5.9-2.3-7.8,0.5c-0.8,1.1-1.2,1.3-2.4,0.4c-4.1-3-8.6-3.6-13.2-1.2c-2.6,1.3-4.8,3-6,5.4l0,0c0,0,0,0,0,0.1v0.1
		c-0.7,1.4-1.1,3-1.1,4.9c0,0.2,0,0.4,0,0.7c0.1,2.6,1.1,5,3,7.3c0.8,0.9,0.4,1.2-0.4,1.7c-3.1,2.1-3.5,5.4-0.8,8.2
		c0.7,0.7,0.9,1.1,0.1,1.9c-2.6,2.7-2.5,5.1,0.2,7.9c0.6,0.6,0.5,0.9,0,1.5c-2.7,2.8-2.7,5.1-0.1,7.9c0.7,0.7,0.7,1.1,0,1.8
		c-2.6,2.6-2.6,5.4,0.1,7.9c0.6,0.5,0.8,0.7,0.1,1.4c-2.8,2.9-2.8,5.1,0,8.2c0.4,0.5,0.7,0.7,0.1,1.3c-2.9,3-2.9,5.2-0.1,8.1
		c0.5,0.6,0.7,0.8,0,1.5c-2.7,2.7-2.8,5.3-0.1,8c0.4,0.4,0.5,0.6,0.5,0.9l0,0c0.1,0.4-0.3,0.8-0.7,1.2c-2.3,2.4-2.3,5.3,0.1,7.5
		c1,0.9,0.6,1.3-0.1,2c-2.4,2.5-2.3,5.9,0.5,7.8c1.1,0.8,1.3,1.2,0.4,2.4c-3,4.1-3.6,8.6-1.3,13.1l0,0c1.2,2.8,3.3,4.9,6.4,6.3
		c4.6,2,9,1.3,13-1.9c0.9-0.8,1.2-0.4,1.7,0.4c2.1,3.1,5.4,3.5,8.2,0.8c0.7-0.7,1.1-0.9,1.9-0.1c2.7,2.6,5.1,2.5,7.9-0.2
		c0.6-0.6,0.9-0.5,1.5,0c2.8,2.7,5.1,2.7,7.9,0.1c0.7-0.7,1.1-0.7,1.8,0c2.6,2.6,5.4,2.6,7.9-0.1c0.5-0.6,0.7-0.8,1.4-0.1
		c0.3,0.2,0.5,0.5,0.7,0.7c2.1,2.2,5,2.2,7.4-0.2c0.5-0.5,0.8-0.8,1.3-0.6c0,0,0,0,0.1,0.1c0.7,0.6,1.3,1.1,1.9,1.5
		c2.1,1.4,4.2,1,6.5-1.3c0.4-0.4,0.6-0.5,0.9-0.4c0.1,0.1,0.2,0.1,0.3,0.2c0.6,0.7,1.3,1.1,1.9,1.5c2.1,1.3,4,0.9,6.3-1.2
		c0.7-0.7,1.1-0.7,1.8,0c2.6,2.6,5.4,2.6,7.9-0.1c0.5-0.6,0.7-0.8,1.4-0.1c2.9,2.8,5.1,2.8,8.2,0c0.5-0.4,0.7-0.7,1.3-0.1
		c3,2.9,5.2,2.9,8.1,0.1c0.6-0.5,0.8-0.7,1.5,0c2.7,2.7,5.3,2.8,8,0.1c0.4-0.4,0.6-0.5,0.9-0.5l0,0c0.4-0.1,0.8,0.3,1.2,0.7
		c2.4,2.3,5.3,2.3,7.5-0.1c0.9-1,1.3-0.6,2,0.1c2.5,2.4,5.9,2.3,7.8-0.5c0.8-1.1,1.2-1.3,2.4-0.4c4.1,3,8.6,3.6,13.2,1.2
		c3.2-1.7,5.4-4.1,6.3-7.4c1.3-4.1,0.4-8-2.4-11.5C1534.3,1198.9,1534.6,1198.7,1535.4,1198.2z"/>
	<path fill="#F9B233" d="M1631,1085.1c3.7-0.7,5.3-3.6,3.9-7.2c-0.4-0.9-0.4-1.4,0.7-1.8c3.4-1.4,4.3-3.7,2.9-7.3
		c-0.3-0.8-0.1-1,0.6-1.3c3.6-1.5,4.5-3.6,3.1-7.2c-0.4-0.9-0.2-1.3,0.7-1.6c3.4-1.4,4.5-3.9,3-7.3c-0.3-0.7-0.4-1,0.4-1.3
		c3.8-1.6,4.6-3.6,3.2-7.5c-0.2-0.6-0.3-0.9,0.5-1.3c3.9-1.6,4.7-3.6,3.3-7.4c-0.3-0.7-0.3-1,0.6-1.4c3.6-1.4,4.6-3.8,3.2-7.3
		c-0.2-0.5-0.3-0.8-0.1-1l0,0c0.1-0.4,0.6-0.6,1.1-0.8c3-1.3,4.2-3.9,2.8-6.9c-0.6-1.2-0.1-1.4,0.9-1.8c3.2-1.3,4.4-4.5,2.6-7.4
		c-0.7-1.2-0.7-1.6,0.6-2.3c4.3-2.6,6.6-6.5,6.3-11.5l0,0c-0.1-2.8-1.2-5.4-3.4-7.7c-3.4-3.6-7.8-4.7-12.7-3.3
		c-1.2,0.3-1.2-0.1-1.4-1c-0.7-3.7-3.6-5.3-7.2-3.9c-0.9,0.4-1.4,0.4-1.8-0.7c-1.4-3.4-3.7-4.3-7.3-2.9c-0.8,0.3-1,0.1-1.3-0.6
		c-1.5-3.6-3.6-4.5-7.2-3.1c-0.9,0.4-1.3,0.2-1.6-0.7c-1.4-3.4-3.9-4.5-7.3-3c-0.7,0.3-1,0.4-1.3-0.4c-0.1-0.3-0.3-0.6-0.4-0.9
		c-1.1-2.8-3.7-3.9-6.9-2.7c-0.7,0.3-1.1,0.4-1.4,0v-0.1c-0.4-0.9-0.7-1.6-1.2-2.1c-1.4-2.1-3.5-2.5-6.5-1.4c-0.5,0.2-0.8,0.2-1,0
		c0-0.1-0.1-0.2-0.1-0.3c-0.3-0.9-0.7-1.6-1.2-2.1c-1.4-2-3.3-2.4-6.2-1.3c-0.9,0.4-1.3,0.2-1.6-0.7c-1.4-3.4-3.9-4.5-7.3-3
		c-0.7,0.3-1,0.4-1.3-0.4c-1.6-3.8-3.6-4.6-7.5-3.2c-0.6,0.2-0.9,0.3-1.3-0.5c-1.6-3.9-3.6-4.7-7.4-3.3c-0.7,0.3-1,0.3-1.4-0.6
		c-1.4-3.6-3.8-4.6-7.3-3.2c-0.5,0.2-0.8,0.3-1,0.1l0,0c-0.4-0.1-0.6-0.6-0.8-1.1c-1.3-3-3.9-4.2-6.9-2.8c-1.2,0.6-1.4,0.1-1.8-0.9
		c-1.3-3.2-4.5-4.4-7.4-2.6c-1.2,0.7-1.6,0.7-2.3-0.6c-2.6-4.3-6.5-6.7-11.7-6.3c-2.9,0.2-5.6,0.9-7.6,2.6l0,0l0,0c0,0,0,0-0.1,0.1
		c-1.2,1-2.2,2.3-2.9,4.1c-0.1,0.2-0.2,0.4-0.2,0.6c-0.9,2.4-0.9,5.1-0.1,7.9c0.3,1.2-0.1,1.2-1,1.4c-3.7,0.7-5.3,3.6-3.9,7.2
		c0.4,0.9,0.4,1.4-0.7,1.8c-3.4,1.4-4.3,3.7-2.9,7.3c0.3,0.8,0.1,1-0.6,1.3c-3.6,1.5-4.5,3.6-3.1,7.2c0.4,0.9,0.2,1.3-0.7,1.6
		c-3.4,1.4-4.5,3.9-3,7.3c0.3,0.7,0.4,1-0.4,1.3c-3.8,1.6-4.6,3.6-3.2,7.5c0.2,0.6,0.3,0.9-0.5,1.3c-3.9,1.6-4.7,3.6-3.3,7.4
		c0.3,0.7,0.3,1-0.6,1.4c-3.6,1.4-4.6,3.8-3.2,7.3c0.2,0.5,0.3,0.8,0.1,1l0,0c-0.1,0.4-0.6,0.6-1.1,0.8c-3,1.3-4.2,3.9-2.8,6.9
		c0.6,1.2,0.1,1.4-0.9,1.8c-3.2,1.3-4.4,4.5-2.6,7.4c0.7,1.2,0.7,1.6-0.6,2.3c-4.3,2.6-6.6,6.5-6.3,11.5l0,0c0,3,1.1,5.8,3.5,8.3
		c3.4,3.6,7.8,4.7,12.7,3.3c1.2-0.3,1.2,0.1,1.4,1c0.7,3.7,3.6,5.3,7.2,3.9c0.9-0.4,1.4-0.4,1.8,0.7c1.4,3.4,3.7,4.3,7.3,2.9
		c0.8-0.3,1-0.1,1.3,0.6c1.5,3.6,3.6,4.5,7.2,3.1c0.9-0.4,1.3-0.2,1.6,0.7c1.4,3.4,3.9,4.5,7.3,3c0.7-0.3,1-0.4,1.3,0.4
		c0.1,0.3,0.3,0.6,0.4,0.9c1.1,2.8,3.7,3.9,6.9,2.7c0.7-0.3,1.1-0.4,1.4,0v0.1c0.4,0.9,0.7,1.6,1.2,2.1c1.4,2.1,3.5,2.5,6.5,1.4
		c0.5-0.2,0.8-0.2,1,0c0,0.1,0.1,0.2,0.1,0.3c0.3,0.9,0.7,1.6,1.2,2.1c1.4,2,3.3,2.4,6.2,1.3c0.9-0.4,1.3-0.2,1.6,0.7
		c1.4,3.4,3.9,4.5,7.3,3c0.7-0.3,1-0.4,1.3,0.4c1.6,3.8,3.6,4.6,7.5,3.2c0.6-0.2,0.9-0.3,1.3,0.5c1.6,3.9,3.6,4.7,7.4,3.3
		c0.7-0.3,1-0.3,1.4,0.6c1.4,3.6,3.8,4.6,7.3,3.2c0.5-0.2,0.8-0.3,1-0.1l0,0c0.4,0.1,0.6,0.6,0.8,1.1c1.3,3,3.9,4.2,6.9,2.8
		c1.2-0.6,1.4-0.1,1.8,0.9c1.3,3.2,4.5,4.4,7.4,2.6c1.2-0.7,1.6-0.7,2.3,0.6c2.6,4.3,6.5,6.7,11.7,6.3c3.6-0.3,6.6-1.7,8.7-4.3
		c2.8-3.2,3.5-7.2,2.3-11.6C1629.6,1085.3,1630.1,1085.3,1631,1085.1z"/>
	<path fill="#F9B233" d="M1722.7,1258.9c3.5-1.3,4.6-4.5,2.6-7.8c-0.5-0.8-0.7-1.3,0.3-1.9c3.2-2,3.6-4.4,1.6-7.7
		c-0.5-0.8-0.3-1,0.4-1.4c3.3-2.1,3.8-4.3,1.9-7.6c-0.5-0.9-0.4-1.2,0.4-1.7c3.1-2,3.8-4.7,1.7-7.7c-0.4-0.7-0.6-0.9,0.2-1.4
		c3.4-2.2,3.9-4.4,1.9-7.9c-0.3-0.6-0.5-0.8,0.3-1.3c3.5-2.3,4-4.4,2-7.9c-0.4-0.7-0.5-1,0.3-1.4c3.3-2,3.9-4.6,1.9-7.8
		c-0.3-0.5-0.4-0.7-0.3-1l0,0c0-0.4,0.5-0.7,1-1c2.8-1.8,3.5-4.6,1.6-7.3c-0.8-1.1-0.3-1.4,0.5-1.9c2.9-1.8,3.5-5.2,1.3-7.8
		c-0.9-1.1-1-1.4,0.2-2.4c3.8-3.3,5.4-7.5,4.2-12.5l0,0c-0.6-2.7-2.2-5.1-4.7-7c-4-3-8.5-3.3-13.1-1.1c-1.1,0.5-1.2,0.1-1.5-0.7
		c-1.3-3.5-4.5-4.6-7.8-2.6c-0.8,0.5-1.3,0.7-1.9-0.3c-2-3.2-4.4-3.6-7.7-1.6c-0.8,0.5-1,0.3-1.4-0.4c-2.1-3.3-4.3-3.8-7.6-1.9
		c-0.9,0.5-1.2,0.4-1.7-0.4c-2-3.1-4.7-3.7-7.7-1.7c-0.7,0.4-0.9,0.6-1.4-0.2c-0.2-0.3-0.4-0.6-0.6-0.8c-1.5-2.6-4.3-3.2-7.2-1.5
		c-0.6,0.4-1,0.6-1.4,0.2c0,0,0-0.1-0.1-0.1c-0.5-0.8-1-1.4-1.5-1.9c-1.8-1.9-3.9-1.9-6.6-0.2c-0.5,0.3-0.7,0.3-1,0.2
		c-0.1-0.1-0.1-0.2-0.2-0.3c-0.5-0.8-1-1.4-1.5-1.9c-1.7-1.8-3.7-1.8-6.4-0.2c-0.9,0.5-1.2,0.4-1.7-0.4c-2-3.1-4.7-3.8-7.7-1.7
		c-0.7,0.4-0.9,0.6-1.4-0.2c-2.2-3.4-4.4-3.9-7.9-1.9c-0.6,0.3-0.8,0.5-1.3-0.3c-2.3-3.5-4.4-4-7.9-2c-0.7,0.4-1,0.5-1.4-0.3
		c-2-3.3-4.6-3.9-7.8-1.9c-0.5,0.3-0.7,0.4-1,0.3l0,0c-0.4,0-0.7-0.5-1-1c-1.8-2.8-4.6-3.5-7.3-1.6c-1.1,0.8-1.4,0.3-1.9-0.5
		c-1.8-2.9-5.2-3.5-7.8-1.3c-1.1,0.9-1.4,1-2.4-0.2c-3.3-3.8-7.6-5.4-12.6-4.2c-2.8,0.7-5.3,1.9-7.1,3.9l0,0l0,0c0,0,0,0.1-0.1,0.1
		c-1,1.2-1.7,2.7-2.2,4.5c-0.1,0.2-0.1,0.4-0.1,0.7c-0.5,2.5,0,5.2,1.2,7.8c0.5,1.1,0.1,1.2-0.7,1.5c-3.5,1.3-4.6,4.5-2.6,7.8
		c0.5,0.8,0.7,1.3-0.3,1.9c-3.2,2-3.6,4.4-1.6,7.7c0.5,0.8,0.3,1-0.4,1.4c-3.3,2.1-3.8,4.3-1.9,7.6c0.5,0.9,0.4,1.2-0.4,1.7
		c-3.1,2-3.7,4.7-1.7,7.7c0.4,0.7,0.6,0.9-0.2,1.4c-3.4,2.2-3.9,4.4-1.9,7.9c0.3,0.6,0.5,0.8-0.3,1.3c-3.5,2.3-4,4.4-2,7.9
		c0.4,0.7,0.5,1-0.3,1.4c-3.3,2-3.9,4.6-1.9,7.8c0.3,0.5,0.4,0.7,0.3,1l0,0c0,0.4-0.5,0.7-1,1c-2.8,1.8-3.5,4.6-1.6,7.3
		c0.8,1.1,0.3,1.4-0.5,1.9c-2.9,1.8-3.5,5.2-1.3,7.8c0.9,1.1,1,1.4-0.2,2.4c-3.8,3.3-5.4,7.5-4.2,12.5l0,0c0.5,2.9,2.1,5.5,4.8,7.6
		c4,3,8.5,3.3,13.1,1.1c1.1-0.5,1.2-0.1,1.5,0.7c1.3,3.5,4.5,4.6,7.8,2.6c0.8-0.5,1.3-0.7,1.9,0.3c2,3.2,4.4,3.6,7.7,1.6
		c0.8-0.5,1-0.3,1.4,0.4c2.1,3.3,4.3,3.8,7.6,1.9c0.9-0.5,1.2-0.4,1.7,0.4c2,3.1,4.7,3.7,7.7,1.7c0.7-0.4,0.9-0.6,1.4,0.2
		c0.2,0.3,0.4,0.6,0.6,0.8c1.5,2.6,4.3,3.2,7.2,1.5c0.6-0.4,1-0.6,1.4-0.2c0,0,0,0,0.1,0.1c0.5,0.8,1,1.4,1.5,1.9
		c1.8,1.9,3.9,1.9,6.6,0.2c0.5-0.3,0.7-0.3,1-0.2c0.1,0.1,0.1,0.2,0.2,0.3c0.5,0.8,1,1.4,1.5,1.9c1.7,1.8,3.7,1.8,6.4,0.2
		c0.9-0.5,1.2-0.4,1.7,0.4c2,3.1,4.7,3.7,7.7,1.7c0.7-0.4,0.9-0.6,1.4,0.2c2.2,3.4,4.4,3.9,7.9,1.9c0.6-0.3,0.8-0.5,1.3,0.3
		c2.3,3.5,4.4,4,7.9,2c0.7-0.4,1-0.5,1.4,0.3c2,3.3,4.6,3.9,7.8,1.9c0.5-0.3,0.7-0.4,1-0.3l0,0c0.4,0,0.7,0.5,1,1
		c1.8,2.8,4.6,3.5,7.3,1.6c1.1-0.8,1.4-0.3,1.9,0.5c1.8,2.9,5.2,3.5,7.8,1.3c1.1-0.9,1.4-0.9,2.4,0.2c3.3,3.8,7.6,5.4,12.6,4.2
		c3.5-0.9,6.2-2.8,7.8-5.8c2.2-3.7,2.2-7.7,0.3-11.8C1721.4,1259.3,1721.8,1259.2,1722.7,1258.9z"/>
</g>
</svg>
