<?xml version="1.0" encoding="utf-8"?>
<!-- Generator: Adobe Illustrator 18.0.0, SVG Export Plug-In . SVG Version: 6.00 Build 0)  -->
<!DOCTYPE svg PUBLIC "-//W3C//DTD SVG 1.1//EN" "http://www.w3.org/Graphics/SVG/1.1/DTD/svg11.dtd" [
	<!ENTITY ns_flows "http://ns.adobe.com/Flows/1.0/">
	<!ENTITY ns_extend "http://ns.adobe.com/Extensibility/1.0/">
	<!ENTITY ns_ai "http://ns.adobe.com/AdobeIllustrator/10.0/">
	<!ENTITY ns_graphs "http://ns.adobe.com/Graphs/1.0/">
	<!ENTITY ns_vars "http://ns.adobe.com/Variables/1.0/">
	<!ENTITY ns_imrep "http://ns.adobe.com/ImageReplacement/1.0/">
	<!ENTITY ns_sfw "http://ns.adobe.com/SaveForWeb/1.0/">
	<!ENTITY ns_custom "http://ns.adobe.com/GenericCustomNamespace/1.0/">
	<!ENTITY ns_adobe_xpath "http://ns.adobe.com/XPath/1.0/">
]>
<svg version="1.1" xmlns:x="&ns_extend;" xmlns:i="&ns_ai;" xmlns:graph="&ns_graphs;"
	 xmlns="http://www.w3.org/2000/svg" xmlns:xlink="http://www.w3.org/1999/xlink" xmlns:a="http://ns.adobe.com/AdobeSVGViewerExtensions/3.0/"
	 x="0px" y="0px" viewBox="400.3 5.2 52.6 590.1" enable-background="new 400.3 5.2 52.6 590.1" xml:space="preserve">
<metadata><?xpacket begin="﻿" id="W5M0MpCehiHzreSzNTczkc9d"?>
<x:xmpmeta xmlns:x="adobe:ns:meta/" x:xmptk="Adobe XMP Core 5.6-c011 79.156289, 2014/03/31-23:39:12        ">
   <rdf:RDF xmlns:rdf="http://www.w3.org/1999/02/22-rdf-syntax-ns#">
      <rdf:Description rdf:about=""
            xmlns:xmp="http://ns.adobe.com/xap/1.0/"
            xmlns:xmpGImg="http://ns.adobe.com/xap/1.0/g/img/"
            xmlns:xmpTPg="http://ns.adobe.com/xap/1.0/t/pg/"
            xmlns:stDim="http://ns.adobe.com/xap/1.0/sType/Dimensions#"
            xmlns:xmpG="http://ns.adobe.com/xap/1.0/g/"
            xmlns:dc="http://purl.org/dc/elements/1.1/"
            xmlns:xmpMM="http://ns.adobe.com/xap/1.0/mm/"
            xmlns:stRef="http://ns.adobe.com/xap/1.0/sType/ResourceRef#"
            xmlns:stEvt="http://ns.adobe.com/xap/1.0/sType/ResourceEvent#">
         <xmp:CreatorTool>Adobe Illustrator CC 2014 (Macintosh)</xmp:CreatorTool>
         <xmp:CreateDate>2016-06-02T15:20:07+02:00</xmp:CreateDate>
         <xmp:MetadataDate>2016-06-02T15:20:07+02:00</xmp:MetadataDate>
         <xmp:ModifyDate>2016-06-02T15:20:07+02:00</xmp:ModifyDate>
         <xmp:Thumbnails>
            <rdf:Alt>
               <rdf:li rdf:parseType="Resource">
                  <xmpGImg:width>24</xmpGImg:width>
                  <xmpGImg:height>256</xmpGImg:height>
                  <xmpGImg:format>JPEG</xmpGImg:format>
                  <xmpGImg:image>/9j/4AAQSkZJRgABAgEASABIAAD/7QAsUGhvdG9zaG9wIDMuMAA4QklNA+0AAAAAABAASAAAAAEA&#xA;AQBIAAAAAQAB/+4ADkFkb2JlAGTAAAAAAf/bAIQABgQEBAUEBgUFBgkGBQYJCwgGBggLDAoKCwoK&#xA;DBAMDAwMDAwQDA4PEA8ODBMTFBQTExwbGxscHx8fHx8fHx8fHwEHBwcNDA0YEBAYGhURFRofHx8f&#xA;Hx8fHx8fHx8fHx8fHx8fHx8fHx8fHx8fHx8fHx8fHx8fHx8fHx8fHx8fHx8f/8AAEQgBAAAYAwER&#xA;AAIRAQMRAf/EAaIAAAAHAQEBAQEAAAAAAAAAAAQFAwIGAQAHCAkKCwEAAgIDAQEBAQEAAAAAAAAA&#xA;AQACAwQFBgcICQoLEAACAQMDAgQCBgcDBAIGAnMBAgMRBAAFIRIxQVEGE2EicYEUMpGhBxWxQiPB&#xA;UtHhMxZi8CRygvElQzRTkqKyY3PCNUQnk6OzNhdUZHTD0uIIJoMJChgZhJRFRqS0VtNVKBry4/PE&#xA;1OT0ZXWFlaW1xdXl9WZ2hpamtsbW5vY3R1dnd4eXp7fH1+f3OEhYaHiImKi4yNjo+Ck5SVlpeYmZ&#xA;qbnJ2en5KjpKWmp6ipqqusra6voRAAICAQIDBQUEBQYECAMDbQEAAhEDBCESMUEFURNhIgZxgZEy&#xA;obHwFMHR4SNCFVJicvEzJDRDghaSUyWiY7LCB3PSNeJEgxdUkwgJChgZJjZFGidkdFU38qOzwygp&#xA;0+PzhJSktMTU5PRldYWVpbXF1eX1RlZmdoaWprbG1ub2R1dnd4eXp7fH1+f3OEhYaHiImKi4yNjo&#xA;+DlJWWl5iZmpucnZ6fkqOkpaanqKmqq6ytrq+v/aAAwDAQACEQMRAD8A9U4q7FXYq7FXYq7FXYq7&#xA;FXYq7FXYq7FXYq7FXYq7FXYq7FXYq7FXYq7FXYq7FXYq7FXYq7FXYq7FXYq7FXYq7FXYq7FXYq7F&#xA;XYq7FXYq7FXYq7FXYq7FXYq7FXYq7FXYq7FXYq7FXYq7FXYq7FXYq7FXmX/Qxn5X/wDLZcf9I0n9&#xA;Mz/5Ny932tXjRd/0MZ+V/wDy2XH/AEjSf0x/k3L3favjRRGm/n5+XGo6ja6fa3c7XN5NHbwKbeQA&#xA;ySsEUEkbbnIy7PyxBJHJIyxL5AzpHDeg6FpWgaf5KbU9Vs/Ve9ZkeS4RkZV4v6YtyUapb4WDKw36&#xA;7Kc43X6vU5td4WGdCFfSbs2L4/V03FEH5l3Wnw44afjmPq7/ALOHb8fBjXkT/lOPL3/bTs/+ohM6&#xA;3P8A3cvcXTx5hK7CymvbuO1hoHkP2mNFUAVZmIrsqgk4NRnjigZy5D8V8eSceMzkAHrcujfWtBtt&#xA;D1AvJIttFCt3bDiAvqD0iY5fRpyFsicn26UNWOecw1vh6iWox0Bxk8Mvd6t48XLjMqjv3j0vSnBx&#xA;Yxjl3AWPftsa/mgWf0sE8tWUVj+ZekWcMwuY7fWLWJZwKB+NygrSp/XnfY85y6bjkOEyhdd1h53J&#xA;AQyGIN0WP6ff3en3sN7aSGK5gYPE43oR7HMjUaeGaBxzFxlzYY8koSEo8w9G8rO+vwXeqi/kttaF&#xA;IJzBIbeO3tgBxcRqjKyD42bkRuKbE1zie1YjRyjh4BLB9Q4hxGUuosmweQFA7G9wKd5pD4wM+Ksn&#xA;Lbah+LLDvIhJ88eXidydTs/+ohM7fP8A3cv6p+50UeYSvT9Pu9QvIrO0jMk8zBEUeLGgqfmcnOYi&#xA;LPJEYkmgyW88i21rpkN1F5m0ye4uCUeyiafmpBIox9LjSq9WoOhBoa5qP5b05O7vo+zOvN1jOw8v&#xA;wUL5S0+8sPzA8v213EYpRqVi1CQQVadGVlYEqysDUMDQ5scmSM8RlE2DEulljlCfDIVIHcFZ5D1X&#xA;TtM8xxXGokizkimt5mUAlVuIzEW3/lD8voyOtxHJilEdWekzeFljP+bIH5FEjT9PVYGn1iziEqLI&#xA;6/v3ZA3ZgkTAsB2UnOPj2LqT0r4vqeT2x0Mboyl7hz+dKmhX6Xf5i+WxG6yQWt9YW8EiBgGVJ0q3&#xA;xhW+JiTuB8s6jTac4dLwHnwl837U1kdTqpZY3wyO1sVt1VriJWFVZ1BHsTmflNRJHc66I3D6gfyF&#xA;5J9Nf9w9nuWqfRh/nA8fDb+3PKT2rqq/vZ/Pz971Q0uK/oHy8vc+d/In/KceXv8Atp2f/UQmeqZ/&#xA;7uXuLyseYSi0/wB6of8AXX9Yw5voPuKw+oPr1zFwX4l6tT/kYv8AkZ41Iih+Oo8nshd/ju975Z8i&#xA;f8px5e/7adn/ANRCZ7Jn/u5e4vGx5hJFDFgF+1Xanjk5yEYknkE4scpyEYi5SND3lksuv+Ylt1b/&#xA;ABBqTSUPqx+vPxWnQci3xV9s46GqjKQAxYakdthfx7vxT38vZ6EBPjlnHhxsnoT3R23/ABdIbyKC&#xA;PPHl4Hr+k7P/AKiEzrMshLESOXCfueBMDCfDIUQUlg/v4/8AWH68hrv7if8AUl9zm9kf45h/4ZD/&#xA;AHQTjPOn3RV8mf8AKf6D/wBtW0/6iEzvdN/iY/qfofEe2v8AHsv/AAw/ekduCZ4wNyXWg+nMjXf3&#xA;E/6kvuaOyP8AHMP/AAyH+6CcAEmg3J6DPOX3VW8no6fmDoSOpVl1W0BUihB+sJ2zvdIQdGCP5n6H&#xA;xDtn/Hsv/DD96S6fdmzv7a8C8zbSpMEJpX02DUr70zL1eDxsM8d1xxMb94p12DL4eSM+fCQfkz1f&#xA;zXtmHKXSj6qj4SJQ246blARnBT9h8gNRyjh/q1+kvUw9pY0bgR8f7GP+Vr6S/wDzH0a9kUI9xq9r&#xA;Iyr0Ba5Q0Fc7bFpRp9L4QNiEK+x5rPnOXKZkVxF//9k=</xmpGImg:image>
               </rdf:li>
            </rdf:Alt>
         </xmp:Thumbnails>
         <xmpTPg:MaxPageSize rdf:parseType="Resource">
            <stDim:w>18.549937</stDim:w>
            <stDim:h>208.162547</stDim:h>
            <stDim:unit>Millimeters</stDim:unit>
         </xmpTPg:MaxPageSize>
         <xmpTPg:NPages>1</xmpTPg:NPages>
         <xmpTPg:HasVisibleTransparency>True</xmpTPg:HasVisibleTransparency>
         <xmpTPg:HasVisibleOverprint>False</xmpTPg:HasVisibleOverprint>
         <xmpTPg:PlateNames>
            <rdf:Seq>
               <rdf:li>Cyan</rdf:li>
               <rdf:li>Magenta</rdf:li>
               <rdf:li>Yellow</rdf:li>
               <rdf:li>Black</rdf:li>
            </rdf:Seq>
         </xmpTPg:PlateNames>
         <xmpTPg:SwatchGroups>
            <rdf:Seq>
               <rdf:li rdf:parseType="Resource">
                  <xmpG:groupName>Default Swatch Group</xmpG:groupName>
                  <xmpG:groupType>0</xmpG:groupType>
               </rdf:li>
            </rdf:Seq>
         </xmpTPg:SwatchGroups>
         <dc:format>image/svg+xml</dc:format>
         <xmpMM:DerivedFrom rdf:parseType="Resource">
            <stRef:instanceID>xmp.iid:f9285161-a241-4c8e-8cc8-021f7a18a64c</stRef:instanceID>
            <stRef:documentID>xmp.did:f9285161-a241-4c8e-8cc8-021f7a18a64c</stRef:documentID>
            <stRef:originalDocumentID>xmp.did:3800166e-d266-436c-9448-bd6a124afd85</stRef:originalDocumentID>
         </xmpMM:DerivedFrom>
         <xmpMM:DocumentID>xmp.did:090e6453-bbfd-4fd7-98b7-f452dc46d8c3</xmpMM:DocumentID>
         <xmpMM:InstanceID>xmp.iid:090e6453-bbfd-4fd7-98b7-f452dc46d8c3</xmpMM:InstanceID>
         <xmpMM:OriginalDocumentID>xmp.did:3800166e-d266-436c-9448-bd6a124afd85</xmpMM:OriginalDocumentID>
         <xmpMM:History>
            <rdf:Seq>
               <rdf:li rdf:parseType="Resource">
                  <stEvt:action>saved</stEvt:action>
                  <stEvt:instanceID>xmp.iid:3800166e-d266-436c-9448-bd6a124afd85</stEvt:instanceID>
                  <stEvt:when>2016-06-02T15:13:12+02:00</stEvt:when>
                  <stEvt:softwareAgent>Adobe Illustrator CC 2014 (Macintosh)</stEvt:softwareAgent>
                  <stEvt:changed>/</stEvt:changed>
               </rdf:li>
               <rdf:li rdf:parseType="Resource">
                  <stEvt:action>saved</stEvt:action>
                  <stEvt:instanceID>xmp.iid:090e6453-bbfd-4fd7-98b7-f452dc46d8c3</stEvt:instanceID>
                  <stEvt:when>2016-06-02T15:20:07+02:00</stEvt:when>
                  <stEvt:softwareAgent>Adobe Illustrator CC 2014 (Macintosh)</stEvt:softwareAgent>
                  <stEvt:changed>/</stEvt:changed>
               </rdf:li>
            </rdf:Seq>
         </xmpMM:History>
      </rdf:Description>
   </rdf:RDF>
</x:xmpmeta>
                                                                                                    
                                                                                                    
                                                                                                    
                                                                                                    
                                                                                                    
                                                                                                    
                                                                                                    
                                                                                                    
                                                                                                    
                                                                                                    
                                                                                                    
                                                                                                    
                                                                                                    
                                                                                                    
                                                                                                    
                                                                                                    
                                                                                                    
                                                                                                    
                                                                                                    
                                                                                                    
                           
<?xpacket end="w"?>
	</metadata>
<defs>
	<filter id="Adobe_OpacityMaskFilter" filterUnits="userSpaceOnUse" x="400" y="15.2" width="52.9" height="580.1">
		<feColorMatrix  type="matrix" values="1 0 0 0 0  0 1 0 0 0  0 0 1 0 0  0 0 0 1 0"/>
	</filter>
</defs>
<mask maskUnits="userSpaceOnUse" x="400" y="15.2" width="52.9" height="580.1" id="Layer_1_1_">
	<g filter="url(#Adobe_OpacityMaskFilter)">
		<rect x="400.1" y="390.1" fill="#FFFFFF" width="52.8" height="205.2"/>
	</g>
</mask>
<g id="Layer_1" mask="url(#Layer_1_1_)">
	<rect x="400" y="390.4" fill="#27348A" width="52.9" height="204.9"/>
	<g id="laufband">
		<g>
			<path fill="#FFFFFF" stroke="#27348B" stroke-width="0.7451" stroke-miterlimit="10" d="M412.7,467.6c2.4-2.5,7.9-7.4,13.9-6.6
				c0.1,0,8.6,0.6,14.7,6.6c0.8,0.8,1.1,2.1,0.8,3.2c-0.8,2.4-2.3,6.9-3,9.4c-0.4,1.1-1.3,1.7-2.4,1.6c-3.3-0.4-8.8,1.2-13.1,2.8
				c-1.6,0.6-5.6-1.3-8.6-2.1c-1.1-0.3-2.1-1.3-2.2-2.4l-1.1-9.1C411.5,469.7,411.8,468.4,412.7,467.6z"/>
			<path fill="#E30613" d="M418.1,481.6v-5c0-0.1,0-0.1,0-0.1c-0.3-0.5-2.5-4.5-0.8-8.1c0,0,0-0.1,0.1-0.1c0.2-0.2,1.9-4,4.9-4.3
				c0.6-0.1,1,0.6,0.7,1.1c-0.4,0.6-0.8,1.2-1,1.6c-0.1,0.1,0,0.3,0.1,0.4c0.6,0.2,2.3,0.7,3.7-1.3c0.1-0.3,0.6-0.4,0.7-0.4
				c0.3,0,1-0.2,1.9,0.8c0.1,0.1,0.4,0.1,0.4-0.1c0-1.1,0.4-3.2,3.4-2c0,0,0,0,0.1,0c0.4,0.1,10.1,3.3,7.6,8.7l0,0
				c-0.1,0.3-1.6,5.6-6.8,6.9h-0.1c-0.3,0-7.4,2.3-9.2-0.1c-0.1-0.1-0.4-0.2-0.6-0.1c-1.3,0.8-2.5,1.9-3.9,2.5
				C418.6,482.2,418.1,482.1,418.1,481.6z"/>
			<path fill="#E30613" d="M440.1,476.3c0,0-1.2-0.3-3.8,2.3c-0.3,0.3-0.1,0.8,0.3,0.9c0.8,0.2,2.1,0.4,2.5-0.3
				C439.2,479.3,440.1,476.3,440.1,476.3z"/>
			<path fill="#27348B" d="M417.8,463.6c0,0-4.8,4-4.2,9.9c0.1,0.2,0.6,4.8,0.9,6.3c0.4,1.4,5.3,3.8,8,3.5c0,0,7.6-1.3,11-1.6
				c0.5,0-9.9,2.9-9.9,2.9s-2.5,0.6-6.5-1.4c0,0-4-0.4-4.3-3c0,0-1.7-10.2-0.8-11.5C412,468.7,414.8,465.3,417.8,463.6z"/>
		</g>
		<g>
			<path fill="#F9B233" d="M435,524.1h-16.2c-0.4,0-0.8-0.4-0.8-0.8v-32.6c0-0.4,0.4-0.8,0.8-0.8H435c0.4,0,0.8,0.4,0.8,0.8v32.6
				C435.9,523.8,435.5,524.1,435,524.1z"/>
			<g>
				<g>
					<path fill="#F9B233" stroke="#FFFFFF" stroke-width="0.3325" stroke-miterlimit="10" d="M426.1,501.4h-2.6
						c-0.4,0-0.8-0.4-0.8-0.8v-4c0-0.4,0.4-0.8,0.8-0.8h2.6c0.4,0,0.8,0.4,0.8,0.8v4C427,501.1,426.6,501.4,426.1,501.4z"/>
					<path fill="#F9B233" stroke="#FFFFFF" stroke-width="0.3325" stroke-miterlimit="10" d="M421.9,501.4h-2.6
						c-0.4,0-0.8-0.4-0.8-0.8v-4c0-0.4,0.4-0.8,0.8-0.8h2.6c0.4,0,0.8,0.4,0.8,0.8v4C422.7,501.1,422.4,501.4,421.9,501.4z"/>
					<path fill="#F9B233" stroke="#FFFFFF" stroke-width="0.3325" stroke-miterlimit="10" d="M430.4,501.4h-2.6
						c-0.4,0-0.8-0.4-0.8-0.8v-4c0-0.4,0.4-0.8,0.8-0.8h2.6c0.4,0,0.8,0.4,0.8,0.8v4C431.1,501.1,430.8,501.4,430.4,501.4z"/>
					<path fill="#F9B233" stroke="#FFFFFF" stroke-width="0.3325" stroke-miterlimit="10" d="M434.5,501.4h-2.6
						c-0.4,0-0.8-0.4-0.8-0.8v-4c0-0.4,0.4-0.8,0.8-0.8h2.6c0.4,0,0.8,0.4,0.8,0.8v4C435.3,501.1,435,501.4,434.5,501.4z"/>
				</g>
				<g>
					<path fill="#F9B233" stroke="#FFFFFF" stroke-width="0.3325" stroke-miterlimit="10" d="M426.1,507h-2.6
						c-0.4,0-0.8-0.4-0.8-0.8v-4c0-0.4,0.4-0.8,0.8-0.8h2.6c0.4,0,0.8,0.4,0.8,0.8v4C427,506.7,426.6,507,426.1,507z"/>
					<path fill="#F9B233" stroke="#FFFFFF" stroke-width="0.3325" stroke-miterlimit="10" d="M421.9,507h-2.6
						c-0.4,0-0.8-0.4-0.8-0.8v-4c0-0.4,0.4-0.8,0.8-0.8h2.6c0.4,0,0.8,0.4,0.8,0.8v4C422.7,506.7,422.4,507,421.9,507z"/>
					<path fill="#F9B233" stroke="#FFFFFF" stroke-width="0.3325" stroke-miterlimit="10" d="M430.4,507h-2.6
						c-0.4,0-0.8-0.4-0.8-0.8v-4c0-0.4,0.4-0.8,0.8-0.8h2.6c0.4,0,0.8,0.4,0.8,0.8v4C431.1,506.7,430.8,507,430.4,507z"/>
					<path fill="#F9B233" stroke="#FFFFFF" stroke-width="0.3325" stroke-miterlimit="10" d="M434.5,507h-2.6
						c-0.4,0-0.8-0.4-0.8-0.8v-4c0-0.4,0.4-0.8,0.8-0.8h2.6c0.4,0,0.8,0.4,0.8,0.8v4C435.3,506.7,435,507,434.5,507z"/>
				</g>
				<g>
					<path fill="#F9B233" stroke="#FFFFFF" stroke-width="0.3325" stroke-miterlimit="10" d="M426.1,512.5h-2.6
						c-0.4,0-0.8-0.4-0.8-0.8v-4c0-0.4,0.4-0.8,0.8-0.8h2.6c0.4,0,0.8,0.4,0.8,0.8v4C427,512.2,426.6,512.5,426.1,512.5z"/>
					<path fill="#F9B233" stroke="#FFFFFF" stroke-width="0.3325" stroke-miterlimit="10" d="M421.9,512.5h-2.6
						c-0.4,0-0.8-0.4-0.8-0.8v-4c0-0.4,0.4-0.8,0.8-0.8h2.6c0.4,0,0.8,0.4,0.8,0.8v4C422.7,512.2,422.4,512.5,421.9,512.5z"/>
					<path fill="#F9B233" stroke="#FFFFFF" stroke-width="0.3325" stroke-miterlimit="10" d="M430.4,512.5h-2.6
						c-0.4,0-0.8-0.4-0.8-0.8v-4c0-0.4,0.4-0.8,0.8-0.8h2.6c0.4,0,0.8,0.4,0.8,0.8v4C431.1,512.2,430.8,512.5,430.4,512.5z"/>
					<path fill="#F9B233" stroke="#FFFFFF" stroke-width="0.3325" stroke-miterlimit="10" d="M434.5,512.5h-2.6
						c-0.4,0-0.8-0.4-0.8-0.8v-4c0-0.4,0.4-0.8,0.8-0.8h2.6c0.4,0,0.8,0.4,0.8,0.8v4C435.3,512.2,435,512.5,434.5,512.5z"/>
				</g>
				<g>
					<path fill="#F9B233" stroke="#FFFFFF" stroke-width="0.3325" stroke-miterlimit="10" d="M426.1,518.1h-2.6
						c-0.4,0-0.8-0.4-0.8-0.8v-4c0-0.4,0.4-0.8,0.8-0.8h2.6c0.4,0,0.8,0.4,0.8,0.8v4C427,517.8,426.6,518.1,426.1,518.1z"/>
					<path fill="#F9B233" stroke="#FFFFFF" stroke-width="0.3325" stroke-miterlimit="10" d="M421.9,518.1h-2.6
						c-0.4,0-0.8-0.4-0.8-0.8v-4c0-0.4,0.4-0.8,0.8-0.8h2.6c0.4,0,0.8,0.4,0.8,0.8v4C422.7,517.8,422.4,518.1,421.9,518.1z"/>
					<path fill="#F9B233" stroke="#FFFFFF" stroke-width="0.3325" stroke-miterlimit="10" d="M430.4,518.1h-2.6
						c-0.4,0-0.8-0.4-0.8-0.8v-4c0-0.4,0.4-0.8,0.8-0.8h2.6c0.4,0,0.8,0.4,0.8,0.8v4C431.1,517.8,430.8,518.1,430.4,518.1z"/>
					<path fill="#F9B233" stroke="#FFFFFF" stroke-width="0.3325" stroke-miterlimit="10" d="M434.5,518.1h-2.6
						c-0.4,0-0.8-0.4-0.8-0.8v-4c0-0.4,0.4-0.8,0.8-0.8h2.6c0.4,0,0.8,0.4,0.8,0.8v4C435.3,517.8,435,518.1,434.5,518.1z"/>
				</g>
				<g>
					<path fill="#F9B233" stroke="#FFFFFF" stroke-width="0.3325" stroke-miterlimit="10" d="M426.1,523.7h-2.6
						c-0.4,0-0.8-0.4-0.8-0.8v-4c0-0.4,0.4-0.8,0.8-0.8h2.6c0.4,0,0.8,0.4,0.8,0.8v4C427,523.4,426.6,523.7,426.1,523.7z"/>
					<path fill="#F9B233" stroke="#FFFFFF" stroke-width="0.3325" stroke-miterlimit="10" d="M421.9,523.7h-2.6
						c-0.4,0-0.8-0.4-0.8-0.8v-4c0-0.4,0.4-0.8,0.8-0.8h2.6c0.4,0,0.8,0.4,0.8,0.8v4C422.7,523.4,422.4,523.7,421.9,523.7z"/>
					<path fill="#F9B233" stroke="#FFFFFF" stroke-width="0.3325" stroke-miterlimit="10" d="M430.4,523.7h-2.6
						c-0.4,0-0.8-0.4-0.8-0.8v-4c0-0.4,0.4-0.8,0.8-0.8h2.6c0.4,0,0.8,0.4,0.8,0.8v4C431.1,523.4,430.8,523.7,430.4,523.7z"/>
					<path fill="#F9B233" stroke="#FFFFFF" stroke-width="0.3325" stroke-miterlimit="10" d="M434.5,523.7h-2.6
						c-0.4,0-0.8-0.4-0.8-0.8v-4c0-0.4,0.4-0.8,0.8-0.8h2.6c0.4,0,0.8,0.4,0.8,0.8v4C435.3,523.4,435,523.7,434.5,523.7z"/>
				</g>
				<g>
					<path fill="#F9B233" stroke="#FFFFFF" stroke-width="0.3325" stroke-miterlimit="10" d="M426.1,495.9h-2.6
						c-0.4,0-0.8-0.4-0.8-0.8v-4c0-0.4,0.4-0.8,0.8-0.8h2.6c0.4,0,0.8,0.4,0.8,0.8v4C427,495.5,426.6,495.9,426.1,495.9z"/>
					<path fill="#F9B233" stroke="#FFFFFF" stroke-width="0.3325" stroke-miterlimit="10" d="M421.9,495.9h-2.6
						c-0.4,0-0.8-0.4-0.8-0.8v-4c0-0.4,0.4-0.8,0.8-0.8h2.6c0.4,0,0.8,0.4,0.8,0.8v4C422.7,495.5,422.4,495.9,421.9,495.9z"/>
					<path fill="#F9B233" stroke="#FFFFFF" stroke-width="0.3325" stroke-miterlimit="10" d="M430.4,495.9h-2.6
						c-0.4,0-0.8-0.4-0.8-0.8v-4c0-0.4,0.4-0.8,0.8-0.8h2.6c0.4,0,0.8,0.4,0.8,0.8v4C431.1,495.5,430.8,495.9,430.4,495.9z"/>
					<path fill="#F9B233" stroke="#FFFFFF" stroke-width="0.3325" stroke-miterlimit="10" d="M434.5,495.9h-2.6
						c-0.4,0-0.8-0.4-0.8-0.8v-4c0-0.4,0.4-0.8,0.8-0.8h2.6c0.4,0,0.8,0.4,0.8,0.8v4C435.3,495.5,435,495.9,434.5,495.9z"/>
				</g>
			</g>
		</g>
		<g>
			<path fill="#F9B233" d="M430.2,422.6c2.8-2.3,1.3-10.2-3.6-10.9c-2.4-0.4-6.1,0.3-6.2,3.8c-0.1,2.7,1.1,3.6,1.7,3.9
				c0.2,0.1,0.3,0.3,0.3,0.5c-0.1,0.8-0.3,2.7,0.8,3.5C424.6,424.3,426.5,425.7,430.2,422.6z M421.9,416.6c-0.6-2.2,1.9-2.6,3.1-2.8
				c0.3,0,0.6,0.2,0.5,0.6l-0.4,2.6c0,0.2-0.1,0.4-0.4,0.4C424.1,417.7,422.3,418.1,421.9,416.6z M426.7,418
				c-0.1-0.1-0.2-0.3-0.2-0.5l0.6-3.3c0.1-0.4,0.4-0.5,0.8-0.3c3.2,2.1,2.4,4.6,1.9,5.7c-0.1,0.3-0.5,0.4-0.7,0.1L426.7,418z
				 M424.1,421.7c-0.8-1.4,0.8-2.3,1.5-2.6c0.1-0.1,0.4-0.1,0.5,0.1l2.1,1.6c0.2,0.2,0.3,0.6,0,0.8
				C427.3,422.4,425.2,423.8,424.1,421.7z"/>
			<path fill="#F9B233" d="M435.6,447.6c2.1-3-1.3-10.2-6.3-9.6c-2.5,0.3-5.8,1.8-5,5.3c0.6,2.6,2,3.2,2.7,3.3
				c0.2,0.1,0.4,0.2,0.4,0.4c0.1,0.8,0.4,2.7,1.8,3.2C430.7,450.7,432.8,451.5,435.6,447.6z M426,443.9c-1.1-2,1.1-3,2.3-3.5
				c0.3-0.1,0.6,0.1,0.6,0.4l0.4,2.7c0,0.2-0.1,0.4-0.2,0.4C428.5,444.4,426.8,445.4,426,443.9z M431,444c-0.1-0.1-0.3-0.2-0.3-0.4
				l-0.3-3.3c0-0.4,0.3-0.6,0.6-0.5c3.6,1.2,3.5,3.8,3.3,5c-0.1,0.3-0.4,0.5-0.6,0.4L431,444z M429.5,448.4
				c-1.1-1.1,0.2-2.5,0.8-2.9c0.1-0.1,0.4-0.1,0.5-0.1l2.5,1.1c0.3,0.1,0.4,0.5,0.2,0.7C432.8,448.1,431.1,450,429.5,448.4z"/>
			<path fill="#F9B233" d="M427.2,410.8c3.4,1.3,9.6-3.7,7.9-8.4c-0.8-2.3-3.2-5.2-6.3-3.6c-2.4,1.2-2.6,2.7-2.5,3.3
				c0,0.2-0.1,0.4-0.4,0.5c-0.8,0.3-2.5,1.1-2.7,2.5C422.9,406.8,422.7,409.1,427.2,410.8z M428.5,400.6c1.6-1.6,3.3,0.4,3.9,1.4
				c0.1,0.3,0.1,0.6-0.2,0.7l-2.5,0.9c-0.1,0.1-0.4,0-0.5-0.1C428.5,403.1,427.3,401.8,428.5,400.6z M429.5,405.5
				c0-0.2,0.1-0.4,0.4-0.4l3.2-1.1c0.4-0.1,0.6,0.1,0.6,0.5c-0.4,3.8-2.9,4.3-4,4.4c-0.3,0-0.6-0.3-0.5-0.6L429.5,405.5z
				 M424.9,405.1c0.8-1.3,2.4-0.4,3,0.1c0.1,0.1,0.2,0.3,0.2,0.5l-0.4,2.6c-0.1,0.3-0.4,0.5-0.6,0.4
				C426,408.1,423.7,407,424.9,405.1z"/>
			<path fill="#F9B233" d="M433.9,422.2c-3.6-0.4-8.1,6.2-5.2,10.2c1.5,2,4.5,4.1,7.1,1.7c2-1.8,1.8-3.3,1.6-4
				c-0.1-0.2,0-0.4,0.2-0.6c0.7-0.5,2.1-1.7,1.9-3.1C439.1,425,438.8,422.7,433.9,422.2z M435.5,432.4c-1.1,2-3.2,0.5-4.1-0.3
				c-0.2-0.2-0.2-0.6,0-0.8l2.1-1.6c0.1-0.1,0.4-0.1,0.5-0.1C434.8,430.1,436.3,431,435.5,432.4z M433.1,428c0,0.2-0.1,0.4-0.2,0.5
				l-2.8,1.8c-0.3,0.2-0.7,0-0.8-0.3c-0.7-3.8,1.6-5,2.7-5.3c0.3-0.1,0.6,0.1,0.6,0.4L433.1,428z M437.7,427.2
				c-0.5,1.6-2.2,1.1-2.9,0.8c-0.1-0.1-0.3-0.2-0.3-0.4l-0.4-2.7c-0.1-0.3,0.2-0.6,0.5-0.6C435.8,424.5,438.3,425,437.7,427.2z"/>
			<path fill="#F9B233" d="M420.7,424.8c-3.6-0.4-8.2,6.2-5.2,10.2c1.5,2,4.5,4.1,7.1,1.7c2-1.8,1.8-3.3,1.6-4
				c-0.1-0.2,0-0.4,0.2-0.6c0.7-0.5,2.1-1.7,1.9-3.1C425.9,427.5,425.5,425.3,420.7,424.8z M422.2,434.9c-1.1,2-3.2,0.5-4.1-0.3
				c-0.2-0.2-0.2-0.6,0-0.8l2.1-1.6c0.1-0.1,0.4-0.1,0.5-0.1C421.5,432.6,423,433.5,422.2,434.9z M419.8,430.5
				c0,0.2-0.1,0.4-0.2,0.5l-2.8,1.8c-0.3,0.2-0.7,0-0.8-0.3c-0.7-3.8,1.6-5,2.7-5.3c0.3-0.1,0.6,0.1,0.6,0.4L419.8,430.5z
				 M424.4,429.7c-0.5,1.6-2.2,1.1-2.9,0.8c-0.1-0.1-0.3-0.2-0.3-0.4l-0.3-2.7c-0.1-0.3,0.2-0.6,0.5-0.6
				C422.6,427,425.1,427.5,424.4,429.7z"/>
		</g>
		<g>
			<path fill="#F9B233" d="M427,366L427,366c-0.3,0-0.6-0.3-0.6-0.6v-5.3c0-0.3,0.3-0.6,0.6-0.6l0,0c0.3,0,0.6,0.3,0.6,0.6v5.3
				C427.5,365.7,427.3,366,427,366z"/>
			<ellipse fill="#F9B233" cx="432.6" cy="359.9" rx="6.2" ry="3.5"/>
			<path fill="#E30613" d="M427,365.8c-7.9-4.9-13,1.7-13,8.7c0,7.1,5.7,12.8,12.8,12.8c0.1,0,0.1,0,0.1,0c0.1,0,0.1,0,0.1,0
				c7.1,0,12.8-5.7,12.8-12.8C440,367.5,434.8,360.9,427,365.8z"/>
		</g>
		<g>
			<path fill="#F9B233" d="M420.8,222.3c0.1,0.1,0.4,0.1,0.5-0.1c0.1-0.1,0.1-0.1,0.1,0c0.2,0.1,0.4,0.1,0.5-0.1
				c0-0.1,0.1-0.1,0.1,0c0.2,0.1,0.4,0.1,0.5-0.1c0.1-0.1,0.1-0.1,0.1,0c0.2,0.1,0.4,0.1,0.5-0.1c0-0.1,0.1-0.1,0.1,0
				c0.2,0.1,0.4,0.1,0.5-0.1c0,0,0.1-0.1,0.1,0c0.2,0.1,0.4,0.1,0.5-0.1c0-0.1,0.1-0.1,0.1,0c0.2,0.1,0.4,0.1,0.5-0.1
				c0,0,0-0.1,0.1-0.1l0,0h0.1c0.2,0.1,0.4,0.1,0.5-0.1c0.1-0.1,0.1-0.1,0.1,0c0.2,0.1,0.4,0.1,0.5-0.1c0.1-0.1,0.1-0.1,0.1-0.1
				c0.3,0.1,0.6,0.1,0.8-0.1l0,0c0.1-0.1,0.2-0.3,0.3-0.5c0.1-0.3-0.1-0.6-0.3-0.8c-0.1-0.1-0.1-0.1,0-0.1c0.1-0.1,0.1-0.4-0.1-0.5
				c-0.1-0.1-0.1-0.1,0-0.1c0.1-0.2,0.1-0.4-0.1-0.5c-0.1,0-0.1-0.1,0-0.1c0.1-0.2,0.1-0.4-0.1-0.5c-0.1-0.1-0.1-0.1,0-0.1
				c0.1-0.2,0.1-0.4-0.1-0.5c-0.1,0-0.1-0.1,0-0.1v-0.1c0.1-0.1,0.1-0.4-0.1-0.5c-0.1,0-0.1-0.1-0.1-0.1l0,0c0-0.1,0.1-0.1,0.1-0.1
				c0.1-0.1,0-0.3-0.1-0.4c0,0-0.1,0-0.1-0.1l0,0c0-0.1,0.1-0.1,0.1-0.1c0.1-0.1,0-0.3-0.1-0.4c-0.1-0.1-0.1-0.1,0-0.1
				c0.1-0.2,0.1-0.4-0.1-0.5c-0.1,0-0.1-0.1,0-0.1c0.1-0.2,0.1-0.4-0.1-0.5c0,0-0.1-0.1,0-0.1c0.1-0.2,0.1-0.4-0.1-0.5
				c-0.1,0-0.1-0.1,0-0.1c0.1-0.2,0.1-0.4-0.1-0.5c0,0-0.1,0-0.1-0.1l0,0v-0.1c0.1-0.2,0.1-0.4-0.1-0.5c-0.1-0.1-0.1-0.1,0-0.1
				c0.1-0.2,0.1-0.4-0.1-0.5c-0.1-0.1-0.1-0.1-0.1-0.1c0.1-0.3,0.1-0.6-0.1-0.8c-0.1-0.1-0.3-0.3-0.4-0.3l0,0l0,0l0,0
				c-0.1,0-0.2,0-0.4,0c0,0,0,0-0.1,0c-0.1,0.1-0.3,0.1-0.4,0.3c-0.1,0.1-0.1,0.1-0.1,0c-0.1-0.1-0.4-0.1-0.5,0.1
				c-0.1,0.1-0.1,0.1-0.1,0c-0.2-0.1-0.4-0.1-0.5,0.1c0,0.1-0.1,0.1-0.1,0c-0.2-0.1-0.4-0.1-0.5,0.1c-0.1,0.1-0.1,0.1-0.1,0
				c-0.2-0.1-0.4-0.1-0.5,0.1c0,0.1-0.1,0.1-0.1,0c-0.2-0.1-0.4-0.1-0.5,0.1c0,0-0.1,0.1-0.1,0c-0.2-0.1-0.4-0.1-0.5,0.1
				c0,0.1-0.1,0.1-0.1,0c-0.2-0.1-0.4-0.1-0.5,0.1c0,0,0,0.1-0.1,0.1l0,0h-0.1c-0.2-0.1-0.4-0.1-0.5,0.1c-0.1,0.1-0.1,0.1-0.1,0
				c-0.2-0.1-0.4-0.1-0.5,0.1c-0.1,0.1-0.1,0.1-0.1,0.1c-0.3-0.1-0.6-0.1-0.8,0.1l0,0c-0.1,0.1-0.3,0.3-0.3,0.5
				c-0.1,0.3,0.1,0.6,0.3,0.8c0.1,0.1,0.1,0.1,0,0.1c-0.1,0.1-0.1,0.4,0.1,0.5c0.1,0.1,0.1,0.1,0,0.1c-0.1,0.2-0.1,0.4,0.1,0.5
				c0.1,0,0.1,0.1,0,0.1c-0.1,0.2-0.1,0.4,0.1,0.5c0.1,0.1,0.1,0.1,0,0.1c-0.1,0.2-0.1,0.4,0.1,0.5c0.1,0,0.1,0.1,0,0.1v0.1
				c-0.1,0.1-0.1,0.4,0.1,0.5c0.1,0,0.1,0.1,0.1,0.1l0,0c0,0.1-0.1,0.1-0.1,0.1c-0.1,0.1,0,0.3,0.1,0.4c0,0,0.1,0,0.1,0.1l0,0
				c0,0.1-0.1,0.1-0.1,0.1c-0.1,0.1,0,0.3,0.1,0.4c0.1,0.1,0.1,0.1,0,0.1c-0.1,0.2-0.1,0.4,0.1,0.5c0.1,0,0.1,0.1,0,0.1
				c-0.1,0.2-0.1,0.4,0.1,0.5c0,0,0.1,0.1,0,0.1c-0.1,0.2-0.1,0.4,0.1,0.5c0.1,0,0.1,0.1,0,0.1c-0.1,0.2-0.1,0.4,0.1,0.5
				c0,0,0.1,0,0.1,0.1l0,0v0.1c-0.1,0.2-0.1,0.4,0.1,0.5c0.1,0.1,0.1,0.1,0,0.1c-0.1,0.2-0.1,0.4,0.1,0.5c0.1,0.1,0.1,0.1,0.1,0.1
				c-0.1,0.3-0.1,0.6,0.1,0.8c0.1,0.2,0.4,0.3,0.6,0.3c0.3,0,0.5-0.1,0.7-0.3C420.7,222.3,420.8,222.3,420.8,222.3z"/>
			<path fill="#F9B233" d="M429.3,226.9c0.1,0.2,0.3,0.3,0.5,0.1c0.1-0.1,0.1-0.1,0.1,0c0.1,0.2,0.3,0.2,0.5,0.1c0.1,0,0.1,0,0.1,0
				c0.1,0.2,0.3,0.2,0.5,0.1c0.1,0,0.1,0,0.1,0c0.1,0.2,0.3,0.2,0.5,0.1c0.1,0,0.1-0.1,0.1,0c0.1,0.2,0.3,0.2,0.5,0.1
				c0.1,0,0.1,0,0.1,0c0.1,0.2,0.3,0.3,0.5,0.1c0.1,0,0.1,0,0.1,0c0.1,0.2,0.3,0.2,0.5,0.1h0.1l0,0c0,0,0.1,0,0.1,0.1
				c0.1,0.1,0.3,0.2,0.5,0.1c0.1-0.1,0.1,0,0.1,0c0.1,0.2,0.4,0.2,0.5,0.1c0.1-0.1,0.1-0.1,0.1,0c0.2,0.2,0.5,0.4,0.8,0.2l0,0
				c0.1-0.1,0.4-0.1,0.4-0.4c0.2-0.3,0.2-0.6,0.1-0.8c-0.1-0.1,0-0.1,0.1-0.1c0.2-0.1,0.3-0.3,0.1-0.5c-0.1-0.1-0.1-0.1,0-0.1
				c0.2-0.1,0.2-0.3,0.1-0.5c0-0.1,0-0.1,0-0.1c0.2-0.1,0.2-0.3,0.1-0.5c0-0.1,0-0.1,0-0.1c0.2-0.1,0.2-0.3,0.1-0.5
				c0-0.1-0.1-0.1,0-0.1c0,0,0.1,0,0.1-0.1c0.1-0.1,0.2-0.3,0.1-0.5c0-0.1-0.1-0.1,0-0.1l0,0c0.1,0,0.1-0.1,0.1-0.1
				c0.1-0.1,0.1-0.3,0-0.4v-0.1l0,0c0.1,0,0.1-0.1,0.1-0.1c0.1-0.1,0.1-0.2,0-0.4c0-0.1,0-0.1,0-0.1c0.2-0.1,0.2-0.3,0.1-0.5
				c0-0.1-0.1-0.1,0-0.1c0.2-0.1,0.2-0.3,0.1-0.5c0-0.1,0-0.1,0-0.1c0.2-0.1,0.3-0.3,0.1-0.5c0-0.1,0-0.1,0-0.1
				c0.2-0.1,0.2-0.3,0.1-0.5v-0.1l0,0c0,0,0-0.1,0.1-0.1c0.1-0.1,0.2-0.3,0.1-0.5c-0.1-0.1,0-0.1,0-0.1c0.2-0.1,0.2-0.4,0.1-0.5
				c-0.1-0.1-0.1-0.1,0-0.1c0.2-0.2,0.4-0.5,0.2-0.8c-0.1-0.2-0.1-0.4-0.3-0.4l0,0l0,0l0,0c-0.1-0.1-0.2-0.1-0.3-0.1c0,0,0,0-0.1,0
				c-0.1,0-0.4,0-0.5,0.1c-0.1,0.1-0.1,0-0.1-0.1c-0.1-0.2-0.3-0.3-0.5-0.1c-0.1,0.1-0.1,0.1-0.1,0c-0.1-0.2-0.3-0.2-0.5-0.1
				c-0.1,0-0.1,0-0.1,0c-0.1-0.2-0.3-0.2-0.5-0.1c-0.1,0-0.1,0-0.1,0c-0.1-0.2-0.3-0.2-0.5-0.1c-0.1,0-0.1,0.1-0.1,0
				c-0.1-0.2-0.3-0.2-0.5-0.1c-0.1,0-0.1,0-0.1,0c-0.1-0.2-0.3-0.3-0.5-0.1c-0.1,0-0.1,0-0.1,0c-0.1-0.2-0.3-0.2-0.5-0.1h-0.1l0,0
				c0,0-0.1,0-0.1-0.1c-0.1-0.1-0.3-0.2-0.5-0.1c-0.1,0.1-0.1,0-0.1,0c-0.1-0.2-0.4-0.2-0.5-0.1c-0.1,0.1-0.1,0.1-0.1,0
				c-0.2-0.2-0.5-0.4-0.8-0.2l0,0c-0.2,0.1-0.4,0.1-0.5,0.4c-0.2,0.3-0.2,0.6-0.1,0.8c0.1,0.1,0,0.1-0.1,0.1
				c-0.2,0.1-0.3,0.3-0.1,0.5c0.1,0.1,0.1,0.1,0,0.1c-0.2,0.1-0.2,0.3-0.1,0.5c0,0.1,0,0.1,0,0.1c-0.2,0.1-0.2,0.3-0.1,0.5
				c0,0.1,0,0.1,0,0.1c-0.2,0.1-0.2,0.3-0.1,0.5c0,0.1,0.1,0.1,0,0.1c0,0-0.1,0-0.1,0.1c-0.1,0.1-0.2,0.3-0.1,0.5
				c0,0.1,0.1,0.1,0,0.1l0,0c-0.1,0-0.1,0.1-0.1,0.1c-0.1,0.1-0.1,0.3,0,0.4v0.1l0,0c-0.1,0-0.1,0.1-0.1,0.1c-0.1,0.1-0.1,0.2,0,0.4
				c0,0.1,0,0.1,0,0.1c-0.2,0.1-0.2,0.3-0.1,0.5c0,0.1,0.1,0.1,0,0.1c-0.2,0.1-0.2,0.3-0.1,0.5c0,0.1,0,0.1,0,0.1
				c-0.2,0.1-0.3,0.3-0.1,0.5c0,0.1,0,0.1,0,0.1c-0.2,0.1-0.2,0.3-0.1,0.5v0.1l0,0c0,0,0,0.1-0.1,0.1c-0.1,0.1-0.2,0.3-0.1,0.5
				c0.1,0.1,0,0.1,0,0.1c-0.2,0.1-0.2,0.4-0.1,0.5c0.1,0.1,0.1,0.1,0,0.1c-0.2,0.2-0.4,0.5-0.2,0.8c0.1,0.2,0.2,0.4,0.4,0.5
				C428.7,226.9,429,226.9,429.3,226.9C429.3,226.8,429.3,226.9,429.3,226.9z"/>
			<path fill="#F9B233" d="M419.5,235.1c0.1,0.2,0.4,0.2,0.5,0.1c0.1-0.1,0.1-0.1,0.1,0c0.1,0.1,0.4,0.1,0.5,0c0.1-0.1,0.1,0,0.1,0
				c0.2,0.2,0.4,0.2,0.5,0c0.1-0.1,0.1-0.1,0.1,0c0.1,0.1,0.4,0.1,0.5,0c0.1-0.1,0.1-0.1,0.1,0c0.2,0.2,0.4,0.2,0.6,0
				c0,0,0.1-0.1,0.1,0c0.2,0.2,0.4,0.2,0.5,0c0.1,0,0.1-0.1,0.1,0c0.1,0.2,0.4,0.2,0.5,0h0.1l0,0c0,0,0.1,0,0.1,0.1
				c0.1,0.1,0.4,0.1,0.5,0c0.1-0.1,0.1-0.1,0.1,0c0.1,0.1,0.4,0.1,0.5,0c0.1-0.1,0.1-0.1,0.1,0c0.3,0.2,0.6,0.2,0.8,0.1l0,0
				c0.1-0.1,0.3-0.2,0.4-0.4c0.1-0.3,0.1-0.6-0.1-0.8c-0.1-0.1,0-0.1,0-0.1c0.2-0.1,0.2-0.4,0.1-0.5c-0.1-0.1-0.1-0.1,0-0.1
				c0.1-0.1,0.1-0.4,0-0.5c-0.1-0.1,0-0.1,0-0.1c0.2-0.2,0.2-0.4,0-0.5c-0.1-0.1-0.1-0.1,0-0.1c0.1-0.1,0.1-0.4,0-0.5
				c-0.1-0.1-0.1-0.1,0-0.1c0,0,0,0,0.1-0.1c0.1-0.1,0.1-0.4,0-0.5c0,0-0.1-0.1,0-0.1l0,0c0.1-0.1,0.1-0.1,0.1-0.1
				c0.1-0.1,0.1-0.3-0.1-0.4v-0.1l0,0c0.1-0.1,0.1-0.1,0.1-0.1c0.1-0.1,0.1-0.3-0.1-0.4c-0.1-0.1-0.1-0.1,0-0.1
				c0.1-0.1,0.1-0.4,0-0.5c-0.1-0.1-0.1-0.1,0-0.1c0.2-0.2,0.2-0.4,0-0.6c0,0-0.1-0.1,0-0.1c0.2-0.2,0.2-0.4,0-0.5
				c0-0.1-0.1-0.1,0-0.1c0.2-0.1,0.2-0.4,0-0.5v-0.1l0,0c0,0,0-0.1,0.1-0.1c0.1-0.1,0.1-0.4,0-0.5c-0.1-0.1-0.1-0.1,0-0.1
				c0.1-0.1,0.1-0.4,0-0.5c-0.1-0.1-0.1-0.1,0-0.1c0.2-0.3,0.2-0.6,0.1-0.8c-0.1-0.1-0.2-0.3-0.4-0.4l0,0l0,0l0,0
				c-0.1-0.1-0.2-0.1-0.3-0.1c0,0,0,0-0.1,0c-0.1,0-0.4,0.1-0.5,0.2c-0.1,0.1-0.1,0-0.1,0c-0.1-0.2-0.4-0.2-0.5-0.1
				c-0.1,0.1-0.1,0.1-0.1,0c-0.1-0.1-0.4-0.1-0.5,0c-0.1,0.1-0.1,0-0.1,0c-0.2-0.2-0.4-0.2-0.5,0c-0.1,0.1-0.1,0.1-0.1,0
				c-0.1-0.1-0.4-0.1-0.5,0c-0.1,0.1-0.1,0.1-0.1,0c-0.2-0.2-0.4-0.2-0.6,0c0,0-0.1,0.1-0.1,0c-0.2-0.2-0.4-0.2-0.5,0
				c-0.1,0-0.1,0.1-0.1,0c-0.1-0.2-0.4-0.2-0.5,0h-0.1l0,0c0,0-0.1,0-0.1-0.1c-0.1-0.1-0.4-0.1-0.5,0c-0.1,0.1-0.1,0.1-0.1,0
				c-0.1-0.1-0.4-0.1-0.5,0c-0.1,0.1-0.1,0.1-0.1,0c-0.3-0.2-0.6-0.2-0.8-0.1l0,0c-0.2,0.1-0.4,0.2-0.4,0.4
				c-0.1,0.3-0.1,0.6,0.1,0.8c0.1,0.1,0,0.1,0,0.1c-0.2,0.1-0.2,0.4-0.1,0.5c0.1,0.1,0.1,0.1,0,0.1c-0.1,0.1-0.1,0.4,0,0.5
				c0.1,0.1,0,0.1,0,0.1c-0.2,0.2-0.2,0.4,0,0.5c0.1,0.1,0.1,0.1,0,0.1c-0.1,0.1-0.1,0.4,0,0.5c0.1,0.1,0.1,0.1,0,0.1
				c0,0,0,0-0.1,0.1c-0.1,0.1-0.1,0.4,0,0.5c0,0,0.1,0.1,0,0.1l0,0c-0.1,0.1-0.1,0.1-0.1,0.1c-0.1,0.1-0.1,0.3,0.1,0.4v0.1l0,0
				c-0.1,0.1-0.1,0.1-0.1,0.1c-0.1,0.1-0.1,0.3,0.1,0.4c0.1,0.1,0.1,0.1,0,0.1c-0.1,0.1-0.1,0.4,0,0.5c0.1,0.1,0.1,0.1,0,0.1
				c-0.2,0.2-0.2,0.4,0,0.6c0,0,0.1,0.1,0,0.1c-0.2,0.2-0.2,0.4,0,0.5c0,0.1,0.1,0.1,0,0.1c-0.2,0.1-0.2,0.4,0,0.5v0.1l0,0
				c0,0,0,0.1-0.1,0.1c-0.1,0.1-0.1,0.4,0,0.5c0.1,0.1,0.1,0.1,0,0.1c-0.1,0.1-0.1,0.4,0,0.5c0.1,0.1,0.1,0.1,0,0.1
				c-0.2,0.3-0.2,0.6-0.1,0.8c0.1,0.2,0.3,0.4,0.5,0.4c0.3,0.1,0.5,0.1,0.8-0.1C419.5,235,419.5,235,419.5,235.1z"/>
		</g>
		<g>
			<g>
				<path fill="#F9B233" stroke="#FFFFFF" stroke-width="0.5842" stroke-miterlimit="10" d="M422.6,111.7l3,3.4l5.9,6.9
					c0.8,0.8,1.9,1.3,2.3,1.1c0.6-0.4,0.8-4,0.1-4.9l-3-3.4l-5.9-6.9c-0.8-0.8-1.9-1.3-2.3-1.1C422,107.2,421.8,110.8,422.6,111.7z"
					/>
				<path fill="#E30613" stroke="#FFFFFF" stroke-width="0.7302" stroke-miterlimit="10" d="M423.7,111.3c-0.4,0.3-0.7,0.3-1.1-0.6
					c-0.4-1.1-0.3-3.5,0.3-3.7C424.6,106.7,424.1,111.1,423.7,111.3z"/>
			</g>
			<g>
				<path fill="#F9B233" stroke="#FFFFFF" stroke-width="0.5842" stroke-miterlimit="10" d="M435.1,138.8l-4.5,0.8l-9,1.6
					c-1.1,0.2-2.1,0.9-2.1,1.5c0.1,0.7,3,2.7,4.2,2.5l4.5-0.8l9-1.6c1.1-0.2,2.1-0.9,2.1-1.5C439.2,140.6,436.2,138.6,435.1,138.8z"
					/>
				<path fill="#E30613" stroke="#FFFFFF" stroke-width="0.7302" stroke-miterlimit="10" d="M434.8,139.9c-0.1-0.5,0.1-0.8,1.1-0.6
					c1.1,0.1,3.2,1.5,3,2.1C438.4,143.1,434.9,140.4,434.8,139.9z"/>
			</g>
			<g>
				<path fill="#F9B233" stroke="#FFFFFF" stroke-width="0.5842" stroke-miterlimit="10" d="M442.5,127.9l-1.7-4.2l-3.4-8.5
					c-0.4-1.1-1.3-1.9-1.9-1.8c-0.7,0.2-2.1,3.5-1.6,4.6l1.7,4.2l3.4,8.5c0.4,1.1,1.3,1.9,1.9,1.8C441.6,132.3,443,129,442.5,127.9z
					"/>
				<path fill="#E30613" stroke="#FFFFFF" stroke-width="0.7302" stroke-miterlimit="10" d="M441.3,127.8c0.4-0.1,0.8,0,0.8,0.8
					c0.1,1.1-0.8,3.4-1.4,3.4C439,131.9,440.9,128,441.3,127.8z"/>
			</g>
			<g>
				<path fill="#F9B233" stroke="#FFFFFF" stroke-width="0.5842" stroke-miterlimit="10" d="M416.2,136.5l-0.7-4.5l-1.4-9.1
					c-0.1-1.1-0.8-2.2-1.5-2.1c-0.7,0.1-2.8,3-2.6,4.1l0.7,4.5l1.4,9.1c0.1,1.1,0.8,2.2,1.5,2.1
					C414.4,140.6,416.4,137.7,416.2,136.5z"/>
				<path fill="#E30613" stroke="#FFFFFF" stroke-width="0.7302" stroke-miterlimit="10" d="M415.1,136.3c0.5,0,0.8,0.1,0.6,1.1
					c-0.2,1.1-1.6,3.1-2.1,3C411.9,139.7,414.7,136.3,415.1,136.3z"/>
			</g>
			<g>
				<path fill="#F9B233" stroke="#FFFFFF" stroke-width="0.5842" stroke-miterlimit="10" d="M420.4,128.3h4.5h9.1
					c1.1,0,2.3-0.5,2.3-1.1c0.1-0.7-2.5-3.2-3.7-3.2h-4.5H419c-1.1,0-2.3,0.5-2.3,1.1C416.7,125.9,419.3,128.3,420.4,128.3z"/>
				<path fill="#E30613" stroke="#FFFFFF" stroke-width="0.7302" stroke-miterlimit="10" d="M420.9,127.2c-0.1,0.5-0.3,0.7-1.1,0.4
					c-1.1-0.4-2.8-2.1-2.6-2.5C418,123.5,421,126.8,420.9,127.2z"/>
			</g>
			<g>
				<path fill="#F9B233" stroke="#FFFFFF" stroke-width="0.5842" stroke-miterlimit="10" d="M431.3,128.7l-4.4,1.2l-8.8,2.4
					c-1.1,0.3-2.1,1.1-1.9,1.7c0.1,0.7,3.3,2.4,4.4,2.1l4.4-1.2l8.8-2.4c1.1-0.3,2.1-1.1,1.9-1.7
					C435.5,130.1,432.4,128.4,431.3,128.7z"/>
				<path fill="#E30613" stroke="#FFFFFF" stroke-width="0.7302" stroke-miterlimit="10" d="M431.1,129.9c-0.1-0.4,0.1-0.8,1-0.7
					c1.1,0.1,3.3,1.2,3.2,1.8C435,132.6,431.2,130.3,431.1,129.9z"/>
			</g>
			<g>
				<path fill="#F9B233" stroke="#FFFFFF" stroke-width="0.5842" stroke-miterlimit="10" d="M426.6,118.1l-4.3-1.3l-8.7-2.8
					c-1.1-0.4-2.3-0.2-2.5,0.4c-0.3,0.6,1.4,3.8,2.5,4.2l4.3,1.3l8.7,2.8c1.1,0.4,2.3,0.2,2.5-0.4
					C429.4,121.5,427.7,118.4,426.6,118.1z"/>
				<path fill="#E30613" stroke="#FFFFFF" stroke-width="0.7302" stroke-miterlimit="10" d="M425.8,118.9c0.2-0.4,0.5-0.6,1.2-0.1
					c0.9,0.6,2.1,2.8,1.7,3.3C427.5,123.4,425.7,119.3,425.8,118.9z"/>
			</g>
			<g>
				<path fill="#F9B233" stroke="#FFFFFF" stroke-width="0.5842" stroke-miterlimit="10" d="M425.3,140.4l4.3-1.6l8.6-3
					c1.1-0.4,2-1.3,1.8-1.8c-0.2-0.7-3.4-2.2-4.5-1.8l-4.3,1.6l-8.6,3c-1.1,0.4-2,1.3-1.8,1.8C421,139.3,424.2,140.8,425.3,140.4z"
					/>
				<path fill="#E30613" stroke="#FFFFFF" stroke-width="0.7302" stroke-miterlimit="10" d="M425.4,139.2c0.1,0.4,0,0.8-0.9,0.8
					c-1.1,0-3.4-1-3.3-1.6C421.5,136.7,425.3,138.8,425.4,139.2z"/>
			</g>
		</g>
		<g>
			<path fill="#E30613" d="M428.2,154.9c-1.8-2.2-5-2.5-7.1-0.7c-2.2,1.8-2.5,5-0.7,7.1c0.3,0.3,0.1,0.1,0.1,0.1
				c3,4.6,8.6,15.9-0.4,25.7c-0.3,0.2-0.5,0.5-0.7,0.7c-1.7,2.2-1.3,5.4,0.8,7.1c2.2,1.7,5.4,1.3,7.1-0.8
				C436.5,186,437.9,164.4,428.2,154.9"/>
			<path fill="#E30613" d="M419.3,154.4l1.3,0.6c0.1,0.1,0.2,0,0.3-0.1l0.5-0.6c0.1-0.1,0.1-0.1,0-0.2l-0.6-1.2
				c-0.1-0.1-0.2-0.1-0.4-0.1l-1.2,1.2C419.2,154.2,419.2,154.4,419.3,154.4z"/>
			<path fill="#E30613" d="M417.8,193.9l1.3-0.7c0.1-0.1,0.1-0.1,0.1-0.3l-0.2-0.8c0-0.1-0.1-0.1-0.2-0.1l-1.3-0.2
				c-0.1,0-0.3,0.1-0.3,0.3l0.2,1.7C417.5,193.9,417.6,194,417.8,193.9z"/>
		</g>
		<g>
			<path fill="#E30613" d="M432.4,272.4l-1.6-21.2c0-1.1-0.9-2.1-2-2.1h-0.6H428h-0.6c-1.1,0-2,0.9-2,2.1l-1.6,21.2
				c-1.6,0.4-2.8,1.8-2.8,3.5v29.3c0,2,1.6,3.5,3.5,3.5h3.5h0.1h3.5c2,0,3.5-1.6,3.5-3.5v-29.3C435.1,274.1,433.9,272.7,432.4,272.4
				z"/>
			<path fill="#F9B233" d="M430.7,250.6h-5.4c-0.6,0-1-0.4-1-1l0,0c0-0.6,0.4-1,1-1h5.4c0.6,0,1,0.4,1,1l0,0
				C431.8,250.2,431.3,250.6,430.7,250.6z"/>
		</g>
		<g>
			<path fill="#F9B233" d="M423.7,336.7l-4.8-4.6c-2.1-2-2.1-5.3-0.1-7.4l0,0c2-2.1,5.3-2.1,7.4-0.1l4.8,4.6c2.1,2,2.1,5.3,0.1,7.4
				l0,0C429.1,338.6,425.8,338.7,423.7,336.7z"/>
			<g>
				<path fill="#F9B233" d="M438.7,336.6c0.9,0.3-1.8-4.2-6.9-0.4c-4.2,3.2-1.8,6.7-0.8,7.9c0.2,0.2,0.5,0.4,0.8,0.3
					c0.8-0.2,2.5-0.8,3-2.1c0.1-0.1,0.1-0.2,0.2-0.4c0.9-0.8,2-1,2.6-1.6C438.2,339.5,437.7,336.4,438.7,336.6z"/>
				<path fill="#F9B233" d="M430.6,337.3L430.6,337.3c-0.3-0.3-0.3-0.7,0-1l0.3-0.3c0.3-0.3,0.7-0.3,1,0l0,0c0.3,0.3,0.3,0.7,0,1
					l-0.3,0.3C431.3,337.5,430.9,337.6,430.6,337.3z"/>
			</g>
			<g>
				<path fill="#F9B233" d="M418.3,317.2c-0.3-0.8,4.3,1.6,0.7,6.9c-3,4.4-6.6,2.1-7.8,1.2c-0.3-0.2-0.4-0.5-0.3-0.8
					c0.1-0.8,0.7-2.5,2-3c0.1-0.1,0.2-0.1,0.4-0.2c0.8-1,0.8-2,1.6-2.7C415.4,317.8,418.6,318.1,418.3,317.2z"/>
				<path fill="#F9B233" d="M419.2,324L419.2,324c0.3,0.3,0.3,0.7,0,1l-0.3,0.3c-0.3,0.3-0.7,0.3-1,0l0,0c-0.3-0.3-0.3-0.7,0-1
					l0.3-0.3C418.5,323.8,418.9,323.8,419.2,324z"/>
			</g>
		</g>
		<path fill="#F9B233" d="M438.2,52c1.4-3.5-4.6-6.2-4.8-6.4c-4.8-3.2-8-6-10.7-10.7s-1.7-9.5-1.7-9.5c0.1-0.2,0.1-0.4,0.1-0.6
			c0.1-0.5,0.1-0.9,0.1-1.3c0-0.8,0-1.8-0.3-2.7l3.5-3.6c0.5-0.5,0.5-1.3,0-1.7c-0.5-0.5-1.3-0.5-1.7,0l-3.3,3.3
			c-0.6-0.3-1.5-0.4-2.7,0l0,0c-1.1,0.3-1.9,1.1-2.7,2.3c-6.5,8.8,2.4,27.3,16.4,32.1C432.6,54,436.8,55.7,438.2,52z"/>
		<g>
			
				<ellipse transform="matrix(9.622760e-02 0.9954 -0.9954 9.622760e-02 454.76 -354.1071)" fill="#E30613" stroke="#FFFFFF" stroke-width="0.6174" stroke-miterlimit="10" cx="422.4" cy="73.4" rx="2.7" ry="3.3"/>
			<path fill="#F9B233" d="M438.4,69.2L438.4,69.2c-0.2,0.1-0.5-0.1-0.6-0.4l-1.1-4.3c-0.1-0.2,0.1-0.5,0.4-0.6l0,0
				c0.2-0.1,0.5,0.1,0.6,0.4l1.1,4.3C438.8,68.9,438.7,69.1,438.4,69.2z"/>
			
				<rect x="437.4" y="54.9" transform="matrix(-0.9219 -0.3875 0.3875 -0.9219 817.321 289.2993)" fill="#F9B233" width="0.9" height="14.7"/>
			
				<ellipse transform="matrix(-0.1458 0.9893 -0.9893 -0.1458 551.1135 -347.8381)" fill="#E30613" stroke="#FFFFFF" stroke-width="0.6174" stroke-miterlimit="10" cx="425.7" cy="64" rx="2.7" ry="3.3"/>
			
				<ellipse transform="matrix(-0.2089 0.9779 -0.9779 -0.2089 592.0114 -316.1983)" fill="#E30613" stroke="#FFFFFF" stroke-width="0.6174" stroke-miterlimit="10" cx="423.9" cy="81.4" rx="2.4" ry="3"/>
			
				<ellipse transform="matrix(-0.5227 -0.8525 0.8525 -0.5227 569.2596 492.2904)" fill="#E30613" stroke="#FFFFFF" stroke-width="0.6174" stroke-miterlimit="10" cx="422.4" cy="86.8" rx="2.8" ry="3.5"/>
			
				<ellipse transform="matrix(-0.9406 0.3394 -0.3394 -0.9406 876.5024 15.349)" fill="#E30613" stroke="#FFFFFF" stroke-width="0.6174" stroke-miterlimit="10" cx="436.9" cy="84.3" rx="2.2" ry="2.8"/>
			
				<ellipse transform="matrix(-1 -5.128751e-03 5.128751e-03 -1 867.2748 173.7194)" fill="#E30613" stroke="#FFFFFF" stroke-width="0.6174" stroke-miterlimit="10" cx="433.9" cy="85.7" rx="2.2" ry="2.8"/>
			
				<ellipse transform="matrix(-0.9647 -0.2633 0.2633 -0.9647 823.0838 273.5799)" fill="#E30613" stroke="#FFFFFF" stroke-width="0.6174" stroke-miterlimit="10" cx="429.9" cy="81.6" rx="2.3" ry="2.8"/>
			
				<ellipse transform="matrix(-0.8245 -0.5658 0.5658 -0.8245 736.5948 384.1125)" fill="#E30613" stroke="#FFFFFF" stroke-width="0.6174" stroke-miterlimit="10" cx="427.9" cy="77.8" rx="2.3" ry="2.8"/>
			
				<ellipse transform="matrix(-0.7109 0.7033 -0.7033 -0.7109 798.4705 -186.9421)" fill="#E30613" stroke="#FFFFFF" stroke-width="0.6174" stroke-miterlimit="10" cx="437.7" cy="70.6" rx="2.4" ry="3"/>
			
				<ellipse transform="matrix(-0.9973 7.374825e-02 -7.374825e-02 -0.9973 865.8895 119.1179)" fill="#E30613" stroke="#FFFFFF" stroke-width="0.6174" stroke-miterlimit="10" cx="430.7" cy="75.5" rx="2.8" ry="3.5"/>
			
				<ellipse transform="matrix(0.2355 -0.9719 0.9719 0.2355 257.4417 468.5562)" fill="#E30613" stroke="#FFFFFF" stroke-width="0.6174" stroke-miterlimit="10" cx="426.5" cy="70.6" rx="2.1" ry="2.7"/>
			
				<ellipse transform="matrix(0.5337 -0.8457 0.8457 0.5337 127.8129 400.377)" fill="#E30613" stroke="#FFFFFF" stroke-width="0.6174" stroke-miterlimit="10" cx="427" cy="84.3" rx="2.8" ry="3.5"/>
			
				<ellipse transform="matrix(0.5337 -0.8457 0.8457 0.5337 119.1854 400.1615)" fill="#E30613" stroke="#FFFFFF" stroke-width="0.6174" stroke-miterlimit="10" cx="422.4" cy="92" rx="2.8" ry="3.5"/>
			
				<ellipse transform="matrix(-0.7788 0.6273 -0.6273 -0.7788 822.7883 -107.2483)" fill="#E30613" stroke="#FFFFFF" stroke-width="0.6174" stroke-miterlimit="10" cx="430.3" cy="91.5" rx="2.8" ry="3.5"/>
			
				<ellipse transform="matrix(-0.6986 0.7155 -0.7155 -0.6986 801.9327 -156.7045)" fill="#E30613" stroke="#FFFFFF" stroke-width="0.6174" stroke-miterlimit="10" cx="434" cy="90.5" rx="2.2" ry="2.8"/>
			
				<ellipse transform="matrix(-0.9051 -0.4251 0.4251 -0.9051 766.9182 362.3791)" fill="#E30613" stroke="#FFFFFF" stroke-width="0.6174" stroke-miterlimit="10" cx="423.9" cy="95.6" rx="2.8" ry="3.5"/>
			
				<ellipse transform="matrix(-0.7071 -0.7071 0.7071 -0.7071 646.2687 460.1966)" fill="#E30613" stroke="#FFFFFF" stroke-width="0.6174" stroke-miterlimit="10" cx="418.4" cy="96.3" rx="2.8" ry="3.5"/>
			
				<ellipse transform="matrix(-0.7071 -0.7071 0.7071 -0.7071 646.295 469.4806)" fill="#E30613" stroke="#FFFFFF" stroke-width="0.6174" stroke-miterlimit="10" cx="420.4" cy="100.9" rx="2.8" ry="3.5"/>
			
				<ellipse transform="matrix(-0.9051 -0.4251 0.4251 -0.9051 774.563 363.6308)" fill="#E30613" stroke="#FFFFFF" stroke-width="0.6174" stroke-miterlimit="10" cx="427.9" cy="95.4" rx="2.8" ry="3.5"/>
			
				<ellipse transform="matrix(4.734097e-03 -1 1 4.734097e-03 337.1238 508.3203)" fill="#E30613" stroke="#FFFFFF" stroke-width="0.6174" stroke-miterlimit="10" cx="423.9" cy="84.8" rx="2.8" ry="3.5"/>
			
				<ellipse transform="matrix(-0.9051 -0.4251 0.4251 -0.9051 774.9948 351.8196)" fill="#E30613" stroke="#FFFFFF" stroke-width="0.6174" stroke-miterlimit="10" cx="426.8" cy="89.4" rx="2.8" ry="3.5"/>
			
				<ellipse transform="matrix(-0.8374 -0.5465 0.5465 -0.8374 750.41 385.1785)" fill="#E30613" stroke="#FFFFFF" stroke-width="0.6174" stroke-miterlimit="10" cx="432.5" cy="81" rx="2.3" ry="2.8"/>
			
				<ellipse transform="matrix(-0.8245 -0.5658 0.5658 -0.8245 753.0126 389.2913)" fill="#E30613" stroke="#FFFFFF" stroke-width="0.6174" stroke-miterlimit="10" cx="436.9" cy="77.9" rx="2.3" ry="2.8"/>
			
				<ellipse transform="matrix(-0.8245 -0.5658 0.5658 -0.8245 750.6049 371.5565)" fill="#E30613" stroke="#FFFFFF" stroke-width="0.6174" stroke-miterlimit="10" cx="432.9" cy="69.4" rx="2.3" ry="2.8"/>
			
				<ellipse transform="matrix(-0.9865 -0.1639 0.1639 -0.9865 853.4107 233.1295)" fill="#E30613" stroke="#FFFFFF" stroke-width="0.6174" stroke-miterlimit="10" cx="436.3" cy="81.4" rx="2.3" ry="2.8"/>
			
				<ellipse transform="matrix(-0.9051 -0.4251 0.4251 -0.9051 777.9952 332.6277)" fill="#E30613" stroke="#FFFFFF" stroke-width="0.6174" stroke-miterlimit="10" cx="426.1" cy="79.5" rx="2.1" ry="2.7"/>
			
				<ellipse transform="matrix(0.2355 -0.9719 0.9719 0.2355 253.3741 467.6449)" fill="#E30613" stroke="#FFFFFF" stroke-width="0.6174" stroke-miterlimit="10" cx="423.9" cy="72.8" rx="2.1" ry="2.7"/>
			
				<ellipse transform="matrix(-0.9406 0.3394 -0.3394 -0.9406 857.6849 50.7404)" fill="#E30613" stroke="#FFFFFF" stroke-width="0.6174" stroke-miterlimit="10" cx="424.4" cy="100.4" rx="2.2" ry="2.8"/>
			
				<ellipse transform="matrix(-1 -5.128751e-03 5.128751e-03 -1 864.4755 187.6096)" fill="#E30613" stroke="#FFFFFF" stroke-width="0.6174" stroke-miterlimit="10" cx="432.5" cy="92.7" rx="2.2" ry="2.8"/>
			
				<ellipse transform="matrix(-0.4251 0.9051 -0.9051 -0.4251 672.381 -296.2664)" fill="#E30613" stroke="#FFFFFF" stroke-width="0.6174" stroke-miterlimit="10" cx="430.3" cy="65.4" rx="2.4" ry="3"/>
			
				<ellipse transform="matrix(-0.9961 8.813984e-02 -8.813984e-02 -0.9961 873.671 104.4738)" fill="#E30613" stroke="#FFFFFF" stroke-width="0.6174" stroke-miterlimit="10" cx="434.5" cy="71.5" rx="2.4" ry="3"/>
			
				<ellipse transform="matrix(-4.217082e-02 0.9991 -0.9991 -4.217082e-02 532.4246 -360.5572)" fill="#E30613" stroke="#FFFFFF" stroke-width="0.6174" stroke-miterlimit="10" cx="439" cy="74.9" rx="2.4" ry="3"/>
			
				<ellipse transform="matrix(0.3588 0.9334 -0.9334 0.3588 342.8161 -346.6486)" fill="#E30613" stroke="#FFFFFF" stroke-width="0.6174" stroke-miterlimit="10" cx="423.7" cy="76.2" rx="2.7" ry="3.3"/>
			
				<ellipse transform="matrix(-0.7705 0.6375 -0.6375 -0.7705 830.5571 -138.4593)" fill="#E30613" stroke="#FFFFFF" stroke-width="0.6174" stroke-miterlimit="10" cx="440.2" cy="80.3" rx="2.8" ry="3.5"/>
			
				<ellipse transform="matrix(0.1454 -0.9894 0.9894 0.1454 295.6196 477.0161)" fill="#E30613" stroke="#FFFFFF" stroke-width="0.6174" stroke-miterlimit="10" cx="423.9" cy="67.4" rx="2.8" ry="3.6"/>
			
				<ellipse transform="matrix(-0.8643 -0.5029 0.5029 -0.8643 763.9829 351.6638)" fill="#E30613" stroke="#FFFFFF" stroke-width="0.6174" stroke-miterlimit="10" cx="429.4" cy="72.8" rx="2.8" ry="3.6"/>
			
				<ellipse transform="matrix(0.1454 -0.9894 0.9894 0.1454 299.43 481.4286)" fill="#E30613" stroke="#FFFFFF" stroke-width="0.6174" stroke-miterlimit="10" cx="428.4" cy="67.4" rx="2.8" ry="3.6"/>
			
				<ellipse transform="matrix(-0.6488 -0.761 0.761 -0.6488 646.2479 470.2408)" fill="#E30613" stroke="#FFFFFF" stroke-width="0.6174" stroke-miterlimit="10" cx="431.6" cy="86" rx="2.2" ry="2.8"/>
			
				<ellipse transform="matrix(-0.2469 0.969 -0.969 -0.2469 594.6796 -322.9329)" fill="#E30613" stroke="#FFFFFF" stroke-width="0.6174" stroke-miterlimit="10" cx="422.8" cy="69.6" rx="2.7" ry="3.3"/>
			
				<ellipse transform="matrix(-0.8245 -0.5658 0.5658 -0.8245 749.3157 386.2005)" fill="#E30613" stroke="#FFFFFF" stroke-width="0.6174" stroke-miterlimit="10" cx="434.5" cy="76.9" rx="2.3" ry="2.8"/>
			
				<ellipse transform="matrix(-0.4251 0.9051 -0.9051 -0.4251 676.5229 -298.8955)" fill="#E30613" stroke="#FFFFFF" stroke-width="0.6174" stroke-miterlimit="10" cx="433.2" cy="65.4" rx="2.4" ry="3"/>
		</g>
		<g>
			<path fill="#E30613" d="M416.2,539.5v45.1c0,0.4,0.3,0.7,0.6,0.7l15.6,1.8c0.1,0,0.3,0,0.4-0.1l5.5-3.1c0.2-0.1,0.4-0.4,0.4-0.6
				V539c0-0.1-0.1-0.3-0.1-0.4l-2.9-4.2c-0.1-0.1-0.1-0.3-0.1-0.4V531c0-0.4-0.4-0.8-0.8-0.8h-14.2c-0.4,0-0.8,0.4-0.8,0.8v3.1
				c0,0.1-0.1,0.3-0.1,0.4l-3.3,4.5C416.3,539.1,416.2,539.4,416.2,539.5z"/>
			<path fill="#27348B" d="M432.4,539.6l3.2-5.5c0-0.1,0.1-0.1,0.1,0l3,4.4c0,0.1,0,0.1-0.1,0.1l-6.2,1
				C432.4,539.8,432.4,539.7,432.4,539.6z"/>
			<path fill="#27348B" d="M428.7,536.2l-0.4-2.7l-5.9,1.1l0.4,2.5c0,0.1,0,0.1,0,0.1c0.1,0.7,1.6,1.1,3.3,0.8
				C427.5,537.8,428.7,537,428.7,536.2z"/>
			
				<ellipse transform="matrix(-0.1835 -0.983 0.983 -0.1835 -21.7341 1050.0292)" fill="#F39200" cx="425.2" cy="534" rx="1.3" ry="3"/>
			<path fill="#F39200" d="M416.2,577v7.6c0,0.4,0.3,0.7,0.6,0.7l15.6,1.8c0.1,0,0.3,0,0.4-0.1l5.5-3.1c0.2-0.1,0.4-0.4,0.4-0.6
				v-7.8l-6.3,2.9L416.2,577z"/>
		</g>
	</g>
</g>
</svg>
