<?xml version="1.0" encoding="utf-8"?>
<!-- Generator: Adobe Illustrator 19.1.0, SVG Export Plug-In . SVG Version: 6.00 Build 0)  -->
<svg version="1.1" id="Ebene_1" xmlns="http://www.w3.org/2000/svg" xmlns:xlink="http://www.w3.org/1999/xlink" x="0px" y="0px"
	 viewBox="-675 108.8 52.6 590.1" enable-background="new -675 108.8 52.6 590.1" xml:space="preserve">
<defs>
	<filter id="Adobe_OpacityMaskFilter" filterUnits="userSpaceOnUse" x="-675.3" y="118.7" width="52.9" height="580.2">
		<feColorMatrix  type="matrix" values="1 0 0 0 0  0 1 0 0 0  0 0 1 0 0  0 0 0 1 0"/>
	</filter>
</defs>
<mask maskUnits="userSpaceOnUse" x="-675.3" y="118.7" width="52.9" height="580.2" id="Layer_1_1_">
	<g filter="url(#Adobe_OpacityMaskFilter)">
		<rect x="-675.2" y="493.7" fill="#FFFFFF" width="52.8" height="205.2"/>
	</g>
</mask>
<g id="Layer_1" mask="url(#Layer_1_1_)">
	<rect x="-675.3" y="494" fill="#27348A" width="52.9" height="204.9"/>
	<g id="laufband">
		<g>
			<path fill="#FFFFFF" stroke="#27348B" stroke-width="0.7451" stroke-miterlimit="10" d="M-662.6,571.2c2.4-2.5,7.9-7.4,13.9-6.6
				c0.1,0,8.6,0.6,14.7,6.6c0.8,0.8,1.1,2.1,0.8,3.2c-0.8,2.4-2.3,6.9-3,9.4c-0.4,1.1-1.3,1.7-2.4,1.6c-3.3-0.4-8.8,1.2-13.1,2.8
				c-1.6,0.6-5.6-1.3-8.6-2.1c-1.1-0.3-2.1-1.3-2.2-2.4l-1.1-9.1C-663.8,573.3-663.5,572-662.6,571.2z"/>
			<path fill="#E30613" d="M-657.2,585.2v-5c0-0.1,0-0.1,0-0.1c-0.3-0.5-2.5-4.5-0.8-8.1c0,0,0-0.1,0.1-0.1c0.2-0.2,1.9-4,4.9-4.3
				c0.6-0.1,1,0.6,0.7,1.1c-0.4,0.6-0.8,1.2-1,1.6c-0.1,0.1,0,0.3,0.1,0.4c0.6,0.2,2.3,0.7,3.7-1.3c0.1-0.3,0.6-0.4,0.7-0.4
				c0.3,0,1-0.2,1.9,0.8c0.1,0.1,0.4,0.1,0.4-0.1c0-1.1,0.4-3.2,3.4-2c0,0,0,0,0.1,0c0.4,0.1,10.1,3.3,7.6,8.7l0,0
				c-0.1,0.3-1.6,5.6-6.8,6.9h-0.1c-0.3,0-7.4,2.3-9.2-0.1c-0.1-0.1-0.4-0.2-0.6-0.1c-1.3,0.8-2.5,1.9-3.9,2.5
				C-656.7,585.8-657.2,585.7-657.2,585.2z"/>
			<path fill="#E30613" d="M-635.2,579.9c0,0-1.2-0.3-3.8,2.3c-0.3,0.3-0.1,0.8,0.3,0.9c0.8,0.2,2.1,0.4,2.5-0.3
				C-636.1,582.9-635.2,579.9-635.2,579.9z"/>
			<path fill="#27348B" d="M-657.5,567.2c0,0-4.8,4-4.2,9.9c0.1,0.2,0.6,4.8,0.9,6.3c0.4,1.4,5.3,3.8,8,3.5c0,0,7.6-1.3,11-1.6
				c0.5,0-9.9,2.9-9.9,2.9s-2.5,0.6-6.5-1.4c0,0-4-0.4-4.3-3c0,0-1.7-10.2-0.8-11.5C-663.3,572.3-660.5,568.9-657.5,567.2z"/>
		</g>
		<g>
			<path fill="#F9B233" d="M-640.3,627.7h-16.2c-0.4,0-0.8-0.4-0.8-0.8v-32.6c0-0.4,0.4-0.8,0.8-0.8h16.2c0.4,0,0.8,0.4,0.8,0.8
				v32.6C-639.4,627.4-639.8,627.7-640.3,627.7z"/>
			<g>
				<g>
					<path fill="#F9B233" stroke="#FFFFFF" stroke-width="0.3325" stroke-miterlimit="10" d="M-649.2,605h-2.6
						c-0.4,0-0.8-0.4-0.8-0.8v-4c0-0.4,0.4-0.8,0.8-0.8h2.6c0.4,0,0.8,0.4,0.8,0.8v4C-648.3,604.7-648.7,605-649.2,605z"/>
					<path fill="#F9B233" stroke="#FFFFFF" stroke-width="0.3325" stroke-miterlimit="10" d="M-653.4,605h-2.6
						c-0.4,0-0.8-0.4-0.8-0.8v-4c0-0.4,0.4-0.8,0.8-0.8h2.6c0.4,0,0.8,0.4,0.8,0.8v4C-652.6,604.7-652.9,605-653.4,605z"/>
					<path fill="#F9B233" stroke="#FFFFFF" stroke-width="0.3325" stroke-miterlimit="10" d="M-644.9,605h-2.6
						c-0.4,0-0.8-0.4-0.8-0.8v-4c0-0.4,0.4-0.8,0.8-0.8h2.6c0.4,0,0.8,0.4,0.8,0.8v4C-644.2,604.7-644.5,605-644.9,605z"/>
					<path fill="#F9B233" stroke="#FFFFFF" stroke-width="0.3325" stroke-miterlimit="10" d="M-640.8,605h-2.6
						c-0.4,0-0.8-0.4-0.8-0.8v-4c0-0.4,0.4-0.8,0.8-0.8h2.6c0.4,0,0.8,0.4,0.8,0.8v4C-640,604.7-640.3,605-640.8,605z"/>
				</g>
				<g>
					<path fill="#F9B233" stroke="#FFFFFF" stroke-width="0.3325" stroke-miterlimit="10" d="M-649.2,610.6h-2.6
						c-0.4,0-0.8-0.4-0.8-0.8v-4c0-0.4,0.4-0.8,0.8-0.8h2.6c0.4,0,0.8,0.4,0.8,0.8v4C-648.3,610.3-648.7,610.6-649.2,610.6z"/>
					<path fill="#F9B233" stroke="#FFFFFF" stroke-width="0.3325" stroke-miterlimit="10" d="M-653.4,610.6h-2.6
						c-0.4,0-0.8-0.4-0.8-0.8v-4c0-0.4,0.4-0.8,0.8-0.8h2.6c0.4,0,0.8,0.4,0.8,0.8v4C-652.6,610.3-652.9,610.6-653.4,610.6z"/>
					<path fill="#F9B233" stroke="#FFFFFF" stroke-width="0.3325" stroke-miterlimit="10" d="M-644.9,610.6h-2.6
						c-0.4,0-0.8-0.4-0.8-0.8v-4c0-0.4,0.4-0.8,0.8-0.8h2.6c0.4,0,0.8,0.4,0.8,0.8v4C-644.2,610.3-644.5,610.6-644.9,610.6z"/>
					<path fill="#F9B233" stroke="#FFFFFF" stroke-width="0.3325" stroke-miterlimit="10" d="M-640.8,610.6h-2.6
						c-0.4,0-0.8-0.4-0.8-0.8v-4c0-0.4,0.4-0.8,0.8-0.8h2.6c0.4,0,0.8,0.4,0.8,0.8v4C-640,610.3-640.3,610.6-640.8,610.6z"/>
				</g>
				<g>
					<path fill="#F9B233" stroke="#FFFFFF" stroke-width="0.3325" stroke-miterlimit="10" d="M-649.2,616.1h-2.6
						c-0.4,0-0.8-0.4-0.8-0.8v-4c0-0.4,0.4-0.8,0.8-0.8h2.6c0.4,0,0.8,0.4,0.8,0.8v4C-648.3,615.8-648.7,616.1-649.2,616.1z"/>
					<path fill="#F9B233" stroke="#FFFFFF" stroke-width="0.3325" stroke-miterlimit="10" d="M-653.4,616.1h-2.6
						c-0.4,0-0.8-0.4-0.8-0.8v-4c0-0.4,0.4-0.8,0.8-0.8h2.6c0.4,0,0.8,0.4,0.8,0.8v4C-652.6,615.8-652.9,616.1-653.4,616.1z"/>
					<path fill="#F9B233" stroke="#FFFFFF" stroke-width="0.3325" stroke-miterlimit="10" d="M-644.9,616.1h-2.6
						c-0.4,0-0.8-0.4-0.8-0.8v-4c0-0.4,0.4-0.8,0.8-0.8h2.6c0.4,0,0.8,0.4,0.8,0.8v4C-644.2,615.8-644.5,616.1-644.9,616.1z"/>
					<path fill="#F9B233" stroke="#FFFFFF" stroke-width="0.3325" stroke-miterlimit="10" d="M-640.8,616.1h-2.6
						c-0.4,0-0.8-0.4-0.8-0.8v-4c0-0.4,0.4-0.8,0.8-0.8h2.6c0.4,0,0.8,0.4,0.8,0.8v4C-640,615.8-640.3,616.1-640.8,616.1z"/>
				</g>
				<g>
					<path fill="#F9B233" stroke="#FFFFFF" stroke-width="0.3325" stroke-miterlimit="10" d="M-649.2,621.7h-2.6
						c-0.4,0-0.8-0.4-0.8-0.8v-4c0-0.4,0.4-0.8,0.8-0.8h2.6c0.4,0,0.8,0.4,0.8,0.8v4C-648.3,621.4-648.7,621.7-649.2,621.7z"/>
					<path fill="#F9B233" stroke="#FFFFFF" stroke-width="0.3325" stroke-miterlimit="10" d="M-653.4,621.7h-2.6
						c-0.4,0-0.8-0.4-0.8-0.8v-4c0-0.4,0.4-0.8,0.8-0.8h2.6c0.4,0,0.8,0.4,0.8,0.8v4C-652.6,621.4-652.9,621.7-653.4,621.7z"/>
					<path fill="#F9B233" stroke="#FFFFFF" stroke-width="0.3325" stroke-miterlimit="10" d="M-644.9,621.7h-2.6
						c-0.4,0-0.8-0.4-0.8-0.8v-4c0-0.4,0.4-0.8,0.8-0.8h2.6c0.4,0,0.8,0.4,0.8,0.8v4C-644.2,621.4-644.5,621.7-644.9,621.7z"/>
					<path fill="#F9B233" stroke="#FFFFFF" stroke-width="0.3325" stroke-miterlimit="10" d="M-640.8,621.7h-2.6
						c-0.4,0-0.8-0.4-0.8-0.8v-4c0-0.4,0.4-0.8,0.8-0.8h2.6c0.4,0,0.8,0.4,0.8,0.8v4C-640,621.4-640.3,621.7-640.8,621.7z"/>
				</g>
				<g>
					<path fill="#F9B233" stroke="#FFFFFF" stroke-width="0.3325" stroke-miterlimit="10" d="M-649.2,627.3h-2.6
						c-0.4,0-0.8-0.4-0.8-0.8v-4c0-0.4,0.4-0.8,0.8-0.8h2.6c0.4,0,0.8,0.4,0.8,0.8v4C-648.3,627-648.7,627.3-649.2,627.3z"/>
					<path fill="#F9B233" stroke="#FFFFFF" stroke-width="0.3325" stroke-miterlimit="10" d="M-653.4,627.3h-2.6
						c-0.4,0-0.8-0.4-0.8-0.8v-4c0-0.4,0.4-0.8,0.8-0.8h2.6c0.4,0,0.8,0.4,0.8,0.8v4C-652.6,627-652.9,627.3-653.4,627.3z"/>
					<path fill="#F9B233" stroke="#FFFFFF" stroke-width="0.3325" stroke-miterlimit="10" d="M-644.9,627.3h-2.6
						c-0.4,0-0.8-0.4-0.8-0.8v-4c0-0.4,0.4-0.8,0.8-0.8h2.6c0.4,0,0.8,0.4,0.8,0.8v4C-644.2,627-644.5,627.3-644.9,627.3z"/>
					<path fill="#F9B233" stroke="#FFFFFF" stroke-width="0.3325" stroke-miterlimit="10" d="M-640.8,627.3h-2.6
						c-0.4,0-0.8-0.4-0.8-0.8v-4c0-0.4,0.4-0.8,0.8-0.8h2.6c0.4,0,0.8,0.4,0.8,0.8v4C-640,627-640.3,627.3-640.8,627.3z"/>
				</g>
				<g>
					<path fill="#F9B233" stroke="#FFFFFF" stroke-width="0.3325" stroke-miterlimit="10" d="M-649.2,599.5h-2.6
						c-0.4,0-0.8-0.4-0.8-0.8v-4c0-0.4,0.4-0.8,0.8-0.8h2.6c0.4,0,0.8,0.4,0.8,0.8v4C-648.3,599.1-648.7,599.5-649.2,599.5z"/>
					<path fill="#F9B233" stroke="#FFFFFF" stroke-width="0.3325" stroke-miterlimit="10" d="M-653.4,599.5h-2.6
						c-0.4,0-0.8-0.4-0.8-0.8v-4c0-0.4,0.4-0.8,0.8-0.8h2.6c0.4,0,0.8,0.4,0.8,0.8v4C-652.6,599.1-652.9,599.5-653.4,599.5z"/>
					<path fill="#F9B233" stroke="#FFFFFF" stroke-width="0.3325" stroke-miterlimit="10" d="M-644.9,599.5h-2.6
						c-0.4,0-0.8-0.4-0.8-0.8v-4c0-0.4,0.4-0.8,0.8-0.8h2.6c0.4,0,0.8,0.4,0.8,0.8v4C-644.2,599.1-644.5,599.5-644.9,599.5z"/>
					<path fill="#F9B233" stroke="#FFFFFF" stroke-width="0.3325" stroke-miterlimit="10" d="M-640.8,599.5h-2.6
						c-0.4,0-0.8-0.4-0.8-0.8v-4c0-0.4,0.4-0.8,0.8-0.8h2.6c0.4,0,0.8,0.4,0.8,0.8v4C-640,599.1-640.3,599.5-640.8,599.5z"/>
				</g>
			</g>
		</g>
		<g>
			<path fill="#F9B233" d="M-645.1,526.2c2.8-2.3,1.3-10.2-3.6-10.9c-2.4-0.4-6.1,0.3-6.2,3.8c-0.1,2.7,1.1,3.6,1.7,3.9
				c0.2,0.1,0.3,0.3,0.3,0.5c-0.1,0.8-0.3,2.7,0.8,3.5C-650.7,527.9-648.8,529.3-645.1,526.2z M-653.4,520.2
				c-0.6-2.2,1.9-2.6,3.1-2.8c0.3,0,0.6,0.2,0.5,0.6l-0.4,2.6c0,0.2-0.1,0.4-0.4,0.4C-651.2,521.3-653,521.7-653.4,520.2z
				 M-648.6,521.6c-0.1-0.1-0.2-0.3-0.2-0.5l0.6-3.3c0.1-0.4,0.4-0.5,0.8-0.3c3.2,2.1,2.4,4.6,1.9,5.7c-0.1,0.3-0.5,0.4-0.7,0.1
				L-648.6,521.6z M-651.2,525.3c-0.8-1.4,0.8-2.3,1.5-2.6c0.1-0.1,0.4-0.1,0.5,0.1l2.1,1.6c0.2,0.2,0.3,0.6,0,0.8
				C-648,526-650.1,527.4-651.2,525.3z"/>
			<path fill="#F9B233" d="M-639.7,551.2c2.1-3-1.3-10.2-6.3-9.6c-2.5,0.3-5.8,1.8-5,5.3c0.6,2.6,2,3.2,2.7,3.3
				c0.2,0.1,0.4,0.2,0.4,0.4c0.1,0.8,0.4,2.7,1.8,3.2C-644.6,554.3-642.5,555.1-639.7,551.2z M-649.3,547.5c-1.1-2,1.1-3,2.3-3.5
				c0.3-0.1,0.6,0.1,0.6,0.4l0.4,2.7c0,0.2-0.1,0.4-0.2,0.4C-646.8,548-648.5,549-649.3,547.5z M-644.3,547.6
				c-0.1-0.1-0.3-0.2-0.3-0.4l-0.3-3.3c0-0.4,0.3-0.6,0.6-0.5c3.6,1.2,3.5,3.8,3.3,5c-0.1,0.3-0.4,0.5-0.6,0.4L-644.3,547.6z
				 M-645.8,552c-1.1-1.1,0.2-2.5,0.8-2.9c0.1-0.1,0.4-0.1,0.5-0.1l2.5,1.1c0.3,0.1,0.4,0.5,0.2,0.7
				C-642.5,551.7-644.2,553.6-645.8,552z"/>
			<path fill="#F9B233" d="M-648.1,514.4c3.4,1.3,9.6-3.7,7.9-8.4c-0.8-2.3-3.2-5.2-6.3-3.6c-2.4,1.2-2.6,2.7-2.5,3.3
				c0,0.2-0.1,0.4-0.4,0.5c-0.8,0.3-2.5,1.1-2.7,2.5C-652.4,510.4-652.6,512.7-648.1,514.4z M-646.8,504.2c1.6-1.6,3.3,0.4,3.9,1.4
				c0.1,0.3,0.1,0.6-0.2,0.7l-2.5,0.9c-0.1,0.1-0.4,0-0.5-0.1C-646.8,506.7-648,505.4-646.8,504.2z M-645.8,509.1
				c0-0.2,0.1-0.4,0.4-0.4l3.2-1.1c0.4-0.1,0.6,0.1,0.6,0.5c-0.4,3.8-2.9,4.3-4,4.4c-0.3,0-0.6-0.3-0.5-0.6L-645.8,509.1z
				 M-650.4,508.7c0.8-1.3,2.4-0.4,3,0.1c0.1,0.1,0.2,0.3,0.2,0.5l-0.4,2.6c-0.1,0.3-0.4,0.5-0.6,0.4
				C-649.3,511.7-651.6,510.6-650.4,508.7z"/>
			<path fill="#F9B233" d="M-641.4,525.8c-3.6-0.4-8.1,6.2-5.2,10.2c1.5,2,4.5,4.1,7.1,1.7c2-1.8,1.8-3.3,1.6-4
				c-0.1-0.2,0-0.4,0.2-0.6c0.7-0.5,2.1-1.7,1.9-3.1C-636.2,528.6-636.5,526.3-641.4,525.8z M-639.8,536c-1.1,2-3.2,0.5-4.1-0.3
				c-0.2-0.2-0.2-0.6,0-0.8l2.1-1.6c0.1-0.1,0.4-0.1,0.5-0.1C-640.5,533.7-639,534.6-639.8,536z M-642.2,531.6
				c0,0.2-0.1,0.4-0.2,0.5l-2.8,1.8c-0.3,0.2-0.7,0-0.8-0.3c-0.7-3.8,1.6-5,2.7-5.3c0.3-0.1,0.6,0.1,0.6,0.4L-642.2,531.6z
				 M-637.6,530.8c-0.5,1.6-2.2,1.1-2.9,0.8c-0.1-0.1-0.3-0.2-0.3-0.4l-0.4-2.7c-0.1-0.3,0.2-0.6,0.5-0.6
				C-639.5,528.1-637,528.6-637.6,530.8z"/>
			<path fill="#F9B233" d="M-654.6,528.4c-3.6-0.4-8.2,6.2-5.2,10.2c1.5,2,4.5,4.1,7.1,1.7c2-1.8,1.8-3.3,1.6-4
				c-0.1-0.2,0-0.4,0.2-0.6c0.7-0.5,2.1-1.7,1.9-3.1C-649.4,531.1-649.8,528.9-654.6,528.4z M-653.1,538.5c-1.1,2-3.2,0.5-4.1-0.3
				c-0.2-0.2-0.2-0.6,0-0.8l2.1-1.6c0.1-0.1,0.4-0.1,0.5-0.1C-653.8,536.2-652.3,537.1-653.1,538.5z M-655.5,534.1
				c0,0.2-0.1,0.4-0.2,0.5l-2.8,1.8c-0.3,0.2-0.7,0-0.8-0.3c-0.7-3.8,1.6-5,2.7-5.3c0.3-0.1,0.6,0.1,0.6,0.4L-655.5,534.1z
				 M-650.9,533.3c-0.5,1.6-2.2,1.1-2.9,0.8c-0.1-0.1-0.3-0.2-0.3-0.4l-0.3-2.7c-0.1-0.3,0.2-0.6,0.5-0.6
				C-652.7,530.6-650.2,531.1-650.9,533.3z"/>
		</g>
		<g>
			<path fill="#F9B233" d="M-648.3,469.6L-648.3,469.6c-0.3,0-0.6-0.3-0.6-0.6v-5.3c0-0.3,0.3-0.6,0.6-0.6l0,0
				c0.3,0,0.6,0.3,0.6,0.6v5.3C-647.8,469.3-648,469.6-648.3,469.6z"/>
			<ellipse fill="#F9B233" cx="-642.7" cy="463.5" rx="6.2" ry="3.5"/>
			<path fill="#E30613" d="M-648.3,469.4c-7.9-4.9-13,1.7-13,8.7c0,7.1,5.7,12.8,12.8,12.8c0.1,0,0.1,0,0.1,0c0.1,0,0.1,0,0.1,0
				c7.1,0,12.8-5.7,12.8-12.8C-635.3,471.1-640.5,464.5-648.3,469.4z"/>
		</g>
		<g>
			<path fill="#F9B233" d="M-654.5,325.9c0.1,0.1,0.4,0.1,0.5-0.1c0.1-0.1,0.1-0.1,0.1,0c0.2,0.1,0.4,0.1,0.5-0.1
				c0-0.1,0.1-0.1,0.1,0c0.2,0.1,0.4,0.1,0.5-0.1c0.1-0.1,0.1-0.1,0.1,0c0.2,0.1,0.4,0.1,0.5-0.1c0-0.1,0.1-0.1,0.1,0
				c0.2,0.1,0.4,0.1,0.5-0.1c0,0,0.1-0.1,0.1,0c0.2,0.1,0.4,0.1,0.5-0.1c0-0.1,0.1-0.1,0.1,0c0.2,0.1,0.4,0.1,0.5-0.1
				c0,0,0-0.1,0.1-0.1l0,0h0.1c0.2,0.1,0.4,0.1,0.5-0.1c0.1-0.1,0.1-0.1,0.1,0c0.2,0.1,0.4,0.1,0.5-0.1c0.1-0.1,0.1-0.1,0.1-0.1
				c0.3,0.1,0.6,0.1,0.8-0.1l0,0c0.1-0.1,0.2-0.3,0.3-0.5c0.1-0.3-0.1-0.6-0.3-0.8c-0.1-0.1-0.1-0.1,0-0.1c0.1-0.1,0.1-0.4-0.1-0.5
				c-0.1-0.1-0.1-0.1,0-0.1c0.1-0.2,0.1-0.4-0.1-0.5c-0.1,0-0.1-0.1,0-0.1c0.1-0.2,0.1-0.4-0.1-0.5c-0.1-0.1-0.1-0.1,0-0.1
				c0.1-0.2,0.1-0.4-0.1-0.5c-0.1,0-0.1-0.1,0-0.1v-0.1c0.1-0.1,0.1-0.4-0.1-0.5c-0.1,0-0.1-0.1-0.1-0.1l0,0c0-0.1,0.1-0.1,0.1-0.1
				c0.1-0.1,0-0.3-0.1-0.4c0,0-0.1,0-0.1-0.1l0,0c0-0.1,0.1-0.1,0.1-0.1c0.1-0.1,0-0.3-0.1-0.4c-0.1-0.1-0.1-0.1,0-0.1
				c0.1-0.2,0.1-0.4-0.1-0.5c-0.1,0-0.1-0.1,0-0.1c0.1-0.2,0.1-0.4-0.1-0.5c0,0-0.1-0.1,0-0.1c0.1-0.2,0.1-0.4-0.1-0.5
				c-0.1,0-0.1-0.1,0-0.1c0.1-0.2,0.1-0.4-0.1-0.5c0,0-0.1,0-0.1-0.1l0,0v-0.1c0.1-0.2,0.1-0.4-0.1-0.5c-0.1-0.1-0.1-0.1,0-0.1
				c0.1-0.2,0.1-0.4-0.1-0.5c-0.1-0.1-0.1-0.1-0.1-0.1c0.1-0.3,0.1-0.6-0.1-0.8c-0.1-0.1-0.3-0.3-0.4-0.3l0,0l0,0l0,0
				c-0.1,0-0.2,0-0.4,0c0,0,0,0-0.1,0c-0.1,0.1-0.3,0.1-0.4,0.3c-0.1,0.1-0.1,0.1-0.1,0c-0.1-0.1-0.4-0.1-0.5,0.1
				c-0.1,0.1-0.1,0.1-0.1,0c-0.2-0.1-0.4-0.1-0.5,0.1c0,0.1-0.1,0.1-0.1,0c-0.2-0.1-0.4-0.1-0.5,0.1c-0.1,0.1-0.1,0.1-0.1,0
				c-0.2-0.1-0.4-0.1-0.5,0.1c0,0.1-0.1,0.1-0.1,0c-0.2-0.1-0.4-0.1-0.5,0.1c0,0-0.1,0.1-0.1,0c-0.2-0.1-0.4-0.1-0.5,0.1
				c0,0.1-0.1,0.1-0.1,0c-0.2-0.1-0.4-0.1-0.5,0.1c0,0,0,0.1-0.1,0.1l0,0h-0.1c-0.2-0.1-0.4-0.1-0.5,0.1c-0.1,0.1-0.1,0.1-0.1,0
				c-0.2-0.1-0.4-0.1-0.5,0.1c-0.1,0.1-0.1,0.1-0.1,0.1c-0.3-0.1-0.6-0.1-0.8,0.1l0,0c-0.1,0.1-0.3,0.3-0.3,0.5
				c-0.1,0.3,0.1,0.6,0.3,0.8c0.1,0.1,0.1,0.1,0,0.1c-0.1,0.1-0.1,0.4,0.1,0.5c0.1,0.1,0.1,0.1,0,0.1c-0.1,0.2-0.1,0.4,0.1,0.5
				c0.1,0,0.1,0.1,0,0.1c-0.1,0.2-0.1,0.4,0.1,0.5c0.1,0.1,0.1,0.1,0,0.1c-0.1,0.2-0.1,0.4,0.1,0.5c0.1,0,0.1,0.1,0,0.1v0.1
				c-0.1,0.1-0.1,0.4,0.1,0.5c0.1,0,0.1,0.1,0.1,0.1l0,0c0,0.1-0.1,0.1-0.1,0.1c-0.1,0.1,0,0.3,0.1,0.4c0,0,0.1,0,0.1,0.1l0,0
				c0,0.1-0.1,0.1-0.1,0.1c-0.1,0.1,0,0.3,0.1,0.4c0.1,0.1,0.1,0.1,0,0.1c-0.1,0.2-0.1,0.4,0.1,0.5c0.1,0,0.1,0.1,0,0.1
				c-0.1,0.2-0.1,0.4,0.1,0.5c0,0,0.1,0.1,0,0.1c-0.1,0.2-0.1,0.4,0.1,0.5c0.1,0,0.1,0.1,0,0.1c-0.1,0.2-0.1,0.4,0.1,0.5
				c0,0,0.1,0,0.1,0.1l0,0v0.1c-0.1,0.2-0.1,0.4,0.1,0.5c0.1,0.1,0.1,0.1,0,0.1c-0.1,0.2-0.1,0.4,0.1,0.5c0.1,0.1,0.1,0.1,0.1,0.1
				c-0.1,0.3-0.1,0.6,0.1,0.8c0.1,0.2,0.4,0.3,0.6,0.3C-655,326.2-654.8,326.1-654.5,325.9L-654.5,325.9z"/>
			<path fill="#F9B233" d="M-646,330.5c0.1,0.2,0.3,0.3,0.5,0.1c0.1-0.1,0.1-0.1,0.1,0c0.1,0.2,0.3,0.2,0.5,0.1c0.1,0,0.1,0,0.1,0
				c0.1,0.2,0.3,0.2,0.5,0.1c0.1,0,0.1,0,0.1,0c0.1,0.2,0.3,0.2,0.5,0.1c0.1,0,0.1-0.1,0.1,0c0.1,0.2,0.3,0.2,0.5,0.1
				c0.1,0,0.1,0,0.1,0c0.1,0.2,0.3,0.3,0.5,0.1c0.1,0,0.1,0,0.1,0c0.1,0.2,0.3,0.2,0.5,0.1h0.1l0,0c0,0,0.1,0,0.1,0.1
				c0.1,0.1,0.3,0.2,0.5,0.1c0.1-0.1,0.1,0,0.1,0c0.1,0.2,0.4,0.2,0.5,0.1c0.1-0.1,0.1-0.1,0.1,0c0.2,0.2,0.5,0.4,0.8,0.2l0,0
				c0.1-0.1,0.4-0.1,0.4-0.4c0.2-0.3,0.2-0.6,0.1-0.8c-0.1-0.1,0-0.1,0.1-0.1c0.2-0.1,0.3-0.3,0.1-0.5c-0.1-0.1-0.1-0.1,0-0.1
				c0.2-0.1,0.2-0.3,0.1-0.5c0-0.1,0-0.1,0-0.1c0.2-0.1,0.2-0.3,0.1-0.5c0-0.1,0-0.1,0-0.1c0.2-0.1,0.2-0.3,0.1-0.5
				c0-0.1-0.1-0.1,0-0.1c0,0,0.1,0,0.1-0.1c0.1-0.1,0.2-0.3,0.1-0.5c0-0.1-0.1-0.1,0-0.1l0,0c0.1,0,0.1-0.1,0.1-0.1
				c0.1-0.1,0.1-0.3,0-0.4v-0.1l0,0c0.1,0,0.1-0.1,0.1-0.1c0.1-0.1,0.1-0.2,0-0.4c0-0.1,0-0.1,0-0.1c0.2-0.1,0.2-0.3,0.1-0.5
				c0-0.1-0.1-0.1,0-0.1c0.2-0.1,0.2-0.3,0.1-0.5c0-0.1,0-0.1,0-0.1c0.2-0.1,0.3-0.3,0.1-0.5c0-0.1,0-0.1,0-0.1
				c0.2-0.1,0.2-0.3,0.1-0.5v-0.1l0,0c0,0,0-0.1,0.1-0.1c0.1-0.1,0.2-0.3,0.1-0.5c-0.1-0.1,0-0.1,0-0.1c0.2-0.1,0.2-0.4,0.1-0.5
				s-0.1-0.1,0-0.1c0.2-0.2,0.4-0.5,0.2-0.8c-0.1-0.2-0.1-0.4-0.3-0.4l0,0l0,0l0,0c-0.1-0.1-0.2-0.1-0.3-0.1c0,0,0,0-0.1,0
				c-0.1,0-0.4,0-0.5,0.1c-0.1,0.1-0.1,0-0.1-0.1c-0.1-0.2-0.3-0.3-0.5-0.1c-0.1,0.1-0.1,0.1-0.1,0c-0.1-0.2-0.3-0.2-0.5-0.1
				c-0.1,0-0.1,0-0.1,0c-0.1-0.2-0.3-0.2-0.5-0.1c-0.1,0-0.1,0-0.1,0c-0.1-0.2-0.3-0.2-0.5-0.1c-0.1,0-0.1,0.1-0.1,0
				c-0.1-0.2-0.3-0.2-0.5-0.1c-0.1,0-0.1,0-0.1,0c-0.1-0.2-0.3-0.3-0.5-0.1c-0.1,0-0.1,0-0.1,0c-0.1-0.2-0.3-0.2-0.5-0.1h-0.1l0,0
				c0,0-0.1,0-0.1-0.1c-0.1-0.1-0.3-0.2-0.5-0.1c-0.1,0.1-0.1,0-0.1,0c-0.1-0.2-0.4-0.2-0.5-0.1c-0.1,0.1-0.1,0.1-0.1,0
				c-0.2-0.2-0.5-0.4-0.8-0.2l0,0c-0.2,0.1-0.4,0.1-0.5,0.4c-0.2,0.3-0.2,0.6-0.1,0.8c0.1,0.1,0,0.1-0.1,0.1
				c-0.2,0.1-0.3,0.3-0.1,0.5c0.1,0.1,0.1,0.1,0,0.1c-0.2,0.1-0.2,0.3-0.1,0.5c0,0.1,0,0.1,0,0.1c-0.2,0.1-0.2,0.3-0.1,0.5
				c0,0.1,0,0.1,0,0.1c-0.2,0.1-0.2,0.3-0.1,0.5c0,0.1,0.1,0.1,0,0.1c0,0-0.1,0-0.1,0.1c-0.1,0.1-0.2,0.3-0.1,0.5
				c0,0.1,0.1,0.1,0,0.1l0,0c-0.1,0-0.1,0.1-0.1,0.1c-0.1,0.1-0.1,0.3,0,0.4v0.1l0,0c-0.1,0-0.1,0.1-0.1,0.1c-0.1,0.1-0.1,0.2,0,0.4
				c0,0.1,0,0.1,0,0.1c-0.2,0.1-0.2,0.3-0.1,0.5c0,0.1,0.1,0.1,0,0.1c-0.2,0.1-0.2,0.3-0.1,0.5c0,0.1,0,0.1,0,0.1
				c-0.2,0.1-0.3,0.3-0.1,0.5c0,0.1,0,0.1,0,0.1c-0.2,0.1-0.2,0.3-0.1,0.5v0.1l0,0c0,0,0,0.1-0.1,0.1c-0.1,0.1-0.2,0.3-0.1,0.5
				c0.1,0.1,0,0.1,0,0.1c-0.2,0.1-0.2,0.4-0.1,0.5c0.1,0.1,0.1,0.1,0,0.1c-0.2,0.2-0.4,0.5-0.2,0.8c0.1,0.2,0.2,0.4,0.4,0.5
				C-646.6,330.5-646.3,330.5-646,330.5C-646,330.4-646,330.5-646,330.5z"/>
			<path fill="#F9B233" d="M-655.8,338.7c0.1,0.2,0.4,0.2,0.5,0.1s0.1-0.1,0.1,0c0.1,0.1,0.4,0.1,0.5,0c0.1-0.1,0.1,0,0.1,0
				c0.2,0.2,0.4,0.2,0.5,0c0.1-0.1,0.1-0.1,0.1,0c0.1,0.1,0.4,0.1,0.5,0c0.1-0.1,0.1-0.1,0.1,0c0.2,0.2,0.4,0.2,0.6,0
				c0,0,0.1-0.1,0.1,0c0.2,0.2,0.4,0.2,0.5,0c0.1,0,0.1-0.1,0.1,0c0.1,0.2,0.4,0.2,0.5,0h0.1l0,0c0,0,0.1,0,0.1,0.1
				c0.1,0.1,0.4,0.1,0.5,0c0.1-0.1,0.1-0.1,0.1,0c0.1,0.1,0.4,0.1,0.5,0s0.1-0.1,0.1,0c0.3,0.2,0.6,0.2,0.8,0.1l0,0
				c0.1-0.1,0.3-0.2,0.4-0.4c0.1-0.3,0.1-0.6-0.1-0.8c-0.1-0.1,0-0.1,0-0.1c0.2-0.1,0.2-0.4,0.1-0.5s-0.1-0.1,0-0.1
				c0.1-0.1,0.1-0.4,0-0.5s0-0.1,0-0.1c0.2-0.2,0.2-0.4,0-0.5c-0.1-0.1-0.1-0.1,0-0.1c0.1-0.1,0.1-0.4,0-0.5s-0.1-0.1,0-0.1
				c0,0,0,0,0.1-0.1c0.1-0.1,0.1-0.4,0-0.5c0,0-0.1-0.1,0-0.1l0,0c0.1-0.1,0.1-0.1,0.1-0.1c0.1-0.1,0.1-0.3-0.1-0.4V334l0,0
				c0.1-0.1,0.1-0.1,0.1-0.1c0.1-0.1,0.1-0.3-0.1-0.4c-0.1-0.1-0.1-0.1,0-0.1c0.1-0.1,0.1-0.4,0-0.5c-0.1-0.1-0.1-0.1,0-0.1
				c0.2-0.2,0.2-0.4,0-0.6c0,0-0.1-0.1,0-0.1c0.2-0.2,0.2-0.4,0-0.5c0-0.1-0.1-0.1,0-0.1c0.2-0.1,0.2-0.4,0-0.5v-0.1l0,0
				c0,0,0-0.1,0.1-0.1c0.1-0.1,0.1-0.4,0-0.5s-0.1-0.1,0-0.1c0.1-0.1,0.1-0.4,0-0.5s-0.1-0.1,0-0.1c0.2-0.3,0.2-0.6,0.1-0.8
				c-0.1-0.1-0.2-0.3-0.4-0.4l0,0l0,0l0,0c-0.1-0.1-0.2-0.1-0.3-0.1c0,0,0,0-0.1,0c-0.1,0-0.4,0.1-0.5,0.2c-0.1,0.1-0.1,0-0.1,0
				c-0.1-0.2-0.4-0.2-0.5-0.1s-0.1,0.1-0.1,0c-0.1-0.1-0.4-0.1-0.5,0c-0.1,0.1-0.1,0-0.1,0c-0.2-0.2-0.4-0.2-0.5,0
				c-0.1,0.1-0.1,0.1-0.1,0c-0.1-0.1-0.4-0.1-0.5,0c-0.1,0.1-0.1,0.1-0.1,0c-0.2-0.2-0.4-0.2-0.6,0c0,0-0.1,0.1-0.1,0
				c-0.2-0.2-0.4-0.2-0.5,0c-0.1,0-0.1,0.1-0.1,0c-0.1-0.2-0.4-0.2-0.5,0h-0.1l0,0c0,0-0.1,0-0.1-0.1c-0.1-0.1-0.4-0.1-0.5,0
				c-0.1,0.1-0.1,0.1-0.1,0c-0.1-0.1-0.4-0.1-0.5,0s-0.1,0.1-0.1,0c-0.3-0.2-0.6-0.2-0.8-0.1l0,0c-0.2,0.1-0.4,0.2-0.4,0.4
				c-0.1,0.3-0.1,0.6,0.1,0.8c0.1,0.1,0,0.1,0,0.1c-0.2,0.1-0.2,0.4-0.1,0.5s0.1,0.1,0,0.1c-0.1,0.1-0.1,0.4,0,0.5s0,0.1,0,0.1
				c-0.2,0.2-0.2,0.4,0,0.5c0.1,0.1,0.1,0.1,0,0.1c-0.1,0.1-0.1,0.4,0,0.5s0.1,0.1,0,0.1c0,0,0,0-0.1,0.1c-0.1,0.1-0.1,0.4,0,0.5
				c0,0,0.1,0.1,0,0.1l0,0c-0.1,0.1-0.1,0.1-0.1,0.1c-0.1,0.1-0.1,0.3,0.1,0.4v0.1l0,0c-0.1,0.1-0.1,0.1-0.1,0.1
				c-0.1,0.1-0.1,0.3,0.1,0.4c0.1,0.1,0.1,0.1,0,0.1c-0.1,0.1-0.1,0.4,0,0.5c0.1,0.1,0.1,0.1,0,0.1c-0.2,0.2-0.2,0.4,0,0.6
				c0,0,0.1,0.1,0,0.1c-0.2,0.2-0.2,0.4,0,0.5c0,0.1,0.1,0.1,0,0.1c-0.2,0.1-0.2,0.4,0,0.5v0.1l0,0c0,0,0,0.1-0.1,0.1
				c-0.1,0.1-0.1,0.4,0,0.5s0.1,0.1,0,0.1c-0.1,0.1-0.1,0.4,0,0.5s0.1,0.1,0,0.1c-0.2,0.3-0.2,0.6-0.1,0.8c0.1,0.2,0.3,0.4,0.5,0.4
				c0.3,0.1,0.5,0.1,0.8-0.1C-655.8,338.6-655.8,338.6-655.8,338.7z"/>
		</g>
		<g>
			<g>
				<path fill="#F9B233" stroke="#FFFFFF" stroke-width="0.5842" stroke-miterlimit="10" d="M-652.7,215.3l3,3.4l5.9,6.9
					c0.8,0.8,1.9,1.3,2.3,1.1c0.6-0.4,0.8-4,0.1-4.9l-3-3.4l-5.9-6.9c-0.8-0.8-1.9-1.3-2.3-1.1
					C-653.3,210.8-653.5,214.4-652.7,215.3z"/>
				<path fill="#E30613" stroke="#FFFFFF" stroke-width="0.7302" stroke-miterlimit="10" d="M-651.6,214.9c-0.4,0.3-0.7,0.3-1.1-0.6
					c-0.4-1.1-0.3-3.5,0.3-3.7C-650.7,210.3-651.2,214.7-651.6,214.9z"/>
			</g>
			<g>
				<path fill="#F9B233" stroke="#FFFFFF" stroke-width="0.5842" stroke-miterlimit="10" d="M-640.2,242.4l-4.5,0.8l-9,1.6
					c-1.1,0.2-2.1,0.9-2.1,1.5c0.1,0.7,3,2.7,4.2,2.5l4.5-0.8l9-1.6c1.1-0.2,2.1-0.9,2.1-1.5C-636.1,244.2-639.1,242.2-640.2,242.4z
					"/>
				<path fill="#E30613" stroke="#FFFFFF" stroke-width="0.7302" stroke-miterlimit="10" d="M-640.5,243.5c-0.1-0.5,0.1-0.8,1.1-0.6
					c1.1,0.1,3.2,1.5,3,2.1C-636.9,246.7-640.4,244-640.5,243.5z"/>
			</g>
			<g>
				<path fill="#F9B233" stroke="#FFFFFF" stroke-width="0.5842" stroke-miterlimit="10" d="M-632.8,231.5l-1.7-4.2l-3.4-8.5
					c-0.4-1.1-1.3-1.9-1.9-1.8c-0.7,0.2-2.1,3.5-1.6,4.6l1.7,4.2l3.4,8.5c0.4,1.1,1.3,1.9,1.9,1.8
					C-633.7,235.9-632.3,232.6-632.8,231.5z"/>
				<path fill="#E30613" stroke="#FFFFFF" stroke-width="0.7302" stroke-miterlimit="10" d="M-634,231.4c0.4-0.1,0.8,0,0.8,0.8
					c0.1,1.1-0.8,3.4-1.4,3.4C-636.3,235.5-634.4,231.6-634,231.4z"/>
			</g>
			<g>
				<path fill="#F9B233" stroke="#FFFFFF" stroke-width="0.5842" stroke-miterlimit="10" d="M-659.1,240.1l-0.7-4.5l-1.4-9.1
					c-0.1-1.1-0.8-2.2-1.5-2.1c-0.7,0.1-2.8,3-2.6,4.1l0.7,4.5l1.4,9.1c0.1,1.1,0.8,2.2,1.5,2.1
					C-660.9,244.2-658.9,241.3-659.1,240.1z"/>
				<path fill="#E30613" stroke="#FFFFFF" stroke-width="0.7302" stroke-miterlimit="10" d="M-660.2,239.9c0.5,0,0.8,0.1,0.6,1.1
					c-0.2,1.1-1.6,3.1-2.1,3C-663.4,243.3-660.6,239.9-660.2,239.9z"/>
			</g>
			<g>
				<path fill="#F9B233" stroke="#FFFFFF" stroke-width="0.5842" stroke-miterlimit="10" d="M-654.9,231.9h4.5h9.1
					c1.1,0,2.3-0.5,2.3-1.1c0.1-0.7-2.5-3.2-3.7-3.2h-4.5h-9.1c-1.1,0-2.3,0.5-2.3,1.1C-658.6,229.5-656,231.9-654.9,231.9z"/>
				<path fill="#E30613" stroke="#FFFFFF" stroke-width="0.7302" stroke-miterlimit="10" d="M-654.4,230.8c-0.1,0.5-0.3,0.7-1.1,0.4
					c-1.1-0.4-2.8-2.1-2.6-2.5C-657.3,227.1-654.3,230.4-654.4,230.8z"/>
			</g>
			<g>
				<path fill="#F9B233" stroke="#FFFFFF" stroke-width="0.5842" stroke-miterlimit="10" d="M-644,232.3l-4.4,1.2l-8.8,2.4
					c-1.1,0.3-2.1,1.1-1.9,1.7c0.1,0.7,3.3,2.4,4.4,2.1l4.4-1.2l8.8-2.4c1.1-0.3,2.1-1.1,1.9-1.7C-639.8,233.7-642.9,232-644,232.3z
					"/>
				<path fill="#E30613" stroke="#FFFFFF" stroke-width="0.7302" stroke-miterlimit="10" d="M-644.2,233.5c-0.1-0.4,0.1-0.8,1-0.7
					c1.1,0.1,3.3,1.2,3.2,1.8C-640.3,236.2-644.1,233.9-644.2,233.5z"/>
			</g>
			<g>
				<path fill="#F9B233" stroke="#FFFFFF" stroke-width="0.5842" stroke-miterlimit="10" d="M-648.7,221.7l-4.3-1.3l-8.7-2.8
					c-1.1-0.4-2.3-0.2-2.5,0.4c-0.3,0.6,1.4,3.8,2.5,4.2l4.3,1.3l8.7,2.8c1.1,0.4,2.3,0.2,2.5-0.4
					C-645.9,225.1-647.6,222-648.7,221.7z"/>
				<path fill="#E30613" stroke="#FFFFFF" stroke-width="0.7302" stroke-miterlimit="10" d="M-649.5,222.5c0.2-0.4,0.5-0.6,1.2-0.1
					c0.9,0.6,2.1,2.8,1.7,3.3C-647.8,227-649.6,222.9-649.5,222.5z"/>
			</g>
			<g>
				<path fill="#F9B233" stroke="#FFFFFF" stroke-width="0.5842" stroke-miterlimit="10" d="M-650,244l4.3-1.6l8.6-3
					c1.1-0.4,2-1.3,1.8-1.8c-0.2-0.7-3.4-2.2-4.5-1.8l-4.3,1.6l-8.6,3c-1.1,0.4-2,1.3-1.8,1.8C-654.3,242.9-651.1,244.4-650,244z"/>
				<path fill="#E30613" stroke="#FFFFFF" stroke-width="0.7302" stroke-miterlimit="10" d="M-649.9,242.8c0.1,0.4,0,0.8-0.9,0.8
					c-1.1,0-3.4-1-3.3-1.6C-653.8,240.3-650,242.4-649.9,242.8z"/>
			</g>
		</g>
		<g>
			<path fill="#E30613" d="M-647.1,258.5c-1.8-2.2-5-2.5-7.1-0.7c-2.2,1.8-2.5,5-0.7,7.1c0.3,0.3,0.1,0.1,0.1,0.1
				c3,4.6,8.6,15.9-0.4,25.7c-0.3,0.2-0.5,0.5-0.7,0.7c-1.7,2.2-1.3,5.4,0.8,7.1c2.2,1.7,5.4,1.3,7.1-0.8
				C-638.8,289.6-637.4,268-647.1,258.5"/>
			<path fill="#E30613" d="M-656,258l1.3,0.6c0.1,0.1,0.2,0,0.3-0.1l0.5-0.6c0.1-0.1,0.1-0.1,0-0.2l-0.6-1.2
				c-0.1-0.1-0.2-0.1-0.4-0.1l-1.2,1.2C-656.1,257.8-656.1,258-656,258z"/>
			<path fill="#E30613" d="M-657.5,297.5l1.3-0.7c0.1-0.1,0.1-0.1,0.1-0.3l-0.2-0.8c0-0.1-0.1-0.1-0.2-0.1l-1.3-0.2
				c-0.1,0-0.3,0.1-0.3,0.3l0.2,1.7C-657.8,297.5-657.7,297.6-657.5,297.5z"/>
		</g>
		<g>
			<path fill="#E30613" d="M-642.9,376l-1.6-21.2c0-1.1-0.9-2.1-2-2.1h-0.6h-0.2h-0.6c-1.1,0-2,0.9-2,2.1l-1.6,21.2
				c-1.6,0.4-2.8,1.8-2.8,3.5v29.3c0,2,1.6,3.5,3.5,3.5h3.5h0.1h3.5c2,0,3.5-1.6,3.5-3.5v-29.3C-640.2,377.7-641.4,376.3-642.9,376z
				"/>
			<path fill="#F9B233" d="M-644.6,354.2h-5.4c-0.6,0-1-0.4-1-1l0,0c0-0.6,0.4-1,1-1h5.4c0.6,0,1,0.4,1,1l0,0
				C-643.5,353.8-644,354.2-644.6,354.2z"/>
		</g>
		<g>
			<path fill="#F9B233" d="M-651.6,440.3l-4.8-4.6c-2.1-2-2.1-5.3-0.1-7.4l0,0c2-2.1,5.3-2.1,7.4-0.1l4.8,4.6c2.1,2,2.1,5.3,0.1,7.4
				l0,0C-646.2,442.2-649.5,442.3-651.6,440.3z"/>
			<g>
				<path fill="#F9B233" d="M-636.6,440.2c0.9,0.3-1.8-4.2-6.9-0.4c-4.2,3.2-1.8,6.7-0.8,7.9c0.2,0.2,0.5,0.4,0.8,0.3
					c0.8-0.2,2.5-0.8,3-2.1c0.1-0.1,0.1-0.2,0.2-0.4c0.9-0.8,2-1,2.6-1.6C-637.1,443.1-637.6,440-636.6,440.2z"/>
				<path fill="#F9B233" d="M-644.7,440.9L-644.7,440.9c-0.3-0.3-0.3-0.7,0-1l0.3-0.3c0.3-0.3,0.7-0.3,1,0l0,0c0.3,0.3,0.3,0.7,0,1
					l-0.3,0.3C-644,441.1-644.4,441.2-644.7,440.9z"/>
			</g>
			<g>
				<path fill="#F9B233" d="M-657,420.8c-0.3-0.8,4.3,1.6,0.7,6.9c-3,4.4-6.6,2.1-7.8,1.2c-0.3-0.2-0.4-0.5-0.3-0.8
					c0.1-0.8,0.7-2.5,2-3c0.1-0.1,0.2-0.1,0.4-0.2c0.8-1,0.8-2,1.6-2.7C-659.9,421.4-656.7,421.7-657,420.8z"/>
				<path fill="#F9B233" d="M-656.1,427.6L-656.1,427.6c0.3,0.3,0.3,0.7,0,1l-0.3,0.3c-0.3,0.3-0.7,0.3-1,0l0,0
					c-0.3-0.3-0.3-0.7,0-1l0.3-0.3C-656.8,427.4-656.4,427.4-656.1,427.6z"/>
			</g>
		</g>
		<path fill="#F9B233" d="M-637.1,155.6c1.4-3.5-4.6-6.2-4.8-6.4c-4.8-3.2-8-6-10.7-10.7c-2.7-4.7-1.7-9.5-1.7-9.5
			c0.1-0.2,0.1-0.4,0.1-0.6c0.1-0.5,0.1-0.9,0.1-1.3c0-0.8,0-1.8-0.3-2.7l3.5-3.6c0.5-0.5,0.5-1.3,0-1.7c-0.5-0.5-1.3-0.5-1.7,0
			l-3.3,3.3c-0.6-0.3-1.5-0.4-2.7,0l0,0c-1.1,0.3-1.9,1.1-2.7,2.3c-6.5,8.8,2.4,27.3,16.4,32.1
			C-642.7,157.6-638.5,159.3-637.1,155.6z"/>
		<g>
			
				<ellipse transform="matrix(0.9954 -9.622370e-02 9.622370e-02 0.9954 -20.0598 -62.0086)" fill="#E30613" stroke="#FFFFFF" stroke-width="0.6174" stroke-miterlimit="10" cx="-653" cy="177" rx="3.3" ry="2.7"/>
			<path fill="#F9B233" d="M-636.9,172.8L-636.9,172.8c-0.2,0.1-0.5-0.1-0.6-0.4l-1.1-4.3c-0.1-0.2,0.1-0.5,0.4-0.6l0,0
				c0.2-0.1,0.5,0.1,0.6,0.4l1.1,4.3C-636.5,172.5-636.6,172.7-636.9,172.8z"/>
			
				<rect x="-638" y="158.5" transform="matrix(0.9219 0.3875 -0.3875 0.9219 14.4452 259.983)" fill="#F9B233" width="0.9" height="14.7"/>
			
				<ellipse transform="matrix(0.9893 0.1458 -0.1458 0.9893 17.4871 96.4989)" fill="#E30613" stroke="#FFFFFF" stroke-width="0.6174" stroke-miterlimit="10" cx="-649.6" cy="167.5" rx="3.3" ry="2.7"/>
			
				<ellipse transform="matrix(0.9779 0.2089 -0.2089 0.9779 24.253 140.171)" fill="#E30613" stroke="#FFFFFF" stroke-width="0.6174" stroke-miterlimit="10" cx="-651.4" cy="184.9" rx="3" ry="2.4"/>
			
				<ellipse transform="matrix(-0.8525 0.5227 -0.5227 -0.8525 -1109.8586 693.9474)" fill="#E30613" stroke="#FFFFFF" stroke-width="0.6174" stroke-miterlimit="10" cx="-652.8" cy="190.4" rx="3.5" ry="2.8"/>
			
				<ellipse transform="matrix(0.3394 0.9406 -0.9406 0.3394 -244.9347 724.5936)" fill="#E30613" stroke="#FFFFFF" stroke-width="0.6174" stroke-miterlimit="10" cx="-638.4" cy="187.9" rx="2.8" ry="2.2"/>
			
				<ellipse transform="matrix(-5.128684e-03 1 -1 -5.128684e-03 -455.4141 831.8125)" fill="#E30613" stroke="#FFFFFF" stroke-width="0.6174" stroke-miterlimit="10" cx="-641.5" cy="189.4" rx="2.8" ry="2.2"/>
			
				<ellipse transform="matrix(-0.2633 0.9647 -0.9647 -0.2633 -636.7049 856.6907)" fill="#E30613" stroke="#FFFFFF" stroke-width="0.6174" stroke-miterlimit="10" cx="-645.5" cy="185.2" rx="2.8" ry="2.3"/>
			
				<ellipse transform="matrix(-0.5658 0.8245 -0.8245 -0.5658 -864.2571 817.9614)" fill="#E30613" stroke="#FFFFFF" stroke-width="0.6174" stroke-miterlimit="10" cx="-647.5" cy="181.4" rx="2.8" ry="2.3"/>
			
				<ellipse transform="matrix(0.7033 0.7109 -0.7109 0.7033 -65.301 505.0058)" fill="#E30613" stroke="#FFFFFF" stroke-width="0.6174" stroke-miterlimit="10" cx="-637.6" cy="174.3" rx="3" ry="2.4"/>
			
				<ellipse transform="matrix(7.374655e-02 0.9973 -0.9973 7.374655e-02 -418.3175 808.7036)" fill="#E30613" stroke="#FFFFFF" stroke-width="0.6174" stroke-miterlimit="10" cx="-644.5" cy="179.2" rx="3.5" ry="2.8"/>
			
				<ellipse transform="matrix(-0.9719 -0.2355 0.2355 -0.9719 -1320.3876 190.7852)" fill="#E30613" stroke="#FFFFFF" stroke-width="0.6174" stroke-miterlimit="10" cx="-648.8" cy="174.2" rx="2.7" ry="2.1"/>
			
				<ellipse transform="matrix(-0.8457 -0.5337 0.5337 -0.8457 -1296.8033 0.6707)" fill="#E30613" stroke="#FFFFFF" stroke-width="0.6174" stroke-miterlimit="10" cx="-648.3" cy="187.8" rx="3.5" ry="2.8"/>
			
				<ellipse transform="matrix(-0.8457 -0.5337 0.5337 -0.8457 -1309.3936 12.5986)" fill="#E30613" stroke="#FFFFFF" stroke-width="0.6174" stroke-miterlimit="10" cx="-652.9" cy="195.6" rx="3.5" ry="2.8"/>
			
				<ellipse transform="matrix(0.6273 0.7788 -0.7788 0.6273 -88.5541 575.0129)" fill="#E30613" stroke="#FFFFFF" stroke-width="0.6174" stroke-miterlimit="10" cx="-645" cy="195" rx="3.5" ry="2.8"/>
			
				<ellipse transform="matrix(0.7155 0.6986 -0.6986 0.7155 -46.8015 503.2648)" fill="#E30613" stroke="#FFFFFF" stroke-width="0.6174" stroke-miterlimit="10" cx="-641.3" cy="194.2" rx="2.8" ry="2.2"/>
			
				<ellipse transform="matrix(-0.4251 0.9051 -0.9051 -0.4251 -748.0188 873.534)" fill="#E30613" stroke="#FFFFFF" stroke-width="0.6174" stroke-miterlimit="10" cx="-651.4" cy="199.2" rx="3.5" ry="2.8"/>
			
				<ellipse transform="matrix(-0.7071 0.7071 -0.7071 -0.7071 -979.9119 805.5373)" fill="#E30613" stroke="#FFFFFF" stroke-width="0.6174" stroke-miterlimit="10" cx="-656.8" cy="199.8" rx="3.5" ry="2.8"/>
			
				<ellipse transform="matrix(-0.7071 0.7071 -0.7071 -0.7071 -973.4637 812.1006)" fill="#E30613" stroke="#FFFFFF" stroke-width="0.6174" stroke-miterlimit="10" cx="-654.9" cy="204.4" rx="3.5" ry="2.8"/>
			
				<ellipse transform="matrix(-0.4251 0.9051 -0.9051 -0.4251 -742.647 869.5869)" fill="#E30613" stroke="#FFFFFF" stroke-width="0.6174" stroke-miterlimit="10" cx="-647.5" cy="199" rx="3.5" ry="2.8"/>
			
				<ellipse transform="matrix(-1 -4.734044e-03 4.734044e-03 -1 -1303.6233 373.6978)" fill="#E30613" stroke="#FFFFFF" stroke-width="0.6174" stroke-miterlimit="10" cx="-651.4" cy="188.4" rx="3.5" ry="2.8"/>
			
				<ellipse transform="matrix(-0.4251 0.9051 -0.9051 -0.4251 -749.5997 862.1768)" fill="#E30613" stroke="#FFFFFF" stroke-width="0.6174" stroke-miterlimit="10" cx="-648.6" cy="193" rx="3.5" ry="2.8"/>
			
				<ellipse transform="matrix(-0.5465 0.8374 -0.8374 -0.5465 -839.5497 823.7302)" fill="#E30613" stroke="#FFFFFF" stroke-width="0.6174" stroke-miterlimit="10" cx="-642.8" cy="184.6" rx="2.8" ry="2.3"/>
			
				<ellipse transform="matrix(-0.5658 0.8245 -0.8245 -0.5658 -850.077 810.5027)" fill="#E30613" stroke="#FFFFFF" stroke-width="0.6174" stroke-miterlimit="10" cx="-638.4" cy="181.4" rx="2.8" ry="2.3"/>
			
				<ellipse transform="matrix(-0.5658 0.8245 -0.8245 -0.5658 -863.1917 800.4819)" fill="#E30613" stroke="#FFFFFF" stroke-width="0.6174" stroke-miterlimit="10" cx="-642.4" cy="173" rx="2.8" ry="2.3"/>
			
				<ellipse transform="matrix(-0.1639 0.9865 -0.9865 -0.1639 -561.2919 845.5089)" fill="#E30613" stroke="#FFFFFF" stroke-width="0.6174" stroke-miterlimit="10" cx="-639" cy="184.9" rx="2.8" ry="2.3"/>
			
				<ellipse transform="matrix(-0.4251 0.9051 -0.9051 -0.4251 -759.41 848.5399)" fill="#E30613" stroke="#FFFFFF" stroke-width="0.6174" stroke-miterlimit="10" cx="-649.2" cy="183.1" rx="2.7" ry="2.1"/>
			
				<ellipse transform="matrix(-0.9719 -0.2355 0.2355 -0.9719 -1325.902 194.394)" fill="#E30613" stroke="#FFFFFF" stroke-width="0.6174" stroke-miterlimit="10" cx="-651.3" cy="176.4" rx="2.7" ry="2.1"/>
			
				<ellipse transform="matrix(0.3394 0.9406 -0.9406 0.3394 -238.153 746.9473)" fill="#E30613" stroke="#FFFFFF" stroke-width="0.6174" stroke-miterlimit="10" cx="-650.9" cy="203.9" rx="2.8" ry="2.2"/>
			
				<ellipse transform="matrix(-5.128684e-03 1 -1 -5.128684e-03 -449.8871 840.1086)" fill="#E30613" stroke="#FFFFFF" stroke-width="0.6174" stroke-miterlimit="10" cx="-642.8" cy="196.3" rx="2.8" ry="2.2"/>
			
				<ellipse transform="matrix(0.9051 0.4251 -0.4251 0.9051 10.6416 290.2436)" fill="#E30613" stroke="#FFFFFF" stroke-width="0.6174" stroke-miterlimit="10" cx="-645" cy="169" rx="3" ry="2.4"/>
			
				<ellipse transform="matrix(8.814055e-02 0.9961 -0.9961 8.814055e-02 -409.8237 797.927)" fill="#E30613" stroke="#FFFFFF" stroke-width="0.6174" stroke-miterlimit="10" cx="-640.7" cy="175.1" rx="3" ry="2.4"/>
			
				<ellipse transform="matrix(0.9991 4.217125e-02 -4.217125e-02 0.9991 6.9599 26.989)" fill="#E30613" stroke="#FFFFFF" stroke-width="0.6174" stroke-miterlimit="10" cx="-636.2" cy="178.5" rx="3" ry="2.4"/>
			
				<ellipse transform="matrix(0.9334 -0.3588 0.3588 0.9334 -107.8802 -221.8233)" fill="#E30613" stroke="#FFFFFF" stroke-width="0.6174" stroke-miterlimit="10" cx="-651.6" cy="179.7" rx="3.3" ry="2.7"/>
			
				<ellipse transform="matrix(0.6375 0.7705 -0.7705 0.6375 -88.5781 555.9885)" fill="#E30613" stroke="#FFFFFF" stroke-width="0.6174" stroke-miterlimit="10" cx="-635.1" cy="183.9" rx="3.5" ry="2.8"/>
			
				<ellipse transform="matrix(-0.9894 -0.1454 0.1454 -0.9894 -1320.6576 245.4368)" fill="#E30613" stroke="#FFFFFF" stroke-width="0.6174" stroke-miterlimit="10" cx="-651.4" cy="171" rx="3.6" ry="2.8"/>
			
				<ellipse transform="matrix(-0.5029 0.8643 -0.8643 -0.5029 -818.1997 823.284)" fill="#E30613" stroke="#FFFFFF" stroke-width="0.6174" stroke-miterlimit="10" cx="-645.8" cy="176.4" rx="3.6" ry="2.8"/>
			
				<ellipse transform="matrix(-0.9894 -0.1454 0.1454 -0.9894 -1311.7699 246.0067)" fill="#E30613" stroke="#FFFFFF" stroke-width="0.6174" stroke-miterlimit="10" cx="-646.9" cy="170.9" rx="3.6" ry="2.8"/>
			
				<ellipse transform="matrix(-0.761 0.6488 -0.6488 -0.761 -1010.427 751.3949)" fill="#E30613" stroke="#FFFFFF" stroke-width="0.6174" stroke-miterlimit="10" cx="-643.6" cy="189.6" rx="2.8" ry="2.2"/>
			
				<ellipse transform="matrix(0.969 0.2469 -0.2469 0.969 22.5505 166.4577)" fill="#E30613" stroke="#FFFFFF" stroke-width="0.6174" stroke-miterlimit="10" cx="-652.5" cy="173.1" rx="3.3" ry="2.7"/>
			
				<ellipse transform="matrix(-0.5658 0.8245 -0.8245 -0.5658 -854.4022 810.9635)" fill="#E30613" stroke="#FFFFFF" stroke-width="0.6174" stroke-miterlimit="10" cx="-640.7" cy="180.5" rx="2.8" ry="2.3"/>
			
				<ellipse transform="matrix(0.9051 0.4251 -0.4251 0.9051 10.9157 289.0065)" fill="#E30613" stroke="#FFFFFF" stroke-width="0.6174" stroke-miterlimit="10" cx="-642.1" cy="169" rx="3" ry="2.4"/>
		</g>
		<g>
			<path fill="#E30613" d="M-659.1,643.1v45.1c0,0.4,0.3,0.7,0.6,0.7l15.6,1.8c0.1,0,0.3,0,0.4-0.1l5.5-3.1c0.2-0.1,0.4-0.4,0.4-0.6
				v-44.3c0-0.1-0.1-0.3-0.1-0.4l-2.9-4.2c-0.1-0.1-0.1-0.3-0.1-0.4v-3c0-0.4-0.4-0.8-0.8-0.8h-14.2c-0.4,0-0.8,0.4-0.8,0.8v3.1
				c0,0.1-0.1,0.3-0.1,0.4l-3.3,4.5C-659,642.7-659.1,643-659.1,643.1z"/>
			<path fill="#27348B" d="M-642.9,643.2l3.2-5.5c0-0.1,0.1-0.1,0.1,0l3,4.4c0,0.1,0,0.1-0.1,0.1L-642.9,643.2
				C-642.9,643.4-642.9,643.3-642.9,643.2z"/>
			<path fill="#27348B" d="M-646.6,639.8l-0.4-2.7l-5.9,1.1l0.4,2.5c0,0.1,0,0.1,0,0.1c0.1,0.7,1.6,1.1,3.3,0.8
				C-647.8,641.4-646.6,640.6-646.6,639.8z"/>
			
				<ellipse transform="matrix(-0.983 0.1835 -0.1835 -0.983 -1172.2238 1383.7517)" fill="#F39200" cx="-650.1" cy="637.6" rx="3" ry="1.3"/>
			<path fill="#F39200" d="M-659.1,680.6v7.6c0,0.4,0.3,0.7,0.6,0.7l15.6,1.8c0.1,0,0.3,0,0.4-0.1l5.5-3.1c0.2-0.1,0.4-0.4,0.4-0.6
				v-7.8l-6.3,2.9L-659.1,680.6z"/>
		</g>
	</g>
</g>
</svg>
