<?xml version="1.0" encoding="utf-8"?>
<!-- Generator: Adobe Illustrator 19.1.0, SVG Export Plug-In . SVG Version: 6.00 Build 0)  -->
<svg version="1.1" id="Meistgekauft" xmlns="http://www.w3.org/2000/svg" xmlns:xlink="http://www.w3.org/1999/xlink" x="0px"
	 y="0px" viewBox="560 -1225.7 1961 3046" style="enable-background:new 560 -1225.7 1961 3046;" xml:space="preserve">
<style type="text/css">
	.st0{fill:#27348B;}
	.st1{fill:none;stroke:#FFFFFF;stroke-width:34.2525;stroke-miterlimit:10;}
	.st2{fill:#F9B233;stroke:#FFFFFF;stroke-width:6;stroke-miterlimit:10;}
	.st3{fill:#E30613;stroke:#FFFFFF;stroke-width:6;stroke-miterlimit:10;}
	.st4{fill:#F9B233;}
	.st5{fill:none;stroke:#FFFFFF;stroke-width:5;stroke-miterlimit:10;}
</style>
<g>
	<rect x="753.5" y="-1046.2" class="st0" width="1601.3" height="188.4"/>
	<path class="st0" d="M777.2-448.1L1039.6,1411c0,117.6,150.9,120.2,268.5,120.2h241.5h9.1h241.5c117.6,0,268.5-2.6,268.5-120.2
		l262.4-1859.1c0-117.6-95.3-212.9-212.9-212.9h-559.5h-9.1H990C872.5-660.9,777.2-565.6,777.2-448.1z"/>
	<g>
		<path class="st0" d="M753.8-1074.9L797-703.7c1.8,15.3-9.2,29.2-24.5,30.9l-72,8.4c-15.3,1.8-29.2-9.2-30.9-24.5l-43.2-371.2
			c-1.8-15.3,9.2-29.2,24.5-30.9l72-8.4C738.2-1101.2,752.1-1090.2,753.8-1074.9z"/>
		<path class="st0" d="M2334.2-1060.4l-39.8,342.2c-2.7,23.3,14,44.4,37.3,47.1l43.1,5c23.3,2.7,44.4-14,47.1-37.3l39.8-342.2
			c2.7-23.3-14-44.4-37.3-47.1l-43.1-5C2357.9-1100.4,2336.9-1083.7,2334.2-1060.4z"/>
	</g>
	<path class="st1" d="M966.1-233.2l198.6,1407c0,89,114.2,91,203.2,91h182.7h6.9h182.7c89,0,203.2-2,203.2-91l198.6-1407
		c0-89-72.1-161.1-161.1-161.1h-423.3h-6.9h-423.5C1038.3-394.3,966.1-322.2,966.1-233.2z"/>
</g>
<g id="Teigwaren">
	<g>
		<path class="st2" d="M1687.9-192.1l52.2,59.9L1844-11c13.1,15.3,32.8,24.1,41.2,18c10.2-7.4,13.8-69.4,0.7-84.7l-52.2-59.9
			l-103.9-121.2c-13.1-15.3-32.8-24.1-41.2-18C1678.3-269.4,1674.8-207.4,1687.9-192.1z"/>
		<path class="st3" d="M1707.6-198.1c-6.6,4.8-12.7,4.8-18.8-9.8c-7.7-18.4-5.3-61.2,4.6-63.7C1723.2-279,1714.2-202.8,1707.6-198.1
			z"/>
	</g>
	<g>
		<path class="st2" d="M1906.5,281.3l-78.1,14.8l-157.1,28.5c-19.8,3.6-37.3,16.2-36.3,26.5c1.2,12.6,52.9,47,72.8,43.4l78.1-14.8
			l157.1-28.5c19.8-3.6,37.3-16.2,36.3-26.5C1978,312.1,1926.3,277.7,1906.5,281.3z"/>
		<path class="st3" d="M1901.7,301.4c-0.8-8.1,2.2-13.4,17.9-11.3c19.8,2.6,55.5,26.3,52.6,36.1
			C1963.7,355.7,1902.5,309.5,1901.7,301.4z"/>
	</g>
	<g>
		<path class="st2" d="M2036.3,91l-30.1-73.5l-59.3-148.2c-7.5-18.7-23.3-33.3-33.2-30.3c-12.1,3.7-35.5,61.2-28,80l30.1,73.5
			l59.3,148.2c7.5,18.7,23.3,33.3,33.2,30.3C2020.5,167.3,2043.8,109.7,2036.3,91z"/>
		<path class="st3" d="M2015.7,90.4c7.8-2.4,13.5-0.5,14.6,15.3c1.4,19.9-14.7,59.7-24.9,58.8C1974.9,161.9,2008,92.8,2015.7,90.4z"
			/>
	</g>
	<g>
		<path class="st2" d="M1577.1,242l-12.7-78.4L1540.2,5.8c-3.1-19.9-15.1-37.7-25.5-37c-12.6,0.9-48.4,51.6-45.3,71.5l12.7,78.4
			l24.2,157.8c3.1,19.9,15.1,37.7,25.5,37C1544.3,312.7,1580.1,262,1577.1,242z"/>
		<path class="st3" d="M1557.1,236.7c8.1-0.6,13.3,2.6,10.8,18.2c-3.2,19.7-27.8,54.8-37.6,51.6
			C1501.2,297.2,1549,237.3,1557.1,236.7z"/>
	</g>
	<g>
		<path class="st2" d="M1650.2,98.1l79.5-0.5l159.7,0.3c20.1,0,39.6-9.2,40.5-19.5c1.1-12.6-43.6-55.8-63.7-55.8l-79.5,0.5
			L1627,22.8c-20.1,0-39.6,9.2-40.5,19.5C1585.4,54.8,1630.1,98,1650.2,98.1z"/>
		<path class="st3" d="M1658.5,79.2c-0.7,8.1-4.6,12.7-19.7,7.8c-19-6.2-49.9-35.9-45.3-45C1607.4,14.6,1659.2,71.1,1658.5,79.2z"/>
	</g>
	<g>
		<path class="st2" d="M1840.5,105.2l-76.5,21.4l-154.1,41.7c-19.4,5.3-35.8,19.3-33.9,29.5c2.3,12.4,56.7,42.3,76.2,37l76.5-21.4
			l154.1-41.7c19.4-5.3,35.8-19.3,33.9-29.5C1914.4,129.9,1859.9,100,1840.5,105.2z"/>
		<path class="st3" d="M1837.5,125.6c-1.5-8,1.1-13.5,16.9-12.7c19.9,0.9,57.6,21.5,55.5,31.5
			C1903.8,174.5,1838.9,133.6,1837.5,125.6z"/>
	</g>
	<g>
		<path class="st2" d="M1758.6-80.7l-75.9-23.7l-152-48.8c-19.2-6.2-40.5-3.3-44.5,6.3c-4.8,11.7,24.6,66.4,43.8,72.5l75.9,23.7
			l152,48.8c19.2,6.2,40.5,3.3,44.5-6.3C1807.3-19.8,1777.8-74.5,1758.6-80.7z"/>
		<path class="st3" d="M1745-65.2c3.1-7.5,8.3-10.7,21.1-1.5c16.2,11.6,36.6,49.3,29.4,56.7C1774.1,11.8,1741.9-57.7,1745-65.2z"/>
	</g>
	<g>
		<path class="st2" d="M1736,309.6l74.8-26.7l150.8-52.5c19-6.6,34.4-21.7,31.8-31.8c-3.2-12.2-59.6-38.2-78.6-31.6l-74.8,26.7
			l-150.8,52.5c-19,6.6-34.4,21.7-31.8,31.8C1660.6,290.3,1717,316.3,1736,309.6z"/>
		<path class="st3" d="M1737.6,289.1c2,7.9-0.1,13.5-16,13.9c-20,0.5-58.9-17.4-57.6-27.6C1668,245,1735.6,281.2,1737.6,289.1z"/>
	</g>
</g>
<g id="Tafelschoko">
	<path class="st4" d="M1431.2,350.2l-268.4,44.2c-6.2,1-12-3.2-13-9.3l-88.2-535.9c-1-6.2,3.2-12,9.3-13l268.4-44.2
		c6.2-1,12,3.2,13,9.3l88.2,535.9C1441.6,343.4,1437.4,349.2,1431.2,350.2z"/>
	<g>
		<g>
			<path class="st5" d="M1220.2,4.9l-37,6.1c-8.7,1.4-17-4.5-18.4-13.2l-9.7-59.1c-1.4-8.7,4.5-17,13.2-18.4l37-6.1
				c8.7-1.4,17,4.5,18.4,13.2l9.7,59.1C1234.8-4.8,1228.9,3.5,1220.2,4.9z"/>
			<path class="st5" d="M1151.9,16.2l-37,6.1c-8.7,1.4-17-4.5-18.4-13.2l-9.7-59.1c-1.4-8.7,4.5-17,13.2-18.4l37-6.1
				c8.7-1.4,17,4.5,18.4,13.2l9.7,59.1C1166.5,6.5,1160.6,14.7,1151.9,16.2z"/>
			<path class="st5" d="M1288.8-6.4l-37,6.1c-8.7,1.4-17-4.5-18.4-13.2l-9.7-59.1c-1.4-8.7,4.5-17,13.2-18.4l37-6.1
				c8.7-1.4,17,4.5,18.4,13.2l9.7,59.1C1303.4-16.1,1297.5-7.8,1288.8-6.4z"/>
			<path class="st5" d="M1357.4-17.6l-37,6.1c-8.7,1.4-17-4.5-18.4-13.2l-9.7-59.1c-1.4-8.7,4.5-17,13.2-18.4l37-6.1
				c8.7-1.4,17,4.5,18.4,13.2l9.7,59.1C1372-27.3,1366.1-19.1,1357.4-17.6z"/>
		</g>
		<g>
			<path class="st5" d="M1235.1,95.6l-37,6.1c-8.7,1.4-17-4.5-18.4-13.2l-9.7-59.1c-1.4-8.7,4.5-17,13.2-18.4l37-6.1
				c8.7-1.4,17,4.5,18.4,13.2l9.7,59.1C1249.8,85.9,1243.8,94.2,1235.1,95.6z"/>
			<path class="st5" d="M1166.8,106.9l-37,6.1c-8.7,1.4-17-4.5-18.4-13.2l-9.7-59.1c-1.4-8.7,4.5-17,13.2-18.4l37-6.1
				c8.7-1.4,17,4.5,18.4,13.2l9.7,59.1C1181.4,97.1,1175.5,105.4,1166.8,106.9z"/>
			<path class="st5" d="M1303.7,84.3l-37,6.1c-8.7,1.4-17-4.5-18.4-13.2l-9.7-59.1c-1.4-8.7,4.5-17,13.2-18.4l37-6.1
				c8.7-1.4,17,4.5,18.4,13.2l9.7,59.1C1318.3,74.6,1312.4,82.9,1303.7,84.3z"/>
			<path class="st5" d="M1372.3,73l-37,6.1c-8.7,1.4-17-4.5-18.4-13.2l-9.7-59.1c-1.4-8.7,4.5-17,13.2-18.4l37-6.1
				c8.7-1.4,17,4.5,18.4,13.2l9.7,59.1C1386.9,63.3,1381,71.6,1372.3,73z"/>
		</g>
		<g>
			<path class="st5" d="M1250.1,186.3l-37,6.1c-8.7,1.4-17-4.5-18.4-13.2l-9.7-59.1c-1.4-8.7,4.5-17,13.2-18.4l37-6.1
				c8.7-1.4,17,4.5,18.4,13.2l9.7,59.1C1264.7,176.6,1258.8,184.9,1250.1,186.3z"/>
			<path class="st5" d="M1181.7,197.5l-37,6.1c-8.7,1.4-17-4.5-18.4-13.2l-9.7-59.1c-1.4-8.7,4.5-17,13.2-18.4l37-6.1
				c8.7-1.4,17,4.5,18.4,13.2l9.7,59.1C1196.3,187.8,1190.4,196.1,1181.7,197.5z"/>
			<path class="st5" d="M1318.6,175l-37,6.1c-8.7,1.4-17-4.5-18.4-13.2l-9.7-59.1c-1.4-8.7,4.5-17,13.2-18.4l37-6.1
				c8.7-1.4,17,4.5,18.4,13.2l9.7,59.1C1333.3,165.3,1327.3,173.6,1318.6,175z"/>
			<path class="st5" d="M1387.2,163.7l-37,6.1c-8.7,1.4-17-4.5-18.4-13.2l-9.7-59.1c-1.4-8.7,4.5-17,13.2-18.4l37-6.1
				c8.7-1.4,17,4.5,18.4,13.2l9.7,59.1C1401.8,154,1395.9,162.3,1387.2,163.7z"/>
		</g>
		<g>
			<path class="st5" d="M1265.1,277.4l-37,6.1c-8.7,1.4-17-4.5-18.4-13.2l-9.7-59.1c-1.4-8.7,4.5-17,13.2-18.4l37-6.1
				c8.7-1.4,17,4.5,18.4,13.2l9.7,59.1C1279.7,267.7,1273.7,275.9,1265.1,277.4z"/>
			<path class="st5" d="M1196.7,288.6l-37,6.1c-8.7,1.4-17-4.5-18.4-13.2l-9.7-59.1c-1.4-8.7,4.5-17,13.2-18.4l37-6.1
				c8.7-1.4,17,4.5,18.4,13.2l9.7,59.1C1211.3,278.9,1205.4,287.2,1196.7,288.6z"/>
			<path class="st5" d="M1333.6,266.1l-37,6.1c-8.7,1.4-17-4.5-18.4-13.2l-9.7-59.1c-1.4-8.7,4.5-17,13.2-18.4l37-6.1
				c8.7-1.4,17,4.5,18.4,13.2l9.7,59.1C1348.2,256.4,1342.3,264.7,1333.6,266.1z"/>
			<path class="st5" d="M1402.2,254.8l-37,6.1c-8.7,1.4-17-4.5-18.4-13.2l-9.7-59.1c-1.4-8.7,4.5-17,13.2-18.4l37-6.1
				c8.7-1.4,17,4.5,18.4,13.2l9.7,59.1C1416.8,245.1,1410.9,253.4,1402.2,254.8z"/>
		</g>
		<g>
			<path class="st5" d="M1280,368.1l-37,6.1c-8.7,1.4-17-4.5-18.4-13.2l-9.7-59.1c-1.4-8.7,4.5-17,13.2-18.4l37-6.1
				c8.7-1.4,17,4.5,18.4,13.2l9.7,59.1C1294.6,358.4,1288.7,366.7,1280,368.1z"/>
			<path class="st5" d="M1211.6,379.3l-37,6.1c-8.7,1.4-17-4.5-18.4-13.2l-9.7-59.1c-1.4-8.7,4.5-17,13.2-18.4l37-6.1
				c8.7-1.4,17,4.5,18.4,13.2l9.7,59.1C1226.2,369.6,1220.3,377.9,1211.6,379.3z"/>
			<path class="st5" d="M1348.6,356.8l-37,6.1c-8.7,1.4-17-4.5-18.4-13.2l-9.7-59.1c-1.4-8.7,4.5-17,13.2-18.4l37-6.1
				c8.7-1.4,17,4.5,18.4,13.2l9.7,59.1C1363.2,347.1,1357.2,355.4,1348.6,356.8z"/>
			<path class="st5" d="M1417.1,345.5l-37,6.1c-8.7,1.4-17-4.5-18.4-13.2l-9.7-59.1c-1.4-8.7,4.5-17,13.2-18.4l37-6.1
				c8.7-1.4,17,4.5,18.4,13.2l9.7,59.1C1431.7,335.8,1425.8,344.1,1417.1,345.5z"/>
		</g>
		<g>
			<path class="st5" d="M1205.3-85.8l-37,6.1c-8.7,1.4-17-4.5-18.4-13.2l-9.7-59.1c-1.4-8.7,4.5-17,13.2-18.4l37-6.1
				c8.7-1.4,17,4.5,18.4,13.2l9.7,59.1C1219.9-95.5,1214-87.2,1205.3-85.8z"/>
			<path class="st5" d="M1136.9-74.6l-37,6.1c-8.7,1.4-17-4.5-18.4-13.2l-9.7-59.1c-1.4-8.7,4.5-17,13.2-18.4l37-6.1
				c8.7-1.4,17,4.5,18.4,13.2l9.7,59.1C1151.6-84.3,1145.6-76,1136.9-74.6z"/>
			<path class="st5" d="M1273.9-97.1l-37,6.1c-8.7,1.4-17-4.5-18.4-13.2l-9.7-59.1c-1.4-8.7,4.5-17,13.2-18.4l37-6.1
				c8.7-1.4,17,4.5,18.4,13.2l9.7,59.1C1288.5-106.8,1282.6-98.5,1273.9-97.1z"/>
			<path class="st5" d="M1342.4-108.4l-37,6.1c-8.7,1.4-17-4.5-18.4-13.2l-9.7-59.1c-1.4-8.7,4.5-17,13.2-18.4l37-6.1
				c8.7-1.4,17,4.5,18.4,13.2l9.7,59.1C1357.1-118.1,1351.1-109.8,1342.4-108.4z"/>
		</g>
	</g>
</g>
<g id="salziges">
	<path class="st4" d="M1562.2,657.9c19.1,41.9,119.5,50.8,145.3-7c12.8-28.6,17.1-75-25.8-88.4c-32.1-10-47.4,1.5-53.1,7.9
		c-1.8,2-4.7,2.6-7.2,1.5c-9.5-4.4-32.2-12.7-46.3-1.4C1559.2,583.4,1536.6,601.8,1562.2,657.9z M1663.7,576.5
		c29,0.1,26,32.1,23,46.9c-0.8,3.9-4.9,6-8.5,4.4l-31.1-13.6c-2.1-0.9-3.5-2.9-3.7-5.2C1642.8,599.7,1643.2,576.4,1663.7,576.5z
		 M1630.5,630.4c1.9-1.5,4.4-1.7,6.5-0.7l38.1,18.6c3.9,1.9,4.7,7.3,1.4,10.2c-36.5,31.5-64.4,13.9-75.3,4.1c-2.8-2.5-2.6-7,0.4-9.4
		L1630.5,630.4z M1592.7,585.9c19.9-4.7,25.5,17.9,27,27.1c0.4,2.3-0.6,4.5-2.4,5.9l-27.2,20.3c-3.2,2.4-7.7,1.2-9.3-2.4
		C1574.6,623,1564.5,592.5,1592.7,585.9z"/>
	<path class="st4" d="M1238.6,639.1c29.5,35.5,128.7,17.7,138.4-44.8c4.8-30.9-3.2-76.9-48-78.6c-33.6-1.3-45.4,13.9-49.2,21.5
		c-1.2,2.4-3.9,3.7-6.5,3.3c-10.4-1.7-34.4-3.8-45.1,10.8C1216.1,568,1199.2,591.7,1238.6,639.1z M1315.2,534
		c28-7.5,33.5,24.2,34.5,39.2c0.3,3.9-3.2,7.1-7.1,6.5l-33.6-5c-2.3-0.3-4.1-1.9-4.9-4.1C1301.1,561.9,1295.4,539.3,1315.2,534z
		 M1297.3,594.7c1.4-1.9,3.8-2.8,6.1-2.4l41.6,8c4.3,0.8,6.4,5.8,4,9.4c-27,40-58.5,30.3-71.6,23.7c-3.4-1.7-4.4-6.1-2.1-9.1
		L1297.3,594.7z M1249.2,561.6c18-9.7,29.3,10.6,33.2,19.1c0.9,2.1,0.7,4.5-0.8,6.3l-20.9,26.7c-2.4,3.1-7.1,3.1-9.6,0.1
		C1241.4,602.2,1223.7,575.5,1249.2,561.6z"/>
	<path class="st4" d="M1715.9,660.3c-27.7,36.9,12.6,129.3,75.7,124.2c31.2-2.5,74-20.9,65.3-65c-6.6-33-24-40.9-32.3-42.8
		c-2.6-0.6-4.5-2.9-4.7-5.6c-0.7-10.5-4.2-34.3-21-41.3C1779.8,621.9,1752.8,611,1715.9,660.3z M1835.9,710.5
		c13.8,25.5-15.7,38.2-30.2,42.7c-3.8,1.2-7.6-1.4-8-5.3l-2.9-33.8c-0.2-2.3,0.9-4.5,2.8-5.7
		C1805.5,703.2,1826.2,692.4,1835.9,710.5z M1772.7,707.1c2.2,0.9,3.6,3,3.7,5.4l1.9,42.4c0.2,4.4-4.2,7.6-8.3,6.1
		c-45.2-16.9-43-49.9-39.6-64.2c0.9-3.7,4.9-5.7,8.4-4.2L1772.7,707.1z M1793.7,652.6c13.6,15.2-3.5,31-10.9,36.7
		c-1.8,1.4-4.3,1.7-6.3,0.7l-30.8-14.2c-3.6-1.6-4.7-6.2-2.3-9.3C1752.4,654.5,1774.3,631,1793.7,652.6z"/>
	<path class="st4" d="M1553.5,704.1c16.4-43.1-47.9-120.7-107.1-98.5c-29.3,11-65.4,40.6-44.8,80.5c15.4,29.9,34.4,32.7,42.9,32.2
		c2.7-0.2,5.2,1.5,6.1,4.1c3.6,9.9,13.6,31.8,31.6,33.9C1502.6,758.7,1531.6,761.8,1553.5,704.1z M1424.3,689.2
		c-20.3-20.7,4.6-41,17.2-49.4c3.3-2.2,7.7-0.7,9.1,2.9l12.1,31.7c0.8,2.1,0.4,4.6-1.1,6.3C1455.4,687.7,1438.6,703.8,1424.3,689.2z
		 M1485.9,674.9c-2.3-0.3-4.3-1.9-5.1-4.1l-13.5-40.2c-1.4-4.2,1.9-8.4,6.3-8.1c48.1,3.8,55.1,36.1,55.8,50.7
		c0.2,3.8-3.1,6.8-6.9,6.3L1485.9,674.9z M1480.8,733.1c-17.3-10.9-5.2-30.7,0.3-38.3c1.4-1.8,3.6-2.8,5.9-2.4l33.5,5.1
		c3.9,0.6,6.2,4.6,4.8,8.3C1519.9,719.9,1505.4,748.5,1480.8,733.1z"/>
	<path class="st4" d="M1567.5,533.6c16.4-43.1-47.7-120.8-107-98.6c-29.3,11-65.4,40.5-44.9,80.4c15.4,29.9,34.4,32.7,42.9,32.3
		c2.7-0.1,5.2,1.5,6.1,4.1c3.6,9.9,13.5,31.8,31.6,34C1516.6,588.1,1545.5,591.2,1567.5,533.6z M1438.3,518.4
		c-20.3-20.7,4.6-41,17.2-49.3c3.3-2.2,7.7-0.7,9.1,2.9l12.1,31.7c0.8,2.1,0.4,4.6-1.1,6.3C1469.5,517,1452.6,533.1,1438.3,518.4z
		 M1499.9,504.2c-2.3-0.3-4.3-1.9-5.1-4.2l-13.5-40.2c-1.4-4.2,1.9-8.4,6.3-8.1c48.1,3.9,55.1,36.1,55.8,50.8
		c0.2,3.8-3.2,6.8-6.9,6.3L1499.9,504.2z M1494.8,562.4c-17.3-10.9-5.2-30.8,0.4-38.3c1.4-1.8,3.6-2.8,5.9-2.4l33.5,5.1
		c3.9,0.6,6.2,4.6,4.8,8.3C1534,549.3,1519.4,577.9,1494.8,562.4z"/>
</g>
<g id="süßes">
	<path class="st4" d="M1519.4,1079.9c3.1-2.1,3.5-5.4,0.8-8.2c-0.7-0.7-0.9-1.1-0.1-1.9c2.6-2.7,2.5-5.1-0.2-7.9
		c-0.6-0.6-0.5-0.9,0-1.5c2.7-2.8,2.7-5.1,0.1-7.9c-0.7-0.7-0.7-1.1,0-1.8c2.6-2.6,2.6-5.4-0.1-7.9c-0.6-0.5-0.8-0.7-0.1-1.4
		c2.8-2.9,2.8-5.1,0-8.2c-0.4-0.5-0.7-0.7-0.1-1.3c2.9-3,2.9-5.2,0.1-8.1c-0.5-0.6-0.7-0.8,0-1.5c2.7-2.7,2.8-5.3,0.1-8
		c-0.4-0.4-0.5-0.6-0.5-0.9l0,0c-0.1-0.4,0.3-0.8,0.7-1.2c2.3-2.4,2.3-5.3-0.1-7.5c-1-0.9-0.6-1.3,0.1-2c2.4-2.5,2.3-5.9-0.5-7.8
		c-1.1-0.8-1.3-1.2-0.4-2.4c3-4.1,3.6-8.6,1.3-13.1l0,0c-1.2-2.5-3.3-4.5-6.2-5.7c-4.6-2-9-1.3-13,1.9c-0.9,0.8-1.2,0.4-1.7-0.4
		c-2.1-3.1-5.4-3.5-8.2-0.8c-0.7,0.7-1.1,0.9-1.9,0.1c-2.7-2.6-5.1-2.5-7.9,0.2c-0.6,0.6-0.9,0.5-1.5,0c-2.8-2.7-5.1-2.7-7.9-0.1
		c-0.7,0.7-1.1,0.7-1.8,0c-2.6-2.6-5.4-2.6-7.9,0.1c-0.5,0.6-0.7,0.8-1.4,0.1c-0.3-0.2-0.5-0.5-0.7-0.7c-2.1-2.2-5-2.2-7.4,0.2
		c-0.5,0.5-0.8,0.8-1.3,0.6c0,0,0,0-0.1-0.1c-0.7-0.6-1.3-1.1-1.9-1.5c-2.1-1.4-4.2-1-6.5,1.3c-0.4,0.4-0.6,0.5-0.9,0.4
		c-0.1-0.1-0.2-0.1-0.3-0.2c-0.6-0.7-1.3-1.1-1.9-1.5c-2.1-1.3-4-0.9-6.3,1.2c-0.7,0.7-1.1,0.7-1.8,0c-2.6-2.6-5.4-2.6-7.9,0.1
		c-0.5,0.6-0.7,0.8-1.4,0.1c-2.9-2.8-5.1-2.8-8.2,0c-0.5,0.4-0.7,0.7-1.3,0.1c-3-2.9-5.2-2.9-8.1-0.1c-0.6,0.5-0.8,0.7-1.5,0
		c-2.7-2.7-5.3-2.8-8-0.1c-0.4,0.4-0.6,0.5-0.9,0.5l0,0c-0.4,0.1-0.8-0.3-1.2-0.7c-2.4-2.3-5.3-2.3-7.5,0.1c-0.9,1-1.3,0.6-2-0.1
		c-2.5-2.4-5.9-2.3-7.8,0.5c-0.8,1.1-1.2,1.3-2.4,0.4c-4.1-3-8.6-3.6-13.2-1.2c-2.6,1.3-4.8,3-6,5.4l0,0c0,0,0,0,0,0.1v0.1
		c-0.7,1.4-1.1,3-1.1,4.9c0,0.2,0,0.4,0,0.7c0.1,2.6,1.1,5,3,7.3c0.8,0.9,0.4,1.2-0.4,1.7c-3.1,2.1-3.5,5.4-0.8,8.2
		c0.7,0.7,0.9,1.1,0.1,1.9c-2.6,2.7-2.5,5.1,0.2,7.9c0.6,0.6,0.5,0.9,0,1.5c-2.7,2.8-2.7,5.1-0.1,7.9c0.7,0.7,0.7,1.1,0,1.8
		c-2.6,2.6-2.6,5.4,0.1,7.9c0.6,0.5,0.8,0.7,0.1,1.4c-2.8,2.9-2.8,5.1,0,8.2c0.4,0.5,0.7,0.7,0.1,1.3c-2.9,3-2.9,5.2-0.1,8.1
		c0.5,0.6,0.7,0.8,0,1.5c-2.7,2.7-2.8,5.3-0.1,8c0.4,0.4,0.5,0.6,0.5,0.9l0,0c0.1,0.4-0.3,0.8-0.7,1.2c-2.3,2.4-2.3,5.3,0.1,7.5
		c1,0.9,0.6,1.3-0.1,2c-2.4,2.5-2.3,5.9,0.5,7.8c1.1,0.8,1.3,1.2,0.4,2.4c-3,4.1-3.6,8.6-1.3,13.1l0,0c1.2,2.8,3.3,4.9,6.4,6.3
		c4.6,2,9,1.3,13-1.9c0.9-0.8,1.2-0.4,1.7,0.4c2.1,3.1,5.4,3.5,8.2,0.8c0.7-0.7,1.1-0.9,1.9-0.1c2.7,2.6,5.1,2.5,7.9-0.2
		c0.6-0.6,0.9-0.5,1.5,0c2.8,2.7,5.1,2.7,7.9,0.1c0.7-0.7,1.1-0.7,1.8,0c2.6,2.6,5.4,2.6,7.9-0.1c0.5-0.6,0.7-0.8,1.4-0.1
		c0.3,0.2,0.5,0.5,0.7,0.7c2.1,2.2,5,2.2,7.4-0.2c0.5-0.5,0.8-0.8,1.3-0.6c0,0,0,0,0.1,0.1c0.7,0.6,1.3,1.1,1.9,1.5
		c2.1,1.4,4.2,1,6.5-1.3c0.4-0.4,0.6-0.5,0.9-0.4c0.1,0.1,0.2,0.1,0.3,0.2c0.6,0.7,1.3,1.1,1.9,1.5c2.1,1.3,4,0.9,6.3-1.2
		c0.7-0.7,1.1-0.7,1.8,0c2.6,2.6,5.4,2.6,7.9-0.1c0.5-0.6,0.7-0.8,1.4-0.1c2.9,2.8,5.1,2.8,8.2,0c0.5-0.4,0.7-0.7,1.3-0.1
		c3,2.9,5.2,2.9,8.1,0.1c0.6-0.5,0.8-0.7,1.5,0c2.7,2.7,5.3,2.8,8,0.1c0.4-0.4,0.6-0.5,0.9-0.5l0,0c0.4-0.1,0.8,0.3,1.2,0.7
		c2.4,2.3,5.3,2.3,7.5-0.1c0.9-1,1.3-0.6,2,0.1c2.5,2.4,5.9,2.3,7.8-0.5c0.8-1.1,1.2-1.3,2.4-0.4c4.1,3,8.6,3.6,13.2,1.2
		c3.2-1.7,5.4-4.1,6.3-7.4c1.3-4.1,0.4-8-2.4-11.5C1518.3,1080.6,1518.6,1080.4,1519.4,1079.9z"/>
	<path class="st4" d="M1615,966.8c3.7-0.7,5.3-3.6,3.9-7.2c-0.4-0.9-0.4-1.4,0.7-1.8c3.4-1.4,4.3-3.7,2.9-7.3
		c-0.3-0.8-0.1-1,0.6-1.3c3.6-1.5,4.5-3.6,3.1-7.2c-0.4-0.9-0.2-1.3,0.7-1.6c3.4-1.4,4.5-3.9,3-7.3c-0.3-0.7-0.4-1,0.4-1.3
		c3.8-1.6,4.6-3.6,3.2-7.5c-0.2-0.6-0.3-0.9,0.5-1.3c3.9-1.6,4.7-3.6,3.3-7.4c-0.3-0.7-0.3-1,0.6-1.4c3.6-1.4,4.6-3.8,3.2-7.3
		c-0.2-0.5-0.3-0.8-0.1-1l0,0c0.1-0.4,0.6-0.6,1.1-0.8c3-1.3,4.2-3.9,2.8-6.9c-0.6-1.2-0.1-1.4,0.9-1.8c3.2-1.3,4.4-4.5,2.6-7.4
		c-0.7-1.2-0.7-1.6,0.6-2.3c4.3-2.6,6.6-6.5,6.3-11.5l0,0c-0.1-2.8-1.2-5.4-3.4-7.7c-3.4-3.6-7.8-4.7-12.7-3.3
		c-1.2,0.3-1.2-0.1-1.4-1c-0.7-3.7-3.6-5.3-7.2-3.9c-0.9,0.4-1.4,0.4-1.8-0.7c-1.4-3.4-3.7-4.3-7.3-2.9c-0.8,0.3-1,0.1-1.3-0.6
		c-1.5-3.6-3.6-4.5-7.2-3.1c-0.9,0.4-1.3,0.2-1.6-0.7c-1.4-3.4-3.9-4.5-7.3-3c-0.7,0.3-1,0.4-1.3-0.4c-0.1-0.3-0.3-0.6-0.4-0.9
		c-1.1-2.8-3.7-3.9-6.9-2.7c-0.7,0.3-1.1,0.4-1.4,0v-0.1c-0.4-0.9-0.7-1.6-1.2-2.1c-1.4-2.1-3.5-2.5-6.5-1.4c-0.5,0.2-0.8,0.2-1,0
		c0-0.1-0.1-0.2-0.1-0.3c-0.3-0.9-0.7-1.6-1.2-2.1c-1.4-2-3.3-2.4-6.2-1.3c-0.9,0.4-1.3,0.2-1.6-0.7c-1.4-3.4-3.9-4.5-7.3-3
		c-0.7,0.3-1,0.4-1.3-0.4c-1.6-3.8-3.6-4.6-7.5-3.2c-0.6,0.2-0.9,0.3-1.3-0.5c-1.6-3.9-3.6-4.7-7.4-3.3c-0.7,0.3-1,0.3-1.4-0.6
		c-1.4-3.6-3.8-4.6-7.3-3.2c-0.5,0.2-0.8,0.3-1,0.1l0,0c-0.4-0.1-0.6-0.6-0.8-1.1c-1.3-3-3.9-4.2-6.9-2.8c-1.2,0.6-1.4,0.1-1.8-0.9
		c-1.3-3.2-4.5-4.4-7.4-2.6c-1.2,0.7-1.6,0.7-2.3-0.6c-2.6-4.3-6.5-6.7-11.7-6.3c-2.9,0.2-5.6,0.9-7.6,2.6l0,0l0,0c0,0,0,0-0.1,0.1
		c-1.2,1-2.2,2.3-2.9,4.1c-0.1,0.2-0.2,0.4-0.2,0.6c-0.9,2.4-0.9,5.1-0.1,7.9c0.3,1.2-0.1,1.2-1,1.4c-3.7,0.7-5.3,3.6-3.9,7.2
		c0.4,0.9,0.4,1.4-0.7,1.8c-3.4,1.4-4.3,3.7-2.9,7.3c0.3,0.8,0.1,1-0.6,1.3c-3.6,1.5-4.5,3.6-3.1,7.2c0.4,0.9,0.2,1.3-0.7,1.6
		c-3.4,1.4-4.5,3.9-3,7.3c0.3,0.7,0.4,1-0.4,1.3c-3.8,1.6-4.6,3.6-3.2,7.5c0.2,0.6,0.3,0.9-0.5,1.3c-3.9,1.6-4.7,3.6-3.3,7.4
		c0.3,0.7,0.3,1-0.6,1.4c-3.6,1.4-4.6,3.8-3.2,7.3c0.2,0.5,0.3,0.8,0.1,1l0,0c-0.1,0.4-0.6,0.6-1.1,0.8c-3,1.3-4.2,3.9-2.8,6.9
		c0.6,1.2,0.1,1.4-0.9,1.8c-3.2,1.3-4.4,4.5-2.6,7.4c0.7,1.2,0.7,1.6-0.6,2.3c-4.3,2.6-6.6,6.5-6.3,11.5l0,0c0,3,1.1,5.8,3.5,8.3
		c3.4,3.6,7.8,4.7,12.7,3.3c1.2-0.3,1.2,0.1,1.4,1c0.7,3.7,3.6,5.3,7.2,3.9c0.9-0.4,1.4-0.4,1.8,0.7c1.4,3.4,3.7,4.3,7.3,2.9
		c0.8-0.3,1-0.1,1.3,0.6c1.5,3.6,3.6,4.5,7.2,3.1c0.9-0.4,1.3-0.2,1.6,0.7c1.4,3.4,3.9,4.5,7.3,3c0.7-0.3,1-0.4,1.3,0.4
		c0.1,0.3,0.3,0.6,0.4,0.9c1.1,2.8,3.7,3.9,6.9,2.7c0.7-0.3,1.1-0.4,1.4,0v0.1c0.4,0.9,0.7,1.6,1.2,2.1c1.4,2.1,3.5,2.5,6.5,1.4
		c0.5-0.2,0.8-0.2,1,0c0,0.1,0.1,0.2,0.1,0.3c0.3,0.9,0.7,1.6,1.2,2.1c1.4,2,3.3,2.4,6.2,1.3c0.9-0.4,1.3-0.2,1.6,0.7
		c1.4,3.4,3.9,4.5,7.3,3c0.7-0.3,1-0.4,1.3,0.4c1.6,3.8,3.6,4.6,7.5,3.2c0.6-0.2,0.9-0.3,1.3,0.5c1.6,3.9,3.6,4.7,7.4,3.3
		c0.7-0.3,1-0.3,1.4,0.6c1.4,3.6,3.8,4.6,7.3,3.2c0.5-0.2,0.8-0.3,1-0.1l0,0c0.4,0.1,0.6,0.6,0.8,1.1c1.3,3,3.9,4.2,6.9,2.8
		c1.2-0.6,1.4-0.1,1.8,0.9c1.3,3.2,4.5,4.4,7.4,2.6c1.2-0.7,1.6-0.7,2.3,0.6c2.6,4.3,6.5,6.7,11.7,6.3c3.6-0.3,6.6-1.7,8.7-4.3
		c2.8-3.2,3.5-7.2,2.3-11.6C1613.6,967,1614.1,967,1615,966.8z"/>
	<path class="st4" d="M1706.7,1140.6c3.5-1.3,4.6-4.5,2.6-7.8c-0.5-0.8-0.7-1.3,0.3-1.9c3.2-2,3.6-4.4,1.6-7.7
		c-0.5-0.8-0.3-1,0.4-1.4c3.3-2.1,3.8-4.3,1.9-7.6c-0.5-0.9-0.4-1.2,0.4-1.7c3.1-2,3.8-4.7,1.7-7.7c-0.4-0.7-0.6-0.9,0.2-1.4
		c3.4-2.2,3.9-4.4,1.9-7.9c-0.3-0.6-0.5-0.8,0.3-1.3c3.5-2.3,4-4.4,2-7.9c-0.4-0.7-0.5-1,0.3-1.4c3.3-2,3.9-4.6,1.9-7.8
		c-0.3-0.5-0.4-0.7-0.3-1l0,0c0-0.4,0.5-0.7,1-1c2.8-1.8,3.5-4.6,1.6-7.3c-0.8-1.1-0.3-1.4,0.5-1.9c2.9-1.8,3.5-5.2,1.3-7.8
		c-0.9-1.1-1-1.4,0.2-2.4c3.8-3.3,5.4-7.5,4.2-12.5l0,0c-0.6-2.7-2.2-5.1-4.7-7c-4-3-8.5-3.3-13.1-1.1c-1.1,0.5-1.2,0.1-1.5-0.7
		c-1.3-3.5-4.5-4.6-7.8-2.6c-0.8,0.5-1.3,0.7-1.9-0.3c-2-3.2-4.4-3.6-7.7-1.6c-0.8,0.5-1,0.3-1.4-0.4c-2.1-3.3-4.3-3.8-7.6-1.9
		c-0.9,0.5-1.2,0.4-1.7-0.4c-2-3.1-4.7-3.7-7.7-1.7c-0.7,0.4-0.9,0.6-1.4-0.2c-0.2-0.3-0.4-0.6-0.6-0.8c-1.5-2.6-4.3-3.2-7.2-1.5
		c-0.6,0.4-1,0.6-1.4,0.2c0,0,0-0.1-0.1-0.1c-0.5-0.8-1-1.4-1.5-1.9c-1.8-1.9-3.9-1.9-6.6-0.2c-0.5,0.3-0.7,0.3-1,0.2
		c-0.1-0.1-0.1-0.2-0.2-0.3c-0.5-0.8-1-1.4-1.5-1.9c-1.7-1.8-3.7-1.8-6.4-0.2c-0.9,0.5-1.2,0.4-1.7-0.4c-2-3.1-4.7-3.8-7.7-1.7
		c-0.7,0.4-0.9,0.6-1.4-0.2c-2.2-3.4-4.4-3.9-7.9-1.9c-0.6,0.3-0.8,0.5-1.3-0.3c-2.3-3.5-4.4-4-7.9-2c-0.7,0.4-1,0.5-1.4-0.3
		c-2-3.3-4.6-3.9-7.8-1.9c-0.5,0.3-0.7,0.4-1,0.3l0,0c-0.4,0-0.7-0.5-1-1c-1.8-2.8-4.6-3.5-7.3-1.6c-1.1,0.8-1.4,0.3-1.9-0.5
		c-1.8-2.9-5.2-3.5-7.8-1.3c-1.1,0.9-1.4,1-2.4-0.2c-3.3-3.8-7.6-5.4-12.6-4.2c-2.8,0.7-5.3,1.9-7.1,3.9l0,0l0,0c0,0,0,0.1-0.1,0.1
		c-1,1.2-1.7,2.7-2.2,4.5c-0.1,0.2-0.1,0.4-0.1,0.7c-0.5,2.5,0,5.2,1.2,7.8c0.5,1.1,0.1,1.2-0.7,1.5c-3.5,1.3-4.6,4.5-2.6,7.8
		c0.5,0.8,0.7,1.3-0.3,1.9c-3.2,2-3.6,4.4-1.6,7.7c0.5,0.8,0.3,1-0.4,1.4c-3.3,2.1-3.8,4.3-1.9,7.6c0.5,0.9,0.4,1.2-0.4,1.7
		c-3.1,2-3.7,4.7-1.7,7.7c0.4,0.7,0.6,0.9-0.2,1.4c-3.4,2.2-3.9,4.4-1.9,7.9c0.3,0.6,0.5,0.8-0.3,1.3c-3.5,2.3-4,4.4-2,7.9
		c0.4,0.7,0.5,1-0.3,1.4c-3.3,2-3.9,4.6-1.9,7.8c0.3,0.5,0.4,0.7,0.3,1l0,0c0,0.4-0.5,0.7-1,1c-2.8,1.8-3.5,4.6-1.6,7.3
		c0.8,1.1,0.3,1.4-0.5,1.9c-2.9,1.8-3.5,5.2-1.3,7.8c0.9,1.1,1,1.4-0.2,2.4c-3.8,3.3-5.4,7.5-4.2,12.5l0,0c0.5,2.9,2.1,5.5,4.8,7.6
		c4,3,8.5,3.3,13.1,1.1c1.1-0.5,1.2-0.1,1.5,0.7c1.3,3.5,4.5,4.6,7.8,2.6c0.8-0.5,1.3-0.7,1.9,0.3c2,3.2,4.4,3.6,7.7,1.6
		c0.8-0.5,1-0.3,1.4,0.4c2.1,3.3,4.3,3.8,7.6,1.9c0.9-0.5,1.2-0.4,1.7,0.4c2,3.1,4.7,3.7,7.7,1.7c0.7-0.4,0.9-0.6,1.4,0.2
		c0.2,0.3,0.4,0.6,0.6,0.8c1.5,2.6,4.3,3.2,7.2,1.5c0.6-0.4,1-0.6,1.4-0.2c0,0,0,0,0.1,0.1c0.5,0.8,1,1.4,1.5,1.9
		c1.8,1.9,3.9,1.9,6.6,0.2c0.5-0.3,0.7-0.3,1-0.2c0.1,0.1,0.1,0.2,0.2,0.3c0.5,0.8,1,1.4,1.5,1.9c1.7,1.8,3.7,1.8,6.4,0.2
		c0.9-0.5,1.2-0.4,1.7,0.4c2,3.1,4.7,3.7,7.7,1.7c0.7-0.4,0.9-0.6,1.4,0.2c2.2,3.4,4.4,3.9,7.9,1.9c0.6-0.3,0.8-0.5,1.3,0.3
		c2.3,3.5,4.4,4,7.9,2c0.7-0.4,1-0.5,1.4,0.3c2,3.3,4.6,3.9,7.8,1.9c0.5-0.3,0.7-0.4,1-0.3l0,0c0.4,0,0.7,0.5,1,1
		c1.8,2.8,4.6,3.5,7.3,1.6c1.1-0.8,1.4-0.3,1.9,0.5c1.8,2.9,5.2,3.5,7.8,1.3c1.1-0.9,1.4-0.9,2.4,0.2c3.3,3.8,7.6,5.4,12.6,4.2
		c3.5-0.9,6.2-2.8,7.8-5.8c2.2-3.7,2.2-7.7,0.3-11.8C1705.4,1141,1705.8,1140.9,1706.7,1140.6z"/>
</g>
</svg>
