<?xml version="1.0" encoding="utf-8"?>
<!-- Generator: Adobe Illustrator 18.0.0, SVG Export Plug-In . SVG Version: 6.00 Build 0)  -->
<!DOCTYPE svg PUBLIC "-//W3C//DTD SVG 1.1//EN" "http://www.w3.org/Graphics/SVG/1.1/DTD/svg11.dtd">
<svg version="1.1" id="Ebene_1" xmlns="http://www.w3.org/2000/svg" xmlns:xlink="http://www.w3.org/1999/xlink" x="0px" y="0px"
	 viewBox="0 0 841.9 595.3" style="enable-background:new 0 0 841.9 595.3;" xml:space="preserve">
<style type="text/css">
	.st0{fill:#E30613;}
</style>
<g>
	<path class="st0" d="M610.4,160.2c-0.8-32.8-28-58.9-60.8-58.1c-32.8,0.8-58.9,28-58.1,60.8c0.1,4.6,0.1,2.3,0.1,2.3
		c-6.3,64.1-36.2,208.7-189.5,233.2c-3.9,0.2-7.9,0.7-11.8,1.6c-31.9,7.7-51.5,39.9-43.7,71.8c7.7,31.9,39.9,51.5,71.8,43.7
		C460.9,506.6,631.9,317.7,610.4,160.2"/>
	<path class="st0" d="M532.3,91.9l7.7,15.4c0.5,1.1,1.7,1.7,2.9,1.4l9-2.2c1-0.2,1.7-1,1.9-2l3-15.2c0.4-1.7-1.1-3.3-2.8-3.1
		L534.3,88C532.6,88.3,531.5,90.2,532.3,91.9z"/>
	<path class="st0" d="M231.8,443.7l17,2.9c1.2,0.2,2.4-0.4,2.8-1.6l3.6-8.6c0.4-1,0.2-2-0.5-2.8l-10.4-11.4
		c-1.2-1.3-3.2-1.1-4.1,0.4l-10.2,17C229.1,441.4,230,443.4,231.8,443.7z"/>
</g>
</svg>
