<?xml version="1.0" encoding="utf-8"?>
<!-- Generator: Adobe Illustrator 18.0.0, SVG Export Plug-In . SVG Version: 6.00 Build 0)  -->
<!DOCTYPE svg PUBLIC "-//W3C//DTD SVG 1.1//EN" "http://www.w3.org/Graphics/SVG/1.1/DTD/svg11.dtd">
<svg version="1.1" id="Ebene_1" xmlns="http://www.w3.org/2000/svg" xmlns:xlink="http://www.w3.org/1999/xlink" x="0px" y="0px"
	 viewBox="0 0 841.9 595.3" style="enable-background:new 0 0 841.9 595.3;" xml:space="preserve">
<style type="text/css">
	.st0{fill:#E30613;}
	.st1{fill:#27348B;}
</style>
<g>
	<g>
		<path class="st0" d="M247.3,447.3c-0.5-0.4-1-0.4-1.5-0.4c-4.3-0.4-8.6-0.8-12.9-1.2c-0.5-0.1-1.1-0.1-1.6-0.3
			c-1.2-0.4-1.7-1.5-1.3-2.6c0.2-0.7,0.6-1.3,1-1.9c2.4-3.6,4.8-7.2,7.2-10.7c1.2-1.8-1.2,1.8,0,0c0.5-0.8,2.7-4.6,3.6-4.8
			c0.9-0.2,2.1,1.6,2.8,2.2c0.3,0.3,6.3,0.7,8,2.4c0.4,0.4,0.8,0.7,1.2,1.1c0.8-0.2,1-0.9,1.3-1.5c2.7-4.2,5.7-8,9.2-11.5
			c11.8-11.9,26.1-18.6,42.7-20.6c1.1-0.1,2.3-0.3,3.4-0.6c14.8-3.2,29.3-7.2,43.4-12.7c7.6-2.9,15-6.2,22.2-10
			c0.9-0.5,1.8-0.7,2.8-0.6c7.9,0.1,14.9-2.4,21.2-7.1c4.8-3.7,8.6-8.2,11.2-13.7c0.1-0.2,0.2-0.3,0.3-0.5c0.8-2.5,0.8-2.2,3.2-4.3
			c15.7-14.1,28.8-30.4,39.5-48.5c5-8.6,9.6-17.4,13.5-26.6c3.1-7.1,5.8-14.3,8.3-21.6c2.9-8.8,5.4-17.7,7.6-26.6
			c0.7-2.8,1.9-2.7,3-9c0.4-2.3,1.3-4.6,2.5-6.6c2.5-4.1,3-8.8,1.9-13.9c-0.2-1-0.5-1.9-0.9-2.8c-0.3-0.8-0.4-1.6-0.3-2.4
			c0.5-4.3,1.1-8.6,1.6-12.8c0.4-3.2,0.6-6.3,1-9.5c0.1-0.8,0.1-1.7,0.1-2.5c-0.4-8,0.8-15.7,3.5-23.2c3.7-10.5,9.6-19.4,18.4-26.4
			c4.8-3.9,10.3-6.7,16.3-8.3c0.5-0.1,1-0.3,1.6-0.5c-0.3-1-0.4-1.9-1.4-2.6c-1.7-1.4-2.7-3.6-2.5-5.8c0.1-1.1-0.7-2.1-1-3.1
			c-0.5-1.8,0.4-3.2,2.2-3.4c3.9-0.4,7.7-0.7,11.6-1.1c1.1-0.1,2.2-0.2,3.3-0.3c0.4,0,0.7-0.1,1.1-0.1c1.6,0.1,2.6,1,2.5,2.7
			c0,0.5-0.1,1.1-0.2,1.6c-0.5,3.2-1,6.5-1.5,9.7c-0.1,0.3-0.1,0.7-0.1,1c0.4,0.6,0.9,0.6,1.4,0.6c10.9,1.3,20.1,6.1,28,13.6
			c7.4,7.1,12.7,15.6,16.2,25.2c1.9,5.3,3.1,10.7,3.8,16.3c0.4,3.3,1,6.6,1.5,9.9c0.9,6.4,1.3,9.1,1.8,15.5c0.1,0.9-0.5,7.1-1,8
			c-3.2,5.6-2.1,9.7,0.5,15.4c1.2,1.6,1.2,3.4,1.1,5.4c-0.4,8.6-1.1,17.1-2.3,25.5c-0.7,5-1.6,10-2.5,14.9c-0.4,2.4-0.9,4.8-1.4,7.2
			c-0.7,3.3-2,6.4-3.8,9.2l0,0c-3.3,5.2-3.9,7.4-5.5,13.3c-1.1,4.1-1.6,8.2-1.3,12.4c0.1,1-0.1,1.9-0.4,2.8c-1.8,4.3-3.5,8.7-5.3,13
			c-2.7,6.5-4.1,9.5-7.3,15.8c-0.7,1.3-2.4,4.6-3,5.9c-0.4,0.9-4.5,4-5.5,4.4c-6.7,2.6-9.1,5.8-13,11.7c-3.7,5.6-5.2,11.8-4.4,18.6
			c0,0.4-3.6,7.6-5.2,9.9c-4.3,5.7-8.8,11.3-13.4,16.8c-0.8,0.9-1.6,1.4-2.7,1.5c-3.8,0.5-7.3,1.7-10.6,3.7c-3.3,2-5.9,4.6-7.5,8.2
			c-1.1,2.6-1.5,5.2-1.2,8l0,0c0.1,1.2-0.3,2.4-1.2,3.2c-16.1,15.3-33.3,29.1-51.7,41.3c-3,2-6.7,2.8-10.4,2.4l0,0
			c-10.1-1.1-17.7,4.5-21.2,12.2l0,0c-1.4,3.1-3.7,5.6-6.8,7c-10.2,4.8-20.7,9.2-31.5,12.9c-14.5,5-29.2,8.8-44.2,11.3
			c-4.2,0.7-8.4-0.1-12.1-2.1c0,0,0,0-0.1,0c-3.6-1.9-7.5-3.2-11.4-4c-4.5-0.9-9-1.2-13.6-0.7c-6,0.6-8.8,2.2-13.8,5.5
			c-0.2,0.1-3.2,0.4-3.4,0.5c0,0-0.1,0-0.2,0.1c-1.1-0.1-2.1-0.7-3.2-1.2c-9.1-4.2-16.8-10.1-22.8-18.2c-5.1-6.9-7.8-14.6-8.7-23
			c-0.6-5.6-0.3-11,0.8-16.5c0.1-0.3,0.1-0.6,0.1-0.9C247.4,447.6,247.3,447.4,247.3,447.3z"/>
	</g>
	<path class="st1" d="M542.4,269.5c-8.3,30-2.6,59,12.6,73.2c1.6-1.2,3.4-2.2,5.9-3.1c1-0.4,5-3.5,5.5-4.4c0.6-1.3,2.4-4.6,3-5.9
		c3.2-6.3,4.6-9.3,7.3-15.8c1.8-4.3,3.5-8.7,5.3-13c0.4-0.9,0.5-1.8,0.4-2.8c-0.3-4.2,0.3-8.4,1.3-12.4c1.6-6,2.2-8.1,5.5-13.3l0,0
		c1.8-2.8,3.1-5.9,3.8-9.2c0.5-2.4,1-4.8,1.4-7.2c0.9-5,1.8-9.9,2.5-14.9c1.2-8.5,1.9-17,2.3-25.5c0-0.9,0.1-1.7,0-2.5
		C576.2,211.6,551.9,235.3,542.4,269.5z"/>
	<path class="st1" d="M310.4,396.8c-1.1,0.2-2.3,0.4-3.4,0.6c-13.1,1.5-24.7,6-34.8,13.7c5.2,14.5,14.5,25,26.9,28.4
		c20.2,5.6,44.8-0.9,60-26.8c4.6-8,7-24.1,9.7-35c-4.9,2.3-9.9,4.5-15,6.4C339.7,389.6,325.2,393.7,310.4,396.8z"/>
</g>
</svg>
