<?xml version="1.0" encoding="utf-8"?>
<!-- Generator: Adobe Illustrator 19.1.0, SVG Export Plug-In . SVG Version: 6.00 Build 0)  -->
<svg version="1.1" id="Ebene_1" xmlns="http://www.w3.org/2000/svg" xmlns:xlink="http://www.w3.org/1999/xlink" x="0px" y="0px"
	 viewBox="0 0 1403.1 807.9" style="enable-background:new 0 0 1403.1 807.9;" xml:space="preserve">
<style type="text/css">
	.st0{fill:#312783;stroke:#FFFFFF;stroke-width:6;stroke-miterlimit:10;}
	.st1{fill:none;stroke:#F39200;stroke-width:5;stroke-miterlimit:10;}
	.st2{fill:none;stroke:#F39200;stroke-width:4;stroke-linecap:round;stroke-miterlimit:10;}
	.st3{fill:none;stroke:#F39200;stroke-width:5;stroke-linecap:round;stroke-miterlimit:10;}
	.st4{fill:#F39200;}
	.st5{fill:#312783;}
	.st6{fill:#E30613;}
	.st7{display:none;}
	.st8{display:none;fill:#D42016;stroke:#941914;stroke-miterlimit:10;}
	.st9{display:none;fill:#294B9B;}
	.st10{fill:#294B9B;}
	.st11{fill:#F9B233;}
	.st12{fill:#27348B;}
	.st13{fill:#27348B;stroke:#FFFFFF;stroke-width:4;stroke-miterlimit:10;}
	.st14{fill:#E6332A;}
	.st15{fill:#F39200;stroke:#27348B;stroke-miterlimit:10;}
	.st16{fill:none;stroke:#27348B;stroke-miterlimit:10;}
	.st17{fill:#F39200;stroke:#FFFFFF;stroke-width:5;stroke-miterlimit:10;}
	.st18{fill:#27348B;stroke:#FFFFFF;stroke-width:5;stroke-miterlimit:10;}
	.st19{fill:none;stroke:#27348B;stroke-width:5;stroke-miterlimit:10;}
	.st20{fill:#F39200;stroke:#27348B;stroke-width:3;stroke-miterlimit:10;}
	.st21{fill:#F39200;stroke:#FFFFFF;stroke-width:4;stroke-miterlimit:10;}
	.st22{fill:#E30613;stroke:#FFFFFF;stroke-width:5;stroke-miterlimit:10;}
	.st23{fill:none;stroke:#FFFFFF;stroke-width:4;stroke-miterlimit:10;}
	.st24{fill:#FFFFFF;stroke:#F39200;stroke-miterlimit:10;}
	.st25{fill:none;stroke:#F9B233;stroke-width:5;stroke-miterlimit:10;}
	.st26{fill:none;stroke:#F9B233;stroke-width:5;stroke-linecap:round;stroke-miterlimit:10;}
	.st27{fill:none;stroke:#F9B233;stroke-width:4;stroke-linecap:round;stroke-miterlimit:10;}
	.st28{fill:#FFFFFF;stroke:#27348B;stroke-width:6;stroke-miterlimit:10;}
	.st29{fill:#27348B;stroke:#FFFFFF;stroke-width:6;stroke-miterlimit:10;}
</style>
<g>
	<path class="st6" d="M1017.3,174.9c-1.3-54.7-46.7-98.1-101.4-96.8c-54.7,1.3-98.1,46.7-96.8,101.4c0.2,7.7,0.2,3.8,0.2,3.8
		C808.8,290.1,759,531.2,503.5,572c-6.5,0.3-13.1,1.1-19.6,2.7c-53.2,12.9-85.8,66.5-72.9,119.7c12.9,53.2,66.5,85.8,119.7,72.9
		C768.2,752.2,1053.1,437.4,1017.3,174.9"/>
	<path class="st6" d="M887.2,61l12.9,25.7c0.9,1.8,2.9,2.8,4.9,2.3l15-3.7c1.6-0.4,2.9-1.7,3.2-3.4l5-25.3c0.6-2.9-1.8-5.5-4.7-5.2
		l-33,3.2C887.6,55,885.8,58.2,887.2,61z"/>
	<path class="st6" d="M386.4,647.4l28.4,4.9c2,0.3,4-0.7,4.7-2.6l6-14.3c0.7-1.6,0.3-3.4-0.8-4.6l-17.4-19c-2-2.2-5.4-1.8-6.9,0.7
		l-17,28.4C381.8,643.5,383.4,646.9,386.4,647.4z"/>
</g>
</svg>
