<?xml version="1.0" encoding="utf-8"?>
<!-- Generator: Adobe Illustrator 18.0.0, SVG Export Plug-In . SVG Version: 6.00 Build 0)  -->
<!DOCTYPE svg PUBLIC "-//W3C//DTD SVG 1.1//EN" "http://www.w3.org/Graphics/SVG/1.1/DTD/svg11.dtd">
<svg version="1.1" id="Ebene_1" xmlns="http://www.w3.org/2000/svg" xmlns:xlink="http://www.w3.org/1999/xlink" x="0px" y="0px"
	 viewBox="0 0 1015.6 1430.2" style="enable-background:new 0 0 1015.6 1430.2;" xml:space="preserve">
<style type="text/css">
	.st0{display:none;}
	.st1{fill:#E30613;}
	.st2{display:none;fill:#D42016;stroke:#941914;stroke-miterlimit:10;}
	.st3{display:none;fill:#294B9B;}
	.st4{fill:#294B9B;}
	.st5{fill:#F9B233;}
	.st6{fill:#27348B;}
	.st7{fill:#27348B;stroke:#FFFFFF;stroke-width:4;stroke-miterlimit:10;}
	.st8{fill:#E6332A;}
	.st9{fill:#F39200;}
	.st10{fill:#312783;}
	.st11{fill:#F39200;stroke:#27348B;stroke-miterlimit:10;}
	.st12{fill:none;stroke:#27348B;stroke-miterlimit:10;}
	.st13{fill:#F39200;stroke:#FFFFFF;stroke-width:5;stroke-miterlimit:10;}
	.st14{fill:#27348B;stroke:#FFFFFF;stroke-width:5;stroke-miterlimit:10;}
	.st15{fill:none;stroke:#27348B;stroke-width:5;stroke-miterlimit:10;}
	.st16{fill:#F39200;stroke:#27348B;stroke-width:3;stroke-miterlimit:10;}
	.st17{fill:none;stroke:#F39200;stroke-miterlimit:10;}
	.st18{fill:none;}
	.st19{fill:#F9B233;stroke:#FFFFFF;stroke-width:4;stroke-miterlimit:10;}
	.st20{fill:#E30613;stroke:#FFFFFF;stroke-width:5;stroke-miterlimit:10;}
	.st21{fill:none;stroke:#FFFFFF;stroke-width:4;stroke-miterlimit:10;}
	.st22{fill:#FFFFFF;stroke:#F39200;stroke-miterlimit:10;}
</style>
<g>
	<path class="st1" d="M171.7,1216.4c-1.4-0.6-2.8-0.2-4.2,0c-11.2,2-22.3,4-33.5,6c-1.4,0.2-2.9,0.4-4.3,0.3
		c-3.2-0.2-5.3-2.6-5.1-5.8c0.1-1.9,0.6-3.8,1.2-5.6c3.5-10.8,7.1-21.6,10.7-32.3c1.8-5.3-1.7,5.3,0,0c0.8-2.4,3.5-13.6,5.8-14.8
		c2.1-1.1,6.4,2.5,8.6,3.7c1.1,0.6,16.4-2.7,22,0.4c1.3,0.7,2.5,1.3,3.8,1.9c1.9-1.1,1.9-3.1,2.3-4.7c3.8-12.5,8.8-24.4,15.2-35.7
		c21.6-38.4,53.1-65.6,93.9-82.2c2.8-1.1,5.6-2.4,8.3-3.9c35.3-18.4,69.3-38.9,101.3-62.7c17.2-12.8,33.8-26.4,49.4-41.1
		c1.9-1.8,4-2.9,6.6-3.6c20.1-5.2,36.2-16.5,48.7-33c9.6-12.7,16-26.9,18.9-42.6c0.1-0.5,0.3-0.9,0.3-1.4c0.2-6.9,0.5-6.1,5.1-13.1
		c30-46.8,51.8-97.3,66.3-151c6.8-25.3,12-51,15.6-77.1c2.8-20.1,4.7-40.3,5.8-60.6c1.3-24.3,1.2-48.6,0.5-72.9
		c-0.2-7.5,2.9-8.3,1.4-25c-0.5-6.2,0.1-12.5,1.8-18.6c3.4-12.1,1.5-24.4-4.8-36.6c-1.2-2.3-2.7-4.5-4.3-6.5c-1.4-1.8-2.1-3.8-2.4-6
		c-1.6-11.2-3.2-22.5-5-33.7c-1.3-8.3-2.8-16.5-4.2-24.8c-0.4-2.2-1-4.3-1.6-6.4c-6.5-20-8.9-40.5-7.5-61.4
		c2-29.2,10.7-56.1,28.1-79.9c9.6-13.2,21.4-24.1,35.5-32.5c1.2-0.7,2.4-1.5,3.8-2.5c-1.6-2.4-2.4-4.4-5.4-5.7
		c-5.4-2.4-9.3-7.2-10.4-13c-0.6-2.9-3.2-4.8-4.7-7.3c-2.5-4.1-1.2-8.4,3.3-10.1c9.5-3.7,19.1-7.3,28.7-10.9c2.7-1,5.4-2,8.1-3
		c0.9-0.3,1.8-0.7,2.7-0.9c4.2-1,7.2,0.8,8.3,5.1c0.3,1.4,0.5,2.8,0.7,4.3c1,8.6,2,17.2,2.9,25.7c0.1,0.9,0.3,1.9,0.4,2.6
		c1.3,1.2,2.7,0.8,3.9,0.6c28.6-4.4,55.4,1.4,80.6,14.9c23.9,12.8,43.1,30.7,58.8,52.7c8.6,12,15.5,25,21,38.7
		c3.3,8.2,7.1,16.1,10.7,24.1c6.8,15.7,9.6,22.1,15.4,38.2c0.8,2.2,3.7,18.5,3.1,20.9c-4.1,16.5,1.4,26.1,12,38.9
		c4.2,3.2,5.5,7.9,6.6,12.8c5,22,9.1,44.2,12,66.5c1.7,13.2,2.9,26.4,4.1,39.6c0.6,6.4,1,12.9,1.4,19.3c0.6,8.8-0.6,17.6-3.2,26
		c0,0,0,0.1,0,0.1c-4.7,15.5-4.7,21.4-4.6,37.7c0.1,11.1,1.6,22,5.3,32.5c0.9,2.5,1.2,4.9,0.9,7.5c-1.5,12.2-2.8,24.5-4.4,36.7
		c-2.4,18.4-3.7,27.1-7.3,45.3c-0.8,3.8-3,13.3-3.6,17.1c-0.4,2.7-8.5,13.4-10.8,15.1c-15.2,11.2-19.1,21-24.9,38.8
		c-5.4,16.8-4.9,33.6,1.9,50.2c0.4,1-3.7,21.8-6.4,28.7c-6.9,17.6-14.4,34.9-22.2,52.1c-1.3,2.8-3,4.6-5.8,5.8
		c-9.2,3.9-17.4,9.5-24.3,16.8c-6.9,7.4-11.7,15.9-13.3,26.1c-1.1,7.3-0.1,14.3,2.5,21.2c0,0,0,0,0,0c1.1,3,0.9,6.3-0.8,9.1
		c-30,50.2-64.1,97.3-102.3,141.2c-6.3,7.3-15.1,11.9-24.7,13.4c0,0-0.1,0-0.1,0c-26.5,4.3-41.9,23.8-45.2,45.8c0,0,0,0.1,0,0.1
		c-1.3,8.8-5.5,16.8-12.2,22.6c-22.5,19.4-46.2,37.8-71,54.9c-33.2,22.8-67.9,42.9-104.2,59.7c-10.1,4.7-21.5,5.7-32.3,3.2
		c-0.1,0-0.1,0-0.2,0c-10.5-2.4-21.2-3-31.9-2.2c-12.1,0.9-23.7,3.4-35,7.8c-14.7,5.7-20.7,11.7-31.2,23.7c-0.4,0.5-7.8,3.2-8.2,3.6
		c-0.1,0.1-0.3,0.2-0.5,0.4c-2.9,0.6-5.9-0.3-8.9-0.8c-26.1-4.2-49.8-13.7-70.7-30.1c-17.7-13.9-30.1-31.6-38.3-52.4
		c-5.4-13.7-8.6-27.8-9.5-42.4c0-0.8-0.1-1.6-0.3-2.4C172.1,1217,171.9,1216.7,171.7,1216.4z"/>
</g>
<path class="st6" d="M796.1,557.7c0,81.9,34.8,151.5,83.3,176.9c3.2-4.1,7.2-8,12.7-12c2.2-1.7,10.3-12.4,10.8-15.1
	c0.6-3.8,2.8-13.3,3.6-17.1c3.6-18.2,5-26.9,7.3-45.3c1.6-12.2,2.9-24.5,4.4-36.7c0.3-2.6-0.1-5-0.9-7.5
	c-3.6-10.5-5.2-21.4-5.3-32.5c-0.1-16.3-0.1-22.1,4.6-37.7c0,0,0-0.1,0-0.1c2.6-8.4,3.8-17.2,3.2-26c-0.4-6.4-0.8-12.9-1.4-19.3
	c-1.2-13.2-2.4-26.4-4.1-39.6c-2.9-22.4-7-44.5-12-66.5c-0.5-2.2-1-4.4-1.8-6.4C841.3,386.9,796.1,464.3,796.1,557.7z"/>
<path class="st6" d="M296.4,1043.8c-2.7,1.4-5.5,2.7-8.3,3.9c-32.1,13-58.5,32.7-78.8,59.2c23.5,33.2,54.5,53.3,88.3,53.3
	c55.3,0,113.2-33.8,133.4-110.1c6.2-23.5,0.9-66.2,0.1-95.7c-10.8,9.3-22,18.3-33.5,26.8C365.7,1004.9,331.8,1025.5,296.4,1043.8z"
	/>
</svg>
