<?xml version="1.0" encoding="utf-8"?>
<!-- Generator: Adobe Illustrator 18.0.0, SVG Export Plug-In . SVG Version: 6.00 Build 0)  -->
<!DOCTYPE svg PUBLIC "-//W3C//DTD SVG 1.1//EN" "http://www.w3.org/Graphics/SVG/1.1/DTD/svg11.dtd">
<svg version="1.1" xmlns="http://www.w3.org/2000/svg" xmlns:xlink="http://www.w3.org/1999/xlink" x="0px" y="0px"
	 viewBox="0 0 6459.3 3282" enable-background="new 0 0 6459.3 3282" xml:space="preserve">
<g id="Layer_1">
</g>
<g id="Layer_2">
</g>
<g id="Layer_3">
</g>
<g id="Layer_4">
</g>
<g id="Layer_5">
</g>
<g id="Layer_6">
	<g>
		<path fill="none" stroke="#27348B" stroke-width="20" stroke-miterlimit="10" d="M225.6,2399.2c91.5-97.3,299.2-282.9,528.7-249.5
			c2.6,0,328.7,24.4,559.5,249.6c32,31.2,43.4,78,29.3,120.4c-30.7,92.3-84.9,262.1-115.1,357.3c-12.4,39.2-50.7,64.3-91.6,59.9
			c-122.8-13.1-332.6,44.7-497.2,105c-60.6,22.2-211.8-49.5-328.1-77.7c-44-10.7-76.8-47.4-82.5-92.3l-43.7-347.5
			C179.2,2478.7,194,2432.8,225.6,2399.2z"/>
		<path fill="#E30613" d="M428.9,2930.5v-189.7c0-1.5-0.4-3-1.2-4.3c-11.1-18.7-95.3-167.9-31.1-306.2c0.5-1,1.1-1.8,1.9-2.6
			c7.9-7.8,71.8-150.5,184.9-164.8c22.3-2.8,37.8,21.7,25.9,40.8c-13.2,21.2-28.5,45.6-36.3,58.1c-2.8,4.5-0.8,10.5,4.1,12.4
			c22.9,8.8,89.3,26.8,138.9-47.4c6.6-9.9,25.1-14.5,27.6-14.8c9.9-1.1,36.5-8.7,72.1,29.2c5.2,5.5,14.4,2,14.5-5.5
			c0.9-42.8,17-120.3,127.7-74.5c0.4,0.2,0.9,0.3,1.3,0.4c13.4,2.9,382.3,122.1,289.1,330.6c-0.1,0.3-0.3,0.6-0.5,0.9
			c-6.5,10.4-58.2,212.4-258.6,263.7c-0.7,0.2-1.5,0.2-2.2,0.3c-10.7,0.1-279.6,88.1-348.4-5.4c-4.2-5.1-16.9-7.7-24.9-2
			c-47,33.2-96.2,72.6-146.3,94.6C449.6,2952.3,430.7,2948.8,428.9,2930.5z"/>
		<path fill="#E30613" d="M1263.5,2729.9c0,0-44.6-9.8-142.2,89c-11.2,11.4-5.9,30.7,9.6,34.6c32.3,8.2,79.4,14.8,97.3-10.2
			C1231.1,2843.3,1263.5,2729.9,1263.5,2729.9z"/>
		<path fill="#27348B" d="M418.4,2247.3c0,0-181.2,149.1-158.5,375.5c2.8,8.1,21.4,183.9,35.9,238.1
			c14.4,53.9,201,141.1,303.3,132.6c0,0,290.4-51.9,416.5-62.7c18.7-1.2-376.3,111-376.3,111s-96.8,20.6-246.6-53.9
			c0.6,0.2-151.2-15-163.9-116.1c0,0-64.7-386.1-29.7-433.8C198.2,2439.8,305.1,2314,418.4,2247.3z"/>
	</g>
	<g>
		<path fill="#E30613" d="M1876.5,2822.3c-36.6-3.3-88.8-14.6-129.1-49.2c-45.7-39.2-68.4-101.3-67.5-184.5c0-0.1,0-0.3,0-0.4
			c2.1-29-9.8-120.1,67.5-185.1c40.7-34.2,92.5-45.9,129.1-49.2c21-1.9,32.1-2.2,45.3-2.4c15-0.2,13.3-4.4,14.1-19.4
			c1.1-21.9-2-29.9-16.5-30.1c-47.7-0.6-132.6-0.9-205.5,61.5c-58,49.6-86.9,125.2-85.9,224.7c-1,99.4,27.9,175,85.9,224.7
			c62,53,142.1,63,193.4,63c22.6,0,34.7-1.4,42.1-2.5c4.1-0.6,8.2-2.6,7.4-9.4l-5.3-33.3c-1.5-8.2-5.9-9.4-12.1-8.5
			C1929.8,2823.4,1909.5,2825.3,1876.5,2822.3z"/>
		<path fill="#E30613" d="M2605.1,3092.1h-164.6c-11,0-21.3-5.6-26.8-15.1c-7.5-12.9-4.4-29.2,6.7-38.5
			c51.7-43.5,90-84.2,113.8-121.1c17.4-26.9,26.8-51.1,27.9-72c1.2-22.6-7.9-34-10.7-36.9l-0.2-0.2c-4.9-5.2-19.9-20.9-57.3-8.7
			c-15.8,5.2-29.5,13.4-36.4,17.9c-2.8,1.8-6.4,1.2-8.4-1.5l-23.5-30.9c-2.4-3.1-1.6-7.6,1.6-9.8c8.9-6,27.2-17.2,49.1-24.6
			c19.2-6.5,37.5-8.8,54.4-7c22.7,2.4,42.3,12.2,58.2,28.9l0.1,0.1c8.3,8.7,27.3,33.4,25,75.6c-3,55.1-40.7,117.9-112.2,187
			c-1.9,1.8-0.6,4.9,2,4.9h101.1c3.8,0,6.9,3.1,6.9,6.9v38.4C2611.7,3089.1,2608.7,3092.1,2605.1,3092.1z"/>
		<path fill="#E30613" d="M2298.5,2858.5c-50.1,26.1-127.4,23.2-177-3.9c-16.1-8.8-18.9-10.2-22.6-12.9
			c-67.4-49-103-132.3-103-240.8c0-104.8,37-201.2,96.5-251.4c32.2-27.2,63.7-41.2,99.1-44c0,0,11.1-1.2,22.4-1.2
			c10.8,0,21.9,1.2,22.1,1.2l0.2,0c35.4,2.9,66.9,16.9,99.1,44c59.5,50.2,96.5,146.6,96.5,251.4c0,108.6-35.6,191.8-103,240.8
			C2324.8,2844.6,2316.7,2849,2298.5,2858.5z M2213.6,2828.8h0.3c30.9,0,70.8-19.2,84.3-29.1c26.1-19,46.2-45,59.9-77.4
			c14.4-34,21.6-74.8,21.6-121.4c0-88.6-30.6-171.7-78-211.7c-23.8-20.1-45.3-29.7-69.6-32c-8.8-0.8-24.8-1.2-36.7,0
			c-24.3,2.5-45.8,11.9-69.6,32c-47.4,40-78,123.1-78,211.7c0,46.6,7.3,87.4,21.6,121.4c13.7,32.4,33.9,58.4,59.9,77.4
			C2142.9,2809.5,2182.7,2828.8,2213.6,2828.8z"/>
	</g>
	<g>
		<path fill="#E30613" d="M3070.3,2822.3c-36.6-3.3-88.8-14.6-129.1-49.2c-45.7-39.2-68.4-101.3-67.5-184.5c0-0.1,0-0.3,0-0.4
			c2.1-29-9.8-120.1,67.5-185.1c40.7-34.2,92.5-45.9,129.1-49.2c21-1.9,32.1-2.2,45.3-2.4c15-0.2,13.3-4.4,14.1-19.4
			c1.1-21.9-2-29.9-16.5-30.1c-47.7-0.6-132.6-0.9-205.5,61.5c-58,49.6-86.9,125.2-85.9,224.7c-1,99.4,27.9,175,85.9,224.7
			c62,53,142.1,63,193.4,63c22.6,0,34.7-1.4,42.1-2.5c4.1-0.6,8.2-2.6,7.4-9.4l-5.3-33.3c-1.5-8.2-5.9-9.4-12.1-8.5
			C3123.6,2823.4,3103.3,2825.3,3070.3,2822.3z"/>
		<path fill="#E30613" d="M3798.9,3092.1h-164.6c-11,0-21.3-5.6-26.8-15.1c-7.5-12.9-4.4-29.2,6.7-38.5
			c51.7-43.5,90-84.2,113.8-121.1c17.4-26.9,26.8-51.1,27.9-72c1.2-22.6-7.9-34-10.7-36.9l-0.2-0.2c-4.9-5.2-19.9-20.9-57.3-8.7
			c-15.8,5.2-29.5,13.4-36.4,17.9c-2.8,1.8-6.4,1.2-8.4-1.5l-23.5-30.9c-2.4-3.1-1.6-7.6,1.6-9.8c8.9-6,27.2-17.2,49.1-24.6
			c19.2-6.5,37.5-8.8,54.4-7c22.7,2.4,42.3,12.2,58.2,28.9l0.1,0.1c8.3,8.7,27.3,33.4,25,75.6c-3,55.1-40.7,117.9-112.2,187
			c-1.9,1.8-0.6,4.9,2,4.9h101.1c3.8,0,6.9,3.1,6.9,6.9v38.4C3805.5,3089.1,3802.5,3092.1,3798.9,3092.1z"/>
		<path fill="#E30613" d="M3492.3,2858.5c-50.1,26.1-127.4,23.2-177-3.9c-16.1-8.8-18.9-10.2-22.6-12.9
			c-67.4-49-103-132.3-103-240.8c0-104.8,37-201.2,96.5-251.4c32.2-27.2,63.7-41.2,99.1-44c0,0,11.1-1.2,22.4-1.2
			c10.8,0,21.9,1.2,22.1,1.2l0.2,0c35.4,2.9,66.9,16.9,99.1,44c59.5,50.2,96.5,146.6,96.5,251.4c0,108.6-35.6,191.8-103,240.8
			C3518.6,2844.6,3510.5,2849,3492.3,2858.5z M3407.4,2828.8h0.3c30.9,0,70.8-19.2,84.3-29.1c26.1-19,46.2-45,59.9-77.4
			c14.4-34,21.6-74.8,21.6-121.4c0-88.6-30.6-171.7-78-211.7c-23.8-20.1-45.3-29.7-69.6-32c-8.8-0.8-24.8-1.2-36.7,0
			c-24.3,2.5-45.8,11.9-69.6,32c-47.4,40-78,123.1-78,211.7c0,46.6,7.3,87.4,21.6,121.4c13.7,32.4,33.9,58.4,59.9,77.4
			C3336.7,2809.5,3376.5,2828.8,3407.4,2828.8z"/>
	</g>
	<g>
		<path fill="#E30613" d="M4264.1,2822.3c-36.6-3.3-88.8-14.6-129.1-49.2c-45.7-39.2-68.4-101.3-67.5-184.5c0-0.1,0-0.3,0-0.4
			c2.1-29-9.8-120.1,67.5-185.1c40.7-34.2,92.5-45.9,129.1-49.2c21-1.9,32.1-2.2,45.3-2.4c15-0.2,13.3-4.4,14.1-19.4
			c1.1-21.9-2-29.9-16.5-30.1c-47.7-0.6-132.6-0.9-205.5,61.5c-58,49.6-86.9,125.2-85.9,224.7c-1,99.4,27.9,175,85.9,224.7
			c62,53,142.1,63,193.4,63c22.6,0,34.7-1.4,42.1-2.5c4.1-0.6,8.2-2.6,7.4-9.4l-5.3-33.3c-1.5-8.2-5.9-9.4-12.1-8.5
			C4317.4,2823.4,4297.1,2825.3,4264.1,2822.3z"/>
		<path fill="#E30613" d="M4992.7,3092.1h-164.6c-11,0-21.3-5.6-26.8-15.1c-7.5-12.9-4.4-29.2,6.7-38.5
			c51.7-43.5,90-84.2,113.8-121.1c17.4-26.9,26.8-51.1,27.9-72c1.2-22.6-7.9-34-10.7-36.9l-0.2-0.2c-4.9-5.2-19.9-20.9-57.3-8.7
			c-15.8,5.2-29.5,13.4-36.4,17.9c-2.8,1.8-6.4,1.2-8.4-1.5l-23.5-30.9c-2.4-3.1-1.6-7.6,1.6-9.8c8.9-6,27.2-17.2,49.1-24.6
			c19.2-6.5,37.5-8.8,54.4-7c22.7,2.4,42.3,12.2,58.2,28.9l0.1,0.1c8.3,8.7,27.3,33.4,25,75.6c-3,55.1-40.7,117.9-112.2,187
			c-1.9,1.8-0.6,4.9,2,4.9h101.1c3.8,0,6.9,3.1,6.9,6.9v38.4C4999.3,3089.1,4996.3,3092.1,4992.7,3092.1z"/>
		<path fill="#E30613" d="M4686.1,2858.5c-50.1,26.1-127.4,23.2-177-3.9c-16.1-8.8-18.9-10.2-22.6-12.9
			c-67.4-49-103-132.3-103-240.8c0-104.8,37-201.2,96.5-251.4c32.2-27.2,63.7-41.2,99.1-44c0,0,11.1-1.2,22.4-1.2
			c10.8,0,21.9,1.2,22.1,1.2l0.2,0c35.4,2.9,66.9,16.9,99.1,44c59.5,50.2,96.5,146.6,96.5,251.4c0,108.6-35.6,191.8-103,240.8
			C4712.4,2844.6,4704.3,2849,4686.1,2858.5z M4601.2,2828.8h0.3c30.9,0,70.8-19.2,84.3-29.1c26.1-19,46.2-45,59.9-77.4
			c14.4-34,21.6-74.8,21.6-121.4c0-88.6-30.6-171.7-78-211.7c-23.8-20.1-45.3-29.7-69.6-32c-8.8-0.8-24.8-1.2-36.7,0
			c-24.3,2.5-45.8,11.9-69.6,32c-47.4,40-78,123.1-78,211.7c0,46.6,7.3,87.4,21.6,121.4c13.7,32.4,33.9,58.4,59.9,77.4
			C4530.5,2809.5,4570.3,2828.8,4601.2,2828.8z"/>
	</g>
	<g>
		<path fill="#E30613" d="M5457.9,2822.3c-36.6-3.3-88.8-14.6-129.1-49.2c-45.7-39.2-68.4-101.3-67.5-184.5c0-0.1,0-0.3,0-0.4
			c2.1-29-9.8-120.1,67.5-185.1c40.7-34.2,92.5-45.9,129.1-49.2c21-1.9,32.1-2.2,45.3-2.4c15-0.2,13.3-4.4,14.1-19.4
			c1.1-21.9-2-29.9-16.5-30.1c-47.7-0.6-132.6-0.9-205.5,61.5c-58,49.6-86.9,125.2-85.9,224.7c-1,99.4,27.9,175,85.9,224.7
			c62,53,142.1,63,193.4,63c22.6,0,34.7-1.4,42.1-2.5c4.1-0.6,8.2-2.6,7.4-9.4l-5.3-33.3c-1.5-8.2-5.9-9.4-12.1-8.5
			C5511.2,2823.4,5490.9,2825.3,5457.9,2822.3z"/>
		<path fill="#E30613" d="M6186.5,3092.1h-164.6c-11,0-21.3-5.6-26.8-15.1c-7.5-12.9-4.4-29.2,6.7-38.5
			c51.7-43.5,90-84.2,113.8-121.1c17.4-26.9,26.8-51.1,27.9-72c1.2-22.6-7.9-34-10.7-36.9l-0.2-0.2c-4.9-5.2-19.9-20.9-57.3-8.7
			c-15.8,5.2-29.5,13.4-36.4,17.9c-2.8,1.8-6.4,1.2-8.4-1.5l-23.5-30.9c-2.4-3.1-1.6-7.6,1.6-9.8c8.9-6,27.2-17.2,49.1-24.6
			c19.2-6.5,37.5-8.8,54.4-7c22.7,2.4,42.3,12.2,58.2,28.9l0.1,0.1c8.3,8.7,27.3,33.4,25,75.6c-3,55.1-40.7,117.9-112.2,187
			c-1.9,1.8-0.6,4.9,2,4.9h101.1c3.8,0,6.9,3.1,6.9,6.9v38.4C6193.1,3089.1,6190.2,3092.1,6186.5,3092.1z"/>
		<path fill="#E30613" d="M5879.9,2858.5c-50.1,26.1-127.4,23.2-177-3.9c-16.1-8.8-18.9-10.2-22.6-12.9
			c-67.4-49-103-132.3-103-240.8c0-104.8,37-201.2,96.5-251.4c32.2-27.2,63.7-41.2,99.1-44c0,0,11.1-1.2,22.4-1.2
			c10.8,0,21.9,1.2,22.1,1.2l0.2,0c35.4,2.9,66.9,16.9,99.1,44c59.5,50.2,96.5,146.6,96.5,251.4c0,108.6-35.6,191.8-103,240.8
			C5906.2,2844.6,5898.1,2849,5879.9,2858.5z M5795.1,2828.8h0.3c30.9,0,70.8-19.2,84.3-29.1c26.1-19,46.2-45,59.9-77.4
			c14.4-34,21.6-74.8,21.6-121.4c0-88.6-30.6-171.7-78-211.7c-23.8-20.1-45.3-29.7-69.6-32c-8.8-0.8-24.8-1.2-36.7,0
			c-24.3,2.5-45.8,11.9-69.6,32c-47.4,40-78,123.1-78,211.7c0,46.6,7.3,87.4,21.6,121.4c13.7,32.4,33.9,58.4,59.9,77.4
			C5724.3,2809.5,5764.1,2828.8,5795.1,2828.8z"/>
	</g>
	<g>
		<path fill="#E30613" d="M5457.9,1733.8c-36.6-3.3-88.8-14.6-129.1-49.2c-45.7-39.2-68.4-101.3-67.5-184.5c0-0.1,0-0.3,0-0.4
			c2.1-29-9.8-120.1,67.5-185.1c40.7-34.2,92.5-45.9,129.1-49.2c21-1.9,32.1-2.2,45.3-2.4c15-0.2,13.3-4.4,14.1-19.4
			c1.1-21.9-2-29.9-16.5-30.1c-47.7-0.6-132.6-0.9-205.5,61.5c-58,49.6-86.9,125.2-85.9,224.7c-1,99.4,27.9,175,85.9,224.7
			c62,53,142.1,63,193.4,63c22.6,0,34.7-1.4,42.1-2.5c4.1-0.6,8.2-2.6,7.4-9.4l-5.3-33.3c-1.5-8.2-5.9-9.4-12.1-8.5
			C5511.2,1734.9,5490.9,1736.9,5457.9,1733.8z"/>
		<path fill="#E30613" d="M6186.5,2003.6h-164.6c-11,0-21.3-5.6-26.8-15.1c-7.5-12.9-4.4-29.2,6.7-38.5
			c51.7-43.5,90-84.2,113.8-121.1c17.4-26.9,26.8-51.1,27.9-72c1.2-22.6-7.9-34-10.7-36.9l-0.2-0.2c-4.9-5.2-19.9-20.9-57.3-8.7
			c-15.8,5.2-29.5,13.4-36.4,17.9c-2.8,1.8-6.4,1.2-8.4-1.5l-23.5-30.9c-2.4-3.1-1.6-7.6,1.6-9.8c8.9-6,27.2-17.2,49.1-24.6
			c19.2-6.5,37.5-8.8,54.4-7c22.7,2.4,42.3,12.2,58.2,28.9l0.1,0.1c8.3,8.7,27.3,33.4,25,75.6c-3,55.1-40.7,117.9-112.2,187
			c-1.9,1.8-0.6,4.9,2,4.9h101.1c3.8,0,6.9,3.1,6.9,6.9v38.4C6193.1,2000.6,6190.2,2003.6,6186.5,2003.6z"/>
		<path fill="#E30613" d="M5879.9,1770c-50.1,26.1-127.4,23.2-177-3.9c-16.1-8.8-18.9-10.2-22.6-12.9c-67.4-49-103-132.3-103-240.8
			c0-104.8,37-201.2,96.5-251.4c32.2-27.2,63.7-41.2,99.1-44c0,0,11.1-1.2,22.4-1.2c10.8,0,21.9,1.2,22.1,1.2l0.2,0
			c35.4,2.9,66.9,16.9,99.1,44c59.5,50.2,96.5,146.6,96.5,251.4c0,108.6-35.6,191.8-103,240.8
			C5906.2,1756.1,5898.1,1760.6,5879.9,1770z M5795.1,1740.3h0.3c30.9,0,70.8-19.2,84.3-29.1c26.1-19,46.2-45,59.9-77.4
			c14.4-34,21.6-74.8,21.6-121.4c0-88.6-30.6-171.7-78-211.7c-23.8-20.1-45.3-29.7-69.6-32c-8.8-0.8-24.8-1.2-36.7,0
			c-24.3,2.5-45.8,11.9-69.6,32c-47.4,40-78,123.1-78,211.7c0,46.6,7.3,87.4,21.6,121.4c13.7,32.4,33.9,58.4,59.9,77.4
			C5724.3,1721.1,5764.1,1740.3,5795.1,1740.3z"/>
	</g>
	<g>
		<path fill="#E30613" d="M4234.2,1733.8c-36.6-3.3-88.8-14.6-129.1-49.2c-45.7-39.2-68.4-101.3-67.5-184.5c0-0.1,0-0.3,0-0.4
			c2.1-29-9.8-120.1,67.5-185.1c40.7-34.2,92.5-45.9,129.1-49.2c21-1.9,32.1-2.2,45.3-2.4c15-0.2,13.3-4.4,14.1-19.4
			c1.1-21.9-2-29.9-16.5-30.1c-47.7-0.6-132.6-0.9-205.5,61.5c-58,49.6-86.9,125.2-85.9,224.7c-1,99.4,27.9,175,85.9,224.7
			c62,53,142.1,63,193.4,63c22.6,0,34.7-1.4,42.1-2.5c4.1-0.6,8.2-2.6,7.4-9.4l-5.3-33.3c-1.5-8.2-5.9-9.4-12.1-8.5
			C4287.5,1734.9,4267.2,1736.9,4234.2,1733.8z"/>
		<path fill="#E30613" d="M4962.8,2003.6h-164.6c-11,0-21.3-5.6-26.8-15.1c-7.5-12.9-4.4-29.2,6.7-38.5
			c51.7-43.5,90-84.2,113.8-121.1c17.4-26.9,26.8-51.1,27.9-72c1.2-22.6-7.9-34-10.7-36.9l-0.2-0.2c-4.9-5.2-19.9-20.9-57.3-8.7
			c-15.8,5.2-29.5,13.4-36.4,17.9c-2.8,1.8-6.4,1.2-8.4-1.5l-23.5-30.9c-2.4-3.1-1.6-7.6,1.6-9.8c8.9-6,27.2-17.2,49.1-24.6
			c19.2-6.5,37.5-8.8,54.4-7c22.7,2.4,42.3,12.2,58.2,28.9l0.1,0.1c8.3,8.7,27.3,33.4,25,75.6c-3,55.1-40.7,117.9-112.2,187
			c-1.9,1.8-0.6,4.9,2,4.9h101.1c3.8,0,6.9,3.1,6.9,6.9v38.4C4969.4,2000.6,4966.4,2003.6,4962.8,2003.6z"/>
		<path fill="#E30613" d="M4656.2,1770c-50.1,26.1-127.4,23.2-177-3.9c-16.1-8.8-18.9-10.2-22.6-12.9c-67.4-49-103-132.3-103-240.8
			c0-104.8,37-201.2,96.5-251.4c32.2-27.2,63.7-41.2,99.1-44c0,0,11.1-1.2,22.4-1.2c10.8,0,21.9,1.2,22.1,1.2l0.2,0
			c35.4,2.9,66.9,16.9,99.1,44c59.5,50.2,96.5,146.6,96.5,251.4c0,108.6-35.6,191.8-103,240.8
			C4682.5,1756.1,4674.4,1760.6,4656.2,1770z M4571.3,1740.3h0.3c30.9,0,70.8-19.2,84.3-29.1c26.1-19,46.2-45,59.9-77.4
			c14.4-34,21.6-74.8,21.6-121.4c0-88.6-30.6-171.7-78-211.7c-23.8-20.1-45.3-29.7-69.6-32c-8.8-0.8-24.8-1.2-36.7,0
			c-24.3,2.5-45.8,11.9-69.6,32c-47.4,40-78,123.1-78,211.7c0,46.6,7.3,87.4,21.6,121.4c13.7,32.4,33.9,58.4,59.9,77.4
			C4500.6,1721.1,4540.4,1740.3,4571.3,1740.3z"/>
	</g>
	<g>
		<path fill="#E30613" d="M3010.5,1733.8c-36.6-3.3-88.8-14.6-129.1-49.2c-45.7-39.2-68.4-101.3-67.5-184.5c0-0.1,0-0.3,0-0.4
			c2.1-29-9.8-120.1,67.5-185.1c40.7-34.2,92.5-45.9,129.1-49.2c21-1.9,32.1-2.2,45.3-2.4c15-0.2,13.3-4.4,14.1-19.4
			c1.1-21.9-2-29.9-16.5-30.1c-47.7-0.6-132.6-0.9-205.5,61.5c-58,49.6-86.9,125.2-85.9,224.7c-1,99.4,27.9,175,85.9,224.7
			c62,53,142.1,63,193.4,63c22.6,0,34.7-1.4,42.1-2.5c4.1-0.6,8.2-2.6,7.4-9.4l-5.3-33.3c-1.5-8.2-5.9-9.4-12.1-8.5
			C3063.8,1734.9,3043.5,1736.9,3010.5,1733.8z"/>
		<path fill="#E30613" d="M3739.1,2003.6h-164.6c-11,0-21.3-5.6-26.8-15.1c-7.5-12.9-4.4-29.2,6.7-38.5
			c51.7-43.5,90-84.2,113.8-121.1c17.4-26.9,26.8-51.1,27.9-72c1.2-22.6-7.9-34-10.7-36.9l-0.2-0.2c-4.9-5.2-19.9-20.9-57.3-8.7
			c-15.8,5.2-29.5,13.4-36.4,17.9c-2.8,1.8-6.4,1.2-8.4-1.5l-23.5-30.9c-2.4-3.1-1.6-7.6,1.6-9.8c8.9-6,27.2-17.2,49.1-24.6
			c19.2-6.5,37.5-8.8,54.4-7c22.7,2.4,42.3,12.2,58.2,28.9l0.1,0.1c8.3,8.7,27.3,33.4,25,75.6c-3,55.1-40.7,117.9-112.2,187
			c-1.9,1.8-0.6,4.9,2,4.9h101.1c3.8,0,6.9,3.1,6.9,6.9v38.4C3745.7,2000.6,3742.7,2003.6,3739.1,2003.6z"/>
		<path fill="#E30613" d="M3432.5,1770c-50.1,26.1-127.4,23.2-177-3.9c-16.1-8.8-18.9-10.2-22.6-12.9c-67.4-49-103-132.3-103-240.8
			c0-104.8,37-201.2,96.5-251.4c32.2-27.2,63.7-41.2,99.1-44c0,0,11.1-1.2,22.4-1.2c10.8,0,21.9,1.2,22.1,1.2l0.2,0
			c35.4,2.9,66.9,16.9,99.1,44c59.5,50.2,96.5,146.6,96.5,251.4c0,108.6-35.6,191.8-103,240.8
			C3458.8,1756.1,3450.7,1760.6,3432.5,1770z M3347.6,1740.3h0.3c30.9,0,70.8-19.2,84.3-29.1c26.1-19,46.2-45,59.9-77.4
			c14.4-34,21.6-74.8,21.6-121.4c0-88.6-30.6-171.7-78-211.7c-23.8-20.1-45.3-29.7-69.6-32c-8.8-0.8-24.8-1.2-36.7,0
			c-24.3,2.5-45.8,11.9-69.6,32c-47.4,40-78,123.1-78,211.7c0,46.6,7.3,87.4,21.6,121.4c13.7,32.4,33.9,58.4,59.9,77.4
			C3276.9,1721.1,3316.7,1740.3,3347.6,1740.3z"/>
	</g>
	<g>
		<path fill="#E30613" d="M1786.7,1733.8c-36.6-3.3-88.8-14.6-129.1-49.2c-45.7-39.2-68.4-101.3-67.5-184.5c0-0.1,0-0.3,0-0.4
			c2.1-29-9.8-120.1,67.5-185.1c40.7-34.2,92.5-45.9,129.1-49.2c21-1.9,32.1-2.2,45.3-2.4c15-0.2,13.3-4.4,14.1-19.4
			c1.1-21.9-2-29.9-16.5-30.1c-47.7-0.6-132.6-0.9-205.5,61.5c-58,49.6-86.9,125.2-85.9,224.7c-1,99.4,27.9,175,85.9,224.7
			c62,53,142.1,63,193.4,63c22.6,0,34.7-1.4,42.1-2.5c4.1-0.6,8.2-2.6,7.4-9.4l-5.3-33.3c-1.5-8.2-5.9-9.4-12.1-8.5
			C1840.1,1734.9,1819.8,1736.9,1786.7,1733.8z"/>
		<path fill="#E30613" d="M2515.4,2003.6h-164.6c-11,0-21.3-5.6-26.8-15.1c-7.5-12.9-4.4-29.2,6.7-38.5
			c51.7-43.5,90-84.2,113.8-121.1c17.4-26.9,26.8-51.1,27.9-72c1.2-22.6-7.9-34-10.7-36.9l-0.2-0.2c-4.9-5.2-19.9-20.9-57.3-8.7
			c-15.8,5.2-29.5,13.4-36.4,17.9c-2.8,1.8-6.4,1.2-8.4-1.5l-23.5-30.9c-2.4-3.1-1.6-7.6,1.6-9.8c8.9-6,27.2-17.2,49.1-24.6
			c19.2-6.5,37.5-8.8,54.4-7c22.7,2.4,42.3,12.2,58.2,28.9l0.1,0.1c8.3,8.7,27.3,33.4,25,75.6c-3,55.1-40.7,117.9-112.2,187
			c-1.9,1.8-0.6,4.9,2,4.9h101.1c3.8,0,6.9,3.1,6.9,6.9v38.4C2522,2000.6,2519,2003.6,2515.4,2003.6z"/>
		<path fill="#E30613" d="M2208.8,1770c-50.1,26.1-127.4,23.2-177-3.9c-16.1-8.8-18.9-10.2-22.6-12.9c-67.4-49-103-132.3-103-240.8
			c0-104.8,37-201.2,96.5-251.4c32.2-27.2,63.7-41.2,99.1-44c0,0,11.1-1.2,22.4-1.2c10.8,0,21.9,1.2,22.1,1.2l0.2,0
			c35.4,2.9,66.9,16.9,99.1,44c59.5,50.2,96.5,146.6,96.5,251.4c0,108.6-35.6,191.8-103,240.8
			C2235.1,1756.1,2227,1760.6,2208.8,1770z M2123.9,1740.3h0.3c30.9,0,70.8-19.2,84.3-29.1c26.1-19,46.2-45,59.9-77.4
			c14.4-34,21.6-74.8,21.6-121.4c0-88.6-30.6-171.7-78-211.7c-23.8-20.1-45.3-29.7-69.6-32c-8.8-0.8-24.8-1.2-36.7,0
			c-24.3,2.5-45.8,11.9-69.6,32c-47.4,40-78,123.1-78,211.7c0,46.6,7.3,87.4,21.6,121.4c13.7,32.4,33.9,58.4,59.9,77.4
			C2053.2,1721.1,2093,1740.3,2123.9,1740.3z"/>
	</g>
	<g>
		<path fill="#E30613" d="M563,1733.8c-36.6-3.3-88.8-14.6-129.1-49.2c-45.7-39.2-68.4-101.3-67.5-184.5c0-0.1,0-0.3,0-0.4
			c2.1-29-9.8-120.1,67.5-185.1c40.7-34.2,92.5-45.9,129.1-49.2c21-1.9,32.1-2.2,45.3-2.4c15-0.2,13.3-4.4,14.1-19.4
			c1.1-21.9-2-29.9-16.5-30.1c-47.7-0.6-132.6-0.9-205.5,61.5c-58,49.6-86.9,125.2-85.9,224.7c-1,99.4,27.9,175,85.9,224.7
			c62,53,142.1,63,193.4,63c22.6,0,34.7-1.4,42.1-2.5c4.1-0.6,8.2-2.6,7.4-9.4l-5.3-33.3c-1.5-8.2-5.9-9.4-12.1-8.5
			C616.4,1734.9,596.1,1736.9,563,1733.8z"/>
		<path fill="#E30613" d="M1291.6,2003.6H1127c-11,0-21.3-5.6-26.8-15.1c-7.5-12.9-4.4-29.2,6.7-38.5c51.7-43.5,90-84.2,113.8-121.1
			c17.4-26.9,26.8-51.1,27.9-72c1.2-22.6-7.9-34-10.7-36.9l-0.2-0.2c-4.9-5.2-19.9-20.9-57.3-8.7c-15.8,5.2-29.5,13.4-36.4,17.9
			c-2.8,1.8-6.4,1.2-8.4-1.5l-23.5-30.9c-2.4-3.1-1.6-7.6,1.6-9.8c8.9-6,27.2-17.2,49.1-24.6c19.2-6.5,37.5-8.8,54.4-7
			c22.7,2.4,42.3,12.2,58.2,28.9l0.1,0.1c8.3,8.7,27.3,33.4,25,75.6c-3,55.1-40.7,117.9-112.2,187c-1.9,1.8-0.6,4.9,2,4.9h101.1
			c3.8,0,6.9,3.1,6.9,6.9v38.4C1298.3,2000.6,1295.3,2003.6,1291.6,2003.6z"/>
		<path fill="#E30613" d="M985.1,1770c-50.1,26.1-127.4,23.2-177-3.9c-16.1-8.8-18.9-10.2-22.6-12.9c-67.4-49-103-132.3-103-240.8
			c0-104.8,37-201.2,96.5-251.4c32.2-27.2,63.7-41.2,99.1-44c0,0,11.1-1.2,22.4-1.2c10.8,0,21.9,1.2,22.1,1.2l0.2,0
			c35.4,2.9,66.9,16.9,99.1,44c59.5,50.2,96.5,146.6,96.5,251.4c0,108.6-35.6,191.8-103,240.8
			C1011.4,1756.1,1003.3,1760.6,985.1,1770z M900.2,1740.3h0.3c30.9,0,70.8-19.2,84.3-29.1c26.1-19,46.2-45,59.9-77.4
			c14.4-34,21.6-74.8,21.6-121.4c0-88.6-30.6-171.7-78-211.7c-23.8-20.1-45.3-29.7-69.6-32c-8.8-0.8-24.8-1.2-36.7,0
			c-24.3,2.5-45.8,11.9-69.6,32c-47.4,40-78,123.1-78,211.7c0,46.6,7.3,87.4,21.6,121.4c13.7,32.4,33.9,58.4,59.9,77.4
			C829.5,1721.1,869.3,1740.3,900.2,1740.3z"/>
	</g>
	<g>
		<path fill="#E30613" d="M5457.9,763.4c-36.6-3.3-88.8-14.6-129.1-49.2c-45.7-39.2-68.4-101.3-67.5-184.5c0-0.1,0-0.3,0-0.4
			c2.1-29-9.8-120.1,67.5-185.1c40.7-34.2,92.5-45.9,129.1-49.2c21-1.9,32.1-2.2,45.3-2.4c15-0.2,13.3-4.4,14.1-19.4
			c1.1-21.9-2-29.9-16.5-30.1c-47.7-0.6-132.6-0.9-205.5,61.5c-58,49.6-86.9,125.2-85.9,224.7c-1,99.4,27.9,175,85.9,224.7
			c62,53,142.1,63,193.4,63c22.6,0,34.7-1.4,42.1-2.5c4.1-0.6,8.2-2.6,7.4-9.4l-5.3-33.3c-1.5-8.2-5.9-9.4-12.1-8.5
			C5511.2,764.4,5490.9,766.4,5457.9,763.4z"/>
		<path fill="#E30613" d="M6186.5,1033.1h-164.6c-11,0-21.3-5.6-26.8-15.1c-7.5-12.9-4.4-29.2,6.7-38.5
			c51.7-43.5,90-84.2,113.8-121.1c17.4-26.9,26.8-51.1,27.9-72c1.2-22.6-7.9-34-10.7-36.9l-0.2-0.2c-4.9-5.2-19.9-20.9-57.3-8.7
			c-15.8,5.2-29.5,13.4-36.4,17.9c-2.8,1.8-6.4,1.2-8.4-1.5l-23.5-30.9c-2.4-3.1-1.6-7.6,1.6-9.8c8.9-6,27.2-17.2,49.1-24.6
			c19.2-6.5,37.5-8.8,54.4-7c22.7,2.4,42.3,12.2,58.2,28.9l0.1,0.1c8.3,8.7,27.3,33.4,25,75.6c-3,55.1-40.7,117.9-112.2,187
			c-1.9,1.8-0.6,4.9,2,4.9h101.1c3.8,0,6.9,3.1,6.9,6.9v38.4C6193.1,1030.2,6190.2,1033.1,6186.5,1033.1z"/>
		<path fill="#E30613" d="M5879.9,799.6c-50.1,26.1-127.4,23.2-177-3.9c-16.1-8.8-18.9-10.2-22.6-12.9c-67.4-49-103-132.3-103-240.8
			c0-104.8,37-201.2,96.5-251.4c32.2-27.2,63.7-41.2,99.1-44c0,0,11.1-1.2,22.4-1.2c10.8,0,21.9,1.2,22.1,1.2l0.2,0
			c35.4,2.9,66.9,16.9,99.1,44c59.5,50.2,96.5,146.6,96.5,251.4c0,108.6-35.6,191.8-103,240.8
			C5906.2,785.7,5898.1,790.1,5879.9,799.6z M5795.1,769.8h0.3c30.9,0,70.8-19.2,84.3-29.1c26.1-19,46.2-45,59.9-77.4
			c14.4-34,21.6-74.8,21.6-121.4c0-88.6-30.6-171.7-78-211.7c-23.8-20.1-45.3-29.7-69.6-32c-8.8-0.8-24.8-1.2-36.7,0
			c-24.3,2.5-45.8,11.9-69.6,32c-47.4,40-78,123.1-78,211.7c0,46.6,7.3,87.4,21.6,121.4c13.7,32.4,33.9,58.4,59.9,77.4
			C5724.3,750.6,5764.1,769.8,5795.1,769.8z"/>
	</g>
	<g>
		<path fill="#E30613" d="M4234.2,763.4c-36.6-3.3-88.8-14.6-129.1-49.2c-45.7-39.2-68.4-101.3-67.5-184.5c0-0.1,0-0.3,0-0.4
			c2.1-29-9.8-120.1,67.5-185.1c40.7-34.2,92.5-45.9,129.1-49.2c21-1.9,32.1-2.2,45.3-2.4c15-0.2,13.3-4.4,14.1-19.4
			c1.1-21.9-2-29.9-16.5-30.1c-47.7-0.6-132.6-0.9-205.5,61.5c-58,49.6-86.9,125.2-85.9,224.7c-1,99.4,27.9,175,85.9,224.7
			c62,53,142.1,63,193.4,63c22.6,0,34.7-1.4,42.1-2.5c4.1-0.6,8.2-2.6,7.4-9.4l-5.3-33.3c-1.5-8.2-5.9-9.4-12.1-8.5
			C4287.5,764.4,4267.2,766.4,4234.2,763.4z"/>
		<path fill="#E30613" d="M4962.8,1033.1h-164.6c-11,0-21.3-5.6-26.8-15.1c-7.5-12.9-4.4-29.2,6.7-38.5
			c51.7-43.5,90-84.2,113.8-121.1c17.4-26.9,26.8-51.1,27.9-72c1.2-22.6-7.9-34-10.7-36.9l-0.2-0.2c-4.9-5.2-19.9-20.9-57.3-8.7
			c-15.8,5.2-29.5,13.4-36.4,17.9c-2.8,1.8-6.4,1.2-8.4-1.5l-23.5-30.9c-2.4-3.1-1.6-7.6,1.6-9.8c8.9-6,27.2-17.2,49.1-24.6
			c19.2-6.5,37.5-8.8,54.4-7c22.7,2.4,42.3,12.2,58.2,28.9l0.1,0.1c8.3,8.7,27.3,33.4,25,75.6c-3,55.1-40.7,117.9-112.2,187
			c-1.9,1.8-0.6,4.9,2,4.9h101.1c3.8,0,6.9,3.1,6.9,6.9v38.4C4969.4,1030.2,4966.4,1033.1,4962.8,1033.1z"/>
		<path fill="#E30613" d="M4656.2,799.6c-50.1,26.1-127.4,23.2-177-3.9c-16.1-8.8-18.9-10.2-22.6-12.9c-67.4-49-103-132.3-103-240.8
			c0-104.8,37-201.2,96.5-251.4c32.2-27.2,63.7-41.2,99.1-44c0,0,11.1-1.2,22.4-1.2c10.8,0,21.9,1.2,22.1,1.2l0.2,0
			c35.4,2.9,66.9,16.9,99.1,44c59.5,50.2,96.5,146.6,96.5,251.4c0,108.6-35.6,191.8-103,240.8
			C4682.5,785.7,4674.4,790.1,4656.2,799.6z M4571.3,769.8h0.3c30.9,0,70.8-19.2,84.3-29.1c26.1-19,46.2-45,59.9-77.4
			c14.4-34,21.6-74.8,21.6-121.4c0-88.6-30.6-171.7-78-211.7c-23.8-20.1-45.3-29.7-69.6-32c-8.8-0.8-24.8-1.2-36.7,0
			c-24.3,2.5-45.8,11.9-69.6,32c-47.4,40-78,123.1-78,211.7c0,46.6,7.3,87.4,21.6,121.4c13.7,32.4,33.9,58.4,59.9,77.4
			C4500.6,750.6,4540.4,769.8,4571.3,769.8z"/>
	</g>
	<g>
		<path fill="#E30613" d="M3010.5,763.4c-36.6-3.3-88.8-14.6-129.1-49.2c-45.7-39.2-68.4-101.3-67.5-184.5c0-0.1,0-0.3,0-0.4
			c2.1-29-9.8-120.1,67.5-185.1c40.7-34.2,92.5-45.9,129.1-49.2c21-1.9,32.1-2.2,45.3-2.4c15-0.2,13.3-4.4,14.1-19.4
			c1.1-21.9-2-29.9-16.5-30.1c-47.7-0.6-132.6-0.9-205.5,61.5c-58,49.6-86.9,125.2-85.9,224.7c-1,99.4,27.9,175,85.9,224.7
			c62,53,142.1,63,193.4,63c22.6,0,34.7-1.4,42.1-2.5c4.1-0.6,8.2-2.6,7.4-9.4l-5.3-33.3c-1.5-8.2-5.9-9.4-12.1-8.5
			C3063.8,764.4,3043.5,766.4,3010.5,763.4z"/>
		<path fill="#E30613" d="M3739.1,1033.1h-164.6c-11,0-21.3-5.6-26.8-15.1c-7.5-12.9-4.4-29.2,6.7-38.5
			c51.7-43.5,90-84.2,113.8-121.1c17.4-26.9,26.8-51.1,27.9-72c1.2-22.6-7.9-34-10.7-36.9l-0.2-0.2c-4.9-5.2-19.9-20.9-57.3-8.7
			c-15.8,5.2-29.5,13.4-36.4,17.9c-2.8,1.8-6.4,1.2-8.4-1.5l-23.5-30.9c-2.4-3.1-1.6-7.6,1.6-9.8c8.9-6,27.2-17.2,49.1-24.6
			c19.2-6.5,37.5-8.8,54.4-7c22.7,2.4,42.3,12.2,58.2,28.9l0.1,0.1c8.3,8.7,27.3,33.4,25,75.6c-3,55.1-40.7,117.9-112.2,187
			c-1.9,1.8-0.6,4.9,2,4.9h101.1c3.8,0,6.9,3.1,6.9,6.9v38.4C3745.7,1030.2,3742.7,1033.1,3739.1,1033.1z"/>
		<path fill="#E30613" d="M3432.5,799.6c-50.1,26.1-127.4,23.2-177-3.9c-16.1-8.8-18.9-10.2-22.6-12.9c-67.4-49-103-132.3-103-240.8
			c0-104.8,37-201.2,96.5-251.4c32.2-27.2,63.7-41.2,99.1-44c0,0,11.1-1.2,22.4-1.2c10.8,0,21.9,1.2,22.1,1.2l0.2,0
			c35.4,2.9,66.9,16.9,99.1,44c59.5,50.2,96.5,146.6,96.5,251.4c0,108.6-35.6,191.8-103,240.8
			C3458.8,785.7,3450.7,790.1,3432.5,799.6z M3347.6,769.8h0.3c30.9,0,70.8-19.2,84.3-29.1c26.1-19,46.2-45,59.9-77.4
			c14.4-34,21.6-74.8,21.6-121.4c0-88.6-30.6-171.7-78-211.7c-23.8-20.1-45.3-29.7-69.6-32c-8.8-0.8-24.8-1.2-36.7,0
			c-24.3,2.5-45.8,11.9-69.6,32c-47.4,40-78,123.1-78,211.7c0,46.6,7.3,87.4,21.6,121.4c13.7,32.4,33.9,58.4,59.9,77.4
			C3276.9,750.6,3316.7,769.8,3347.6,769.8z"/>
	</g>
	<g>
		<path fill="#E30613" d="M1786.7,763.4c-36.6-3.3-88.8-14.6-129.1-49.2c-45.7-39.2-68.4-101.3-67.5-184.5c0-0.1,0-0.3,0-0.4
			c2.1-29-9.8-120.1,67.5-185.1c40.7-34.2,92.5-45.9,129.1-49.2c21-1.9,32.1-2.2,45.3-2.4c15-0.2,13.3-4.4,14.1-19.4
			c1.1-21.9-2-29.9-16.5-30.1c-47.7-0.6-132.6-0.9-205.5,61.5c-58,49.6-86.9,125.2-85.9,224.7c-1,99.4,27.9,175,85.9,224.7
			c62,53,142.1,63,193.4,63c22.6,0,34.7-1.4,42.1-2.5c4.1-0.6,8.2-2.6,7.4-9.4l-5.3-33.3c-1.5-8.2-5.9-9.4-12.1-8.5
			C1840.1,764.4,1819.8,766.4,1786.7,763.4z"/>
		<path fill="#E30613" d="M2515.4,1033.1h-164.6c-11,0-21.3-5.6-26.8-15.1c-7.5-12.9-4.4-29.2,6.7-38.5
			c51.7-43.5,90-84.2,113.8-121.1c17.4-26.9,26.8-51.1,27.9-72c1.2-22.6-7.9-34-10.7-36.9l-0.2-0.2c-4.9-5.2-19.9-20.9-57.3-8.7
			c-15.8,5.2-29.5,13.4-36.4,17.9c-2.8,1.8-6.4,1.2-8.4-1.5l-23.5-30.9c-2.4-3.1-1.6-7.6,1.6-9.8c8.9-6,27.2-17.2,49.1-24.6
			c19.2-6.5,37.5-8.8,54.4-7c22.7,2.4,42.3,12.2,58.2,28.9l0.1,0.1c8.3,8.7,27.3,33.4,25,75.6c-3,55.1-40.7,117.9-112.2,187
			c-1.9,1.8-0.6,4.9,2,4.9h101.1c3.8,0,6.9,3.1,6.9,6.9v38.4C2522,1030.2,2519,1033.1,2515.4,1033.1z"/>
		<path fill="#E30613" d="M2208.8,799.6c-50.1,26.1-127.4,23.2-177-3.9c-16.1-8.8-18.9-10.2-22.6-12.9c-67.4-49-103-132.3-103-240.8
			c0-104.8,37-201.2,96.5-251.4c32.2-27.2,63.7-41.2,99.1-44c0,0,11.1-1.2,22.4-1.2c10.8,0,21.9,1.2,22.1,1.2l0.2,0
			c35.4,2.9,66.9,16.9,99.1,44c59.5,50.2,96.5,146.6,96.5,251.4c0,108.6-35.6,191.8-103,240.8C2235.1,785.7,2227,790.1,2208.8,799.6
			z M2123.9,769.8h0.3c30.9,0,70.8-19.2,84.3-29.1c26.1-19,46.2-45,59.9-77.4c14.4-34,21.6-74.8,21.6-121.4
			c0-88.6-30.6-171.7-78-211.7c-23.8-20.1-45.3-29.7-69.6-32c-8.8-0.8-24.8-1.2-36.7,0c-24.3,2.5-45.8,11.9-69.6,32
			c-47.4,40-78,123.1-78,211.7c0,46.6,7.3,87.4,21.6,121.4c13.7,32.4,33.9,58.4,59.9,77.4C2053.2,750.6,2093,769.8,2123.9,769.8z"/>
	</g>
	<g>
		<path fill="#E30613" d="M563,763.4c-36.6-3.3-88.8-14.6-129.1-49.2c-45.7-39.2-68.4-101.3-67.5-184.5c0-0.1,0-0.3,0-0.4
			c2.1-29-9.8-120.1,67.5-185.1c40.7-34.2,92.5-45.9,129.1-49.2c21-1.9,32.1-2.2,45.3-2.4c15-0.2,13.3-4.4,14.1-19.4
			c1.1-21.9-2-29.9-16.5-30.1c-47.7-0.6-132.6-0.9-205.5,61.5c-58,49.6-86.9,125.2-85.9,224.7c-1,99.4,27.9,175,85.9,224.7
			c62,53,142.1,63,193.4,63c22.6,0,34.7-1.4,42.1-2.5c4.1-0.6,8.2-2.6,7.4-9.4l-5.3-33.3c-1.5-8.2-5.9-9.4-12.1-8.5
			C616.4,764.4,596.1,766.4,563,763.4z"/>
		<path fill="#E30613" d="M1291.6,1033.1H1127c-11,0-21.3-5.6-26.8-15.1c-7.5-12.9-4.4-29.2,6.7-38.5c51.7-43.5,90-84.2,113.8-121.1
			c17.4-26.9,26.8-51.1,27.9-72c1.2-22.6-7.9-34-10.7-36.9l-0.2-0.2c-4.9-5.2-19.9-20.9-57.3-8.7c-15.8,5.2-29.5,13.4-36.4,17.9
			c-2.8,1.8-6.4,1.2-8.4-1.5l-23.5-30.9c-2.4-3.1-1.6-7.6,1.6-9.8c8.9-6,27.2-17.2,49.1-24.6c19.2-6.5,37.5-8.8,54.4-7
			c22.7,2.4,42.3,12.2,58.2,28.9l0.1,0.1c8.3,8.7,27.3,33.4,25,75.6c-3,55.1-40.7,117.9-112.2,187c-1.9,1.8-0.6,4.9,2,4.9h101.1
			c3.8,0,6.9,3.1,6.9,6.9v38.4C1298.3,1030.2,1295.3,1033.1,1291.6,1033.1z"/>
		<path fill="#E30613" d="M985.1,799.6c-50.1,26.1-127.4,23.2-177-3.9c-16.1-8.8-18.9-10.2-22.6-12.9c-67.4-49-103-132.3-103-240.8
			c0-104.8,37-201.2,96.5-251.4c32.2-27.2,63.7-41.2,99.1-44c0,0,11.1-1.2,22.4-1.2c10.8,0,21.9,1.2,22.1,1.2l0.2,0
			c35.4,2.9,66.9,16.9,99.1,44c59.5,50.2,96.5,146.6,96.5,251.4c0,108.6-35.6,191.8-103,240.8
			C1011.4,785.7,1003.3,790.1,985.1,799.6z M900.2,769.8h0.3c30.9,0,70.8-19.2,84.3-29.1c26.1-19,46.2-45,59.9-77.4
			c14.4-34,21.6-74.8,21.6-121.4c0-88.6-30.6-171.7-78-211.7c-23.8-20.1-45.3-29.7-69.6-32c-8.8-0.8-24.8-1.2-36.7,0
			c-24.3,2.5-45.8,11.9-69.6,32c-47.4,40-78,123.1-78,211.7c0,46.6,7.3,87.4,21.6,121.4c13.7,32.4,33.9,58.4,59.9,77.4
			C829.5,750.6,869.3,769.8,900.2,769.8z"/>
	</g>
</g>
</svg>
