<?xml version="1.0" encoding="utf-8"?>
<!-- Generator: Adobe Illustrator 19.1.0, SVG Export Plug-In . SVG Version: 6.00 Build 0)  -->
<svg version="1.1" id="RindCO2" xmlns="http://www.w3.org/2000/svg" xmlns:xlink="http://www.w3.org/1999/xlink" x="0px" y="0px"
	 viewBox="2809 -1343.7 6459.3 3282" enable-background="new 2809 -1343.7 6459.3 3282" xml:space="preserve">
<g id="Rind">
	<path fill="none" stroke="#27348B" stroke-width="20" stroke-miterlimit="10" d="M3034.6,1055.5c91.5-97.3,299.2-282.9,528.7-249.5
		c2.6,0,328.7,24.4,559.5,249.6c32,31.2,43.4,78,29.3,120.4c-30.7,92.3-84.9,262.1-115.1,357.3c-12.4,39.2-50.7,64.3-91.6,59.9
		c-122.8-13.1-332.6,44.7-497.2,105c-60.6,22.2-211.8-49.5-328.1-77.7c-44-10.7-76.8-47.4-82.5-92.3l-43.7-347.5
		C2988.2,1135,3003,1089.1,3034.6,1055.5z"/>
	<path fill="#E30613" d="M3237.9,1586.8v-189.7c0-1.5-0.4-3-1.2-4.3c-11.1-18.7-95.3-167.9-31.1-306.2c0.5-1,1.1-1.8,1.9-2.6
		c7.9-7.8,71.8-150.5,184.9-164.8c22.3-2.8,37.8,21.7,25.9,40.8c-13.2,21.2-28.5,45.6-36.3,58.1c-2.8,4.5-0.8,10.5,4.1,12.4
		c22.9,8.8,89.3,26.8,138.9-47.4c6.6-9.9,25.1-14.5,27.6-14.8c9.9-1.1,36.5-8.7,72.1,29.2c5.2,5.5,14.4,2,14.5-5.5
		c0.9-42.8,17-120.3,127.7-74.5c0.4,0.2,0.9,0.3,1.3,0.4c13.4,2.9,382.3,122.1,289.1,330.6c-0.1,0.3-0.3,0.6-0.5,0.9
		c-6.5,10.4-58.2,212.4-258.6,263.7c-0.7,0.2-1.5,0.2-2.2,0.3c-10.7,0.1-279.6,88.1-348.4-5.4c-4.2-5.1-16.9-7.7-24.9-2
		c-47,33.2-96.2,72.6-146.3,94.6C3258.6,1608.6,3239.7,1605.1,3237.9,1586.8z"/>
	<path fill="#E30613" d="M4072.5,1386.2c0,0-44.6-9.8-142.2,89c-11.2,11.4-5.9,30.7,9.6,34.6c32.3,8.2,79.4,14.8,97.3-10.2
		C4040.1,1499.6,4072.5,1386.2,4072.5,1386.2z"/>
	<path fill="#27348B" d="M3227.4,903.6c0,0-181.2,149.1-158.5,375.5c2.8,8.1,21.4,183.9,35.9,238.1c14.4,53.9,201,141.1,303.3,132.6
		c0,0,290.4-51.9,416.5-62.7c18.7-1.2-376.3,111-376.3,111s-96.8,20.6-246.6-53.9c0.6,0.2-151.2-15-163.9-116.1
		c0,0-64.7-386.1-29.7-433.8C3007.2,1096.1,3114.1,970.3,3227.4,903.6z"/>
</g>
<g id="CO2">
	<g id="BubbleN">
		<path fill="#E30613" d="M4685.5,1478.6c-36.6-3.3-88.8-14.6-129.1-49.2c-45.7-39.2-68.4-101.3-67.5-184.5c0-0.1,0-0.3,0-0.4
			c2.1-29-9.8-120.1,67.5-185.1c40.7-34.2,92.5-45.9,129.1-49.2c21-1.9,32.1-2.2,45.3-2.4c15-0.2,13.3-4.4,14.1-19.4
			c1.1-21.9-2-29.9-16.5-30.1c-47.7-0.6-132.6-0.9-205.5,61.5c-58,49.6-86.9,125.2-85.9,224.7c-1,99.4,27.9,175,85.9,224.7
			c62,53,142.1,63,193.4,63c22.6,0,34.7-1.4,42.1-2.5c4.1-0.6,8.2-2.6,7.4-9.4l-5.3-33.3c-1.5-8.2-5.9-9.4-12.1-8.5
			C4738.8,1479.7,4718.5,1481.6,4685.5,1478.6z"/>
		<path fill="#E30613" d="M5414.1,1748.4h-164.6c-11,0-21.3-5.6-26.8-15.1c-7.5-12.9-4.4-29.2,6.7-38.5
			c51.7-43.5,90-84.2,113.8-121.1c17.4-26.9,26.8-51.1,27.9-72c1.2-22.6-7.9-34-10.7-36.9l-0.2-0.2c-4.9-5.2-19.9-20.9-57.3-8.7
			c-15.8,5.2-29.5,13.4-36.4,17.9c-2.8,1.8-6.4,1.2-8.4-1.5l-23.5-30.9c-2.4-3.1-1.6-7.6,1.6-9.8c8.9-6,27.2-17.2,49.1-24.6
			c19.2-6.5,37.5-8.8,54.4-7c22.7,2.4,42.3,12.2,58.2,28.9l0.1,0.1c8.3,8.7,27.3,33.4,25,75.6c-3,55.1-40.7,117.9-112.2,187
			c-1.9,1.8-0.6,4.9,2,4.9h101.1c3.8,0,6.9,3.1,6.9,6.9v38.4C5420.7,1745.4,5417.7,1748.4,5414.1,1748.4z"/>
		<path fill="#E30613" d="M5107.5,1514.8c-50.1,26.1-127.4,23.2-177-3.9c-16.1-8.8-18.9-10.2-22.6-12.9
			c-67.4-49-103-132.3-103-240.8c0-104.8,37-201.2,96.5-251.4c32.2-27.2,63.7-41.2,99.1-44c0,0,11.1-1.2,22.4-1.2
			c10.8,0,21.9,1.2,22.1,1.2h0.2c35.4,2.9,66.9,16.9,99.1,44c59.5,50.2,96.5,146.6,96.5,251.4c0,108.6-35.6,191.8-103,240.8
			C5133.8,1500.9,5125.7,1505.3,5107.5,1514.8z M5022.6,1485.1h0.3c30.9,0,70.8-19.2,84.3-29.1c26.1-19,46.2-45,59.9-77.4
			c14.4-34,21.6-74.8,21.6-121.4c0-88.6-30.6-171.7-78-211.7c-23.8-20.1-45.3-29.7-69.6-32c-8.8-0.8-24.8-1.2-36.7,0
			c-24.3,2.5-45.8,11.9-69.6,32c-47.4,40-78,123.1-78,211.7c0,46.6,7.3,87.4,21.6,121.4c13.7,32.4,33.9,58.4,59.9,77.4
			C4951.9,1465.8,4991.7,1485.1,5022.6,1485.1z"/>
	</g>
	<g id="BubbleM">
		<path fill="#E30613" d="M5879.3,1478.6c-36.6-3.3-88.8-14.6-129.1-49.2c-45.7-39.2-68.4-101.3-67.5-184.5c0-0.1,0-0.3,0-0.4
			c2.1-29-9.8-120.1,67.5-185.1c40.7-34.2,92.5-45.9,129.1-49.2c21-1.9,32.1-2.2,45.3-2.4c15-0.2,13.3-4.4,14.1-19.4
			c1.1-21.9-2-29.9-16.5-30.1c-47.7-0.6-132.6-0.9-205.5,61.5c-58,49.6-86.9,125.2-85.9,224.7c-1,99.4,27.9,175,85.9,224.7
			c62,53,142.1,63,193.4,63c22.6,0,34.7-1.4,42.1-2.5c4.1-0.6,8.2-2.6,7.4-9.4l-5.3-33.3c-1.5-8.2-5.9-9.4-12.1-8.5
			C5932.6,1479.7,5912.3,1481.6,5879.3,1478.6z"/>
		<path fill="#E30613" d="M6607.9,1748.4h-164.6c-11,0-21.3-5.6-26.8-15.1c-7.5-12.9-4.4-29.2,6.7-38.5
			c51.7-43.5,90-84.2,113.8-121.1c17.4-26.9,26.8-51.1,27.9-72c1.2-22.6-7.9-34-10.7-36.9l-0.2-0.2c-4.9-5.2-19.9-20.9-57.3-8.7
			c-15.8,5.2-29.5,13.4-36.4,17.9c-2.8,1.8-6.4,1.2-8.4-1.5l-23.5-30.9c-2.4-3.1-1.6-7.6,1.6-9.8c8.9-6,27.2-17.2,49.1-24.6
			c19.2-6.5,37.5-8.8,54.4-7c22.7,2.4,42.3,12.2,58.2,28.9l0.1,0.1c8.3,8.7,27.3,33.4,25,75.6c-3,55.1-40.7,117.9-112.2,187
			c-1.9,1.8-0.6,4.9,2,4.9h101.1c3.8,0,6.9,3.1,6.9,6.9v38.4C6614.5,1745.4,6611.5,1748.4,6607.9,1748.4z"/>
		<path fill="#E30613" d="M6301.3,1514.8c-50.1,26.1-127.4,23.2-177-3.9c-16.1-8.8-18.9-10.2-22.6-12.9
			c-67.4-49-103-132.3-103-240.8c0-104.8,37-201.2,96.5-251.4c32.2-27.2,63.7-41.2,99.1-44c0,0,11.1-1.2,22.4-1.2
			c10.8,0,21.9,1.2,22.1,1.2h0.2c35.4,2.9,66.9,16.9,99.1,44c59.5,50.2,96.5,146.6,96.5,251.4c0,108.6-35.6,191.8-103,240.8
			C6327.6,1500.9,6319.5,1505.3,6301.3,1514.8z M6216.4,1485.1h0.3c30.9,0,70.8-19.2,84.3-29.1c26.1-19,46.2-45,59.9-77.4
			c14.4-34,21.6-74.8,21.6-121.4c0-88.6-30.6-171.7-78-211.7c-23.8-20.1-45.3-29.7-69.6-32c-8.8-0.8-24.8-1.2-36.7,0
			c-24.3,2.5-45.8,11.9-69.6,32c-47.4,40-78,123.1-78,211.7c0,46.6,7.3,87.4,21.6,121.4c13.7,32.4,33.9,58.4,59.9,77.4
			C6145.7,1465.8,6185.5,1485.1,6216.4,1485.1z"/>
	</g>
	<g id="BubbleL">
		<path fill="#E30613" d="M7073.1,1478.6c-36.6-3.3-88.8-14.6-129.1-49.2c-45.7-39.2-68.4-101.3-67.5-184.5c0-0.1,0-0.3,0-0.4
			c2.1-29-9.8-120.1,67.5-185.1c40.7-34.2,92.5-45.9,129.1-49.2c21-1.9,32.1-2.2,45.3-2.4c15-0.2,13.3-4.4,14.1-19.4
			c1.1-21.9-2-29.9-16.5-30.1c-47.7-0.6-132.6-0.9-205.5,61.5c-58,49.6-86.9,125.2-85.9,224.7c-1,99.4,27.9,175,85.9,224.7
			c62,53,142.1,63,193.4,63c22.6,0,34.7-1.4,42.1-2.5c4.1-0.6,8.2-2.6,7.4-9.4l-5.3-33.3c-1.5-8.2-5.9-9.4-12.1-8.5
			C7126.4,1479.7,7106.1,1481.6,7073.1,1478.6z"/>
		<path fill="#E30613" d="M7801.7,1748.4h-164.6c-11,0-21.3-5.6-26.8-15.1c-7.5-12.9-4.4-29.2,6.7-38.5
			c51.7-43.5,90-84.2,113.8-121.1c17.4-26.9,26.8-51.1,27.9-72c1.2-22.6-7.9-34-10.7-36.9l-0.2-0.2c-4.9-5.2-19.9-20.9-57.3-8.7
			c-15.8,5.2-29.5,13.4-36.4,17.9c-2.8,1.8-6.4,1.2-8.4-1.5l-23.5-30.9c-2.4-3.1-1.6-7.6,1.6-9.8c8.9-6,27.2-17.2,49.1-24.6
			c19.2-6.5,37.5-8.8,54.4-7c22.7,2.4,42.3,12.2,58.2,28.9l0.1,0.1c8.3,8.7,27.3,33.4,25,75.6c-3,55.1-40.7,117.9-112.2,187
			c-1.9,1.8-0.6,4.9,2,4.9h101.1c3.8,0,6.9,3.1,6.9,6.9v38.4C7808.3,1745.4,7805.3,1748.4,7801.7,1748.4z"/>
		<path fill="#E30613" d="M7495.1,1514.8c-50.1,26.1-127.4,23.2-177-3.9c-16.1-8.8-18.9-10.2-22.6-12.9
			c-67.4-49-103-132.3-103-240.8c0-104.8,37-201.2,96.5-251.4c32.2-27.2,63.7-41.2,99.1-44c0,0,11.1-1.2,22.4-1.2
			c10.8,0,21.9,1.2,22.1,1.2h0.2c35.4,2.9,66.9,16.9,99.1,44c59.5,50.2,96.5,146.6,96.5,251.4c0,108.6-35.6,191.8-103,240.8
			C7521.4,1500.9,7513.3,1505.3,7495.1,1514.8z M7410.2,1485.1h0.3c30.9,0,70.8-19.2,84.3-29.1c26.1-19,46.2-45,59.9-77.4
			c14.4-34,21.6-74.8,21.6-121.4c0-88.6-30.6-171.7-78-211.7c-23.8-20.1-45.3-29.7-69.6-32c-8.8-0.8-24.8-1.2-36.7,0
			c-24.3,2.5-45.8,11.9-69.6,32c-47.4,40-78,123.1-78,211.7c0,46.6,7.3,87.4,21.6,121.4c13.7,32.4,33.9,58.4,59.9,77.4
			C7339.5,1465.8,7379.3,1485.1,7410.2,1485.1z"/>
	</g>
	<g id="BubbleK">
		<path fill="#E30613" d="M8266.9,1478.6c-36.6-3.3-88.8-14.6-129.1-49.2c-45.7-39.2-68.4-101.3-67.5-184.5c0-0.1,0-0.3,0-0.4
			c2.1-29-9.8-120.1,67.5-185.1c40.7-34.2,92.5-45.9,129.1-49.2c21-1.9,32.1-2.2,45.3-2.4c15-0.2,13.3-4.4,14.1-19.4
			c1.1-21.9-2-29.9-16.5-30.1c-47.7-0.6-132.6-0.9-205.5,61.5c-58,49.6-86.9,125.2-85.9,224.7c-1,99.4,27.9,175,85.9,224.7
			c62,53,142.1,63,193.4,63c22.6,0,34.7-1.4,42.1-2.5c4.1-0.6,8.2-2.6,7.4-9.4l-5.3-33.3c-1.5-8.2-5.9-9.4-12.1-8.5
			C8320.2,1479.7,8299.9,1481.6,8266.9,1478.6z"/>
		<path fill="#E30613" d="M8995.5,1748.4h-164.6c-11,0-21.3-5.6-26.8-15.1c-7.5-12.9-4.4-29.2,6.7-38.5
			c51.7-43.5,90-84.2,113.8-121.1c17.4-26.9,26.8-51.1,27.9-72c1.2-22.6-7.9-34-10.7-36.9l-0.2-0.2c-4.9-5.2-19.9-20.9-57.3-8.7
			c-15.8,5.2-29.5,13.4-36.4,17.9c-2.8,1.8-6.4,1.2-8.4-1.5l-23.5-30.9c-2.4-3.1-1.6-7.6,1.6-9.8c8.9-6,27.2-17.2,49.1-24.6
			c19.2-6.5,37.5-8.8,54.4-7c22.7,2.4,42.3,12.2,58.2,28.9l0.1,0.1c8.3,8.7,27.3,33.4,25,75.6c-3,55.1-40.7,117.9-112.2,187
			c-1.9,1.8-0.6,4.9,2,4.9h101.1c3.8,0,6.9,3.1,6.9,6.9v38.4C9002.1,1745.4,8999.2,1748.4,8995.5,1748.4z"/>
		<path fill="#E30613" d="M8688.9,1514.8c-50.1,26.1-127.4,23.2-177-3.9c-16.1-8.8-18.9-10.2-22.6-12.9
			c-67.4-49-103-132.3-103-240.8c0-104.8,37-201.2,96.5-251.4c32.2-27.2,63.7-41.2,99.1-44c0,0,11.1-1.2,22.4-1.2
			c10.8,0,21.9,1.2,22.1,1.2h0.2c35.4,2.9,66.9,16.9,99.1,44c59.5,50.2,96.5,146.6,96.5,251.4c0,108.6-35.6,191.8-103,240.8
			C8715.2,1500.9,8707.1,1505.3,8688.9,1514.8z M8604.1,1485.1h0.3c30.9,0,70.8-19.2,84.3-29.1c26.1-19,46.2-45,59.9-77.4
			c14.4-34,21.6-74.8,21.6-121.4c0-88.6-30.6-171.7-78-211.7c-23.8-20.1-45.3-29.7-69.6-32c-8.8-0.8-24.8-1.2-36.7,0
			c-24.3,2.5-45.8,11.9-69.6,32c-47.4,40-78,123.1-78,211.7c0,46.6,7.3,87.4,21.6,121.4c13.7,32.4,33.9,58.4,59.9,77.4
			C8533.3,1465.8,8573.1,1485.1,8604.1,1485.1z"/>
	</g>
	<g id="BubbleJ">
		<path fill="#E30613" d="M8266.9,390.1c-36.6-3.3-88.8-14.6-129.1-49.2c-45.7-39.2-68.4-101.3-67.5-184.5c0-0.1,0-0.3,0-0.4
			c2.1-29-9.8-120.1,67.5-185.1c40.7-34.2,92.5-45.9,129.1-49.2c21-1.9,32.1-2.2,45.3-2.4c15-0.2,13.3-4.4,14.1-19.4
			c1.1-21.9-2-29.9-16.5-30.1c-47.7-0.6-132.6-0.9-205.5,61.5c-58,49.6-86.9,125.2-85.9,224.7c-1,99.4,27.9,175,85.9,224.7
			c62,53,142.1,63,193.4,63c22.6,0,34.7-1.4,42.1-2.5c4.1-0.6,8.2-2.6,7.4-9.4l-5.3-33.3c-1.5-8.2-5.9-9.4-12.1-8.5
			C8320.2,391.2,8299.9,393.2,8266.9,390.1z"/>
		<path fill="#E30613" d="M8995.5,659.9h-164.6c-11,0-21.3-5.6-26.8-15.1c-7.5-12.9-4.4-29.2,6.7-38.5
			c51.7-43.5,90-84.2,113.8-121.1c17.4-26.9,26.8-51.1,27.9-72c1.2-22.6-7.9-34-10.7-36.9l-0.2-0.2c-4.9-5.2-19.9-20.9-57.3-8.7
			c-15.8,5.2-29.5,13.4-36.4,17.9c-2.8,1.8-6.4,1.2-8.4-1.5l-23.5-30.9c-2.4-3.1-1.6-7.6,1.6-9.8c8.9-6,27.2-17.2,49.1-24.6
			c19.2-6.5,37.5-8.8,54.4-7c22.7,2.4,42.3,12.2,58.2,28.9l0.1,0.1c8.3,8.7,27.3,33.4,25,75.6c-3,55.1-40.7,117.9-112.2,187
			c-1.9,1.8-0.6,4.9,2,4.9h101.1c3.8,0,6.9,3.1,6.9,6.9v38.4C9002.1,656.9,8999.2,659.9,8995.5,659.9z"/>
		<path fill="#E30613" d="M8688.9,426.3c-50.1,26.1-127.4,23.2-177-3.9c-16.1-8.8-18.9-10.2-22.6-12.9c-67.4-49-103-132.3-103-240.8
			c0-104.8,37-201.2,96.5-251.4c32.2-27.2,63.7-41.2,99.1-44c0,0,11.1-1.2,22.4-1.2c10.8,0,21.9,1.2,22.1,1.2h0.2
			c35.4,2.9,66.9,16.9,99.1,44c59.5,50.2,96.5,146.6,96.5,251.4c0,108.6-35.6,191.8-103,240.8
			C8715.2,412.4,8707.1,416.9,8688.9,426.3z M8604.1,396.6h0.3c30.9,0,70.8-19.2,84.3-29.1c26.1-19,46.2-45,59.9-77.4
			c14.4-34,21.6-74.8,21.6-121.4c0-88.6-30.6-171.7-78-211.7c-23.8-20.1-45.3-29.7-69.6-32c-8.8-0.8-24.8-1.2-36.7,0
			c-24.3,2.5-45.8,11.9-69.6,32c-47.4,40-78,123.1-78,211.7c0,46.6,7.3,87.4,21.6,121.4c13.7,32.4,33.9,58.4,59.9,77.4
			C8533.3,377.4,8573.1,396.6,8604.1,396.6z"/>
	</g>
	<g id="BubbleI">
		<path fill="#E30613" d="M7043.2,390.1c-36.6-3.3-88.8-14.6-129.1-49.2c-45.7-39.2-68.4-101.3-67.5-184.5c0-0.1,0-0.3,0-0.4
			c2.1-29-9.8-120.1,67.5-185.1c40.7-34.2,92.5-45.9,129.1-49.2c21-1.9,32.1-2.2,45.3-2.4c15-0.2,13.3-4.4,14.1-19.4
			c1.1-21.9-2-29.9-16.5-30.1c-47.7-0.6-132.6-0.9-205.5,61.5c-58,49.6-86.9,125.2-85.9,224.7c-1,99.4,27.9,175,85.9,224.7
			c62,53,142.1,63,193.4,63c22.6,0,34.7-1.4,42.1-2.5c4.1-0.6,8.2-2.6,7.4-9.4l-5.3-33.3c-1.5-8.2-5.9-9.4-12.1-8.5
			C7096.5,391.2,7076.2,393.2,7043.2,390.1z"/>
		<path fill="#E30613" d="M7771.8,659.9h-164.6c-11,0-21.3-5.6-26.8-15.1c-7.5-12.9-4.4-29.2,6.7-38.5
			c51.7-43.5,90-84.2,113.8-121.1c17.4-26.9,26.8-51.1,27.9-72c1.2-22.6-7.9-34-10.7-36.9l-0.2-0.2c-4.9-5.2-19.9-20.9-57.3-8.7
			c-15.8,5.2-29.5,13.4-36.4,17.9c-2.8,1.8-6.4,1.2-8.4-1.5l-23.5-30.9c-2.4-3.1-1.6-7.6,1.6-9.8c8.9-6,27.2-17.2,49.1-24.6
			c19.2-6.5,37.5-8.8,54.4-7c22.7,2.4,42.3,12.2,58.2,28.9l0.1,0.1c8.3,8.7,27.3,33.4,25,75.6c-3,55.1-40.7,117.9-112.2,187
			c-1.9,1.8-0.6,4.9,2,4.9h101.1c3.8,0,6.9,3.1,6.9,6.9v38.4C7778.4,656.9,7775.4,659.9,7771.8,659.9z"/>
		<path fill="#E30613" d="M7465.2,426.3c-50.1,26.1-127.4,23.2-177-3.9c-16.1-8.8-18.9-10.2-22.6-12.9c-67.4-49-103-132.3-103-240.8
			c0-104.8,37-201.2,96.5-251.4c32.2-27.2,63.7-41.2,99.1-44c0,0,11.1-1.2,22.4-1.2c10.8,0,21.9,1.2,22.1,1.2h0.2
			c35.4,2.9,66.9,16.9,99.1,44c59.5,50.2,96.5,146.6,96.5,251.4c0,108.6-35.6,191.8-103,240.8
			C7491.5,412.4,7483.4,416.9,7465.2,426.3z M7380.3,396.6h0.3c30.9,0,70.8-19.2,84.3-29.1c26.1-19,46.2-45,59.9-77.4
			c14.4-34,21.6-74.8,21.6-121.4c0-88.6-30.6-171.7-78-211.7c-23.8-20.1-45.3-29.7-69.6-32c-8.8-0.8-24.8-1.2-36.7,0
			c-24.3,2.5-45.8,11.9-69.6,32c-47.4,40-78,123.1-78,211.7c0,46.6,7.3,87.4,21.6,121.4c13.7,32.4,33.9,58.4,59.9,77.4
			C7309.6,377.4,7349.4,396.6,7380.3,396.6z"/>
	</g>
	<g id="BubbleH">
		<path fill="#E30613" d="M5819.5,390.1c-36.6-3.3-88.8-14.6-129.1-49.2c-45.7-39.2-68.4-101.3-67.5-184.5c0-0.1,0-0.3,0-0.4
			c2.1-29-9.8-120.1,67.5-185.1c40.7-34.2,92.5-45.9,129.1-49.2c21-1.9,32.1-2.2,45.3-2.4c15-0.2,13.3-4.4,14.1-19.4
			c1.1-21.9-2-29.9-16.5-30.1c-47.7-0.6-132.6-0.9-205.5,61.5c-58,49.6-86.9,125.2-85.9,224.7c-1,99.4,27.9,175,85.9,224.7
			c62,53,142.1,63,193.4,63c22.6,0,34.7-1.4,42.1-2.5c4.1-0.6,8.2-2.6,7.4-9.4l-5.3-33.3c-1.5-8.2-5.9-9.4-12.1-8.5
			C5872.8,391.2,5852.5,393.2,5819.5,390.1z"/>
		<path fill="#E30613" d="M6548.1,659.9h-164.6c-11,0-21.3-5.6-26.8-15.1c-7.5-12.9-4.4-29.2,6.7-38.5
			c51.7-43.5,90-84.2,113.8-121.1c17.4-26.9,26.8-51.1,27.9-72c1.2-22.6-7.9-34-10.7-36.9l-0.2-0.2c-4.9-5.2-19.9-20.9-57.3-8.7
			c-15.8,5.2-29.5,13.4-36.4,17.9c-2.8,1.8-6.4,1.2-8.4-1.5l-23.5-30.9c-2.4-3.1-1.6-7.6,1.6-9.8c8.9-6,27.2-17.2,49.1-24.6
			c19.2-6.5,37.5-8.8,54.4-7c22.7,2.4,42.3,12.2,58.2,28.9l0.1,0.1c8.3,8.7,27.3,33.4,25,75.6c-3,55.1-40.7,117.9-112.2,187
			c-1.9,1.8-0.6,4.9,2,4.9h101.1c3.8,0,6.9,3.1,6.9,6.9v38.4C6554.7,656.9,6551.7,659.9,6548.1,659.9z"/>
		<path fill="#E30613" d="M6241.5,426.3c-50.1,26.1-127.4,23.2-177-3.9c-16.1-8.8-18.9-10.2-22.6-12.9c-67.4-49-103-132.3-103-240.8
			c0-104.8,37-201.2,96.5-251.4c32.2-27.2,63.7-41.2,99.1-44c0,0,11.1-1.2,22.4-1.2c10.8,0,21.9,1.2,22.1,1.2h0.2
			c35.4,2.9,66.9,16.9,99.1,44c59.5,50.2,96.5,146.6,96.5,251.4c0,108.6-35.6,191.8-103,240.8
			C6267.8,412.4,6259.7,416.9,6241.5,426.3z M6156.6,396.6h0.3c30.9,0,70.8-19.2,84.3-29.1c26.1-19,46.2-45,59.9-77.4
			c14.4-34,21.6-74.8,21.6-121.4c0-88.6-30.6-171.7-78-211.7c-23.8-20.1-45.3-29.7-69.6-32c-8.8-0.8-24.8-1.2-36.7,0
			c-24.3,2.5-45.8,11.9-69.6,32c-47.4,40-78,123.1-78,211.7c0,46.6,7.3,87.4,21.6,121.4c13.7,32.4,33.9,58.4,59.9,77.4
			C6085.9,377.4,6125.7,396.6,6156.6,396.6z"/>
	</g>
	<g id="BubbleG">
		<path fill="#E30613" d="M4595.7,390.1c-36.6-3.3-88.8-14.6-129.1-49.2c-45.7-39.2-68.4-101.3-67.5-184.5c0-0.1,0-0.3,0-0.4
			c2.1-29-9.8-120.1,67.5-185.1c40.7-34.2,92.5-45.9,129.1-49.2c21-1.9,32.1-2.2,45.3-2.4c15-0.2,13.3-4.4,14.1-19.4
			c1.1-21.9-2-29.9-16.5-30.1c-47.7-0.6-132.6-0.9-205.5,61.5c-58,49.6-86.9,125.2-85.9,224.7c-1,99.4,27.9,175,85.9,224.7
			c62,53,142.1,63,193.4,63c22.6,0,34.7-1.4,42.1-2.5c4.1-0.6,8.2-2.6,7.4-9.4l-5.3-33.3c-1.5-8.2-5.9-9.4-12.1-8.5
			C4649.1,391.2,4628.8,393.2,4595.7,390.1z"/>
		<path fill="#E30613" d="M5324.4,659.9h-164.6c-11,0-21.3-5.6-26.8-15.1c-7.5-12.9-4.4-29.2,6.7-38.5
			c51.7-43.5,90-84.2,113.8-121.1c17.4-26.9,26.8-51.1,27.9-72c1.2-22.6-7.9-34-10.7-36.9l-0.2-0.2c-4.9-5.2-19.9-20.9-57.3-8.7
			c-15.8,5.2-29.5,13.4-36.4,17.9c-2.8,1.8-6.4,1.2-8.4-1.5l-23.5-30.9c-2.4-3.1-1.6-7.6,1.6-9.8c8.9-6,27.2-17.2,49.1-24.6
			c19.2-6.5,37.5-8.8,54.4-7c22.7,2.4,42.3,12.2,58.2,28.9l0.1,0.1c8.3,8.7,27.3,33.4,25,75.6c-3,55.1-40.7,117.9-112.2,187
			c-1.9,1.8-0.6,4.9,2,4.9h101.1c3.8,0,6.9,3.1,6.9,6.9v38.4C5331,656.9,5328,659.9,5324.4,659.9z"/>
		<path fill="#E30613" d="M5017.8,426.3c-50.1,26.1-127.4,23.2-177-3.9c-16.1-8.8-18.9-10.2-22.6-12.9c-67.4-49-103-132.3-103-240.8
			c0-104.8,37-201.2,96.5-251.4c32.2-27.2,63.7-41.2,99.1-44c0,0,11.1-1.2,22.4-1.2c10.8,0,21.9,1.2,22.1,1.2h0.2
			c35.4,2.9,66.9,16.9,99.1,44c59.5,50.2,96.5,146.6,96.5,251.4c0,108.6-35.6,191.8-103,240.8C5044.1,412.4,5036,416.9,5017.8,426.3
			z M4932.9,396.6h0.3c30.9,0,70.8-19.2,84.3-29.1c26.1-19,46.2-45,59.9-77.4c14.4-34,21.6-74.8,21.6-121.4
			c0-88.6-30.6-171.7-78-211.7c-23.8-20.1-45.3-29.7-69.6-32c-8.8-0.8-24.8-1.2-36.7,0c-24.3,2.5-45.8,11.9-69.6,32
			c-47.4,40-78,123.1-78,211.7c0,46.6,7.3,87.4,21.6,121.4c13.7,32.4,33.9,58.4,59.9,77.4C4862.2,377.4,4902,396.6,4932.9,396.6z"/>
	</g>
	<g id="BubbleF">
		<path fill="#E30613" d="M3372,390.1c-36.6-3.3-88.8-14.6-129.1-49.2c-45.7-39.2-68.4-101.3-67.5-184.5c0-0.1,0-0.3,0-0.4
			c2.1-29-9.8-120.1,67.5-185.1c40.7-34.2,92.5-45.9,129.1-49.2c21-1.9,32.1-2.2,45.3-2.4c15-0.2,13.3-4.4,14.1-19.4
			c1.1-21.9-2-29.9-16.5-30.1c-47.7-0.6-132.6-0.9-205.5,61.5c-58,49.6-86.9,125.2-85.9,224.7c-1,99.4,27.9,175,85.9,224.7
			c62,53,142.1,63,193.4,63c22.6,0,34.7-1.4,42.1-2.5c4.1-0.6,8.2-2.6,7.4-9.4l-5.3-33.3c-1.5-8.2-5.9-9.4-12.1-8.5
			C3425.4,391.2,3405.1,393.2,3372,390.1z"/>
		<path fill="#E30613" d="M4100.6,659.9H3936c-11,0-21.3-5.6-26.8-15.1c-7.5-12.9-4.4-29.2,6.7-38.5c51.7-43.5,90-84.2,113.8-121.1
			c17.4-26.9,26.8-51.1,27.9-72c1.2-22.6-7.9-34-10.7-36.9l-0.2-0.2c-4.9-5.2-19.9-20.9-57.3-8.7c-15.8,5.2-29.5,13.4-36.4,17.9
			c-2.8,1.8-6.4,1.2-8.4-1.5l-23.5-30.9c-2.4-3.1-1.6-7.6,1.6-9.8c8.9-6,27.2-17.2,49.1-24.6c19.2-6.5,37.5-8.8,54.4-7
			c22.7,2.4,42.3,12.2,58.2,28.9l0.1,0.1c8.3,8.7,27.3,33.4,25,75.6c-3,55.1-40.7,117.9-112.2,187c-1.9,1.8-0.6,4.9,2,4.9h101.1
			c3.8,0,6.9,3.1,6.9,6.9v38.4C4107.3,656.9,4104.3,659.9,4100.6,659.9z"/>
		<path fill="#E30613" d="M3794.1,426.3c-50.1,26.1-127.4,23.2-177-3.9c-16.1-8.8-18.9-10.2-22.6-12.9c-67.4-49-103-132.3-103-240.8
			c0-104.8,37-201.2,96.5-251.4c32.2-27.2,63.7-41.2,99.1-44c0,0,11.1-1.2,22.4-1.2c10.8,0,21.9,1.2,22.1,1.2h0.2
			c35.4,2.9,66.9,16.9,99.1,44c59.5,50.2,96.5,146.6,96.5,251.4c0,108.6-35.6,191.8-103,240.8
			C3820.4,412.4,3812.3,416.9,3794.1,426.3z M3709.2,396.6h0.3c30.9,0,70.8-19.2,84.3-29.1c26.1-19,46.2-45,59.9-77.4
			c14.4-34,21.6-74.8,21.6-121.4c0-88.6-30.6-171.7-78-211.7c-23.8-20.1-45.3-29.7-69.6-32c-8.8-0.8-24.8-1.2-36.7,0
			c-24.3,2.5-45.8,11.9-69.6,32c-47.4,40-78,123.1-78,211.7c0,46.6,7.3,87.4,21.6,121.4c13.7,32.4,33.9,58.4,59.9,77.4
			C3638.5,377.4,3678.3,396.6,3709.2,396.6z"/>
	</g>
	<g id="BubbleE">
		<path fill="#E30613" d="M8266.9-580.3c-36.6-3.3-88.8-14.6-129.1-49.2c-45.7-39.2-68.4-101.3-67.5-184.5c0-0.1,0-0.3,0-0.4
			c2.1-29-9.8-120.1,67.5-185.1c40.7-34.2,92.5-45.9,129.1-49.2c21-1.9,32.1-2.2,45.3-2.4c15-0.2,13.3-4.4,14.1-19.4
			c1.1-21.9-2-29.9-16.5-30.1c-47.7-0.6-132.6-0.9-205.5,61.5c-58,49.6-86.9,125.2-85.9,224.7c-1,99.4,27.9,175,85.9,224.7
			c62,53,142.1,63,193.4,63c22.6,0,34.7-1.4,42.1-2.5c4.1-0.6,8.2-2.6,7.4-9.4l-5.3-33.3c-1.5-8.2-5.9-9.4-12.1-8.5
			C8320.2-579.3,8299.9-577.3,8266.9-580.3z"/>
		<path fill="#E30613" d="M8995.5-310.6h-164.6c-11,0-21.3-5.6-26.8-15.1c-7.5-12.9-4.4-29.2,6.7-38.5
			c51.7-43.5,90-84.2,113.8-121.1c17.4-26.9,26.8-51.1,27.9-72c1.2-22.6-7.9-34-10.7-36.9l-0.2-0.2c-4.9-5.2-19.9-20.9-57.3-8.7
			c-15.8,5.2-29.5,13.4-36.4,17.9c-2.8,1.8-6.4,1.2-8.4-1.5l-23.5-30.9c-2.4-3.1-1.6-7.6,1.6-9.8c8.9-6,27.2-17.2,49.1-24.6
			c19.2-6.5,37.5-8.8,54.4-7c22.7,2.4,42.3,12.2,58.2,28.9l0.1,0.1c8.3,8.7,27.3,33.4,25,75.6c-3,55.1-40.7,117.9-112.2,187
			c-1.9,1.8-0.6,4.9,2,4.9h101.1c3.8,0,6.9,3.1,6.9,6.9v38.4C9002.1-313.5,8999.2-310.6,8995.5-310.6z"/>
		<path fill="#E30613" d="M8688.9-544.1c-50.1,26.1-127.4,23.2-177-3.9c-16.1-8.8-18.9-10.2-22.6-12.9c-67.4-49-103-132.3-103-240.8
			c0-104.8,37-201.2,96.5-251.4c32.2-27.2,63.7-41.2,99.1-44c0,0,11.1-1.2,22.4-1.2c10.8,0,21.9,1.2,22.1,1.2h0.2
			c35.4,2.9,66.9,16.9,99.1,44c59.5,50.2,96.5,146.6,96.5,251.4c0,108.6-35.6,191.8-103,240.8C8715.2-558,8707.1-553.6,8688.9-544.1
			z M8604.1-573.9h0.3c30.9,0,70.8-19.2,84.3-29.1c26.1-19,46.2-45,59.9-77.4c14.4-34,21.6-74.8,21.6-121.4
			c0-88.6-30.6-171.7-78-211.7c-23.8-20.1-45.3-29.7-69.6-32c-8.8-0.8-24.8-1.2-36.7,0c-24.3,2.5-45.8,11.9-69.6,32
			c-47.4,40-78,123.1-78,211.7c0,46.6,7.3,87.4,21.6,121.4c13.7,32.4,33.9,58.4,59.9,77.4C8533.3-593.1,8573.1-573.9,8604.1-573.9z"
			/>
	</g>
	<g id="BubbleD">
		<path fill="#E30613" d="M7043.2-580.3c-36.6-3.3-88.8-14.6-129.1-49.2c-45.7-39.2-68.4-101.3-67.5-184.5c0-0.1,0-0.3,0-0.4
			c2.1-29-9.8-120.1,67.5-185.1c40.7-34.2,92.5-45.9,129.1-49.2c21-1.9,32.1-2.2,45.3-2.4c15-0.2,13.3-4.4,14.1-19.4
			c1.1-21.9-2-29.9-16.5-30.1c-47.7-0.6-132.6-0.9-205.5,61.5c-58,49.6-86.9,125.2-85.9,224.7c-1,99.4,27.9,175,85.9,224.7
			c62,53,142.1,63,193.4,63c22.6,0,34.7-1.4,42.1-2.5c4.1-0.6,8.2-2.6,7.4-9.4l-5.3-33.3c-1.5-8.2-5.9-9.4-12.1-8.5
			C7096.5-579.3,7076.2-577.3,7043.2-580.3z"/>
		<path fill="#E30613" d="M7771.8-310.6h-164.6c-11,0-21.3-5.6-26.8-15.1c-7.5-12.9-4.4-29.2,6.7-38.5
			c51.7-43.5,90-84.2,113.8-121.1c17.4-26.9,26.8-51.1,27.9-72c1.2-22.6-7.9-34-10.7-36.9l-0.2-0.2c-4.9-5.2-19.9-20.9-57.3-8.7
			c-15.8,5.2-29.5,13.4-36.4,17.9c-2.8,1.8-6.4,1.2-8.4-1.5l-23.5-30.9c-2.4-3.1-1.6-7.6,1.6-9.8c8.9-6,27.2-17.2,49.1-24.6
			c19.2-6.5,37.5-8.8,54.4-7c22.7,2.4,42.3,12.2,58.2,28.9l0.1,0.1c8.3,8.7,27.3,33.4,25,75.6c-3,55.1-40.7,117.9-112.2,187
			c-1.9,1.8-0.6,4.9,2,4.9h101.1c3.8,0,6.9,3.1,6.9,6.9v38.4C7778.4-313.5,7775.4-310.6,7771.8-310.6z"/>
		<path fill="#E30613" d="M7465.2-544.1c-50.1,26.1-127.4,23.2-177-3.9c-16.1-8.8-18.9-10.2-22.6-12.9c-67.4-49-103-132.3-103-240.8
			c0-104.8,37-201.2,96.5-251.4c32.2-27.2,63.7-41.2,99.1-44c0,0,11.1-1.2,22.4-1.2c10.8,0,21.9,1.2,22.1,1.2h0.2
			c35.4,2.9,66.9,16.9,99.1,44c59.5,50.2,96.5,146.6,96.5,251.4c0,108.6-35.6,191.8-103,240.8C7491.5-558,7483.4-553.6,7465.2-544.1
			z M7380.3-573.9h0.3c30.9,0,70.8-19.2,84.3-29.1c26.1-19,46.2-45,59.9-77.4c14.4-34,21.6-74.8,21.6-121.4
			c0-88.6-30.6-171.7-78-211.7c-23.8-20.1-45.3-29.7-69.6-32c-8.8-0.8-24.8-1.2-36.7,0c-24.3,2.5-45.8,11.9-69.6,32
			c-47.4,40-78,123.1-78,211.7c0,46.6,7.3,87.4,21.6,121.4C7249.8-648,7270-622,7296-603C7309.6-593.1,7349.4-573.9,7380.3-573.9z"
			/>
	</g>
	<g id="BubbleC">
		<path fill="#E30613" d="M5819.5-580.3c-36.6-3.3-88.8-14.6-129.1-49.2c-45.7-39.2-68.4-101.3-67.5-184.5c0-0.1,0-0.3,0-0.4
			c2.1-29-9.8-120.1,67.5-185.1c40.7-34.2,92.5-45.9,129.1-49.2c21-1.9,32.1-2.2,45.3-2.4c15-0.2,13.3-4.4,14.1-19.4
			c1.1-21.9-2-29.9-16.5-30.1c-47.7-0.6-132.6-0.9-205.5,61.5c-58,49.6-86.9,125.2-85.9,224.7c-1,99.4,27.9,175,85.9,224.7
			c62,53,142.1,63,193.4,63c22.6,0,34.7-1.4,42.1-2.5c4.1-0.6,8.2-2.6,7.4-9.4l-5.3-33.3c-1.5-8.2-5.9-9.4-12.1-8.5
			C5872.8-579.3,5852.5-577.3,5819.5-580.3z"/>
		<path fill="#E30613" d="M6548.1-310.6h-164.6c-11,0-21.3-5.6-26.8-15.1c-7.5-12.9-4.4-29.2,6.7-38.5
			c51.7-43.5,90-84.2,113.8-121.1c17.4-26.9,26.8-51.1,27.9-72c1.2-22.6-7.9-34-10.7-36.9l-0.2-0.2c-4.9-5.2-19.9-20.9-57.3-8.7
			c-15.8,5.2-29.5,13.4-36.4,17.9c-2.8,1.8-6.4,1.2-8.4-1.5l-23.5-30.9c-2.4-3.1-1.6-7.6,1.6-9.8c8.9-6,27.2-17.2,49.1-24.6
			c19.2-6.5,37.5-8.8,54.4-7c22.7,2.4,42.3,12.2,58.2,28.9l0.1,0.1c8.3,8.7,27.3,33.4,25,75.6c-3,55.1-40.7,117.9-112.2,187
			c-1.9,1.8-0.6,4.9,2,4.9h101.1c3.8,0,6.9,3.1,6.9,6.9v38.4C6554.7-313.5,6551.7-310.6,6548.1-310.6z"/>
		<path fill="#E30613" d="M6241.5-544.1c-50.1,26.1-127.4,23.2-177-3.9c-16.1-8.8-18.9-10.2-22.6-12.9c-67.4-49-103-132.3-103-240.8
			c0-104.8,37-201.2,96.5-251.4c32.2-27.2,63.7-41.2,99.1-44c0,0,11.1-1.2,22.4-1.2c10.8,0,21.9,1.2,22.1,1.2h0.2
			c35.4,2.9,66.9,16.9,99.1,44c59.5,50.2,96.5,146.6,96.5,251.4c0,108.6-35.6,191.8-103,240.8C6267.8-558,6259.7-553.6,6241.5-544.1
			z M6156.6-573.9h0.3c30.9,0,70.8-19.2,84.3-29.1c26.1-19,46.2-45,59.9-77.4c14.4-34,21.6-74.8,21.6-121.4
			c0-88.6-30.6-171.7-78-211.7c-23.8-20.1-45.3-29.7-69.6-32c-8.8-0.8-24.8-1.2-36.7,0c-24.3,2.5-45.8,11.9-69.6,32
			c-47.4,40-78,123.1-78,211.7c0,46.6,7.3,87.4,21.6,121.4c13.7,32.4,33.9,58.4,59.9,77.4C6085.9-593.1,6125.7-573.9,6156.6-573.9z"
			/>
	</g>
	<g id="BubbleB">
		<path fill="#E30613" d="M4595.7-580.3c-36.6-3.3-88.8-14.6-129.1-49.2c-45.7-39.2-68.4-101.3-67.5-184.5c0-0.1,0-0.3,0-0.4
			c2.1-29-9.8-120.1,67.5-185.1c40.7-34.2,92.5-45.9,129.1-49.2c21-1.9,32.1-2.2,45.3-2.4c15-0.2,13.3-4.4,14.1-19.4
			c1.1-21.9-2-29.9-16.5-30.1c-47.7-0.6-132.6-0.9-205.5,61.5c-58,49.6-86.9,125.2-85.9,224.7c-1,99.4,27.9,175,85.9,224.7
			c62,53,142.1,63,193.4,63c22.6,0,34.7-1.4,42.1-2.5c4.1-0.6,8.2-2.6,7.4-9.4l-5.3-33.3c-1.5-8.2-5.9-9.4-12.1-8.5
			C4649.1-579.3,4628.8-577.3,4595.7-580.3z"/>
		<path fill="#E30613" d="M5324.4-310.6h-164.6c-11,0-21.3-5.6-26.8-15.1c-7.5-12.9-4.4-29.2,6.7-38.5
			c51.7-43.5,90-84.2,113.8-121.1c17.4-26.9,26.8-51.1,27.9-72c1.2-22.6-7.9-34-10.7-36.9l-0.2-0.2c-4.9-5.2-19.9-20.9-57.3-8.7
			c-15.8,5.2-29.5,13.4-36.4,17.9c-2.8,1.8-6.4,1.2-8.4-1.5l-23.5-30.9c-2.4-3.1-1.6-7.6,1.6-9.8c8.9-6,27.2-17.2,49.1-24.6
			c19.2-6.5,37.5-8.8,54.4-7c22.7,2.4,42.3,12.2,58.2,28.9l0.1,0.1c8.3,8.7,27.3,33.4,25,75.6c-3,55.1-40.7,117.9-112.2,187
			c-1.9,1.8-0.6,4.9,2,4.9h101.1c3.8,0,6.9,3.1,6.9,6.9v38.4C5331-313.5,5328-310.6,5324.4-310.6z"/>
		<path fill="#E30613" d="M5017.8-544.1c-50.1,26.1-127.4,23.2-177-3.9c-16.1-8.8-18.9-10.2-22.6-12.9c-67.4-49-103-132.3-103-240.8
			c0-104.8,37-201.2,96.5-251.4c32.2-27.2,63.7-41.2,99.1-44c0,0,11.1-1.2,22.4-1.2c10.8,0,21.9,1.2,22.1,1.2h0.2
			c35.4,2.9,66.9,16.9,99.1,44c59.5,50.2,96.5,146.6,96.5,251.4c0,108.6-35.6,191.8-103,240.8C5044.1-558,5036-553.6,5017.8-544.1z
			 M4932.9-573.9h0.3c30.9,0,70.8-19.2,84.3-29.1c26.1-19,46.2-45,59.9-77.4c14.4-34,21.6-74.8,21.6-121.4
			c0-88.6-30.6-171.7-78-211.7c-23.8-20.1-45.3-29.7-69.6-32c-8.8-0.8-24.8-1.2-36.7,0c-24.3,2.5-45.8,11.9-69.6,32
			c-47.4,40-78,123.1-78,211.7c0,46.6,7.3,87.4,21.6,121.4c13.7,32.4,33.9,58.4,59.9,77.4C4862.2-593.1,4902-573.9,4932.9-573.9z"/>
	</g>
	<g id="BubbleA">
		<path fill="#E30613" d="M3372-580.3c-36.6-3.3-88.8-14.6-129.1-49.2c-45.7-39.2-68.4-101.3-67.5-184.5c0-0.1,0-0.3,0-0.4
			c2.1-29-9.8-120.1,67.5-185.1c40.7-34.2,92.5-45.9,129.1-49.2c21-1.9,32.1-2.2,45.3-2.4c15-0.2,13.3-4.4,14.1-19.4
			c1.1-21.9-2-29.9-16.5-30.1c-47.7-0.6-132.6-0.9-205.5,61.5c-58,49.6-86.9,125.2-85.9,224.7c-1,99.4,27.9,175,85.9,224.7
			c62,53,142.1,63,193.4,63c22.6,0,34.7-1.4,42.1-2.5c4.1-0.6,8.2-2.6,7.4-9.4l-5.3-33.3c-1.5-8.2-5.9-9.4-12.1-8.5
			C3425.4-579.3,3405.1-577.3,3372-580.3z"/>
		<path fill="#E30613" d="M4100.6-310.6H3936c-11,0-21.3-5.6-26.8-15.1c-7.5-12.9-4.4-29.2,6.7-38.5c51.7-43.5,90-84.2,113.8-121.1
			c17.4-26.9,26.8-51.1,27.9-72c1.2-22.6-7.9-34-10.7-36.9l-0.2-0.2c-4.9-5.2-19.9-20.9-57.3-8.7c-15.8,5.2-29.5,13.4-36.4,17.9
			c-2.8,1.8-6.4,1.2-8.4-1.5l-23.5-30.9c-2.4-3.1-1.6-7.6,1.6-9.8c8.9-6,27.2-17.2,49.1-24.6c19.2-6.5,37.5-8.8,54.4-7
			c22.7,2.4,42.3,12.2,58.2,28.9l0.1,0.1c8.3,8.7,27.3,33.4,25,75.6c-3,55.1-40.7,117.9-112.2,187c-1.9,1.8-0.6,4.9,2,4.9h101.1
			c3.8,0,6.9,3.1,6.9,6.9v38.4C4107.3-313.5,4104.3-310.6,4100.6-310.6z"/>
		<path fill="#E30613" d="M3794.1-544.1c-50.1,26.1-127.4,23.2-177-3.9c-16.1-8.8-18.9-10.2-22.6-12.9c-67.4-49-103-132.3-103-240.8
			c0-104.8,37-201.2,96.5-251.4c32.2-27.2,63.7-41.2,99.1-44c0,0,11.1-1.2,22.4-1.2c10.8,0,21.9,1.2,22.1,1.2h0.2
			c35.4,2.9,66.9,16.9,99.1,44c59.5,50.2,96.5,146.6,96.5,251.4c0,108.6-35.6,191.8-103,240.8C3820.4-558,3812.3-553.6,3794.1-544.1
			z M3709.2-573.9h0.3c30.9,0,70.8-19.2,84.3-29.1c26.1-19,46.2-45,59.9-77.4c14.4-34,21.6-74.8,21.6-121.4
			c0-88.6-30.6-171.7-78-211.7c-23.8-20.1-45.3-29.7-69.6-32c-8.8-0.8-24.8-1.2-36.7,0c-24.3,2.5-45.8,11.9-69.6,32
			c-47.4,40-78,123.1-78,211.7c0,46.6,7.3,87.4,21.6,121.4c13.7,32.4,33.9,58.4,59.9,77.4C3638.5-593.1,3678.3-573.9,3709.2-573.9z"
			/>
	</g>
</g>
</svg>
