<?xml version="1.0" encoding="utf-8"?>
<!-- Generator: Adobe Illustrator 19.1.0, SVG Export Plug-In . SVG Version: 6.00 Build 0)  -->
<svg version="1.1" id="Ebene_1" xmlns="http://www.w3.org/2000/svg" xmlns:xlink="http://www.w3.org/1999/xlink" x="0px" y="0px"
	 viewBox="0 0 2422 676.4" style="enable-background:new 0 0 2422 676.4;" xml:space="preserve">
<style type="text/css">
	.st0{fill:#312783;stroke:#FFFFFF;stroke-width:6;stroke-miterlimit:10;}
	.st1{fill:none;stroke:#F39200;stroke-width:5;stroke-miterlimit:10;}
	.st2{fill:none;stroke:#F39200;stroke-width:4;stroke-linecap:round;stroke-miterlimit:10;}
	.st3{fill:none;stroke:#F39200;stroke-width:5;stroke-linecap:round;stroke-miterlimit:10;}
	.st4{fill:#F39200;}
	.st5{fill:#312783;}
	.st6{fill:#E30613;}
	.st7{display:none;}
	.st8{display:none;fill:#D42016;stroke:#941914;stroke-miterlimit:10;}
	.st9{display:none;fill:#294B9B;}
	.st10{fill:#294B9B;}
	.st11{fill:#F9B233;}
	.st12{fill:#27348B;}
	.st13{fill:#27348B;stroke:#FFFFFF;stroke-width:4;stroke-miterlimit:10;}
	.st14{fill:#E6332A;}
	.st15{fill:#F39200;stroke:#27348B;stroke-miterlimit:10;}
	.st16{fill:none;stroke:#27348B;stroke-miterlimit:10;}
	.st17{fill:#F39200;stroke:#FFFFFF;stroke-width:5;stroke-miterlimit:10;}
	.st18{fill:#27348B;stroke:#FFFFFF;stroke-width:5;stroke-miterlimit:10;}
	.st19{fill:none;stroke:#27348B;stroke-width:5;stroke-miterlimit:10;}
	.st20{fill:#F39200;stroke:#27348B;stroke-width:3;stroke-miterlimit:10;}
	.st21{fill:#F39200;stroke:#FFFFFF;stroke-width:4;stroke-miterlimit:10;}
	.st22{fill:#E30613;stroke:#FFFFFF;stroke-width:5;stroke-miterlimit:10;}
	.st23{fill:none;stroke:#FFFFFF;stroke-width:4;stroke-miterlimit:10;}
	.st24{fill:#FFFFFF;stroke:#F39200;stroke-miterlimit:10;}
	.st25{fill:none;stroke:#F9B233;stroke-width:5;stroke-miterlimit:10;}
	.st26{fill:none;stroke:#F9B233;stroke-width:5;stroke-linecap:round;stroke-miterlimit:10;}
	.st27{fill:none;stroke:#F9B233;stroke-width:4;stroke-linecap:round;stroke-miterlimit:10;}
	.st28{fill:#FFFFFF;stroke:#27348B;stroke-width:6;stroke-miterlimit:10;}
	.st29{fill:#27348B;stroke:#FFFFFF;stroke-width:6;stroke-miterlimit:10;}
</style>
<g>
	<path class="st11" d="M752.4,378c-22.7-41.2-94.8-5.9-97.7-5c-68,20.4-119.4,28.3-184.6,16.8c-65.2-11.5-102.5-58.3-102.5-58.3
		c-1.4-1.9-3-3.8-4.6-5.7c-3.8-4.3-7.8-8.1-12.1-11.5c-7.7-6.9-17.3-14.2-27.4-18.7l-6.3-61.4c-0.8-8.2-8.3-14.2-16.5-13.4
		c-8.2,0.8-14.2,8.3-13.4,16.5l5.8,56.7c-7.9,3.7-15.1,11.5-20.9,25.3c0,0,0,0,0,0c-5.8,12.1-4.3,27.2-0.3,43.1
		c32.5,131,276,190.9,432.2,97.7C727.1,446.3,775.8,420.3,752.4,378z"/>
	<g>
		<path class="st12" d="M476.6,390.5h-1c-2.3,0-4.2-1.9-4.2-4.2v-46.6c0-2.3,1.9-4.2,4.2-4.2h1c2.3,0,4.2,1.9,4.2,4.2v46.6
			C480.8,388.5,478.9,390.5,476.6,390.5z"/>
		<ellipse class="st12" cx="525.1" cy="338" rx="53.8" ry="30.5"/>
		<path class="st6" d="M476,388.7c-67.6-42.1-111.9,14.4-111.9,75.1c0,61,49.4,110.4,110.4,110.4c0.5,0,1,0,1.5,0c0.5,0,1,0,1.5,0
			c61,0,110.4-49.4,110.4-110.4C587.9,403.1,543.7,346.6,476,388.7z"/>
	</g>
	<g>
		
			<ellipse transform="matrix(9.623148e-02 0.9954 -0.9954 9.623148e-02 797.1097 272.4018)" class="st13" cx="248.6" cy="575.1" rx="30.7" ry="24.3"/>
		<path class="st6" d="M210.3,429L210.3,429c0.6,2.3-0.8,4.6-3,5.2l-39.3,10.3c-2.3,0.6-4.6-0.8-5.2-3l0,0c-0.6-2.3,0.8-4.6,3-5.2
			l39.3-10.3C207.3,425.4,209.7,426.7,210.3,429z"/>
		
			<rect x="142.4" y="367.1" transform="matrix(0.3875 -0.9219 0.9219 0.3875 -310.3109 401.0013)" class="st6" width="8.5" height="133.9"/>
		
			<ellipse transform="matrix(-0.1458 0.9893 -0.9893 -0.1458 725.4872 462.7953)" class="st13" cx="162.9" cy="544.6" rx="30.7" ry="24.3"/>
		
			<ellipse transform="matrix(-0.2089 0.9779 -0.9779 -0.2089 938.3095 363.7629)" class="st13" cx="322" cy="561.4" rx="27.4" ry="21.7"/>
		
			<ellipse transform="matrix(-0.5227 -0.8525 0.8525 -0.5227 76.0033 1191.7477)" class="st13" cx="371.6" cy="574.6" rx="31.6" ry="25.1"/>
		
			<ellipse transform="matrix(-0.9406 0.3394 -0.3394 -0.9406 827.049 740.3187)" class="st13" cx="348.8" cy="442.5" rx="25.7" ry="20.4"/>
		
			<ellipse transform="matrix(-1 -5.128868e-03 5.128868e-03 -1 721.8134 943.0986)" class="st13" cx="362.1" cy="470.6" rx="25.7" ry="20.4"/>
		
			<ellipse transform="matrix(-0.9647 -0.2633 0.2633 -0.9647 504.2338 1081.712)" class="st13" cx="324.6" cy="507.1" rx="26.2" ry="20.8"/>
		
			<ellipse transform="matrix(-0.8245 -0.5658 0.5658 -0.8245 231.9589 1122.4357)" class="st13" cx="290" cy="525.2" rx="26.2" ry="20.8"/>
		
			<ellipse transform="matrix(-0.7109 0.7033 -0.7033 -0.7109 689.1992 587.8281)" class="st13" cx="223.8" cy="435.6" rx="27.4" ry="21.7"/>
		
			<ellipse transform="matrix(-0.9973 7.375007e-02 -7.375007e-02 -0.9973 572.9946 976.5597)" class="st13" cx="268.5" cy="498.9" rx="31.6" ry="25.1"/>
		
			<ellipse transform="matrix(0.2355 -0.9719 0.9719 0.2355 -351.0411 628.2021)" class="st13" cx="223.8" cy="537.2" rx="24.4" ry="19.4"/>
		
			<ellipse transform="matrix(0.5337 -0.8457 0.8457 0.5337 -288.404 543.4227)" class="st13" cx="348.6" cy="533.2" rx="31.6" ry="25.1"/>
		
			<ellipse transform="matrix(0.5337 -0.8457 0.8457 0.5337 -290.3038 622.7161)" class="st13" cx="419.5" cy="574.6" rx="31.6" ry="25.1"/>
		
			<ellipse transform="matrix(-0.7788 0.6273 -0.6273 -0.7788 1052.3666 634.0202)" class="st13" cx="414.4" cy="502.6" rx="31.6" ry="25.1"/>
		
			<ellipse transform="matrix(-0.6986 0.7155 -0.7155 -0.6986 1025.1931 506.6468)" class="st13" cx="405.9" cy="469.2" rx="25.7" ry="20.4"/>
		
			<ellipse transform="matrix(-0.9051 -0.4251 0.4251 -0.9051 623.7436 1262.0115)" class="st13" cx="452.7" cy="561.4" rx="31.6" ry="25.1"/>
		
			<ellipse transform="matrix(-0.7071 -0.7071 0.7071 -0.7071 350.5244 1368.0023)" class="st13" cx="458.6" cy="611.4" rx="31.6" ry="25.1"/>
		
			<ellipse transform="matrix(-0.7071 -0.7071 0.7071 -0.7071 434.9507 1366.9728)" class="st13" cx="500.6" cy="593.4" rx="31.6" ry="25.1"/>
		
			<ellipse transform="matrix(-0.9051 -0.4251 0.4251 -0.9051 635.3079 1192.2616)" class="st13" cx="450.7" cy="525.2" rx="31.6" ry="25.1"/>
		
			<ellipse transform="matrix(4.734129e-03 -1 1 4.734129e-03 -209.4828 912.3501)" class="st13" cx="353.6" cy="561.4" rx="31.6" ry="25.1"/>
		
			<ellipse transform="matrix(-0.9051 -0.4251 0.4251 -0.9051 526.3694 1187.5043)" class="st13" cx="395.7" cy="535" rx="31.6" ry="25.1"/>
		
			<ellipse transform="matrix(-0.8374 -0.5465 0.5465 -0.8374 321.226 1060.9906)" class="st13" cx="318.4" cy="482.7" rx="26.2" ry="20.8"/>
		
			<ellipse transform="matrix(-0.8245 -0.5658 0.5658 -0.8245 278.7897 971.4355)" class="st13" cx="290" cy="442.5" rx="26.2" ry="20.8"/>
		
			<ellipse transform="matrix(-0.8245 -0.5658 0.5658 -0.8245 116.2795 993.5166)" class="st13" cx="212.2" cy="478.7" rx="26.2" ry="20.8"/>
		
			<ellipse transform="matrix(-0.9865 -0.1639 0.1639 -0.9865 566.2444 942.8165)" class="st13" cx="322" cy="448" rx="26.2" ry="20.8"/>
		
			<ellipse transform="matrix(-0.9051 -0.4251 0.4251 -0.9051 350.8949 1160.3577)" class="st13" cx="304.9" cy="541" rx="24.4" ry="19.4"/>
		
			<ellipse transform="matrix(0.2355 -0.9719 0.9719 0.2355 -359.4913 665.8328)" class="st13" cx="243.5" cy="561.4" rx="24.4" ry="19.4"/>
		
			<ellipse transform="matrix(-0.9406 0.3394 -0.3394 -0.9406 1151.0341 912.8737)" class="st13" cx="495.7" cy="557.1" rx="25.7" ry="20.4"/>
		
			<ellipse transform="matrix(-1 -5.128868e-03 5.128868e-03 -1 848.5336 967.6201)" class="st13" cx="425.5" cy="482.7" rx="25.7" ry="20.4"/>
		
			<ellipse transform="matrix(-0.4251 0.9051 -0.9051 -0.4251 705.4989 558.5312)" class="st13" cx="175.4" cy="503.3" rx="27.4" ry="21.7"/>
		
			<ellipse transform="matrix(-0.9961 8.813899e-02 -8.813899e-02 -0.9961 504.1814 906.3009)" class="st13" cx="232.1" cy="464.3" rx="27.4" ry="21.7"/>
		
			<ellipse transform="matrix(-4.217022e-02 0.9991 -0.9991 -4.217022e-02 696.9584 177.994)" class="st13" cx="263.2" cy="423.1" rx="27.4" ry="21.7"/>
		
			<ellipse transform="matrix(0.3588 0.9334 -0.9334 0.3588 701.3337 104.7668)" class="st13" cx="274.4" cy="562.9" rx="30.7" ry="24.3"/>
		
			<ellipse transform="matrix(-0.7705 0.6375 -0.6375 -0.7705 815.2423 530.1792)" class="st13" cx="312.2" cy="411.9" rx="31.6" ry="25.1"/>
		
			<ellipse transform="matrix(0.1454 -0.9894 0.9894 0.1454 -389.6867 671.6747)" class="st13" cx="194" cy="561.4" rx="32.8" ry="26"/>
		
			<ellipse transform="matrix(-0.8643 -0.5029 0.5029 -0.8643 197.0971 1074.438)" class="st13" cx="243.5" cy="510.6" rx="32.8" ry="26"/>
		
			<ellipse transform="matrix(0.1454 -0.9894 0.9894 0.1454 -349.3508 636.8342)" class="st13" cx="194" cy="520.6" rx="32.8" ry="26"/>
		
			<ellipse transform="matrix(-0.6488 -0.761 0.761 -0.6488 227.1259 1086.5643)" class="st13" cx="364.3" cy="490.9" rx="25.7" ry="20.4"/>
		
			<ellipse transform="matrix(-0.2469 0.969 -0.969 -0.2469 820.553 504.58)" class="st13" cx="214.2" cy="571.1" rx="30.7" ry="24.3"/>
		
			<ellipse transform="matrix(-0.8245 -0.5658 0.5658 -0.8245 250.5283 1006.2614)" class="st13" cx="281.3" cy="464.3" rx="26.2" ry="20.8"/>
		
			<ellipse transform="matrix(-0.4251 0.9051 -0.9051 -0.4251 681.4399 520.6507)" class="st13" cx="175.4" cy="476.7" rx="27.4" ry="21.7"/>
	</g>
</g>
<g>
	<g>
		<path class="st6" d="M2020.6,172.7c-9.4-29.1-40.5-45-69.6-35.7c-29.1,9.4-45,40.5-35.7,69.6c1.3,4.1,0.7,2,0.7,2
			c11.3,58.8,22.9,195.6-107.2,258c-3.4,1.2-6.8,2.7-10.1,4.6c-26.4,15.4-35.4,49.2-20,75.6c15.4,26.4,49.2,35.4,75.6,20
			C1979,521,2081.4,307.4,2020.6,172.7"/>
		<path class="st6" d="M1932.9,132.4l11,11.7c0.8,0.8,2,1,3,0.4l7.5-4.3c0.8-0.5,1.3-1.4,1.2-2.3l-1.3-14.3c-0.2-1.6-1.8-2.6-3.3-2
			l-17.1,6.9C1932.2,129.1,1931.8,131.2,1932.9,132.4z"/>
		<path class="st4" d="M1758.1,525.5l16-1.9c1.1-0.1,2-1,2.1-2.1l0.9-8.6c0.1-0.9-0.3-1.9-1.2-2.3l-12.3-7.4
			c-1.4-0.8-3.2-0.1-3.6,1.5l-4.6,17.9C1755.1,524.2,1756.4,525.7,1758.1,525.5z"/>
	</g>
	<g>
		<path class="st4" d="M1955.6,137.9c0,0.5-0.1,0.9-0.3,1.3C1955.5,138.8,1955.6,138.3,1955.6,137.9l-0.2-2.1c0,0,0,0,0,0
			L1955.6,137.9z"/>
		<path class="st11" d="M1878.4,545.3l-69.7-78.6c-3.4,1.2-6.7,2.7-9.9,4.5c-14.3,8.3-23.5,22.1-26.4,37.2l3.7,2.2
			c0.8,0.5,1.3,1.4,1.2,2.3l-0.9,8.6c-0.1,1.1-1,2-2.1,2.1l-2.6,0.3c0.7,7.8,3.1,15.6,7.3,22.9c15.4,26.4,49.2,35.4,75.6,20
			c10.2-3.8,20.3-8.7,30.2-14.6L1878.4,545.3z"/>
	</g>
</g>
<g>
	<path class="st6" d="M2333.1,280.7L2294.9,67c-0.1-0.5-0.2-1-0.3-1.5l-0.1-0.3h0c-1.9-8.1-8.9-14.1-17-14.1h-0.2h-5.2h-0.5h-0.6
		h-0.5h-5.4h-0.7v0c-7.9,0.4-14.4,6.2-16.3,14h0l-0.1,0.3c-0.1,0.5-0.2,1-0.3,1.5l-38.2,213.7c-0.3,1.8-0.5,3.8-0.5,5.7v257.7
		c0,17.2,14,31.2,31.2,31.2h24.2h6.1h0.5h0.6h0.5h5.2h25.1c17.2,0,31.2-14,31.2-31.2V286.4C2333.6,284.4,2333.4,282.5,2333.1,280.7z
		"/>
	<g>
		<path class="st12" d="M2298.8,66.9h-54.9c-2.8,0-5-2.2-5-5v-7.7c0-2.7,2.2-5,5-5h54.9c2.8,0,5,2.2,5,5v7.7
			C2303.8,64.7,2301.5,66.9,2298.8,66.9z"/>
		<g>
			<path class="st4" d="M2209.7,550.7c2.3,14.9,15.3,26.4,30.8,26.4h30.3h1h30.3c15.5,0,28.5-11.5,30.8-26.4H2209.7z"/>
		</g>
	</g>
</g>
<g>
	<path class="st6" d="M1365.5,110.3V550c0,3.7,2.8,6.8,6.5,7.2l151.8,17c1.5,0.2,3.1-0.1,4.4-0.9l53.4-30.2c2.3-1.3,3.7-3.7,3.7-6.3
		V105.1c0-1.5-0.4-2.9-1.3-4.1l-28.3-41.3c-0.8-1.2-1.3-2.6-1.3-4.1v-28c0-4-3.3-7.3-7.3-7.3h-139.7c-4,0-7.3,3.3-7.3,7.3V58
		c0,1.5-0.5,3-1.4,4.3l-31.9,43.7C1366,107.3,1365.5,108.8,1365.5,110.3z"/>
	<path class="st12" d="M1523.1,111.7l30.8-52.9c0.3-0.5,0.9-0.5,1.2,0l29.5,43.1c0.3,0.4,0,1-0.5,1.1l-60.3,9.8
		C1523.3,112.9,1522.8,112.3,1523.1,111.7z"/>
	<path class="st12" d="M1486.5,78.4l-4.3-26.4l-58.4,10.9l4.2,24.8c-0.1,0.6,0,1.1,0.1,1.7c1.3,7.1,15.5,10.5,31.6,7.4
		C1475.8,93.7,1487.8,85.5,1486.5,78.4z"/>
	<ellipse transform="matrix(0.983 -0.1835 0.1835 0.983 14.1362 267.5674)" class="st11" cx="1453" cy="57.4" rx="29.7" ry="13.1"/>
	<path class="st11" d="M1365.5,476.3V550c0,3.7,2.8,6.8,6.5,7.2l151.8,17c1.5,0.2,3.1-0.1,4.4-0.9l53.4-30.2
		c2.3-1.3,3.7-3.7,3.7-6.3v-76l-61.5,28.4L1365.5,476.3z"/>
</g>
<g>
	<path class="st12" d="M1084.1,390.5h-1c-2.3,0-4.2-1.9-4.2-4.2v-46.6c0-2.3,1.9-4.2,4.2-4.2h1c2.3,0,4.2,1.9,4.2,4.2v46.6
		C1088.4,388.6,1086.4,390.5,1084.1,390.5z"/>
	<ellipse class="st12" cx="1132.7" cy="338.1" rx="53.8" ry="30.5"/>
	<path class="st6" d="M1083.6,388.8c-67.6-42.1-111.9,14.4-111.9,75.1c0,61,49.4,110.4,110.4,110.4c0.5,0,1,0,1.5,0c0.5,0,1,0,1.5,0
		c61,0,110.4-49.4,110.4-110.4C1195.5,403.2,1151.2,346.7,1083.6,388.8z"/>
	<path class="st11" d="M972.2,474.3c5.2,56.1,52.4,100,109.9,100c0.5,0,1,0,1.5,0c0.5,0,1,0,1.5,0c57.5,0,104.7-43.9,109.9-100
		H972.2z"/>
</g>
</svg>
