<?xml version="1.0" encoding="utf-8"?>
<!-- Generator: Adobe Illustrator 19.1.0, SVG Export Plug-In . SVG Version: 6.00 Build 0)  -->
<svg version="1.1" id="Herkunft" xmlns="http://www.w3.org/2000/svg" xmlns:xlink="http://www.w3.org/1999/xlink" x="0px" y="0px"
	 viewBox="510 61.6 2423.5 685.3" enable-background="new 510 61.6 2423.5 685.3" xml:space="preserve">
<g id="AlkoFreiGetraenke">
	<path fill="#E20613" d="M2821.1,351.2l-38.2-213.7c-0.1-0.5-0.2-1-0.3-1.5l-0.1-0.3h0c-1.9-8.1-8.9-14.1-17-14.1h-0.2h-5.2h-0.5
		h-0.6h-0.5h-5.4h-0.7v0c-7.9,0.4-14.4,6.2-16.3,14h0l-0.1,0.3c-0.1,0.5-0.2,1-0.3,1.5l-38.2,213.7c-0.3,1.8-0.5,3.8-0.5,5.7v257.7
		c0,17.2,14,31.2,31.2,31.2h24.2h6.1h0.5h0.6h0.5h5.2h25.1c17.2,0,31.2-14,31.2-31.2V356.9C2821.6,355,2821.4,353.1,2821.1,351.2z"
		/>
	<g>
		<path fill="#28348A" d="M2786.8,137.5h-54.9c-2.8,0-5-2.2-5-5v-7.7c0-2.7,2.2-5,5-5h54.9c2.8,0,5,2.2,5,5v7.7
			C2791.8,135.2,2789.5,137.5,2786.8,137.5z"/>
		<g>
			<path fill="#F9B233" d="M2697.7,621.3c2.3,14.9,15.3,26.4,30.8,26.4h30.3h1h30.3c15.5,0,28.5-11.5,30.8-26.4H2697.7z"/>
		</g>
	</g>
</g>
<g id="WurstFleisch">
	<g>
		<path fill="#E30613" d="M2509,245.3c-9.4-29.1-40.5-45-69.6-35.7c-29.1,9.4-45,40.5-35.7,69.6c1.3,4.1,0.7,2,0.7,2
			c11.3,58.8,22.9,195.6-107.2,258c-3.4,1.2-6.8,2.7-10.1,4.6c-26.4,15.4-35.4,49.2-20,75.6s49.2,35.4,75.6,20
			C2467.4,593.6,2569.8,380,2509,245.3"/>
		<path fill="#E30613" d="M2421.4,205l11,11.7c0.8,0.8,2,1,3,0.4l7.5-4.3c0.8-0.5,1.3-1.4,1.2-2.3l-1.3-14.3c-0.2-1.6-1.8-2.6-3.3-2
			l-17.1,6.9C2420.6,201.7,2420.2,203.8,2421.4,205z"/>
		<path fill="#F9B233" d="M2246.6,598.1l16-1.9c1.1-0.1,2-1,2.1-2.1l0.9-8.6c0.1-0.9-0.3-1.9-1.2-2.3l-12.3-7.4
			c-1.4-0.8-3.2-0.1-3.6,1.5l-4.6,17.9C2243.5,596.8,2244.9,598.3,2246.6,598.1z"/>
	</g>
	<g>
		<path fill="#F39200" d="M2444,210.5c0,0.5-0.1,0.9-0.3,1.3C2444,211.4,2444.1,210.9,2444,210.5l-0.2-2.1l0,0L2444,210.5z"/>
		<path fill="#F9B233" d="M2366.8,617.8l-69.7-78.6c-3.4,1.2-6.7,2.7-9.9,4.5c-14.3,8.3-23.5,22.1-26.4,37.2l3.7,2.2
			c0.8,0.5,1.3,1.4,1.2,2.3l-0.9,8.6c-0.1,1.1-1,2-2.1,2.1l-2.6,0.3c0.7,7.8,3.1,15.6,7.3,22.9c15.4,26.4,49.2,35.4,75.6,20
			c10.2-3.8,20.3-8.7,30.2-14.6L2366.8,617.8z"/>
	</g>
</g>
<g id="Molkereiprodukte">
	<path fill="#E30613" d="M1854,182.9v439.7c0,3.7,2.8,6.8,6.5,7.2l151.8,17c1.5,0.2,3.1-0.1,4.4-0.9l53.4-30.2
		c2.3-1.3,3.7-3.7,3.7-6.3V177.7c0-1.5-0.4-2.9-1.3-4.1l-28.3-41.3c-0.8-1.2-1.3-2.6-1.3-4.1v-28c0-4-3.3-7.3-7.3-7.3H1896
		c-4,0-7.3,3.3-7.3,7.3v30.4c0,1.5-0.5,3-1.4,4.3l-31.9,43.7C1854.5,179.9,1854,181.4,1854,182.9z"/>
	<path fill="#27348B" d="M2011.6,184.3l30.8-52.9c0.3-0.5,0.9-0.5,1.2,0l29.5,43.1c0.3,0.4,0,1-0.5,1.1l-60.3,9.8
		C2011.7,185.5,2011.3,184.9,2011.6,184.3z"/>
	<path fill="#27348B" d="M1974.9,151l-4.3-26.4l-58.4,10.9l4.2,24.8c-0.1,0.6,0,1.1,0.1,1.7c1.3,7.1,15.5,10.5,31.6,7.4
		C1964.3,166.3,1976.2,158.1,1974.9,151z"/>
	
		<ellipse transform="matrix(-0.1835 -0.983 0.983 -0.1835 2169.8806 2062.1921)" fill="#F9B233" cx="1941.4" cy="129.9" rx="13.1" ry="29.7"/>
	<path fill="#F9B233" d="M1854,548.9v73.7c0,3.7,2.8,6.8,6.5,7.2l151.8,17c1.5,0.2,3.1-0.1,4.4-0.9l53.4-30.2
		c2.3-1.3,3.7-3.7,3.7-6.3v-76l-61.5,28.4L1854,548.9z"/>
</g>
<g id="ObstGemuese">
	<path fill="#27348B" d="M1572.6,463.1h-1c-2.3,0-4.2-1.9-4.2-4.2v-46.6c0-2.3,1.9-4.2,4.2-4.2h1c2.3,0,4.2,1.9,4.2,4.2v46.6
		C1576.8,461.2,1574.9,463.1,1572.6,463.1z"/>
	<ellipse fill="#27348B" cx="1621.1" cy="410.7" rx="53.8" ry="30.5"/>
	<path fill="#E30613" d="M1572,461.4c-67.6-42.1-111.9,14.4-111.9,75.1c0,61,49.4,110.4,110.4,110.4c0.5,0,1,0,1.5,0s1,0,1.5,0
		c61,0,110.4-49.4,110.4-110.4C1683.9,475.8,1639.7,419.3,1572,461.4z"/>
	<path fill="#F9B233" d="M1460.7,546.9c5.2,56.1,52.4,100,109.9,100c0.5,0,1,0,1.5,0s1,0,1.5,0c57.5,0,104.7-43.9,109.9-100H1460.7z
		"/>
</g>
<g id="Obstgruppe">
	<path id="Banane" fill="#F9B233" d="M1240.9,451.3c-22.7-41.2-94.8-5.9-97.7-5c-68,20.4-119.4,28.3-184.6,16.8
		s-102.5-58.3-102.5-58.3c-1.4-1.9-3-3.8-4.6-5.7c-3.8-4.3-7.8-8.1-12.1-11.5c-7.7-6.9-17.3-14.2-27.4-18.7l-6.3-61.4
		c-0.8-8.2-8.3-14.2-16.5-13.4c-8.2,0.8-14.2,8.3-13.4,16.5l5.8,56.7c-7.9,3.7-15.1,11.5-20.9,25.3l0,0c-5.8,12.1-4.3,27.2-0.3,43.1
		c32.5,131,276,190.9,432.2,97.7C1215.6,519.6,1264.2,493.6,1240.9,451.3z"/>
	<g id="Apfel">
		<path fill="#27348B" d="M965,463.7h-1c-2.3,0-4.2-1.9-4.2-4.2v-46.6c0-2.3,1.9-4.2,4.2-4.2h1c2.3,0,4.2,1.9,4.2,4.2v46.6
			C969.2,461.8,967.3,463.7,965,463.7z"/>
		<ellipse fill="#27348B" cx="1013.5" cy="411.3" rx="53.8" ry="30.5"/>
		<path fill="#E30613" d="M964.5,462c-67.6-42.1-111.9,14.4-111.9,75.1c0,61,49.4,110.4,110.4,110.4c0.5,0,1,0,1.5,0s1,0,1.5,0
			c61,0,110.4-49.4,110.4-110.4C1076.3,476.4,1032.1,419.9,964.5,462z"/>
	</g>
	<g id="Trauben">
		
			<ellipse transform="matrix(0.9954 -9.622756e-02 9.622756e-02 0.9954 -58.9757 73.9293)" fill="#27348B" stroke="#FFFFFF" stroke-width="4" stroke-miterlimit="10" cx="737" cy="648.4" rx="24.3" ry="30.7"/>
		<path fill="#E30613" d="M698.7,502.3L698.7,502.3c0.6,2.3-0.8,4.6-3,5.2l-39.3,10.3c-2.3,0.6-4.6-0.8-5.2-3l0,0
			c-0.6-2.3,0.8-4.6,3-5.2l39.3-10.3C695.8,498.7,698.1,500,698.7,502.3z"/>
		
			<rect x="630.9" y="440.3" transform="matrix(-0.3875 0.9219 -0.9219 -0.3875 1348.8651 118.391)" fill="#E30613" width="8.5" height="133.9"/>
		
			<ellipse transform="matrix(0.9893 0.1458 -0.1458 0.9893 97.0471 -88.3708)" fill="#27348B" stroke="#FFFFFF" stroke-width="4" stroke-miterlimit="10" cx="651.4" cy="617.9" rx="24.3" ry="30.7"/>
		
			<ellipse transform="matrix(0.9779 0.2089 -0.2089 0.9779 150.4736 -155.3094)" fill="#27348B" stroke="#FFFFFF" stroke-width="4" stroke-miterlimit="10" cx="810.5" cy="634.7" rx="21.7" ry="27.4"/>
		
			<ellipse transform="matrix(-0.8525 0.5227 -0.5227 -0.8525 1931.8417 750.546)" fill="#27348B" stroke="#FFFFFF" stroke-width="4" stroke-miterlimit="10" cx="860" cy="647.8" rx="25.1" ry="31.6"/>
		
			<ellipse transform="matrix(0.3394 0.9406 -0.9406 0.3394 1038.191 -446.8765)" fill="#27348B" stroke="#FFFFFF" stroke-width="4" stroke-miterlimit="10" cx="837.3" cy="515.7" rx="20.4" ry="25.7"/>
		
			<ellipse transform="matrix(-5.128800e-03 1 -1 -5.128800e-03 1398.7559 -303.8169)" fill="#27348B" stroke="#FFFFFF" stroke-width="4" stroke-miterlimit="10" cx="850.5" cy="543.9" rx="20.4" ry="25.7"/>
		
			<ellipse transform="matrix(-0.2633 0.9647 -0.9647 -0.2633 1586.8661 -51.2398)" fill="#27348B" stroke="#FFFFFF" stroke-width="4" stroke-miterlimit="10" cx="813" cy="580.3" rx="20.8" ry="26.2"/>
		
			<ellipse transform="matrix(-0.5658 0.8245 -0.8245 -0.5658 1712.3652 295.3914)" fill="#27348B" stroke="#FFFFFF" stroke-width="4" stroke-miterlimit="10" cx="778.4" cy="598.5" rx="20.8" ry="26.2"/>
		
			<ellipse transform="matrix(0.7033 0.7109 -0.7109 0.7033 573.0064 -355.3474)" fill="#27348B" stroke="#FFFFFF" stroke-width="4" stroke-miterlimit="10" cx="712.2" cy="508.8" rx="21.7" ry="27.4"/>
		
			<ellipse transform="matrix(7.374836e-02 0.9973 -0.9973 7.374836e-02 1271.6909 -224.8932)" fill="#27348B" stroke="#FFFFFF" stroke-width="4" stroke-miterlimit="10" cx="756.9" cy="572.2" rx="25.1" ry="31.6"/>
		
			<ellipse transform="matrix(-0.9719 -0.2355 0.2355 -0.9719 1260.6174 1371.5601)" fill="#27348B" stroke="#FFFFFF" stroke-width="4" stroke-miterlimit="10" cx="712.2" cy="610.5" rx="19.4" ry="24.4"/>
		
			<ellipse transform="matrix(-0.8457 -0.5337 0.5337 -0.8457 1221.1602 1566.0668)" fill="#27348B" stroke="#FFFFFF" stroke-width="4" stroke-miterlimit="10" cx="837" cy="606.5" rx="25.1" ry="31.6"/>
		
			<ellipse transform="matrix(-0.8457 -0.5337 0.5337 -0.8457 1330.004 1680.3966)" fill="#27348B" stroke="#FFFFFF" stroke-width="4" stroke-miterlimit="10" cx="907.9" cy="647.9" rx="25.1" ry="31.6"/>
		
			<ellipse transform="matrix(0.6273 0.7788 -0.7788 0.6273 784.8956 -488.5044)" fill="#27348B" stroke="#FFFFFF" stroke-width="4" stroke-miterlimit="10" cx="902.8" cy="575.8" rx="25.1" ry="31.6"/>
		
			<ellipse transform="matrix(0.7155 0.6986 -0.6986 0.7155 633.446 -470.4795)" fill="#27348B" stroke="#FFFFFF" stroke-width="4" stroke-miterlimit="10" cx="894.4" cy="542.5" rx="20.4" ry="25.7"/>
		
			<ellipse transform="matrix(-0.4251 0.9051 -0.9051 -0.4251 1915.7354 52.6842)" fill="#27348B" stroke="#FFFFFF" stroke-width="4" stroke-miterlimit="10" cx="941.1" cy="634.7" rx="25.1" ry="31.6"/>
		
			<ellipse transform="matrix(-0.7071 0.7071 -0.7071 -0.7071 2100.8555 499.1724)" fill="#27348B" stroke="#FFFFFF" stroke-width="4" stroke-miterlimit="10" cx="947" cy="684.7" rx="25.1" ry="31.6"/>
		
			<ellipse transform="matrix(-0.7071 0.7071 -0.7071 -0.7071 2159.8267 438.746)" fill="#27348B" stroke="#FFFFFF" stroke-width="4" stroke-miterlimit="10" cx="989" cy="666.7" rx="25.1" ry="31.6"/>
		
			<ellipse transform="matrix(-0.4251 0.9051 -0.9051 -0.4251 1880.1576 3.0103)" fill="#27348B" stroke="#FFFFFF" stroke-width="4" stroke-miterlimit="10" cx="939.1" cy="598.6" rx="25.1" ry="31.6"/>
		
			<ellipse transform="matrix(-1 -4.734076e-03 4.734076e-03 -1 1681.0695 1273.3976)" fill="#27348B" stroke="#FFFFFF" stroke-width="4" stroke-miterlimit="10" cx="842" cy="634.7" rx="25.1" ry="31.6"/>
		
			<ellipse transform="matrix(-0.4251 0.9051 -0.9051 -0.4251 1810.6158 66.6852)" fill="#27348B" stroke="#FFFFFF" stroke-width="4" stroke-miterlimit="10" cx="884.1" cy="608.3" rx="25.1" ry="31.6"/>
		
			<ellipse transform="matrix(-0.5465 0.8374 -0.8374 -0.5465 1713.5066 184.2319)" fill="#27348B" stroke="#FFFFFF" stroke-width="4" stroke-miterlimit="10" cx="806.9" cy="556" rx="20.8" ry="26.2"/>
		
			<ellipse transform="matrix(-0.5658 0.8245 -0.8245 -0.5658 1644.144 165.6873)" fill="#27348B" stroke="#FFFFFF" stroke-width="4" stroke-miterlimit="10" cx="778.4" cy="515.7" rx="20.8" ry="26.2"/>
		
			<ellipse transform="matrix(-0.5658 0.8245 -0.8245 -0.5658 1552.2622 286.6905)" fill="#27348B" stroke="#FFFFFF" stroke-width="4" stroke-miterlimit="10" cx="700.6" cy="552" rx="20.8" ry="26.2"/>
		
			<ellipse transform="matrix(-0.1639 0.9865 -0.9865 -0.1639 1457.505 -192.6716)" fill="#27348B" stroke="#FFFFFF" stroke-width="4" stroke-miterlimit="10" cx="810.4" cy="521.3" rx="20.8" ry="26.2"/>
		
			<ellipse transform="matrix(-0.4251 0.9051 -0.9051 -0.4251 1686.5824 157.4213)" fill="#27348B" stroke="#FFFFFF" stroke-width="4" stroke-miterlimit="10" cx="793.3" cy="614.3" rx="19.4" ry="24.4"/>
		
			<ellipse transform="matrix(-0.9719 -0.2355 0.2355 -0.9719 1293.7863 1423.8879)" fill="#27348B" stroke="#FFFFFF" stroke-width="4" stroke-miterlimit="10" cx="731.9" cy="634.7" rx="19.4" ry="24.4"/>
		
			<ellipse transform="matrix(0.3394 0.9406 -0.9406 0.3394 1243.0577 -509.3543)" fill="#27348B" stroke="#FFFFFF" stroke-width="4" stroke-miterlimit="10" cx="984.2" cy="630.3" rx="20.4" ry="25.7"/>
		
			<ellipse transform="matrix(-5.128800e-03 1 -1 -5.128800e-03 1474.6602 -355.1395)" fill="#27348B" stroke="#FFFFFF" stroke-width="4" stroke-miterlimit="10" cx="914" cy="556" rx="20.4" ry="25.7"/>
		
			<ellipse transform="matrix(0.9051 0.4251 -0.4251 0.9051 308.077 -227.5211)" fill="#27348B" stroke="#FFFFFF" stroke-width="4" stroke-miterlimit="10" cx="663.8" cy="576.6" rx="21.7" ry="27.4"/>
		
			<ellipse transform="matrix(8.813971e-02 0.9961 -0.9961 8.813971e-02 1192.4595 -227.6008)" fill="#27348B" stroke="#FFFFFF" stroke-width="4" stroke-miterlimit="10" cx="720.5" cy="537.5" rx="21.7" ry="27.4"/>
		
			<ellipse transform="matrix(0.9991 4.217066e-02 -4.217066e-02 0.9991 21.5993 -31.2528)" fill="#27348B" stroke="#FFFFFF" stroke-width="4" stroke-miterlimit="10" cx="751.6" cy="496.3" rx="21.7" ry="27.4"/>
		
			<ellipse transform="matrix(0.9334 -0.3588 0.3588 0.9334 -177.4503 316.1)" fill="#27348B" stroke="#FFFFFF" stroke-width="4" stroke-miterlimit="10" cx="762.9" cy="636.1" rx="24.3" ry="30.7"/>
		
			<ellipse transform="matrix(0.6375 0.7705 -0.7705 0.6375 664.0368 -440.9915)" fill="#27348B" stroke="#FFFFFF" stroke-width="4" stroke-miterlimit="10" cx="800.6" cy="485.1" rx="25.1" ry="31.6"/>
		
			<ellipse transform="matrix(-0.9894 -0.1454 0.1454 -0.9894 1265.302 1361.7988)" fill="#27348B" stroke="#FFFFFF" stroke-width="4" stroke-miterlimit="10" cx="682.4" cy="634.7" rx="26" ry="32.8"/>
		
			<ellipse transform="matrix(-0.5029 0.8643 -0.8643 -0.5029 1604.7094 245.0125)" fill="#27348B" stroke="#FFFFFF" stroke-width="4" stroke-miterlimit="10" cx="731.9" cy="583.9" rx="26" ry="32.8"/>
		
			<ellipse transform="matrix(-0.9894 -0.1454 0.1454 -0.9894 1271.1676 1280.6815)" fill="#27348B" stroke="#FFFFFF" stroke-width="4" stroke-miterlimit="10" cx="682.4" cy="593.9" rx="26" ry="32.8"/>
		
			<ellipse transform="matrix(-0.761 0.6488 -0.6488 -0.761 1867.7837 440.1147)" fill="#27348B" stroke="#FFFFFF" stroke-width="4" stroke-miterlimit="10" cx="852.8" cy="564.1" rx="20.4" ry="25.7"/>
		
			<ellipse transform="matrix(0.969 0.2469 -0.2469 0.969 180.8545 -153.5567)" fill="#27348B" stroke="#FFFFFF" stroke-width="4" stroke-miterlimit="10" cx="702.7" cy="644.4" rx="24.3" ry="30.7"/>
		
			<ellipse transform="matrix(-0.5658 0.8245 -0.8245 -0.5658 1648.5662 207.0204)" fill="#27348B" stroke="#FFFFFF" stroke-width="4" stroke-miterlimit="10" cx="769.8" cy="537.6" rx="20.8" ry="26.2"/>
		
			<ellipse transform="matrix(0.9051 0.4251 -0.4251 0.9051 296.782 -230.0489)" fill="#27348B" stroke="#FFFFFF" stroke-width="4" stroke-miterlimit="10" cx="663.9" cy="550" rx="21.7" ry="27.4"/>
	</g>
</g>
</svg>
