<?xml version="1.0" encoding="utf-8"?>
<!-- Generator: Adobe Illustrator 19.1.0, SVG Export Plug-In . SVG Version: 6.00 Build 0)  -->
<svg version="1.1" id="Ebene_1" xmlns="http://www.w3.org/2000/svg" xmlns:xlink="http://www.w3.org/1999/xlink" x="0px" y="0px"
	 viewBox="0 0 807.9 1133.9" style="enable-background:new 0 0 807.9 1133.9;" xml:space="preserve">
<style type="text/css">
	.st0{fill:#312783;stroke:#FFFFFF;stroke-width:6;stroke-miterlimit:10;}
	.st1{fill:none;stroke:#F39200;stroke-width:5;stroke-miterlimit:10;}
	.st2{fill:none;stroke:#F39200;stroke-width:4;stroke-linecap:round;stroke-miterlimit:10;}
	.st3{fill:none;stroke:#F39200;stroke-width:5;stroke-linecap:round;stroke-miterlimit:10;}
	.st4{fill:#F39200;}
	.st5{fill:#312783;}
	.st6{fill:#E30613;}
	.st7{display:none;}
	.st8{display:none;fill:#D42016;stroke:#941914;stroke-miterlimit:10;}
	.st9{display:none;fill:#294B9B;}
	.st10{fill:#294B9B;}
	.st11{fill:#F9B233;}
	.st12{fill:#27348B;}
	.st13{fill:#27348B;stroke:#FFFFFF;stroke-width:4;stroke-miterlimit:10;}
	.st14{fill:#E6332A;}
	.st15{fill:#F39200;stroke:#27348B;stroke-miterlimit:10;}
	.st16{fill:none;stroke:#27348B;stroke-miterlimit:10;}
	.st17{fill:#F39200;stroke:#FFFFFF;stroke-width:5;stroke-miterlimit:10;}
	.st18{fill:#27348B;stroke:#FFFFFF;stroke-width:5;stroke-miterlimit:10;}
	.st19{fill:none;stroke:#27348B;stroke-width:5;stroke-miterlimit:10;}
	.st20{fill:#F39200;stroke:#27348B;stroke-width:3;stroke-miterlimit:10;}
	.st21{fill:#F39200;stroke:#FFFFFF;stroke-width:4;stroke-miterlimit:10;}
	.st22{fill:#E30613;stroke:#FFFFFF;stroke-width:5;stroke-miterlimit:10;}
	.st23{fill:none;stroke:#FFFFFF;stroke-width:4;stroke-miterlimit:10;}
	.st24{fill:#FFFFFF;stroke:#F39200;stroke-miterlimit:10;}
	.st25{fill:#FFFFFF;stroke:#27348B;stroke-width:6;stroke-miterlimit:10;}
	.st26{fill:#27348B;stroke:#FFFFFF;stroke-width:6;stroke-miterlimit:10;}
</style>
<circle class="st12" cx="310.4" cy="1019.9" r="53.1"/>
<path class="st11" d="M592.1,559.7L592.1,559.7c-1.9,0-3.5-1.5-3.6-3.4l-0.3-5.2c-0.1-1.4-1.2-2.4-2.5-2.4l-351.2-3.9
	c-1.7,0-3.1-1.2-3.5-2.8c-3.5-14.1-20.8-22.8-36.8-11.1c-0.3,0.2-0.6,0.5-0.8,0.8c-11.1,15.2-3.9,31.5,9,36.1c1,0.4,1.7,1.4,1.7,2.4
	l-5.7,352.5c0,1.9,2,3.2,3.7,2.4c3.2-1.6,7.4-6.1,7.7-18.4c0-0.9,0.5-1.7,1.2-2.2c4.6-2.7,20-13.9,14.8-40.4
	c-0.2-0.9,0.1-1.9,0.9-2.5c1.5-1.3,4-4,4.8-9.2c0.2-1.5,1.3-2.9,2.8-3.2c3.1-0.6,7.5-5.4,4.8-29.8c0-0.2,0-0.3,0-0.5
	c0.7-7,14.8-154.7,1.1-190.4c-0.2-0.4-0.2-0.8-0.2-1.2l-0.3-28.6c0-2.8,3.1-4.6,5.5-3.1l8.8,5.5c0.7,0.4,1.1,1.2,1.2,2l35.1,474.7
	c0.1,1.3,1.2,2.3,2.5,2.4l63.4,1.8c2,0.1,3.6,1.7,3.5,3.7l-0.1,2.5c-0.1,1.4,1.1,2.7,2.5,2.7l178.8,2.8c1.4,0,2.6-1.1,2.6-2.5
	l14.5-450.3c0-0.3,0.1-0.6,0.1-0.9l17.3-58.3c0.2-0.7,0.7-1.2,1.3-1.6l17.2-8.7c1.2-0.6,2-1.8,2-3.2v-5.1
	C595.7,561.3,594.1,559.7,592.1,559.7z"/>
<circle class="st12" cx="304.1" cy="1041.8" r="53.1"/>
<g>
	<path class="st12" d="M466.2,500.1L466.2,500.1c1,0.4,1.4,1.6,1,2.5l-7.3,17.1c-0.4,1-1.6,1.4-2.5,1l0,0c-1-0.4-1.4-1.6-1-2.5
		l7.3-17.1C464.1,500.1,465.3,499.6,466.2,500.1z"/>
	
		<ellipse transform="matrix(-0.9193 -0.3936 0.3936 -0.9193 642.0205 1155.3224)" class="st12" cx="439.5" cy="511.8" rx="21.9" ry="12.4"/>
	<path class="st6" d="M466,500.7c18.6,26.6,44.2,12.6,53.9-10.2c9.8-22.8-0.8-49.2-23.6-59c-0.2-0.1-0.4-0.2-0.6-0.2
		c-0.2-0.1-0.4-0.2-0.6-0.2c-22.8-9.8-49.2,0.8-59,23.6C426.4,477.4,433.9,505.6,466,500.7z"/>
</g>
<g>
	<path class="st12" d="M448.1,356.1l-17.7,3c-7.6,1.3-14.9-3.9-16.1-11.5v0c-1.3-7.6,3.9-14.9,11.5-16.1l17.7-3
		c7.6-1.3,14.9,3.9,16.1,11.5v0C460.8,347.6,455.7,354.9,448.1,356.1z"/>
	<g>
		<path class="st12" d="M471.8,323.8c2-1.5-12.1-2.8-11.9,14.4c0.1,14.2,11.5,14.7,15.5,14.4c0.8-0.1,1.6-0.6,1.9-1.4
			c0.9-2.1,2.3-6.6,0.2-9.8c-0.2-0.3-0.3-0.7-0.4-1c-0.3-3.3,1.1-5.8,0.7-8.3C477.2,329.4,469.8,325.3,471.8,323.8z"/>
		<path class="st12" d="M460.3,342.2L460.3,342.2c-1,0.2-1.9-0.5-2.1-1.5l-0.2-1c-0.2-1,0.5-1.9,1.5-2.1l0,0c1-0.2,1.9,0.5,2.1,1.5
			l0.2,1C461.9,341.1,461.2,342,460.3,342.2z"/>
	</g>
	<g>
		<path class="st12" d="M397.4,336.4c-2.4-0.8,10.5-6.7,16,9.7c4.6,13.5-6,17.7-9.8,18.7c-0.8,0.2-1.7,0-2.3-0.7
			c-1.5-1.7-4.3-5.5-3.4-9.2c0.1-0.4,0.1-0.7,0-1.1c-0.9-3.2-2.9-5.1-3.4-7.6C394.1,343.5,399.7,337.2,397.4,336.4z"/>
		<path class="st12" d="M413.6,345.5L413.6,345.5c1-0.2,1.9,0.5,2.1,1.5l0.2,1c0.2,1-0.5,1.9-1.5,2.1l0,0c-1,0.2-1.9-0.5-2.1-1.5
			l-0.2-1C411.9,346.7,412.6,345.7,413.6,345.5z"/>
	</g>
</g>
<g>
	<path class="st6" d="M330.7,447.6c10.4,1,19.7-6.6,20.7-17.1c1-10.4-6.6-19.7-17.1-20.7c-1.5-0.1-0.7-0.1-0.7-0.1
		c-20-4.4-64.7-19.3-66.7-68.7c0.1-1.2,0.1-2.5-0.1-3.8c-1.3-10.4-10.7-17.8-21.1-16.5c-10.4,1.3-17.8,10.7-16.5,21.1
		C226.8,387.4,280.1,448.5,330.7,447.6"/>
	<path class="st6" d="M355.3,425.5l-5.2,1.9c-0.4,0.1-0.6,0.5-0.5,0.9l0.4,2.9c0,0.3,0.3,0.6,0.6,0.7l4.7,1.5
		c0.5,0.2,1.1-0.2,1.1-0.8l0.1-6.3C356.4,425.7,355.8,425.3,355.3,425.5z"/>
	<path class="st6" d="M255.2,317.3l-1.6,5.3c-0.1,0.4,0.1,0.8,0.4,1l2.6,1.5c0.3,0.2,0.6,0.1,0.9,0l4-2.9c0.5-0.3,0.5-1,0-1.3
		l-5-3.9C256.1,316.5,255.4,316.7,255.2,317.3z"/>
</g>
<g>
	<path class="st6" d="M382.7,276.7l130.9-125.2c1.1-1.1,1.2-2.8,0.3-4l-38.2-50c-0.4-0.5-0.9-0.9-1.5-1.1L450,89.1
		c-1-0.3-2.2,0-2.9,0.7l-128.5,123c-0.4,0.4-0.7,1-0.9,1.6l-4.2,20.2c-0.1,0.6-0.4,1.1-0.9,1.6l-8.3,8c-1.2,1.1-1.2,3-0.1,4.2
		l39.8,41.6c1.1,1.2,3,1.2,4.2,0.1l9.1-8.7c0.5-0.4,1-0.7,1.7-0.8l22.1-3C381.7,277.4,382.3,277.1,382.7,276.7z"/>
	<path class="st12" d="M338.3,229.4l-24.5,5.9c-0.2,0.1-0.4-0.1-0.4-0.4l4.4-21.1c0-0.2,0.3-0.3,0.5-0.2l20.1,15.2
		C338.6,229,338.5,229.3,338.3,229.4z"/>
	<path class="st12" d="M338.8,249.8l-6.6,8.8l19.9,14.3l6.2-8.3c0.2-0.1,0.3-0.3,0.5-0.5c1.7-2.4-1.3-7.6-6.8-11.5
		C346.4,248.6,340.5,247.3,338.8,249.8z"/>
	
		<ellipse transform="matrix(-0.8122 -0.5834 0.5834 -0.8122 464.8883 681.0645)" class="st11" cx="342.1" cy="265.7" rx="12.2" ry="5.4"/>
</g>
</svg>
