<?xml version="1.0" encoding="utf-8"?>
<!-- Generator: Adobe Illustrator 19.1.0, SVG Export Plug-In . SVG Version: 6.00 Build 0)  -->
<svg version="1.1" id="Ebene_1" xmlns="http://www.w3.org/2000/svg" xmlns:xlink="http://www.w3.org/1999/xlink" x="0px" y="0px"
	 viewBox="0 0 1403.1 807.9" style="enable-background:new 0 0 1403.1 807.9;" xml:space="preserve">
<style type="text/css">
	.st0{fill:#312783;stroke:#FFFFFF;stroke-width:6;stroke-miterlimit:10;}
	.st1{fill:none;stroke:#F39200;stroke-width:5;stroke-miterlimit:10;}
	.st2{fill:none;stroke:#F39200;stroke-width:4;stroke-linecap:round;stroke-miterlimit:10;}
	.st3{fill:none;stroke:#F39200;stroke-width:5;stroke-linecap:round;stroke-miterlimit:10;}
	.st4{fill:#F39200;}
	.st5{fill:#312783;}
	.st6{fill:#E30613;}
	.st7{display:none;}
	.st8{display:none;fill:#D42016;stroke:#941914;stroke-miterlimit:10;}
	.st9{display:none;fill:#294B9B;}
	.st10{fill:#294B9B;}
	.st11{fill:#F9B233;}
	.st12{fill:#27348B;}
	.st13{fill:#27348B;stroke:#FFFFFF;stroke-width:4;stroke-miterlimit:10;}
	.st14{fill:#E6332A;}
	.st15{fill:#F39200;stroke:#27348B;stroke-miterlimit:10;}
	.st16{fill:none;stroke:#27348B;stroke-miterlimit:10;}
	.st17{fill:#F39200;stroke:#FFFFFF;stroke-width:5;stroke-miterlimit:10;}
	.st18{fill:#27348B;stroke:#FFFFFF;stroke-width:5;stroke-miterlimit:10;}
	.st19{fill:none;stroke:#27348B;stroke-width:5;stroke-miterlimit:10;}
	.st20{fill:#F39200;stroke:#27348B;stroke-width:3;stroke-miterlimit:10;}
	.st21{fill:#F39200;stroke:#FFFFFF;stroke-width:4;stroke-miterlimit:10;}
	.st22{fill:#E30613;stroke:#FFFFFF;stroke-width:5;stroke-miterlimit:10;}
	.st23{fill:none;stroke:#FFFFFF;stroke-width:4;stroke-miterlimit:10;}
	.st24{fill:#FFFFFF;stroke:#F39200;stroke-miterlimit:10;}
	.st25{fill:none;stroke:#F9B233;stroke-width:5;stroke-miterlimit:10;}
	.st26{fill:none;stroke:#F9B233;stroke-width:5;stroke-linecap:round;stroke-miterlimit:10;}
	.st27{fill:none;stroke:#F9B233;stroke-width:4;stroke-linecap:round;stroke-miterlimit:10;}
	.st28{fill:#FFFFFF;stroke:#27348B;stroke-width:6;stroke-miterlimit:10;}
	.st29{fill:#27348B;stroke:#FFFFFF;stroke-width:6;stroke-miterlimit:10;}
</style>
<g>
	<g>
		<g>
			<path class="st28" d="M669,340.8H389.1c-6.3,0-11.3-5.1-11.3-11.3V188.9c0-6.3,5.1-11.3,11.3-11.3H669c6.3,0,11.3,5.1,11.3,11.3
				v140.5C680.3,335.7,675.2,340.8,669,340.8z"/>
			<path class="st25" d="M530.3,328.7v-85.4c0-0.2,0.1-0.4,0.1-0.6c1.2-2.2,10.3-17.5,29.2-26c0.3-0.1,0.7-0.1,1,0
				c3.1,1.4,19.9,9.8,29.2,26.7c0.1,0.2,0.1,0.4,0.1,0.6v85.4c0,0.7-0.5,1.2-1.2,1.2l-57.4-0.6C530.8,329.9,530.3,329.4,530.3,328.7
				z"/>
			<path class="st27" d="M534.3,257.8c0,0,10.9-24.3,25.6-29.3c0.2-0.1,0.5-0.1,0.7,0c2.1,0.6,13,4.8,25.3,29.4"/>
			<path class="st26" d="M570.8,222.7v-10.9c0-0.2,0-0.3,0.1-0.5c0.8-1.9,7-15.3,24-21.9c0.3-0.1,0.6-0.1,0.9,0
				c2.8,1.3,17.2,8.4,22.6,21.3c0.1,0.1,0.1,0.3,0.1,0.5v118.1c0,0.7-0.5,1.2-1.2,1.2h-27.2"/>
			<path class="st11" d="M473.4,191l0.6,8c0.1,0.9,1.1,1.4,1.8,0.9c3.4-2.2,11.2-6.2,14.1,1.2c3.4,8.8-14.2,24.4-17.1,26.9
				c-0.3,0.2-0.4,0.6-0.4,0.9v7.2c0,0.7,0.5,1.2,1.2,1.2h29.5c0.7,0,1.2-0.5,1.2-1.2v-7.1c0-0.7-0.5-1.2-1.2-1.2l-14-0.1
				c-1.1,0-1.6-1.3-0.8-2c5-4.7,16.4-16.9,13.8-28.1c-3.2-13.7-19.7-10.9-27.9-7.8C473.7,190,473.4,190.5,473.4,191z"/>
			<path class="st11" d="M540,213.5c-0.6-28.2-14-26.3-16.5-26.3c-4.2,0-15-0.6-16.1,25.3c-1.1,25.9,16.1,25,16.1,25
				S540.6,239.6,540,213.5z M528.5,212.3c0,17-3.8,17.1-4.5,17.1s-5.9,0.6-5.4-16.8c0.5-18,5.3-17.1,5.3-17.1
				S528.8,194.9,528.5,212.3z"/>
			<path class="st11" d="M406.6,303.1l0.3,3.7c0.1,0.9,1,1.4,1.8,0.9c2.3-1.3,6.3-3,7.9,1.1c2,5.2-8,14.2-10.2,16.1
				c-0.3,0.2-0.4,0.6-0.4,0.9v3.7c0,0.7,0.5,1.2,1.2,1.2h16.9c0.7,0,1.2-0.5,1.2-1.2v-3.4c0-0.7-0.5-1.2-1.2-1.2l-6.9-0.1
				c-1,0-1.6-1.3-0.8-2c3.3-3.3,9-10,7.5-16.2c-1.9-8.1-11.5-6.7-16.5-4.9C406.9,302.1,406.6,302.5,406.6,303.1z"/>
			<path class="st11" d="M446.9,316.3c-0.4-17.1-8.5-15.9-10-15.9c-2.5,0-9-0.4-9.7,15.3s9.7,15.1,9.7,15.1S447.2,332.1,446.9,316.3
				z M439.9,315.6c0,10.3-2.3,10.3-2.7,10.3c-0.4,0-3.6,0.4-3.3-10.2c0.3-10.9,3.2-10.4,3.2-10.4S440.1,305.1,439.9,315.6z"/>
			<path class="st11" d="M632.6,297.4L632.6,297.4c0.1,0.7,0.8,1.2,1.4,0.9c0.8-0.3,1.8-0.4,2.2,0.8c0.7,1.8-2.5,4.8-3.6,5.8
				c-0.2,0.2-0.4,0.5-0.4,0.8v0.5c0,0.6,0.5,1.1,1.1,1.1h5.1c0.6,0,1.1-0.5,1.1-1.1v0c0-0.6-0.5-1-1-1.1l-0.6,0
				c-0.9,0-1.4-1-0.8-1.7c1.1-1.3,2.3-3.3,1.9-5.1c-0.6-2.8-3.7-2.5-5.6-2C632.8,296.5,632.5,296.9,632.6,297.4z"/>
			<path class="st11" d="M643.8,296c-0.9,0-3.4-0.1-3.6,5.7s3.6,5.6,3.6,5.6s3.8,0.4,3.7-5.4C647.4,295.5,644.3,296,643.8,296z
				 M643.9,305.4c-0.1,0-1.3,0.1-1.2-3.8c0.1-4,1.2-3.8,1.2-3.8s1.1-0.1,1,3.8C644.9,305.4,644,305.4,643.9,305.4z"/>
			<path class="st6" d="M536.7,194.4l2-4.8c0.2-0.5,0.9-0.5,1.1,0l1.5,4.7c0.1,0.2,0.3,0.4,0.6,0.4h4.5c0.6,0,0.8,0.7,0.4,1.1l-4,3
				c-0.2,0.2-0.3,0.4-0.2,0.7l1.8,4.6c0.2,0.5-0.4,1-0.9,0.7l-4.2-2.8c-0.2-0.1-0.4-0.1-0.6,0l-3.5,1.7c-0.5,0.2-1-0.2-0.8-0.7
				l1-3.5c0.1-0.2,0-0.5-0.2-0.6l-3.2-2.8c-0.4-0.3-0.2-1,0.3-1l4.1-0.3C536.4,194.7,536.6,194.6,536.7,194.4z"/>
			<path class="st6" d="M481.8,288.6l2-4.8c0.2-0.5,0.9-0.5,1.1,0l1.5,4.7c0.1,0.2,0.3,0.4,0.6,0.4h4.5c0.6,0,0.8,0.7,0.4,1.1l-4,3
				c-0.2,0.2-0.3,0.4-0.2,0.7l1.8,4.6c0.2,0.5-0.4,1-0.9,0.7l-4.2-2.8c-0.2-0.1-0.4-0.1-0.6,0l-3.5,1.7c-0.5,0.2-1-0.2-0.8-0.7
				l1-3.5c0.1-0.2,0-0.5-0.2-0.6l-3.2-2.8c-0.4-0.3-0.2-1,0.3-1l4.1-0.3C481.5,289,481.7,288.8,481.8,288.6z"/>
			<path class="st6" d="M481.8,226.8l2-4.8c0.2-0.5,0.9-0.5,1.1,0l1.5,4.7c0.1,0.2,0.3,0.4,0.6,0.4h4.5c0.6,0,0.8,0.7,0.4,1.1l-4,3
				c-0.2,0.2-0.3,0.4-0.2,0.7l1.8,4.6c0.2,0.5-0.4,1-0.9,0.7l-4.2-2.8c-0.2-0.1-0.4-0.1-0.6,0l-3.5,1.7c-0.5,0.2-1-0.2-0.8-0.7
				l1-3.5c0.1-0.2,0-0.5-0.2-0.6l-3.2-2.8c-0.4-0.3-0.2-1,0.3-1l4.1-0.3C481.5,227.1,481.7,227,481.8,226.8z"/>
			<path class="st6" d="M509.5,203.3l-2-4.8c-0.2-0.5-0.9-0.5-1.1,0l-1.5,4.7c-0.1,0.2-0.3,0.4-0.6,0.4h-4.5c-0.6,0-0.8,0.7-0.4,1.1
				l4,3c0.2,0.2,0.3,0.4,0.2,0.7L502,213c-0.2,0.5,0.4,1,0.9,0.7l4.2-2.8c0.2-0.1,0.4-0.1,0.6,0l3.5,1.7c0.5,0.2,1-0.2,0.8-0.7
				l-1-3.5c-0.1-0.2,0-0.5,0.2-0.6l3.2-2.8c0.4-0.3,0.2-1-0.3-1l-4.1-0.3C509.8,203.6,509.6,203.5,509.5,203.3z"/>
			<path class="st6" d="M478.5,257l-2-4.8c-0.2-0.5-0.9-0.5-1.1,0l-1.5,4.7c-0.1,0.2-0.3,0.4-0.6,0.4h-4.5c-0.6,0-0.8,0.7-0.4,1.1
				l4,3c0.2,0.2,0.3,0.4,0.2,0.7l-1.8,4.6c-0.2,0.5,0.4,1,0.9,0.7l4.2-2.8c0.2-0.1,0.4-0.1,0.6,0l3.5,1.7c0.5,0.2,1-0.2,0.8-0.7
				l-1-3.5c-0.1-0.2,0-0.5,0.2-0.6l3.2-2.8c0.4-0.3,0.2-1-0.3-1l-4.1-0.3C478.7,257.4,478.5,257.3,478.5,257z"/>
		</g>
		<g>
			<path class="st28" d="M669,447.4H389.1c-6.3,0-11.3-5.1-11.3-11.3V295.5c0-6.3,5.1-11.3,11.3-11.3H669c6.3,0,11.3,5.1,11.3,11.3
				V436C680.3,442.3,675.2,447.4,669,447.4z"/>
			<path class="st25" d="M530.3,435.3v-85.4c0-0.2,0.1-0.4,0.1-0.6c1.2-2.2,10.3-17.5,29.2-26c0.3-0.1,0.7-0.1,1,0
				c3.1,1.4,19.9,9.8,29.2,26.7c0.1,0.2,0.1,0.4,0.1,0.6v85.4c0,0.7-0.5,1.2-1.2,1.2l-57.4-0.6C530.8,436.4,530.3,435.9,530.3,435.3
				z"/>
			<path class="st27" d="M534.3,364.4c0,0,10.9-24.3,25.6-29.3c0.2-0.1,0.5-0.1,0.7,0c2.1,0.6,13,4.8,25.3,29.4"/>
			<path class="st26" d="M570.8,329.2v-10.9c0-0.2,0-0.3,0.1-0.5c0.8-1.9,7-15.3,24-21.9c0.3-0.1,0.6-0.1,0.9,0
				c2.8,1.3,17.2,8.4,22.6,21.3c0.1,0.1,0.1,0.3,0.1,0.5v118.1c0,0.7-0.5,1.2-1.2,1.2h-27.2"/>
			<path class="st11" d="M473.4,297.5l0.6,8c0.1,0.9,1.1,1.4,1.8,0.9c3.4-2.2,11.2-6.2,14.1,1.2c3.4,8.8-14.2,24.4-17.1,26.9
				c-0.3,0.2-0.4,0.6-0.4,0.9v7.2c0,0.7,0.5,1.2,1.2,1.2h29.5c0.7,0,1.2-0.5,1.2-1.2v-7.1c0-0.7-0.5-1.2-1.2-1.2l-14-0.1
				c-1.1,0-1.6-1.3-0.8-2c5-4.7,16.4-16.9,13.8-28.1c-3.2-13.7-19.7-10.9-27.9-7.8C473.7,296.5,473.4,297,473.4,297.5z"/>
			<path class="st11" d="M540,320.1c-0.6-28.2-14-26.3-16.5-26.3c-4.2,0-15-0.6-16.1,25.3c-1.1,25.9,16.1,25,16.1,25
				S540.6,346.1,540,320.1z M528.5,318.8c0,17-3.8,17.1-4.5,17.1s-5.9,0.6-5.4-16.8c0.5-18,5.3-17.1,5.3-17.1
				S528.8,301.4,528.5,318.8z"/>
			<path class="st11" d="M406.6,409.6l0.3,3.7c0.1,0.9,1,1.4,1.8,0.9c2.3-1.3,6.3-3,7.9,1.1c2,5.2-8,14.2-10.2,16.1
				c-0.3,0.2-0.4,0.6-0.4,0.9v3.7c0,0.7,0.5,1.2,1.2,1.2h16.9c0.7,0,1.2-0.5,1.2-1.2v-3.4c0-0.7-0.5-1.2-1.2-1.2l-6.9-0.1
				c-1,0-1.6-1.3-0.8-2c3.3-3.3,9-10,7.5-16.2c-1.9-8.1-11.5-6.7-16.5-4.9C406.9,408.6,406.6,409.1,406.6,409.6z"/>
			<path class="st11" d="M446.9,422.9c-0.4-17.1-8.5-15.9-10-15.9c-2.5,0-9-0.4-9.7,15.3s9.7,15.1,9.7,15.1S447.2,438.6,446.9,422.9
				z M439.9,422.1c0,10.3-2.3,10.3-2.7,10.3c-0.4,0-3.6,0.4-3.3-10.2c0.3-10.9,3.2-10.4,3.2-10.4S440.1,411.6,439.9,422.1z"/>
			<path class="st11" d="M632.6,404L632.6,404c0.1,0.7,0.8,1.2,1.4,0.9c0.8-0.3,1.8-0.4,2.2,0.8c0.7,1.8-2.5,4.8-3.6,5.8
				c-0.2,0.2-0.4,0.5-0.4,0.8v0.5c0,0.6,0.5,1.1,1.1,1.1h5.1c0.6,0,1.1-0.5,1.1-1.1v0c0-0.6-0.5-1-1-1.1l-0.6,0
				c-0.9,0-1.4-1-0.8-1.7c1.1-1.3,2.3-3.3,1.9-5.1c-0.6-2.8-3.7-2.5-5.6-2C632.8,403,632.5,403.5,632.6,404z"/>
			<path class="st11" d="M643.8,402.5c-0.9,0-3.4-0.1-3.6,5.7s3.6,5.6,3.6,5.6s3.8,0.4,3.7-5.4C647.4,402.1,644.3,402.5,643.8,402.5
				z M643.9,412c-0.1,0-1.3,0.1-1.2-3.8c0.1-4,1.2-3.8,1.2-3.8s1.1-0.1,1,3.8C644.9,411.9,644,412,643.9,412z"/>
			<path class="st6" d="M536.7,300.9l2-4.8c0.2-0.5,0.9-0.5,1.1,0l1.5,4.7c0.1,0.2,0.3,0.4,0.6,0.4h4.5c0.6,0,0.8,0.7,0.4,1.1l-4,3
				c-0.2,0.2-0.3,0.4-0.2,0.7l1.8,4.6c0.2,0.5-0.4,1-0.9,0.7l-4.2-2.8c-0.2-0.1-0.4-0.1-0.6,0l-3.5,1.7c-0.5,0.2-1-0.2-0.8-0.7
				l1-3.5c0.1-0.2,0-0.5-0.2-0.6l-3.2-2.8c-0.4-0.3-0.2-1,0.3-1l4.1-0.3C536.4,301.3,536.6,301.1,536.7,300.9z"/>
			<path class="st6" d="M481.8,395.1l2-4.8c0.2-0.5,0.9-0.5,1.1,0l1.5,4.7c0.1,0.2,0.3,0.4,0.6,0.4h4.5c0.6,0,0.8,0.7,0.4,1.1l-4,3
				c-0.2,0.2-0.3,0.4-0.2,0.7l1.8,4.6c0.2,0.5-0.4,1-0.9,0.7l-4.2-2.8c-0.2-0.1-0.4-0.1-0.6,0l-3.5,1.7c-0.5,0.2-1-0.2-0.8-0.7
				l1-3.5c0.1-0.2,0-0.5-0.2-0.6l-3.2-2.8c-0.4-0.3-0.2-1,0.3-1l4.1-0.3C481.5,395.5,481.7,395.3,481.8,395.1z"/>
			<path class="st6" d="M481.8,333.3l2-4.8c0.2-0.5,0.9-0.5,1.1,0l1.5,4.7c0.1,0.2,0.3,0.4,0.6,0.4h4.5c0.6,0,0.8,0.7,0.4,1.1l-4,3
				c-0.2,0.2-0.3,0.4-0.2,0.7l1.8,4.6c0.2,0.5-0.4,1-0.9,0.7l-4.2-2.8c-0.2-0.1-0.4-0.1-0.6,0l-3.5,1.7c-0.5,0.2-1-0.2-0.8-0.7
				l1-3.5c0.1-0.2,0-0.5-0.2-0.6l-3.2-2.8c-0.4-0.3-0.2-1,0.3-1l4.1-0.3C481.5,333.7,481.7,333.5,481.8,333.3z"/>
			<path class="st6" d="M509.5,309.8l-2-4.8c-0.2-0.5-0.9-0.5-1.1,0l-1.5,4.7c-0.1,0.2-0.3,0.4-0.6,0.4h-4.5c-0.6,0-0.8,0.7-0.4,1.1
				l4,3c0.2,0.2,0.3,0.4,0.2,0.7l-1.8,4.6c-0.2,0.5,0.4,1,0.9,0.7l4.2-2.8c0.2-0.1,0.4-0.1,0.6,0l3.5,1.7c0.5,0.2,1-0.2,0.8-0.7
				l-1-3.5c-0.1-0.2,0-0.5,0.2-0.6l3.2-2.8c0.4-0.3,0.2-1-0.3-1l-4.1-0.3C509.8,310.2,509.6,310,509.5,309.8z"/>
			<path class="st6" d="M478.5,363.6l-2-4.8c-0.2-0.5-0.9-0.5-1.1,0l-1.5,4.7c-0.1,0.2-0.3,0.4-0.6,0.4h-4.5c-0.6,0-0.8,0.7-0.4,1.1
				l4,3c0.2,0.2,0.3,0.4,0.2,0.7l-1.8,4.6c-0.2,0.5,0.4,1,0.9,0.7l4.2-2.8c0.2-0.1,0.4-0.1,0.6,0l3.5,1.7c0.5,0.2,1-0.2,0.8-0.7
				l-1-3.5c-0.1-0.2,0-0.5,0.2-0.6l3.2-2.8c0.4-0.3,0.2-1-0.3-1l-4.1-0.3C478.7,363.9,478.5,363.8,478.5,363.6z"/>
		</g>
		<g>
			<path class="st28" d="M669,553.9H389.1c-6.3,0-11.3-5.1-11.3-11.3V402c0-6.3,5.1-11.3,11.3-11.3H669c6.3,0,11.3,5.1,11.3,11.3
				v140.5C680.3,548.8,675.2,553.9,669,553.9z"/>
			<path class="st25" d="M530.3,541.8v-85.4c0-0.2,0.1-0.4,0.1-0.6c1.2-2.2,10.3-17.5,29.2-26c0.3-0.1,0.7-0.1,1,0
				c3.1,1.4,19.9,9.8,29.2,26.7c0.1,0.2,0.1,0.4,0.1,0.6v85.4c0,0.7-0.5,1.2-1.2,1.2l-57.4-0.6C530.8,543,530.3,542.4,530.3,541.8z"
				/>
			<path class="st27" d="M534.3,470.9c0,0,10.9-24.3,25.6-29.3c0.2-0.1,0.5-0.1,0.7,0c2.1,0.6,13,4.8,25.3,29.4"/>
			<path class="st26" d="M570.8,435.7v-10.9c0-0.2,0-0.3,0.1-0.5c0.8-1.9,7-15.3,24-21.9c0.3-0.1,0.6-0.1,0.9,0
				c2.8,1.3,17.2,8.4,22.6,21.3c0.1,0.1,0.1,0.3,0.1,0.5v118.1c0,0.7-0.5,1.2-1.2,1.2h-27.2"/>
			<path class="st11" d="M473.4,404.1l0.6,8c0.1,0.9,1.1,1.4,1.8,0.9c3.4-2.2,11.2-6.2,14.1,1.2c3.4,8.8-14.2,24.4-17.1,26.9
				c-0.3,0.2-0.4,0.6-0.4,0.9v7.2c0,0.7,0.5,1.2,1.2,1.2h29.5c0.7,0,1.2-0.5,1.2-1.2v-7.1c0-0.7-0.5-1.2-1.2-1.2l-14-0.1
				c-1.1,0-1.6-1.3-0.8-2c5-4.7,16.4-16.9,13.8-28.1c-3.2-13.7-19.7-10.9-27.9-7.8C473.7,403.1,473.4,403.5,473.4,404.1z"/>
			<path class="st11" d="M540,426.6c-0.6-28.2-14-26.3-16.5-26.3c-4.2,0-15-0.6-16.1,25.3c-1.1,25.9,16.1,25,16.1,25
				S540.6,452.6,540,426.6z M528.5,425.4c0,17-3.8,17.1-4.5,17.1s-5.9,0.6-5.4-16.8c0.5-18,5.3-17.1,5.3-17.1
				S528.8,407.9,528.5,425.4z"/>
			<path class="st11" d="M406.6,516.1l0.3,3.7c0.1,0.9,1,1.4,1.8,0.9c2.3-1.3,6.3-3,7.9,1.1c2,5.2-8,14.2-10.2,16.1
				c-0.3,0.2-0.4,0.6-0.4,0.9v3.7c0,0.7,0.5,1.2,1.2,1.2h16.9c0.7,0,1.2-0.5,1.2-1.2v-3.4c0-0.7-0.5-1.2-1.2-1.2l-6.9-0.1
				c-1,0-1.6-1.3-0.8-2c3.3-3.3,9-10,7.5-16.2c-1.9-8.1-11.5-6.7-16.5-4.9C406.9,515.1,406.6,515.6,406.6,516.1z"/>
			<path class="st11" d="M446.9,529.4c-0.4-17.1-8.5-15.9-10-15.9c-2.5,0-9-0.4-9.7,15.3s9.7,15.1,9.7,15.1S447.2,545.1,446.9,529.4
				z M439.9,528.7c0,10.3-2.3,10.3-2.7,10.3c-0.4,0-3.6,0.4-3.3-10.2c0.3-10.9,3.2-10.4,3.2-10.4S440.1,518.1,439.9,528.7z"/>
			<path class="st11" d="M632.6,510.5L632.6,510.5c0.1,0.7,0.8,1.2,1.4,0.9c0.8-0.3,1.8-0.4,2.2,0.8c0.7,1.8-2.5,4.8-3.6,5.8
				c-0.2,0.2-0.4,0.5-0.4,0.8v0.5c0,0.6,0.5,1.1,1.1,1.1h5.1c0.6,0,1.1-0.5,1.1-1.1v0c0-0.6-0.5-1-1-1.1l-0.6,0
				c-0.9,0-1.4-1-0.8-1.7c1.1-1.3,2.3-3.3,1.9-5.1c-0.6-2.8-3.7-2.5-5.6-2C632.8,509.5,632.5,510,632.6,510.5z"/>
			<path class="st11" d="M643.8,509c-0.9,0-3.4-0.1-3.6,5.7s3.6,5.6,3.6,5.6s3.8,0.4,3.7-5.4C647.4,508.6,644.3,509,643.8,509z
				 M643.9,518.5c-0.1,0-1.3,0.1-1.2-3.8c0.1-4,1.2-3.8,1.2-3.8s1.1-0.1,1,3.8C644.9,518.5,644,518.5,643.9,518.5z"/>
			<path class="st6" d="M536.7,407.4l2-4.8c0.2-0.5,0.9-0.5,1.1,0l1.5,4.7c0.1,0.2,0.3,0.4,0.6,0.4h4.5c0.6,0,0.8,0.7,0.4,1.1l-4,3
				c-0.2,0.2-0.3,0.4-0.2,0.7l1.8,4.6c0.2,0.5-0.4,1-0.9,0.7l-4.2-2.8c-0.2-0.1-0.4-0.1-0.6,0l-3.5,1.7c-0.5,0.2-1-0.2-0.8-0.7
				l1-3.5c0.1-0.2,0-0.5-0.2-0.6l-3.2-2.8c-0.4-0.3-0.2-1,0.3-1l4.1-0.3C536.4,407.8,536.6,407.7,536.7,407.4z"/>
			<path class="st6" d="M481.8,501.7l2-4.8c0.2-0.5,0.9-0.5,1.1,0l1.5,4.7c0.1,0.2,0.3,0.4,0.6,0.4h4.5c0.6,0,0.8,0.7,0.4,1.1l-4,3
				c-0.2,0.2-0.3,0.4-0.2,0.7l1.8,4.6c0.2,0.5-0.4,1-0.9,0.7l-4.2-2.8c-0.2-0.1-0.4-0.1-0.6,0l-3.5,1.7c-0.5,0.2-1-0.2-0.8-0.7
				l1-3.5c0.1-0.2,0-0.5-0.2-0.6l-3.2-2.8c-0.4-0.3-0.2-1,0.3-1l4.1-0.3C481.5,502,481.7,501.9,481.8,501.7z"/>
			<path class="st6" d="M481.8,439.8l2-4.8c0.2-0.5,0.9-0.5,1.1,0l1.5,4.7c0.1,0.2,0.3,0.4,0.6,0.4h4.5c0.6,0,0.8,0.7,0.4,1.1l-4,3
				c-0.2,0.2-0.3,0.4-0.2,0.7l1.8,4.6c0.2,0.5-0.4,1-0.9,0.7l-4.2-2.8c-0.2-0.1-0.4-0.1-0.6,0l-3.5,1.7c-0.5,0.2-1-0.2-0.8-0.7
				l1-3.5c0.1-0.2,0-0.5-0.2-0.6l-3.2-2.8c-0.4-0.3-0.2-1,0.3-1l4.1-0.3C481.5,440.2,481.7,440,481.8,439.8z"/>
			<path class="st6" d="M509.5,416.3l-2-4.8c-0.2-0.5-0.9-0.5-1.1,0l-1.5,4.7c-0.1,0.2-0.3,0.4-0.6,0.4h-4.5c-0.6,0-0.8,0.7-0.4,1.1
				l4,3c0.2,0.2,0.3,0.4,0.2,0.7L502,426c-0.2,0.5,0.4,1,0.9,0.7l4.2-2.8c0.2-0.1,0.4-0.1,0.6,0l3.5,1.7c0.5,0.2,1-0.2,0.8-0.7
				l-1-3.5c-0.1-0.2,0-0.5,0.2-0.6l3.2-2.8c0.4-0.3,0.2-1-0.3-1l-4.1-0.3C509.8,416.7,509.6,416.5,509.5,416.3z"/>
			<path class="st6" d="M478.5,470.1l-2-4.8c-0.2-0.5-0.9-0.5-1.1,0l-1.5,4.7c-0.1,0.2-0.3,0.4-0.6,0.4h-4.5c-0.6,0-0.8,0.7-0.4,1.1
				l4,3c0.2,0.2,0.3,0.4,0.2,0.7l-1.8,4.6c-0.2,0.5,0.4,1,0.9,0.7l4.2-2.8c0.2-0.1,0.4-0.1,0.6,0l3.5,1.7c0.5,0.2,1-0.2,0.8-0.7
				l-1-3.5c-0.1-0.2,0-0.5,0.2-0.6l3.2-2.8c0.4-0.3,0.2-1-0.3-1l-4.1-0.3C478.7,470.5,478.5,470.3,478.5,470.1z"/>
		</g>
		<g>
			<path class="st28" d="M669,660.4H389.1c-6.3,0-11.3-5.1-11.3-11.3V508.5c0-6.3,5.1-11.3,11.3-11.3H669c6.3,0,11.3,5.1,11.3,11.3
				v140.5C680.3,655.3,675.2,660.4,669,660.4z"/>
			<path class="st25" d="M530.3,648.3v-85.4c0-0.2,0.1-0.4,0.1-0.6c1.2-2.2,10.3-17.5,29.2-26c0.3-0.1,0.7-0.1,1,0
				c3.1,1.4,19.9,9.8,29.2,26.7c0.1,0.2,0.1,0.4,0.1,0.6v85.4c0,0.7-0.5,1.2-1.2,1.2l-57.4-0.6C530.8,649.5,530.3,649,530.3,648.3z"
				/>
			<path class="st27" d="M534.3,577.4c0,0,10.9-24.3,25.6-29.3c0.2-0.1,0.5-0.1,0.7,0c2.1,0.6,13,4.8,25.3,29.4"/>
			<path class="st26" d="M570.8,542.3v-10.9c0-0.2,0-0.3,0.1-0.5c0.8-1.9,7-15.3,24-21.9c0.3-0.1,0.6-0.1,0.9,0
				c2.8,1.3,17.2,8.4,22.6,21.3c0.1,0.1,0.1,0.3,0.1,0.5v118.1c0,0.7-0.5,1.2-1.2,1.2h-27.2"/>
			<path class="st11" d="M473.4,510.6l0.6,8c0.1,0.9,1.1,1.4,1.8,0.9c3.4-2.2,11.2-6.2,14.1,1.2c3.4,8.8-14.2,24.4-17.1,26.9
				c-0.3,0.2-0.4,0.6-0.4,0.9v7.2c0,0.7,0.5,1.2,1.2,1.2h29.5c0.7,0,1.2-0.5,1.2-1.2v-7.1c0-0.7-0.5-1.2-1.2-1.2l-14-0.1
				c-1.1,0-1.6-1.3-0.8-2c5-4.7,16.4-16.9,13.8-28.1c-3.2-13.7-19.7-10.9-27.9-7.8C473.7,509.6,473.4,510.1,473.4,510.6z"/>
			<path class="st11" d="M540,533.1c-0.6-28.2-14-26.3-16.5-26.3c-4.2,0-15-0.6-16.1,25.3c-1.1,25.9,16.1,25,16.1,25
				S540.6,559.2,540,533.1z M528.5,531.9c0,17-3.8,17.1-4.5,17.1s-5.9,0.6-5.4-16.8c0.5-18,5.3-17.1,5.3-17.1
				S528.8,514.5,528.5,531.9z"/>
			<path class="st11" d="M406.6,622.7l0.3,3.7c0.1,0.9,1,1.4,1.8,0.9c2.3-1.3,6.3-3,7.9,1.1c2,5.2-8,14.2-10.2,16.1
				c-0.3,0.2-0.4,0.6-0.4,0.9v3.7c0,0.7,0.5,1.2,1.2,1.2h16.9c0.7,0,1.2-0.5,1.2-1.2v-3.4c0-0.7-0.5-1.2-1.2-1.2l-6.9-0.1
				c-1,0-1.6-1.3-0.8-2c3.3-3.3,9-10,7.5-16.2c-1.9-8.1-11.5-6.7-16.5-4.9C406.9,621.6,406.6,622.1,406.6,622.7z"/>
			<path class="st11" d="M446.9,635.9c-0.4-17.1-8.5-15.9-10-15.9c-2.5,0-9-0.4-9.7,15.3s9.7,15.1,9.7,15.1S447.2,651.7,446.9,635.9
				z M439.9,635.2c0,10.3-2.3,10.3-2.7,10.3c-0.4,0-3.6,0.4-3.3-10.2c0.3-10.9,3.2-10.4,3.2-10.4S440.1,624.6,439.9,635.2z"/>
			<path class="st11" d="M632.6,617L632.6,617c0.1,0.7,0.8,1.2,1.4,0.9c0.8-0.3,1.8-0.4,2.2,0.8c0.7,1.8-2.5,4.8-3.6,5.8
				c-0.2,0.2-0.4,0.5-0.4,0.8v0.5c0,0.6,0.5,1.1,1.1,1.1h5.1c0.6,0,1.1-0.5,1.1-1.1v0c0-0.6-0.5-1-1-1.1l-0.6,0
				c-0.9,0-1.4-1-0.8-1.7c1.1-1.3,2.3-3.3,1.9-5.1c-0.6-2.8-3.7-2.5-5.6-2C632.8,616.1,632.5,616.5,632.6,617z"/>
			<path class="st11" d="M643.8,615.6c-0.9,0-3.4-0.1-3.6,5.7s3.6,5.6,3.6,5.6s3.8,0.4,3.7-5.4C647.4,615.1,644.3,615.6,643.8,615.6
				z M643.9,625c-0.1,0-1.3,0.1-1.2-3.8c0.1-4,1.2-3.8,1.2-3.8s1.1-0.1,1,3.8C644.9,625,644,625,643.9,625z"/>
			<path class="st6" d="M536.7,514l2-4.8c0.2-0.5,0.9-0.5,1.1,0l1.5,4.7c0.1,0.2,0.3,0.4,0.6,0.4h4.5c0.6,0,0.8,0.7,0.4,1.1l-4,3
				c-0.2,0.2-0.3,0.4-0.2,0.7l1.8,4.6c0.2,0.5-0.4,1-0.9,0.7l-4.2-2.8c-0.2-0.1-0.4-0.1-0.6,0l-3.5,1.7c-0.5,0.2-1-0.2-0.8-0.7
				l1-3.5c0.1-0.2,0-0.5-0.2-0.6l-3.2-2.8c-0.4-0.3-0.2-1,0.3-1l4.1-0.3C536.4,514.3,536.6,514.2,536.7,514z"/>
			<path class="st6" d="M481.8,608.2l2-4.8c0.2-0.5,0.9-0.5,1.1,0l1.5,4.7c0.1,0.2,0.3,0.4,0.6,0.4h4.5c0.6,0,0.8,0.7,0.4,1.1l-4,3
				c-0.2,0.2-0.3,0.4-0.2,0.7l1.8,4.6c0.2,0.5-0.4,1-0.9,0.7l-4.2-2.8c-0.2-0.1-0.4-0.1-0.6,0l-3.5,1.7c-0.5,0.2-1-0.2-0.8-0.7
				l1-3.5c0.1-0.2,0-0.5-0.2-0.6l-3.2-2.8c-0.4-0.3-0.2-1,0.3-1l4.1-0.3C481.5,608.5,481.7,608.4,481.8,608.2z"/>
			<path class="st6" d="M481.8,546.4l2-4.8c0.2-0.5,0.9-0.5,1.1,0l1.5,4.7c0.1,0.2,0.3,0.4,0.6,0.4h4.5c0.6,0,0.8,0.7,0.4,1.1l-4,3
				c-0.2,0.2-0.3,0.4-0.2,0.7l1.8,4.6c0.2,0.5-0.4,1-0.9,0.7l-4.2-2.8c-0.2-0.1-0.4-0.1-0.6,0l-3.5,1.7c-0.5,0.2-1-0.2-0.8-0.7
				l1-3.5c0.1-0.2,0-0.5-0.2-0.6l-3.2-2.8c-0.4-0.3-0.2-1,0.3-1l4.1-0.3C481.5,546.7,481.7,546.6,481.8,546.4z"/>
			<path class="st6" d="M509.5,522.9l-2-4.8c-0.2-0.5-0.9-0.5-1.1,0l-1.5,4.7c-0.1,0.2-0.3,0.4-0.6,0.4h-4.5c-0.6,0-0.8,0.7-0.4,1.1
				l4,3c0.2,0.2,0.3,0.4,0.2,0.7l-1.8,4.6c-0.2,0.5,0.4,1,0.9,0.7l4.2-2.8c0.2-0.1,0.4-0.1,0.6,0l3.5,1.7c0.5,0.2,1-0.2,0.8-0.7
				l-1-3.5c-0.1-0.2,0-0.5,0.2-0.6l3.2-2.8c0.4-0.3,0.2-1-0.3-1l-4.1-0.3C509.8,523.2,509.6,523.1,509.5,522.9z"/>
			<path class="st6" d="M478.5,576.6l-2-4.8c-0.2-0.5-0.9-0.5-1.1,0l-1.5,4.7c-0.1,0.2-0.3,0.4-0.6,0.4h-4.5c-0.6,0-0.8,0.7-0.4,1.1
				l4,3c0.2,0.2,0.3,0.4,0.2,0.7l-1.8,4.6c-0.2,0.5,0.4,1,0.9,0.7l4.2-2.8c0.2-0.1,0.4-0.1,0.6,0l3.5,1.7c0.5,0.2,1-0.2,0.8-0.7
				l-1-3.5c-0.1-0.2,0-0.5,0.2-0.6l3.2-2.8c0.4-0.3,0.2-1-0.3-1L479,577C478.7,577,478.5,576.8,478.5,576.6z"/>
		</g>
		<g>
			<path class="st28" d="M669,766.9H389.1c-6.3,0-11.3-5.1-11.3-11.3V615.1c0-6.3,5.1-11.3,11.3-11.3H669c6.3,0,11.3,5.1,11.3,11.3
				v140.5C680.3,761.9,675.2,766.9,669,766.9z"/>
			<path class="st25" d="M530.3,754.8v-85.4c0-0.2,0.1-0.4,0.1-0.6c1.2-2.2,10.3-17.5,29.2-26c0.3-0.1,0.7-0.1,1,0
				c3.1,1.4,19.9,9.8,29.2,26.7c0.1,0.2,0.1,0.4,0.1,0.6v85.4c0,0.7-0.5,1.2-1.2,1.2l-57.4-0.6C530.8,756,530.3,755.5,530.3,754.8z"
				/>
			<path class="st27" d="M534.3,683.9c0,0,10.9-24.3,25.6-29.3c0.2-0.1,0.5-0.1,0.7,0c2.1,0.6,13,4.8,25.3,29.4"/>
			<path class="st26" d="M570.8,648.8v-10.9c0-0.2,0-0.3,0.1-0.5c0.8-1.9,7-15.3,24-21.9c0.3-0.1,0.6-0.1,0.9,0
				c2.8,1.3,17.2,8.4,22.6,21.3c0.1,0.1,0.1,0.3,0.1,0.5v118.1c0,0.7-0.5,1.2-1.2,1.2h-27.2"/>
			<path class="st11" d="M473.4,617.1l0.6,8c0.1,0.9,1.1,1.4,1.8,0.9c3.4-2.2,11.2-6.2,14.1,1.2c3.4,8.8-14.2,24.4-17.1,26.9
				c-0.3,0.2-0.4,0.6-0.4,0.9v7.2c0,0.7,0.5,1.2,1.2,1.2h29.5c0.7,0,1.2-0.5,1.2-1.2v-7.1c0-0.7-0.5-1.2-1.2-1.2l-14-0.1
				c-1.1,0-1.6-1.3-0.8-2c5-4.7,16.4-16.9,13.8-28.1c-3.2-13.7-19.7-10.9-27.9-7.8C473.7,616.1,473.4,616.6,473.4,617.1z"/>
			<path class="st11" d="M540,639.6c-0.6-28.2-14-26.3-16.5-26.3c-4.2,0-15-0.6-16.1,25.3c-1.1,25.9,16.1,25,16.1,25
				S540.6,665.7,540,639.6z M528.5,638.4c0,17-3.8,17.1-4.5,17.1s-5.9,0.6-5.4-16.8c0.5-18,5.3-17.1,5.3-17.1S528.8,621,528.5,638.4
				z"/>
			<path class="st11" d="M406.6,729.2l0.3,3.7c0.1,0.9,1,1.4,1.8,0.9c2.3-1.3,6.3-3,7.9,1.1c2,5.2-8,14.2-10.2,16.1
				c-0.3,0.2-0.4,0.6-0.4,0.9v3.7c0,0.7,0.5,1.2,1.2,1.2h16.9c0.7,0,1.2-0.5,1.2-1.2v-3.4c0-0.7-0.5-1.2-1.2-1.2l-6.9-0.1
				c-1,0-1.6-1.3-0.8-2c3.3-3.3,9-10,7.5-16.2c-1.9-8.1-11.5-6.7-16.5-4.9C406.9,728.2,406.6,728.7,406.6,729.2z"/>
			<path class="st11" d="M446.9,742.5c-0.4-17.1-8.5-15.9-10-15.9c-2.5,0-9-0.4-9.7,15.3s9.7,15.1,9.7,15.1S447.2,758.2,446.9,742.5
				z M439.9,741.7c0,10.3-2.3,10.3-2.7,10.3c-0.4,0-3.6,0.4-3.3-10.2c0.3-10.9,3.2-10.4,3.2-10.4S440.1,731.2,439.9,741.7z"/>
			<path class="st11" d="M632.6,723.5L632.6,723.5c0.1,0.7,0.8,1.2,1.4,0.9c0.8-0.3,1.8-0.4,2.2,0.8c0.7,1.8-2.5,4.8-3.6,5.8
				c-0.2,0.2-0.4,0.5-0.4,0.8v0.5c0,0.6,0.5,1.1,1.1,1.1h5.1c0.6,0,1.1-0.5,1.1-1.1v0c0-0.6-0.5-1-1-1.1l-0.6,0
				c-0.9,0-1.4-1-0.8-1.7c1.1-1.3,2.3-3.3,1.9-5.1c-0.6-2.8-3.7-2.5-5.6-2C632.8,722.6,632.5,723,632.6,723.5z"/>
			<path class="st11" d="M643.8,722.1c-0.9,0-3.4-0.1-3.6,5.7s3.6,5.6,3.6,5.6s3.8,0.4,3.7-5.4C647.4,721.7,644.3,722.1,643.8,722.1
				z M643.9,731.6c-0.1,0-1.3,0.1-1.2-3.8c0.1-4,1.2-3.8,1.2-3.8s1.1-0.1,1,3.8C644.9,731.5,644,731.6,643.9,731.6z"/>
			<path class="st6" d="M536.7,620.5l2-4.8c0.2-0.5,0.9-0.5,1.1,0l1.5,4.7c0.1,0.2,0.3,0.4,0.6,0.4h4.5c0.6,0,0.8,0.7,0.4,1.1l-4,3
				c-0.2,0.2-0.3,0.4-0.2,0.7l1.8,4.6c0.2,0.5-0.4,1-0.9,0.7l-4.2-2.8c-0.2-0.1-0.4-0.1-0.6,0l-3.5,1.7c-0.5,0.2-1-0.2-0.8-0.7
				l1-3.5c0.1-0.2,0-0.5-0.2-0.6l-3.2-2.8c-0.4-0.3-0.2-1,0.3-1l4.1-0.3C536.4,620.9,536.6,620.7,536.7,620.5z"/>
			<path class="st6" d="M481.8,714.7l2-4.8c0.2-0.5,0.9-0.5,1.1,0l1.5,4.7c0.1,0.2,0.3,0.4,0.6,0.4h4.5c0.6,0,0.8,0.7,0.4,1.1l-4,3
				c-0.2,0.2-0.3,0.4-0.2,0.7l1.8,4.6c0.2,0.5-0.4,1-0.9,0.7l-4.2-2.8c-0.2-0.1-0.4-0.1-0.6,0l-3.5,1.7c-0.5,0.2-1-0.2-0.8-0.7
				l1-3.5c0.1-0.2,0-0.5-0.2-0.6l-3.2-2.8c-0.4-0.3-0.2-1,0.3-1l4.1-0.3C481.5,715.1,481.7,714.9,481.8,714.7z"/>
			<path class="st6" d="M481.8,652.9l2-4.8c0.2-0.5,0.9-0.5,1.1,0l1.5,4.7c0.1,0.2,0.3,0.4,0.6,0.4h4.5c0.6,0,0.8,0.7,0.4,1.1l-4,3
				c-0.2,0.2-0.3,0.4-0.2,0.7l1.8,4.6c0.2,0.5-0.4,1-0.9,0.7l-4.2-2.8c-0.2-0.1-0.4-0.1-0.6,0l-3.5,1.7c-0.5,0.2-1-0.2-0.8-0.7
				l1-3.5c0.1-0.2,0-0.5-0.2-0.6l-3.2-2.8c-0.4-0.3-0.2-1,0.3-1l4.1-0.3C481.5,653.2,481.7,653.1,481.8,652.9z"/>
			<path class="st6" d="M509.5,629.4l-2-4.8c-0.2-0.5-0.9-0.5-1.1,0l-1.5,4.7c-0.1,0.2-0.3,0.4-0.6,0.4h-4.5c-0.6,0-0.8,0.7-0.4,1.1
				l4,3c0.2,0.2,0.3,0.4,0.2,0.7l-1.8,4.6c-0.2,0.5,0.4,1,0.9,0.7l4.2-2.8c0.2-0.1,0.4-0.1,0.6,0l3.5,1.7c0.5,0.2,1-0.2,0.8-0.7
				l-1-3.5c-0.1-0.2,0-0.5,0.2-0.6l3.2-2.8c0.4-0.3,0.2-1-0.3-1l-4.1-0.3C509.8,629.7,509.6,629.6,509.5,629.4z"/>
			<path class="st6" d="M478.5,683.2l-2-4.8c-0.2-0.5-0.9-0.5-1.1,0l-1.5,4.7c-0.1,0.2-0.3,0.4-0.6,0.4h-4.5c-0.6,0-0.8,0.7-0.4,1.1
				l4,3c0.2,0.2,0.3,0.4,0.2,0.7l-1.8,4.6c-0.2,0.5,0.4,1,0.9,0.7l4.2-2.8c0.2-0.1,0.4-0.1,0.6,0l3.5,1.7c0.5,0.2,1-0.2,0.8-0.7
				l-1-3.5c-0.1-0.2,0-0.5,0.2-0.6l3.2-2.8c0.4-0.3,0.2-1-0.3-1l-4.1-0.3C478.7,683.5,478.5,683.4,478.5,683.2z"/>
		</g>
	</g>
	<g>
		<g>
			<path class="st28" d="M323.9,340.8H44.1c-6.3,0-11.3-5.1-11.3-11.3V188.9c0-6.3,5.1-11.3,11.3-11.3h279.8
				c6.3,0,11.3,5.1,11.3,11.3v140.5C335.3,335.7,330.2,340.8,323.9,340.8z"/>
			<path class="st25" d="M185.3,328.7v-85.4c0-0.2,0.1-0.4,0.1-0.6c1.2-2.2,10.3-17.5,29.2-26c0.3-0.1,0.7-0.1,1,0
				c3.1,1.4,19.9,9.8,29.2,26.7c0.1,0.2,0.1,0.4,0.1,0.6v85.4c0,0.7-0.5,1.2-1.2,1.2l-57.4-0.6C185.8,329.9,185.3,329.4,185.3,328.7
				z"/>
			<path class="st27" d="M189.3,257.8c0,0,10.9-24.3,25.6-29.3c0.2-0.1,0.5-0.1,0.7,0c2.1,0.6,13,4.8,25.3,29.4"/>
			<path class="st26" d="M225.8,222.7v-10.9c0-0.2,0-0.3,0.1-0.5c0.8-1.9,7-15.3,24-21.9c0.3-0.1,0.6-0.1,0.9,0
				c2.8,1.3,17.2,8.4,22.6,21.3c0.1,0.1,0.1,0.3,0.1,0.5v118.1c0,0.7-0.5,1.2-1.2,1.2H245"/>
			<path class="st11" d="M128.4,191l0.6,8c0.1,0.9,1.1,1.4,1.8,0.9c3.4-2.2,11.2-6.2,14.1,1.2c3.4,8.8-14.2,24.4-17.1,26.9
				c-0.3,0.2-0.4,0.6-0.4,0.9v7.2c0,0.7,0.5,1.2,1.2,1.2h29.5c0.7,0,1.2-0.5,1.2-1.2v-7.1c0-0.7-0.5-1.2-1.2-1.2l-14-0.1
				c-1.1,0-1.6-1.3-0.8-2c5-4.7,16.4-16.9,13.8-28.1c-3.2-13.7-19.7-10.9-27.9-7.8C128.6,190,128.3,190.5,128.4,191z"/>
			<path class="st11" d="M195,213.5c-0.6-28.2-14-26.3-16.5-26.3c-4.2,0-15-0.6-16.1,25.3c-1.1,25.9,16.1,25,16.1,25
				S195.6,239.6,195,213.5z M183.5,212.3c0,17-3.8,17.1-4.5,17.1s-5.9,0.6-5.4-16.8c0.5-18,5.3-17.1,5.3-17.1
				S183.8,194.9,183.5,212.3z"/>
			<path class="st11" d="M61.6,303.1l0.3,3.7c0.1,0.9,1,1.4,1.8,0.9c2.3-1.3,6.3-3,7.9,1.1c2,5.2-8,14.2-10.2,16.1
				c-0.3,0.2-0.4,0.6-0.4,0.9v3.7c0,0.7,0.5,1.2,1.2,1.2H79c0.7,0,1.2-0.5,1.2-1.2v-3.4c0-0.7-0.5-1.2-1.2-1.2l-6.9-0.1
				c-1,0-1.6-1.3-0.8-2c3.3-3.3,9-10,7.5-16.2c-1.9-8.1-11.5-6.7-16.5-4.9C61.9,302.1,61.5,302.5,61.6,303.1z"/>
			<path class="st11" d="M101.8,316.3c-0.4-17.1-8.5-15.9-10-15.9c-2.5,0-9-0.4-9.7,15.3s9.7,15.1,9.7,15.1S102.2,332.1,101.8,316.3
				z M94.9,315.6c0,10.3-2.3,10.3-2.7,10.3c-0.4,0-3.6,0.4-3.3-10.2c0.3-10.9,3.2-10.4,3.2-10.4S95.1,305.1,94.9,315.6z"/>
			<path class="st11" d="M287.5,297.4L287.5,297.4c0.1,0.7,0.8,1.2,1.4,0.9c0.8-0.3,1.8-0.4,2.2,0.8c0.7,1.8-2.5,4.8-3.6,5.8
				c-0.2,0.2-0.4,0.5-0.4,0.8v0.5c0,0.6,0.5,1.1,1.1,1.1h5.1c0.6,0,1.1-0.5,1.1-1.1v0c0-0.6-0.5-1-1-1.1l-0.6,0
				c-0.9,0-1.4-1-0.8-1.7c1.1-1.3,2.3-3.3,1.9-5.1c-0.6-2.8-3.7-2.5-5.6-2C287.8,296.5,287.5,296.9,287.5,297.4z"/>
			<path class="st11" d="M298.8,296c-0.9,0-3.4-0.1-3.6,5.7s3.6,5.6,3.6,5.6s3.8,0.4,3.7-5.4C302.3,295.5,299.3,296,298.8,296z
				 M298.9,305.4c-0.1,0-1.3,0.1-1.2-3.8c0.1-4,1.2-3.8,1.2-3.8s1.1-0.1,1,3.8C299.9,305.4,299,305.4,298.9,305.4z"/>
			<path class="st6" d="M191.7,194.4l2-4.8c0.2-0.5,0.9-0.5,1.1,0l1.5,4.7c0.1,0.2,0.3,0.4,0.6,0.4h4.5c0.6,0,0.8,0.7,0.4,1.1l-4,3
				c-0.2,0.2-0.3,0.4-0.2,0.7l1.8,4.6c0.2,0.5-0.4,1-0.9,0.7l-4.2-2.8c-0.2-0.1-0.4-0.1-0.6,0l-3.5,1.7c-0.5,0.2-1-0.2-0.8-0.7
				l1-3.5c0.1-0.2,0-0.5-0.2-0.6l-3.2-2.8c-0.4-0.3-0.2-1,0.3-1l4.1-0.3C191.4,194.7,191.6,194.6,191.7,194.4z"/>
			<path class="st6" d="M136.7,288.6l2-4.8c0.2-0.5,0.9-0.5,1.1,0l1.5,4.7c0.1,0.2,0.3,0.4,0.6,0.4h4.5c0.6,0,0.8,0.7,0.4,1.1l-4,3
				c-0.2,0.2-0.3,0.4-0.2,0.7l1.8,4.6c0.2,0.5-0.4,1-0.9,0.7l-4.2-2.8c-0.2-0.1-0.4-0.1-0.6,0l-3.5,1.7c-0.5,0.2-1-0.2-0.8-0.7
				l1-3.5c0.1-0.2,0-0.5-0.2-0.6l-3.2-2.8c-0.4-0.3-0.2-1,0.3-1l4.1-0.3C136.5,289,136.7,288.8,136.7,288.6z"/>
			<path class="st6" d="M136.7,226.8l2-4.8c0.2-0.5,0.9-0.5,1.1,0l1.5,4.7c0.1,0.2,0.3,0.4,0.6,0.4h4.5c0.6,0,0.8,0.7,0.4,1.1l-4,3
				c-0.2,0.2-0.3,0.4-0.2,0.7l1.8,4.6c0.2,0.5-0.4,1-0.9,0.7l-4.2-2.8c-0.2-0.1-0.4-0.1-0.6,0l-3.5,1.7c-0.5,0.2-1-0.2-0.8-0.7
				l1-3.5c0.1-0.2,0-0.5-0.2-0.6l-3.2-2.8c-0.4-0.3-0.2-1,0.3-1l4.1-0.3C136.5,227.1,136.7,227,136.7,226.8z"/>
			<path class="st6" d="M164.5,203.3l-2-4.8c-0.2-0.5-0.9-0.5-1.1,0l-1.5,4.7c-0.1,0.2-0.3,0.4-0.6,0.4h-4.5c-0.6,0-0.8,0.7-0.4,1.1
				l4,3c0.2,0.2,0.3,0.4,0.2,0.7L157,213c-0.2,0.5,0.4,1,0.9,0.7l4.2-2.8c0.2-0.1,0.4-0.1,0.6,0l3.5,1.7c0.5,0.2,1-0.2,0.8-0.7
				l-1-3.5c-0.1-0.2,0-0.5,0.2-0.6l3.2-2.8c0.4-0.3,0.2-1-0.3-1l-4.1-0.3C164.8,203.6,164.6,203.5,164.5,203.3z"/>
			<path class="st6" d="M133.4,257l-2-4.8c-0.2-0.5-0.9-0.5-1.1,0l-1.5,4.7c-0.1,0.2-0.3,0.4-0.6,0.4h-4.5c-0.6,0-0.8,0.7-0.4,1.1
				l4,3c0.2,0.2,0.3,0.4,0.2,0.7l-1.8,4.6c-0.2,0.5,0.4,1,0.9,0.7l4.2-2.8c0.2-0.1,0.4-0.1,0.6,0l3.5,1.7c0.5,0.2,1-0.2,0.8-0.7
				l-1-3.5c-0.1-0.2,0-0.5,0.2-0.6l3.2-2.8c0.4-0.3,0.2-1-0.3-1l-4.1-0.3C133.7,257.4,133.5,257.3,133.4,257z"/>
		</g>
		<g>
			<path class="st28" d="M323.9,447.4H44.1c-6.3,0-11.3-5.1-11.3-11.3V295.5c0-6.3,5.1-11.3,11.3-11.3h279.8
				c6.3,0,11.3,5.1,11.3,11.3V436C335.3,442.3,330.2,447.4,323.9,447.4z"/>
			<path class="st25" d="M185.3,435.3v-85.4c0-0.2,0.1-0.4,0.1-0.6c1.2-2.2,10.3-17.5,29.2-26c0.3-0.1,0.7-0.1,1,0
				c3.1,1.4,19.9,9.8,29.2,26.7c0.1,0.2,0.1,0.4,0.1,0.6v85.4c0,0.7-0.5,1.2-1.2,1.2l-57.4-0.6C185.8,436.4,185.3,435.9,185.3,435.3
				z"/>
			<path class="st27" d="M189.3,364.4c0,0,10.9-24.3,25.6-29.3c0.2-0.1,0.5-0.1,0.7,0c2.1,0.6,13,4.8,25.3,29.4"/>
			<path class="st26" d="M225.8,329.2v-10.9c0-0.2,0-0.3,0.1-0.5c0.8-1.9,7-15.3,24-21.9c0.3-0.1,0.6-0.1,0.9,0
				c2.8,1.3,17.2,8.4,22.6,21.3c0.1,0.1,0.1,0.3,0.1,0.5v118.1c0,0.7-0.5,1.2-1.2,1.2H245"/>
			<path class="st11" d="M128.4,297.5l0.6,8c0.1,0.9,1.1,1.4,1.8,0.9c3.4-2.2,11.2-6.2,14.1,1.2c3.4,8.8-14.2,24.4-17.1,26.9
				c-0.3,0.2-0.4,0.6-0.4,0.9v7.2c0,0.7,0.5,1.2,1.2,1.2h29.5c0.7,0,1.2-0.5,1.2-1.2v-7.1c0-0.7-0.5-1.2-1.2-1.2l-14-0.1
				c-1.1,0-1.6-1.3-0.8-2c5-4.7,16.4-16.9,13.8-28.1c-3.2-13.7-19.7-10.9-27.9-7.8C128.6,296.5,128.3,297,128.4,297.5z"/>
			<path class="st11" d="M195,320.1c-0.6-28.2-14-26.3-16.5-26.3c-4.2,0-15-0.6-16.1,25.3c-1.1,25.9,16.1,25,16.1,25
				S195.6,346.1,195,320.1z M183.5,318.8c0,17-3.8,17.1-4.5,17.1s-5.9,0.6-5.4-16.8c0.5-18,5.3-17.1,5.3-17.1
				S183.8,301.4,183.5,318.8z"/>
			<path class="st11" d="M61.6,409.6l0.3,3.7c0.1,0.9,1,1.4,1.8,0.9c2.3-1.3,6.3-3,7.9,1.1c2,5.2-8,14.2-10.2,16.1
				c-0.3,0.2-0.4,0.6-0.4,0.9v3.7c0,0.7,0.5,1.2,1.2,1.2H79c0.7,0,1.2-0.5,1.2-1.2v-3.4c0-0.7-0.5-1.2-1.2-1.2l-6.9-0.1
				c-1,0-1.6-1.3-0.8-2c3.3-3.3,9-10,7.5-16.2c-1.9-8.1-11.5-6.7-16.5-4.9C61.9,408.6,61.5,409.1,61.6,409.6z"/>
			<path class="st11" d="M101.8,422.9c-0.4-17.1-8.5-15.9-10-15.9c-2.5,0-9-0.4-9.7,15.3s9.7,15.1,9.7,15.1S102.2,438.6,101.8,422.9
				z M94.9,422.1c0,10.3-2.3,10.3-2.7,10.3c-0.4,0-3.6,0.4-3.3-10.2c0.3-10.9,3.2-10.4,3.2-10.4S95.1,411.6,94.9,422.1z"/>
			<path class="st11" d="M287.5,404L287.5,404c0.1,0.7,0.8,1.2,1.4,0.9c0.8-0.3,1.8-0.4,2.2,0.8c0.7,1.8-2.5,4.8-3.6,5.8
				c-0.2,0.2-0.4,0.5-0.4,0.8v0.5c0,0.6,0.5,1.1,1.1,1.1h5.1c0.6,0,1.1-0.5,1.1-1.1v0c0-0.6-0.5-1-1-1.1l-0.6,0
				c-0.9,0-1.4-1-0.8-1.7c1.1-1.3,2.3-3.3,1.9-5.1c-0.6-2.8-3.7-2.5-5.6-2C287.8,403,287.5,403.5,287.5,404z"/>
			<path class="st11" d="M298.8,402.5c-0.9,0-3.4-0.1-3.6,5.7s3.6,5.6,3.6,5.6s3.8,0.4,3.7-5.4C302.3,402.1,299.3,402.5,298.8,402.5
				z M298.9,412c-0.1,0-1.3,0.1-1.2-3.8c0.1-4,1.2-3.8,1.2-3.8s1.1-0.1,1,3.8C299.9,411.9,299,412,298.9,412z"/>
			<path class="st6" d="M191.7,300.9l2-4.8c0.2-0.5,0.9-0.5,1.1,0l1.5,4.7c0.1,0.2,0.3,0.4,0.6,0.4h4.5c0.6,0,0.8,0.7,0.4,1.1l-4,3
				c-0.2,0.2-0.3,0.4-0.2,0.7l1.8,4.6c0.2,0.5-0.4,1-0.9,0.7l-4.2-2.8c-0.2-0.1-0.4-0.1-0.6,0l-3.5,1.7c-0.5,0.2-1-0.2-0.8-0.7
				l1-3.5c0.1-0.2,0-0.5-0.2-0.6l-3.2-2.8c-0.4-0.3-0.2-1,0.3-1l4.1-0.3C191.4,301.3,191.6,301.1,191.7,300.9z"/>
			<path class="st6" d="M136.7,395.1l2-4.8c0.2-0.5,0.9-0.5,1.1,0l1.5,4.7c0.1,0.2,0.3,0.4,0.6,0.4h4.5c0.6,0,0.8,0.7,0.4,1.1l-4,3
				c-0.2,0.2-0.3,0.4-0.2,0.7l1.8,4.6c0.2,0.5-0.4,1-0.9,0.7l-4.2-2.8c-0.2-0.1-0.4-0.1-0.6,0l-3.5,1.7c-0.5,0.2-1-0.2-0.8-0.7
				l1-3.5c0.1-0.2,0-0.5-0.2-0.6l-3.2-2.8c-0.4-0.3-0.2-1,0.3-1l4.1-0.3C136.5,395.5,136.7,395.3,136.7,395.1z"/>
			<path class="st6" d="M136.7,333.3l2-4.8c0.2-0.5,0.9-0.5,1.1,0l1.5,4.7c0.1,0.2,0.3,0.4,0.6,0.4h4.5c0.6,0,0.8,0.7,0.4,1.1l-4,3
				c-0.2,0.2-0.3,0.4-0.2,0.7l1.8,4.6c0.2,0.5-0.4,1-0.9,0.7l-4.2-2.8c-0.2-0.1-0.4-0.1-0.6,0l-3.5,1.7c-0.5,0.2-1-0.2-0.8-0.7
				l1-3.5c0.1-0.2,0-0.5-0.2-0.6l-3.2-2.8c-0.4-0.3-0.2-1,0.3-1l4.1-0.3C136.5,333.7,136.7,333.5,136.7,333.3z"/>
			<path class="st6" d="M164.5,309.8l-2-4.8c-0.2-0.5-0.9-0.5-1.1,0l-1.5,4.7c-0.1,0.2-0.3,0.4-0.6,0.4h-4.5c-0.6,0-0.8,0.7-0.4,1.1
				l4,3c0.2,0.2,0.3,0.4,0.2,0.7l-1.8,4.6c-0.2,0.5,0.4,1,0.9,0.7l4.2-2.8c0.2-0.1,0.4-0.1,0.6,0l3.5,1.7c0.5,0.2,1-0.2,0.8-0.7
				l-1-3.5c-0.1-0.2,0-0.5,0.2-0.6l3.2-2.8c0.4-0.3,0.2-1-0.3-1l-4.1-0.3C164.8,310.2,164.6,310,164.5,309.8z"/>
			<path class="st6" d="M133.4,363.6l-2-4.8c-0.2-0.5-0.9-0.5-1.1,0l-1.5,4.7c-0.1,0.2-0.3,0.4-0.6,0.4h-4.5c-0.6,0-0.8,0.7-0.4,1.1
				l4,3c0.2,0.2,0.3,0.4,0.2,0.7l-1.8,4.6c-0.2,0.5,0.4,1,0.9,0.7l4.2-2.8c0.2-0.1,0.4-0.1,0.6,0l3.5,1.7c0.5,0.2,1-0.2,0.8-0.7
				l-1-3.5c-0.1-0.2,0-0.5,0.2-0.6l3.2-2.8c0.4-0.3,0.2-1-0.3-1l-4.1-0.3C133.7,363.9,133.5,363.8,133.4,363.6z"/>
		</g>
		<g>
			<path class="st28" d="M323.9,553.9H44.1c-6.3,0-11.3-5.1-11.3-11.3V402c0-6.3,5.1-11.3,11.3-11.3h279.8c6.3,0,11.3,5.1,11.3,11.3
				v140.5C335.3,548.8,330.2,553.9,323.9,553.9z"/>
			<path class="st25" d="M185.3,541.8v-85.4c0-0.2,0.1-0.4,0.1-0.6c1.2-2.2,10.3-17.5,29.2-26c0.3-0.1,0.7-0.1,1,0
				c3.1,1.4,19.9,9.8,29.2,26.7c0.1,0.2,0.1,0.4,0.1,0.6v85.4c0,0.7-0.5,1.2-1.2,1.2l-57.4-0.6C185.8,543,185.3,542.4,185.3,541.8z"
				/>
			<path class="st27" d="M189.3,470.9c0,0,10.9-24.3,25.6-29.3c0.2-0.1,0.5-0.1,0.7,0c2.1,0.6,13,4.8,25.3,29.4"/>
			<path class="st26" d="M225.8,435.7v-10.9c0-0.2,0-0.3,0.1-0.5c0.8-1.9,7-15.3,24-21.9c0.3-0.1,0.6-0.1,0.9,0
				c2.8,1.3,17.2,8.4,22.6,21.3c0.1,0.1,0.1,0.3,0.1,0.5v118.1c0,0.7-0.5,1.2-1.2,1.2H245"/>
			<path class="st11" d="M128.4,404.1l0.6,8c0.1,0.9,1.1,1.4,1.8,0.9c3.4-2.2,11.2-6.2,14.1,1.2c3.4,8.8-14.2,24.4-17.1,26.9
				c-0.3,0.2-0.4,0.6-0.4,0.9v7.2c0,0.7,0.5,1.2,1.2,1.2h29.5c0.7,0,1.2-0.5,1.2-1.2v-7.1c0-0.7-0.5-1.2-1.2-1.2l-14-0.1
				c-1.1,0-1.6-1.3-0.8-2c5-4.7,16.4-16.9,13.8-28.1c-3.2-13.7-19.7-10.9-27.9-7.8C128.6,403.1,128.3,403.5,128.4,404.1z"/>
			<path class="st11" d="M195,426.6c-0.6-28.2-14-26.3-16.5-26.3c-4.2,0-15-0.6-16.1,25.3c-1.1,25.9,16.1,25,16.1,25
				S195.6,452.6,195,426.6z M183.5,425.4c0,17-3.8,17.1-4.5,17.1s-5.9,0.6-5.4-16.8c0.5-18,5.3-17.1,5.3-17.1
				S183.8,407.9,183.5,425.4z"/>
			<path class="st11" d="M61.6,516.1l0.3,3.7c0.1,0.9,1,1.4,1.8,0.9c2.3-1.3,6.3-3,7.9,1.1c2,5.2-8,14.2-10.2,16.1
				c-0.3,0.2-0.4,0.6-0.4,0.9v3.7c0,0.7,0.5,1.2,1.2,1.2H79c0.7,0,1.2-0.5,1.2-1.2v-3.4c0-0.7-0.5-1.2-1.2-1.2l-6.9-0.1
				c-1,0-1.6-1.3-0.8-2c3.3-3.3,9-10,7.5-16.2c-1.9-8.1-11.5-6.7-16.5-4.9C61.9,515.1,61.5,515.6,61.6,516.1z"/>
			<path class="st11" d="M101.8,529.4c-0.4-17.1-8.5-15.9-10-15.9c-2.5,0-9-0.4-9.7,15.3s9.7,15.1,9.7,15.1S102.2,545.1,101.8,529.4
				z M94.9,528.7c0,10.3-2.3,10.3-2.7,10.3c-0.4,0-3.6,0.4-3.3-10.2c0.3-10.9,3.2-10.4,3.2-10.4S95.1,518.1,94.9,528.7z"/>
			<path class="st11" d="M287.5,510.5L287.5,510.5c0.1,0.7,0.8,1.2,1.4,0.9c0.8-0.3,1.8-0.4,2.2,0.8c0.7,1.8-2.5,4.8-3.6,5.8
				c-0.2,0.2-0.4,0.5-0.4,0.8v0.5c0,0.6,0.5,1.1,1.1,1.1h5.1c0.6,0,1.1-0.5,1.1-1.1v0c0-0.6-0.5-1-1-1.1l-0.6,0
				c-0.9,0-1.4-1-0.8-1.7c1.1-1.3,2.3-3.3,1.9-5.1c-0.6-2.8-3.7-2.5-5.6-2C287.8,509.5,287.5,510,287.5,510.5z"/>
			<path class="st11" d="M298.8,509c-0.9,0-3.4-0.1-3.6,5.7s3.6,5.6,3.6,5.6s3.8,0.4,3.7-5.4C302.3,508.6,299.3,509,298.8,509z
				 M298.9,518.5c-0.1,0-1.3,0.1-1.2-3.8c0.1-4,1.2-3.8,1.2-3.8s1.1-0.1,1,3.8C299.9,518.5,299,518.5,298.9,518.5z"/>
			<path class="st6" d="M191.7,407.4l2-4.8c0.2-0.5,0.9-0.5,1.1,0l1.5,4.7c0.1,0.2,0.3,0.4,0.6,0.4h4.5c0.6,0,0.8,0.7,0.4,1.1l-4,3
				c-0.2,0.2-0.3,0.4-0.2,0.7l1.8,4.6c0.2,0.5-0.4,1-0.9,0.7l-4.2-2.8c-0.2-0.1-0.4-0.1-0.6,0l-3.5,1.7c-0.5,0.2-1-0.2-0.8-0.7
				l1-3.5c0.1-0.2,0-0.5-0.2-0.6l-3.2-2.8c-0.4-0.3-0.2-1,0.3-1l4.1-0.3C191.4,407.8,191.6,407.7,191.7,407.4z"/>
			<path class="st6" d="M136.7,501.7l2-4.8c0.2-0.5,0.9-0.5,1.1,0l1.5,4.7c0.1,0.2,0.3,0.4,0.6,0.4h4.5c0.6,0,0.8,0.7,0.4,1.1l-4,3
				c-0.2,0.2-0.3,0.4-0.2,0.7l1.8,4.6c0.2,0.5-0.4,1-0.9,0.7l-4.2-2.8c-0.2-0.1-0.4-0.1-0.6,0l-3.5,1.7c-0.5,0.2-1-0.2-0.8-0.7
				l1-3.5c0.1-0.2,0-0.5-0.2-0.6l-3.2-2.8c-0.4-0.3-0.2-1,0.3-1l4.1-0.3C136.5,502,136.7,501.9,136.7,501.7z"/>
			<path class="st6" d="M136.7,439.8l2-4.8c0.2-0.5,0.9-0.5,1.1,0l1.5,4.7c0.1,0.2,0.3,0.4,0.6,0.4h4.5c0.6,0,0.8,0.7,0.4,1.1l-4,3
				c-0.2,0.2-0.3,0.4-0.2,0.7l1.8,4.6c0.2,0.5-0.4,1-0.9,0.7l-4.2-2.8c-0.2-0.1-0.4-0.1-0.6,0l-3.5,1.7c-0.5,0.2-1-0.2-0.8-0.7
				l1-3.5c0.1-0.2,0-0.5-0.2-0.6l-3.2-2.8c-0.4-0.3-0.2-1,0.3-1l4.1-0.3C136.5,440.2,136.7,440,136.7,439.8z"/>
			<path class="st6" d="M164.5,416.3l-2-4.8c-0.2-0.5-0.9-0.5-1.1,0l-1.5,4.7c-0.1,0.2-0.3,0.4-0.6,0.4h-4.5c-0.6,0-0.8,0.7-0.4,1.1
				l4,3c0.2,0.2,0.3,0.4,0.2,0.7L157,426c-0.2,0.5,0.4,1,0.9,0.7l4.2-2.8c0.2-0.1,0.4-0.1,0.6,0l3.5,1.7c0.5,0.2,1-0.2,0.8-0.7
				l-1-3.5c-0.1-0.2,0-0.5,0.2-0.6l3.2-2.8c0.4-0.3,0.2-1-0.3-1l-4.1-0.3C164.8,416.7,164.6,416.5,164.5,416.3z"/>
			<path class="st6" d="M133.4,470.1l-2-4.8c-0.2-0.5-0.9-0.5-1.1,0l-1.5,4.7c-0.1,0.2-0.3,0.4-0.6,0.4h-4.5c-0.6,0-0.8,0.7-0.4,1.1
				l4,3c0.2,0.2,0.3,0.4,0.2,0.7l-1.8,4.6c-0.2,0.5,0.4,1,0.9,0.7l4.2-2.8c0.2-0.1,0.4-0.1,0.6,0l3.5,1.7c0.5,0.2,1-0.2,0.8-0.7
				l-1-3.5c-0.1-0.2,0-0.5,0.2-0.6l3.2-2.8c0.4-0.3,0.2-1-0.3-1l-4.1-0.3C133.7,470.5,133.5,470.3,133.4,470.1z"/>
		</g>
		<g>
			<path class="st28" d="M323.9,660.4H44.1c-6.3,0-11.3-5.1-11.3-11.3V508.5c0-6.3,5.1-11.3,11.3-11.3h279.8
				c6.3,0,11.3,5.1,11.3,11.3v140.5C335.3,655.3,330.2,660.4,323.9,660.4z"/>
			<path class="st25" d="M185.3,648.3v-85.4c0-0.2,0.1-0.4,0.1-0.6c1.2-2.2,10.3-17.5,29.2-26c0.3-0.1,0.7-0.1,1,0
				c3.1,1.4,19.9,9.8,29.2,26.7c0.1,0.2,0.1,0.4,0.1,0.6v85.4c0,0.7-0.5,1.2-1.2,1.2l-57.4-0.6C185.8,649.5,185.3,649,185.3,648.3z"
				/>
			<path class="st27" d="M189.3,577.4c0,0,10.9-24.3,25.6-29.3c0.2-0.1,0.5-0.1,0.7,0c2.1,0.6,13,4.8,25.3,29.4"/>
			<path class="st26" d="M225.8,542.3v-10.9c0-0.2,0-0.3,0.1-0.5c0.8-1.9,7-15.3,24-21.9c0.3-0.1,0.6-0.1,0.9,0
				c2.8,1.3,17.2,8.4,22.6,21.3c0.1,0.1,0.1,0.3,0.1,0.5v118.1c0,0.7-0.5,1.2-1.2,1.2H245"/>
			<path class="st11" d="M128.4,510.6l0.6,8c0.1,0.9,1.1,1.4,1.8,0.9c3.4-2.2,11.2-6.2,14.1,1.2c3.4,8.8-14.2,24.4-17.1,26.9
				c-0.3,0.2-0.4,0.6-0.4,0.9v7.2c0,0.7,0.5,1.2,1.2,1.2h29.5c0.7,0,1.2-0.5,1.2-1.2v-7.1c0-0.7-0.5-1.2-1.2-1.2l-14-0.1
				c-1.1,0-1.6-1.3-0.8-2c5-4.7,16.4-16.9,13.8-28.1c-3.2-13.7-19.7-10.9-27.9-7.8C128.6,509.6,128.3,510.1,128.4,510.6z"/>
			<path class="st11" d="M195,533.1c-0.6-28.2-14-26.3-16.5-26.3c-4.2,0-15-0.6-16.1,25.3c-1.1,25.9,16.1,25,16.1,25
				S195.6,559.2,195,533.1z M183.5,531.9c0,17-3.8,17.1-4.5,17.1s-5.9,0.6-5.4-16.8c0.5-18,5.3-17.1,5.3-17.1
				S183.8,514.5,183.5,531.9z"/>
			<path class="st11" d="M61.6,622.7l0.3,3.7c0.1,0.9,1,1.4,1.8,0.9c2.3-1.3,6.3-3,7.9,1.1c2,5.2-8,14.2-10.2,16.1
				c-0.3,0.2-0.4,0.6-0.4,0.9v3.7c0,0.7,0.5,1.2,1.2,1.2H79c0.7,0,1.2-0.5,1.2-1.2v-3.4c0-0.7-0.5-1.2-1.2-1.2l-6.9-0.1
				c-1,0-1.6-1.3-0.8-2c3.3-3.3,9-10,7.5-16.2c-1.9-8.1-11.5-6.7-16.5-4.9C61.9,621.6,61.5,622.1,61.6,622.7z"/>
			<path class="st11" d="M101.8,635.9c-0.4-17.1-8.5-15.9-10-15.9c-2.5,0-9-0.4-9.7,15.3s9.7,15.1,9.7,15.1S102.2,651.7,101.8,635.9
				z M94.9,635.2c0,10.3-2.3,10.3-2.7,10.3c-0.4,0-3.6,0.4-3.3-10.2c0.3-10.9,3.2-10.4,3.2-10.4S95.1,624.6,94.9,635.2z"/>
			<path class="st11" d="M287.5,617L287.5,617c0.1,0.7,0.8,1.2,1.4,0.9c0.8-0.3,1.8-0.4,2.2,0.8c0.7,1.8-2.5,4.8-3.6,5.8
				c-0.2,0.2-0.4,0.5-0.4,0.8v0.5c0,0.6,0.5,1.1,1.1,1.1h5.1c0.6,0,1.1-0.5,1.1-1.1v0c0-0.6-0.5-1-1-1.1l-0.6,0
				c-0.9,0-1.4-1-0.8-1.7c1.1-1.3,2.3-3.3,1.9-5.1c-0.6-2.8-3.7-2.5-5.6-2C287.8,616.1,287.5,616.5,287.5,617z"/>
			<path class="st11" d="M298.8,615.6c-0.9,0-3.4-0.1-3.6,5.7s3.6,5.6,3.6,5.6s3.8,0.4,3.7-5.4C302.3,615.1,299.3,615.6,298.8,615.6
				z M298.9,625c-0.1,0-1.3,0.1-1.2-3.8c0.1-4,1.2-3.8,1.2-3.8s1.1-0.1,1,3.8C299.9,625,299,625,298.9,625z"/>
			<path class="st6" d="M191.7,514l2-4.8c0.2-0.5,0.9-0.5,1.1,0l1.5,4.7c0.1,0.2,0.3,0.4,0.6,0.4h4.5c0.6,0,0.8,0.7,0.4,1.1l-4,3
				c-0.2,0.2-0.3,0.4-0.2,0.7l1.8,4.6c0.2,0.5-0.4,1-0.9,0.7l-4.2-2.8c-0.2-0.1-0.4-0.1-0.6,0l-3.5,1.7c-0.5,0.2-1-0.2-0.8-0.7
				l1-3.5c0.1-0.2,0-0.5-0.2-0.6l-3.2-2.8c-0.4-0.3-0.2-1,0.3-1l4.1-0.3C191.4,514.3,191.6,514.2,191.7,514z"/>
			<path class="st6" d="M136.7,608.2l2-4.8c0.2-0.5,0.9-0.5,1.1,0l1.5,4.7c0.1,0.2,0.3,0.4,0.6,0.4h4.5c0.6,0,0.8,0.7,0.4,1.1l-4,3
				c-0.2,0.2-0.3,0.4-0.2,0.7l1.8,4.6c0.2,0.5-0.4,1-0.9,0.7l-4.2-2.8c-0.2-0.1-0.4-0.1-0.6,0l-3.5,1.7c-0.5,0.2-1-0.2-0.8-0.7
				l1-3.5c0.1-0.2,0-0.5-0.2-0.6l-3.2-2.8c-0.4-0.3-0.2-1,0.3-1l4.1-0.3C136.5,608.5,136.7,608.4,136.7,608.2z"/>
			<path class="st6" d="M136.7,546.4l2-4.8c0.2-0.5,0.9-0.5,1.1,0l1.5,4.7c0.1,0.2,0.3,0.4,0.6,0.4h4.5c0.6,0,0.8,0.7,0.4,1.1l-4,3
				c-0.2,0.2-0.3,0.4-0.2,0.7l1.8,4.6c0.2,0.5-0.4,1-0.9,0.7l-4.2-2.8c-0.2-0.1-0.4-0.1-0.6,0l-3.5,1.7c-0.5,0.2-1-0.2-0.8-0.7
				l1-3.5c0.1-0.2,0-0.5-0.2-0.6l-3.2-2.8c-0.4-0.3-0.2-1,0.3-1l4.1-0.3C136.5,546.7,136.7,546.6,136.7,546.4z"/>
			<path class="st6" d="M164.5,522.9l-2-4.8c-0.2-0.5-0.9-0.5-1.1,0l-1.5,4.7c-0.1,0.2-0.3,0.4-0.6,0.4h-4.5c-0.6,0-0.8,0.7-0.4,1.1
				l4,3c0.2,0.2,0.3,0.4,0.2,0.7l-1.8,4.6c-0.2,0.5,0.4,1,0.9,0.7l4.2-2.8c0.2-0.1,0.4-0.1,0.6,0l3.5,1.7c0.5,0.2,1-0.2,0.8-0.7
				l-1-3.5c-0.1-0.2,0-0.5,0.2-0.6l3.2-2.8c0.4-0.3,0.2-1-0.3-1l-4.1-0.3C164.8,523.2,164.6,523.1,164.5,522.9z"/>
			<path class="st6" d="M133.4,576.6l-2-4.8c-0.2-0.5-0.9-0.5-1.1,0l-1.5,4.7c-0.1,0.2-0.3,0.4-0.6,0.4h-4.5c-0.6,0-0.8,0.7-0.4,1.1
				l4,3c0.2,0.2,0.3,0.4,0.2,0.7l-1.8,4.6c-0.2,0.5,0.4,1,0.9,0.7l4.2-2.8c0.2-0.1,0.4-0.1,0.6,0l3.5,1.7c0.5,0.2,1-0.2,0.8-0.7
				l-1-3.5c-0.1-0.2,0-0.5,0.2-0.6l3.2-2.8c0.4-0.3,0.2-1-0.3-1l-4.1-0.3C133.7,577,133.5,576.8,133.4,576.6z"/>
		</g>
		<g>
			<path class="st28" d="M323.9,766.9H44.1c-6.3,0-11.3-5.1-11.3-11.3V615.1c0-6.3,5.1-11.3,11.3-11.3h279.8
				c6.3,0,11.3,5.1,11.3,11.3v140.5C335.3,761.9,330.2,766.9,323.9,766.9z"/>
			<path class="st25" d="M185.3,754.8v-85.4c0-0.2,0.1-0.4,0.1-0.6c1.2-2.2,10.3-17.5,29.2-26c0.3-0.1,0.7-0.1,1,0
				c3.1,1.4,19.9,9.8,29.2,26.7c0.1,0.2,0.1,0.4,0.1,0.6v85.4c0,0.7-0.5,1.2-1.2,1.2l-57.4-0.6C185.8,756,185.3,755.5,185.3,754.8z"
				/>
			<path class="st27" d="M189.3,683.9c0,0,10.9-24.3,25.6-29.3c0.2-0.1,0.5-0.1,0.7,0c2.1,0.6,13,4.8,25.3,29.4"/>
			<path class="st26" d="M225.8,648.8v-10.9c0-0.2,0-0.3,0.1-0.5c0.8-1.9,7-15.3,24-21.9c0.3-0.1,0.6-0.1,0.9,0
				c2.8,1.3,17.2,8.4,22.6,21.3c0.1,0.1,0.1,0.3,0.1,0.5v118.1c0,0.7-0.5,1.2-1.2,1.2H245"/>
			<path class="st11" d="M128.4,617.1l0.6,8c0.1,0.9,1.1,1.4,1.8,0.9c3.4-2.2,11.2-6.2,14.1,1.2c3.4,8.8-14.2,24.4-17.1,26.9
				c-0.3,0.2-0.4,0.6-0.4,0.9v7.2c0,0.7,0.5,1.2,1.2,1.2h29.5c0.7,0,1.2-0.5,1.2-1.2v-7.1c0-0.7-0.5-1.2-1.2-1.2l-14-0.1
				c-1.1,0-1.6-1.3-0.8-2c5-4.7,16.4-16.9,13.8-28.1c-3.2-13.7-19.7-10.9-27.9-7.8C128.6,616.1,128.3,616.6,128.4,617.1z"/>
			<path class="st11" d="M195,639.6c-0.6-28.2-14-26.3-16.5-26.3c-4.2,0-15-0.6-16.1,25.3c-1.1,25.9,16.1,25,16.1,25
				S195.6,665.7,195,639.6z M183.5,638.4c0,17-3.8,17.1-4.5,17.1s-5.9,0.6-5.4-16.8c0.5-18,5.3-17.1,5.3-17.1S183.8,621,183.5,638.4
				z"/>
			<path class="st11" d="M61.6,729.2l0.3,3.7c0.1,0.9,1,1.4,1.8,0.9c2.3-1.3,6.3-3,7.9,1.1c2,5.2-8,14.2-10.2,16.1
				c-0.3,0.2-0.4,0.6-0.4,0.9v3.7c0,0.7,0.5,1.2,1.2,1.2H79c0.7,0,1.2-0.5,1.2-1.2v-3.4c0-0.7-0.5-1.2-1.2-1.2l-6.9-0.1
				c-1,0-1.6-1.3-0.8-2c3.3-3.3,9-10,7.5-16.2c-1.9-8.1-11.5-6.7-16.5-4.9C61.9,728.2,61.5,728.7,61.6,729.2z"/>
			<path class="st11" d="M101.8,742.5c-0.4-17.1-8.5-15.9-10-15.9c-2.5,0-9-0.4-9.7,15.3s9.7,15.1,9.7,15.1S102.2,758.2,101.8,742.5
				z M94.9,741.7c0,10.3-2.3,10.3-2.7,10.3c-0.4,0-3.6,0.4-3.3-10.2c0.3-10.9,3.2-10.4,3.2-10.4S95.1,731.2,94.9,741.7z"/>
			<path class="st11" d="M287.5,723.5L287.5,723.5c0.1,0.7,0.8,1.2,1.4,0.9c0.8-0.3,1.8-0.4,2.2,0.8c0.7,1.8-2.5,4.8-3.6,5.8
				c-0.2,0.2-0.4,0.5-0.4,0.8v0.5c0,0.6,0.5,1.1,1.1,1.1h5.1c0.6,0,1.1-0.5,1.1-1.1v0c0-0.6-0.5-1-1-1.1l-0.6,0
				c-0.9,0-1.4-1-0.8-1.7c1.1-1.3,2.3-3.3,1.9-5.1c-0.6-2.8-3.7-2.5-5.6-2C287.8,722.6,287.5,723,287.5,723.5z"/>
			<path class="st11" d="M298.8,722.1c-0.9,0-3.4-0.1-3.6,5.7s3.6,5.6,3.6,5.6s3.8,0.4,3.7-5.4C302.3,721.7,299.3,722.1,298.8,722.1
				z M298.9,731.6c-0.1,0-1.3,0.1-1.2-3.8c0.1-4,1.2-3.8,1.2-3.8s1.1-0.1,1,3.8C299.9,731.5,299,731.6,298.9,731.6z"/>
			<path class="st6" d="M191.7,620.5l2-4.8c0.2-0.5,0.9-0.5,1.1,0l1.5,4.7c0.1,0.2,0.3,0.4,0.6,0.4h4.5c0.6,0,0.8,0.7,0.4,1.1l-4,3
				c-0.2,0.2-0.3,0.4-0.2,0.7l1.8,4.6c0.2,0.5-0.4,1-0.9,0.7l-4.2-2.8c-0.2-0.1-0.4-0.1-0.6,0l-3.5,1.7c-0.5,0.2-1-0.2-0.8-0.7
				l1-3.5c0.1-0.2,0-0.5-0.2-0.6l-3.2-2.8c-0.4-0.3-0.2-1,0.3-1l4.1-0.3C191.4,620.9,191.6,620.7,191.7,620.5z"/>
			<path class="st6" d="M136.7,714.7l2-4.8c0.2-0.5,0.9-0.5,1.1,0l1.5,4.7c0.1,0.2,0.3,0.4,0.6,0.4h4.5c0.6,0,0.8,0.7,0.4,1.1l-4,3
				c-0.2,0.2-0.3,0.4-0.2,0.7l1.8,4.6c0.2,0.5-0.4,1-0.9,0.7l-4.2-2.8c-0.2-0.1-0.4-0.1-0.6,0l-3.5,1.7c-0.5,0.2-1-0.2-0.8-0.7
				l1-3.5c0.1-0.2,0-0.5-0.2-0.6l-3.2-2.8c-0.4-0.3-0.2-1,0.3-1l4.1-0.3C136.5,715.1,136.7,714.9,136.7,714.7z"/>
			<path class="st6" d="M136.7,652.9l2-4.8c0.2-0.5,0.9-0.5,1.1,0l1.5,4.7c0.1,0.2,0.3,0.4,0.6,0.4h4.5c0.6,0,0.8,0.7,0.4,1.1l-4,3
				c-0.2,0.2-0.3,0.4-0.2,0.7l1.8,4.6c0.2,0.5-0.4,1-0.9,0.7l-4.2-2.8c-0.2-0.1-0.4-0.1-0.6,0l-3.5,1.7c-0.5,0.2-1-0.2-0.8-0.7
				l1-3.5c0.1-0.2,0-0.5-0.2-0.6l-3.2-2.8c-0.4-0.3-0.2-1,0.3-1l4.1-0.3C136.5,653.2,136.7,653.1,136.7,652.9z"/>
			<path class="st6" d="M164.5,629.4l-2-4.8c-0.2-0.5-0.9-0.5-1.1,0l-1.5,4.7c-0.1,0.2-0.3,0.4-0.6,0.4h-4.5c-0.6,0-0.8,0.7-0.4,1.1
				l4,3c0.2,0.2,0.3,0.4,0.2,0.7l-1.8,4.6c-0.2,0.5,0.4,1,0.9,0.7l4.2-2.8c0.2-0.1,0.4-0.1,0.6,0l3.5,1.7c0.5,0.2,1-0.2,0.8-0.7
				l-1-3.5c-0.1-0.2,0-0.5,0.2-0.6l3.2-2.8c0.4-0.3,0.2-1-0.3-1l-4.1-0.3C164.8,629.7,164.6,629.6,164.5,629.4z"/>
			<path class="st6" d="M133.4,683.2l-2-4.8c-0.2-0.5-0.9-0.5-1.1,0l-1.5,4.7c-0.1,0.2-0.3,0.4-0.6,0.4h-4.5c-0.6,0-0.8,0.7-0.4,1.1
				l4,3c0.2,0.2,0.3,0.4,0.2,0.7l-1.8,4.6c-0.2,0.5,0.4,1,0.9,0.7l4.2-2.8c0.2-0.1,0.4-0.1,0.6,0l3.5,1.7c0.5,0.2,1-0.2,0.8-0.7
				l-1-3.5c-0.1-0.2,0-0.5,0.2-0.6l3.2-2.8c0.4-0.3,0.2-1-0.3-1l-4.1-0.3C133.7,683.5,133.5,683.4,133.4,683.2z"/>
		</g>
	</g>
	<g>
		<g>
			<path class="st28" d="M1014,340.8H734.2c-6.3,0-11.3-5.1-11.3-11.3V188.9c0-6.3,5.1-11.3,11.3-11.3H1014
				c6.3,0,11.3,5.1,11.3,11.3v140.5C1025.3,335.7,1020.3,340.8,1014,340.8z"/>
			<path class="st25" d="M875.3,328.7v-85.4c0-0.2,0.1-0.4,0.1-0.6c1.2-2.2,10.3-17.5,29.2-26c0.3-0.1,0.7-0.1,1,0
				c3.1,1.4,19.9,9.8,29.2,26.7c0.1,0.2,0.1,0.4,0.1,0.6v85.4c0,0.7-0.5,1.2-1.2,1.2l-57.4-0.6C875.9,329.9,875.3,329.4,875.3,328.7
				z"/>
			<path class="st27" d="M879.3,257.8c0,0,10.9-24.3,25.6-29.3c0.2-0.1,0.5-0.1,0.7,0c2.1,0.6,13,4.8,25.3,29.4"/>
			<path class="st26" d="M915.9,222.7v-10.9c0-0.2,0-0.3,0.1-0.5c0.8-1.9,7-15.3,24-21.9c0.3-0.1,0.6-0.1,0.9,0
				c2.8,1.3,17.2,8.4,22.6,21.3c0.1,0.1,0.1,0.3,0.1,0.5v118.1c0,0.7-0.5,1.2-1.2,1.2h-27.2"/>
			<path class="st11" d="M818.4,191l0.6,8c0.1,0.9,1.1,1.4,1.8,0.9c3.4-2.2,11.2-6.2,14.1,1.2c3.4,8.8-14.2,24.4-17.1,26.9
				c-0.3,0.2-0.4,0.6-0.4,0.9v7.2c0,0.7,0.5,1.2,1.2,1.2h29.5c0.7,0,1.2-0.5,1.2-1.2v-7.1c0-0.7-0.5-1.2-1.2-1.2l-14-0.1
				c-1.1,0-1.6-1.3-0.8-2c5-4.7,16.4-16.9,13.8-28.1c-3.2-13.7-19.7-10.9-27.9-7.8C818.7,190,818.4,190.5,818.4,191z"/>
			<path class="st11" d="M885.1,213.5c-0.6-28.2-14-26.3-16.5-26.3c-4.2,0-15-0.6-16.1,25.3c-1.1,25.9,16.1,25,16.1,25
				S885.6,239.6,885.1,213.5z M873.5,212.3c0,17-3.8,17.1-4.5,17.1s-5.9,0.6-5.4-16.8c0.5-18,5.3-17.1,5.3-17.1
				S873.8,194.9,873.5,212.3z"/>
			<path class="st11" d="M751.6,303.1l0.3,3.7c0.1,0.9,1,1.4,1.8,0.9c2.3-1.3,6.3-3,7.9,1.1c2,5.2-8,14.2-10.2,16.1
				c-0.3,0.2-0.4,0.6-0.4,0.9v3.7c0,0.7,0.5,1.2,1.2,1.2h16.9c0.7,0,1.2-0.5,1.2-1.2v-3.4c0-0.7-0.5-1.2-1.2-1.2l-6.9-0.1
				c-1,0-1.6-1.3-0.8-2c3.3-3.3,9-10,7.5-16.2c-1.9-8.1-11.5-6.7-16.5-4.9C751.9,302.1,751.6,302.5,751.6,303.1z"/>
			<path class="st11" d="M791.9,316.3c-0.4-17.1-8.5-15.9-10-15.9c-2.5,0-9-0.4-9.7,15.3s9.7,15.1,9.7,15.1S792.2,332.1,791.9,316.3
				z M784.9,315.6c0,10.3-2.3,10.3-2.7,10.3c-0.4,0-3.6,0.4-3.3-10.2c0.3-10.9,3.2-10.4,3.2-10.4S785.1,305.1,784.9,315.6z"/>
			<path class="st11" d="M977.6,297.4L977.6,297.4c0.1,0.7,0.8,1.2,1.4,0.9c0.8-0.3,1.8-0.4,2.2,0.8c0.7,1.8-2.5,4.8-3.6,5.8
				c-0.2,0.2-0.4,0.5-0.4,0.8v0.5c0,0.6,0.5,1.1,1.1,1.1h5.1c0.6,0,1.1-0.5,1.1-1.1v0c0-0.6-0.5-1-1-1.1l-0.6,0
				c-0.9,0-1.4-1-0.8-1.7c1.1-1.3,2.3-3.3,1.9-5.1c-0.6-2.8-3.7-2.5-5.6-2C977.9,296.5,977.6,296.9,977.6,297.4z"/>
			<path class="st11" d="M988.8,296c-0.9,0-3.4-0.1-3.6,5.7s3.6,5.6,3.6,5.6s3.8,0.4,3.7-5.4C992.4,295.5,989.4,296,988.8,296z
				 M988.9,305.4c-0.1,0-1.3,0.1-1.2-3.8c0.1-4,1.2-3.8,1.2-3.8s1.1-0.1,1,3.8C989.9,305.4,989.1,305.4,988.9,305.4z"/>
			<path class="st6" d="M881.8,194.4l2-4.8c0.2-0.5,0.9-0.5,1.1,0l1.5,4.7c0.1,0.2,0.3,0.4,0.6,0.4h4.5c0.6,0,0.8,0.7,0.4,1.1l-4,3
				c-0.2,0.2-0.3,0.4-0.2,0.7l1.8,4.6c0.2,0.5-0.4,1-0.9,0.7l-4.2-2.8c-0.2-0.1-0.4-0.1-0.6,0l-3.5,1.7c-0.5,0.2-1-0.2-0.8-0.7
				l1-3.5c0.1-0.2,0-0.5-0.2-0.6l-3.2-2.8c-0.4-0.3-0.2-1,0.3-1l4.1-0.3C881.5,194.7,881.7,194.6,881.8,194.4z"/>
			<path class="st6" d="M826.8,288.6l2-4.8c0.2-0.5,0.9-0.5,1.1,0l1.5,4.7c0.1,0.2,0.3,0.4,0.6,0.4h4.5c0.6,0,0.8,0.7,0.4,1.1l-4,3
				c-0.2,0.2-0.3,0.4-0.2,0.7l1.8,4.6c0.2,0.5-0.4,1-0.9,0.7l-4.2-2.8c-0.2-0.1-0.4-0.1-0.6,0l-3.5,1.7c-0.5,0.2-1-0.2-0.8-0.7
				l1-3.5c0.1-0.2,0-0.5-0.2-0.6l-3.2-2.8c-0.4-0.3-0.2-1,0.3-1l4.1-0.3C826.5,289,826.7,288.8,826.8,288.6z"/>
			<path class="st6" d="M826.8,226.8l2-4.8c0.2-0.5,0.9-0.5,1.1,0l1.5,4.7c0.1,0.2,0.3,0.4,0.6,0.4h4.5c0.6,0,0.8,0.7,0.4,1.1l-4,3
				c-0.2,0.2-0.3,0.4-0.2,0.7l1.8,4.6c0.2,0.5-0.4,1-0.9,0.7l-4.2-2.8c-0.2-0.1-0.4-0.1-0.6,0l-3.5,1.7c-0.5,0.2-1-0.2-0.8-0.7
				l1-3.5c0.1-0.2,0-0.5-0.2-0.6l-3.2-2.8c-0.4-0.3-0.2-1,0.3-1l4.1-0.3C826.5,227.1,826.7,227,826.8,226.8z"/>
			<path class="st6" d="M854.6,203.3l-2-4.8c-0.2-0.5-0.9-0.5-1.1,0l-1.5,4.7c-0.1,0.2-0.3,0.4-0.6,0.4H845c-0.6,0-0.8,0.7-0.4,1.1
				l4,3c0.2,0.2,0.3,0.4,0.2,0.7L847,213c-0.2,0.5,0.4,1,0.9,0.7l4.2-2.8c0.2-0.1,0.4-0.1,0.6,0l3.5,1.7c0.5,0.2,1-0.2,0.8-0.7
				l-1-3.5c-0.1-0.2,0-0.5,0.2-0.6l3.2-2.8c0.4-0.3,0.2-1-0.3-1l-4.1-0.3C854.8,203.6,854.6,203.5,854.6,203.3z"/>
			<path class="st6" d="M823.5,257l-2-4.8c-0.2-0.5-0.9-0.5-1.1,0L819,257c-0.1,0.2-0.3,0.4-0.6,0.4h-4.5c-0.6,0-0.8,0.7-0.4,1.1
				l4,3c0.2,0.2,0.3,0.4,0.2,0.7l-1.8,4.6c-0.2,0.5,0.4,1,0.9,0.7l4.2-2.8c0.2-0.1,0.4-0.1,0.6,0l3.5,1.7c0.5,0.2,1-0.2,0.8-0.7
				l-1-3.5c-0.1-0.2,0-0.5,0.2-0.6l3.2-2.8c0.4-0.3,0.2-1-0.3-1l-4.1-0.3C823.8,257.4,823.6,257.3,823.5,257z"/>
		</g>
		<g>
			<path class="st28" d="M1014,447.4H734.2c-6.3,0-11.3-5.1-11.3-11.3V295.5c0-6.3,5.1-11.3,11.3-11.3H1014
				c6.3,0,11.3,5.1,11.3,11.3V436C1025.3,442.3,1020.3,447.4,1014,447.4z"/>
			<path class="st25" d="M875.3,435.3v-85.4c0-0.2,0.1-0.4,0.1-0.6c1.2-2.2,10.3-17.5,29.2-26c0.3-0.1,0.7-0.1,1,0
				c3.1,1.4,19.9,9.8,29.2,26.7c0.1,0.2,0.1,0.4,0.1,0.6v85.4c0,0.7-0.5,1.2-1.2,1.2l-57.4-0.6C875.9,436.4,875.3,435.9,875.3,435.3
				z"/>
			<path class="st27" d="M879.3,364.4c0,0,10.9-24.3,25.6-29.3c0.2-0.1,0.5-0.1,0.7,0c2.1,0.6,13,4.8,25.3,29.4"/>
			<path class="st26" d="M915.9,329.2v-10.9c0-0.2,0-0.3,0.1-0.5c0.8-1.9,7-15.3,24-21.9c0.3-0.1,0.6-0.1,0.9,0
				c2.8,1.3,17.2,8.4,22.6,21.3c0.1,0.1,0.1,0.3,0.1,0.5v118.1c0,0.7-0.5,1.2-1.2,1.2h-27.2"/>
			<path class="st11" d="M818.4,297.5l0.6,8c0.1,0.9,1.1,1.4,1.8,0.9c3.4-2.2,11.2-6.2,14.1,1.2c3.4,8.8-14.2,24.4-17.1,26.9
				c-0.3,0.2-0.4,0.6-0.4,0.9v7.2c0,0.7,0.5,1.2,1.2,1.2h29.5c0.7,0,1.2-0.5,1.2-1.2v-7.1c0-0.7-0.5-1.2-1.2-1.2l-14-0.1
				c-1.1,0-1.6-1.3-0.8-2c5-4.7,16.4-16.9,13.8-28.1c-3.2-13.7-19.7-10.9-27.9-7.8C818.7,296.5,818.4,297,818.4,297.5z"/>
			<path class="st11" d="M885.1,320.1c-0.6-28.2-14-26.3-16.5-26.3c-4.2,0-15-0.6-16.1,25.3c-1.1,25.9,16.1,25,16.1,25
				S885.6,346.1,885.1,320.1z M873.5,318.8c0,17-3.8,17.1-4.5,17.1s-5.9,0.6-5.4-16.8c0.5-18,5.3-17.1,5.3-17.1
				S873.8,301.4,873.5,318.8z"/>
			<path class="st11" d="M751.6,409.6l0.3,3.7c0.1,0.9,1,1.4,1.8,0.9c2.3-1.3,6.3-3,7.9,1.1c2,5.2-8,14.2-10.2,16.1
				c-0.3,0.2-0.4,0.6-0.4,0.9v3.7c0,0.7,0.5,1.2,1.2,1.2h16.9c0.7,0,1.2-0.5,1.2-1.2v-3.4c0-0.7-0.5-1.2-1.2-1.2l-6.9-0.1
				c-1,0-1.6-1.3-0.8-2c3.3-3.3,9-10,7.5-16.2c-1.9-8.1-11.5-6.7-16.5-4.9C751.9,408.6,751.6,409.1,751.6,409.6z"/>
			<path class="st11" d="M791.9,422.9c-0.4-17.1-8.5-15.9-10-15.9c-2.5,0-9-0.4-9.7,15.3s9.7,15.1,9.7,15.1S792.2,438.6,791.9,422.9
				z M784.9,422.1c0,10.3-2.3,10.3-2.7,10.3c-0.4,0-3.6,0.4-3.3-10.2c0.3-10.9,3.2-10.4,3.2-10.4S785.1,411.6,784.9,422.1z"/>
			<path class="st11" d="M977.6,404L977.6,404c0.1,0.7,0.8,1.2,1.4,0.9c0.8-0.3,1.8-0.4,2.2,0.8c0.7,1.8-2.5,4.8-3.6,5.8
				c-0.2,0.2-0.4,0.5-0.4,0.8v0.5c0,0.6,0.5,1.1,1.1,1.1h5.1c0.6,0,1.1-0.5,1.1-1.1v0c0-0.6-0.5-1-1-1.1l-0.6,0
				c-0.9,0-1.4-1-0.8-1.7c1.1-1.3,2.3-3.3,1.9-5.1c-0.6-2.8-3.7-2.5-5.6-2C977.9,403,977.6,403.5,977.6,404z"/>
			<path class="st11" d="M988.8,402.5c-0.9,0-3.4-0.1-3.6,5.7s3.6,5.6,3.6,5.6s3.8,0.4,3.7-5.4C992.4,402.1,989.4,402.5,988.8,402.5
				z M988.9,412c-0.1,0-1.3,0.1-1.2-3.8c0.1-4,1.2-3.8,1.2-3.8s1.1-0.1,1,3.8C989.9,411.9,989.1,412,988.9,412z"/>
			<path class="st6" d="M881.8,300.9l2-4.8c0.2-0.5,0.9-0.5,1.1,0l1.5,4.7c0.1,0.2,0.3,0.4,0.6,0.4h4.5c0.6,0,0.8,0.7,0.4,1.1l-4,3
				c-0.2,0.2-0.3,0.4-0.2,0.7l1.8,4.6c0.2,0.5-0.4,1-0.9,0.7l-4.2-2.8c-0.2-0.1-0.4-0.1-0.6,0l-3.5,1.7c-0.5,0.2-1-0.2-0.8-0.7
				l1-3.5c0.1-0.2,0-0.5-0.2-0.6l-3.2-2.8c-0.4-0.3-0.2-1,0.3-1l4.1-0.3C881.5,301.3,881.7,301.1,881.8,300.9z"/>
			<path class="st6" d="M826.8,395.1l2-4.8c0.2-0.5,0.9-0.5,1.1,0l1.5,4.7c0.1,0.2,0.3,0.4,0.6,0.4h4.5c0.6,0,0.8,0.7,0.4,1.1l-4,3
				c-0.2,0.2-0.3,0.4-0.2,0.7l1.8,4.6c0.2,0.5-0.4,1-0.9,0.7l-4.2-2.8c-0.2-0.1-0.4-0.1-0.6,0l-3.5,1.7c-0.5,0.2-1-0.2-0.8-0.7
				l1-3.5c0.1-0.2,0-0.5-0.2-0.6l-3.2-2.8c-0.4-0.3-0.2-1,0.3-1l4.1-0.3C826.5,395.5,826.7,395.3,826.8,395.1z"/>
			<path class="st6" d="M826.8,333.3l2-4.8c0.2-0.5,0.9-0.5,1.1,0l1.5,4.7c0.1,0.2,0.3,0.4,0.6,0.4h4.5c0.6,0,0.8,0.7,0.4,1.1l-4,3
				c-0.2,0.2-0.3,0.4-0.2,0.7l1.8,4.6c0.2,0.5-0.4,1-0.9,0.7l-4.2-2.8c-0.2-0.1-0.4-0.1-0.6,0l-3.5,1.7c-0.5,0.2-1-0.2-0.8-0.7
				l1-3.5c0.1-0.2,0-0.5-0.2-0.6l-3.2-2.8c-0.4-0.3-0.2-1,0.3-1l4.1-0.3C826.5,333.7,826.7,333.5,826.8,333.3z"/>
			<path class="st6" d="M854.6,309.8l-2-4.8c-0.2-0.5-0.9-0.5-1.1,0l-1.5,4.7c-0.1,0.2-0.3,0.4-0.6,0.4H845c-0.6,0-0.8,0.7-0.4,1.1
				l4,3c0.2,0.2,0.3,0.4,0.2,0.7l-1.8,4.6c-0.2,0.5,0.4,1,0.9,0.7l4.2-2.8c0.2-0.1,0.4-0.1,0.6,0l3.5,1.7c0.5,0.2,1-0.2,0.8-0.7
				l-1-3.5c-0.1-0.2,0-0.5,0.2-0.6l3.2-2.8c0.4-0.3,0.2-1-0.3-1l-4.1-0.3C854.8,310.2,854.6,310,854.6,309.8z"/>
			<path class="st6" d="M823.5,363.6l-2-4.8c-0.2-0.5-0.9-0.5-1.1,0l-1.5,4.7c-0.1,0.2-0.3,0.4-0.6,0.4h-4.5c-0.6,0-0.8,0.7-0.4,1.1
				l4,3c0.2,0.2,0.3,0.4,0.2,0.7l-1.8,4.6c-0.2,0.5,0.4,1,0.9,0.7l4.2-2.8c0.2-0.1,0.4-0.1,0.6,0l3.5,1.7c0.5,0.2,1-0.2,0.8-0.7
				l-1-3.5c-0.1-0.2,0-0.5,0.2-0.6l3.2-2.8c0.4-0.3,0.2-1-0.3-1l-4.1-0.3C823.8,363.9,823.6,363.8,823.5,363.6z"/>
		</g>
		<g>
			<path class="st29" d="M1014,553.9H734.2c-6.3,0-11.3-5.1-11.3-11.3V402c0-6.3,5.1-11.3,11.3-11.3H1014c6.3,0,11.3,5.1,11.3,11.3
				v140.5C1025.3,548.8,1020.3,553.9,1014,553.9z"/>
			<path class="st25" d="M875.3,541.8v-85.4c0-0.2,0.1-0.4,0.1-0.6c1.2-2.2,10.3-17.5,29.2-26c0.3-0.1,0.7-0.1,1,0
				c3.1,1.4,19.9,9.8,29.2,26.7c0.1,0.2,0.1,0.4,0.1,0.6v85.4c0,0.7-0.5,1.2-1.2,1.2l-57.4-0.6C875.9,543,875.3,542.4,875.3,541.8z"
				/>
			<path class="st27" d="M879.3,470.9c0,0,10.9-24.3,25.6-29.3c0.2-0.1,0.5-0.1,0.7,0c2.1,0.6,13,4.8,25.3,29.4"/>
			<path class="st26" d="M915.9,435.7v-10.9c0-0.2,0-0.3,0.1-0.5c0.8-1.9,7-15.3,24-21.9c0.3-0.1,0.6-0.1,0.9,0
				c2.8,1.3,17.2,8.4,22.6,21.3c0.1,0.1,0.1,0.3,0.1,0.5v118.1c0,0.7-0.5,1.2-1.2,1.2h-27.2"/>
			<path class="st11" d="M818.4,404.1l0.6,8c0.1,0.9,1.1,1.4,1.8,0.9c3.4-2.2,11.2-6.2,14.1,1.2c3.4,8.8-14.2,24.4-17.1,26.9
				c-0.3,0.2-0.4,0.6-0.4,0.9v7.2c0,0.7,0.5,1.2,1.2,1.2h29.5c0.7,0,1.2-0.5,1.2-1.2v-7.1c0-0.7-0.5-1.2-1.2-1.2l-14-0.1
				c-1.1,0-1.6-1.3-0.8-2c5-4.7,16.4-16.9,13.8-28.1c-3.2-13.7-19.7-10.9-27.9-7.8C818.7,403.1,818.4,403.5,818.4,404.1z"/>
			<path class="st11" d="M885.1,426.6c-0.6-28.2-14-26.3-16.5-26.3c-4.2,0-15-0.6-16.1,25.3c-1.1,25.9,16.1,25,16.1,25
				S885.6,452.6,885.1,426.6z M873.5,425.4c0,17-3.8,17.1-4.5,17.1s-5.9,0.6-5.4-16.8c0.5-18,5.3-17.1,5.3-17.1
				S873.8,407.9,873.5,425.4z"/>
			<path class="st11" d="M751.6,516.1l0.3,3.7c0.1,0.9,1,1.4,1.8,0.9c2.3-1.3,6.3-3,7.9,1.1c2,5.2-8,14.2-10.2,16.1
				c-0.3,0.2-0.4,0.6-0.4,0.9v3.7c0,0.7,0.5,1.2,1.2,1.2h16.9c0.7,0,1.2-0.5,1.2-1.2v-3.4c0-0.7-0.5-1.2-1.2-1.2l-6.9-0.1
				c-1,0-1.6-1.3-0.8-2c3.3-3.3,9-10,7.5-16.2c-1.9-8.1-11.5-6.7-16.5-4.9C751.9,515.1,751.6,515.6,751.6,516.1z"/>
			<path class="st11" d="M791.9,529.4c-0.4-17.1-8.5-15.9-10-15.9c-2.5,0-9-0.4-9.7,15.3s9.7,15.1,9.7,15.1S792.2,545.1,791.9,529.4
				z M784.9,528.7c0,10.3-2.3,10.3-2.7,10.3c-0.4,0-3.6,0.4-3.3-10.2c0.3-10.9,3.2-10.4,3.2-10.4S785.1,518.1,784.9,528.7z"/>
			<path class="st11" d="M977.6,510.5L977.6,510.5c0.1,0.7,0.8,1.2,1.4,0.9c0.8-0.3,1.8-0.4,2.2,0.8c0.7,1.8-2.5,4.8-3.6,5.8
				c-0.2,0.2-0.4,0.5-0.4,0.8v0.5c0,0.6,0.5,1.1,1.1,1.1h5.1c0.6,0,1.1-0.5,1.1-1.1v0c0-0.6-0.5-1-1-1.1l-0.6,0
				c-0.9,0-1.4-1-0.8-1.7c1.1-1.3,2.3-3.3,1.9-5.1c-0.6-2.8-3.7-2.5-5.6-2C977.9,509.5,977.6,510,977.6,510.5z"/>
			<path class="st11" d="M988.8,509c-0.9,0-3.4-0.1-3.6,5.7c-0.3,5.8,3.6,5.6,3.6,5.6s3.8,0.4,3.7-5.4
				C992.4,508.6,989.4,509,988.8,509z M988.9,518.5c-0.1,0-1.3,0.1-1.2-3.8c0.1-4,1.2-3.8,1.2-3.8s1.1-0.1,1,3.8
				C989.9,518.5,989.1,518.5,988.9,518.5z"/>
			<path class="st6" d="M881.8,407.4l2-4.8c0.2-0.5,0.9-0.5,1.1,0l1.5,4.7c0.1,0.2,0.3,0.4,0.6,0.4h4.5c0.6,0,0.8,0.7,0.4,1.1l-4,3
				c-0.2,0.2-0.3,0.4-0.2,0.7l1.8,4.6c0.2,0.5-0.4,1-0.9,0.7l-4.2-2.8c-0.2-0.1-0.4-0.1-0.6,0l-3.5,1.7c-0.5,0.2-1-0.2-0.8-0.7
				l1-3.5c0.1-0.2,0-0.5-0.2-0.6l-3.2-2.8c-0.4-0.3-0.2-1,0.3-1l4.1-0.3C881.5,407.8,881.7,407.7,881.8,407.4z"/>
			<path class="st6" d="M826.8,501.7l2-4.8c0.2-0.5,0.9-0.5,1.1,0l1.5,4.7c0.1,0.2,0.3,0.4,0.6,0.4h4.5c0.6,0,0.8,0.7,0.4,1.1l-4,3
				c-0.2,0.2-0.3,0.4-0.2,0.7l1.8,4.6c0.2,0.5-0.4,1-0.9,0.7l-4.2-2.8c-0.2-0.1-0.4-0.1-0.6,0l-3.5,1.7c-0.5,0.2-1-0.2-0.8-0.7
				l1-3.5c0.1-0.2,0-0.5-0.2-0.6l-3.2-2.8c-0.4-0.3-0.2-1,0.3-1l4.1-0.3C826.5,502,826.7,501.9,826.8,501.7z"/>
			<path class="st6" d="M826.8,439.8l2-4.8c0.2-0.5,0.9-0.5,1.1,0l1.5,4.7c0.1,0.2,0.3,0.4,0.6,0.4h4.5c0.6,0,0.8,0.7,0.4,1.1l-4,3
				c-0.2,0.2-0.3,0.4-0.2,0.7l1.8,4.6c0.2,0.5-0.4,1-0.9,0.7l-4.2-2.8c-0.2-0.1-0.4-0.1-0.6,0l-3.5,1.7c-0.5,0.2-1-0.2-0.8-0.7
				l1-3.5c0.1-0.2,0-0.5-0.2-0.6l-3.2-2.8c-0.4-0.3-0.2-1,0.3-1l4.1-0.3C826.5,440.2,826.7,440,826.8,439.8z"/>
			<path class="st6" d="M854.6,416.3l-2-4.8c-0.2-0.5-0.9-0.5-1.1,0l-1.5,4.7c-0.1,0.2-0.3,0.4-0.6,0.4H845c-0.6,0-0.8,0.7-0.4,1.1
				l4,3c0.2,0.2,0.3,0.4,0.2,0.7L847,426c-0.2,0.5,0.4,1,0.9,0.7l4.2-2.8c0.2-0.1,0.4-0.1,0.6,0l3.5,1.7c0.5,0.2,1-0.2,0.8-0.7
				l-1-3.5c-0.1-0.2,0-0.5,0.2-0.6l3.2-2.8c0.4-0.3,0.2-1-0.3-1l-4.1-0.3C854.8,416.7,854.6,416.5,854.6,416.3z"/>
			<path class="st6" d="M823.5,470.1l-2-4.8c-0.2-0.5-0.9-0.5-1.1,0L819,470c-0.1,0.2-0.3,0.4-0.6,0.4h-4.5c-0.6,0-0.8,0.7-0.4,1.1
				l4,3c0.2,0.2,0.3,0.4,0.2,0.7l-1.8,4.6c-0.2,0.5,0.4,1,0.9,0.7l4.2-2.8c0.2-0.1,0.4-0.1,0.6,0l3.5,1.7c0.5,0.2,1-0.2,0.8-0.7
				l-1-3.5c-0.1-0.2,0-0.5,0.2-0.6l3.2-2.8c0.4-0.3,0.2-1-0.3-1l-4.1-0.3C823.8,470.5,823.6,470.3,823.5,470.1z"/>
		</g>
		<g>
			<path class="st29" d="M1014,660.4H734.2c-6.3,0-11.3-5.1-11.3-11.3V508.5c0-6.3,5.1-11.3,11.3-11.3H1014
				c6.3,0,11.3,5.1,11.3,11.3v140.5C1025.3,655.3,1020.3,660.4,1014,660.4z"/>
			<path class="st25" d="M875.3,648.3v-85.4c0-0.2,0.1-0.4,0.1-0.6c1.2-2.2,10.3-17.5,29.2-26c0.3-0.1,0.7-0.1,1,0
				c3.1,1.4,19.9,9.8,29.2,26.7c0.1,0.2,0.1,0.4,0.1,0.6v85.4c0,0.7-0.5,1.2-1.2,1.2l-57.4-0.6C875.9,649.5,875.3,649,875.3,648.3z"
				/>
			<path class="st27" d="M879.3,577.4c0,0,10.9-24.3,25.6-29.3c0.2-0.1,0.5-0.1,0.7,0c2.1,0.6,13,4.8,25.3,29.4"/>
			<path class="st26" d="M915.9,542.3v-10.9c0-0.2,0-0.3,0.1-0.5c0.8-1.9,7-15.3,24-21.9c0.3-0.1,0.6-0.1,0.9,0
				c2.8,1.3,17.2,8.4,22.6,21.3c0.1,0.1,0.1,0.3,0.1,0.5v118.1c0,0.7-0.5,1.2-1.2,1.2h-27.2"/>
			<path class="st11" d="M818.4,510.6l0.6,8c0.1,0.9,1.1,1.4,1.8,0.9c3.4-2.2,11.2-6.2,14.1,1.2c3.4,8.8-14.2,24.4-17.1,26.9
				c-0.3,0.2-0.4,0.6-0.4,0.9v7.2c0,0.7,0.5,1.2,1.2,1.2h29.5c0.7,0,1.2-0.5,1.2-1.2v-7.1c0-0.7-0.5-1.2-1.2-1.2l-14-0.1
				c-1.1,0-1.6-1.3-0.8-2c5-4.7,16.4-16.9,13.8-28.1c-3.2-13.7-19.7-10.9-27.9-7.8C818.7,509.6,818.4,510.1,818.4,510.6z"/>
			<path class="st11" d="M885.1,533.1c-0.6-28.2-14-26.3-16.5-26.3c-4.2,0-15-0.6-16.1,25.3c-1.1,25.9,16.1,25,16.1,25
				S885.6,559.2,885.1,533.1z M873.5,531.9c0,17-3.8,17.1-4.5,17.1s-5.9,0.6-5.4-16.8c0.5-18,5.3-17.1,5.3-17.1
				S873.8,514.5,873.5,531.9z"/>
			<path class="st11" d="M751.6,622.7l0.3,3.7c0.1,0.9,1,1.4,1.8,0.9c2.3-1.3,6.3-3,7.9,1.1c2,5.2-8,14.2-10.2,16.1
				c-0.3,0.2-0.4,0.6-0.4,0.9v3.7c0,0.7,0.5,1.2,1.2,1.2h16.9c0.7,0,1.2-0.5,1.2-1.2v-3.4c0-0.7-0.5-1.2-1.2-1.2l-6.9-0.1
				c-1,0-1.6-1.3-0.8-2c3.3-3.3,9-10,7.5-16.2c-1.9-8.1-11.5-6.7-16.5-4.9C751.9,621.6,751.6,622.1,751.6,622.7z"/>
			<path class="st11" d="M791.9,635.9c-0.4-17.1-8.5-15.9-10-15.9c-2.5,0-9-0.4-9.7,15.3s9.7,15.1,9.7,15.1S792.2,651.7,791.9,635.9
				z M784.9,635.2c0,10.3-2.3,10.3-2.7,10.3c-0.4,0-3.6,0.4-3.3-10.2c0.3-10.9,3.2-10.4,3.2-10.4S785.1,624.6,784.9,635.2z"/>
			<path class="st11" d="M977.6,617L977.6,617c0.1,0.7,0.8,1.2,1.4,0.9c0.8-0.3,1.8-0.4,2.2,0.8c0.7,1.8-2.5,4.8-3.6,5.8
				c-0.2,0.2-0.4,0.5-0.4,0.8v0.5c0,0.6,0.5,1.1,1.1,1.1h5.1c0.6,0,1.1-0.5,1.1-1.1v0c0-0.6-0.5-1-1-1.1l-0.6,0
				c-0.9,0-1.4-1-0.8-1.7c1.1-1.3,2.3-3.3,1.9-5.1c-0.6-2.8-3.7-2.5-5.6-2C977.9,616.1,977.6,616.5,977.6,617z"/>
			<path class="st11" d="M988.8,615.6c-0.9,0-3.4-0.1-3.6,5.7s3.6,5.6,3.6,5.6s3.8,0.4,3.7-5.4C992.4,615.1,989.4,615.6,988.8,615.6
				z M988.9,625c-0.1,0-1.3,0.1-1.2-3.8c0.1-4,1.2-3.8,1.2-3.8s1.1-0.1,1,3.8C989.9,625,989.1,625,988.9,625z"/>
			<path class="st6" d="M881.8,514l2-4.8c0.2-0.5,0.9-0.5,1.1,0l1.5,4.7c0.1,0.2,0.3,0.4,0.6,0.4h4.5c0.6,0,0.8,0.7,0.4,1.1l-4,3
				c-0.2,0.2-0.3,0.4-0.2,0.7l1.8,4.6c0.2,0.5-0.4,1-0.9,0.7l-4.2-2.8c-0.2-0.1-0.4-0.1-0.6,0l-3.5,1.7c-0.5,0.2-1-0.2-0.8-0.7
				l1-3.5c0.1-0.2,0-0.5-0.2-0.6l-3.2-2.8c-0.4-0.3-0.2-1,0.3-1l4.1-0.3C881.5,514.3,881.7,514.2,881.8,514z"/>
			<path class="st6" d="M826.8,608.2l2-4.8c0.2-0.5,0.9-0.5,1.1,0l1.5,4.7c0.1,0.2,0.3,0.4,0.6,0.4h4.5c0.6,0,0.8,0.7,0.4,1.1l-4,3
				c-0.2,0.2-0.3,0.4-0.2,0.7l1.8,4.6c0.2,0.5-0.4,1-0.9,0.7l-4.2-2.8c-0.2-0.1-0.4-0.1-0.6,0l-3.5,1.7c-0.5,0.2-1-0.2-0.8-0.7
				l1-3.5c0.1-0.2,0-0.5-0.2-0.6l-3.2-2.8c-0.4-0.3-0.2-1,0.3-1l4.1-0.3C826.5,608.5,826.7,608.4,826.8,608.2z"/>
			<path class="st6" d="M826.8,546.4l2-4.8c0.2-0.5,0.9-0.5,1.1,0l1.5,4.7c0.1,0.2,0.3,0.4,0.6,0.4h4.5c0.6,0,0.8,0.7,0.4,1.1l-4,3
				c-0.2,0.2-0.3,0.4-0.2,0.7l1.8,4.6c0.2,0.5-0.4,1-0.9,0.7l-4.2-2.8c-0.2-0.1-0.4-0.1-0.6,0l-3.5,1.7c-0.5,0.2-1-0.2-0.8-0.7
				l1-3.5c0.1-0.2,0-0.5-0.2-0.6l-3.2-2.8c-0.4-0.3-0.2-1,0.3-1l4.1-0.3C826.5,546.7,826.7,546.6,826.8,546.4z"/>
			<path class="st6" d="M854.6,522.9l-2-4.8c-0.2-0.5-0.9-0.5-1.1,0l-1.5,4.7c-0.1,0.2-0.3,0.4-0.6,0.4H845c-0.6,0-0.8,0.7-0.4,1.1
				l4,3c0.2,0.2,0.3,0.4,0.2,0.7l-1.8,4.6c-0.2,0.5,0.4,1,0.9,0.7l4.2-2.8c0.2-0.1,0.4-0.1,0.6,0l3.5,1.7c0.5,0.2,1-0.2,0.8-0.7
				l-1-3.5c-0.1-0.2,0-0.5,0.2-0.6l3.2-2.8c0.4-0.3,0.2-1-0.3-1l-4.1-0.3C854.8,523.2,854.6,523.1,854.6,522.9z"/>
			<path class="st6" d="M823.5,576.6l-2-4.8c-0.2-0.5-0.9-0.5-1.1,0l-1.5,4.7c-0.1,0.2-0.3,0.4-0.6,0.4h-4.5c-0.6,0-0.8,0.7-0.4,1.1
				l4,3c0.2,0.2,0.3,0.4,0.2,0.7l-1.8,4.6c-0.2,0.5,0.4,1,0.9,0.7l4.2-2.8c0.2-0.1,0.4-0.1,0.6,0l3.5,1.7c0.5,0.2,1-0.2,0.8-0.7
				l-1-3.5c-0.1-0.2,0-0.5,0.2-0.6l3.2-2.8c0.4-0.3,0.2-1-0.3-1L824,577C823.8,577,823.6,576.8,823.5,576.6z"/>
		</g>
		<g>
			<path class="st29" d="M1014,766.9H734.2c-6.3,0-11.3-5.1-11.3-11.3V615.1c0-6.3,5.1-11.3,11.3-11.3H1014
				c6.3,0,11.3,5.1,11.3,11.3v140.5C1025.3,761.9,1020.3,766.9,1014,766.9z"/>
			<path class="st25" d="M875.3,754.8v-85.4c0-0.2,0.1-0.4,0.1-0.6c1.2-2.2,10.3-17.5,29.2-26c0.3-0.1,0.7-0.1,1,0
				c3.1,1.4,19.9,9.8,29.2,26.7c0.1,0.2,0.1,0.4,0.1,0.6v85.4c0,0.7-0.5,1.2-1.2,1.2l-57.4-0.6C875.9,756,875.3,755.5,875.3,754.8z"
				/>
			<path class="st27" d="M879.3,683.9c0,0,10.9-24.3,25.6-29.3c0.2-0.1,0.5-0.1,0.7,0c2.1,0.6,13,4.8,25.3,29.4"/>
			<path class="st26" d="M915.9,648.8v-10.9c0-0.2,0-0.3,0.1-0.5c0.8-1.9,7-15.3,24-21.9c0.3-0.1,0.6-0.1,0.9,0
				c2.8,1.3,17.2,8.4,22.6,21.3c0.1,0.1,0.1,0.3,0.1,0.5v118.1c0,0.7-0.5,1.2-1.2,1.2h-27.2"/>
			<path class="st11" d="M818.4,617.1l0.6,8c0.1,0.9,1.1,1.4,1.8,0.9c3.4-2.2,11.2-6.2,14.1,1.2c3.4,8.8-14.2,24.4-17.1,26.9
				c-0.3,0.2-0.4,0.6-0.4,0.9v7.2c0,0.7,0.5,1.2,1.2,1.2h29.5c0.7,0,1.2-0.5,1.2-1.2v-7.1c0-0.7-0.5-1.2-1.2-1.2l-14-0.1
				c-1.1,0-1.6-1.3-0.8-2c5-4.7,16.4-16.9,13.8-28.1c-3.2-13.7-19.7-10.9-27.9-7.8C818.7,616.1,818.4,616.6,818.4,617.1z"/>
			<path class="st11" d="M885.1,639.6c-0.6-28.2-14-26.3-16.5-26.3c-4.2,0-15-0.6-16.1,25.3c-1.1,25.9,16.1,25,16.1,25
				S885.6,665.7,885.1,639.6z M873.5,638.4c0,17-3.8,17.1-4.5,17.1s-5.9,0.6-5.4-16.8c0.5-18,5.3-17.1,5.3-17.1
				S873.8,621,873.5,638.4z"/>
			<path class="st11" d="M751.6,729.2l0.3,3.7c0.1,0.9,1,1.4,1.8,0.9c2.3-1.3,6.3-3,7.9,1.1c2,5.2-8,14.2-10.2,16.1
				c-0.3,0.2-0.4,0.6-0.4,0.9v3.7c0,0.7,0.5,1.2,1.2,1.2h16.9c0.7,0,1.2-0.5,1.2-1.2v-3.4c0-0.7-0.5-1.2-1.2-1.2l-6.9-0.1
				c-1,0-1.6-1.3-0.8-2c3.3-3.3,9-10,7.5-16.2c-1.9-8.1-11.5-6.7-16.5-4.9C751.9,728.2,751.6,728.7,751.6,729.2z"/>
			<path class="st11" d="M791.9,742.5c-0.4-17.1-8.5-15.9-10-15.9c-2.5,0-9-0.4-9.7,15.3s9.7,15.1,9.7,15.1S792.2,758.2,791.9,742.5
				z M784.9,741.7c0,10.3-2.3,10.3-2.7,10.3c-0.4,0-3.6,0.4-3.3-10.2c0.3-10.9,3.2-10.4,3.2-10.4S785.1,731.2,784.9,741.7z"/>
			<path class="st11" d="M977.6,723.5L977.6,723.5c0.1,0.7,0.8,1.2,1.4,0.9c0.8-0.3,1.8-0.4,2.2,0.8c0.7,1.8-2.5,4.8-3.6,5.8
				c-0.2,0.2-0.4,0.5-0.4,0.8v0.5c0,0.6,0.5,1.1,1.1,1.1h5.1c0.6,0,1.1-0.5,1.1-1.1v0c0-0.6-0.5-1-1-1.1l-0.6,0
				c-0.9,0-1.4-1-0.8-1.7c1.1-1.3,2.3-3.3,1.9-5.1c-0.6-2.8-3.7-2.5-5.6-2C977.9,722.6,977.6,723,977.6,723.5z"/>
			<path class="st11" d="M988.8,722.1c-0.9,0-3.4-0.1-3.6,5.7s3.6,5.6,3.6,5.6s3.8,0.4,3.7-5.4C992.4,721.7,989.4,722.1,988.8,722.1
				z M988.9,731.6c-0.1,0-1.3,0.1-1.2-3.8c0.1-4,1.2-3.8,1.2-3.8s1.1-0.1,1,3.8C989.9,731.5,989.1,731.6,988.9,731.6z"/>
			<path class="st6" d="M881.8,620.5l2-4.8c0.2-0.5,0.9-0.5,1.1,0l1.5,4.7c0.1,0.2,0.3,0.4,0.6,0.4h4.5c0.6,0,0.8,0.7,0.4,1.1l-4,3
				c-0.2,0.2-0.3,0.4-0.2,0.7l1.8,4.6c0.2,0.5-0.4,1-0.9,0.7l-4.2-2.8c-0.2-0.1-0.4-0.1-0.6,0l-3.5,1.7c-0.5,0.2-1-0.2-0.8-0.7
				l1-3.5c0.1-0.2,0-0.5-0.2-0.6l-3.2-2.8c-0.4-0.3-0.2-1,0.3-1l4.1-0.3C881.5,620.9,881.7,620.7,881.8,620.5z"/>
			<path class="st6" d="M826.8,714.7l2-4.8c0.2-0.5,0.9-0.5,1.1,0l1.5,4.7c0.1,0.2,0.3,0.4,0.6,0.4h4.5c0.6,0,0.8,0.7,0.4,1.1l-4,3
				c-0.2,0.2-0.3,0.4-0.2,0.7l1.8,4.6c0.2,0.5-0.4,1-0.9,0.7l-4.2-2.8c-0.2-0.1-0.4-0.1-0.6,0l-3.5,1.7c-0.5,0.2-1-0.2-0.8-0.7
				l1-3.5c0.1-0.2,0-0.5-0.2-0.6l-3.2-2.8c-0.4-0.3-0.2-1,0.3-1l4.1-0.3C826.5,715.1,826.7,714.9,826.8,714.7z"/>
			<path class="st6" d="M826.8,652.9l2-4.8c0.2-0.5,0.9-0.5,1.1,0l1.5,4.7c0.1,0.2,0.3,0.4,0.6,0.4h4.5c0.6,0,0.8,0.7,0.4,1.1l-4,3
				c-0.2,0.2-0.3,0.4-0.2,0.7l1.8,4.6c0.2,0.5-0.4,1-0.9,0.7l-4.2-2.8c-0.2-0.1-0.4-0.1-0.6,0l-3.5,1.7c-0.5,0.2-1-0.2-0.8-0.7
				l1-3.5c0.1-0.2,0-0.5-0.2-0.6l-3.2-2.8c-0.4-0.3-0.2-1,0.3-1l4.1-0.3C826.5,653.2,826.7,653.1,826.8,652.9z"/>
			<path class="st6" d="M854.6,629.4l-2-4.8c-0.2-0.5-0.9-0.5-1.1,0l-1.5,4.7c-0.1,0.2-0.3,0.4-0.6,0.4H845c-0.6,0-0.8,0.7-0.4,1.1
				l4,3c0.2,0.2,0.3,0.4,0.2,0.7l-1.8,4.6c-0.2,0.5,0.4,1,0.9,0.7l4.2-2.8c0.2-0.1,0.4-0.1,0.6,0l3.5,1.7c0.5,0.2,1-0.2,0.8-0.7
				l-1-3.5c-0.1-0.2,0-0.5,0.2-0.6l3.2-2.8c0.4-0.3,0.2-1-0.3-1l-4.1-0.3C854.8,629.7,854.6,629.6,854.6,629.4z"/>
			<path class="st6" d="M823.5,683.2l-2-4.8c-0.2-0.5-0.9-0.5-1.1,0l-1.5,4.7c-0.1,0.2-0.3,0.4-0.6,0.4h-4.5c-0.6,0-0.8,0.7-0.4,1.1
				l4,3c0.2,0.2,0.3,0.4,0.2,0.7l-1.8,4.6c-0.2,0.5,0.4,1,0.9,0.7l4.2-2.8c0.2-0.1,0.4-0.1,0.6,0l3.5,1.7c0.5,0.2,1-0.2,0.8-0.7
				l-1-3.5c-0.1-0.2,0-0.5,0.2-0.6l3.2-2.8c0.4-0.3,0.2-1-0.3-1l-4.1-0.3C823.8,683.5,823.6,683.4,823.5,683.2z"/>
		</g>
	</g>
	<g>
		<g>
			<path class="st29" d="M1359,340.8h-279.8c-6.3,0-11.3-5.1-11.3-11.3V188.9c0-6.3,5.1-11.3,11.3-11.3H1359
				c6.3,0,11.3,5.1,11.3,11.3v140.5C1370.4,335.7,1365.3,340.8,1359,340.8z"/>
			<path class="st25" d="M1220.4,328.7v-85.4c0-0.2,0.1-0.4,0.1-0.6c1.2-2.2,10.3-17.5,29.2-26c0.3-0.1,0.7-0.1,1,0
				c3.1,1.4,19.9,9.8,29.2,26.7c0.1,0.2,0.1,0.4,0.1,0.6v85.4c0,0.7-0.5,1.2-1.2,1.2l-57.4-0.6
				C1220.9,329.9,1220.4,329.4,1220.4,328.7z"/>
			<path class="st27" d="M1224.3,257.8c0,0,10.9-24.3,25.6-29.3c0.2-0.1,0.5-0.1,0.7,0c2.1,0.6,13,4.8,25.3,29.4"/>
			<path class="st26" d="M1260.9,222.7v-10.9c0-0.2,0-0.3,0.1-0.5c0.8-1.9,7-15.3,24-21.9c0.3-0.1,0.6-0.1,0.9,0
				c2.8,1.3,17.2,8.4,22.6,21.3c0.1,0.1,0.1,0.3,0.1,0.5v118.1c0,0.7-0.5,1.2-1.2,1.2h-27.2"/>
			<path class="st11" d="M1163.5,191l0.6,8c0.1,0.9,1.1,1.4,1.8,0.9c3.4-2.2,11.2-6.2,14.1,1.2c3.4,8.8-14.2,24.4-17.1,26.9
				c-0.3,0.2-0.4,0.6-0.4,0.9v7.2c0,0.7,0.5,1.2,1.2,1.2h29.5c0.7,0,1.2-0.5,1.2-1.2v-7.1c0-0.7-0.5-1.2-1.2-1.2l-14-0.1
				c-1.1,0-1.6-1.3-0.8-2c5-4.7,16.4-16.9,13.8-28.1c-3.2-13.7-19.7-10.9-27.9-7.8C1163.7,190,1163.4,190.5,1163.5,191z"/>
			<path class="st11" d="M1230.1,213.5c-0.6-28.2-14-26.3-16.5-26.3c-4.2,0-15-0.6-16.1,25.3c-1.1,25.9,16.1,25,16.1,25
				S1230.7,239.6,1230.1,213.5z M1218.6,212.3c0,17-3.8,17.1-4.5,17.1s-5.9,0.6-5.4-16.8c0.5-18,5.3-17.1,5.3-17.1
				S1218.9,194.9,1218.6,212.3z"/>
			<path class="st11" d="M1096.7,303.1l0.3,3.7c0.1,0.9,1,1.4,1.8,0.9c2.3-1.3,6.3-3,7.9,1.1c2,5.2-8,14.2-10.2,16.1
				c-0.3,0.2-0.4,0.6-0.4,0.9v3.7c0,0.7,0.5,1.2,1.2,1.2h16.9c0.7,0,1.2-0.5,1.2-1.2v-3.4c0-0.7-0.5-1.2-1.2-1.2l-6.9-0.1
				c-1,0-1.6-1.3-0.8-2c3.3-3.3,9-10,7.5-16.2c-1.9-8.1-11.5-6.7-16.5-4.9C1096.9,302.1,1096.6,302.5,1096.7,303.1z"/>
			<path class="st11" d="M1136.9,316.3c-0.4-17.1-8.5-15.9-10-15.9c-2.5,0-9-0.4-9.7,15.3s9.7,15.1,9.7,15.1
				S1137.3,332.1,1136.9,316.3z M1130,315.6c0,10.3-2.3,10.3-2.7,10.3c-0.4,0-3.6,0.4-3.3-10.2c0.3-10.9,3.2-10.4,3.2-10.4
				S1130.1,305.1,1130,315.6z"/>
			<path class="st11" d="M1322.6,297.4L1322.6,297.4c0.1,0.7,0.8,1.2,1.4,0.9c0.8-0.3,1.8-0.4,2.2,0.8c0.7,1.8-2.5,4.8-3.6,5.8
				c-0.2,0.2-0.4,0.5-0.4,0.8v0.5c0,0.6,0.5,1.1,1.1,1.1h5.1c0.6,0,1.1-0.5,1.1-1.1v0c0-0.6-0.5-1-1-1.1l-0.6,0
				c-0.9,0-1.4-1-0.8-1.7c1.1-1.3,2.3-3.3,1.9-5.1c-0.6-2.8-3.7-2.5-5.6-2C1322.9,296.5,1322.6,296.9,1322.6,297.4z"/>
			<path class="st11" d="M1333.8,296c-0.9,0-3.4-0.1-3.6,5.7s3.6,5.6,3.6,5.6s3.8,0.4,3.7-5.4C1337.4,295.5,1334.4,296,1333.8,296z
				 M1334,305.4c-0.1,0-1.3,0.1-1.2-3.8c0.1-4,1.2-3.8,1.2-3.8s1.1-0.1,1,3.8C1335,305.4,1334.1,305.4,1334,305.4z"/>
			<path class="st6" d="M1226.8,194.4l2-4.8c0.2-0.5,0.9-0.5,1.1,0l1.5,4.7c0.1,0.2,0.3,0.4,0.6,0.4h4.5c0.6,0,0.8,0.7,0.4,1.1l-4,3
				c-0.2,0.2-0.3,0.4-0.2,0.7l1.8,4.6c0.2,0.5-0.4,1-0.9,0.7l-4.2-2.8c-0.2-0.1-0.4-0.1-0.6,0l-3.5,1.7c-0.5,0.2-1-0.2-0.8-0.7
				l1-3.5c0.1-0.2,0-0.5-0.2-0.6l-3.2-2.8c-0.4-0.3-0.2-1,0.3-1l4.1-0.3C1226.5,194.7,1226.7,194.6,1226.8,194.4z"/>
			<path class="st6" d="M1171.8,288.6l2-4.8c0.2-0.5,0.9-0.5,1.1,0l1.5,4.7c0.1,0.2,0.3,0.4,0.6,0.4h4.5c0.6,0,0.8,0.7,0.4,1.1l-4,3
				c-0.2,0.2-0.3,0.4-0.2,0.7l1.8,4.6c0.2,0.5-0.4,1-0.9,0.7l-4.2-2.8c-0.2-0.1-0.4-0.1-0.6,0l-3.5,1.7c-0.5,0.2-1-0.2-0.8-0.7
				l1-3.5c0.1-0.2,0-0.5-0.2-0.6l-3.2-2.8c-0.4-0.3-0.2-1,0.3-1l4.1-0.3C1171.6,289,1171.8,288.8,1171.8,288.6z"/>
			<path class="st6" d="M1171.8,226.8l2-4.8c0.2-0.5,0.9-0.5,1.1,0l1.5,4.7c0.1,0.2,0.3,0.4,0.6,0.4h4.5c0.6,0,0.8,0.7,0.4,1.1l-4,3
				c-0.2,0.2-0.3,0.4-0.2,0.7l1.8,4.6c0.2,0.5-0.4,1-0.9,0.7l-4.2-2.8c-0.2-0.1-0.4-0.1-0.6,0l-3.5,1.7c-0.5,0.2-1-0.2-0.8-0.7
				l1-3.5c0.1-0.2,0-0.5-0.2-0.6l-3.2-2.8c-0.4-0.3-0.2-1,0.3-1l4.1-0.3C1171.6,227.1,1171.8,227,1171.8,226.8z"/>
			<path class="st6" d="M1199.6,203.3l-2-4.8c-0.2-0.5-0.9-0.5-1.1,0l-1.5,4.7c-0.1,0.2-0.3,0.4-0.6,0.4h-4.5
				c-0.6,0-0.8,0.7-0.4,1.1l4,3c0.2,0.2,0.3,0.4,0.2,0.7l-1.8,4.6c-0.2,0.5,0.4,1,0.9,0.7l4.2-2.8c0.2-0.1,0.4-0.1,0.6,0l3.5,1.7
				c0.5,0.2,1-0.2,0.8-0.7l-1-3.5c-0.1-0.2,0-0.5,0.2-0.6l3.2-2.8c0.4-0.3,0.2-1-0.3-1l-4.1-0.3
				C1199.9,203.6,1199.7,203.5,1199.6,203.3z"/>
			<path class="st6" d="M1168.5,257l-2-4.8c-0.2-0.5-0.9-0.5-1.1,0l-1.5,4.7c-0.1,0.2-0.3,0.4-0.6,0.4h-4.5c-0.6,0-0.8,0.7-0.4,1.1
				l4,3c0.2,0.2,0.3,0.4,0.2,0.7l-1.8,4.6c-0.2,0.5,0.4,1,0.9,0.7l4.2-2.8c0.2-0.1,0.4-0.1,0.6,0l3.5,1.7c0.5,0.2,1-0.2,0.8-0.7
				l-1-3.5c-0.1-0.2,0-0.5,0.2-0.6l3.2-2.8c0.4-0.3,0.2-1-0.3-1l-4.1-0.3C1168.8,257.4,1168.6,257.3,1168.5,257z"/>
		</g>
		<g>
			<path class="st29" d="M1359,447.4h-279.8c-6.3,0-11.3-5.1-11.3-11.3V295.5c0-6.3,5.1-11.3,11.3-11.3H1359
				c6.3,0,11.3,5.1,11.3,11.3V436C1370.4,442.3,1365.3,447.4,1359,447.4z"/>
			<path class="st25" d="M1220.4,435.3v-85.4c0-0.2,0.1-0.4,0.1-0.6c1.2-2.2,10.3-17.5,29.2-26c0.3-0.1,0.7-0.1,1,0
				c3.1,1.4,19.9,9.8,29.2,26.7c0.1,0.2,0.1,0.4,0.1,0.6v85.4c0,0.7-0.5,1.2-1.2,1.2l-57.4-0.6
				C1220.9,436.4,1220.4,435.9,1220.4,435.3z"/>
			<path class="st27" d="M1224.3,364.4c0,0,10.9-24.3,25.6-29.3c0.2-0.1,0.5-0.1,0.7,0c2.1,0.6,13,4.8,25.3,29.4"/>
			<path class="st26" d="M1260.9,329.2v-10.9c0-0.2,0-0.3,0.1-0.5c0.8-1.9,7-15.3,24-21.9c0.3-0.1,0.6-0.1,0.9,0
				c2.8,1.3,17.2,8.4,22.6,21.3c0.1,0.1,0.1,0.3,0.1,0.5v118.1c0,0.7-0.5,1.2-1.2,1.2h-27.2"/>
			<path class="st11" d="M1163.5,297.5l0.6,8c0.1,0.9,1.1,1.4,1.8,0.9c3.4-2.2,11.2-6.2,14.1,1.2c3.4,8.8-14.2,24.4-17.1,26.9
				c-0.3,0.2-0.4,0.6-0.4,0.9v7.2c0,0.7,0.5,1.2,1.2,1.2h29.5c0.7,0,1.2-0.5,1.2-1.2v-7.1c0-0.7-0.5-1.2-1.2-1.2l-14-0.1
				c-1.1,0-1.6-1.3-0.8-2c5-4.7,16.4-16.9,13.8-28.1c-3.2-13.7-19.7-10.9-27.9-7.8C1163.7,296.5,1163.4,297,1163.5,297.5z"/>
			<path class="st11" d="M1230.1,320.1c-0.6-28.2-14-26.3-16.5-26.3c-4.2,0-15-0.6-16.1,25.3c-1.1,25.9,16.1,25,16.1,25
				S1230.7,346.1,1230.1,320.1z M1218.6,318.8c0,17-3.8,17.1-4.5,17.1s-5.9,0.6-5.4-16.8c0.5-18,5.3-17.1,5.3-17.1
				S1218.9,301.4,1218.6,318.8z"/>
			<path class="st11" d="M1096.7,409.6l0.3,3.7c0.1,0.9,1,1.4,1.8,0.9c2.3-1.3,6.3-3,7.9,1.1c2,5.2-8,14.2-10.2,16.1
				c-0.3,0.2-0.4,0.6-0.4,0.9v3.7c0,0.7,0.5,1.2,1.2,1.2h16.9c0.7,0,1.2-0.5,1.2-1.2v-3.4c0-0.7-0.5-1.2-1.2-1.2l-6.9-0.1
				c-1,0-1.6-1.3-0.8-2c3.3-3.3,9-10,7.5-16.2c-1.9-8.1-11.5-6.7-16.5-4.9C1096.9,408.6,1096.6,409.1,1096.7,409.6z"/>
			<path class="st11" d="M1136.9,422.9c-0.4-17.1-8.5-15.9-10-15.9c-2.5,0-9-0.4-9.7,15.3s9.7,15.1,9.7,15.1
				S1137.3,438.6,1136.9,422.9z M1130,422.1c0,10.3-2.3,10.3-2.7,10.3c-0.4,0-3.6,0.4-3.3-10.2c0.3-10.9,3.2-10.4,3.2-10.4
				S1130.1,411.6,1130,422.1z"/>
			<path class="st11" d="M1322.6,404L1322.6,404c0.1,0.7,0.8,1.2,1.4,0.9c0.8-0.3,1.8-0.4,2.2,0.8c0.7,1.8-2.5,4.8-3.6,5.8
				c-0.2,0.2-0.4,0.5-0.4,0.8v0.5c0,0.6,0.5,1.1,1.1,1.1h5.1c0.6,0,1.1-0.5,1.1-1.1v0c0-0.6-0.5-1-1-1.1l-0.6,0
				c-0.9,0-1.4-1-0.8-1.7c1.1-1.3,2.3-3.3,1.9-5.1c-0.6-2.8-3.7-2.5-5.6-2C1322.9,403,1322.6,403.5,1322.6,404z"/>
			<path class="st11" d="M1333.8,402.5c-0.9,0-3.4-0.1-3.6,5.7s3.6,5.6,3.6,5.6s3.8,0.4,3.7-5.4
				C1337.4,402.1,1334.4,402.5,1333.8,402.5z M1334,412c-0.1,0-1.3,0.1-1.2-3.8c0.1-4,1.2-3.8,1.2-3.8s1.1-0.1,1,3.8
				C1335,411.9,1334.1,412,1334,412z"/>
			<path class="st6" d="M1226.8,300.9l2-4.8c0.2-0.5,0.9-0.5,1.1,0l1.5,4.7c0.1,0.2,0.3,0.4,0.6,0.4h4.5c0.6,0,0.8,0.7,0.4,1.1l-4,3
				c-0.2,0.2-0.3,0.4-0.2,0.7l1.8,4.6c0.2,0.5-0.4,1-0.9,0.7l-4.2-2.8c-0.2-0.1-0.4-0.1-0.6,0l-3.5,1.7c-0.5,0.2-1-0.2-0.8-0.7
				l1-3.5c0.1-0.2,0-0.5-0.2-0.6l-3.2-2.8c-0.4-0.3-0.2-1,0.3-1l4.1-0.3C1226.5,301.3,1226.7,301.1,1226.8,300.9z"/>
			<path class="st6" d="M1171.8,395.1l2-4.8c0.2-0.5,0.9-0.5,1.1,0l1.5,4.7c0.1,0.2,0.3,0.4,0.6,0.4h4.5c0.6,0,0.8,0.7,0.4,1.1l-4,3
				c-0.2,0.2-0.3,0.4-0.2,0.7l1.8,4.6c0.2,0.5-0.4,1-0.9,0.7l-4.2-2.8c-0.2-0.1-0.4-0.1-0.6,0l-3.5,1.7c-0.5,0.2-1-0.2-0.8-0.7
				l1-3.5c0.1-0.2,0-0.5-0.2-0.6l-3.2-2.8c-0.4-0.3-0.2-1,0.3-1l4.1-0.3C1171.6,395.5,1171.8,395.3,1171.8,395.1z"/>
			<path class="st6" d="M1171.8,333.3l2-4.8c0.2-0.5,0.9-0.5,1.1,0l1.5,4.7c0.1,0.2,0.3,0.4,0.6,0.4h4.5c0.6,0,0.8,0.7,0.4,1.1l-4,3
				c-0.2,0.2-0.3,0.4-0.2,0.7l1.8,4.6c0.2,0.5-0.4,1-0.9,0.7l-4.2-2.8c-0.2-0.1-0.4-0.1-0.6,0l-3.5,1.7c-0.5,0.2-1-0.2-0.8-0.7
				l1-3.5c0.1-0.2,0-0.5-0.2-0.6l-3.2-2.8c-0.4-0.3-0.2-1,0.3-1l4.1-0.3C1171.6,333.7,1171.8,333.5,1171.8,333.3z"/>
			<path class="st6" d="M1199.6,309.8l-2-4.8c-0.2-0.5-0.9-0.5-1.1,0l-1.5,4.7c-0.1,0.2-0.3,0.4-0.6,0.4h-4.5
				c-0.6,0-0.8,0.7-0.4,1.1l4,3c0.2,0.2,0.3,0.4,0.2,0.7l-1.8,4.6c-0.2,0.5,0.4,1,0.9,0.7l4.2-2.8c0.2-0.1,0.4-0.1,0.6,0l3.5,1.7
				c0.5,0.2,1-0.2,0.8-0.7l-1-3.5c-0.1-0.2,0-0.5,0.2-0.6l3.2-2.8c0.4-0.3,0.2-1-0.3-1l-4.1-0.3
				C1199.9,310.2,1199.7,310,1199.6,309.8z"/>
			<path class="st6" d="M1168.5,363.6l-2-4.8c-0.2-0.5-0.9-0.5-1.1,0l-1.5,4.7c-0.1,0.2-0.3,0.4-0.6,0.4h-4.5
				c-0.6,0-0.8,0.7-0.4,1.1l4,3c0.2,0.2,0.3,0.4,0.2,0.7l-1.8,4.6c-0.2,0.5,0.4,1,0.9,0.7l4.2-2.8c0.2-0.1,0.4-0.1,0.6,0l3.5,1.7
				c0.5,0.2,1-0.2,0.8-0.7l-1-3.5c-0.1-0.2,0-0.5,0.2-0.6l3.2-2.8c0.4-0.3,0.2-1-0.3-1l-4.1-0.3
				C1168.8,363.9,1168.6,363.8,1168.5,363.6z"/>
		</g>
		<g>
			<path class="st29" d="M1359,553.9h-279.8c-6.3,0-11.3-5.1-11.3-11.3V402c0-6.3,5.1-11.3,11.3-11.3H1359c6.3,0,11.3,5.1,11.3,11.3
				v140.5C1370.4,548.8,1365.3,553.9,1359,553.9z"/>
			<path class="st25" d="M1220.4,541.8v-85.4c0-0.2,0.1-0.4,0.1-0.6c1.2-2.2,10.3-17.5,29.2-26c0.3-0.1,0.7-0.1,1,0
				c3.1,1.4,19.9,9.8,29.2,26.7c0.1,0.2,0.1,0.4,0.1,0.6v85.4c0,0.7-0.5,1.2-1.2,1.2l-57.4-0.6
				C1220.9,543,1220.4,542.4,1220.4,541.8z"/>
			<path class="st27" d="M1224.3,470.9c0,0,10.9-24.3,25.6-29.3c0.2-0.1,0.5-0.1,0.7,0c2.1,0.6,13,4.8,25.3,29.4"/>
			<path class="st26" d="M1260.9,435.7v-10.9c0-0.2,0-0.3,0.1-0.5c0.8-1.9,7-15.3,24-21.9c0.3-0.1,0.6-0.1,0.9,0
				c2.8,1.3,17.2,8.4,22.6,21.3c0.1,0.1,0.1,0.3,0.1,0.5v118.1c0,0.7-0.5,1.2-1.2,1.2h-27.2"/>
			<path class="st11" d="M1163.5,404.1l0.6,8c0.1,0.9,1.1,1.4,1.8,0.9c3.4-2.2,11.2-6.2,14.1,1.2c3.4,8.8-14.2,24.4-17.1,26.9
				c-0.3,0.2-0.4,0.6-0.4,0.9v7.2c0,0.7,0.5,1.2,1.2,1.2h29.5c0.7,0,1.2-0.5,1.2-1.2v-7.1c0-0.7-0.5-1.2-1.2-1.2l-14-0.1
				c-1.1,0-1.6-1.3-0.8-2c5-4.7,16.4-16.9,13.8-28.1c-3.2-13.7-19.7-10.9-27.9-7.8C1163.7,403.1,1163.4,403.5,1163.5,404.1z"/>
			<path class="st11" d="M1230.1,426.6c-0.6-28.2-14-26.3-16.5-26.3c-4.2,0-15-0.6-16.1,25.3c-1.1,25.9,16.1,25,16.1,25
				S1230.7,452.6,1230.1,426.6z M1218.6,425.4c0,17-3.8,17.1-4.5,17.1s-5.9,0.6-5.4-16.8c0.5-18,5.3-17.1,5.3-17.1
				S1218.9,407.9,1218.6,425.4z"/>
			<path class="st11" d="M1096.7,516.1l0.3,3.7c0.1,0.9,1,1.4,1.8,0.9c2.3-1.3,6.3-3,7.9,1.1c2,5.2-8,14.2-10.2,16.1
				c-0.3,0.2-0.4,0.6-0.4,0.9v3.7c0,0.7,0.5,1.2,1.2,1.2h16.9c0.7,0,1.2-0.5,1.2-1.2v-3.4c0-0.7-0.5-1.2-1.2-1.2l-6.9-0.1
				c-1,0-1.6-1.3-0.8-2c3.3-3.3,9-10,7.5-16.2c-1.9-8.1-11.5-6.7-16.5-4.9C1096.9,515.1,1096.6,515.6,1096.7,516.1z"/>
			<path class="st11" d="M1136.9,529.4c-0.4-17.1-8.5-15.9-10-15.9c-2.5,0-9-0.4-9.7,15.3s9.7,15.1,9.7,15.1
				S1137.3,545.1,1136.9,529.4z M1130,528.7c0,10.3-2.3,10.3-2.7,10.3c-0.4,0-3.6,0.4-3.3-10.2c0.3-10.9,3.2-10.4,3.2-10.4
				S1130.1,518.1,1130,528.7z"/>
			<path class="st11" d="M1322.6,510.5L1322.6,510.5c0.1,0.7,0.8,1.2,1.4,0.9c0.8-0.3,1.8-0.4,2.2,0.8c0.7,1.8-2.5,4.8-3.6,5.8
				c-0.2,0.2-0.4,0.5-0.4,0.8v0.5c0,0.6,0.5,1.1,1.1,1.1h5.1c0.6,0,1.1-0.5,1.1-1.1v0c0-0.6-0.5-1-1-1.1l-0.6,0
				c-0.9,0-1.4-1-0.8-1.7c1.1-1.3,2.3-3.3,1.9-5.1c-0.6-2.8-3.7-2.5-5.6-2C1322.9,509.5,1322.6,510,1322.6,510.5z"/>
			<path class="st11" d="M1333.8,509c-0.9,0-3.4-0.1-3.6,5.7c-0.3,5.8,3.6,5.6,3.6,5.6s3.8,0.4,3.7-5.4
				C1337.4,508.6,1334.4,509,1333.8,509z M1334,518.5c-0.1,0-1.3,0.1-1.2-3.8c0.1-4,1.2-3.8,1.2-3.8s1.1-0.1,1,3.8
				C1335,518.5,1334.1,518.5,1334,518.5z"/>
			<path class="st6" d="M1226.8,407.4l2-4.8c0.2-0.5,0.9-0.5,1.1,0l1.5,4.7c0.1,0.2,0.3,0.4,0.6,0.4h4.5c0.6,0,0.8,0.7,0.4,1.1l-4,3
				c-0.2,0.2-0.3,0.4-0.2,0.7l1.8,4.6c0.2,0.5-0.4,1-0.9,0.7l-4.2-2.8c-0.2-0.1-0.4-0.1-0.6,0l-3.5,1.7c-0.5,0.2-1-0.2-0.8-0.7
				l1-3.5c0.1-0.2,0-0.5-0.2-0.6l-3.2-2.8c-0.4-0.3-0.2-1,0.3-1l4.1-0.3C1226.5,407.8,1226.7,407.7,1226.8,407.4z"/>
			<path class="st6" d="M1171.8,501.7l2-4.8c0.2-0.5,0.9-0.5,1.1,0l1.5,4.7c0.1,0.2,0.3,0.4,0.6,0.4h4.5c0.6,0,0.8,0.7,0.4,1.1l-4,3
				c-0.2,0.2-0.3,0.4-0.2,0.7l1.8,4.6c0.2,0.5-0.4,1-0.9,0.7l-4.2-2.8c-0.2-0.1-0.4-0.1-0.6,0l-3.5,1.7c-0.5,0.2-1-0.2-0.8-0.7
				l1-3.5c0.1-0.2,0-0.5-0.2-0.6l-3.2-2.8c-0.4-0.3-0.2-1,0.3-1l4.1-0.3C1171.6,502,1171.8,501.9,1171.8,501.7z"/>
			<path class="st6" d="M1171.8,439.8l2-4.8c0.2-0.5,0.9-0.5,1.1,0l1.5,4.7c0.1,0.2,0.3,0.4,0.6,0.4h4.5c0.6,0,0.8,0.7,0.4,1.1l-4,3
				c-0.2,0.2-0.3,0.4-0.2,0.7l1.8,4.6c0.2,0.5-0.4,1-0.9,0.7l-4.2-2.8c-0.2-0.1-0.4-0.1-0.6,0l-3.5,1.7c-0.5,0.2-1-0.2-0.8-0.7
				l1-3.5c0.1-0.2,0-0.5-0.2-0.6l-3.2-2.8c-0.4-0.3-0.2-1,0.3-1l4.1-0.3C1171.6,440.2,1171.8,440,1171.8,439.8z"/>
			<path class="st6" d="M1199.6,416.3l-2-4.8c-0.2-0.5-0.9-0.5-1.1,0l-1.5,4.7c-0.1,0.2-0.3,0.4-0.6,0.4h-4.5
				c-0.6,0-0.8,0.7-0.4,1.1l4,3c0.2,0.2,0.3,0.4,0.2,0.7l-1.8,4.6c-0.2,0.5,0.4,1,0.9,0.7l4.2-2.8c0.2-0.1,0.4-0.1,0.6,0l3.5,1.7
				c0.5,0.2,1-0.2,0.8-0.7l-1-3.5c-0.1-0.2,0-0.5,0.2-0.6l3.2-2.8c0.4-0.3,0.2-1-0.3-1l-4.1-0.3
				C1199.9,416.7,1199.7,416.5,1199.6,416.3z"/>
			<path class="st6" d="M1168.5,470.1l-2-4.8c-0.2-0.5-0.9-0.5-1.1,0l-1.5,4.7c-0.1,0.2-0.3,0.4-0.6,0.4h-4.5
				c-0.6,0-0.8,0.7-0.4,1.1l4,3c0.2,0.2,0.3,0.4,0.2,0.7l-1.8,4.6c-0.2,0.5,0.4,1,0.9,0.7l4.2-2.8c0.2-0.1,0.4-0.1,0.6,0l3.5,1.7
				c0.5,0.2,1-0.2,0.8-0.7l-1-3.5c-0.1-0.2,0-0.5,0.2-0.6l3.2-2.8c0.4-0.3,0.2-1-0.3-1l-4.1-0.3
				C1168.8,470.5,1168.6,470.3,1168.5,470.1z"/>
		</g>
		<g>
			<path class="st29" d="M1359,660.4h-279.8c-6.3,0-11.3-5.1-11.3-11.3V508.5c0-6.3,5.1-11.3,11.3-11.3H1359
				c6.3,0,11.3,5.1,11.3,11.3v140.5C1370.4,655.3,1365.3,660.4,1359,660.4z"/>
			<path class="st25" d="M1220.4,648.3v-85.4c0-0.2,0.1-0.4,0.1-0.6c1.2-2.2,10.3-17.5,29.2-26c0.3-0.1,0.7-0.1,1,0
				c3.1,1.4,19.9,9.8,29.2,26.7c0.1,0.2,0.1,0.4,0.1,0.6v85.4c0,0.7-0.5,1.2-1.2,1.2l-57.4-0.6
				C1220.9,649.5,1220.4,649,1220.4,648.3z"/>
			<path class="st27" d="M1224.3,577.4c0,0,10.9-24.3,25.6-29.3c0.2-0.1,0.5-0.1,0.7,0c2.1,0.6,13,4.8,25.3,29.4"/>
			<path class="st26" d="M1260.9,542.3v-10.9c0-0.2,0-0.3,0.1-0.5c0.8-1.9,7-15.3,24-21.9c0.3-0.1,0.6-0.1,0.9,0
				c2.8,1.3,17.2,8.4,22.6,21.3c0.1,0.1,0.1,0.3,0.1,0.5v118.1c0,0.7-0.5,1.2-1.2,1.2h-27.2"/>
			<path class="st11" d="M1163.5,510.6l0.6,8c0.1,0.9,1.1,1.4,1.8,0.9c3.4-2.2,11.2-6.2,14.1,1.2c3.4,8.8-14.2,24.4-17.1,26.9
				c-0.3,0.2-0.4,0.6-0.4,0.9v7.2c0,0.7,0.5,1.2,1.2,1.2h29.5c0.7,0,1.2-0.5,1.2-1.2v-7.1c0-0.7-0.5-1.2-1.2-1.2l-14-0.1
				c-1.1,0-1.6-1.3-0.8-2c5-4.7,16.4-16.9,13.8-28.1c-3.2-13.7-19.7-10.9-27.9-7.8C1163.7,509.6,1163.4,510.1,1163.5,510.6z"/>
			<path class="st11" d="M1230.1,533.1c-0.6-28.2-14-26.3-16.5-26.3c-4.2,0-15-0.6-16.1,25.3c-1.1,25.9,16.1,25,16.1,25
				S1230.7,559.2,1230.1,533.1z M1218.6,531.9c0,17-3.8,17.1-4.5,17.1s-5.9,0.6-5.4-16.8c0.5-18,5.3-17.1,5.3-17.1
				S1218.9,514.5,1218.6,531.9z"/>
			<path class="st11" d="M1096.7,622.7l0.3,3.7c0.1,0.9,1,1.4,1.8,0.9c2.3-1.3,6.3-3,7.9,1.1c2,5.2-8,14.2-10.2,16.1
				c-0.3,0.2-0.4,0.6-0.4,0.9v3.7c0,0.7,0.5,1.2,1.2,1.2h16.9c0.7,0,1.2-0.5,1.2-1.2v-3.4c0-0.7-0.5-1.2-1.2-1.2l-6.9-0.1
				c-1,0-1.6-1.3-0.8-2c3.3-3.3,9-10,7.5-16.2c-1.9-8.1-11.5-6.7-16.5-4.9C1096.9,621.6,1096.6,622.1,1096.7,622.7z"/>
			<path class="st11" d="M1136.9,635.9c-0.4-17.1-8.5-15.9-10-15.9c-2.5,0-9-0.4-9.7,15.3s9.7,15.1,9.7,15.1
				S1137.3,651.7,1136.9,635.9z M1130,635.2c0,10.3-2.3,10.3-2.7,10.3c-0.4,0-3.6,0.4-3.3-10.2c0.3-10.9,3.2-10.4,3.2-10.4
				S1130.1,624.6,1130,635.2z"/>
			<path class="st11" d="M1322.6,617L1322.6,617c0.1,0.7,0.8,1.2,1.4,0.9c0.8-0.3,1.8-0.4,2.2,0.8c0.7,1.8-2.5,4.8-3.6,5.8
				c-0.2,0.2-0.4,0.5-0.4,0.8v0.5c0,0.6,0.5,1.1,1.1,1.1h5.1c0.6,0,1.1-0.5,1.1-1.1v0c0-0.6-0.5-1-1-1.1l-0.6,0
				c-0.9,0-1.4-1-0.8-1.7c1.1-1.3,2.3-3.3,1.9-5.1c-0.6-2.8-3.7-2.5-5.6-2C1322.9,616.1,1322.6,616.5,1322.6,617z"/>
			<path class="st11" d="M1333.8,615.6c-0.9,0-3.4-0.1-3.6,5.7s3.6,5.6,3.6,5.6s3.8,0.4,3.7-5.4
				C1337.4,615.1,1334.4,615.6,1333.8,615.6z M1334,625c-0.1,0-1.3,0.1-1.2-3.8c0.1-4,1.2-3.8,1.2-3.8s1.1-0.1,1,3.8
				C1335,625,1334.1,625,1334,625z"/>
			<path class="st6" d="M1226.8,514l2-4.8c0.2-0.5,0.9-0.5,1.1,0l1.5,4.7c0.1,0.2,0.3,0.4,0.6,0.4h4.5c0.6,0,0.8,0.7,0.4,1.1l-4,3
				c-0.2,0.2-0.3,0.4-0.2,0.7l1.8,4.6c0.2,0.5-0.4,1-0.9,0.7l-4.2-2.8c-0.2-0.1-0.4-0.1-0.6,0l-3.5,1.7c-0.5,0.2-1-0.2-0.8-0.7
				l1-3.5c0.1-0.2,0-0.5-0.2-0.6l-3.2-2.8c-0.4-0.3-0.2-1,0.3-1l4.1-0.3C1226.5,514.3,1226.7,514.2,1226.8,514z"/>
			<path class="st6" d="M1171.8,608.2l2-4.8c0.2-0.5,0.9-0.5,1.1,0l1.5,4.7c0.1,0.2,0.3,0.4,0.6,0.4h4.5c0.6,0,0.8,0.7,0.4,1.1l-4,3
				c-0.2,0.2-0.3,0.4-0.2,0.7l1.8,4.6c0.2,0.5-0.4,1-0.9,0.7l-4.2-2.8c-0.2-0.1-0.4-0.1-0.6,0l-3.5,1.7c-0.5,0.2-1-0.2-0.8-0.7
				l1-3.5c0.1-0.2,0-0.5-0.2-0.6l-3.2-2.8c-0.4-0.3-0.2-1,0.3-1l4.1-0.3C1171.6,608.5,1171.8,608.4,1171.8,608.2z"/>
			<path class="st6" d="M1171.8,546.4l2-4.8c0.2-0.5,0.9-0.5,1.1,0l1.5,4.7c0.1,0.2,0.3,0.4,0.6,0.4h4.5c0.6,0,0.8,0.7,0.4,1.1l-4,3
				c-0.2,0.2-0.3,0.4-0.2,0.7l1.8,4.6c0.2,0.5-0.4,1-0.9,0.7l-4.2-2.8c-0.2-0.1-0.4-0.1-0.6,0l-3.5,1.7c-0.5,0.2-1-0.2-0.8-0.7
				l1-3.5c0.1-0.2,0-0.5-0.2-0.6l-3.2-2.8c-0.4-0.3-0.2-1,0.3-1l4.1-0.3C1171.6,546.7,1171.8,546.6,1171.8,546.4z"/>
			<path class="st6" d="M1199.6,522.9l-2-4.8c-0.2-0.5-0.9-0.5-1.1,0l-1.5,4.7c-0.1,0.2-0.3,0.4-0.6,0.4h-4.5
				c-0.6,0-0.8,0.7-0.4,1.1l4,3c0.2,0.2,0.3,0.4,0.2,0.7l-1.8,4.6c-0.2,0.5,0.4,1,0.9,0.7l4.2-2.8c0.2-0.1,0.4-0.1,0.6,0l3.5,1.7
				c0.5,0.2,1-0.2,0.8-0.7l-1-3.5c-0.1-0.2,0-0.5,0.2-0.6l3.2-2.8c0.4-0.3,0.2-1-0.3-1l-4.1-0.3
				C1199.9,523.2,1199.7,523.1,1199.6,522.9z"/>
			<path class="st6" d="M1168.5,576.6l-2-4.8c-0.2-0.5-0.9-0.5-1.1,0l-1.5,4.7c-0.1,0.2-0.3,0.4-0.6,0.4h-4.5
				c-0.6,0-0.8,0.7-0.4,1.1l4,3c0.2,0.2,0.3,0.4,0.2,0.7l-1.8,4.6c-0.2,0.5,0.4,1,0.9,0.7l4.2-2.8c0.2-0.1,0.4-0.1,0.6,0l3.5,1.7
				c0.5,0.2,1-0.2,0.8-0.7l-1-3.5c-0.1-0.2,0-0.5,0.2-0.6l3.2-2.8c0.4-0.3,0.2-1-0.3-1l-4.1-0.3
				C1168.8,577,1168.6,576.8,1168.5,576.6z"/>
		</g>
		<g>
			<path class="st29" d="M1359,766.9h-279.8c-6.3,0-11.3-5.1-11.3-11.3V615.1c0-6.3,5.1-11.3,11.3-11.3H1359
				c6.3,0,11.3,5.1,11.3,11.3v140.5C1370.4,761.9,1365.3,766.9,1359,766.9z"/>
			<path class="st25" d="M1220.4,754.8v-85.4c0-0.2,0.1-0.4,0.1-0.6c1.2-2.2,10.3-17.5,29.2-26c0.3-0.1,0.7-0.1,1,0
				c3.1,1.4,19.9,9.8,29.2,26.7c0.1,0.2,0.1,0.4,0.1,0.6v85.4c0,0.7-0.5,1.2-1.2,1.2l-57.4-0.6
				C1220.9,756,1220.4,755.5,1220.4,754.8z"/>
			<path class="st27" d="M1224.3,683.9c0,0,10.9-24.3,25.6-29.3c0.2-0.1,0.5-0.1,0.7,0c2.1,0.6,13,4.8,25.3,29.4"/>
			<path class="st26" d="M1260.9,648.8v-10.9c0-0.2,0-0.3,0.1-0.5c0.8-1.9,7-15.3,24-21.9c0.3-0.1,0.6-0.1,0.9,0
				c2.8,1.3,17.2,8.4,22.6,21.3c0.1,0.1,0.1,0.3,0.1,0.5v118.1c0,0.7-0.5,1.2-1.2,1.2h-27.2"/>
			<path class="st11" d="M1163.5,617.1l0.6,8c0.1,0.9,1.1,1.4,1.8,0.9c3.4-2.2,11.2-6.2,14.1,1.2c3.4,8.8-14.2,24.4-17.1,26.9
				c-0.3,0.2-0.4,0.6-0.4,0.9v7.2c0,0.7,0.5,1.2,1.2,1.2h29.5c0.7,0,1.2-0.5,1.2-1.2v-7.1c0-0.7-0.5-1.2-1.2-1.2l-14-0.1
				c-1.1,0-1.6-1.3-0.8-2c5-4.7,16.4-16.9,13.8-28.1c-3.2-13.7-19.7-10.9-27.9-7.8C1163.7,616.1,1163.4,616.6,1163.5,617.1z"/>
			<path class="st11" d="M1230.1,639.6c-0.6-28.2-14-26.3-16.5-26.3c-4.2,0-15-0.6-16.1,25.3c-1.1,25.9,16.1,25,16.1,25
				S1230.7,665.7,1230.1,639.6z M1218.6,638.4c0,17-3.8,17.1-4.5,17.1s-5.9,0.6-5.4-16.8c0.5-18,5.3-17.1,5.3-17.1
				S1218.9,621,1218.6,638.4z"/>
			<path class="st11" d="M1096.7,729.2l0.3,3.7c0.1,0.9,1,1.4,1.8,0.9c2.3-1.3,6.3-3,7.9,1.1c2,5.2-8,14.2-10.2,16.1
				c-0.3,0.2-0.4,0.6-0.4,0.9v3.7c0,0.7,0.5,1.2,1.2,1.2h16.9c0.7,0,1.2-0.5,1.2-1.2v-3.4c0-0.7-0.5-1.2-1.2-1.2l-6.9-0.1
				c-1,0-1.6-1.3-0.8-2c3.3-3.3,9-10,7.5-16.2c-1.9-8.1-11.5-6.7-16.5-4.9C1096.9,728.2,1096.6,728.7,1096.7,729.2z"/>
			<path class="st11" d="M1136.9,742.5c-0.4-17.1-8.5-15.9-10-15.9c-2.5,0-9-0.4-9.7,15.3s9.7,15.1,9.7,15.1
				S1137.3,758.2,1136.9,742.5z M1130,741.7c0,10.3-2.3,10.3-2.7,10.3c-0.4,0-3.6,0.4-3.3-10.2c0.3-10.9,3.2-10.4,3.2-10.4
				S1130.1,731.2,1130,741.7z"/>
			<path class="st11" d="M1322.6,723.5L1322.6,723.5c0.1,0.7,0.8,1.2,1.4,0.9c0.8-0.3,1.8-0.4,2.2,0.8c0.7,1.8-2.5,4.8-3.6,5.8
				c-0.2,0.2-0.4,0.5-0.4,0.8v0.5c0,0.6,0.5,1.1,1.1,1.1h5.1c0.6,0,1.1-0.5,1.1-1.1v0c0-0.6-0.5-1-1-1.1l-0.6,0
				c-0.9,0-1.4-1-0.8-1.7c1.1-1.3,2.3-3.3,1.9-5.1c-0.6-2.8-3.7-2.5-5.6-2C1322.9,722.6,1322.6,723,1322.6,723.5z"/>
			<path class="st11" d="M1333.8,722.1c-0.9,0-3.4-0.1-3.6,5.7s3.6,5.6,3.6,5.6s3.8,0.4,3.7-5.4
				C1337.4,721.7,1334.4,722.1,1333.8,722.1z M1334,731.6c-0.1,0-1.3,0.1-1.2-3.8c0.1-4,1.2-3.8,1.2-3.8s1.1-0.1,1,3.8
				C1335,731.5,1334.1,731.6,1334,731.6z"/>
			<path class="st6" d="M1226.8,620.5l2-4.8c0.2-0.5,0.9-0.5,1.1,0l1.5,4.7c0.1,0.2,0.3,0.4,0.6,0.4h4.5c0.6,0,0.8,0.7,0.4,1.1l-4,3
				c-0.2,0.2-0.3,0.4-0.2,0.7l1.8,4.6c0.2,0.5-0.4,1-0.9,0.7l-4.2-2.8c-0.2-0.1-0.4-0.1-0.6,0l-3.5,1.7c-0.5,0.2-1-0.2-0.8-0.7
				l1-3.5c0.1-0.2,0-0.5-0.2-0.6l-3.2-2.8c-0.4-0.3-0.2-1,0.3-1l4.1-0.3C1226.5,620.9,1226.7,620.7,1226.8,620.5z"/>
			<path class="st6" d="M1171.8,714.7l2-4.8c0.2-0.5,0.9-0.5,1.1,0l1.5,4.7c0.1,0.2,0.3,0.4,0.6,0.4h4.5c0.6,0,0.8,0.7,0.4,1.1l-4,3
				c-0.2,0.2-0.3,0.4-0.2,0.7l1.8,4.6c0.2,0.5-0.4,1-0.9,0.7l-4.2-2.8c-0.2-0.1-0.4-0.1-0.6,0l-3.5,1.7c-0.5,0.2-1-0.2-0.8-0.7
				l1-3.5c0.1-0.2,0-0.5-0.2-0.6l-3.2-2.8c-0.4-0.3-0.2-1,0.3-1l4.1-0.3C1171.6,715.1,1171.8,714.9,1171.8,714.7z"/>
			<path class="st6" d="M1171.8,652.9l2-4.8c0.2-0.5,0.9-0.5,1.1,0l1.5,4.7c0.1,0.2,0.3,0.4,0.6,0.4h4.5c0.6,0,0.8,0.7,0.4,1.1l-4,3
				c-0.2,0.2-0.3,0.4-0.2,0.7l1.8,4.6c0.2,0.5-0.4,1-0.9,0.7l-4.2-2.8c-0.2-0.1-0.4-0.1-0.6,0l-3.5,1.7c-0.5,0.2-1-0.2-0.8-0.7
				l1-3.5c0.1-0.2,0-0.5-0.2-0.6l-3.2-2.8c-0.4-0.3-0.2-1,0.3-1l4.1-0.3C1171.6,653.2,1171.8,653.1,1171.8,652.9z"/>
			<path class="st6" d="M1199.6,629.4l-2-4.8c-0.2-0.5-0.9-0.5-1.1,0l-1.5,4.7c-0.1,0.2-0.3,0.4-0.6,0.4h-4.5
				c-0.6,0-0.8,0.7-0.4,1.1l4,3c0.2,0.2,0.3,0.4,0.2,0.7l-1.8,4.6c-0.2,0.5,0.4,1,0.9,0.7l4.2-2.8c0.2-0.1,0.4-0.1,0.6,0l3.5,1.7
				c0.5,0.2,1-0.2,0.8-0.7l-1-3.5c-0.1-0.2,0-0.5,0.2-0.6l3.2-2.8c0.4-0.3,0.2-1-0.3-1l-4.1-0.3
				C1199.9,629.7,1199.7,629.6,1199.6,629.4z"/>
			<path class="st6" d="M1168.5,683.2l-2-4.8c-0.2-0.5-0.9-0.5-1.1,0l-1.5,4.7c-0.1,0.2-0.3,0.4-0.6,0.4h-4.5
				c-0.6,0-0.8,0.7-0.4,1.1l4,3c0.2,0.2,0.3,0.4,0.2,0.7l-1.8,4.6c-0.2,0.5,0.4,1,0.9,0.7l4.2-2.8c0.2-0.1,0.4-0.1,0.6,0l3.5,1.7
				c0.5,0.2,1-0.2,0.8-0.7l-1-3.5c-0.1-0.2,0-0.5,0.2-0.6l3.2-2.8c0.4-0.3,0.2-1-0.3-1l-4.1-0.3
				C1168.8,683.5,1168.6,683.4,1168.5,683.2z"/>
		</g>
	</g>
</g>
</svg>
