<?xml version="1.0" encoding="utf-8"?>
<!-- Generator: Adobe Illustrator 19.1.0, SVG Export Plug-In . SVG Version: 6.00 Build 0)  -->
<svg version="1.1" id="Ebene_1" xmlns="http://www.w3.org/2000/svg" xmlns:xlink="http://www.w3.org/1999/xlink" x="0px" y="0px"
	 viewBox="0 0 1403.1 807.9" style="enable-background:new 0 0 1403.1 807.9;" xml:space="preserve">
<style type="text/css">
	.st0{fill:#312783;stroke:#FFFFFF;stroke-width:6;stroke-miterlimit:10;}
	.st1{fill:none;stroke:#F39200;stroke-width:5;stroke-miterlimit:10;}
	.st2{fill:none;stroke:#F39200;stroke-width:4;stroke-linecap:round;stroke-miterlimit:10;}
	.st3{fill:none;stroke:#F39200;stroke-width:5;stroke-linecap:round;stroke-miterlimit:10;}
	.st4{fill:#F39200;}
	.st5{fill:#312783;}
	.st6{fill:#E30613;}
	.st7{display:none;}
	.st8{display:none;fill:#D42016;stroke:#941914;stroke-miterlimit:10;}
	.st9{display:none;fill:#294B9B;}
	.st10{fill:#294B9B;}
	.st11{fill:#F9B233;}
	.st12{fill:#27348B;}
	.st13{fill:#27348B;stroke:#FFFFFF;stroke-width:4;stroke-miterlimit:10;}
	.st14{fill:#E6332A;}
	.st15{fill:#F39200;stroke:#27348B;stroke-miterlimit:10;}
	.st16{fill:none;stroke:#27348B;stroke-miterlimit:10;}
	.st17{fill:#F39200;stroke:#FFFFFF;stroke-width:5;stroke-miterlimit:10;}
	.st18{fill:#27348B;stroke:#FFFFFF;stroke-width:5;stroke-miterlimit:10;}
	.st19{fill:none;stroke:#27348B;stroke-width:5;stroke-miterlimit:10;}
	.st20{fill:#F39200;stroke:#27348B;stroke-width:3;stroke-miterlimit:10;}
	.st21{fill:#F39200;stroke:#FFFFFF;stroke-width:4;stroke-miterlimit:10;}
	.st22{fill:#E30613;stroke:#FFFFFF;stroke-width:5;stroke-miterlimit:10;}
	.st23{fill:none;stroke:#FFFFFF;stroke-width:4;stroke-miterlimit:10;}
	.st24{fill:#FFFFFF;stroke:#F39200;stroke-miterlimit:10;}
	.st25{fill:#27348B;stroke:#FFFFFF;stroke-width:6;stroke-miterlimit:10;}
</style>
<g>
	<g>
		<path class="st25" d="M323.9,346.9H44.1c-6.3,0-11.3-5.1-11.3-11.3V195c0-6.3,5.1-11.3,11.3-11.3h279.8c6.3,0,11.3,5.1,11.3,11.3
			v140.5C335.3,341.8,330.2,346.9,323.9,346.9z"/>
		<path class="st1" d="M185.3,334.8v-85.4c0-0.2,0.1-0.4,0.1-0.6c1.2-2.2,10.3-17.5,29.2-26c0.3-0.1,0.7-0.1,1,0
			c3.1,1.4,19.9,9.8,29.2,26.7c0.1,0.2,0.1,0.4,0.1,0.6v85.4c0,0.7-0.5,1.2-1.2,1.2l-57.4-0.6C185.8,336,185.3,335.4,185.3,334.8z"
			/>
		<path class="st2" d="M189.3,263.9c0,0,10.9-24.3,25.6-29.3c0.2-0.1,0.5-0.1,0.7,0c2.1,0.6,13,4.8,25.3,29.4"/>
		<path class="st3" d="M225.8,228.7v-10.9c0-0.2,0-0.3,0.1-0.5c0.8-1.9,7-15.3,24-21.9c0.3-0.1,0.6-0.1,0.9,0
			c2.8,1.3,17.2,8.4,22.6,21.3c0.1,0.1,0.1,0.3,0.1,0.5v118.1c0,0.7-0.5,1.2-1.2,1.2H245"/>
		<path class="st4" d="M128.4,197.1l0.6,8c0.1,0.9,1.1,1.4,1.8,0.9c3.4-2.2,11.2-6.2,14.1,1.2c3.4,8.8-14.2,24.4-17.1,26.9
			c-0.3,0.2-0.4,0.6-0.4,0.9v7.2c0,0.7,0.5,1.2,1.2,1.2h29.5c0.7,0,1.2-0.5,1.2-1.2v-7.1c0-0.7-0.5-1.2-1.2-1.2l-14-0.1
			c-1.1,0-1.6-1.3-0.8-2c5-4.7,16.4-16.9,13.8-28.1c-3.2-13.7-19.7-10.9-27.9-7.8C128.6,196.1,128.3,196.6,128.4,197.1z"/>
		<path class="st4" d="M178.5,193.3c2.5,0,15.9-1.9,16.5,26.3c0.6,26-16.5,24.1-16.5,24.1s-17.3,0.9-16.1-25
			S174.3,193.3,178.5,193.3z"/>
		<path class="st5" d="M178.9,201.5c0,0,4.9-0.6,4.6,16.9c0,17-3.8,17.1-4.5,17.1s-5.9,0.6-5.4-16.8
			C174.1,200.7,178.9,201.5,178.9,201.5z"/>
		<path class="st4" d="M61.6,309.1l0.3,3.7c0.1,0.9,1,1.4,1.8,0.9c2.3-1.3,6.3-3,7.9,1.1c2,5.2-8,14.2-10.2,16.1
			c-0.3,0.2-0.4,0.6-0.4,0.9v3.7c0,0.7,0.5,1.2,1.2,1.2H79c0.7,0,1.2-0.5,1.2-1.2v-3.4c0-0.7-0.5-1.2-1.2-1.2l-6.9-0.1
			c-1,0-1.6-1.3-0.8-2c3.3-3.3,9-10,7.5-16.2c-1.9-8.1-11.5-6.7-16.5-4.9C61.9,308.1,61.5,308.6,61.6,309.1z"/>
		<path class="st4" d="M91.9,306.5c1.5,0,9.6-1.2,10,15.9c0.4,15.7-10,14.6-10,14.6s-10.4,0.5-9.7-15.1
			C82.8,306.2,89.3,306.5,91.9,306.5z"/>
		<path class="st5" d="M92.1,311.5c0,0,3-0.3,2.8,10.2c0,10.3-2.3,10.3-2.7,10.3s-3.6,0.4-3.3-10.2C89.2,311,92.1,311.5,92.1,311.5z
			"/>
		<path class="st4" d="M287.5,303.5L287.5,303.5c0.1,0.7,0.8,1.2,1.4,0.9c0.8-0.3,1.8-0.4,2.2,0.8c0.7,1.8-2.5,4.8-3.6,5.8
			c-0.2,0.2-0.4,0.5-0.4,0.8v0.5c0,0.6,0.5,1.1,1.1,1.1h5.1c0.6,0,1.1-0.5,1.1-1.1v0c0-0.6-0.5-1-1-1.1l-0.6,0c-0.9,0-1.4-1-0.8-1.7
			c1.1-1.3,2.3-3.3,1.9-5.1c-0.6-2.8-3.7-2.5-5.6-2C287.8,302.5,287.5,303,287.5,303.5z"/>
		<path class="st4" d="M298.8,302c0.6,0,3.6-0.4,3.7,5.9c0.1,5.9-3.7,5.4-3.7,5.4s-3.9,0.2-3.6-5.6C295.4,301.9,297.8,302,298.8,302
			z"/>
		<path class="st5" d="M298.8,303.9c0,0,1.1-0.1,1,3.8c0,3.8-0.9,3.8-1,3.8c-0.1,0-1.3,0.1-1.2-3.8
			C297.8,303.7,298.8,303.9,298.8,303.9z"/>
		<path class="st6" d="M191.7,200.5l2-4.8c0.2-0.5,0.9-0.5,1.1,0l1.5,4.7c0.1,0.2,0.3,0.4,0.6,0.4h4.5c0.6,0,0.8,0.7,0.4,1.1l-4,3
			c-0.2,0.2-0.3,0.4-0.2,0.7l1.8,4.6c0.2,0.5-0.4,1-0.9,0.7l-4.2-2.8c-0.2-0.1-0.4-0.1-0.6,0l-3.5,1.7c-0.5,0.2-1-0.2-0.8-0.7l1-3.5
			c0.1-0.2,0-0.5-0.2-0.6l-3.2-2.8c-0.4-0.3-0.2-1,0.3-1l4.1-0.3C191.4,200.8,191.6,200.7,191.7,200.5z"/>
		<path class="st6" d="M136.7,294.7l2-4.8c0.2-0.5,0.9-0.5,1.1,0l1.5,4.7c0.1,0.2,0.3,0.4,0.6,0.4h4.5c0.6,0,0.8,0.7,0.4,1.1l-4,3
			c-0.2,0.2-0.3,0.4-0.2,0.7l1.8,4.6c0.2,0.5-0.4,1-0.9,0.7l-4.2-2.8c-0.2-0.1-0.4-0.1-0.6,0l-3.5,1.7c-0.5,0.2-1-0.2-0.8-0.7l1-3.5
			c0.1-0.2,0-0.5-0.2-0.6l-3.2-2.8c-0.4-0.3-0.2-1,0.3-1l4.1-0.3C136.5,295,136.7,294.9,136.7,294.7z"/>
		<path class="st6" d="M136.7,232.8l2-4.8c0.2-0.5,0.9-0.5,1.1,0l1.5,4.7c0.1,0.2,0.3,0.4,0.6,0.4h4.5c0.6,0,0.8,0.7,0.4,1.1l-4,3
			c-0.2,0.2-0.3,0.4-0.2,0.7l1.8,4.6c0.2,0.5-0.4,1-0.9,0.7l-4.2-2.8c-0.2-0.1-0.4-0.1-0.6,0l-3.5,1.7c-0.5,0.2-1-0.2-0.8-0.7l1-3.5
			c0.1-0.2,0-0.5-0.2-0.6l-3.2-2.8c-0.4-0.3-0.2-1,0.3-1l4.1-0.3C136.5,233.2,136.7,233.1,136.7,232.8z"/>
		<path class="st6" d="M164.5,209.3l-2-4.8c-0.2-0.5-0.9-0.5-1.1,0l-1.5,4.7c-0.1,0.2-0.3,0.4-0.6,0.4h-4.5c-0.6,0-0.8,0.7-0.4,1.1
			l4,3c0.2,0.2,0.3,0.4,0.2,0.7L157,219c-0.2,0.5,0.4,1,0.9,0.7l4.2-2.8c0.2-0.1,0.4-0.1,0.6,0l3.5,1.7c0.5,0.2,1-0.2,0.8-0.7
			l-1-3.5c-0.1-0.2,0-0.5,0.2-0.6l3.2-2.8c0.4-0.3,0.2-1-0.3-1l-4.1-0.3C164.8,209.7,164.6,209.6,164.5,209.3z"/>
		<path class="st6" d="M133.4,263.1l-2-4.8c-0.2-0.5-0.9-0.5-1.1,0l-1.5,4.7c-0.1,0.2-0.3,0.4-0.6,0.4h-4.5c-0.6,0-0.8,0.7-0.4,1.1
			l4,3c0.2,0.2,0.3,0.4,0.2,0.7l-1.8,4.6c-0.2,0.5,0.4,1,0.9,0.7l4.2-2.8c0.2-0.1,0.4-0.1,0.6,0l3.5,1.7c0.5,0.2,1-0.2,0.8-0.7
			l-1-3.5c-0.1-0.2,0-0.5,0.2-0.6l3.2-2.8c0.4-0.3,0.2-1-0.3-1l-4.1-0.3C133.7,263.5,133.5,263.3,133.4,263.1z"/>
	</g>
	<g>
		<path class="st25" d="M323.9,453.4H44.1c-6.3,0-11.3-5.1-11.3-11.3V301.5c0-6.3,5.1-11.3,11.3-11.3h279.8
			c6.3,0,11.3,5.1,11.3,11.3v140.5C335.3,448.3,330.2,453.4,323.9,453.4z"/>
		<path class="st1" d="M185.3,441.3v-85.4c0-0.2,0.1-0.4,0.1-0.6c1.2-2.2,10.3-17.5,29.2-26c0.3-0.1,0.7-0.1,1,0
			c3.1,1.4,19.9,9.8,29.2,26.7c0.1,0.2,0.1,0.4,0.1,0.6v85.4c0,0.7-0.5,1.2-1.2,1.2l-57.4-0.6C185.8,442.5,185.3,442,185.3,441.3z"
			/>
		<path class="st2" d="M189.3,370.4c0,0,10.9-24.3,25.6-29.3c0.2-0.1,0.5-0.1,0.7,0c2.1,0.6,13,4.8,25.3,29.4"/>
		<path class="st3" d="M225.8,335.3v-10.9c0-0.2,0-0.3,0.1-0.5c0.8-1.9,7-15.3,24-21.9c0.3-0.1,0.6-0.1,0.9,0
			c2.8,1.3,17.2,8.4,22.6,21.3c0.1,0.1,0.1,0.3,0.1,0.5v118.1c0,0.7-0.5,1.2-1.2,1.2H245"/>
		<path class="st4" d="M128.4,303.6l0.6,8c0.1,0.9,1.1,1.4,1.8,0.9c3.4-2.2,11.2-6.2,14.1,1.2c3.4,8.8-14.2,24.4-17.1,26.9
			c-0.3,0.2-0.4,0.6-0.4,0.9v7.2c0,0.7,0.5,1.2,1.2,1.2h29.5c0.7,0,1.2-0.5,1.2-1.2v-7.1c0-0.7-0.5-1.2-1.2-1.2l-14-0.1
			c-1.1,0-1.6-1.3-0.8-2c5-4.7,16.4-16.9,13.8-28.1c-3.2-13.7-19.7-10.9-27.9-7.8C128.6,302.6,128.3,303.1,128.4,303.6z"/>
		<path class="st4" d="M178.5,299.9c2.5,0,15.9-1.9,16.5,26.3c0.6,26-16.5,24.1-16.5,24.1s-17.3,0.9-16.1-25
			C163.6,299.3,174.3,299.9,178.5,299.9z"/>
		<path class="st5" d="M178.9,308c0,0,4.9-0.6,4.6,16.9c0,17-3.8,17.1-4.5,17.1s-5.9,0.6-5.4-16.8C174.1,307.2,178.9,308,178.9,308z
			"/>
		<path class="st4" d="M61.6,415.7l0.3,3.7c0.1,0.9,1,1.4,1.8,0.9c2.3-1.3,6.3-3,7.9,1.1c2,5.2-8,14.2-10.2,16.1
			c-0.3,0.2-0.4,0.6-0.4,0.9v3.7c0,0.7,0.5,1.2,1.2,1.2H79c0.7,0,1.2-0.5,1.2-1.2v-3.4c0-0.7-0.5-1.2-1.2-1.2l-6.9-0.1
			c-1,0-1.6-1.3-0.8-2c3.3-3.3,9-10,7.5-16.2c-1.9-8.1-11.5-6.7-16.5-4.9C61.9,414.6,61.5,415.1,61.6,415.7z"/>
		<path class="st4" d="M91.9,413.1c1.5,0,9.6-1.2,10,15.9c0.4,15.7-10,14.6-10,14.6s-10.4,0.5-9.7-15.1
			C82.8,412.7,89.3,413.1,91.9,413.1z"/>
		<path class="st5" d="M92.1,418c0,0,3-0.3,2.8,10.2c0,10.3-2.3,10.3-2.7,10.3s-3.6,0.4-3.3-10.2C89.2,417.5,92.1,418,92.1,418z"/>
		<path class="st4" d="M287.5,410L287.5,410c0.1,0.7,0.8,1.2,1.4,0.9c0.8-0.3,1.8-0.4,2.2,0.8c0.7,1.8-2.5,4.8-3.6,5.8
			c-0.2,0.2-0.4,0.5-0.4,0.8v0.5c0,0.6,0.5,1.1,1.1,1.1h5.1c0.6,0,1.1-0.5,1.1-1.1v0c0-0.6-0.5-1-1-1.1l-0.6,0c-0.9,0-1.4-1-0.8-1.7
			c1.1-1.3,2.3-3.3,1.9-5.1c-0.6-2.8-3.7-2.5-5.6-2C287.8,409.1,287.5,409.5,287.5,410z"/>
		<path class="st4" d="M298.8,408.6c0.6,0,3.6-0.4,3.7,5.9c0.1,5.9-3.7,5.4-3.7,5.4s-3.9,0.2-3.6-5.6
			C295.4,408.4,297.8,408.6,298.8,408.6z"/>
		<path class="st5" d="M298.8,410.4c0,0,1.1-0.1,1,3.8c0,3.8-0.9,3.8-1,3.8c-0.1,0-1.3,0.1-1.2-3.8
			C297.8,410.2,298.8,410.4,298.8,410.4z"/>
		<path class="st6" d="M191.7,307l2-4.8c0.2-0.5,0.9-0.5,1.1,0l1.5,4.7c0.1,0.2,0.3,0.4,0.6,0.4h4.5c0.6,0,0.8,0.7,0.4,1.1l-4,3
			c-0.2,0.2-0.3,0.4-0.2,0.7l1.8,4.6c0.2,0.5-0.4,1-0.9,0.7l-4.2-2.8c-0.2-0.1-0.4-0.1-0.6,0l-3.5,1.7c-0.5,0.2-1-0.2-0.8-0.7l1-3.5
			c0.1-0.2,0-0.5-0.2-0.6l-3.2-2.8c-0.4-0.3-0.2-1,0.3-1l4.1-0.3C191.4,307.3,191.6,307.2,191.7,307z"/>
		<path class="st6" d="M136.7,401.2l2-4.8c0.2-0.5,0.9-0.5,1.1,0l1.5,4.7c0.1,0.2,0.3,0.4,0.6,0.4h4.5c0.6,0,0.8,0.7,0.4,1.1l-4,3
			c-0.2,0.2-0.3,0.4-0.2,0.7l1.8,4.6c0.2,0.5-0.4,1-0.9,0.7l-4.2-2.8c-0.2-0.1-0.4-0.1-0.6,0l-3.5,1.7c-0.5,0.2-1-0.2-0.8-0.7l1-3.5
			c0.1-0.2,0-0.5-0.2-0.6l-3.2-2.8c-0.4-0.3-0.2-1,0.3-1l4.1-0.3C136.5,401.6,136.7,401.4,136.7,401.2z"/>
		<path class="st6" d="M136.7,339.4l2-4.8c0.2-0.5,0.9-0.5,1.1,0l1.5,4.7c0.1,0.2,0.3,0.4,0.6,0.4h4.5c0.6,0,0.8,0.7,0.4,1.1l-4,3
			c-0.2,0.2-0.3,0.4-0.2,0.7l1.8,4.6c0.2,0.5-0.4,1-0.9,0.7l-4.2-2.8c-0.2-0.1-0.4-0.1-0.6,0l-3.5,1.7c-0.5,0.2-1-0.2-0.8-0.7l1-3.5
			c0.1-0.2,0-0.5-0.2-0.6l-3.2-2.8c-0.4-0.3-0.2-1,0.3-1l4.1-0.3C136.5,339.7,136.7,339.6,136.7,339.4z"/>
		<path class="st6" d="M164.5,315.9l-2-4.8c-0.2-0.5-0.9-0.5-1.1,0l-1.5,4.7c-0.1,0.2-0.3,0.4-0.6,0.4h-4.5c-0.6,0-0.8,0.7-0.4,1.1
			l4,3c0.2,0.2,0.3,0.4,0.2,0.7l-1.8,4.6c-0.2,0.5,0.4,1,0.9,0.7l4.2-2.8c0.2-0.1,0.4-0.1,0.6,0l3.5,1.7c0.5,0.2,1-0.2,0.8-0.7
			l-1-3.5c-0.1-0.2,0-0.5,0.2-0.6l3.2-2.8c0.4-0.3,0.2-1-0.3-1l-4.1-0.3C164.8,316.2,164.6,316.1,164.5,315.9z"/>
		<path class="st6" d="M133.4,369.6l-2-4.8c-0.2-0.5-0.9-0.5-1.1,0l-1.5,4.7c-0.1,0.2-0.3,0.4-0.6,0.4h-4.5c-0.6,0-0.8,0.7-0.4,1.1
			l4,3c0.2,0.2,0.3,0.4,0.2,0.7l-1.8,4.6c-0.2,0.5,0.4,1,0.9,0.7l4.2-2.8c0.2-0.1,0.4-0.1,0.6,0l3.5,1.7c0.5,0.2,1-0.2,0.8-0.7
			l-1-3.5c-0.1-0.2,0-0.5,0.2-0.6l3.2-2.8c0.4-0.3,0.2-1-0.3-1l-4.1-0.3C133.7,370,133.5,369.9,133.4,369.6z"/>
	</g>
	<g>
		<path class="st25" d="M323.9,559.9H44.1c-6.3,0-11.3-5.1-11.3-11.3V408.1c0-6.3,5.1-11.3,11.3-11.3h279.8
			c6.3,0,11.3,5.1,11.3,11.3v140.5C335.3,554.9,330.2,559.9,323.9,559.9z"/>
		<path class="st1" d="M185.3,547.9v-85.4c0-0.2,0.1-0.4,0.1-0.6c1.2-2.2,10.3-17.5,29.2-26c0.3-0.1,0.7-0.1,1,0
			c3.1,1.4,19.9,9.8,29.2,26.7c0.1,0.2,0.1,0.4,0.1,0.6v85.4c0,0.7-0.5,1.2-1.2,1.2l-57.4-0.6C185.8,549,185.3,548.5,185.3,547.9z"
			/>
		<path class="st2" d="M189.3,477c0,0,10.9-24.3,25.6-29.3c0.2-0.1,0.5-0.1,0.7,0c2.1,0.6,13,4.8,25.3,29.4"/>
		<path class="st3" d="M225.8,441.8v-10.9c0-0.2,0-0.3,0.1-0.5c0.8-1.9,7-15.3,24-21.9c0.3-0.1,0.6-0.1,0.9,0
			c2.8,1.3,17.2,8.4,22.6,21.3c0.1,0.1,0.1,0.3,0.1,0.5v118.1c0,0.7-0.5,1.2-1.2,1.2H245"/>
		<path class="st4" d="M128.4,410.1l0.6,8c0.1,0.9,1.1,1.4,1.8,0.9c3.4-2.2,11.2-6.2,14.1,1.2c3.4,8.8-14.2,24.4-17.1,26.9
			c-0.3,0.2-0.4,0.6-0.4,0.9v7.2c0,0.7,0.5,1.2,1.2,1.2h29.5c0.7,0,1.2-0.5,1.2-1.2v-7.1c0-0.7-0.5-1.2-1.2-1.2l-14-0.1
			c-1.1,0-1.6-1.3-0.8-2c5-4.7,16.4-16.9,13.8-28.1c-3.2-13.7-19.7-10.9-27.9-7.8C128.6,409.1,128.3,409.6,128.4,410.1z"/>
		<path class="st4" d="M178.5,406.4c2.5,0,15.9-1.9,16.5,26.3c0.6,26-16.5,24.1-16.5,24.1s-17.3,0.9-16.1-25
			C163.6,405.8,174.3,406.4,178.5,406.4z"/>
		<path class="st5" d="M178.9,414.6c0,0,4.9-0.6,4.6,16.9c0,17-3.8,17.1-4.5,17.1s-5.9,0.6-5.4-16.8
			C174.1,413.7,178.9,414.6,178.9,414.6z"/>
		<path class="st4" d="M61.6,522.2l0.3,3.7c0.1,0.9,1,1.4,1.8,0.9c2.3-1.3,6.3-3,7.9,1.1c2,5.2-8,14.2-10.2,16.1
			c-0.3,0.2-0.4,0.6-0.4,0.9v3.7c0,0.7,0.5,1.2,1.2,1.2H79c0.7,0,1.2-0.5,1.2-1.2v-3.4c0-0.7-0.5-1.2-1.2-1.2l-6.9-0.1
			c-1,0-1.6-1.3-0.8-2c3.3-3.3,9-10,7.5-16.2c-1.9-8.1-11.5-6.7-16.5-4.9C61.9,521.2,61.5,521.7,61.6,522.2z"/>
		<path class="st4" d="M91.9,519.6c1.5,0,9.6-1.2,10,15.9c0.4,15.7-10,14.6-10,14.6s-10.4,0.5-9.7-15.1
			C82.8,519.2,89.3,519.6,91.9,519.6z"/>
		<path class="st5" d="M92.1,524.5c0,0,3-0.3,2.8,10.2c0,10.3-2.3,10.3-2.7,10.3s-3.6,0.4-3.3-10.2C89.2,524,92.1,524.5,92.1,524.5z
			"/>
		<path class="st4" d="M287.5,516.6L287.5,516.6c0.1,0.7,0.8,1.2,1.4,0.9c0.8-0.3,1.8-0.4,2.2,0.8c0.7,1.8-2.5,4.8-3.6,5.8
			c-0.2,0.2-0.4,0.5-0.4,0.8v0.5c0,0.6,0.5,1.1,1.1,1.1h5.1c0.6,0,1.1-0.5,1.1-1.1v0c0-0.6-0.5-1-1-1.1l-0.6,0c-0.9,0-1.4-1-0.8-1.7
			c1.1-1.3,2.3-3.3,1.9-5.1c-0.6-2.8-3.7-2.5-5.6-2C287.8,515.6,287.5,516.1,287.5,516.6z"/>
		<path class="st4" d="M298.8,515.1c0.6,0,3.6-0.4,3.7,5.9c0.1,5.9-3.7,5.4-3.7,5.4s-3.9,0.2-3.6-5.6
			C295.4,515,297.8,515.1,298.8,515.1z"/>
		<path class="st5" d="M298.8,516.9c0,0,1.1-0.1,1,3.8c0,3.8-0.9,3.8-1,3.8c-0.1,0-1.3,0.1-1.2-3.8
			C297.8,516.7,298.8,516.9,298.8,516.9z"/>
		<path class="st6" d="M191.7,413.5l2-4.8c0.2-0.5,0.9-0.5,1.1,0l1.5,4.7c0.1,0.2,0.3,0.4,0.6,0.4h4.5c0.6,0,0.8,0.7,0.4,1.1l-4,3
			c-0.2,0.2-0.3,0.4-0.2,0.7l1.8,4.6c0.2,0.5-0.4,1-0.9,0.7l-4.2-2.8c-0.2-0.1-0.4-0.1-0.6,0l-3.5,1.7c-0.5,0.2-1-0.2-0.8-0.7l1-3.5
			c0.1-0.2,0-0.5-0.2-0.6l-3.2-2.8c-0.4-0.3-0.2-1,0.3-1l4.1-0.3C191.4,413.9,191.6,413.7,191.7,413.5z"/>
		<path class="st6" d="M136.7,507.7l2-4.8c0.2-0.5,0.9-0.5,1.1,0l1.5,4.7c0.1,0.2,0.3,0.4,0.6,0.4h4.5c0.6,0,0.8,0.7,0.4,1.1l-4,3
			c-0.2,0.2-0.3,0.4-0.2,0.7l1.8,4.6c0.2,0.5-0.4,1-0.9,0.7l-4.2-2.8c-0.2-0.1-0.4-0.1-0.6,0l-3.5,1.7c-0.5,0.2-1-0.2-0.8-0.7l1-3.5
			c0.1-0.2,0-0.5-0.2-0.6l-3.2-2.8c-0.4-0.3-0.2-1,0.3-1l4.1-0.3C136.5,508.1,136.7,507.9,136.7,507.7z"/>
		<path class="st6" d="M136.7,445.9l2-4.8c0.2-0.5,0.9-0.5,1.1,0l1.5,4.7c0.1,0.2,0.3,0.4,0.6,0.4h4.5c0.6,0,0.8,0.7,0.4,1.1l-4,3
			c-0.2,0.2-0.3,0.4-0.2,0.7l1.8,4.6c0.2,0.5-0.4,1-0.9,0.7l-4.2-2.8c-0.2-0.1-0.4-0.1-0.6,0l-3.5,1.7c-0.5,0.2-1-0.2-0.8-0.7l1-3.5
			c0.1-0.2,0-0.5-0.2-0.6l-3.2-2.8c-0.4-0.3-0.2-1,0.3-1l4.1-0.3C136.5,446.2,136.7,446.1,136.7,445.9z"/>
		<path class="st6" d="M164.5,422.4l-2-4.8c-0.2-0.5-0.9-0.5-1.1,0l-1.5,4.7c-0.1,0.2-0.3,0.4-0.6,0.4h-4.5c-0.6,0-0.8,0.7-0.4,1.1
			l4,3c0.2,0.2,0.3,0.4,0.2,0.7l-1.8,4.6c-0.2,0.5,0.4,1,0.9,0.7l4.2-2.8c0.2-0.1,0.4-0.1,0.6,0l3.5,1.7c0.5,0.2,1-0.2,0.8-0.7
			l-1-3.5c-0.1-0.2,0-0.5,0.2-0.6l3.2-2.8c0.4-0.3,0.2-1-0.3-1l-4.1-0.3C164.8,422.8,164.6,422.6,164.5,422.4z"/>
		<path class="st6" d="M133.4,476.2l-2-4.8c-0.2-0.5-0.9-0.5-1.1,0l-1.5,4.7c-0.1,0.2-0.3,0.4-0.6,0.4h-4.5c-0.6,0-0.8,0.7-0.4,1.1
			l4,3c0.2,0.2,0.3,0.4,0.2,0.7l-1.8,4.6c-0.2,0.5,0.4,1,0.9,0.7l4.2-2.8c0.2-0.1,0.4-0.1,0.6,0l3.5,1.7c0.5,0.2,1-0.2,0.8-0.7
			l-1-3.5c-0.1-0.2,0-0.5,0.2-0.6l3.2-2.8c0.4-0.3,0.2-1-0.3-1l-4.1-0.3C133.7,476.5,133.5,476.4,133.4,476.2z"/>
	</g>
	<g>
		<path class="st25" d="M323.9,666.5H44.1c-6.3,0-11.3-5.1-11.3-11.3V514.6c0-6.3,5.1-11.3,11.3-11.3h279.8
			c6.3,0,11.3,5.1,11.3,11.3v140.5C335.3,661.4,330.2,666.5,323.9,666.5z"/>
		<path class="st1" d="M185.3,654.4v-85.4c0-0.2,0.1-0.4,0.1-0.6c1.2-2.2,10.3-17.5,29.2-26c0.3-0.1,0.7-0.1,1,0
			c3.1,1.4,19.9,9.8,29.2,26.7c0.1,0.2,0.1,0.4,0.1,0.6V655c0,0.7-0.5,1.2-1.2,1.2l-57.4-0.6C185.8,655.6,185.3,655,185.3,654.4z"/>
		<path class="st2" d="M189.3,583.5c0,0,10.9-24.3,25.6-29.3c0.2-0.1,0.5-0.1,0.7,0c2.1,0.6,13,4.8,25.3,29.4"/>
		<path class="st3" d="M225.8,548.3v-10.9c0-0.2,0-0.3,0.1-0.5c0.8-1.9,7-15.3,24-21.9c0.3-0.1,0.6-0.1,0.9,0
			c2.8,1.3,17.2,8.4,22.6,21.3c0.1,0.1,0.1,0.3,0.1,0.5V655c0,0.7-0.5,1.2-1.2,1.2H245"/>
		<path class="st4" d="M128.4,516.7l0.6,8c0.1,0.9,1.1,1.4,1.8,0.9c3.4-2.2,11.2-6.2,14.1,1.2c3.4,8.8-14.2,24.4-17.1,26.9
			c-0.3,0.2-0.4,0.6-0.4,0.9v7.2c0,0.7,0.5,1.2,1.2,1.2h29.5c0.7,0,1.2-0.5,1.2-1.2v-7.1c0-0.7-0.5-1.2-1.2-1.2l-14-0.1
			c-1.1,0-1.6-1.3-0.8-2c5-4.7,16.4-16.9,13.8-28.1c-3.2-13.7-19.7-10.9-27.9-7.8C128.6,515.7,128.3,516.1,128.4,516.7z"/>
		<path class="st4" d="M178.5,512.9c2.5,0,15.9-1.9,16.5,26.3c0.6,26-16.5,24.1-16.5,24.1s-17.3,0.9-16.1-25
			C163.6,512.3,174.3,512.9,178.5,512.9z"/>
		<path class="st5" d="M178.9,521.1c0,0,4.9-0.6,4.6,16.9c0,17-3.8,17.1-4.5,17.1s-5.9,0.6-5.4-16.8
			C174.1,520.2,178.9,521.1,178.9,521.1z"/>
		<path class="st4" d="M61.6,628.7l0.3,3.7c0.1,0.9,1,1.4,1.8,0.9c2.3-1.3,6.3-3,7.9,1.1c2,5.2-8,14.2-10.2,16.1
			c-0.3,0.2-0.4,0.6-0.4,0.9v3.7c0,0.7,0.5,1.2,1.2,1.2H79c0.7,0,1.2-0.5,1.2-1.2v-3.4c0-0.7-0.5-1.2-1.2-1.2l-6.9-0.1
			c-1,0-1.6-1.3-0.8-2c3.3-3.3,9-10,7.5-16.2c-1.9-8.1-11.5-6.7-16.5-4.9C61.9,627.7,61.5,628.2,61.6,628.7z"/>
		<path class="st4" d="M91.9,626.1c1.5,0,9.6-1.2,10,15.9c0.4,15.7-10,14.6-10,14.6s-10.4,0.5-9.7-15.1
			C82.8,625.8,89.3,626.1,91.9,626.1z"/>
		<path class="st5" d="M92.1,631c0,0,3-0.3,2.8,10.2c0,10.3-2.3,10.3-2.7,10.3s-3.6,0.4-3.3-10.2C89.2,630.5,92.1,631,92.1,631z"/>
		<path class="st4" d="M287.5,623.1L287.5,623.1c0.1,0.7,0.8,1.2,1.4,0.9c0.8-0.3,1.8-0.4,2.2,0.8c0.7,1.8-2.5,4.8-3.6,5.8
			c-0.2,0.2-0.4,0.5-0.4,0.8v0.5c0,0.6,0.5,1.1,1.1,1.1h5.1c0.6,0,1.1-0.5,1.1-1.1v0c0-0.6-0.5-1-1-1.1l-0.6,0c-0.9,0-1.4-1-0.8-1.7
			c1.1-1.3,2.3-3.3,1.9-5.1c-0.6-2.8-3.7-2.5-5.6-2C287.8,622.1,287.5,622.6,287.5,623.1z"/>
		<path class="st4" d="M298.8,621.6c0.6,0,3.6-0.4,3.7,5.9c0.1,5.9-3.7,5.4-3.7,5.4s-3.9,0.2-3.6-5.6
			C295.4,621.5,297.8,621.6,298.8,621.6z"/>
		<path class="st5" d="M298.8,623.5c0,0,1.1-0.1,1,3.8c0,3.8-0.9,3.8-1,3.8c-0.1,0-1.3,0.1-1.2-3.8
			C297.8,623.3,298.8,623.5,298.8,623.5z"/>
		<path class="st6" d="M191.7,520l2-4.8c0.2-0.5,0.9-0.5,1.1,0l1.5,4.7c0.1,0.2,0.3,0.4,0.6,0.4h4.5c0.6,0,0.8,0.7,0.4,1.1l-4,3
			c-0.2,0.2-0.3,0.4-0.2,0.7l1.8,4.6c0.2,0.5-0.4,1-0.9,0.7l-4.2-2.8c-0.2-0.1-0.4-0.1-0.6,0l-3.5,1.7c-0.5,0.2-1-0.2-0.8-0.7l1-3.5
			c0.1-0.2,0-0.5-0.2-0.6l-3.2-2.8c-0.4-0.3-0.2-1,0.3-1l4.1-0.3C191.4,520.4,191.6,520.3,191.7,520z"/>
		<path class="st6" d="M136.7,614.3l2-4.8c0.2-0.5,0.9-0.5,1.1,0l1.5,4.7c0.1,0.2,0.3,0.4,0.6,0.4h4.5c0.6,0,0.8,0.7,0.4,1.1l-4,3
			c-0.2,0.2-0.3,0.4-0.2,0.7l1.8,4.6c0.2,0.5-0.4,1-0.9,0.7l-4.2-2.8c-0.2-0.1-0.4-0.1-0.6,0l-3.5,1.7c-0.5,0.2-1-0.2-0.8-0.7l1-3.5
			c0.1-0.2,0-0.5-0.2-0.6l-3.2-2.8c-0.4-0.3-0.2-1,0.3-1l4.1-0.3C136.5,614.6,136.7,614.5,136.7,614.3z"/>
		<path class="st6" d="M136.7,552.4l2-4.8c0.2-0.5,0.9-0.5,1.1,0l1.5,4.7c0.1,0.2,0.3,0.4,0.6,0.4h4.5c0.6,0,0.8,0.7,0.4,1.1l-4,3
			c-0.2,0.2-0.3,0.4-0.2,0.7l1.8,4.6c0.2,0.5-0.4,1-0.9,0.7l-4.2-2.8c-0.2-0.1-0.4-0.1-0.6,0l-3.5,1.7c-0.5,0.2-1-0.2-0.8-0.7l1-3.5
			c0.1-0.2,0-0.5-0.2-0.6l-3.2-2.8c-0.4-0.3-0.2-1,0.3-1l4.1-0.3C136.5,552.8,136.7,552.6,136.7,552.4z"/>
		<path class="st6" d="M164.5,528.9l-2-4.8c-0.2-0.5-0.9-0.5-1.1,0l-1.5,4.7c-0.1,0.2-0.3,0.4-0.6,0.4h-4.5c-0.6,0-0.8,0.7-0.4,1.1
			l4,3c0.2,0.2,0.3,0.4,0.2,0.7l-1.8,4.6c-0.2,0.5,0.4,1,0.9,0.7l4.2-2.8c0.2-0.1,0.4-0.1,0.6,0l3.5,1.7c0.5,0.2,1-0.2,0.8-0.7
			l-1-3.5c-0.1-0.2,0-0.5,0.2-0.6l3.2-2.8c0.4-0.3,0.2-1-0.3-1l-4.1-0.3C164.8,529.3,164.6,529.1,164.5,528.9z"/>
		<path class="st6" d="M133.4,582.7l-2-4.8c-0.2-0.5-0.9-0.5-1.1,0l-1.5,4.7c-0.1,0.2-0.3,0.4-0.6,0.4h-4.5c-0.6,0-0.8,0.7-0.4,1.1
			l4,3c0.2,0.2,0.3,0.4,0.2,0.7l-1.8,4.6c-0.2,0.5,0.4,1,0.9,0.7l4.2-2.8c0.2-0.1,0.4-0.1,0.6,0l3.5,1.7c0.5,0.2,1-0.2,0.8-0.7
			l-1-3.5c-0.1-0.2,0-0.5,0.2-0.6l3.2-2.8c0.4-0.3,0.2-1-0.3-1l-4.1-0.3C133.7,583.1,133.5,582.9,133.4,582.7z"/>
	</g>
	<g>
		<path class="st25" d="M323.9,773H44.1c-6.3,0-11.3-5.1-11.3-11.3V621.1c0-6.3,5.1-11.3,11.3-11.3h279.8c6.3,0,11.3,5.1,11.3,11.3
			v140.5C335.3,767.9,330.2,773,323.9,773z"/>
		<path class="st1" d="M185.3,760.9v-85.4c0-0.2,0.1-0.4,0.1-0.6c1.2-2.2,10.3-17.5,29.2-26c0.3-0.1,0.7-0.1,1,0
			c3.1,1.4,19.9,9.8,29.2,26.7c0.1,0.2,0.1,0.4,0.1,0.6v85.4c0,0.7-0.5,1.2-1.2,1.2l-57.4-0.6C185.8,762.1,185.3,761.6,185.3,760.9z
			"/>
		<path class="st2" d="M189.3,690c0,0,10.9-24.3,25.6-29.3c0.2-0.1,0.5-0.1,0.7,0c2.1,0.6,13,4.8,25.3,29.4"/>
		<path class="st3" d="M225.8,654.9V644c0-0.2,0-0.3,0.1-0.5c0.8-1.9,7-15.3,24-21.9c0.3-0.1,0.6-0.1,0.9,0
			c2.8,1.3,17.2,8.4,22.6,21.3c0.1,0.1,0.1,0.3,0.1,0.5v118.1c0,0.7-0.5,1.2-1.2,1.2H245"/>
		<path class="st4" d="M128.4,623.2l0.6,8c0.1,0.9,1.1,1.4,1.8,0.9c3.4-2.2,11.2-6.2,14.1,1.2c3.4,8.8-14.2,24.4-17.1,26.9
			c-0.3,0.2-0.4,0.6-0.4,0.9v7.2c0,0.7,0.5,1.2,1.2,1.2h29.5c0.7,0,1.2-0.5,1.2-1.2v-7.1c0-0.7-0.5-1.2-1.2-1.2l-14-0.1
			c-1.1,0-1.6-1.3-0.8-2c5-4.7,16.4-16.9,13.8-28.1c-3.2-13.7-19.7-10.9-27.9-7.8C128.6,622.2,128.3,622.7,128.4,623.2z"/>
		<path class="st4" d="M178.5,619.5c2.5,0,15.9-1.9,16.5,26.3c0.6,26-16.5,24.1-16.5,24.1s-17.3,0.9-16.1-25
			C163.6,618.9,174.3,619.5,178.5,619.5z"/>
		<path class="st5" d="M178.9,627.6c0,0,4.9-0.6,4.6,16.9c0,17-3.8,17.1-4.5,17.1s-5.9,0.6-5.4-16.8
			C174.1,626.8,178.9,627.6,178.9,627.6z"/>
		<path class="st4" d="M61.6,735.3l0.3,3.7c0.1,0.9,1,1.4,1.8,0.9c2.3-1.3,6.3-3,7.9,1.1c2,5.2-8,14.2-10.2,16.1
			c-0.3,0.2-0.4,0.6-0.4,0.9v3.7c0,0.7,0.5,1.2,1.2,1.2H79c0.7,0,1.2-0.5,1.2-1.2v-3.4c0-0.7-0.5-1.2-1.2-1.2l-6.9-0.1
			c-1,0-1.6-1.3-0.8-2c3.3-3.3,9-10,7.5-16.2c-1.9-8.1-11.5-6.7-16.5-4.9C61.9,734.2,61.5,734.7,61.6,735.3z"/>
		<path class="st4" d="M91.9,732.6c1.5,0,9.6-1.2,10,15.9c0.4,15.7-10,14.6-10,14.6s-10.4,0.5-9.7-15.1
			C82.8,732.3,89.3,732.6,91.9,732.6z"/>
		<path class="st5" d="M92.1,737.6c0,0,3-0.3,2.8,10.2c0,10.3-2.3,10.3-2.7,10.3s-3.6,0.4-3.3-10.2
			C89.2,737.1,92.1,737.6,92.1,737.6z"/>
		<path class="st4" d="M287.5,729.6L287.5,729.6c0.1,0.7,0.8,1.2,1.4,0.9c0.8-0.3,1.8-0.4,2.2,0.8c0.7,1.8-2.5,4.8-3.6,5.8
			c-0.2,0.2-0.4,0.5-0.4,0.8v0.5c0,0.6,0.5,1.1,1.1,1.1h5.1c0.6,0,1.1-0.5,1.1-1.1v0c0-0.6-0.5-1-1-1.1l-0.6,0c-0.9,0-1.4-1-0.8-1.7
			c1.1-1.3,2.3-3.3,1.9-5.1c-0.6-2.8-3.7-2.5-5.6-2C287.8,728.7,287.5,729.1,287.5,729.6z"/>
		<path class="st4" d="M298.8,728.2c0.6,0,3.6-0.4,3.7,5.9c0.1,5.9-3.7,5.4-3.7,5.4s-3.9,0.2-3.6-5.6
			C295.4,728,297.8,728.2,298.8,728.2z"/>
		<path class="st5" d="M298.8,730c0,0,1.1-0.1,1,3.8c0,3.8-0.9,3.8-1,3.8c-0.1,0-1.3,0.1-1.2-3.8C297.8,729.8,298.8,730,298.8,730z"
			/>
		<path class="st6" d="M191.7,626.6l2-4.8c0.2-0.5,0.9-0.5,1.1,0l1.5,4.7c0.1,0.2,0.3,0.4,0.6,0.4h4.5c0.6,0,0.8,0.7,0.4,1.1l-4,3
			c-0.2,0.2-0.3,0.4-0.2,0.7l1.8,4.6c0.2,0.5-0.4,1-0.9,0.7l-4.2-2.8c-0.2-0.1-0.4-0.1-0.6,0l-3.5,1.7c-0.5,0.2-1-0.2-0.8-0.7l1-3.5
			c0.1-0.2,0-0.5-0.2-0.6l-3.2-2.8c-0.4-0.3-0.2-1,0.3-1l4.1-0.3C191.4,626.9,191.6,626.8,191.7,626.6z"/>
		<path class="st6" d="M136.7,720.8l2-4.8c0.2-0.5,0.9-0.5,1.1,0l1.5,4.7c0.1,0.2,0.3,0.4,0.6,0.4h4.5c0.6,0,0.8,0.7,0.4,1.1l-4,3
			c-0.2,0.2-0.3,0.4-0.2,0.7l1.8,4.6c0.2,0.5-0.4,1-0.9,0.7l-4.2-2.8c-0.2-0.1-0.4-0.1-0.6,0l-3.5,1.7c-0.5,0.2-1-0.2-0.8-0.7l1-3.5
			c0.1-0.2,0-0.5-0.2-0.6l-3.2-2.8c-0.4-0.3-0.2-1,0.3-1l4.1-0.3C136.5,721.1,136.7,721,136.7,720.8z"/>
		<path class="st6" d="M136.7,659l2-4.8c0.2-0.5,0.9-0.5,1.1,0l1.5,4.7c0.1,0.2,0.3,0.4,0.6,0.4h4.5c0.6,0,0.8,0.7,0.4,1.1l-4,3
			c-0.2,0.2-0.3,0.4-0.2,0.7l1.8,4.6c0.2,0.5-0.4,1-0.9,0.7l-4.2-2.8c-0.2-0.1-0.4-0.1-0.6,0l-3.5,1.7c-0.5,0.2-1-0.2-0.8-0.7l1-3.5
			c0.1-0.2,0-0.5-0.2-0.6l-3.2-2.8c-0.4-0.3-0.2-1,0.3-1l4.1-0.3C136.5,659.3,136.7,659.2,136.7,659z"/>
		<path class="st6" d="M164.5,635.5l-2-4.8c-0.2-0.5-0.9-0.5-1.1,0l-1.5,4.7c-0.1,0.2-0.3,0.4-0.6,0.4h-4.5c-0.6,0-0.8,0.7-0.4,1.1
			l4,3c0.2,0.2,0.3,0.4,0.2,0.7l-1.8,4.6c-0.2,0.5,0.4,1,0.9,0.7l4.2-2.8c0.2-0.1,0.4-0.1,0.6,0l3.5,1.7c0.5,0.2,1-0.2,0.8-0.7
			l-1-3.5c-0.1-0.2,0-0.5,0.2-0.6l3.2-2.8c0.4-0.3,0.2-1-0.3-1l-4.1-0.3C164.8,635.8,164.6,635.7,164.5,635.5z"/>
		<path class="st6" d="M133.4,689.2l-2-4.8c-0.2-0.5-0.9-0.5-1.1,0l-1.5,4.7c-0.1,0.2-0.3,0.4-0.6,0.4h-4.5c-0.6,0-0.8,0.7-0.4,1.1
			l4,3c0.2,0.2,0.3,0.4,0.2,0.7l-1.8,4.6c-0.2,0.5,0.4,1,0.9,0.7l4.2-2.8c0.2-0.1,0.4-0.1,0.6,0l3.5,1.7c0.5,0.2,1-0.2,0.8-0.7
			l-1-3.5c-0.1-0.2,0-0.5,0.2-0.6l3.2-2.8c0.4-0.3,0.2-1-0.3-1l-4.1-0.3C133.7,689.6,133.5,689.4,133.4,689.2z"/>
	</g>
</g>
<g>
	<g>
		<path class="st25" d="M669,346.9H389.1c-6.3,0-11.3-5.1-11.3-11.3V195c0-6.3,5.1-11.3,11.3-11.3H669c6.3,0,11.3,5.1,11.3,11.3
			v140.5C680.3,341.8,675.2,346.9,669,346.9z"/>
		<path class="st1" d="M530.3,334.8v-85.4c0-0.2,0.1-0.4,0.1-0.6c1.2-2.2,10.3-17.5,29.2-26c0.3-0.1,0.7-0.1,1,0
			c3.1,1.4,19.9,9.8,29.2,26.7c0.1,0.2,0.1,0.4,0.1,0.6v85.4c0,0.7-0.5,1.2-1.2,1.2l-57.4-0.6C530.8,336,530.3,335.4,530.3,334.8z"
			/>
		<path class="st2" d="M534.3,263.9c0,0,10.9-24.3,25.6-29.3c0.2-0.1,0.5-0.1,0.7,0c2.1,0.6,13,4.8,25.3,29.4"/>
		<path class="st3" d="M570.8,228.7v-10.9c0-0.2,0-0.3,0.1-0.5c0.8-1.9,7-15.3,24-21.9c0.3-0.1,0.6-0.1,0.9,0
			c2.8,1.3,17.2,8.4,22.6,21.3c0.1,0.1,0.1,0.3,0.1,0.5v118.1c0,0.7-0.5,1.2-1.2,1.2h-27.2"/>
		<path class="st4" d="M473.4,197.1l0.6,8c0.1,0.9,1.1,1.4,1.8,0.9c3.4-2.2,11.2-6.2,14.1,1.2c3.4,8.8-14.2,24.4-17.1,26.9
			c-0.3,0.2-0.4,0.6-0.4,0.9v7.2c0,0.7,0.5,1.2,1.2,1.2h29.5c0.7,0,1.2-0.5,1.2-1.2v-7.1c0-0.7-0.5-1.2-1.2-1.2l-14-0.1
			c-1.1,0-1.6-1.3-0.8-2c5-4.7,16.4-16.9,13.8-28.1c-3.2-13.7-19.7-10.9-27.9-7.8C473.7,196.1,473.4,196.6,473.4,197.1z"/>
		<path class="st4" d="M523.5,193.3c2.5,0,15.9-1.9,16.5,26.3c0.6,26-16.5,24.1-16.5,24.1s-17.3,0.9-16.1-25
			S519.3,193.3,523.5,193.3z"/>
		<path class="st5" d="M523.9,201.5c0,0,4.9-0.6,4.6,16.9c0,17-3.8,17.1-4.5,17.1s-5.9,0.6-5.4-16.8
			C519.1,200.7,523.9,201.5,523.9,201.5z"/>
		<path class="st4" d="M406.6,309.1l0.3,3.7c0.1,0.9,1,1.4,1.8,0.9c2.3-1.3,6.3-3,7.9,1.1c2,5.2-8,14.2-10.2,16.1
			c-0.3,0.2-0.4,0.6-0.4,0.9v3.7c0,0.7,0.5,1.2,1.2,1.2h16.9c0.7,0,1.2-0.5,1.2-1.2v-3.4c0-0.7-0.5-1.2-1.2-1.2l-6.9-0.1
			c-1,0-1.6-1.3-0.8-2c3.3-3.3,9-10,7.5-16.2c-1.9-8.1-11.5-6.7-16.5-4.9C406.9,308.1,406.6,308.6,406.6,309.1z"/>
		<path class="st4" d="M436.9,306.5c1.5,0,9.6-1.2,10,15.9c0.4,15.7-10,14.6-10,14.6s-10.4,0.5-9.7-15.1
			C427.9,306.2,434.4,306.5,436.9,306.5z"/>
		<path class="st5" d="M437.1,311.5c0,0,3-0.3,2.8,10.2c0,10.3-2.3,10.3-2.7,10.3s-3.6,0.4-3.3-10.2
			C434.2,311,437.1,311.5,437.1,311.5z"/>
		<path class="st4" d="M632.6,303.5L632.6,303.5c0.1,0.7,0.8,1.2,1.4,0.9c0.8-0.3,1.8-0.4,2.2,0.8c0.7,1.8-2.5,4.8-3.6,5.8
			c-0.2,0.2-0.4,0.5-0.4,0.8v0.5c0,0.6,0.5,1.1,1.1,1.1h5.1c0.6,0,1.1-0.5,1.1-1.1v0c0-0.6-0.5-1-1-1.1l-0.6,0c-0.9,0-1.4-1-0.8-1.7
			c1.1-1.3,2.3-3.3,1.9-5.1c-0.6-2.8-3.7-2.5-5.6-2C632.8,302.5,632.5,303,632.6,303.5z"/>
		<path class="st4" d="M643.8,302c0.6,0,3.6-0.4,3.7,5.9c0.1,5.9-3.7,5.4-3.7,5.4s-3.9,0.2-3.6-5.6C640.4,301.9,642.8,302,643.8,302
			z"/>
		<path class="st5" d="M643.9,303.9c0,0,1.1-0.1,1,3.8c0,3.8-0.9,3.8-1,3.8c-0.1,0-1.3,0.1-1.2-3.8
			C642.8,303.7,643.9,303.9,643.9,303.9z"/>
		<path class="st6" d="M536.7,200.5l2-4.8c0.2-0.5,0.9-0.5,1.1,0l1.5,4.7c0.1,0.2,0.3,0.4,0.6,0.4h4.5c0.6,0,0.8,0.7,0.4,1.1l-4,3
			c-0.2,0.2-0.3,0.4-0.2,0.7l1.8,4.6c0.2,0.5-0.4,1-0.9,0.7l-4.2-2.8c-0.2-0.1-0.4-0.1-0.6,0l-3.5,1.7c-0.5,0.2-1-0.2-0.8-0.7l1-3.5
			c0.1-0.2,0-0.5-0.2-0.6l-3.2-2.8c-0.4-0.3-0.2-1,0.3-1l4.1-0.3C536.4,200.8,536.6,200.7,536.7,200.5z"/>
		<path class="st6" d="M481.8,294.7l2-4.8c0.2-0.5,0.9-0.5,1.1,0l1.5,4.7c0.1,0.2,0.3,0.4,0.6,0.4h4.5c0.6,0,0.8,0.7,0.4,1.1l-4,3
			c-0.2,0.2-0.3,0.4-0.2,0.7l1.8,4.6c0.2,0.5-0.4,1-0.9,0.7l-4.2-2.8c-0.2-0.1-0.4-0.1-0.6,0l-3.5,1.7c-0.5,0.2-1-0.2-0.8-0.7l1-3.5
			c0.1-0.2,0-0.5-0.2-0.6l-3.2-2.8c-0.4-0.3-0.2-1,0.3-1l4.1-0.3C481.5,295,481.7,294.9,481.8,294.7z"/>
		<path class="st6" d="M481.8,232.8l2-4.8c0.2-0.5,0.9-0.5,1.1,0l1.5,4.7c0.1,0.2,0.3,0.4,0.6,0.4h4.5c0.6,0,0.8,0.7,0.4,1.1l-4,3
			c-0.2,0.2-0.3,0.4-0.2,0.7l1.8,4.6c0.2,0.5-0.4,1-0.9,0.7l-4.2-2.8c-0.2-0.1-0.4-0.1-0.6,0l-3.5,1.7c-0.5,0.2-1-0.2-0.8-0.7l1-3.5
			c0.1-0.2,0-0.5-0.2-0.6l-3.2-2.8c-0.4-0.3-0.2-1,0.3-1l4.1-0.3C481.5,233.2,481.7,233.1,481.8,232.8z"/>
		<path class="st6" d="M509.5,209.3l-2-4.8c-0.2-0.5-0.9-0.5-1.1,0l-1.5,4.7c-0.1,0.2-0.3,0.4-0.6,0.4h-4.5c-0.6,0-0.8,0.7-0.4,1.1
			l4,3c0.2,0.2,0.3,0.4,0.2,0.7L502,219c-0.2,0.5,0.4,1,0.9,0.7l4.2-2.8c0.2-0.1,0.4-0.1,0.6,0l3.5,1.7c0.5,0.2,1-0.2,0.8-0.7
			l-1-3.5c-0.1-0.2,0-0.5,0.2-0.6l3.2-2.8c0.4-0.3,0.2-1-0.3-1l-4.1-0.3C509.8,209.7,509.6,209.6,509.5,209.3z"/>
		<path class="st6" d="M478.5,263.1l-2-4.8c-0.2-0.5-0.9-0.5-1.1,0l-1.5,4.7c-0.1,0.2-0.3,0.4-0.6,0.4h-4.5c-0.6,0-0.8,0.7-0.4,1.1
			l4,3c0.2,0.2,0.3,0.4,0.2,0.7l-1.8,4.6c-0.2,0.5,0.4,1,0.9,0.7l4.2-2.8c0.2-0.1,0.4-0.1,0.6,0l3.5,1.7c0.5,0.2,1-0.2,0.8-0.7
			l-1-3.5c-0.1-0.2,0-0.5,0.2-0.6l3.2-2.8c0.4-0.3,0.2-1-0.3-1l-4.1-0.3C478.7,263.5,478.5,263.3,478.5,263.1z"/>
	</g>
	<g>
		<path class="st25" d="M669,453.4H389.1c-6.3,0-11.3-5.1-11.3-11.3V301.5c0-6.3,5.1-11.3,11.3-11.3H669c6.3,0,11.3,5.1,11.3,11.3
			v140.5C680.3,448.3,675.2,453.4,669,453.4z"/>
		<path class="st1" d="M530.3,441.3v-85.4c0-0.2,0.1-0.4,0.1-0.6c1.2-2.2,10.3-17.5,29.2-26c0.3-0.1,0.7-0.1,1,0
			c3.1,1.4,19.9,9.8,29.2,26.7c0.1,0.2,0.1,0.4,0.1,0.6v85.4c0,0.7-0.5,1.2-1.2,1.2l-57.4-0.6C530.8,442.5,530.3,442,530.3,441.3z"
			/>
		<path class="st2" d="M534.3,370.4c0,0,10.9-24.3,25.6-29.3c0.2-0.1,0.5-0.1,0.7,0c2.1,0.6,13,4.8,25.3,29.4"/>
		<path class="st3" d="M570.8,335.3v-10.9c0-0.2,0-0.3,0.1-0.5c0.8-1.9,7-15.3,24-21.9c0.3-0.1,0.6-0.1,0.9,0
			c2.8,1.3,17.2,8.4,22.6,21.3c0.1,0.1,0.1,0.3,0.1,0.5v118.1c0,0.7-0.5,1.2-1.2,1.2h-27.2"/>
		<path class="st4" d="M473.4,303.6l0.6,8c0.1,0.9,1.1,1.4,1.8,0.9c3.4-2.2,11.2-6.2,14.1,1.2c3.4,8.8-14.2,24.4-17.1,26.9
			c-0.3,0.2-0.4,0.6-0.4,0.9v7.2c0,0.7,0.5,1.2,1.2,1.2h29.5c0.7,0,1.2-0.5,1.2-1.2v-7.1c0-0.7-0.5-1.2-1.2-1.2l-14-0.1
			c-1.1,0-1.6-1.3-0.8-2c5-4.7,16.4-16.9,13.8-28.1c-3.2-13.7-19.7-10.9-27.9-7.8C473.7,302.6,473.4,303.1,473.4,303.6z"/>
		<path class="st4" d="M523.5,299.9c2.5,0,15.9-1.9,16.5,26.3c0.6,26-16.5,24.1-16.5,24.1s-17.3,0.9-16.1-25
			S519.3,299.9,523.5,299.9z"/>
		<path class="st5" d="M523.9,308c0,0,4.9-0.6,4.6,16.9c0,17-3.8,17.1-4.5,17.1s-5.9,0.6-5.4-16.8C519.1,307.2,523.9,308,523.9,308z
			"/>
		<path class="st4" d="M406.6,415.7l0.3,3.7c0.1,0.9,1,1.4,1.8,0.9c2.3-1.3,6.3-3,7.9,1.1c2,5.2-8,14.2-10.2,16.1
			c-0.3,0.2-0.4,0.6-0.4,0.9v3.7c0,0.7,0.5,1.2,1.2,1.2h16.9c0.7,0,1.2-0.5,1.2-1.2v-3.4c0-0.7-0.5-1.2-1.2-1.2l-6.9-0.1
			c-1,0-1.6-1.3-0.8-2c3.3-3.3,9-10,7.5-16.2c-1.9-8.1-11.5-6.7-16.5-4.9C406.9,414.6,406.6,415.1,406.6,415.7z"/>
		<path class="st4" d="M436.9,413.1c1.5,0,9.6-1.2,10,15.9c0.4,15.7-10,14.6-10,14.6s-10.4,0.5-9.7-15.1
			C427.9,412.7,434.4,413.1,436.9,413.1z"/>
		<path class="st5" d="M437.1,418c0,0,3-0.3,2.8,10.2c0,10.3-2.3,10.3-2.7,10.3s-3.6,0.4-3.3-10.2C434.2,417.5,437.1,418,437.1,418z
			"/>
		<path class="st4" d="M632.6,410L632.6,410c0.1,0.7,0.8,1.2,1.4,0.9c0.8-0.3,1.8-0.4,2.2,0.8c0.7,1.8-2.5,4.8-3.6,5.8
			c-0.2,0.2-0.4,0.5-0.4,0.8v0.5c0,0.6,0.5,1.1,1.1,1.1h5.1c0.6,0,1.1-0.5,1.1-1.1v0c0-0.6-0.5-1-1-1.1l-0.6,0c-0.9,0-1.4-1-0.8-1.7
			c1.1-1.3,2.3-3.3,1.9-5.1c-0.6-2.8-3.7-2.5-5.6-2C632.8,409.1,632.5,409.5,632.6,410z"/>
		<path class="st4" d="M643.8,408.6c0.6,0,3.6-0.4,3.7,5.9c0.1,5.9-3.7,5.4-3.7,5.4s-3.9,0.2-3.6-5.6
			C640.4,408.4,642.8,408.6,643.8,408.6z"/>
		<path class="st5" d="M643.9,410.4c0,0,1.1-0.1,1,3.8c0,3.8-0.9,3.8-1,3.8c-0.1,0-1.3,0.1-1.2-3.8
			C642.8,410.2,643.9,410.4,643.9,410.4z"/>
		<path class="st6" d="M536.7,307l2-4.8c0.2-0.5,0.9-0.5,1.1,0l1.5,4.7c0.1,0.2,0.3,0.4,0.6,0.4h4.5c0.6,0,0.8,0.7,0.4,1.1l-4,3
			c-0.2,0.2-0.3,0.4-0.2,0.7l1.8,4.6c0.2,0.5-0.4,1-0.9,0.7l-4.2-2.8c-0.2-0.1-0.4-0.1-0.6,0l-3.5,1.7c-0.5,0.2-1-0.2-0.8-0.7l1-3.5
			c0.1-0.2,0-0.5-0.2-0.6l-3.2-2.8c-0.4-0.3-0.2-1,0.3-1l4.1-0.3C536.4,307.3,536.6,307.2,536.7,307z"/>
		<path class="st6" d="M481.8,401.2l2-4.8c0.2-0.5,0.9-0.5,1.1,0l1.5,4.7c0.1,0.2,0.3,0.4,0.6,0.4h4.5c0.6,0,0.8,0.7,0.4,1.1l-4,3
			c-0.2,0.2-0.3,0.4-0.2,0.7l1.8,4.6c0.2,0.5-0.4,1-0.9,0.7l-4.2-2.8c-0.2-0.1-0.4-0.1-0.6,0l-3.5,1.7c-0.5,0.2-1-0.2-0.8-0.7l1-3.5
			c0.1-0.2,0-0.5-0.2-0.6l-3.2-2.8c-0.4-0.3-0.2-1,0.3-1l4.1-0.3C481.5,401.6,481.7,401.4,481.8,401.2z"/>
		<path class="st6" d="M481.8,339.4l2-4.8c0.2-0.5,0.9-0.5,1.1,0l1.5,4.7c0.1,0.2,0.3,0.4,0.6,0.4h4.5c0.6,0,0.8,0.7,0.4,1.1l-4,3
			c-0.2,0.2-0.3,0.4-0.2,0.7l1.8,4.6c0.2,0.5-0.4,1-0.9,0.7l-4.2-2.8c-0.2-0.1-0.4-0.1-0.6,0l-3.5,1.7c-0.5,0.2-1-0.2-0.8-0.7l1-3.5
			c0.1-0.2,0-0.5-0.2-0.6l-3.2-2.8c-0.4-0.3-0.2-1,0.3-1l4.1-0.3C481.5,339.7,481.7,339.6,481.8,339.4z"/>
		<path class="st6" d="M509.5,315.9l-2-4.8c-0.2-0.5-0.9-0.5-1.1,0l-1.5,4.7c-0.1,0.2-0.3,0.4-0.6,0.4h-4.5c-0.6,0-0.8,0.7-0.4,1.1
			l4,3c0.2,0.2,0.3,0.4,0.2,0.7l-1.8,4.6c-0.2,0.5,0.4,1,0.9,0.7l4.2-2.8c0.2-0.1,0.4-0.1,0.6,0l3.5,1.7c0.5,0.2,1-0.2,0.8-0.7
			l-1-3.5c-0.1-0.2,0-0.5,0.2-0.6l3.2-2.8c0.4-0.3,0.2-1-0.3-1l-4.1-0.3C509.8,316.2,509.6,316.1,509.5,315.9z"/>
		<path class="st6" d="M478.5,369.6l-2-4.8c-0.2-0.5-0.9-0.5-1.1,0l-1.5,4.7c-0.1,0.2-0.3,0.4-0.6,0.4h-4.5c-0.6,0-0.8,0.7-0.4,1.1
			l4,3c0.2,0.2,0.3,0.4,0.2,0.7l-1.8,4.6c-0.2,0.5,0.4,1,0.9,0.7l4.2-2.8c0.2-0.1,0.4-0.1,0.6,0l3.5,1.7c0.5,0.2,1-0.2,0.8-0.7
			l-1-3.5c-0.1-0.2,0-0.5,0.2-0.6l3.2-2.8c0.4-0.3,0.2-1-0.3-1L479,370C478.7,370,478.5,369.9,478.5,369.6z"/>
	</g>
	<g>
		<path class="st25" d="M669,559.9H389.1c-6.3,0-11.3-5.1-11.3-11.3V408.1c0-6.3,5.1-11.3,11.3-11.3H669c6.3,0,11.3,5.1,11.3,11.3
			v140.5C680.3,554.9,675.2,559.9,669,559.9z"/>
		<path class="st1" d="M530.3,547.9v-85.4c0-0.2,0.1-0.4,0.1-0.6c1.2-2.2,10.3-17.5,29.2-26c0.3-0.1,0.7-0.1,1,0
			c3.1,1.4,19.9,9.8,29.2,26.7c0.1,0.2,0.1,0.4,0.1,0.6v85.4c0,0.7-0.5,1.2-1.2,1.2l-57.4-0.6C530.8,549,530.3,548.5,530.3,547.9z"
			/>
		<path class="st2" d="M534.3,477c0,0,10.9-24.3,25.6-29.3c0.2-0.1,0.5-0.1,0.7,0c2.1,0.6,13,4.8,25.3,29.4"/>
		<path class="st3" d="M570.8,441.8v-10.9c0-0.2,0-0.3,0.1-0.5c0.8-1.9,7-15.3,24-21.9c0.3-0.1,0.6-0.1,0.9,0
			c2.8,1.3,17.2,8.4,22.6,21.3c0.1,0.1,0.1,0.3,0.1,0.5v118.1c0,0.7-0.5,1.2-1.2,1.2h-27.2"/>
		<path class="st4" d="M473.4,410.1l0.6,8c0.1,0.9,1.1,1.4,1.8,0.9c3.4-2.2,11.2-6.2,14.1,1.2c3.4,8.8-14.2,24.4-17.1,26.9
			c-0.3,0.2-0.4,0.6-0.4,0.9v7.2c0,0.7,0.5,1.2,1.2,1.2h29.5c0.7,0,1.2-0.5,1.2-1.2v-7.1c0-0.7-0.5-1.2-1.2-1.2l-14-0.1
			c-1.1,0-1.6-1.3-0.8-2c5-4.7,16.4-16.9,13.8-28.1c-3.2-13.7-19.7-10.9-27.9-7.8C473.7,409.1,473.4,409.6,473.4,410.1z"/>
		<path class="st4" d="M523.5,406.4c2.5,0,15.9-1.9,16.5,26.3c0.6,26-16.5,24.1-16.5,24.1s-17.3,0.9-16.1-25
			C508.6,405.8,519.3,406.4,523.5,406.4z"/>
		<path class="st5" d="M523.9,414.6c0,0,4.9-0.6,4.6,16.9c0,17-3.8,17.1-4.5,17.1s-5.9,0.6-5.4-16.8
			C519.1,413.7,523.9,414.6,523.9,414.6z"/>
		<path class="st4" d="M406.6,522.2l0.3,3.7c0.1,0.9,1,1.4,1.8,0.9c2.3-1.3,6.3-3,7.9,1.1c2,5.2-8,14.2-10.2,16.1
			c-0.3,0.2-0.4,0.6-0.4,0.9v3.7c0,0.7,0.5,1.2,1.2,1.2h16.9c0.7,0,1.2-0.5,1.2-1.2v-3.4c0-0.7-0.5-1.2-1.2-1.2l-6.9-0.1
			c-1,0-1.6-1.3-0.8-2c3.3-3.3,9-10,7.5-16.2c-1.9-8.1-11.5-6.7-16.5-4.9C406.9,521.2,406.6,521.7,406.6,522.2z"/>
		<path class="st4" d="M436.9,519.6c1.5,0,9.6-1.2,10,15.9c0.4,15.7-10,14.6-10,14.6s-10.4,0.5-9.7-15.1
			C427.9,519.2,434.4,519.6,436.9,519.6z"/>
		<path class="st5" d="M437.1,524.5c0,0,3-0.3,2.8,10.2c0,10.3-2.3,10.3-2.7,10.3s-3.6,0.4-3.3-10.2
			C434.2,524,437.1,524.5,437.1,524.5z"/>
		<path class="st4" d="M632.6,516.6L632.6,516.6c0.1,0.7,0.8,1.2,1.4,0.9c0.8-0.3,1.8-0.4,2.2,0.8c0.7,1.8-2.5,4.8-3.6,5.8
			c-0.2,0.2-0.4,0.5-0.4,0.8v0.5c0,0.6,0.5,1.1,1.1,1.1h5.1c0.6,0,1.1-0.5,1.1-1.1v0c0-0.6-0.5-1-1-1.1l-0.6,0c-0.9,0-1.4-1-0.8-1.7
			c1.1-1.3,2.3-3.3,1.9-5.1c-0.6-2.8-3.7-2.5-5.6-2C632.8,515.6,632.5,516.1,632.6,516.6z"/>
		<path class="st4" d="M643.8,515.1c0.6,0,3.6-0.4,3.7,5.9c0.1,5.9-3.7,5.4-3.7,5.4s-3.9,0.2-3.6-5.6
			C640.4,515,642.8,515.1,643.8,515.1z"/>
		<path class="st5" d="M643.9,516.9c0,0,1.1-0.1,1,3.8c0,3.8-0.9,3.8-1,3.8c-0.1,0-1.3,0.1-1.2-3.8
			C642.8,516.7,643.9,516.9,643.9,516.9z"/>
		<path class="st6" d="M536.7,413.5l2-4.8c0.2-0.5,0.9-0.5,1.1,0l1.5,4.7c0.1,0.2,0.3,0.4,0.6,0.4h4.5c0.6,0,0.8,0.7,0.4,1.1l-4,3
			c-0.2,0.2-0.3,0.4-0.2,0.7l1.8,4.6c0.2,0.5-0.4,1-0.9,0.7l-4.2-2.8c-0.2-0.1-0.4-0.1-0.6,0l-3.5,1.7c-0.5,0.2-1-0.2-0.8-0.7l1-3.5
			c0.1-0.2,0-0.5-0.2-0.6l-3.2-2.8c-0.4-0.3-0.2-1,0.3-1l4.1-0.3C536.4,413.9,536.6,413.7,536.7,413.5z"/>
		<path class="st6" d="M481.8,507.7l2-4.8c0.2-0.5,0.9-0.5,1.1,0l1.5,4.7c0.1,0.2,0.3,0.4,0.6,0.4h4.5c0.6,0,0.8,0.7,0.4,1.1l-4,3
			c-0.2,0.2-0.3,0.4-0.2,0.7l1.8,4.6c0.2,0.5-0.4,1-0.9,0.7l-4.2-2.8c-0.2-0.1-0.4-0.1-0.6,0l-3.5,1.7c-0.5,0.2-1-0.2-0.8-0.7l1-3.5
			c0.1-0.2,0-0.5-0.2-0.6l-3.2-2.8c-0.4-0.3-0.2-1,0.3-1l4.1-0.3C481.5,508.1,481.7,507.9,481.8,507.7z"/>
		<path class="st6" d="M481.8,445.9l2-4.8c0.2-0.5,0.9-0.5,1.1,0l1.5,4.7c0.1,0.2,0.3,0.4,0.6,0.4h4.5c0.6,0,0.8,0.7,0.4,1.1l-4,3
			c-0.2,0.2-0.3,0.4-0.2,0.7l1.8,4.6c0.2,0.5-0.4,1-0.9,0.7l-4.2-2.8c-0.2-0.1-0.4-0.1-0.6,0l-3.5,1.7c-0.5,0.2-1-0.2-0.8-0.7l1-3.5
			c0.1-0.2,0-0.5-0.2-0.6l-3.2-2.8c-0.4-0.3-0.2-1,0.3-1l4.1-0.3C481.5,446.2,481.7,446.1,481.8,445.9z"/>
		<path class="st6" d="M509.5,422.4l-2-4.8c-0.2-0.5-0.9-0.5-1.1,0l-1.5,4.7c-0.1,0.2-0.3,0.4-0.6,0.4h-4.5c-0.6,0-0.8,0.7-0.4,1.1
			l4,3c0.2,0.2,0.3,0.4,0.2,0.7l-1.8,4.6c-0.2,0.5,0.4,1,0.9,0.7l4.2-2.8c0.2-0.1,0.4-0.1,0.6,0l3.5,1.7c0.5,0.2,1-0.2,0.8-0.7
			l-1-3.5c-0.1-0.2,0-0.5,0.2-0.6l3.2-2.8c0.4-0.3,0.2-1-0.3-1l-4.1-0.3C509.8,422.8,509.6,422.6,509.5,422.4z"/>
		<path class="st6" d="M478.5,476.2l-2-4.8c-0.2-0.5-0.9-0.5-1.1,0l-1.5,4.7c-0.1,0.2-0.3,0.4-0.6,0.4h-4.5c-0.6,0-0.8,0.7-0.4,1.1
			l4,3c0.2,0.2,0.3,0.4,0.2,0.7l-1.8,4.6c-0.2,0.5,0.4,1,0.9,0.7l4.2-2.8c0.2-0.1,0.4-0.1,0.6,0l3.5,1.7c0.5,0.2,1-0.2,0.8-0.7
			l-1-3.5c-0.1-0.2,0-0.5,0.2-0.6l3.2-2.8c0.4-0.3,0.2-1-0.3-1l-4.1-0.3C478.7,476.5,478.5,476.4,478.5,476.2z"/>
	</g>
	<g>
		<path class="st25" d="M669,666.5H389.1c-6.3,0-11.3-5.1-11.3-11.3V514.6c0-6.3,5.1-11.3,11.3-11.3H669c6.3,0,11.3,5.1,11.3,11.3
			v140.5C680.3,661.4,675.2,666.5,669,666.5z"/>
		<path class="st1" d="M530.3,654.4v-85.4c0-0.2,0.1-0.4,0.1-0.6c1.2-2.2,10.3-17.5,29.2-26c0.3-0.1,0.7-0.1,1,0
			c3.1,1.4,19.9,9.8,29.2,26.7c0.1,0.2,0.1,0.4,0.1,0.6V655c0,0.7-0.5,1.2-1.2,1.2l-57.4-0.6C530.8,655.6,530.3,655,530.3,654.4z"/>
		<path class="st2" d="M534.3,583.5c0,0,10.9-24.3,25.6-29.3c0.2-0.1,0.5-0.1,0.7,0c2.1,0.6,13,4.8,25.3,29.4"/>
		<path class="st3" d="M570.8,548.3v-10.9c0-0.2,0-0.3,0.1-0.5c0.8-1.9,7-15.3,24-21.9c0.3-0.1,0.6-0.1,0.9,0
			c2.8,1.3,17.2,8.4,22.6,21.3c0.1,0.1,0.1,0.3,0.1,0.5V655c0,0.7-0.5,1.2-1.2,1.2h-27.2"/>
		<path class="st4" d="M473.4,516.7l0.6,8c0.1,0.9,1.1,1.4,1.8,0.9c3.4-2.2,11.2-6.2,14.1,1.2c3.4,8.8-14.2,24.4-17.1,26.9
			c-0.3,0.2-0.4,0.6-0.4,0.9v7.2c0,0.7,0.5,1.2,1.2,1.2h29.5c0.7,0,1.2-0.5,1.2-1.2v-7.1c0-0.7-0.5-1.2-1.2-1.2l-14-0.1
			c-1.1,0-1.6-1.3-0.8-2c5-4.7,16.4-16.9,13.8-28.1c-3.2-13.7-19.7-10.9-27.9-7.8C473.7,515.7,473.4,516.1,473.4,516.7z"/>
		<path class="st4" d="M523.5,512.9c2.5,0,15.9-1.9,16.5,26.3c0.6,26-16.5,24.1-16.5,24.1s-17.3,0.9-16.1-25
			C508.6,512.3,519.3,512.9,523.5,512.9z"/>
		<path class="st5" d="M523.9,521.1c0,0,4.9-0.6,4.6,16.9c0,17-3.8,17.1-4.5,17.1s-5.9,0.6-5.4-16.8
			C519.1,520.2,523.9,521.1,523.9,521.1z"/>
		<path class="st4" d="M406.6,628.7l0.3,3.7c0.1,0.9,1,1.4,1.8,0.9c2.3-1.3,6.3-3,7.9,1.1c2,5.2-8,14.2-10.2,16.1
			c-0.3,0.2-0.4,0.6-0.4,0.9v3.7c0,0.7,0.5,1.2,1.2,1.2h16.9c0.7,0,1.2-0.5,1.2-1.2v-3.4c0-0.7-0.5-1.2-1.2-1.2l-6.9-0.1
			c-1,0-1.6-1.3-0.8-2c3.3-3.3,9-10,7.5-16.2c-1.9-8.1-11.5-6.7-16.5-4.9C406.9,627.7,406.6,628.2,406.6,628.7z"/>
		<path class="st4" d="M436.9,626.1c1.5,0,9.6-1.2,10,15.9c0.4,15.7-10,14.6-10,14.6s-10.4,0.5-9.7-15.1
			C427.9,625.8,434.4,626.1,436.9,626.1z"/>
		<path class="st5" d="M437.1,631c0,0,3-0.3,2.8,10.2c0,10.3-2.3,10.3-2.7,10.3s-3.6,0.4-3.3-10.2C434.2,630.5,437.1,631,437.1,631z
			"/>
		<path class="st4" d="M632.6,623.1L632.6,623.1c0.1,0.7,0.8,1.2,1.4,0.9c0.8-0.3,1.8-0.4,2.2,0.8c0.7,1.8-2.5,4.8-3.6,5.8
			c-0.2,0.2-0.4,0.5-0.4,0.8v0.5c0,0.6,0.5,1.1,1.1,1.1h5.1c0.6,0,1.1-0.5,1.1-1.1v0c0-0.6-0.5-1-1-1.1l-0.6,0c-0.9,0-1.4-1-0.8-1.7
			c1.1-1.3,2.3-3.3,1.9-5.1c-0.6-2.8-3.7-2.5-5.6-2C632.8,622.1,632.5,622.6,632.6,623.1z"/>
		<path class="st4" d="M643.8,621.6c0.6,0,3.6-0.4,3.7,5.9c0.1,5.9-3.7,5.4-3.7,5.4s-3.9,0.2-3.6-5.6
			C640.4,621.5,642.8,621.6,643.8,621.6z"/>
		<path class="st5" d="M643.9,623.5c0,0,1.1-0.1,1,3.8c0,3.8-0.9,3.8-1,3.8c-0.1,0-1.3,0.1-1.2-3.8
			C642.8,623.3,643.9,623.5,643.9,623.5z"/>
		<path class="st6" d="M536.7,520l2-4.8c0.2-0.5,0.9-0.5,1.1,0l1.5,4.7c0.1,0.2,0.3,0.4,0.6,0.4h4.5c0.6,0,0.8,0.7,0.4,1.1l-4,3
			c-0.2,0.2-0.3,0.4-0.2,0.7l1.8,4.6c0.2,0.5-0.4,1-0.9,0.7l-4.2-2.8c-0.2-0.1-0.4-0.1-0.6,0l-3.5,1.7c-0.5,0.2-1-0.2-0.8-0.7l1-3.5
			c0.1-0.2,0-0.5-0.2-0.6l-3.2-2.8c-0.4-0.3-0.2-1,0.3-1l4.1-0.3C536.4,520.4,536.6,520.3,536.7,520z"/>
		<path class="st6" d="M481.8,614.3l2-4.8c0.2-0.5,0.9-0.5,1.1,0l1.5,4.7c0.1,0.2,0.3,0.4,0.6,0.4h4.5c0.6,0,0.8,0.7,0.4,1.1l-4,3
			c-0.2,0.2-0.3,0.4-0.2,0.7l1.8,4.6c0.2,0.5-0.4,1-0.9,0.7l-4.2-2.8c-0.2-0.1-0.4-0.1-0.6,0l-3.5,1.7c-0.5,0.2-1-0.2-0.8-0.7l1-3.5
			c0.1-0.2,0-0.5-0.2-0.6l-3.2-2.8c-0.4-0.3-0.2-1,0.3-1l4.1-0.3C481.5,614.6,481.7,614.5,481.8,614.3z"/>
		<path class="st6" d="M481.8,552.4l2-4.8c0.2-0.5,0.9-0.5,1.1,0l1.5,4.7c0.1,0.2,0.3,0.4,0.6,0.4h4.5c0.6,0,0.8,0.7,0.4,1.1l-4,3
			c-0.2,0.2-0.3,0.4-0.2,0.7l1.8,4.6c0.2,0.5-0.4,1-0.9,0.7l-4.2-2.8c-0.2-0.1-0.4-0.1-0.6,0l-3.5,1.7c-0.5,0.2-1-0.2-0.8-0.7l1-3.5
			c0.1-0.2,0-0.5-0.2-0.6l-3.2-2.8c-0.4-0.3-0.2-1,0.3-1l4.1-0.3C481.5,552.8,481.7,552.6,481.8,552.4z"/>
		<path class="st6" d="M509.5,528.9l-2-4.8c-0.2-0.5-0.9-0.5-1.1,0l-1.5,4.7c-0.1,0.2-0.3,0.4-0.6,0.4h-4.5c-0.6,0-0.8,0.7-0.4,1.1
			l4,3c0.2,0.2,0.3,0.4,0.2,0.7l-1.8,4.6c-0.2,0.5,0.4,1,0.9,0.7l4.2-2.8c0.2-0.1,0.4-0.1,0.6,0l3.5,1.7c0.5,0.2,1-0.2,0.8-0.7
			l-1-3.5c-0.1-0.2,0-0.5,0.2-0.6l3.2-2.8c0.4-0.3,0.2-1-0.3-1l-4.1-0.3C509.8,529.3,509.6,529.1,509.5,528.9z"/>
		<path class="st6" d="M478.5,582.7l-2-4.8c-0.2-0.5-0.9-0.5-1.1,0l-1.5,4.7c-0.1,0.2-0.3,0.4-0.6,0.4h-4.5c-0.6,0-0.8,0.7-0.4,1.1
			l4,3c0.2,0.2,0.3,0.4,0.2,0.7l-1.8,4.6c-0.2,0.5,0.4,1,0.9,0.7l4.2-2.8c0.2-0.1,0.4-0.1,0.6,0l3.5,1.7c0.5,0.2,1-0.2,0.8-0.7
			l-1-3.5c-0.1-0.2,0-0.5,0.2-0.6l3.2-2.8c0.4-0.3,0.2-1-0.3-1l-4.1-0.3C478.7,583.1,478.5,582.9,478.5,582.7z"/>
	</g>
	<g>
		<path class="st25" d="M669,773H389.1c-6.3,0-11.3-5.1-11.3-11.3V621.1c0-6.3,5.1-11.3,11.3-11.3H669c6.3,0,11.3,5.1,11.3,11.3
			v140.5C680.3,767.9,675.2,773,669,773z"/>
		<path class="st1" d="M530.3,760.9v-85.4c0-0.2,0.1-0.4,0.1-0.6c1.2-2.2,10.3-17.5,29.2-26c0.3-0.1,0.7-0.1,1,0
			c3.1,1.4,19.9,9.8,29.2,26.7c0.1,0.2,0.1,0.4,0.1,0.6v85.4c0,0.7-0.5,1.2-1.2,1.2l-57.4-0.6C530.8,762.1,530.3,761.6,530.3,760.9z
			"/>
		<path class="st2" d="M534.3,690c0,0,10.9-24.3,25.6-29.3c0.2-0.1,0.5-0.1,0.7,0c2.1,0.6,13,4.8,25.3,29.4"/>
		<path class="st3" d="M570.8,654.9V644c0-0.2,0-0.3,0.1-0.5c0.8-1.9,7-15.3,24-21.9c0.3-0.1,0.6-0.1,0.9,0
			c2.8,1.3,17.2,8.4,22.6,21.3c0.1,0.1,0.1,0.3,0.1,0.5v118.1c0,0.7-0.5,1.2-1.2,1.2h-27.2"/>
		<path class="st4" d="M473.4,623.2l0.6,8c0.1,0.9,1.1,1.4,1.8,0.9c3.4-2.2,11.2-6.2,14.1,1.2c3.4,8.8-14.2,24.4-17.1,26.9
			c-0.3,0.2-0.4,0.6-0.4,0.9v7.2c0,0.7,0.5,1.2,1.2,1.2h29.5c0.7,0,1.2-0.5,1.2-1.2v-7.1c0-0.7-0.5-1.2-1.2-1.2l-14-0.1
			c-1.1,0-1.6-1.3-0.8-2c5-4.7,16.4-16.9,13.8-28.1c-3.2-13.7-19.7-10.9-27.9-7.8C473.7,622.2,473.4,622.7,473.4,623.2z"/>
		<path class="st4" d="M523.5,619.5c2.5,0,15.9-1.9,16.5,26.3c0.6,26-16.5,24.1-16.5,24.1s-17.3,0.9-16.1-25
			C508.6,618.9,519.3,619.5,523.5,619.5z"/>
		<path class="st5" d="M523.9,627.6c0,0,4.9-0.6,4.6,16.9c0,17-3.8,17.1-4.5,17.1s-5.9,0.6-5.4-16.8
			C519.1,626.8,523.9,627.6,523.9,627.6z"/>
		<path class="st4" d="M406.6,735.3l0.3,3.7c0.1,0.9,1,1.4,1.8,0.9c2.3-1.3,6.3-3,7.9,1.1c2,5.2-8,14.2-10.2,16.1
			c-0.3,0.2-0.4,0.6-0.4,0.9v3.7c0,0.7,0.5,1.2,1.2,1.2h16.9c0.7,0,1.2-0.5,1.2-1.2v-3.4c0-0.7-0.5-1.2-1.2-1.2l-6.9-0.1
			c-1,0-1.6-1.3-0.8-2c3.3-3.3,9-10,7.5-16.2c-1.9-8.1-11.5-6.7-16.5-4.9C406.9,734.2,406.6,734.7,406.6,735.3z"/>
		<path class="st4" d="M436.9,732.6c1.5,0,9.6-1.2,10,15.9c0.4,15.7-10,14.6-10,14.6s-10.4,0.5-9.7-15.1
			C427.9,732.3,434.4,732.6,436.9,732.6z"/>
		<path class="st5" d="M437.1,737.6c0,0,3-0.3,2.8,10.2c0,10.3-2.3,10.3-2.7,10.3s-3.6,0.4-3.3-10.2
			C434.2,737.1,437.1,737.6,437.1,737.6z"/>
		<path class="st4" d="M632.6,729.6L632.6,729.6c0.1,0.7,0.8,1.2,1.4,0.9c0.8-0.3,1.8-0.4,2.2,0.8c0.7,1.8-2.5,4.8-3.6,5.8
			c-0.2,0.2-0.4,0.5-0.4,0.8v0.5c0,0.6,0.5,1.1,1.1,1.1h5.1c0.6,0,1.1-0.5,1.1-1.1v0c0-0.6-0.5-1-1-1.1l-0.6,0c-0.9,0-1.4-1-0.8-1.7
			c1.1-1.3,2.3-3.3,1.9-5.1c-0.6-2.8-3.7-2.5-5.6-2C632.8,728.7,632.5,729.1,632.6,729.6z"/>
		<path class="st4" d="M643.8,728.2c0.6,0,3.6-0.4,3.7,5.9c0.1,5.9-3.7,5.4-3.7,5.4s-3.9,0.2-3.6-5.6
			C640.4,728,642.8,728.2,643.8,728.2z"/>
		<path class="st5" d="M643.9,730c0,0,1.1-0.1,1,3.8c0,3.8-0.9,3.8-1,3.8c-0.1,0-1.3,0.1-1.2-3.8C642.8,729.8,643.9,730,643.9,730z"
			/>
		<path class="st6" d="M536.7,626.6l2-4.8c0.2-0.5,0.9-0.5,1.1,0l1.5,4.7c0.1,0.2,0.3,0.4,0.6,0.4h4.5c0.6,0,0.8,0.7,0.4,1.1l-4,3
			c-0.2,0.2-0.3,0.4-0.2,0.7l1.8,4.6c0.2,0.5-0.4,1-0.9,0.7l-4.2-2.8c-0.2-0.1-0.4-0.1-0.6,0l-3.5,1.7c-0.5,0.2-1-0.2-0.8-0.7l1-3.5
			c0.1-0.2,0-0.5-0.2-0.6l-3.2-2.8c-0.4-0.3-0.2-1,0.3-1l4.1-0.3C536.4,626.9,536.6,626.8,536.7,626.6z"/>
		<path class="st6" d="M481.8,720.8l2-4.8c0.2-0.5,0.9-0.5,1.1,0l1.5,4.7c0.1,0.2,0.3,0.4,0.6,0.4h4.5c0.6,0,0.8,0.7,0.4,1.1l-4,3
			c-0.2,0.2-0.3,0.4-0.2,0.7l1.8,4.6c0.2,0.5-0.4,1-0.9,0.7l-4.2-2.8c-0.2-0.1-0.4-0.1-0.6,0l-3.5,1.7c-0.5,0.2-1-0.2-0.8-0.7l1-3.5
			c0.1-0.2,0-0.5-0.2-0.6l-3.2-2.8c-0.4-0.3-0.2-1,0.3-1l4.1-0.3C481.5,721.1,481.7,721,481.8,720.8z"/>
		<path class="st6" d="M481.8,659l2-4.8c0.2-0.5,0.9-0.5,1.1,0l1.5,4.7c0.1,0.2,0.3,0.4,0.6,0.4h4.5c0.6,0,0.8,0.7,0.4,1.1l-4,3
			c-0.2,0.2-0.3,0.4-0.2,0.7l1.8,4.6c0.2,0.5-0.4,1-0.9,0.7l-4.2-2.8c-0.2-0.1-0.4-0.1-0.6,0l-3.5,1.7c-0.5,0.2-1-0.2-0.8-0.7l1-3.5
			c0.1-0.2,0-0.5-0.2-0.6l-3.2-2.8c-0.4-0.3-0.2-1,0.3-1l4.1-0.3C481.5,659.3,481.7,659.2,481.8,659z"/>
		<path class="st6" d="M509.5,635.5l-2-4.8c-0.2-0.5-0.9-0.5-1.1,0l-1.5,4.7c-0.1,0.2-0.3,0.4-0.6,0.4h-4.5c-0.6,0-0.8,0.7-0.4,1.1
			l4,3c0.2,0.2,0.3,0.4,0.2,0.7l-1.8,4.6c-0.2,0.5,0.4,1,0.9,0.7l4.2-2.8c0.2-0.1,0.4-0.1,0.6,0l3.5,1.7c0.5,0.2,1-0.2,0.8-0.7
			l-1-3.5c-0.1-0.2,0-0.5,0.2-0.6l3.2-2.8c0.4-0.3,0.2-1-0.3-1l-4.1-0.3C509.8,635.8,509.6,635.7,509.5,635.5z"/>
		<path class="st12" d="M478.5,689.2l-2-4.8c-0.2-0.5-0.9-0.5-1.1,0l-1.5,4.7c-0.1,0.2-0.3,0.4-0.6,0.4h-4.5c-0.6,0-0.8,0.7-0.4,1.1
			l4,3c0.2,0.2,0.3,0.4,0.2,0.7l-1.8,4.6c-0.2,0.5,0.4,1,0.9,0.7l4.2-2.8c0.2-0.1,0.4-0.1,0.6,0l3.5,1.7c0.5,0.2,1-0.2,0.8-0.7
			l-1-3.5c-0.1-0.2,0-0.5,0.2-0.6l3.2-2.8c0.4-0.3,0.2-1-0.3-1l-4.1-0.3C478.7,689.6,478.5,689.4,478.5,689.2z"/>
	</g>
</g>
<g>
	<g>
		<path class="st25" d="M1014,346.9H734.2c-6.3,0-11.3-5.1-11.3-11.3V195c0-6.3,5.1-11.3,11.3-11.3H1014c6.3,0,11.3,5.1,11.3,11.3
			v140.5C1025.3,341.8,1020.3,346.9,1014,346.9z"/>
		<path class="st1" d="M875.3,334.8v-85.4c0-0.2,0.1-0.4,0.1-0.6c1.2-2.2,10.3-17.5,29.2-26c0.3-0.1,0.7-0.1,1,0
			c3.1,1.4,19.9,9.8,29.2,26.7c0.1,0.2,0.1,0.4,0.1,0.6v85.4c0,0.7-0.5,1.2-1.2,1.2l-57.4-0.6C875.9,336,875.3,335.4,875.3,334.8z"
			/>
		<path class="st2" d="M879.3,263.9c0,0,10.9-24.3,25.6-29.3c0.2-0.1,0.5-0.1,0.7,0c2.1,0.6,13,4.8,25.3,29.4"/>
		<path class="st3" d="M915.9,228.7v-10.9c0-0.2,0-0.3,0.1-0.5c0.8-1.9,7-15.3,24-21.9c0.3-0.1,0.6-0.1,0.9,0
			c2.8,1.3,17.2,8.4,22.6,21.3c0.1,0.1,0.1,0.3,0.1,0.5v118.1c0,0.7-0.5,1.2-1.2,1.2h-27.2"/>
		<path class="st4" d="M818.4,197.1l0.6,8c0.1,0.9,1.1,1.4,1.8,0.9c3.4-2.2,11.2-6.2,14.1,1.2c3.4,8.8-14.2,24.4-17.1,26.9
			c-0.3,0.2-0.4,0.6-0.4,0.9v7.2c0,0.7,0.5,1.2,1.2,1.2h29.5c0.7,0,1.2-0.5,1.2-1.2v-7.1c0-0.7-0.5-1.2-1.2-1.2l-14-0.1
			c-1.1,0-1.6-1.3-0.8-2c5-4.7,16.4-16.9,13.8-28.1c-3.2-13.7-19.7-10.9-27.9-7.8C818.7,196.1,818.4,196.6,818.4,197.1z"/>
		<path class="st4" d="M868.6,193.3c2.5,0,15.9-1.9,16.5,26.3c0.6,26-16.5,24.1-16.5,24.1s-17.3,0.9-16.1-25
			S864.4,193.3,868.6,193.3z"/>
		<path class="st5" d="M868.9,201.5c0,0,4.9-0.6,4.6,16.9c0,17-3.8,17.1-4.5,17.1s-5.9,0.6-5.4-16.8
			C864.2,200.7,868.9,201.5,868.9,201.5z"/>
		<path class="st4" d="M751.6,309.1l0.3,3.7c0.1,0.9,1,1.4,1.8,0.9c2.3-1.3,6.3-3,7.9,1.1c2,5.2-8,14.2-10.2,16.1
			c-0.3,0.2-0.4,0.6-0.4,0.9v3.7c0,0.7,0.5,1.2,1.2,1.2h16.9c0.7,0,1.2-0.5,1.2-1.2v-3.4c0-0.7-0.5-1.2-1.2-1.2l-6.9-0.1
			c-1,0-1.6-1.3-0.8-2c3.3-3.3,9-10,7.5-16.2c-1.9-8.1-11.5-6.7-16.5-4.9C751.9,308.1,751.6,308.6,751.6,309.1z"/>
		<path class="st4" d="M781.9,306.5c1.5,0,9.6-1.2,10,15.9c0.4,15.7-10,14.6-10,14.6s-10.4,0.5-9.7-15.1
			C772.9,306.2,779.4,306.5,781.9,306.5z"/>
		<path class="st5" d="M782.1,311.5c0,0,3-0.3,2.8,10.2c0,10.3-2.3,10.3-2.7,10.3c-0.4,0-3.6,0.4-3.3-10.2
			C779.3,311,782.1,311.5,782.1,311.5z"/>
		<path class="st4" d="M977.6,303.5L977.6,303.5c0.1,0.7,0.8,1.2,1.4,0.9c0.8-0.3,1.8-0.4,2.2,0.8c0.7,1.8-2.5,4.8-3.6,5.8
			c-0.2,0.2-0.4,0.5-0.4,0.8v0.5c0,0.6,0.5,1.1,1.1,1.1h5.1c0.6,0,1.1-0.5,1.1-1.1v0c0-0.6-0.5-1-1-1.1l-0.6,0c-0.9,0-1.4-1-0.8-1.7
			c1.1-1.3,2.3-3.3,1.9-5.1c-0.6-2.8-3.7-2.5-5.6-2C977.9,302.5,977.6,303,977.6,303.5z"/>
		<path class="st4" d="M988.8,302c0.6,0,3.6-0.4,3.7,5.9c0.1,5.9-3.7,5.4-3.7,5.4s-3.9,0.2-3.6-5.6S987.9,302,988.8,302z"/>
		<path class="st5" d="M988.9,303.9c0,0,1.1-0.1,1,3.8c0,3.8-0.9,3.8-1,3.8c-0.1,0-1.3,0.1-1.2-3.8
			C987.8,303.7,988.9,303.9,988.9,303.9z"/>
		<path class="st6" d="M881.8,200.5l2-4.8c0.2-0.5,0.9-0.5,1.1,0l1.5,4.7c0.1,0.2,0.3,0.4,0.6,0.4h4.5c0.6,0,0.8,0.7,0.4,1.1l-4,3
			c-0.2,0.2-0.3,0.4-0.2,0.7l1.8,4.6c0.2,0.5-0.4,1-0.9,0.7l-4.2-2.8c-0.2-0.1-0.4-0.1-0.6,0l-3.5,1.7c-0.5,0.2-1-0.2-0.8-0.7l1-3.5
			c0.1-0.2,0-0.5-0.2-0.6l-3.2-2.8c-0.4-0.3-0.2-1,0.3-1l4.1-0.3C881.5,200.8,881.7,200.7,881.8,200.5z"/>
		<path class="st6" d="M826.8,294.7l2-4.8c0.2-0.5,0.9-0.5,1.1,0l1.5,4.7c0.1,0.2,0.3,0.4,0.6,0.4h4.5c0.6,0,0.8,0.7,0.4,1.1l-4,3
			c-0.2,0.2-0.3,0.4-0.2,0.7l1.8,4.6c0.2,0.5-0.4,1-0.9,0.7l-4.2-2.8c-0.2-0.1-0.4-0.1-0.6,0l-3.5,1.7c-0.5,0.2-1-0.2-0.8-0.7l1-3.5
			c0.1-0.2,0-0.5-0.2-0.6l-3.2-2.8c-0.4-0.3-0.2-1,0.3-1l4.1-0.3C826.5,295,826.7,294.9,826.8,294.7z"/>
		<path class="st6" d="M826.8,232.8l2-4.8c0.2-0.5,0.9-0.5,1.1,0l1.5,4.7c0.1,0.2,0.3,0.4,0.6,0.4h4.5c0.6,0,0.8,0.7,0.4,1.1l-4,3
			c-0.2,0.2-0.3,0.4-0.2,0.7l1.8,4.6c0.2,0.5-0.4,1-0.9,0.7l-4.2-2.8c-0.2-0.1-0.4-0.1-0.6,0l-3.5,1.7c-0.5,0.2-1-0.2-0.8-0.7l1-3.5
			c0.1-0.2,0-0.5-0.2-0.6l-3.2-2.8c-0.4-0.3-0.2-1,0.3-1l4.1-0.3C826.5,233.2,826.7,233.1,826.8,232.8z"/>
		<path class="st6" d="M854.6,209.3l-2-4.8c-0.2-0.5-0.9-0.5-1.1,0l-1.5,4.7c-0.1,0.2-0.3,0.4-0.6,0.4H845c-0.6,0-0.8,0.7-0.4,1.1
			l4,3c0.2,0.2,0.3,0.4,0.2,0.7L847,219c-0.2,0.5,0.4,1,0.9,0.7l4.2-2.8c0.2-0.1,0.4-0.1,0.6,0l3.5,1.7c0.5,0.2,1-0.2,0.8-0.7
			l-1-3.5c-0.1-0.2,0-0.5,0.2-0.6l3.2-2.8c0.4-0.3,0.2-1-0.3-1l-4.1-0.3C854.8,209.7,854.6,209.6,854.6,209.3z"/>
		<path class="st6" d="M823.5,263.1l-2-4.8c-0.2-0.5-0.9-0.5-1.1,0L819,263c-0.1,0.2-0.3,0.4-0.6,0.4h-4.5c-0.6,0-0.8,0.7-0.4,1.1
			l4,3c0.2,0.2,0.3,0.4,0.2,0.7l-1.8,4.6c-0.2,0.5,0.4,1,0.9,0.7l4.2-2.8c0.2-0.1,0.4-0.1,0.6,0l3.5,1.7c0.5,0.2,1-0.2,0.8-0.7
			l-1-3.5c-0.1-0.2,0-0.5,0.2-0.6l3.2-2.8c0.4-0.3,0.2-1-0.3-1l-4.1-0.3C823.8,263.5,823.6,263.3,823.5,263.1z"/>
	</g>
	<g>
		<path class="st25" d="M1014,453.4H734.2c-6.3,0-11.3-5.1-11.3-11.3V301.5c0-6.3,5.1-11.3,11.3-11.3H1014c6.3,0,11.3,5.1,11.3,11.3
			v140.5C1025.3,448.3,1020.3,453.4,1014,453.4z"/>
		<path class="st1" d="M875.3,441.3v-85.4c0-0.2,0.1-0.4,0.1-0.6c1.2-2.2,10.3-17.5,29.2-26c0.3-0.1,0.7-0.1,1,0
			c3.1,1.4,19.9,9.8,29.2,26.7c0.1,0.2,0.1,0.4,0.1,0.6v85.4c0,0.7-0.5,1.2-1.2,1.2l-57.4-0.6C875.9,442.5,875.3,442,875.3,441.3z"
			/>
		<path class="st2" d="M879.3,370.4c0,0,10.9-24.3,25.6-29.3c0.2-0.1,0.5-0.1,0.7,0c2.1,0.6,13,4.8,25.3,29.4"/>
		<path class="st3" d="M915.9,335.3v-10.9c0-0.2,0-0.3,0.1-0.5c0.8-1.9,7-15.3,24-21.9c0.3-0.1,0.6-0.1,0.9,0
			c2.8,1.3,17.2,8.4,22.6,21.3c0.1,0.1,0.1,0.3,0.1,0.5v118.1c0,0.7-0.5,1.2-1.2,1.2h-27.2"/>
		<path class="st4" d="M818.4,303.6l0.6,8c0.1,0.9,1.1,1.4,1.8,0.9c3.4-2.2,11.2-6.2,14.1,1.2c3.4,8.8-14.2,24.4-17.1,26.9
			c-0.3,0.2-0.4,0.6-0.4,0.9v7.2c0,0.7,0.5,1.2,1.2,1.2h29.5c0.7,0,1.2-0.5,1.2-1.2v-7.1c0-0.7-0.5-1.2-1.2-1.2l-14-0.1
			c-1.1,0-1.6-1.3-0.8-2c5-4.7,16.4-16.9,13.8-28.1c-3.2-13.7-19.7-10.9-27.9-7.8C818.7,302.6,818.4,303.1,818.4,303.6z"/>
		<path class="st4" d="M868.6,299.9c2.5,0,15.9-1.9,16.5,26.3c0.6,26-16.5,24.1-16.5,24.1s-17.3,0.9-16.1-25
			S864.4,299.9,868.6,299.9z"/>
		<path class="st5" d="M868.9,308c0,0,4.9-0.6,4.6,16.9c0,17-3.8,17.1-4.5,17.1s-5.9,0.6-5.4-16.8C864.2,307.2,868.9,308,868.9,308z
			"/>
		<path class="st4" d="M751.6,415.7l0.3,3.7c0.1,0.9,1,1.4,1.8,0.9c2.3-1.3,6.3-3,7.9,1.1c2,5.2-8,14.2-10.2,16.1
			c-0.3,0.2-0.4,0.6-0.4,0.9v3.7c0,0.7,0.5,1.2,1.2,1.2h16.9c0.7,0,1.2-0.5,1.2-1.2v-3.4c0-0.7-0.5-1.2-1.2-1.2l-6.9-0.1
			c-1,0-1.6-1.3-0.8-2c3.3-3.3,9-10,7.5-16.2c-1.9-8.1-11.5-6.7-16.5-4.9C751.9,414.6,751.6,415.1,751.6,415.7z"/>
		<path class="st4" d="M781.9,413.1c1.5,0,9.6-1.2,10,15.9c0.4,15.7-10,14.6-10,14.6s-10.4,0.5-9.7-15.1
			C772.9,412.7,779.4,413.1,781.9,413.1z"/>
		<path class="st5" d="M782.1,418c0,0,3-0.3,2.8,10.2c0,10.3-2.3,10.3-2.7,10.3c-0.4,0-3.6,0.4-3.3-10.2
			C779.3,417.5,782.1,418,782.1,418z"/>
		<path class="st4" d="M977.6,410L977.6,410c0.1,0.7,0.8,1.2,1.4,0.9c0.8-0.3,1.8-0.4,2.2,0.8c0.7,1.8-2.5,4.8-3.6,5.8
			c-0.2,0.2-0.4,0.5-0.4,0.8v0.5c0,0.6,0.5,1.1,1.1,1.1h5.1c0.6,0,1.1-0.5,1.1-1.1v0c0-0.6-0.5-1-1-1.1l-0.6,0c-0.9,0-1.4-1-0.8-1.7
			c1.1-1.3,2.3-3.3,1.9-5.1c-0.6-2.8-3.7-2.5-5.6-2C977.9,409.1,977.6,409.5,977.6,410z"/>
		<path class="st4" d="M988.8,408.6c0.6,0,3.6-0.4,3.7,5.9c0.1,5.9-3.7,5.4-3.7,5.4s-3.9,0.2-3.6-5.6S987.9,408.6,988.8,408.6z"/>
		<path class="st5" d="M988.9,410.4c0,0,1.1-0.1,1,3.8c0,3.8-0.9,3.8-1,3.8c-0.1,0-1.3,0.1-1.2-3.8
			C987.8,410.2,988.9,410.4,988.9,410.4z"/>
		<path class="st6" d="M881.8,307l2-4.8c0.2-0.5,0.9-0.5,1.1,0l1.5,4.7c0.1,0.2,0.3,0.4,0.6,0.4h4.5c0.6,0,0.8,0.7,0.4,1.1l-4,3
			c-0.2,0.2-0.3,0.4-0.2,0.7l1.8,4.6c0.2,0.5-0.4,1-0.9,0.7l-4.2-2.8c-0.2-0.1-0.4-0.1-0.6,0l-3.5,1.7c-0.5,0.2-1-0.2-0.8-0.7l1-3.5
			c0.1-0.2,0-0.5-0.2-0.6l-3.2-2.8c-0.4-0.3-0.2-1,0.3-1l4.1-0.3C881.5,307.3,881.7,307.2,881.8,307z"/>
		<path class="st6" d="M826.8,401.2l2-4.8c0.2-0.5,0.9-0.5,1.1,0l1.5,4.7c0.1,0.2,0.3,0.4,0.6,0.4h4.5c0.6,0,0.8,0.7,0.4,1.1l-4,3
			c-0.2,0.2-0.3,0.4-0.2,0.7l1.8,4.6c0.2,0.5-0.4,1-0.9,0.7l-4.2-2.8c-0.2-0.1-0.4-0.1-0.6,0l-3.5,1.7c-0.5,0.2-1-0.2-0.8-0.7l1-3.5
			c0.1-0.2,0-0.5-0.2-0.6l-3.2-2.8c-0.4-0.3-0.2-1,0.3-1l4.1-0.3C826.5,401.6,826.7,401.4,826.8,401.2z"/>
		<path class="st6" d="M826.8,339.4l2-4.8c0.2-0.5,0.9-0.5,1.1,0l1.5,4.7c0.1,0.2,0.3,0.4,0.6,0.4h4.5c0.6,0,0.8,0.7,0.4,1.1l-4,3
			c-0.2,0.2-0.3,0.4-0.2,0.7l1.8,4.6c0.2,0.5-0.4,1-0.9,0.7l-4.2-2.8c-0.2-0.1-0.4-0.1-0.6,0l-3.5,1.7c-0.5,0.2-1-0.2-0.8-0.7l1-3.5
			c0.1-0.2,0-0.5-0.2-0.6l-3.2-2.8c-0.4-0.3-0.2-1,0.3-1l4.1-0.3C826.5,339.7,826.7,339.6,826.8,339.4z"/>
		<path class="st6" d="M854.6,315.9l-2-4.8c-0.2-0.5-0.9-0.5-1.1,0l-1.5,4.7c-0.1,0.2-0.3,0.4-0.6,0.4H845c-0.6,0-0.8,0.7-0.4,1.1
			l4,3c0.2,0.2,0.3,0.4,0.2,0.7l-1.8,4.6c-0.2,0.5,0.4,1,0.9,0.7l4.2-2.8c0.2-0.1,0.4-0.1,0.6,0l3.5,1.7c0.5,0.2,1-0.2,0.8-0.7
			l-1-3.5c-0.1-0.2,0-0.5,0.2-0.6l3.2-2.8c0.4-0.3,0.2-1-0.3-1l-4.1-0.3C854.8,316.2,854.6,316.1,854.6,315.9z"/>
		<path class="st6" d="M823.5,369.6l-2-4.8c-0.2-0.5-0.9-0.5-1.1,0l-1.5,4.7c-0.1,0.2-0.3,0.4-0.6,0.4h-4.5c-0.6,0-0.8,0.7-0.4,1.1
			l4,3c0.2,0.2,0.3,0.4,0.2,0.7l-1.8,4.6c-0.2,0.5,0.4,1,0.9,0.7l4.2-2.8c0.2-0.1,0.4-0.1,0.6,0l3.5,1.7c0.5,0.2,1-0.2,0.8-0.7
			l-1-3.5c-0.1-0.2,0-0.5,0.2-0.6l3.2-2.8c0.4-0.3,0.2-1-0.3-1L824,370C823.8,370,823.6,369.9,823.5,369.6z"/>
	</g>
	<g>
		<path class="st25" d="M1014,559.9H734.2c-6.3,0-11.3-5.1-11.3-11.3V408.1c0-6.3,5.1-11.3,11.3-11.3H1014c6.3,0,11.3,5.1,11.3,11.3
			v140.5C1025.3,554.9,1020.3,559.9,1014,559.9z"/>
		<path class="st1" d="M875.3,547.9v-85.4c0-0.2,0.1-0.4,0.1-0.6c1.2-2.2,10.3-17.5,29.2-26c0.3-0.1,0.7-0.1,1,0
			c3.1,1.4,19.9,9.8,29.2,26.7c0.1,0.2,0.1,0.4,0.1,0.6v85.4c0,0.7-0.5,1.2-1.2,1.2l-57.4-0.6C875.9,549,875.3,548.5,875.3,547.9z"
			/>
		<path class="st2" d="M879.3,477c0,0,10.9-24.3,25.6-29.3c0.2-0.1,0.5-0.1,0.7,0c2.1,0.6,13,4.8,25.3,29.4"/>
		<path class="st3" d="M915.9,441.8v-10.9c0-0.2,0-0.3,0.1-0.5c0.8-1.9,7-15.3,24-21.9c0.3-0.1,0.6-0.1,0.9,0
			c2.8,1.3,17.2,8.4,22.6,21.3c0.1,0.1,0.1,0.3,0.1,0.5v118.1c0,0.7-0.5,1.2-1.2,1.2h-27.2"/>
		<path class="st4" d="M818.4,410.1l0.6,8c0.1,0.9,1.1,1.4,1.8,0.9c3.4-2.2,11.2-6.2,14.1,1.2c3.4,8.8-14.2,24.4-17.1,26.9
			c-0.3,0.2-0.4,0.6-0.4,0.9v7.2c0,0.7,0.5,1.2,1.2,1.2h29.5c0.7,0,1.2-0.5,1.2-1.2v-7.1c0-0.7-0.5-1.2-1.2-1.2l-14-0.1
			c-1.1,0-1.6-1.3-0.8-2c5-4.7,16.4-16.9,13.8-28.1c-3.2-13.7-19.7-10.9-27.9-7.8C818.7,409.1,818.4,409.6,818.4,410.1z"/>
		<path class="st4" d="M868.6,406.4c2.5,0,15.9-1.9,16.5,26.3c0.6,26-16.5,24.1-16.5,24.1s-17.3,0.9-16.1-25
			C853.6,405.8,864.4,406.4,868.6,406.4z"/>
		<path class="st5" d="M868.9,414.6c0,0,4.9-0.6,4.6,16.9c0,17-3.8,17.1-4.5,17.1s-5.9,0.6-5.4-16.8
			C864.2,413.7,868.9,414.6,868.9,414.6z"/>
		<path class="st4" d="M751.6,522.2l0.3,3.7c0.1,0.9,1,1.4,1.8,0.9c2.3-1.3,6.3-3,7.9,1.1c2,5.2-8,14.2-10.2,16.1
			c-0.3,0.2-0.4,0.6-0.4,0.9v3.7c0,0.7,0.5,1.2,1.2,1.2h16.9c0.7,0,1.2-0.5,1.2-1.2v-3.4c0-0.7-0.5-1.2-1.2-1.2l-6.9-0.1
			c-1,0-1.6-1.3-0.8-2c3.3-3.3,9-10,7.5-16.2c-1.9-8.1-11.5-6.7-16.5-4.9C751.9,521.2,751.6,521.7,751.6,522.2z"/>
		<path class="st4" d="M781.9,519.6c1.5,0,9.6-1.2,10,15.9c0.4,15.7-10,14.6-10,14.6s-10.4,0.5-9.7-15.1
			C772.9,519.2,779.4,519.6,781.9,519.6z"/>
		<path class="st5" d="M782.1,524.5c0,0,3-0.3,2.8,10.2c0,10.3-2.3,10.3-2.7,10.3c-0.4,0-3.6,0.4-3.3-10.2
			C779.3,524,782.1,524.5,782.1,524.5z"/>
		<path class="st4" d="M977.6,516.6L977.6,516.6c0.1,0.7,0.8,1.2,1.4,0.9c0.8-0.3,1.8-0.4,2.2,0.8c0.7,1.8-2.5,4.8-3.6,5.8
			c-0.2,0.2-0.4,0.5-0.4,0.8v0.5c0,0.6,0.5,1.1,1.1,1.1h5.1c0.6,0,1.1-0.5,1.1-1.1v0c0-0.6-0.5-1-1-1.1l-0.6,0c-0.9,0-1.4-1-0.8-1.7
			c1.1-1.3,2.3-3.3,1.9-5.1c-0.6-2.8-3.7-2.5-5.6-2C977.9,515.6,977.6,516.1,977.6,516.6z"/>
		<path class="st4" d="M988.8,515.1c0.6,0,3.6-0.4,3.7,5.9c0.1,5.9-3.7,5.4-3.7,5.4s-3.9,0.2-3.6-5.6
			C985.5,515,987.9,515.1,988.8,515.1z"/>
		<path class="st5" d="M988.9,516.9c0,0,1.1-0.1,1,3.8c0,3.8-0.9,3.8-1,3.8c-0.1,0-1.3,0.1-1.2-3.8
			C987.8,516.7,988.9,516.9,988.9,516.9z"/>
		<path class="st6" d="M881.8,413.5l2-4.8c0.2-0.5,0.9-0.5,1.1,0l1.5,4.7c0.1,0.2,0.3,0.4,0.6,0.4h4.5c0.6,0,0.8,0.7,0.4,1.1l-4,3
			c-0.2,0.2-0.3,0.4-0.2,0.7l1.8,4.6c0.2,0.5-0.4,1-0.9,0.7l-4.2-2.8c-0.2-0.1-0.4-0.1-0.6,0l-3.5,1.7c-0.5,0.2-1-0.2-0.8-0.7l1-3.5
			c0.1-0.2,0-0.5-0.2-0.6l-3.2-2.8c-0.4-0.3-0.2-1,0.3-1l4.1-0.3C881.5,413.9,881.7,413.7,881.8,413.5z"/>
		<path class="st6" d="M826.8,507.7l2-4.8c0.2-0.5,0.9-0.5,1.1,0l1.5,4.7c0.1,0.2,0.3,0.4,0.6,0.4h4.5c0.6,0,0.8,0.7,0.4,1.1l-4,3
			c-0.2,0.2-0.3,0.4-0.2,0.7l1.8,4.6c0.2,0.5-0.4,1-0.9,0.7l-4.2-2.8c-0.2-0.1-0.4-0.1-0.6,0l-3.5,1.7c-0.5,0.2-1-0.2-0.8-0.7l1-3.5
			c0.1-0.2,0-0.5-0.2-0.6l-3.2-2.8c-0.4-0.3-0.2-1,0.3-1l4.1-0.3C826.5,508.1,826.7,507.9,826.8,507.7z"/>
		<path class="st6" d="M826.8,445.9l2-4.8c0.2-0.5,0.9-0.5,1.1,0l1.5,4.7c0.1,0.2,0.3,0.4,0.6,0.4h4.5c0.6,0,0.8,0.7,0.4,1.1l-4,3
			c-0.2,0.2-0.3,0.4-0.2,0.7l1.8,4.6c0.2,0.5-0.4,1-0.9,0.7l-4.2-2.8c-0.2-0.1-0.4-0.1-0.6,0l-3.5,1.7c-0.5,0.2-1-0.2-0.8-0.7l1-3.5
			c0.1-0.2,0-0.5-0.2-0.6l-3.2-2.8c-0.4-0.3-0.2-1,0.3-1l4.1-0.3C826.5,446.2,826.7,446.1,826.8,445.9z"/>
		<path class="st6" d="M854.6,422.4l-2-4.8c-0.2-0.5-0.9-0.5-1.1,0l-1.5,4.7c-0.1,0.2-0.3,0.4-0.6,0.4H845c-0.6,0-0.8,0.7-0.4,1.1
			l4,3c0.2,0.2,0.3,0.4,0.2,0.7l-1.8,4.6c-0.2,0.5,0.4,1,0.9,0.7l4.2-2.8c0.2-0.1,0.4-0.1,0.6,0l3.5,1.7c0.5,0.2,1-0.2,0.8-0.7
			l-1-3.5c-0.1-0.2,0-0.5,0.2-0.6l3.2-2.8c0.4-0.3,0.2-1-0.3-1l-4.1-0.3C854.8,422.8,854.6,422.6,854.6,422.4z"/>
		<path class="st6" d="M823.5,476.2l-2-4.8c-0.2-0.5-0.9-0.5-1.1,0l-1.5,4.7c-0.1,0.2-0.3,0.4-0.6,0.4h-4.5c-0.6,0-0.8,0.7-0.4,1.1
			l4,3c0.2,0.2,0.3,0.4,0.2,0.7l-1.8,4.6c-0.2,0.5,0.4,1,0.9,0.7l4.2-2.8c0.2-0.1,0.4-0.1,0.6,0l3.5,1.7c0.5,0.2,1-0.2,0.8-0.7
			l-1-3.5c-0.1-0.2,0-0.5,0.2-0.6l3.2-2.8c0.4-0.3,0.2-1-0.3-1l-4.1-0.3C823.8,476.5,823.6,476.4,823.5,476.2z"/>
	</g>
	<g>
		<path class="st25" d="M1014,666.5H734.2c-6.3,0-11.3-5.1-11.3-11.3V514.6c0-6.3,5.1-11.3,11.3-11.3H1014c6.3,0,11.3,5.1,11.3,11.3
			v140.5C1025.3,661.4,1020.3,666.5,1014,666.5z"/>
		<path class="st1" d="M875.3,654.4v-85.4c0-0.2,0.1-0.4,0.1-0.6c1.2-2.2,10.3-17.5,29.2-26c0.3-0.1,0.7-0.1,1,0
			c3.1,1.4,19.9,9.8,29.2,26.7c0.1,0.2,0.1,0.4,0.1,0.6V655c0,0.7-0.5,1.2-1.2,1.2l-57.4-0.6C875.9,655.6,875.3,655,875.3,654.4z"/>
		<path class="st2" d="M879.3,583.5c0,0,10.9-24.3,25.6-29.3c0.2-0.1,0.5-0.1,0.7,0c2.1,0.6,13,4.8,25.3,29.4"/>
		<path class="st3" d="M915.9,548.3v-10.9c0-0.2,0-0.3,0.1-0.5c0.8-1.9,7-15.3,24-21.9c0.3-0.1,0.6-0.1,0.9,0
			c2.8,1.3,17.2,8.4,22.6,21.3c0.1,0.1,0.1,0.3,0.1,0.5V655c0,0.7-0.5,1.2-1.2,1.2h-27.2"/>
		<path class="st4" d="M818.4,516.7l0.6,8c0.1,0.9,1.1,1.4,1.8,0.9c3.4-2.2,11.2-6.2,14.1,1.2c3.4,8.8-14.2,24.4-17.1,26.9
			c-0.3,0.2-0.4,0.6-0.4,0.9v7.2c0,0.7,0.5,1.2,1.2,1.2h29.5c0.7,0,1.2-0.5,1.2-1.2v-7.1c0-0.7-0.5-1.2-1.2-1.2l-14-0.1
			c-1.1,0-1.6-1.3-0.8-2c5-4.7,16.4-16.9,13.8-28.1c-3.2-13.7-19.7-10.9-27.9-7.8C818.7,515.7,818.4,516.1,818.4,516.7z"/>
		<path class="st4" d="M868.6,512.9c2.5,0,15.9-1.9,16.5,26.3c0.6,26-16.5,24.1-16.5,24.1s-17.3,0.9-16.1-25
			C853.6,512.3,864.4,512.9,868.6,512.9z"/>
		<path class="st5" d="M868.9,521.1c0,0,4.9-0.6,4.6,16.9c0,17-3.8,17.1-4.5,17.1s-5.9,0.6-5.4-16.8
			C864.2,520.2,868.9,521.1,868.9,521.1z"/>
		<path class="st4" d="M751.6,628.7l0.3,3.7c0.1,0.9,1,1.4,1.8,0.9c2.3-1.3,6.3-3,7.9,1.1c2,5.2-8,14.2-10.2,16.1
			c-0.3,0.2-0.4,0.6-0.4,0.9v3.7c0,0.7,0.5,1.2,1.2,1.2h16.9c0.7,0,1.2-0.5,1.2-1.2v-3.4c0-0.7-0.5-1.2-1.2-1.2l-6.9-0.1
			c-1,0-1.6-1.3-0.8-2c3.3-3.3,9-10,7.5-16.2c-1.9-8.1-11.5-6.7-16.5-4.9C751.9,627.7,751.6,628.2,751.6,628.7z"/>
		<path class="st4" d="M781.9,626.1c1.5,0,9.6-1.2,10,15.9c0.4,15.7-10,14.6-10,14.6s-10.4,0.5-9.7-15.1
			C772.9,625.8,779.4,626.1,781.9,626.1z"/>
		<path class="st5" d="M782.1,631c0,0,3-0.3,2.8,10.2c0,10.3-2.3,10.3-2.7,10.3c-0.4,0-3.6,0.4-3.3-10.2
			C779.3,630.5,782.1,631,782.1,631z"/>
		<path class="st4" d="M977.6,623.1L977.6,623.1c0.1,0.7,0.8,1.2,1.4,0.9c0.8-0.3,1.8-0.4,2.2,0.8c0.7,1.8-2.5,4.8-3.6,5.8
			c-0.2,0.2-0.4,0.5-0.4,0.8v0.5c0,0.6,0.5,1.1,1.1,1.1h5.1c0.6,0,1.1-0.5,1.1-1.1v0c0-0.6-0.5-1-1-1.1l-0.6,0c-0.9,0-1.4-1-0.8-1.7
			c1.1-1.3,2.3-3.3,1.9-5.1c-0.6-2.8-3.7-2.5-5.6-2C977.9,622.1,977.6,622.6,977.6,623.1z"/>
		<path class="st4" d="M988.8,621.6c0.6,0,3.6-0.4,3.7,5.9c0.1,5.9-3.7,5.4-3.7,5.4s-3.9,0.2-3.6-5.6
			C985.5,621.5,987.9,621.6,988.8,621.6z"/>
		<path class="st5" d="M988.9,623.5c0,0,1.1-0.1,1,3.8c0,3.8-0.9,3.8-1,3.8c-0.1,0-1.3,0.1-1.2-3.8
			C987.8,623.3,988.9,623.5,988.9,623.5z"/>
		<path class="st6" d="M881.8,520l2-4.8c0.2-0.5,0.9-0.5,1.1,0l1.5,4.7c0.1,0.2,0.3,0.4,0.6,0.4h4.5c0.6,0,0.8,0.7,0.4,1.1l-4,3
			c-0.2,0.2-0.3,0.4-0.2,0.7l1.8,4.6c0.2,0.5-0.4,1-0.9,0.7l-4.2-2.8c-0.2-0.1-0.4-0.1-0.6,0l-3.5,1.7c-0.5,0.2-1-0.2-0.8-0.7l1-3.5
			c0.1-0.2,0-0.5-0.2-0.6l-3.2-2.8c-0.4-0.3-0.2-1,0.3-1l4.1-0.3C881.5,520.4,881.7,520.3,881.8,520z"/>
		<path class="st6" d="M826.8,614.3l2-4.8c0.2-0.5,0.9-0.5,1.1,0l1.5,4.7c0.1,0.2,0.3,0.4,0.6,0.4h4.5c0.6,0,0.8,0.7,0.4,1.1l-4,3
			c-0.2,0.2-0.3,0.4-0.2,0.7l1.8,4.6c0.2,0.5-0.4,1-0.9,0.7l-4.2-2.8c-0.2-0.1-0.4-0.1-0.6,0l-3.5,1.7c-0.5,0.2-1-0.2-0.8-0.7l1-3.5
			c0.1-0.2,0-0.5-0.2-0.6l-3.2-2.8c-0.4-0.3-0.2-1,0.3-1l4.1-0.3C826.5,614.6,826.7,614.5,826.8,614.3z"/>
		<path class="st6" d="M826.8,552.4l2-4.8c0.2-0.5,0.9-0.5,1.1,0l1.5,4.7c0.1,0.2,0.3,0.4,0.6,0.4h4.5c0.6,0,0.8,0.7,0.4,1.1l-4,3
			c-0.2,0.2-0.3,0.4-0.2,0.7l1.8,4.6c0.2,0.5-0.4,1-0.9,0.7l-4.2-2.8c-0.2-0.1-0.4-0.1-0.6,0l-3.5,1.7c-0.5,0.2-1-0.2-0.8-0.7l1-3.5
			c0.1-0.2,0-0.5-0.2-0.6l-3.2-2.8c-0.4-0.3-0.2-1,0.3-1l4.1-0.3C826.5,552.8,826.7,552.6,826.8,552.4z"/>
		<path class="st6" d="M854.6,528.9l-2-4.8c-0.2-0.5-0.9-0.5-1.1,0l-1.5,4.7c-0.1,0.2-0.3,0.4-0.6,0.4H845c-0.6,0-0.8,0.7-0.4,1.1
			l4,3c0.2,0.2,0.3,0.4,0.2,0.7l-1.8,4.6c-0.2,0.5,0.4,1,0.9,0.7l4.2-2.8c0.2-0.1,0.4-0.1,0.6,0l3.5,1.7c0.5,0.2,1-0.2,0.8-0.7
			l-1-3.5c-0.1-0.2,0-0.5,0.2-0.6l3.2-2.8c0.4-0.3,0.2-1-0.3-1l-4.1-0.3C854.8,529.3,854.6,529.1,854.6,528.9z"/>
		<path class="st6" d="M823.5,582.7l-2-4.8c-0.2-0.5-0.9-0.5-1.1,0l-1.5,4.7c-0.1,0.2-0.3,0.4-0.6,0.4h-4.5c-0.6,0-0.8,0.7-0.4,1.1
			l4,3c0.2,0.2,0.3,0.4,0.2,0.7l-1.8,4.6c-0.2,0.5,0.4,1,0.9,0.7l4.2-2.8c0.2-0.1,0.4-0.1,0.6,0l3.5,1.7c0.5,0.2,1-0.2,0.8-0.7
			l-1-3.5c-0.1-0.2,0-0.5,0.2-0.6l3.2-2.8c0.4-0.3,0.2-1-0.3-1l-4.1-0.3C823.8,583.1,823.6,582.9,823.5,582.7z"/>
	</g>
	<g>
		<path class="st25" d="M1014,773H734.2c-6.3,0-11.3-5.1-11.3-11.3V621.1c0-6.3,5.1-11.3,11.3-11.3H1014c6.3,0,11.3,5.1,11.3,11.3
			v140.5C1025.3,767.9,1020.3,773,1014,773z"/>
		<path class="st1" d="M875.3,760.9v-85.4c0-0.2,0.1-0.4,0.1-0.6c1.2-2.2,10.3-17.5,29.2-26c0.3-0.1,0.7-0.1,1,0
			c3.1,1.4,19.9,9.8,29.2,26.7c0.1,0.2,0.1,0.4,0.1,0.6v85.4c0,0.7-0.5,1.2-1.2,1.2l-57.4-0.6C875.9,762.1,875.3,761.6,875.3,760.9z
			"/>
		<path class="st2" d="M879.3,690c0,0,10.9-24.3,25.6-29.3c0.2-0.1,0.5-0.1,0.7,0c2.1,0.6,13,4.8,25.3,29.4"/>
		<path class="st3" d="M915.9,654.9V644c0-0.2,0-0.3,0.1-0.5c0.8-1.9,7-15.3,24-21.9c0.3-0.1,0.6-0.1,0.9,0
			c2.8,1.3,17.2,8.4,22.6,21.3c0.1,0.1,0.1,0.3,0.1,0.5v118.1c0,0.7-0.5,1.2-1.2,1.2h-27.2"/>
		<path class="st4" d="M818.4,623.2l0.6,8c0.1,0.9,1.1,1.4,1.8,0.9c3.4-2.2,11.2-6.2,14.1,1.2c3.4,8.8-14.2,24.4-17.1,26.9
			c-0.3,0.2-0.4,0.6-0.4,0.9v7.2c0,0.7,0.5,1.2,1.2,1.2h29.5c0.7,0,1.2-0.5,1.2-1.2v-7.1c0-0.7-0.5-1.2-1.2-1.2l-14-0.1
			c-1.1,0-1.6-1.3-0.8-2c5-4.7,16.4-16.9,13.8-28.1c-3.2-13.7-19.7-10.9-27.9-7.8C818.7,622.2,818.4,622.7,818.4,623.2z"/>
		<path class="st4" d="M868.6,619.5c2.5,0,15.9-1.9,16.5,26.3c0.6,26-16.5,24.1-16.5,24.1s-17.3,0.9-16.1-25
			C853.6,618.9,864.4,619.5,868.6,619.5z"/>
		<path class="st5" d="M868.9,627.6c0,0,4.9-0.6,4.6,16.9c0,17-3.8,17.1-4.5,17.1s-5.9,0.6-5.4-16.8
			C864.2,626.8,868.9,627.6,868.9,627.6z"/>
		<path class="st4" d="M751.6,735.3l0.3,3.7c0.1,0.9,1,1.4,1.8,0.9c2.3-1.3,6.3-3,7.9,1.1c2,5.2-8,14.2-10.2,16.1
			c-0.3,0.2-0.4,0.6-0.4,0.9v3.7c0,0.7,0.5,1.2,1.2,1.2h16.9c0.7,0,1.2-0.5,1.2-1.2v-3.4c0-0.7-0.5-1.2-1.2-1.2l-6.9-0.1
			c-1,0-1.6-1.3-0.8-2c3.3-3.3,9-10,7.5-16.2c-1.9-8.1-11.5-6.7-16.5-4.9C751.9,734.2,751.6,734.7,751.6,735.3z"/>
		<path class="st4" d="M781.9,732.6c1.5,0,9.6-1.2,10,15.9c0.4,15.7-10,14.6-10,14.6s-10.4,0.5-9.7-15.1
			C772.9,732.3,779.4,732.6,781.9,732.6z"/>
		<path class="st5" d="M782.1,737.6c0,0,3-0.3,2.8,10.2c0,10.3-2.3,10.3-2.7,10.3c-0.4,0-3.6,0.4-3.3-10.2
			C779.3,737.1,782.1,737.6,782.1,737.6z"/>
		<path class="st4" d="M977.6,729.6L977.6,729.6c0.1,0.7,0.8,1.2,1.4,0.9c0.8-0.3,1.8-0.4,2.2,0.8c0.7,1.8-2.5,4.8-3.6,5.8
			c-0.2,0.2-0.4,0.5-0.4,0.8v0.5c0,0.6,0.5,1.1,1.1,1.1h5.1c0.6,0,1.1-0.5,1.1-1.1v0c0-0.6-0.5-1-1-1.1l-0.6,0c-0.9,0-1.4-1-0.8-1.7
			c1.1-1.3,2.3-3.3,1.9-5.1c-0.6-2.8-3.7-2.5-5.6-2C977.9,728.7,977.6,729.1,977.6,729.6z"/>
		<path class="st4" d="M988.8,728.2c0.6,0,3.6-0.4,3.7,5.9c0.1,5.9-3.7,5.4-3.7,5.4s-3.9,0.2-3.6-5.6
			C985.5,728,987.9,728.2,988.8,728.2z"/>
		<path class="st5" d="M988.9,730c0,0,1.1-0.1,1,3.8c0,3.8-0.9,3.8-1,3.8c-0.1,0-1.3,0.1-1.2-3.8C987.8,729.8,988.9,730,988.9,730z"
			/>
		<path class="st6" d="M881.8,626.6l2-4.8c0.2-0.5,0.9-0.5,1.1,0l1.5,4.7c0.1,0.2,0.3,0.4,0.6,0.4h4.5c0.6,0,0.8,0.7,0.4,1.1l-4,3
			c-0.2,0.2-0.3,0.4-0.2,0.7l1.8,4.6c0.2,0.5-0.4,1-0.9,0.7l-4.2-2.8c-0.2-0.1-0.4-0.1-0.6,0l-3.5,1.7c-0.5,0.2-1-0.2-0.8-0.7l1-3.5
			c0.1-0.2,0-0.5-0.2-0.6l-3.2-2.8c-0.4-0.3-0.2-1,0.3-1l4.1-0.3C881.5,626.9,881.7,626.8,881.8,626.6z"/>
		<path class="st6" d="M826.8,720.8l2-4.8c0.2-0.5,0.9-0.5,1.1,0l1.5,4.7c0.1,0.2,0.3,0.4,0.6,0.4h4.5c0.6,0,0.8,0.7,0.4,1.1l-4,3
			c-0.2,0.2-0.3,0.4-0.2,0.7l1.8,4.6c0.2,0.5-0.4,1-0.9,0.7l-4.2-2.8c-0.2-0.1-0.4-0.1-0.6,0l-3.5,1.7c-0.5,0.2-1-0.2-0.8-0.7l1-3.5
			c0.1-0.2,0-0.5-0.2-0.6l-3.2-2.8c-0.4-0.3-0.2-1,0.3-1l4.1-0.3C826.5,721.1,826.7,721,826.8,720.8z"/>
		<path class="st6" d="M826.8,659l2-4.8c0.2-0.5,0.9-0.5,1.1,0l1.5,4.7c0.1,0.2,0.3,0.4,0.6,0.4h4.5c0.6,0,0.8,0.7,0.4,1.1l-4,3
			c-0.2,0.2-0.3,0.4-0.2,0.7l1.8,4.6c0.2,0.5-0.4,1-0.9,0.7l-4.2-2.8c-0.2-0.1-0.4-0.1-0.6,0l-3.5,1.7c-0.5,0.2-1-0.2-0.8-0.7l1-3.5
			c0.1-0.2,0-0.5-0.2-0.6l-3.2-2.8c-0.4-0.3-0.2-1,0.3-1l4.1-0.3C826.5,659.3,826.7,659.2,826.8,659z"/>
		<path class="st6" d="M854.6,635.5l-2-4.8c-0.2-0.5-0.9-0.5-1.1,0l-1.5,4.7c-0.1,0.2-0.3,0.4-0.6,0.4H845c-0.6,0-0.8,0.7-0.4,1.1
			l4,3c0.2,0.2,0.3,0.4,0.2,0.7l-1.8,4.6c-0.2,0.5,0.4,1,0.9,0.7l4.2-2.8c0.2-0.1,0.4-0.1,0.6,0l3.5,1.7c0.5,0.2,1-0.2,0.8-0.7
			l-1-3.5c-0.1-0.2,0-0.5,0.2-0.6l3.2-2.8c0.4-0.3,0.2-1-0.3-1l-4.1-0.3C854.8,635.8,854.6,635.7,854.6,635.5z"/>
		<path class="st6" d="M823.5,689.2l-2-4.8c-0.2-0.5-0.9-0.5-1.1,0l-1.5,4.7c-0.1,0.2-0.3,0.4-0.6,0.4h-4.5c-0.6,0-0.8,0.7-0.4,1.1
			l4,3c0.2,0.2,0.3,0.4,0.2,0.7l-1.8,4.6c-0.2,0.5,0.4,1,0.9,0.7l4.2-2.8c0.2-0.1,0.4-0.1,0.6,0l3.5,1.7c0.5,0.2,1-0.2,0.8-0.7
			l-1-3.5c-0.1-0.2,0-0.5,0.2-0.6l3.2-2.8c0.4-0.3,0.2-1-0.3-1l-4.1-0.3C823.8,689.6,823.6,689.4,823.5,689.2z"/>
	</g>
</g>
<g>
	<g>
		<path class="st25" d="M1359,346.9h-279.8c-6.3,0-11.3-5.1-11.3-11.3V195c0-6.3,5.1-11.3,11.3-11.3H1359c6.3,0,11.3,5.1,11.3,11.3
			v140.5C1370.4,341.8,1365.3,346.9,1359,346.9z"/>
		<path class="st1" d="M1220.4,334.8v-85.4c0-0.2,0.1-0.4,0.1-0.6c1.2-2.2,10.3-17.5,29.2-26c0.3-0.1,0.7-0.1,1,0
			c3.1,1.4,19.9,9.8,29.2,26.7c0.1,0.2,0.1,0.4,0.1,0.6v85.4c0,0.7-0.5,1.2-1.2,1.2l-57.4-0.6C1220.9,336,1220.4,335.4,1220.4,334.8
			z"/>
		<path class="st2" d="M1224.3,263.9c0,0,10.9-24.3,25.6-29.3c0.2-0.1,0.5-0.1,0.7,0c2.1,0.6,13,4.8,25.3,29.4"/>
		<path class="st3" d="M1260.9,228.7v-10.9c0-0.2,0-0.3,0.1-0.5c0.8-1.9,7-15.3,24-21.9c0.3-0.1,0.6-0.1,0.9,0
			c2.8,1.3,17.2,8.4,22.6,21.3c0.1,0.1,0.1,0.3,0.1,0.5v118.1c0,0.7-0.5,1.2-1.2,1.2h-27.2"/>
		<path class="st4" d="M1163.5,197.1l0.6,8c0.1,0.9,1.1,1.4,1.8,0.9c3.4-2.2,11.2-6.2,14.1,1.2c3.4,8.8-14.2,24.4-17.1,26.9
			c-0.3,0.2-0.4,0.6-0.4,0.9v7.2c0,0.7,0.5,1.2,1.2,1.2h29.5c0.7,0,1.2-0.5,1.2-1.2v-7.1c0-0.7-0.5-1.2-1.2-1.2l-14-0.1
			c-1.1,0-1.6-1.3-0.8-2c5-4.7,16.4-16.9,13.8-28.1c-3.2-13.7-19.7-10.9-27.9-7.8C1163.7,196.1,1163.4,196.6,1163.5,197.1z"/>
		<path class="st4" d="M1213.6,193.3c2.5,0,15.9-1.9,16.5,26.3c0.6,26-16.5,24.1-16.5,24.1s-17.3,0.9-16.1-25
			C1198.6,192.8,1209.4,193.3,1213.6,193.3z"/>
		<path class="st5" d="M1214,201.5c0,0,4.9-0.6,4.6,16.9c0,17-3.8,17.1-4.5,17.1c-0.7,0-5.9,0.6-5.4-16.8
			C1209.2,200.7,1214,201.5,1214,201.5z"/>
		<path class="st4" d="M1096.7,309.1l0.3,3.7c0.1,0.9,1,1.4,1.8,0.9c2.3-1.3,6.3-3,7.9,1.1c2,5.2-8,14.2-10.2,16.1
			c-0.3,0.2-0.4,0.6-0.4,0.9v3.7c0,0.7,0.5,1.2,1.2,1.2h16.9c0.7,0,1.2-0.5,1.2-1.2v-3.4c0-0.7-0.5-1.2-1.2-1.2l-6.9-0.1
			c-1,0-1.6-1.3-0.8-2c3.3-3.3,9-10,7.5-16.2c-1.9-8.1-11.5-6.7-16.5-4.9C1096.9,308.1,1096.6,308.6,1096.7,309.1z"/>
		<path class="st4" d="M1127,306.5c1.5,0,9.6-1.2,10,15.9c0.4,15.7-10,14.6-10,14.6s-10.4,0.5-9.7-15.1
			C1117.9,306.2,1124.4,306.5,1127,306.5z"/>
		<path class="st5" d="M1127.2,311.5c0,0,3-0.3,2.8,10.2c0,10.3-2.3,10.3-2.7,10.3s-3.6,0.4-3.3-10.2
			C1124.3,311,1127.2,311.5,1127.2,311.5z"/>
		<path class="st4" d="M1322.6,303.5L1322.6,303.5c0.1,0.7,0.8,1.2,1.4,0.9c0.8-0.3,1.8-0.4,2.2,0.8c0.7,1.8-2.5,4.8-3.6,5.8
			c-0.2,0.2-0.4,0.5-0.4,0.8v0.5c0,0.6,0.5,1.1,1.1,1.1h5.1c0.6,0,1.1-0.5,1.1-1.1v0c0-0.6-0.5-1-1-1.1l-0.6,0c-0.9,0-1.4-1-0.8-1.7
			c1.1-1.3,2.3-3.3,1.9-5.1c-0.6-2.8-3.7-2.5-5.6-2C1322.9,302.5,1322.6,303,1322.6,303.5z"/>
		<path class="st4" d="M1333.8,302c0.6,0,3.6-0.4,3.7,5.9c0.1,5.9-3.7,5.4-3.7,5.4s-3.9,0.2-3.6-5.6S1332.9,302,1333.8,302z"/>
		<path class="st5" d="M1333.9,303.9c0,0,1.1-0.1,1,3.8c0,3.8-0.9,3.8-1,3.8s-1.3,0.1-1.2-3.8
			C1332.9,303.7,1333.9,303.9,1333.9,303.9z"/>
		<path class="st6" d="M1226.8,200.5l2-4.8c0.2-0.5,0.9-0.5,1.1,0l1.5,4.7c0.1,0.2,0.3,0.4,0.6,0.4h4.5c0.6,0,0.8,0.7,0.4,1.1l-4,3
			c-0.2,0.2-0.3,0.4-0.2,0.7l1.8,4.6c0.2,0.5-0.4,1-0.9,0.7l-4.2-2.8c-0.2-0.1-0.4-0.1-0.6,0l-3.5,1.7c-0.5,0.2-1-0.2-0.8-0.7l1-3.5
			c0.1-0.2,0-0.5-0.2-0.6l-3.2-2.8c-0.4-0.3-0.2-1,0.3-1l4.1-0.3C1226.5,200.8,1226.7,200.7,1226.8,200.5z"/>
		<path class="st6" d="M1171.8,294.7l2-4.8c0.2-0.5,0.9-0.5,1.1,0l1.5,4.7c0.1,0.2,0.3,0.4,0.6,0.4h4.5c0.6,0,0.8,0.7,0.4,1.1l-4,3
			c-0.2,0.2-0.3,0.4-0.2,0.7l1.8,4.6c0.2,0.5-0.4,1-0.9,0.7l-4.2-2.8c-0.2-0.1-0.4-0.1-0.6,0l-3.5,1.7c-0.5,0.2-1-0.2-0.8-0.7l1-3.5
			c0.1-0.2,0-0.5-0.2-0.6l-3.2-2.8c-0.4-0.3-0.2-1,0.3-1l4.1-0.3C1171.6,295,1171.8,294.9,1171.8,294.7z"/>
		<path class="st6" d="M1171.8,232.8l2-4.8c0.2-0.5,0.9-0.5,1.1,0l1.5,4.7c0.1,0.2,0.3,0.4,0.6,0.4h4.5c0.6,0,0.8,0.7,0.4,1.1l-4,3
			c-0.2,0.2-0.3,0.4-0.2,0.7l1.8,4.6c0.2,0.5-0.4,1-0.9,0.7l-4.2-2.8c-0.2-0.1-0.4-0.1-0.6,0l-3.5,1.7c-0.5,0.2-1-0.2-0.8-0.7l1-3.5
			c0.1-0.2,0-0.5-0.2-0.6l-3.2-2.8c-0.4-0.3-0.2-1,0.3-1l4.1-0.3C1171.6,233.2,1171.8,233.1,1171.8,232.8z"/>
		<path class="st6" d="M1199.6,209.3l-2-4.8c-0.2-0.5-0.9-0.5-1.1,0l-1.5,4.7c-0.1,0.2-0.3,0.4-0.6,0.4h-4.5c-0.6,0-0.8,0.7-0.4,1.1
			l4,3c0.2,0.2,0.3,0.4,0.2,0.7l-1.8,4.6c-0.2,0.5,0.4,1,0.9,0.7l4.2-2.8c0.2-0.1,0.4-0.1,0.6,0l3.5,1.7c0.5,0.2,1-0.2,0.8-0.7
			l-1-3.5c-0.1-0.2,0-0.5,0.2-0.6l3.2-2.8c0.4-0.3,0.2-1-0.3-1l-4.1-0.3C1199.9,209.7,1199.7,209.6,1199.6,209.3z"/>
		<path class="st6" d="M1168.5,263.1l-2-4.8c-0.2-0.5-0.9-0.5-1.1,0l-1.5,4.7c-0.1,0.2-0.3,0.4-0.6,0.4h-4.5c-0.6,0-0.8,0.7-0.4,1.1
			l4,3c0.2,0.2,0.3,0.4,0.2,0.7l-1.8,4.6c-0.2,0.5,0.4,1,0.9,0.7l4.2-2.8c0.2-0.1,0.4-0.1,0.6,0l3.5,1.7c0.5,0.2,1-0.2,0.8-0.7
			l-1-3.5c-0.1-0.2,0-0.5,0.2-0.6l3.2-2.8c0.4-0.3,0.2-1-0.3-1l-4.1-0.3C1168.8,263.5,1168.6,263.3,1168.5,263.1z"/>
	</g>
	<g>
		<path class="st25" d="M1359,453.4h-279.8c-6.3,0-11.3-5.1-11.3-11.3V301.5c0-6.3,5.1-11.3,11.3-11.3H1359
			c6.3,0,11.3,5.1,11.3,11.3v140.5C1370.4,448.3,1365.3,453.4,1359,453.4z"/>
		<path class="st1" d="M1220.4,441.3v-85.4c0-0.2,0.1-0.4,0.1-0.6c1.2-2.2,10.3-17.5,29.2-26c0.3-0.1,0.7-0.1,1,0
			c3.1,1.4,19.9,9.8,29.2,26.7c0.1,0.2,0.1,0.4,0.1,0.6v85.4c0,0.7-0.5,1.2-1.2,1.2l-57.4-0.6C1220.9,442.5,1220.4,442,1220.4,441.3
			z"/>
		<path class="st2" d="M1224.3,370.4c0,0,10.9-24.3,25.6-29.3c0.2-0.1,0.5-0.1,0.7,0c2.1,0.6,13,4.8,25.3,29.4"/>
		<path class="st3" d="M1260.9,335.3v-10.9c0-0.2,0-0.3,0.1-0.5c0.8-1.9,7-15.3,24-21.9c0.3-0.1,0.6-0.1,0.9,0
			c2.8,1.3,17.2,8.4,22.6,21.3c0.1,0.1,0.1,0.3,0.1,0.5v118.1c0,0.7-0.5,1.2-1.2,1.2h-27.2"/>
		<path class="st4" d="M1163.5,303.6l0.6,8c0.1,0.9,1.1,1.4,1.8,0.9c3.4-2.2,11.2-6.2,14.1,1.2c3.4,8.8-14.2,24.4-17.1,26.9
			c-0.3,0.2-0.4,0.6-0.4,0.9v7.2c0,0.7,0.5,1.2,1.2,1.2h29.5c0.7,0,1.2-0.5,1.2-1.2v-7.1c0-0.7-0.5-1.2-1.2-1.2l-14-0.1
			c-1.1,0-1.6-1.3-0.8-2c5-4.7,16.4-16.9,13.8-28.1c-3.2-13.7-19.7-10.9-27.9-7.8C1163.7,302.6,1163.4,303.1,1163.5,303.6z"/>
		<path class="st4" d="M1213.6,299.9c2.5,0,15.9-1.9,16.5,26.3c0.6,26-16.5,24.1-16.5,24.1s-17.3,0.9-16.1-25
			C1198.6,299.3,1209.4,299.9,1213.6,299.9z"/>
		<path class="st5" d="M1214,308c0,0,4.9-0.6,4.6,16.9c0,17-3.8,17.1-4.5,17.1c-0.7,0-5.9,0.6-5.4-16.8
			C1209.2,307.2,1214,308,1214,308z"/>
		<path class="st4" d="M1096.7,415.7l0.3,3.7c0.1,0.9,1,1.4,1.8,0.9c2.3-1.3,6.3-3,7.9,1.1c2,5.2-8,14.2-10.2,16.1
			c-0.3,0.2-0.4,0.6-0.4,0.9v3.7c0,0.7,0.5,1.2,1.2,1.2h16.9c0.7,0,1.2-0.5,1.2-1.2v-3.4c0-0.7-0.5-1.2-1.2-1.2l-6.9-0.1
			c-1,0-1.6-1.3-0.8-2c3.3-3.3,9-10,7.5-16.2c-1.9-8.1-11.5-6.7-16.5-4.9C1096.9,414.6,1096.6,415.1,1096.7,415.7z"/>
		<path class="st4" d="M1127,413.1c1.5,0,9.6-1.2,10,15.9c0.4,15.7-10,14.6-10,14.6s-10.4,0.5-9.7-15.1
			C1117.9,412.7,1124.4,413.1,1127,413.1z"/>
		<path class="st5" d="M1127.2,418c0,0,3-0.3,2.8,10.2c0,10.3-2.3,10.3-2.7,10.3s-3.6,0.4-3.3-10.2
			C1124.3,417.5,1127.2,418,1127.2,418z"/>
		<path class="st4" d="M1322.6,410L1322.6,410c0.1,0.7,0.8,1.2,1.4,0.9c0.8-0.3,1.8-0.4,2.2,0.8c0.7,1.8-2.5,4.8-3.6,5.8
			c-0.2,0.2-0.4,0.5-0.4,0.8v0.5c0,0.6,0.5,1.1,1.1,1.1h5.1c0.6,0,1.1-0.5,1.1-1.1v0c0-0.6-0.5-1-1-1.1l-0.6,0c-0.9,0-1.4-1-0.8-1.7
			c1.1-1.3,2.3-3.3,1.9-5.1c-0.6-2.8-3.7-2.5-5.6-2C1322.9,409.1,1322.6,409.5,1322.6,410z"/>
		<path class="st4" d="M1333.8,408.6c0.6,0,3.6-0.4,3.7,5.9c0.1,5.9-3.7,5.4-3.7,5.4s-3.9,0.2-3.6-5.6S1332.9,408.6,1333.8,408.6z"
			/>
		<path class="st5" d="M1333.9,410.4c0,0,1.1-0.1,1,3.8c0,3.8-0.9,3.8-1,3.8s-1.3,0.1-1.2-3.8
			C1332.9,410.2,1333.9,410.4,1333.9,410.4z"/>
		<path class="st6" d="M1226.8,307l2-4.8c0.2-0.5,0.9-0.5,1.1,0l1.5,4.7c0.1,0.2,0.3,0.4,0.6,0.4h4.5c0.6,0,0.8,0.7,0.4,1.1l-4,3
			c-0.2,0.2-0.3,0.4-0.2,0.7l1.8,4.6c0.2,0.5-0.4,1-0.9,0.7l-4.2-2.8c-0.2-0.1-0.4-0.1-0.6,0l-3.5,1.7c-0.5,0.2-1-0.2-0.8-0.7l1-3.5
			c0.1-0.2,0-0.5-0.2-0.6l-3.2-2.8c-0.4-0.3-0.2-1,0.3-1l4.1-0.3C1226.5,307.3,1226.7,307.2,1226.8,307z"/>
		<path class="st6" d="M1171.8,401.2l2-4.8c0.2-0.5,0.9-0.5,1.1,0l1.5,4.7c0.1,0.2,0.3,0.4,0.6,0.4h4.5c0.6,0,0.8,0.7,0.4,1.1l-4,3
			c-0.2,0.2-0.3,0.4-0.2,0.7l1.8,4.6c0.2,0.5-0.4,1-0.9,0.7l-4.2-2.8c-0.2-0.1-0.4-0.1-0.6,0l-3.5,1.7c-0.5,0.2-1-0.2-0.8-0.7l1-3.5
			c0.1-0.2,0-0.5-0.2-0.6l-3.2-2.8c-0.4-0.3-0.2-1,0.3-1l4.1-0.3C1171.6,401.6,1171.8,401.4,1171.8,401.2z"/>
		<path class="st6" d="M1171.8,339.4l2-4.8c0.2-0.5,0.9-0.5,1.1,0l1.5,4.7c0.1,0.2,0.3,0.4,0.6,0.4h4.5c0.6,0,0.8,0.7,0.4,1.1l-4,3
			c-0.2,0.2-0.3,0.4-0.2,0.7l1.8,4.6c0.2,0.5-0.4,1-0.9,0.7l-4.2-2.8c-0.2-0.1-0.4-0.1-0.6,0l-3.5,1.7c-0.5,0.2-1-0.2-0.8-0.7l1-3.5
			c0.1-0.2,0-0.5-0.2-0.6l-3.2-2.8c-0.4-0.3-0.2-1,0.3-1l4.1-0.3C1171.6,339.7,1171.8,339.6,1171.8,339.4z"/>
		<path class="st6" d="M1199.6,315.9l-2-4.8c-0.2-0.5-0.9-0.5-1.1,0l-1.5,4.7c-0.1,0.2-0.3,0.4-0.6,0.4h-4.5c-0.6,0-0.8,0.7-0.4,1.1
			l4,3c0.2,0.2,0.3,0.4,0.2,0.7l-1.8,4.6c-0.2,0.5,0.4,1,0.9,0.7l4.2-2.8c0.2-0.1,0.4-0.1,0.6,0l3.5,1.7c0.5,0.2,1-0.2,0.8-0.7
			l-1-3.5c-0.1-0.2,0-0.5,0.2-0.6l3.2-2.8c0.4-0.3,0.2-1-0.3-1l-4.1-0.3C1199.9,316.2,1199.7,316.1,1199.6,315.9z"/>
		<path class="st6" d="M1168.5,369.6l-2-4.8c-0.2-0.5-0.9-0.5-1.1,0l-1.5,4.7c-0.1,0.2-0.3,0.4-0.6,0.4h-4.5c-0.6,0-0.8,0.7-0.4,1.1
			l4,3c0.2,0.2,0.3,0.4,0.2,0.7l-1.8,4.6c-0.2,0.5,0.4,1,0.9,0.7l4.2-2.8c0.2-0.1,0.4-0.1,0.6,0l3.5,1.7c0.5,0.2,1-0.2,0.8-0.7
			l-1-3.5c-0.1-0.2,0-0.5,0.2-0.6l3.2-2.8c0.4-0.3,0.2-1-0.3-1l-4.1-0.3C1168.8,370,1168.6,369.9,1168.5,369.6z"/>
	</g>
	<g>
		<path class="st25" d="M1359,559.9h-279.8c-6.3,0-11.3-5.1-11.3-11.3V408.1c0-6.3,5.1-11.3,11.3-11.3H1359
			c6.3,0,11.3,5.1,11.3,11.3v140.5C1370.4,554.9,1365.3,559.9,1359,559.9z"/>
		<path class="st1" d="M1220.4,547.9v-85.4c0-0.2,0.1-0.4,0.1-0.6c1.2-2.2,10.3-17.5,29.2-26c0.3-0.1,0.7-0.1,1,0
			c3.1,1.4,19.9,9.8,29.2,26.7c0.1,0.2,0.1,0.4,0.1,0.6v85.4c0,0.7-0.5,1.2-1.2,1.2l-57.4-0.6C1220.9,549,1220.4,548.5,1220.4,547.9
			z"/>
		<path class="st2" d="M1224.3,477c0,0,10.9-24.3,25.6-29.3c0.2-0.1,0.5-0.1,0.7,0c2.1,0.6,13,4.8,25.3,29.4"/>
		<path class="st3" d="M1260.9,441.8v-10.9c0-0.2,0-0.3,0.1-0.5c0.8-1.9,7-15.3,24-21.9c0.3-0.1,0.6-0.1,0.9,0
			c2.8,1.3,17.2,8.4,22.6,21.3c0.1,0.1,0.1,0.3,0.1,0.5v118.1c0,0.7-0.5,1.2-1.2,1.2h-27.2"/>
		<path class="st4" d="M1163.5,410.1l0.6,8c0.1,0.9,1.1,1.4,1.8,0.9c3.4-2.2,11.2-6.2,14.1,1.2c3.4,8.8-14.2,24.4-17.1,26.9
			c-0.3,0.2-0.4,0.6-0.4,0.9v7.2c0,0.7,0.5,1.2,1.2,1.2h29.5c0.7,0,1.2-0.5,1.2-1.2v-7.1c0-0.7-0.5-1.2-1.2-1.2l-14-0.1
			c-1.1,0-1.6-1.3-0.8-2c5-4.7,16.4-16.9,13.8-28.1c-3.2-13.7-19.7-10.9-27.9-7.8C1163.7,409.1,1163.4,409.6,1163.5,410.1z"/>
		<path class="st4" d="M1213.6,406.4c2.5,0,15.9-1.9,16.5,26.3c0.6,26-16.5,24.1-16.5,24.1s-17.3,0.9-16.1-25
			C1198.6,405.8,1209.4,406.4,1213.6,406.4z"/>
		<path class="st5" d="M1214,414.6c0,0,4.9-0.6,4.6,16.9c0,17-3.8,17.1-4.5,17.1c-0.7,0-5.9,0.6-5.4-16.8
			C1209.2,413.7,1214,414.6,1214,414.6z"/>
		<path class="st4" d="M1096.7,522.2l0.3,3.7c0.1,0.9,1,1.4,1.8,0.9c2.3-1.3,6.3-3,7.9,1.1c2,5.2-8,14.2-10.2,16.1
			c-0.3,0.2-0.4,0.6-0.4,0.9v3.7c0,0.7,0.5,1.2,1.2,1.2h16.9c0.7,0,1.2-0.5,1.2-1.2v-3.4c0-0.7-0.5-1.2-1.2-1.2l-6.9-0.1
			c-1,0-1.6-1.3-0.8-2c3.3-3.3,9-10,7.5-16.2c-1.9-8.1-11.5-6.7-16.5-4.9C1096.9,521.2,1096.6,521.7,1096.7,522.2z"/>
		<path class="st4" d="M1127,519.6c1.5,0,9.6-1.2,10,15.9c0.4,15.7-10,14.6-10,14.6s-10.4,0.5-9.7-15.1
			C1117.9,519.2,1124.4,519.6,1127,519.6z"/>
		<path class="st5" d="M1127.2,524.5c0,0,3-0.3,2.8,10.2c0,10.3-2.3,10.3-2.7,10.3s-3.6,0.4-3.3-10.2
			C1124.3,524,1127.2,524.5,1127.2,524.5z"/>
		<path class="st4" d="M1322.6,516.6L1322.6,516.6c0.1,0.7,0.8,1.2,1.4,0.9c0.8-0.3,1.8-0.4,2.2,0.8c0.7,1.8-2.5,4.8-3.6,5.8
			c-0.2,0.2-0.4,0.5-0.4,0.8v0.5c0,0.6,0.5,1.1,1.1,1.1h5.1c0.6,0,1.1-0.5,1.1-1.1v0c0-0.6-0.5-1-1-1.1l-0.6,0c-0.9,0-1.4-1-0.8-1.7
			c1.1-1.3,2.3-3.3,1.9-5.1c-0.6-2.8-3.7-2.5-5.6-2C1322.9,515.6,1322.6,516.1,1322.6,516.6z"/>
		<path class="st4" d="M1333.8,515.1c0.6,0,3.6-0.4,3.7,5.9c0.1,5.9-3.7,5.4-3.7,5.4s-3.9,0.2-3.6-5.6
			C1330.5,515,1332.9,515.1,1333.8,515.1z"/>
		<path class="st5" d="M1333.9,516.9c0,0,1.1-0.1,1,3.8c0,3.8-0.9,3.8-1,3.8s-1.3,0.1-1.2-3.8
			C1332.9,516.7,1333.9,516.9,1333.9,516.9z"/>
		<path class="st6" d="M1226.8,413.5l2-4.8c0.2-0.5,0.9-0.5,1.1,0l1.5,4.7c0.1,0.2,0.3,0.4,0.6,0.4h4.5c0.6,0,0.8,0.7,0.4,1.1l-4,3
			c-0.2,0.2-0.3,0.4-0.2,0.7l1.8,4.6c0.2,0.5-0.4,1-0.9,0.7l-4.2-2.8c-0.2-0.1-0.4-0.1-0.6,0l-3.5,1.7c-0.5,0.2-1-0.2-0.8-0.7l1-3.5
			c0.1-0.2,0-0.5-0.2-0.6l-3.2-2.8c-0.4-0.3-0.2-1,0.3-1l4.1-0.3C1226.5,413.9,1226.7,413.7,1226.8,413.5z"/>
		<path class="st6" d="M1171.8,507.7l2-4.8c0.2-0.5,0.9-0.5,1.1,0l1.5,4.7c0.1,0.2,0.3,0.4,0.6,0.4h4.5c0.6,0,0.8,0.7,0.4,1.1l-4,3
			c-0.2,0.2-0.3,0.4-0.2,0.7l1.8,4.6c0.2,0.5-0.4,1-0.9,0.7l-4.2-2.8c-0.2-0.1-0.4-0.1-0.6,0l-3.5,1.7c-0.5,0.2-1-0.2-0.8-0.7l1-3.5
			c0.1-0.2,0-0.5-0.2-0.6l-3.2-2.8c-0.4-0.3-0.2-1,0.3-1l4.1-0.3C1171.6,508.1,1171.8,507.9,1171.8,507.7z"/>
		<path class="st6" d="M1171.8,445.9l2-4.8c0.2-0.5,0.9-0.5,1.1,0l1.5,4.7c0.1,0.2,0.3,0.4,0.6,0.4h4.5c0.6,0,0.8,0.7,0.4,1.1l-4,3
			c-0.2,0.2-0.3,0.4-0.2,0.7l1.8,4.6c0.2,0.5-0.4,1-0.9,0.7l-4.2-2.8c-0.2-0.1-0.4-0.1-0.6,0l-3.5,1.7c-0.5,0.2-1-0.2-0.8-0.7l1-3.5
			c0.1-0.2,0-0.5-0.2-0.6l-3.2-2.8c-0.4-0.3-0.2-1,0.3-1l4.1-0.3C1171.6,446.2,1171.8,446.1,1171.8,445.9z"/>
		<path class="st6" d="M1199.6,422.4l-2-4.8c-0.2-0.5-0.9-0.5-1.1,0l-1.5,4.7c-0.1,0.2-0.3,0.4-0.6,0.4h-4.5c-0.6,0-0.8,0.7-0.4,1.1
			l4,3c0.2,0.2,0.3,0.4,0.2,0.7l-1.8,4.6c-0.2,0.5,0.4,1,0.9,0.7l4.2-2.8c0.2-0.1,0.4-0.1,0.6,0l3.5,1.7c0.5,0.2,1-0.2,0.8-0.7
			l-1-3.5c-0.1-0.2,0-0.5,0.2-0.6l3.2-2.8c0.4-0.3,0.2-1-0.3-1l-4.1-0.3C1199.9,422.8,1199.7,422.6,1199.6,422.4z"/>
		<path class="st6" d="M1168.5,476.2l-2-4.8c-0.2-0.5-0.9-0.5-1.1,0l-1.5,4.7c-0.1,0.2-0.3,0.4-0.6,0.4h-4.5c-0.6,0-0.8,0.7-0.4,1.1
			l4,3c0.2,0.2,0.3,0.4,0.2,0.7l-1.8,4.6c-0.2,0.5,0.4,1,0.9,0.7l4.2-2.8c0.2-0.1,0.4-0.1,0.6,0l3.5,1.7c0.5,0.2,1-0.2,0.8-0.7
			l-1-3.5c-0.1-0.2,0-0.5,0.2-0.6l3.2-2.8c0.4-0.3,0.2-1-0.3-1l-4.1-0.3C1168.8,476.5,1168.6,476.4,1168.5,476.2z"/>
	</g>
	<g>
		<path class="st25" d="M1359,666.5h-279.8c-6.3,0-11.3-5.1-11.3-11.3V514.6c0-6.3,5.1-11.3,11.3-11.3H1359
			c6.3,0,11.3,5.1,11.3,11.3v140.5C1370.4,661.4,1365.3,666.5,1359,666.5z"/>
		<path class="st1" d="M1220.4,654.4v-85.4c0-0.2,0.1-0.4,0.1-0.6c1.2-2.2,10.3-17.5,29.2-26c0.3-0.1,0.7-0.1,1,0
			c3.1,1.4,19.9,9.8,29.2,26.7c0.1,0.2,0.1,0.4,0.1,0.6V655c0,0.7-0.5,1.2-1.2,1.2l-57.4-0.6C1220.9,655.6,1220.4,655,1220.4,654.4z
			"/>
		<path class="st2" d="M1224.3,583.5c0,0,10.9-24.3,25.6-29.3c0.2-0.1,0.5-0.1,0.7,0c2.1,0.6,13,4.8,25.3,29.4"/>
		<path class="st3" d="M1260.9,548.3v-10.9c0-0.2,0-0.3,0.1-0.5c0.8-1.9,7-15.3,24-21.9c0.3-0.1,0.6-0.1,0.9,0
			c2.8,1.3,17.2,8.4,22.6,21.3c0.1,0.1,0.1,0.3,0.1,0.5V655c0,0.7-0.5,1.2-1.2,1.2h-27.2"/>
		<path class="st4" d="M1163.5,516.7l0.6,8c0.1,0.9,1.1,1.4,1.8,0.9c3.4-2.2,11.2-6.2,14.1,1.2c3.4,8.8-14.2,24.4-17.1,26.9
			c-0.3,0.2-0.4,0.6-0.4,0.9v7.2c0,0.7,0.5,1.2,1.2,1.2h29.5c0.7,0,1.2-0.5,1.2-1.2v-7.1c0-0.7-0.5-1.2-1.2-1.2l-14-0.1
			c-1.1,0-1.6-1.3-0.8-2c5-4.7,16.4-16.9,13.8-28.1c-3.2-13.7-19.7-10.9-27.9-7.8C1163.7,515.7,1163.4,516.1,1163.5,516.7z"/>
		<path class="st4" d="M1213.6,512.9c2.5,0,15.9-1.9,16.5,26.3c0.6,26-16.5,24.1-16.5,24.1s-17.3,0.9-16.1-25
			C1198.6,512.3,1209.4,512.9,1213.6,512.9z"/>
		<path class="st5" d="M1214,521.1c0,0,4.9-0.6,4.6,16.9c0,17-3.8,17.1-4.5,17.1c-0.7,0-5.9,0.6-5.4-16.8
			C1209.2,520.2,1214,521.1,1214,521.1z"/>
		<path class="st4" d="M1096.7,628.7l0.3,3.7c0.1,0.9,1,1.4,1.8,0.9c2.3-1.3,6.3-3,7.9,1.1c2,5.2-8,14.2-10.2,16.1
			c-0.3,0.2-0.4,0.6-0.4,0.9v3.7c0,0.7,0.5,1.2,1.2,1.2h16.9c0.7,0,1.2-0.5,1.2-1.2v-3.4c0-0.7-0.5-1.2-1.2-1.2l-6.9-0.1
			c-1,0-1.6-1.3-0.8-2c3.3-3.3,9-10,7.5-16.2c-1.9-8.1-11.5-6.7-16.5-4.9C1096.9,627.7,1096.6,628.2,1096.7,628.7z"/>
		<path class="st4" d="M1127,626.1c1.5,0,9.6-1.2,10,15.9c0.4,15.7-10,14.6-10,14.6s-10.4,0.5-9.7-15.1
			C1117.9,625.8,1124.4,626.1,1127,626.1z"/>
		<path class="st5" d="M1127.2,631c0,0,3-0.3,2.8,10.2c0,10.3-2.3,10.3-2.7,10.3s-3.6,0.4-3.3-10.2
			C1124.3,630.5,1127.2,631,1127.2,631z"/>
		<path class="st4" d="M1322.6,623.1L1322.6,623.1c0.1,0.7,0.8,1.2,1.4,0.9c0.8-0.3,1.8-0.4,2.2,0.8c0.7,1.8-2.5,4.8-3.6,5.8
			c-0.2,0.2-0.4,0.5-0.4,0.8v0.5c0,0.6,0.5,1.1,1.1,1.1h5.1c0.6,0,1.1-0.5,1.1-1.1v0c0-0.6-0.5-1-1-1.1l-0.6,0c-0.9,0-1.4-1-0.8-1.7
			c1.1-1.3,2.3-3.3,1.9-5.1c-0.6-2.8-3.7-2.5-5.6-2C1322.9,622.1,1322.6,622.6,1322.6,623.1z"/>
		<path class="st4" d="M1333.8,621.6c0.6,0,3.6-0.4,3.7,5.9c0.1,5.9-3.7,5.4-3.7,5.4s-3.9,0.2-3.6-5.6
			C1330.5,621.5,1332.9,621.6,1333.8,621.6z"/>
		<path class="st5" d="M1333.9,623.5c0,0,1.1-0.1,1,3.8c0,3.8-0.9,3.8-1,3.8s-1.3,0.1-1.2-3.8
			C1332.9,623.3,1333.9,623.5,1333.9,623.5z"/>
		<path class="st6" d="M1226.8,520l2-4.8c0.2-0.5,0.9-0.5,1.1,0l1.5,4.7c0.1,0.2,0.3,0.4,0.6,0.4h4.5c0.6,0,0.8,0.7,0.4,1.1l-4,3
			c-0.2,0.2-0.3,0.4-0.2,0.7l1.8,4.6c0.2,0.5-0.4,1-0.9,0.7l-4.2-2.8c-0.2-0.1-0.4-0.1-0.6,0l-3.5,1.7c-0.5,0.2-1-0.2-0.8-0.7l1-3.5
			c0.1-0.2,0-0.5-0.2-0.6l-3.2-2.8c-0.4-0.3-0.2-1,0.3-1l4.1-0.3C1226.5,520.4,1226.7,520.3,1226.8,520z"/>
		<path class="st6" d="M1171.8,614.3l2-4.8c0.2-0.5,0.9-0.5,1.1,0l1.5,4.7c0.1,0.2,0.3,0.4,0.6,0.4h4.5c0.6,0,0.8,0.7,0.4,1.1l-4,3
			c-0.2,0.2-0.3,0.4-0.2,0.7l1.8,4.6c0.2,0.5-0.4,1-0.9,0.7l-4.2-2.8c-0.2-0.1-0.4-0.1-0.6,0l-3.5,1.7c-0.5,0.2-1-0.2-0.8-0.7l1-3.5
			c0.1-0.2,0-0.5-0.2-0.6l-3.2-2.8c-0.4-0.3-0.2-1,0.3-1l4.1-0.3C1171.6,614.6,1171.8,614.5,1171.8,614.3z"/>
		<path class="st6" d="M1171.8,552.4l2-4.8c0.2-0.5,0.9-0.5,1.1,0l1.5,4.7c0.1,0.2,0.3,0.4,0.6,0.4h4.5c0.6,0,0.8,0.7,0.4,1.1l-4,3
			c-0.2,0.2-0.3,0.4-0.2,0.7l1.8,4.6c0.2,0.5-0.4,1-0.9,0.7l-4.2-2.8c-0.2-0.1-0.4-0.1-0.6,0l-3.5,1.7c-0.5,0.2-1-0.2-0.8-0.7l1-3.5
			c0.1-0.2,0-0.5-0.2-0.6l-3.2-2.8c-0.4-0.3-0.2-1,0.3-1l4.1-0.3C1171.6,552.8,1171.8,552.6,1171.8,552.4z"/>
		<path class="st6" d="M1199.6,528.9l-2-4.8c-0.2-0.5-0.9-0.5-1.1,0l-1.5,4.7c-0.1,0.2-0.3,0.4-0.6,0.4h-4.5c-0.6,0-0.8,0.7-0.4,1.1
			l4,3c0.2,0.2,0.3,0.4,0.2,0.7l-1.8,4.6c-0.2,0.5,0.4,1,0.9,0.7l4.2-2.8c0.2-0.1,0.4-0.1,0.6,0l3.5,1.7c0.5,0.2,1-0.2,0.8-0.7
			l-1-3.5c-0.1-0.2,0-0.5,0.2-0.6l3.2-2.8c0.4-0.3,0.2-1-0.3-1l-4.1-0.3C1199.9,529.3,1199.7,529.1,1199.6,528.9z"/>
		<path class="st6" d="M1168.5,582.7l-2-4.8c-0.2-0.5-0.9-0.5-1.1,0l-1.5,4.7c-0.1,0.2-0.3,0.4-0.6,0.4h-4.5c-0.6,0-0.8,0.7-0.4,1.1
			l4,3c0.2,0.2,0.3,0.4,0.2,0.7l-1.8,4.6c-0.2,0.5,0.4,1,0.9,0.7l4.2-2.8c0.2-0.1,0.4-0.1,0.6,0l3.5,1.7c0.5,0.2,1-0.2,0.8-0.7
			l-1-3.5c-0.1-0.2,0-0.5,0.2-0.6l3.2-2.8c0.4-0.3,0.2-1-0.3-1l-4.1-0.3C1168.8,583.1,1168.6,582.9,1168.5,582.7z"/>
	</g>
	<g>
		<path class="st25" d="M1359,773h-279.8c-6.3,0-11.3-5.1-11.3-11.3V621.1c0-6.3,5.1-11.3,11.3-11.3H1359c6.3,0,11.3,5.1,11.3,11.3
			v140.5C1370.4,767.9,1365.3,773,1359,773z"/>
		<path class="st1" d="M1220.4,760.9v-85.4c0-0.2,0.1-0.4,0.1-0.6c1.2-2.2,10.3-17.5,29.2-26c0.3-0.1,0.7-0.1,1,0
			c3.1,1.4,19.9,9.8,29.2,26.7c0.1,0.2,0.1,0.4,0.1,0.6v85.4c0,0.7-0.5,1.2-1.2,1.2l-57.4-0.6
			C1220.9,762.1,1220.4,761.6,1220.4,760.9z"/>
		<path class="st2" d="M1224.3,690c0,0,10.9-24.3,25.6-29.3c0.2-0.1,0.5-0.1,0.7,0c2.1,0.6,13,4.8,25.3,29.4"/>
		<path class="st3" d="M1260.9,654.9V644c0-0.2,0-0.3,0.1-0.5c0.8-1.9,7-15.3,24-21.9c0.3-0.1,0.6-0.1,0.9,0
			c2.8,1.3,17.2,8.4,22.6,21.3c0.1,0.1,0.1,0.3,0.1,0.5v118.1c0,0.7-0.5,1.2-1.2,1.2h-27.2"/>
		<path class="st4" d="M1163.5,623.2l0.6,8c0.1,0.9,1.1,1.4,1.8,0.9c3.4-2.2,11.2-6.2,14.1,1.2c3.4,8.8-14.2,24.4-17.1,26.9
			c-0.3,0.2-0.4,0.6-0.4,0.9v7.2c0,0.7,0.5,1.2,1.2,1.2h29.5c0.7,0,1.2-0.5,1.2-1.2v-7.1c0-0.7-0.5-1.2-1.2-1.2l-14-0.1
			c-1.1,0-1.6-1.3-0.8-2c5-4.7,16.4-16.9,13.8-28.1c-3.2-13.7-19.7-10.9-27.9-7.8C1163.7,622.2,1163.4,622.7,1163.5,623.2z"/>
		<path class="st4" d="M1213.6,619.5c2.5,0,15.9-1.9,16.5,26.3c0.6,26-16.5,24.1-16.5,24.1s-17.3,0.9-16.1-25
			C1198.6,618.9,1209.4,619.5,1213.6,619.5z"/>
		<path class="st5" d="M1214,627.6c0,0,4.9-0.6,4.6,16.9c0,17-3.8,17.1-4.5,17.1c-0.7,0-5.9,0.6-5.4-16.8
			C1209.2,626.8,1214,627.6,1214,627.6z"/>
		<path class="st4" d="M1096.7,735.3l0.3,3.7c0.1,0.9,1,1.4,1.8,0.9c2.3-1.3,6.3-3,7.9,1.1c2,5.2-8,14.2-10.2,16.1
			c-0.3,0.2-0.4,0.6-0.4,0.9v3.7c0,0.7,0.5,1.2,1.2,1.2h16.9c0.7,0,1.2-0.5,1.2-1.2v-3.4c0-0.7-0.5-1.2-1.2-1.2l-6.9-0.1
			c-1,0-1.6-1.3-0.8-2c3.3-3.3,9-10,7.5-16.2c-1.9-8.1-11.5-6.7-16.5-4.9C1096.9,734.2,1096.6,734.7,1096.7,735.3z"/>
		<path class="st4" d="M1127,732.6c1.5,0,9.6-1.2,10,15.9c0.4,15.7-10,14.6-10,14.6s-10.4,0.5-9.7-15.1
			C1117.9,732.3,1124.4,732.6,1127,732.6z"/>
		<path class="st5" d="M1127.2,737.6c0,0,3-0.3,2.8,10.2c0,10.3-2.3,10.3-2.7,10.3s-3.6,0.4-3.3-10.2
			C1124.3,737.1,1127.2,737.6,1127.2,737.6z"/>
		<path class="st4" d="M1322.6,729.6L1322.6,729.6c0.1,0.7,0.8,1.2,1.4,0.9c0.8-0.3,1.8-0.4,2.2,0.8c0.7,1.8-2.5,4.8-3.6,5.8
			c-0.2,0.2-0.4,0.5-0.4,0.8v0.5c0,0.6,0.5,1.1,1.1,1.1h5.1c0.6,0,1.1-0.5,1.1-1.1v0c0-0.6-0.5-1-1-1.1l-0.6,0c-0.9,0-1.4-1-0.8-1.7
			c1.1-1.3,2.3-3.3,1.9-5.1c-0.6-2.8-3.7-2.5-5.6-2C1322.9,728.7,1322.6,729.1,1322.6,729.6z"/>
		<path class="st4" d="M1333.8,728.2c0.6,0,3.6-0.4,3.7,5.9c0.1,5.9-3.7,5.4-3.7,5.4s-3.9,0.2-3.6-5.6
			C1330.5,728,1332.9,728.2,1333.8,728.2z"/>
		<path class="st5" d="M1333.9,730c0,0,1.1-0.1,1,3.8c0,3.8-0.9,3.8-1,3.8s-1.3,0.1-1.2-3.8C1332.9,729.8,1333.9,730,1333.9,730z"/>
		<path class="st6" d="M1226.8,626.6l2-4.8c0.2-0.5,0.9-0.5,1.1,0l1.5,4.7c0.1,0.2,0.3,0.4,0.6,0.4h4.5c0.6,0,0.8,0.7,0.4,1.1l-4,3
			c-0.2,0.2-0.3,0.4-0.2,0.7l1.8,4.6c0.2,0.5-0.4,1-0.9,0.7l-4.2-2.8c-0.2-0.1-0.4-0.1-0.6,0l-3.5,1.7c-0.5,0.2-1-0.2-0.8-0.7l1-3.5
			c0.1-0.2,0-0.5-0.2-0.6l-3.2-2.8c-0.4-0.3-0.2-1,0.3-1l4.1-0.3C1226.5,626.9,1226.7,626.8,1226.8,626.6z"/>
		<path class="st6" d="M1171.8,720.8l2-4.8c0.2-0.5,0.9-0.5,1.1,0l1.5,4.7c0.1,0.2,0.3,0.4,0.6,0.4h4.5c0.6,0,0.8,0.7,0.4,1.1l-4,3
			c-0.2,0.2-0.3,0.4-0.2,0.7l1.8,4.6c0.2,0.5-0.4,1-0.9,0.7l-4.2-2.8c-0.2-0.1-0.4-0.1-0.6,0l-3.5,1.7c-0.5,0.2-1-0.2-0.8-0.7l1-3.5
			c0.1-0.2,0-0.5-0.2-0.6l-3.2-2.8c-0.4-0.3-0.2-1,0.3-1l4.1-0.3C1171.6,721.1,1171.8,721,1171.8,720.8z"/>
		<path class="st6" d="M1171.8,659l2-4.8c0.2-0.5,0.9-0.5,1.1,0l1.5,4.7c0.1,0.2,0.3,0.4,0.6,0.4h4.5c0.6,0,0.8,0.7,0.4,1.1l-4,3
			c-0.2,0.2-0.3,0.4-0.2,0.7l1.8,4.6c0.2,0.5-0.4,1-0.9,0.7l-4.2-2.8c-0.2-0.1-0.4-0.1-0.6,0l-3.5,1.7c-0.5,0.2-1-0.2-0.8-0.7l1-3.5
			c0.1-0.2,0-0.5-0.2-0.6l-3.2-2.8c-0.4-0.3-0.2-1,0.3-1l4.1-0.3C1171.6,659.3,1171.8,659.2,1171.8,659z"/>
		<path class="st6" d="M1199.6,635.5l-2-4.8c-0.2-0.5-0.9-0.5-1.1,0l-1.5,4.7c-0.1,0.2-0.3,0.4-0.6,0.4h-4.5c-0.6,0-0.8,0.7-0.4,1.1
			l4,3c0.2,0.2,0.3,0.4,0.2,0.7l-1.8,4.6c-0.2,0.5,0.4,1,0.9,0.7l4.2-2.8c0.2-0.1,0.4-0.1,0.6,0l3.5,1.7c0.5,0.2,1-0.2,0.8-0.7
			l-1-3.5c-0.1-0.2,0-0.5,0.2-0.6l3.2-2.8c0.4-0.3,0.2-1-0.3-1l-4.1-0.3C1199.9,635.8,1199.7,635.7,1199.6,635.5z"/>
		<path class="st6" d="M1168.5,689.2l-2-4.8c-0.2-0.5-0.9-0.5-1.1,0l-1.5,4.7c-0.1,0.2-0.3,0.4-0.6,0.4h-4.5c-0.6,0-0.8,0.7-0.4,1.1
			l4,3c0.2,0.2,0.3,0.4,0.2,0.7l-1.8,4.6c-0.2,0.5,0.4,1,0.9,0.7l4.2-2.8c0.2-0.1,0.4-0.1,0.6,0l3.5,1.7c0.5,0.2,1-0.2,0.8-0.7
			l-1-3.5c-0.1-0.2,0-0.5,0.2-0.6l3.2-2.8c0.4-0.3,0.2-1-0.3-1l-4.1-0.3C1168.8,689.6,1168.6,689.4,1168.5,689.2z"/>
	</g>
</g>
</svg>
