<?xml version="1.0" encoding="utf-8"?>
<!-- Generator: Adobe Illustrator 19.1.0, SVG Export Plug-In . SVG Version: 6.00 Build 0)  -->
<svg version="1.1" id="Nahrungsausgaben" xmlns="http://www.w3.org/2000/svg" xmlns:xlink="http://www.w3.org/1999/xlink" x="0px"
	 y="0px" viewBox="0 0 1403.2 807.9" enable-background="new 0 0 1403.2 807.9" xml:space="preserve">
<g id="KonsumausgabenRest">
	<g>
		<path fill="#FFFFFF" stroke="#27348B" stroke-width="6" stroke-miterlimit="10" d="M669,340.7H389.1c-6.3,0-11.3-5.1-11.3-11.3
			V188.8c0-6.3,5.1-11.3,11.3-11.3H669c6.3,0,11.3,5.1,11.3,11.3v140.5C680.3,335.6,675.2,340.7,669,340.7z"/>
		<path fill="none" stroke="#F9B233" stroke-width="5" stroke-miterlimit="10" d="M530.3,328.6v-85.4c0-0.2,0.1-0.4,0.1-0.6
			c1.2-2.2,10.3-17.5,29.2-26c0.3-0.1,0.7-0.1,1,0c3.1,1.4,19.9,9.8,29.2,26.7c0.1,0.2,0.1,0.4,0.1,0.6v85.4c0,0.7-0.5,1.2-1.2,1.2
			l-57.4-0.6C530.8,329.7,530.3,329.2,530.3,328.6z"/>
		<path fill="none" stroke="#F9B233" stroke-width="4" stroke-linecap="round" stroke-miterlimit="10" d="M534.3,257.7
			c0,0,10.9-24.3,25.6-29.3c0.2-0.1,0.5-0.1,0.7,0c2.1,0.6,13,4.8,25.3,29.4"/>
		<path fill="none" stroke="#F9B233" stroke-width="5" stroke-linecap="round" stroke-miterlimit="10" d="M570.8,222.5v-10.9
			c0-0.2,0-0.3,0.1-0.5c0.8-1.9,7-15.3,24-21.9c0.3-0.1,0.6-0.1,0.9,0c2.8,1.3,17.2,8.4,22.6,21.3c0.1,0.1,0.1,0.3,0.1,0.5v118.1
			c0,0.7-0.5,1.2-1.2,1.2h-27.2"/>
		<path fill="#F9B233" d="M473.4,190.8l0.6,8c0.1,0.9,1.1,1.4,1.8,0.9c3.4-2.2,11.2-6.2,14.1,1.2c3.4,8.8-14.2,24.4-17.1,26.9
			c-0.3,0.2-0.4,0.6-0.4,0.9v7.2c0,0.7,0.5,1.2,1.2,1.2h29.5c0.7,0,1.2-0.5,1.2-1.2v-7.1c0-0.7-0.5-1.2-1.2-1.2l-14-0.1
			c-1.1,0-1.6-1.3-0.8-2c5-4.7,16.4-16.9,13.8-28.1c-3.2-13.7-19.7-10.9-27.9-7.8C473.7,189.8,473.4,190.3,473.4,190.8z"/>
		<path fill="#F9B233" d="M540,213.4c-0.6-28.2-14-26.3-16.5-26.3c-4.2,0-15-0.6-16.1,25.3s16.1,25,16.1,25S540.6,239.4,540,213.4z
			 M528.5,212.2c0,17-3.8,17.1-4.5,17.1s-5.9,0.6-5.4-16.8c0.5-18,5.3-17.1,5.3-17.1S528.8,194.7,528.5,212.2z"/>
		<path fill="#F9B233" d="M406.6,302.9l0.3,3.7c0.1,0.9,1,1.4,1.8,0.9c2.3-1.3,6.3-3,7.9,1.1c2,5.2-8,14.2-10.2,16.1
			c-0.3,0.2-0.4,0.6-0.4,0.9v3.7c0,0.7,0.5,1.2,1.2,1.2h16.9c0.7,0,1.2-0.5,1.2-1.2V326c0-0.7-0.5-1.2-1.2-1.2l-6.9-0.1
			c-1,0-1.6-1.3-0.8-2c3.3-3.3,9-10,7.5-16.2c-1.9-8.1-11.5-6.7-16.5-4.9C406.9,301.9,406.6,302.4,406.6,302.9z"/>
		<path fill="#F9B233" d="M446.9,316.2c-0.4-17.1-8.5-15.9-10-15.9c-2.5,0-9-0.4-9.7,15.3s9.7,15.1,9.7,15.1
			S447.2,331.9,446.9,316.2z M439.9,315.4c0,10.3-2.3,10.3-2.7,10.3c-0.4,0-3.6,0.4-3.3-10.2c0.3-10.9,3.2-10.4,3.2-10.4
			S440.1,304.9,439.9,315.4z"/>
		<path fill="#F9B233" d="M632.6,297.3L632.6,297.3c0.1,0.7,0.8,1.2,1.4,0.9c0.8-0.3,1.8-0.4,2.2,0.8c0.7,1.8-2.5,4.8-3.6,5.8
			c-0.2,0.2-0.4,0.5-0.4,0.8v0.5c0,0.6,0.5,1.1,1.1,1.1h5.1c0.6,0,1.1-0.5,1.1-1.1l0,0c0-0.6-0.5-1-1-1.1h-0.6c-0.9,0-1.4-1-0.8-1.7
			c1.1-1.3,2.3-3.3,1.9-5.1c-0.6-2.8-3.7-2.5-5.6-2C632.8,296.3,632.5,296.8,632.6,297.3z"/>
		<path fill="#F9B233" d="M643.8,295.8c-0.9,0-3.4-0.1-3.6,5.7s3.6,5.6,3.6,5.6s3.8,0.4,3.7-5.4
			C647.4,295.4,644.3,295.8,643.8,295.8z M643.9,305.3c-0.1,0-1.3,0.1-1.2-3.8c0.1-4,1.2-3.8,1.2-3.8s1.1-0.1,1,3.8
			C644.9,305.3,644,305.3,643.9,305.3z"/>
		<path fill="#E30613" d="M536.7,194.2l2-4.8c0.2-0.5,0.9-0.5,1.1,0l1.5,4.7c0.1,0.2,0.3,0.4,0.6,0.4h4.5c0.6,0,0.8,0.7,0.4,1.1
			l-4,3c-0.2,0.2-0.3,0.4-0.2,0.7l1.8,4.6c0.2,0.5-0.4,1-0.9,0.7l-4.2-2.8c-0.2-0.1-0.4-0.1-0.6,0l-3.5,1.7c-0.5,0.2-1-0.2-0.8-0.7
			l1-3.5c0.1-0.2,0-0.5-0.2-0.6l-3.2-2.8c-0.4-0.3-0.2-1,0.3-1l4.1-0.3C536.4,194.6,536.6,194.4,536.7,194.2z"/>
		<path fill="#E30613" d="M481.8,288.4l2-4.8c0.2-0.5,0.9-0.5,1.1,0l1.5,4.7c0.1,0.2,0.3,0.4,0.6,0.4h4.5c0.6,0,0.8,0.7,0.4,1.1
			l-4,3c-0.2,0.2-0.3,0.4-0.2,0.7l1.8,4.6c0.2,0.5-0.4,1-0.9,0.7l-4.2-2.8c-0.2-0.1-0.4-0.1-0.6,0l-3.5,1.7c-0.5,0.2-1-0.2-0.8-0.7
			l1-3.5c0.1-0.2,0-0.5-0.2-0.6l-3.2-2.8c-0.4-0.3-0.2-1,0.3-1l4.1-0.3C481.5,288.8,481.7,288.7,481.8,288.4z"/>
		<path fill="#E30613" d="M481.8,226.6l2-4.8c0.2-0.5,0.9-0.5,1.1,0l1.5,4.7c0.1,0.2,0.3,0.4,0.6,0.4h4.5c0.6,0,0.8,0.7,0.4,1.1
			l-4,3c-0.2,0.2-0.3,0.4-0.2,0.7l1.8,4.6c0.2,0.5-0.4,1-0.9,0.7l-4.2-2.8c-0.2-0.1-0.4-0.1-0.6,0l-3.5,1.7c-0.5,0.2-1-0.2-0.8-0.7
			l1-3.5c0.1-0.2,0-0.5-0.2-0.6l-3.2-2.8c-0.4-0.3-0.2-1,0.3-1l4.1-0.3C481.5,227,481.7,226.8,481.8,226.6z"/>
		<path fill="#E30613" d="M509.5,203.1l-2-4.8c-0.2-0.5-0.9-0.5-1.1,0L505,203c-0.1,0.2-0.3,0.4-0.6,0.4h-4.5
			c-0.6,0-0.8,0.7-0.4,1.1l4,3c0.2,0.2,0.3,0.4,0.2,0.7l-1.8,4.6c-0.2,0.5,0.4,1,0.9,0.7l4.2-2.8c0.2-0.1,0.4-0.1,0.6,0l3.5,1.7
			c0.5,0.2,1-0.2,0.8-0.7l-1-3.5c-0.1-0.2,0-0.5,0.2-0.6l3.2-2.8c0.4-0.3,0.2-1-0.3-1l-4.1-0.3C509.8,203.5,509.6,203.3,509.5,203.1
			z"/>
		<path fill="#E30613" d="M478.5,256.9l-2-4.8c-0.2-0.5-0.9-0.5-1.1,0l-1.5,4.7c-0.1,0.2-0.3,0.4-0.6,0.4h-4.5
			c-0.6,0-0.8,0.7-0.4,1.1l4,3c0.2,0.2,0.3,0.4,0.2,0.7l-1.8,4.6c-0.2,0.5,0.4,1,0.9,0.7l4.2-2.8c0.2-0.1,0.4-0.1,0.6,0l3.5,1.7
			c0.5,0.2,1-0.2,0.8-0.7l-1-3.5c-0.1-0.2,0-0.5,0.2-0.6l3.2-2.8c0.4-0.3,0.2-1-0.3-1l-4.1-0.3C478.7,257.2,478.5,257.1,478.5,256.9
			z"/>
	</g>
	<g>
		<path fill="#FFFFFF" stroke="#27348B" stroke-width="6" stroke-miterlimit="10" d="M669,447.2H389.1c-6.3,0-11.3-5.1-11.3-11.3
			V295.3c0-6.3,5.1-11.3,11.3-11.3H669c6.3,0,11.3,5.1,11.3,11.3v140.5C680.3,442.1,675.2,447.2,669,447.2z"/>
		<path fill="none" stroke="#F9B233" stroke-width="5" stroke-miterlimit="10" d="M530.3,435.1v-85.4c0-0.2,0.1-0.4,0.1-0.6
			c1.2-2.2,10.3-17.5,29.2-26c0.3-0.1,0.7-0.1,1,0c3.1,1.4,19.9,9.8,29.2,26.7c0.1,0.2,0.1,0.4,0.1,0.6v85.4c0,0.7-0.5,1.2-1.2,1.2
			l-57.4-0.6C530.8,436.3,530.3,435.7,530.3,435.1z"/>
		<path fill="none" stroke="#F9B233" stroke-width="4" stroke-linecap="round" stroke-miterlimit="10" d="M534.3,364.2
			c0,0,10.9-24.3,25.6-29.3c0.2-0.1,0.5-0.1,0.7,0c2.1,0.6,13,4.8,25.3,29.4"/>
		<path fill="none" stroke="#F9B233" stroke-width="5" stroke-linecap="round" stroke-miterlimit="10" d="M570.8,329v-10.9
			c0-0.2,0-0.3,0.1-0.5c0.8-1.9,7-15.3,24-21.9c0.3-0.1,0.6-0.1,0.9,0c2.8,1.3,17.2,8.4,22.6,21.3c0.1,0.1,0.1,0.3,0.1,0.5v118.1
			c0,0.7-0.5,1.2-1.2,1.2h-27.2"/>
		<path fill="#F9B233" d="M473.4,297.4l0.6,8c0.1,0.9,1.1,1.4,1.8,0.9c3.4-2.2,11.2-6.2,14.1,1.2c3.4,8.8-14.2,24.4-17.1,26.9
			c-0.3,0.2-0.4,0.6-0.4,0.9v7.2c0,0.7,0.5,1.2,1.2,1.2h29.5c0.7,0,1.2-0.5,1.2-1.2v-7.1c0-0.7-0.5-1.2-1.2-1.2l-14-0.1
			c-1.1,0-1.6-1.3-0.8-2c5-4.7,16.4-16.9,13.8-28.1c-3.2-13.7-19.7-10.9-27.9-7.8C473.7,296.4,473.4,296.9,473.4,297.4z"/>
		<path fill="#F9B233" d="M540,319.9c-0.6-28.2-14-26.3-16.5-26.3c-4.2,0-15-0.6-16.1,25.3s16.1,25,16.1,25S540.6,345.9,540,319.9z
			 M528.5,318.7c0,17-3.8,17.1-4.5,17.1s-5.9,0.6-5.4-16.8c0.5-18,5.3-17.1,5.3-17.1S528.8,301.2,528.5,318.7z"/>
		<path fill="#F9B233" d="M406.6,409.4l0.3,3.7c0.1,0.9,1,1.4,1.8,0.9c2.3-1.3,6.3-3,7.9,1.1c2,5.2-8,14.2-10.2,16.1
			c-0.3,0.2-0.4,0.6-0.4,0.9v3.7c0,0.7,0.5,1.2,1.2,1.2h16.9c0.7,0,1.2-0.5,1.2-1.2v-3.4c0-0.7-0.5-1.2-1.2-1.2l-6.9-0.1
			c-1,0-1.6-1.3-0.8-2c3.3-3.3,9-10,7.5-16.2c-1.9-8.1-11.5-6.7-16.5-4.9C406.9,408.4,406.6,408.9,406.6,409.4z"/>
		<path fill="#F9B233" d="M446.9,422.7c-0.4-17.1-8.5-15.9-10-15.9c-2.5,0-9-0.4-9.7,15.3s9.7,15.1,9.7,15.1
			S447.2,438.4,446.9,422.7z M439.9,422c0,10.3-2.3,10.3-2.7,10.3c-0.4,0-3.6,0.4-3.3-10.2c0.3-10.9,3.2-10.4,3.2-10.4
			S440.1,411.4,439.9,422z"/>
		<path fill="#F9B233" d="M632.6,403.8L632.6,403.8c0.1,0.7,0.8,1.2,1.4,0.9c0.8-0.3,1.8-0.4,2.2,0.8c0.7,1.8-2.5,4.8-3.6,5.8
			c-0.2,0.2-0.4,0.5-0.4,0.8v0.5c0,0.6,0.5,1.1,1.1,1.1h5.1c0.6,0,1.1-0.5,1.1-1.1l0,0c0-0.6-0.5-1-1-1.1h-0.6c-0.9,0-1.4-1-0.8-1.7
			c1.1-1.3,2.3-3.3,1.9-5.1c-0.6-2.8-3.7-2.5-5.6-2C632.8,402.8,632.5,403.3,632.6,403.8z"/>
		<path fill="#F9B233" d="M643.8,402.3c-0.9,0-3.4-0.1-3.6,5.7s3.6,5.6,3.6,5.6s3.8,0.4,3.7-5.4
			C647.4,401.9,644.3,402.3,643.8,402.3z M643.9,411.8c-0.1,0-1.3,0.1-1.2-3.8c0.1-4,1.2-3.8,1.2-3.8s1.1-0.1,1,3.8
			C644.9,411.8,644,411.8,643.9,411.8z"/>
		<path fill="#E30613" d="M536.7,300.8l2-4.8c0.2-0.5,0.9-0.5,1.1,0l1.5,4.7c0.1,0.2,0.3,0.4,0.6,0.4h4.5c0.6,0,0.8,0.7,0.4,1.1
			l-4,3c-0.2,0.2-0.3,0.4-0.2,0.7l1.8,4.6c0.2,0.5-0.4,1-0.9,0.7l-4.2-2.8c-0.2-0.1-0.4-0.1-0.6,0L535,310c-0.5,0.2-1-0.2-0.8-0.7
			l1-3.5c0.1-0.2,0-0.5-0.2-0.6l-3.2-2.8c-0.4-0.3-0.2-1,0.3-1l4.1-0.3C536.4,301.1,536.6,301,536.7,300.8z"/>
		<path fill="#E30613" d="M481.8,395l2-4.8c0.2-0.5,0.9-0.5,1.1,0l1.5,4.7c0.1,0.2,0.3,0.4,0.6,0.4h4.5c0.6,0,0.8,0.7,0.4,1.1l-4,3
			c-0.2,0.2-0.3,0.4-0.2,0.7l1.8,4.6c0.2,0.5-0.4,1-0.9,0.7l-4.2-2.8c-0.2-0.1-0.4-0.1-0.6,0l-3.5,1.7c-0.5,0.2-1-0.2-0.8-0.7l1-3.5
			c0.1-0.2,0-0.5-0.2-0.6l-3.2-2.8c-0.4-0.3-0.2-1,0.3-1l4.1-0.3C481.5,395.3,481.7,395.2,481.8,395z"/>
		<path fill="#E30613" d="M481.8,333.1l2-4.8c0.2-0.5,0.9-0.5,1.1,0l1.5,4.7c0.1,0.2,0.3,0.4,0.6,0.4h4.5c0.6,0,0.8,0.7,0.4,1.1
			l-4,3c-0.2,0.2-0.3,0.4-0.2,0.7l1.8,4.6c0.2,0.5-0.4,1-0.9,0.7l-4.2-2.8c-0.2-0.1-0.4-0.1-0.6,0l-3.5,1.7c-0.5,0.2-1-0.2-0.8-0.7
			l1-3.5c0.1-0.2,0-0.5-0.2-0.6l-3.2-2.8c-0.4-0.3-0.2-1,0.3-1l4.1-0.3C481.5,333.5,481.7,333.3,481.8,333.1z"/>
		<path fill="#E30613" d="M509.5,309.6l-2-4.8c-0.2-0.5-0.9-0.5-1.1,0l-1.5,4.7c-0.1,0.2-0.3,0.4-0.6,0.4h-4.5
			c-0.6,0-0.8,0.7-0.4,1.1l4,3c0.2,0.2,0.3,0.4,0.2,0.7l-1.8,4.6c-0.2,0.5,0.4,1,0.9,0.7l4.2-2.8c0.2-0.1,0.4-0.1,0.6,0l3.5,1.7
			c0.5,0.2,1-0.2,0.8-0.7l-1-3.5c-0.1-0.2,0-0.5,0.2-0.6l3.2-2.8c0.4-0.3,0.2-1-0.3-1L510,310C509.8,310,509.6,309.8,509.5,309.6z"
			/>
		<path fill="#E30613" d="M478.5,363.4l-2-4.8c-0.2-0.5-0.9-0.5-1.1,0l-1.5,4.7c-0.1,0.2-0.3,0.4-0.6,0.4h-4.5
			c-0.6,0-0.8,0.7-0.4,1.1l4,3c0.2,0.2,0.3,0.4,0.2,0.7l-1.8,4.6c-0.2,0.5,0.4,1,0.9,0.7l4.2-2.8c0.2-0.1,0.4-0.1,0.6,0l3.5,1.7
			c0.5,0.2,1-0.2,0.8-0.7l-1-3.5c-0.1-0.2,0-0.5,0.2-0.6l3.2-2.8c0.4-0.3,0.2-1-0.3-1l-4.1-0.3C478.7,363.8,478.5,363.6,478.5,363.4
			z"/>
	</g>
	<g>
		<path fill="#FFFFFF" stroke="#27348B" stroke-width="6" stroke-miterlimit="10" d="M669,553.7H389.1c-6.3,0-11.3-5.1-11.3-11.3
			V401.8c0-6.3,5.1-11.3,11.3-11.3H669c6.3,0,11.3,5.1,11.3,11.3v140.5C680.3,548.6,675.2,553.7,669,553.7z"/>
		<path fill="none" stroke="#F9B233" stroke-width="5" stroke-miterlimit="10" d="M530.3,541.6v-85.4c0-0.2,0.1-0.4,0.1-0.6
			c1.2-2.2,10.3-17.5,29.2-26c0.3-0.1,0.7-0.1,1,0c3.1,1.4,19.9,9.8,29.2,26.7c0.1,0.2,0.1,0.4,0.1,0.6v85.4c0,0.7-0.5,1.2-1.2,1.2
			l-57.4-0.6C530.8,542.8,530.3,542.3,530.3,541.6z"/>
		<path fill="none" stroke="#F9B233" stroke-width="4" stroke-linecap="round" stroke-miterlimit="10" d="M534.3,470.7
			c0,0,10.9-24.3,25.6-29.3c0.2-0.1,0.5-0.1,0.7,0c2.1,0.6,13,4.8,25.3,29.4"/>
		<path fill="none" stroke="#F9B233" stroke-width="5" stroke-linecap="round" stroke-miterlimit="10" d="M570.8,435.6v-10.9
			c0-0.2,0-0.3,0.1-0.5c0.8-1.9,7-15.3,24-21.9c0.3-0.1,0.6-0.1,0.9,0c2.8,1.3,17.2,8.4,22.6,21.3c0.1,0.1,0.1,0.3,0.1,0.5v118.1
			c0,0.7-0.5,1.2-1.2,1.2h-27.2"/>
		<path fill="#F9B233" d="M473.4,403.9l0.6,8c0.1,0.9,1.1,1.4,1.8,0.9c3.4-2.2,11.2-6.2,14.1,1.2c3.4,8.8-14.2,24.4-17.1,26.9
			c-0.3,0.2-0.4,0.6-0.4,0.9v7.2c0,0.7,0.5,1.2,1.2,1.2h29.5c0.7,0,1.2-0.5,1.2-1.2v-7c0-0.7-0.5-1.2-1.2-1.2l-14-0.1
			c-1.1,0-1.6-1.3-0.8-2c5-4.7,16.4-16.9,13.8-28.1c-3.2-13.7-19.7-10.9-27.9-7.8C473.7,402.9,473.4,403.4,473.4,403.9z"/>
		<path fill="#F9B233" d="M540,426.4c-0.6-28.2-14-26.3-16.5-26.3c-4.2,0-15-0.6-16.1,25.3s16.1,25,16.1,25S540.6,452.5,540,426.4z
			 M528.5,425.2c0,17-3.8,17.1-4.5,17.1s-5.9,0.6-5.4-16.8c0.5-18,5.3-17.1,5.3-17.1S528.8,407.8,528.5,425.2z"/>
		<path fill="#F9B233" d="M406.6,516l0.3,3.7c0.1,0.9,1,1.4,1.8,0.9c2.3-1.3,6.3-3,7.9,1.1c2,5.2-8,14.2-10.2,16.1
			c-0.3,0.2-0.4,0.6-0.4,0.9v3.7c0,0.7,0.5,1.2,1.2,1.2h16.9c0.7,0,1.2-0.5,1.2-1.2V539c0-0.7-0.5-1.2-1.2-1.2l-6.9-0.1
			c-1,0-1.6-1.3-0.8-2c3.3-3.3,9-10,7.5-16.2c-1.9-8.1-11.5-6.7-16.5-4.9C406.9,514.9,406.6,515.4,406.6,516z"/>
		<path fill="#F9B233" d="M446.9,529.2c-0.4-17.1-8.5-15.9-10-15.9c-2.5,0-9-0.4-9.7,15.3s9.7,15.1,9.7,15.1S447.2,545,446.9,529.2z
			 M439.9,528.5c0,10.3-2.3,10.3-2.7,10.3c-0.4,0-3.6,0.4-3.3-10.2c0.3-10.9,3.2-10.4,3.2-10.4S440.1,517.9,439.9,528.5z"/>
		<path fill="#F9B233" d="M632.6,510.3L632.6,510.3c0.1,0.7,0.8,1.2,1.4,0.9c0.8-0.3,1.8-0.4,2.2,0.8c0.7,1.8-2.5,4.8-3.6,5.8
			c-0.2,0.2-0.4,0.5-0.4,0.8v0.5c0,0.6,0.5,1.1,1.1,1.1h5.1c0.6,0,1.1-0.5,1.1-1.1l0,0c0-0.6-0.5-1-1-1.1h-0.6c-0.9,0-1.4-1-0.8-1.7
			c1.1-1.3,2.3-3.3,1.9-5.1c-0.6-2.8-3.7-2.5-5.6-2C632.8,509.4,632.5,509.8,632.6,510.3z"/>
		<path fill="#F9B233" d="M643.8,508.9c-0.9,0-3.4-0.1-3.6,5.7c-0.3,5.8,3.6,5.6,3.6,5.6s3.8,0.4,3.7-5.4
			C647.4,508.4,644.3,508.9,643.8,508.9z M643.9,518.3c-0.1,0-1.3,0.1-1.2-3.8c0.1-4,1.2-3.8,1.2-3.8s1.1-0.1,1,3.8
			C644.9,518.3,644,518.3,643.9,518.3z"/>
		<path fill="#E30613" d="M536.7,407.3l2-4.8c0.2-0.5,0.9-0.5,1.1,0l1.5,4.7c0.1,0.2,0.3,0.4,0.6,0.4h4.5c0.6,0,0.8,0.7,0.4,1.1
			l-4,3c-0.2,0.2-0.3,0.4-0.2,0.7l1.8,4.6c0.2,0.5-0.4,1-0.9,0.7l-4.2-2.8c-0.2-0.1-0.4-0.1-0.6,0l-3.5,1.7c-0.5,0.2-1-0.2-0.8-0.7
			l1-3.5c0.1-0.2,0-0.5-0.2-0.6L532,409c-0.4-0.3-0.2-1,0.3-1l4.1-0.3C536.4,407.6,536.6,407.5,536.7,407.3z"/>
		<path fill="#E30613" d="M481.8,501.5l2-4.8c0.2-0.5,0.9-0.5,1.1,0l1.5,4.7c0.1,0.2,0.3,0.4,0.6,0.4h4.5c0.6,0,0.8,0.7,0.4,1.1
			l-4,3c-0.2,0.2-0.3,0.4-0.2,0.7l1.8,4.6c0.2,0.5-0.4,1-0.9,0.7l-4.2-2.8c-0.2-0.1-0.4-0.1-0.6,0l-3.5,1.7c-0.5,0.2-1-0.2-0.8-0.7
			l1-3.5c0.1-0.2,0-0.5-0.2-0.6l-3.2-2.8c-0.4-0.3-0.2-1,0.3-1l4.1-0.3C481.5,501.9,481.7,501.7,481.8,501.5z"/>
		<path fill="#E30613" d="M481.8,439.7l2-4.8c0.2-0.5,0.9-0.5,1.1,0l1.5,4.7c0.1,0.2,0.3,0.4,0.6,0.4h4.5c0.6,0,0.8,0.7,0.4,1.1
			l-4,3c-0.2,0.2-0.3,0.4-0.2,0.7l1.8,4.6c0.2,0.5-0.4,1-0.9,0.7l-4.2-2.8c-0.2-0.1-0.4-0.1-0.6,0l-3.5,1.7c-0.5,0.2-1-0.2-0.8-0.7
			l1-3.5c0.1-0.2,0-0.5-0.2-0.6l-3.2-2.8c-0.4-0.3-0.2-1,0.3-1l4.1-0.3C481.5,440,481.7,439.9,481.8,439.7z"/>
		<path fill="#E30613" d="M509.5,416.2l-2-4.8c-0.2-0.5-0.9-0.5-1.1,0l-1.5,4.7c-0.1,0.2-0.3,0.4-0.6,0.4h-4.5
			c-0.6,0-0.8,0.7-0.4,1.1l4,3c0.2,0.2,0.3,0.4,0.2,0.7l-1.8,4.6c-0.2,0.5,0.4,1,0.9,0.7l4.2-2.8c0.2-0.1,0.4-0.1,0.6,0l3.5,1.7
			c0.5,0.2,1-0.2,0.8-0.7l-1-3.5c-0.1-0.2,0-0.5,0.2-0.6l3.2-2.8c0.4-0.3,0.2-1-0.3-1l-4.1-0.3C509.8,416.5,509.6,416.4,509.5,416.2
			z"/>
		<path fill="#E30613" d="M478.5,469.9l-2-4.8c-0.2-0.5-0.9-0.5-1.1,0l-1.5,4.7c-0.1,0.2-0.3,0.4-0.6,0.4h-4.5
			c-0.6,0-0.8,0.7-0.4,1.1l4,3c0.2,0.2,0.3,0.4,0.2,0.7l-1.8,4.6c-0.2,0.5,0.4,1,0.9,0.7l4.2-2.8c0.2-0.1,0.4-0.1,0.6,0l3.5,1.7
			c0.5,0.2,1-0.2,0.8-0.7l-1-3.5c-0.1-0.2,0-0.5,0.2-0.6l3.2-2.8c0.4-0.3,0.2-1-0.3-1l-4.1-0.3C478.7,470.3,478.5,470.2,478.5,469.9
			z"/>
	</g>
	<g>
		<path fill="#FFFFFF" stroke="#27348B" stroke-width="6" stroke-miterlimit="10" d="M669,660.2H389.1c-6.3,0-11.3-5.1-11.3-11.3
			V508.4c0-6.3,5.1-11.3,11.3-11.3H669c6.3,0,11.3,5.1,11.3,11.3v140.5C680.3,655.2,675.2,660.2,669,660.2z"/>
		<path fill="none" stroke="#F9B233" stroke-width="5" stroke-miterlimit="10" d="M530.3,648.2v-85.4c0-0.2,0.1-0.4,0.1-0.6
			c1.2-2.2,10.3-17.5,29.2-26c0.3-0.1,0.7-0.1,1,0c3.1,1.4,19.9,9.8,29.2,26.7c0.1,0.2,0.1,0.4,0.1,0.6v85.4c0,0.7-0.5,1.2-1.2,1.2
			l-57.4-0.6C530.8,649.3,530.3,648.8,530.3,648.2z"/>
		<path fill="none" stroke="#F9B233" stroke-width="4" stroke-linecap="round" stroke-miterlimit="10" d="M534.3,577.2
			c0,0,10.9-24.3,25.6-29.3c0.2-0.1,0.5-0.1,0.7,0c2.1,0.6,13,4.8,25.3,29.4"/>
		<path fill="none" stroke="#F9B233" stroke-width="5" stroke-linecap="round" stroke-miterlimit="10" d="M570.8,542.1v-10.9
			c0-0.2,0-0.3,0.1-0.5c0.8-1.9,7-15.3,24-21.9c0.3-0.1,0.6-0.1,0.9,0c2.8,1.3,17.2,8.4,22.6,21.3c0.1,0.1,0.1,0.3,0.1,0.5v118.1
			c0,0.7-0.5,1.2-1.2,1.2h-27.2"/>
		<path fill="#F9B233" d="M473.4,510.4l0.6,8c0.1,0.9,1.1,1.4,1.8,0.9c3.4-2.2,11.2-6.2,14.1,1.2c3.4,8.8-14.2,24.4-17.1,26.9
			c-0.3,0.2-0.4,0.6-0.4,0.9v7.2c0,0.7,0.5,1.2,1.2,1.2h29.5c0.7,0,1.2-0.5,1.2-1.2v-7.1c0-0.7-0.5-1.2-1.2-1.2l-14-0.1
			c-1.1,0-1.6-1.3-0.8-2c5-4.7,16.4-16.9,13.8-28.1c-3.2-13.7-19.7-10.9-27.9-7.8C473.7,509.4,473.4,509.9,473.4,510.4z"/>
		<path fill="#F9B233" d="M540,533c-0.6-28.2-14-26.3-16.5-26.3c-4.2,0-15-0.6-16.1,25.3c-1.1,25.9,16.1,25,16.1,25
			S540.6,559,540,533z M528.5,531.7c0,17-3.8,17.1-4.5,17.1s-5.9,0.6-5.4-16.8c0.5-18,5.3-17.1,5.3-17.1S528.8,514.3,528.5,531.7z"
			/>
		<path fill="#F9B233" d="M406.6,622.5l0.3,3.7c0.1,0.9,1,1.4,1.8,0.9c2.3-1.3,6.3-3,7.9,1.1c2,5.2-8,14.2-10.2,16.1
			c-0.3,0.2-0.4,0.6-0.4,0.9v3.7c0,0.7,0.5,1.2,1.2,1.2h16.9c0.7,0,1.2-0.5,1.2-1.2v-3.4c0-0.7-0.5-1.2-1.2-1.2l-6.9-0.1
			c-1,0-1.6-1.3-0.8-2c3.3-3.3,9-10,7.5-16.2c-1.9-8.1-11.5-6.7-16.5-4.9C406.9,621.5,406.6,622,406.6,622.5z"/>
		<path fill="#F9B233" d="M446.9,635.8c-0.4-17.1-8.5-15.9-10-15.9c-2.5,0-9-0.4-9.7,15.3s9.7,15.1,9.7,15.1
			S447.2,651.5,446.9,635.8z M439.9,635c0,10.3-2.3,10.3-2.7,10.3c-0.4,0-3.6,0.4-3.3-10.2c0.3-10.9,3.2-10.4,3.2-10.4
			S440.1,624.5,439.9,635z"/>
		<path fill="#F9B233" d="M632.6,616.9L632.6,616.9c0.1,0.7,0.8,1.2,1.4,0.9c0.8-0.3,1.8-0.4,2.2,0.8c0.7,1.8-2.5,4.8-3.6,5.8
			c-0.2,0.2-0.4,0.5-0.4,0.8v0.5c0,0.6,0.5,1.1,1.1,1.1h5.1c0.6,0,1.1-0.5,1.1-1.1l0,0c0-0.6-0.5-1-1-1.1h-0.6c-0.9,0-1.4-1-0.8-1.7
			c1.1-1.3,2.3-3.3,1.9-5.1c-0.6-2.8-3.7-2.5-5.6-2C632.8,615.9,632.5,616.4,632.6,616.9z"/>
		<path fill="#F9B233" d="M643.8,615.4c-0.9,0-3.4-0.1-3.6,5.7s3.6,5.6,3.6,5.6s3.8,0.4,3.7-5.4C647.4,615,644.3,615.4,643.8,615.4z
			 M643.9,624.9c-0.1,0-1.3,0.1-1.2-3.8c0.1-4,1.2-3.8,1.2-3.8s1.1-0.1,1,3.8C644.9,624.8,644,624.9,643.9,624.9z"/>
		<path fill="#E30613" d="M536.7,513.8l2-4.8c0.2-0.5,0.9-0.5,1.1,0l1.5,4.7c0.1,0.2,0.3,0.4,0.6,0.4h4.5c0.6,0,0.8,0.7,0.4,1.1
			l-4,3c-0.2,0.2-0.3,0.4-0.2,0.7l1.8,4.6c0.2,0.5-0.4,1-0.9,0.7l-4.2-2.8c-0.2-0.1-0.4-0.1-0.6,0l-3.5,1.7c-0.5,0.2-1-0.2-0.8-0.7
			l1-3.5c0.1-0.2,0-0.5-0.2-0.6l-3.2-2.8c-0.4-0.3-0.2-1,0.3-1l4.1-0.3C536.4,514.2,536.6,514,536.7,513.8z"/>
		<path fill="#E30613" d="M481.8,608l2-4.8c0.2-0.5,0.9-0.5,1.1,0l1.5,4.7c0.1,0.2,0.3,0.4,0.6,0.4h4.5c0.6,0,0.8,0.7,0.4,1.1l-4,3
			c-0.2,0.2-0.3,0.4-0.2,0.7l1.8,4.6c0.2,0.5-0.4,1-0.9,0.7l-4.2-2.8c-0.2-0.1-0.4-0.1-0.6,0l-3.5,1.7c-0.5,0.2-1-0.2-0.8-0.7l1-3.5
			c0.1-0.2,0-0.5-0.2-0.6l-3.2-2.8c-0.4-0.3-0.2-1,0.3-1l4.1-0.3C481.5,608.4,481.7,608.2,481.8,608z"/>
		<path fill="#E30613" d="M481.8,546.2l2-4.8c0.2-0.5,0.9-0.5,1.1,0l1.5,4.7c0.1,0.2,0.3,0.4,0.6,0.4h4.5c0.6,0,0.8,0.7,0.4,1.1
			l-4,3c-0.2,0.2-0.3,0.4-0.2,0.7l1.8,4.6c0.2,0.5-0.4,1-0.9,0.7l-4.2-2.8c-0.2-0.1-0.4-0.1-0.6,0l-3.5,1.7c-0.5,0.2-1-0.2-0.8-0.7
			l1-3.5c0.1-0.2,0-0.5-0.2-0.6l-3.2-2.8c-0.4-0.3-0.2-1,0.3-1l4.1-0.3C481.5,546.5,481.7,546.4,481.8,546.2z"/>
		<path fill="#E30613" d="M509.5,522.7l-2-4.8c-0.2-0.5-0.9-0.5-1.1,0l-1.5,4.7c-0.1,0.2-0.3,0.4-0.6,0.4h-4.5
			c-0.6,0-0.8,0.7-0.4,1.1l4,3c0.2,0.2,0.3,0.4,0.2,0.7l-1.8,4.6c-0.2,0.5,0.4,1,0.9,0.7l4.2-2.8c0.2-0.1,0.4-0.1,0.6,0l3.5,1.7
			c0.5,0.2,1-0.2,0.8-0.7l-1-3.5c-0.1-0.2,0-0.5,0.2-0.6l3.2-2.8c0.4-0.3,0.2-1-0.3-1l-4.1-0.3C509.8,523,509.6,522.9,509.5,522.7z"
			/>
		<path fill="#E30613" d="M478.5,576.5l-2-4.8c-0.2-0.5-0.9-0.5-1.1,0l-1.5,4.7c-0.1,0.2-0.3,0.4-0.6,0.4h-4.5
			c-0.6,0-0.8,0.7-0.4,1.1l4,3c0.2,0.2,0.3,0.4,0.2,0.7l-1.8,4.6c-0.2,0.5,0.4,1,0.9,0.7l4.2-2.8c0.2-0.1,0.4-0.1,0.6,0l3.5,1.7
			c0.5,0.2,1-0.2,0.8-0.7l-1-3.5c-0.1-0.2,0-0.5,0.2-0.6l3.2-2.8c0.4-0.3,0.2-1-0.3-1l-4.1-0.3C478.7,576.8,478.5,576.7,478.5,576.5
			z"/>
	</g>
	<g>
		<path fill="#FFFFFF" stroke="#27348B" stroke-width="6" stroke-miterlimit="10" d="M669,766.8H389.1c-6.3,0-11.3-5.1-11.3-11.3
			V614.9c0-6.3,5.1-11.3,11.3-11.3H669c6.3,0,11.3,5.1,11.3,11.3v140.5C680.3,761.7,675.2,766.8,669,766.8z"/>
		<path fill="none" stroke="#F9B233" stroke-width="5" stroke-miterlimit="10" d="M530.3,754.7v-85.4c0-0.2,0.1-0.4,0.1-0.6
			c1.2-2.2,10.3-17.5,29.2-26c0.3-0.1,0.7-0.1,1,0c3.1,1.4,19.9,9.8,29.2,26.7c0.1,0.2,0.1,0.4,0.1,0.6v85.4c0,0.7-0.5,1.2-1.2,1.2
			l-57.4-0.6C530.8,755.9,530.3,755.3,530.3,754.7z"/>
		<path fill="none" stroke="#F9B233" stroke-width="4" stroke-linecap="round" stroke-miterlimit="10" d="M534.3,683.8
			c0,0,10.9-24.3,25.6-29.3c0.2-0.1,0.5-0.1,0.7,0c2.1,0.6,13,4.8,25.3,29.4"/>
		<path fill="none" stroke="#F9B233" stroke-width="5" stroke-linecap="round" stroke-miterlimit="10" d="M570.8,648.6v-10.9
			c0-0.2,0-0.3,0.1-0.5c0.8-1.9,7-15.3,24-21.9c0.3-0.1,0.6-0.1,0.9,0c2.8,1.3,17.2,8.4,22.6,21.3c0.1,0.1,0.1,0.3,0.1,0.5v118.1
			c0,0.7-0.5,1.2-1.2,1.2h-27.2"/>
		<path fill="#F9B233" d="M473.4,617l0.6,8c0.1,0.9,1.1,1.4,1.8,0.9c3.4-2.2,11.2-6.2,14.1,1.2c3.4,8.8-14.2,24.4-17.1,26.9
			c-0.3,0.2-0.4,0.6-0.4,0.9v7.2c0,0.7,0.5,1.2,1.2,1.2h29.5c0.7,0,1.2-0.5,1.2-1.2V655c0-0.7-0.5-1.2-1.2-1.2l-14-0.1
			c-1.1,0-1.6-1.3-0.8-2c5-4.7,16.4-16.9,13.8-28.1c-3.2-13.7-19.7-10.9-27.9-7.8C473.7,615.9,473.4,616.4,473.4,617z"/>
		<path fill="#F9B233" d="M540,639.5c-0.6-28.2-14-26.3-16.5-26.3c-4.2,0-15-0.6-16.1,25.3c-1.1,25.9,16.1,25,16.1,25
			S540.6,665.5,540,639.5z M528.5,638.3c0,17-3.8,17.1-4.5,17.1s-5.9,0.6-5.4-16.8c0.5-18,5.3-17.1,5.3-17.1
			S528.8,620.8,528.5,638.3z"/>
		<path fill="#F9B233" d="M406.6,729l0.3,3.7c0.1,0.9,1,1.4,1.8,0.9c2.3-1.3,6.3-3,7.9,1.1c2,5.2-8,14.2-10.2,16.1
			c-0.3,0.2-0.4,0.6-0.4,0.9v3.7c0,0.7,0.5,1.2,1.2,1.2h16.9c0.7,0,1.2-0.5,1.2-1.2V752c0-0.7-0.5-1.2-1.2-1.2l-6.9-0.1
			c-1,0-1.6-1.3-0.8-2c3.3-3.3,9-10,7.5-16.2c-1.9-8.1-11.5-6.7-16.5-4.9C406.9,728,406.6,728.5,406.6,729z"/>
		<path fill="#F9B233" d="M446.9,742.3c-0.4-17.1-8.5-15.9-10-15.9c-2.5,0-9-0.4-9.7,15.3s9.7,15.1,9.7,15.1S447.2,758,446.9,742.3z
			 M439.9,741.6c0,10.3-2.3,10.3-2.7,10.3c-0.4,0-3.6,0.4-3.3-10.2c0.3-10.9,3.2-10.4,3.2-10.4S440.1,731,439.9,741.6z"/>
		<path fill="#F9B233" d="M632.6,723.4L632.6,723.4c0.1,0.7,0.8,1.2,1.4,0.9c0.8-0.3,1.8-0.4,2.2,0.8c0.7,1.8-2.5,4.8-3.6,5.8
			c-0.2,0.2-0.4,0.5-0.4,0.8v0.5c0,0.6,0.5,1.1,1.1,1.1h5.1c0.6,0,1.1-0.5,1.1-1.1l0,0c0-0.6-0.5-1-1-1.1h-0.6c-0.9,0-1.4-1-0.8-1.7
			c1.1-1.3,2.3-3.3,1.9-5.1c-0.6-2.8-3.7-2.5-5.6-2C632.8,722.4,632.5,722.9,632.6,723.4z"/>
		<path fill="#F9B233" d="M643.8,721.9c-0.9,0-3.4-0.1-3.6,5.7s3.6,5.6,3.6,5.6s3.8,0.4,3.7-5.4
			C647.4,721.5,644.3,721.9,643.8,721.9z M643.9,731.4c-0.1,0-1.3,0.1-1.2-3.8c0.1-4,1.2-3.8,1.2-3.8s1.1-0.1,1,3.8
			C644.9,731.4,644,731.4,643.9,731.4z"/>
		<path fill="#E30613" d="M536.7,620.3l2-4.8c0.2-0.5,0.9-0.5,1.1,0l1.5,4.7c0.1,0.2,0.3,0.4,0.6,0.4h4.5c0.6,0,0.8,0.7,0.4,1.1
			l-4,3c-0.2,0.2-0.3,0.4-0.2,0.7l1.8,4.6c0.2,0.5-0.4,1-0.9,0.7l-4.2-2.8c-0.2-0.1-0.4-0.1-0.6,0l-3.5,1.7c-0.5,0.2-1-0.2-0.8-0.7
			l1-3.5c0.1-0.2,0-0.5-0.2-0.6L532,622c-0.4-0.3-0.2-1,0.3-1l4.1-0.3C536.4,620.7,536.6,620.6,536.7,620.3z"/>
		<path fill="#E30613" d="M481.8,714.6l2-4.8c0.2-0.5,0.9-0.5,1.1,0l1.5,4.7c0.1,0.2,0.3,0.4,0.6,0.4h4.5c0.6,0,0.8,0.7,0.4,1.1
			l-4,3c-0.2,0.2-0.3,0.4-0.2,0.7l1.8,4.6c0.2,0.5-0.4,1-0.9,0.7l-4.2-2.8c-0.2-0.1-0.4-0.1-0.6,0l-3.5,1.7c-0.5,0.2-1-0.2-0.8-0.7
			l1-3.5c0.1-0.2,0-0.5-0.2-0.6l-3.2-2.8c-0.4-0.3-0.2-1,0.3-1l4.1-0.3C481.5,714.9,481.7,714.8,481.8,714.6z"/>
		<path fill="#E30613" d="M481.8,652.7l2-4.8c0.2-0.5,0.9-0.5,1.1,0l1.5,4.7c0.1,0.2,0.3,0.4,0.6,0.4h4.5c0.6,0,0.8,0.7,0.4,1.1
			l-4,3c-0.2,0.2-0.3,0.4-0.2,0.7l1.8,4.6c0.2,0.5-0.4,1-0.9,0.7l-4.2-2.8c-0.2-0.1-0.4-0.1-0.6,0l-3.5,1.7c-0.5,0.2-1-0.2-0.8-0.7
			l1-3.5c0.1-0.2,0-0.5-0.2-0.6l-3.2-2.8c-0.4-0.3-0.2-1,0.3-1l4.1-0.3C481.5,653.1,481.7,652.9,481.8,652.7z"/>
		<path fill="#E30613" d="M509.5,629.2l-2-4.8c-0.2-0.5-0.9-0.5-1.1,0l-1.5,4.7c-0.1,0.2-0.3,0.4-0.6,0.4h-4.5
			c-0.6,0-0.8,0.7-0.4,1.1l4,3c0.2,0.2,0.3,0.4,0.2,0.7l-1.8,4.6c-0.2,0.5,0.4,1,0.9,0.7l4.2-2.8c0.2-0.1,0.4-0.1,0.6,0l3.5,1.7
			c0.5,0.2,1-0.2,0.8-0.7l-1-3.5c-0.1-0.2,0-0.5,0.2-0.6l3.2-2.8c0.4-0.3,0.2-1-0.3-1l-4.1-0.3C509.8,629.6,509.6,629.4,509.5,629.2
			z"/>
		<path fill="#E30613" d="M478.5,683l-2-4.8c-0.2-0.5-0.9-0.5-1.1,0l-1.5,4.7c-0.1,0.2-0.3,0.4-0.6,0.4h-4.5c-0.6,0-0.8,0.7-0.4,1.1
			l4,3c0.2,0.2,0.3,0.4,0.2,0.7l-1.8,4.6c-0.2,0.5,0.4,1,0.9,0.7l4.2-2.8c0.2-0.1,0.4-0.1,0.6,0l3.5,1.7c0.5,0.2,1-0.2,0.8-0.7
			l-1-3.5c-0.1-0.2,0-0.5,0.2-0.6l3.2-2.8c0.4-0.3,0.2-1-0.3-1l-4.1-0.3C478.7,683.3,478.5,683.2,478.5,683z"/>
	</g>
	<g>
		<path fill="#FFFFFF" stroke="#27348B" stroke-width="6" stroke-miterlimit="10" d="M323.9,340.7H44.1c-6.3,0-11.3-5.1-11.3-11.3
			V188.8c0-6.3,5.1-11.3,11.3-11.3h279.8c6.3,0,11.3,5.1,11.3,11.3v140.5C335.3,335.6,330.2,340.7,323.9,340.7z"/>
		<path fill="none" stroke="#F9B233" stroke-width="5" stroke-miterlimit="10" d="M185.3,328.6v-85.4c0-0.2,0.1-0.4,0.1-0.6
			c1.2-2.2,10.3-17.5,29.2-26c0.3-0.1,0.7-0.1,1,0c3.1,1.4,19.9,9.8,29.2,26.7c0.1,0.2,0.1,0.4,0.1,0.6v85.4c0,0.7-0.5,1.2-1.2,1.2
			l-57.4-0.6C185.8,329.7,185.3,329.2,185.3,328.6z"/>
		<path fill="none" stroke="#F9B233" stroke-width="4" stroke-linecap="round" stroke-miterlimit="10" d="M189.3,257.7
			c0,0,10.9-24.3,25.6-29.3c0.2-0.1,0.5-0.1,0.7,0c2.1,0.6,13,4.8,25.3,29.4"/>
		<path fill="none" stroke="#F9B233" stroke-width="5" stroke-linecap="round" stroke-miterlimit="10" d="M225.8,222.5v-10.9
			c0-0.2,0-0.3,0.1-0.5c0.8-1.9,7-15.3,24-21.9c0.3-0.1,0.6-0.1,0.9,0c2.8,1.3,17.2,8.4,22.6,21.3c0.1,0.1,0.1,0.3,0.1,0.5v118.1
			c0,0.7-0.5,1.2-1.2,1.2H245"/>
		<path fill="#F9B233" d="M128.4,190.8l0.6,8c0.1,0.9,1.1,1.4,1.8,0.9c3.4-2.2,11.2-6.2,14.1,1.2c3.4,8.8-14.2,24.4-17.1,26.9
			c-0.3,0.2-0.4,0.6-0.4,0.9v7.2c0,0.7,0.5,1.2,1.2,1.2h29.5c0.7,0,1.2-0.5,1.2-1.2v-7.1c0-0.7-0.5-1.2-1.2-1.2l-14-0.1
			c-1.1,0-1.6-1.3-0.8-2c5-4.7,16.4-16.9,13.8-28.1c-3.2-13.7-19.7-10.9-27.9-7.8C128.6,189.8,128.3,190.3,128.4,190.8z"/>
		<path fill="#F9B233" d="M195,213.4c-0.6-28.2-14-26.3-16.5-26.3c-4.2,0-15-0.6-16.1,25.3s16.1,25,16.1,25S195.6,239.4,195,213.4z
			 M183.5,212.2c0,17-3.8,17.1-4.5,17.1s-5.9,0.6-5.4-16.8c0.5-18,5.3-17.1,5.3-17.1S183.8,194.7,183.5,212.2z"/>
		<path fill="#F9B233" d="M61.6,302.9l0.3,3.7c0.1,0.9,1,1.4,1.8,0.9c2.3-1.3,6.3-3,7.9,1.1c2,5.2-8,14.2-10.2,16.1
			c-0.3,0.2-0.4,0.6-0.4,0.9v3.7c0,0.7,0.5,1.2,1.2,1.2H79c0.7,0,1.2-0.5,1.2-1.2V326c0-0.7-0.5-1.2-1.2-1.2l-6.9-0.1
			c-1,0-1.6-1.3-0.8-2c3.3-3.3,9-10,7.5-16.2c-1.9-8.1-11.5-6.7-16.5-4.9C61.9,301.9,61.5,302.4,61.6,302.9z"/>
		<path fill="#F9B233" d="M101.8,316.2c-0.4-17.1-8.5-15.9-10-15.9c-2.5,0-9-0.4-9.7,15.3s9.7,15.1,9.7,15.1
			S102.2,331.9,101.8,316.2z M94.9,315.4c0,10.3-2.3,10.3-2.7,10.3c-0.4,0-3.6,0.4-3.3-10.2c0.3-10.9,3.2-10.4,3.2-10.4
			S95.1,304.9,94.9,315.4z"/>
		<path fill="#F9B233" d="M287.5,297.3L287.5,297.3c0.1,0.7,0.8,1.2,1.4,0.9c0.8-0.3,1.8-0.4,2.2,0.8c0.7,1.8-2.5,4.8-3.6,5.8
			c-0.2,0.2-0.4,0.5-0.4,0.8v0.5c0,0.6,0.5,1.1,1.1,1.1h5.1c0.6,0,1.1-0.5,1.1-1.1l0,0c0-0.6-0.5-1-1-1.1h-0.6c-0.9,0-1.4-1-0.8-1.7
			c1.1-1.3,2.3-3.3,1.9-5.1c-0.6-2.8-3.7-2.5-5.6-2C287.8,296.3,287.5,296.8,287.5,297.3z"/>
		<path fill="#F9B233" d="M298.8,295.8c-0.9,0-3.4-0.1-3.6,5.7s3.6,5.6,3.6,5.6s3.8,0.4,3.7-5.4
			C302.3,295.4,299.3,295.8,298.8,295.8z M298.9,305.3c-0.1,0-1.3,0.1-1.2-3.8c0.1-4,1.2-3.8,1.2-3.8s1.1-0.1,1,3.8
			C299.9,305.3,299,305.3,298.9,305.3z"/>
		<path fill="#E30613" d="M191.7,194.2l2-4.8c0.2-0.5,0.9-0.5,1.1,0l1.5,4.7c0.1,0.2,0.3,0.4,0.6,0.4h4.5c0.6,0,0.8,0.7,0.4,1.1
			l-4,3c-0.2,0.2-0.3,0.4-0.2,0.7l1.8,4.6c0.2,0.5-0.4,1-0.9,0.7l-4.2-2.8c-0.2-0.1-0.4-0.1-0.6,0l-3.5,1.7c-0.5,0.2-1-0.2-0.8-0.7
			l1-3.5c0.1-0.2,0-0.5-0.2-0.6l-3.2-2.8c-0.4-0.3-0.2-1,0.3-1l4.1-0.3C191.4,194.6,191.6,194.4,191.7,194.2z"/>
		<path fill="#E30613" d="M136.7,288.4l2-4.8c0.2-0.5,0.9-0.5,1.1,0l1.5,4.7c0.1,0.2,0.3,0.4,0.6,0.4h4.5c0.6,0,0.8,0.7,0.4,1.1
			l-4,3c-0.2,0.2-0.3,0.4-0.2,0.7l1.8,4.6c0.2,0.5-0.4,1-0.9,0.7l-4.2-2.8c-0.2-0.1-0.4-0.1-0.6,0l-3.5,1.7c-0.5,0.2-1-0.2-0.8-0.7
			l1-3.5c0.1-0.2,0-0.5-0.2-0.6l-3.2-2.8c-0.4-0.3-0.2-1,0.3-1l4.1-0.3C136.5,288.8,136.7,288.7,136.7,288.4z"/>
		<path fill="#E30613" d="M136.7,226.6l2-4.8c0.2-0.5,0.9-0.5,1.1,0l1.5,4.7c0.1,0.2,0.3,0.4,0.6,0.4h4.5c0.6,0,0.8,0.7,0.4,1.1
			l-4,3c-0.2,0.2-0.3,0.4-0.2,0.7l1.8,4.6c0.2,0.5-0.4,1-0.9,0.7l-4.2-2.8c-0.2-0.1-0.4-0.1-0.6,0l-3.5,1.7c-0.5,0.2-1-0.2-0.8-0.7
			l1-3.5c0.1-0.2,0-0.5-0.2-0.6l-3.2-2.8c-0.4-0.3-0.2-1,0.3-1l4.1-0.3C136.5,227,136.7,226.8,136.7,226.6z"/>
		<path fill="#E30613" d="M164.5,203.1l-2-4.8c-0.2-0.5-0.9-0.5-1.1,0L160,203c-0.1,0.2-0.3,0.4-0.6,0.4h-4.5
			c-0.6,0-0.8,0.7-0.4,1.1l4,3c0.2,0.2,0.3,0.4,0.2,0.7l-1.8,4.6c-0.2,0.5,0.4,1,0.9,0.7l4.2-2.8c0.2-0.1,0.4-0.1,0.6,0l3.5,1.7
			c0.5,0.2,1-0.2,0.8-0.7l-1-3.5c-0.1-0.2,0-0.5,0.2-0.6l3.2-2.8c0.4-0.3,0.2-1-0.3-1l-4.1-0.3C164.8,203.5,164.6,203.3,164.5,203.1
			z"/>
		<path fill="#E30613" d="M133.4,256.9l-2-4.8c-0.2-0.5-0.9-0.5-1.1,0l-1.5,4.7c-0.1,0.2-0.3,0.4-0.6,0.4h-4.5
			c-0.6,0-0.8,0.7-0.4,1.1l4,3c0.2,0.2,0.3,0.4,0.2,0.7l-1.8,4.6c-0.2,0.5,0.4,1,0.9,0.7l4.2-2.8c0.2-0.1,0.4-0.1,0.6,0l3.5,1.7
			c0.5,0.2,1-0.2,0.8-0.7l-1-3.5c-0.1-0.2,0-0.5,0.2-0.6l3.2-2.8c0.4-0.3,0.2-1-0.3-1l-4.1-0.3C133.7,257.2,133.5,257.1,133.4,256.9
			z"/>
	</g>
	<g>
		<path fill="#FFFFFF" stroke="#27348B" stroke-width="6" stroke-miterlimit="10" d="M323.9,447.2H44.1c-6.3,0-11.3-5.1-11.3-11.3
			V295.3c0-6.3,5.1-11.3,11.3-11.3h279.8c6.3,0,11.3,5.1,11.3,11.3v140.5C335.3,442.1,330.2,447.2,323.9,447.2z"/>
		<path fill="none" stroke="#F9B233" stroke-width="5" stroke-miterlimit="10" d="M185.3,435.1v-85.4c0-0.2,0.1-0.4,0.1-0.6
			c1.2-2.2,10.3-17.5,29.2-26c0.3-0.1,0.7-0.1,1,0c3.1,1.4,19.9,9.8,29.2,26.7c0.1,0.2,0.1,0.4,0.1,0.6v85.4c0,0.7-0.5,1.2-1.2,1.2
			l-57.4-0.6C185.8,436.3,185.3,435.7,185.3,435.1z"/>
		<path fill="none" stroke="#F9B233" stroke-width="4" stroke-linecap="round" stroke-miterlimit="10" d="M189.3,364.2
			c0,0,10.9-24.3,25.6-29.3c0.2-0.1,0.5-0.1,0.7,0c2.1,0.6,13,4.8,25.3,29.4"/>
		<path fill="none" stroke="#F9B233" stroke-width="5" stroke-linecap="round" stroke-miterlimit="10" d="M225.8,329v-10.9
			c0-0.2,0-0.3,0.1-0.5c0.8-1.9,7-15.3,24-21.9c0.3-0.1,0.6-0.1,0.9,0c2.8,1.3,17.2,8.4,22.6,21.3c0.1,0.1,0.1,0.3,0.1,0.5v118.1
			c0,0.7-0.5,1.2-1.2,1.2H245"/>
		<path fill="#F9B233" d="M128.4,297.4l0.6,8c0.1,0.9,1.1,1.4,1.8,0.9c3.4-2.2,11.2-6.2,14.1,1.2c3.4,8.8-14.2,24.4-17.1,26.9
			c-0.3,0.2-0.4,0.6-0.4,0.9v7.2c0,0.7,0.5,1.2,1.2,1.2h29.5c0.7,0,1.2-0.5,1.2-1.2v-7.1c0-0.7-0.5-1.2-1.2-1.2l-14-0.1
			c-1.1,0-1.6-1.3-0.8-2c5-4.7,16.4-16.9,13.8-28.1c-3.2-13.7-19.7-10.9-27.9-7.8C128.6,296.4,128.3,296.9,128.4,297.4z"/>
		<path fill="#F9B233" d="M195,319.9c-0.6-28.2-14-26.3-16.5-26.3c-4.2,0-15-0.6-16.1,25.3s16.1,25,16.1,25S195.6,345.9,195,319.9z
			 M183.5,318.7c0,17-3.8,17.1-4.5,17.1s-5.9,0.6-5.4-16.8c0.5-18,5.3-17.1,5.3-17.1S183.8,301.2,183.5,318.7z"/>
		<path fill="#F9B233" d="M61.6,409.4l0.3,3.7c0.1,0.9,1,1.4,1.8,0.9c2.3-1.3,6.3-3,7.9,1.1c2,5.2-8,14.2-10.2,16.1
			c-0.3,0.2-0.4,0.6-0.4,0.9v3.7c0,0.7,0.5,1.2,1.2,1.2H79c0.7,0,1.2-0.5,1.2-1.2v-3.4c0-0.7-0.5-1.2-1.2-1.2l-6.9-0.1
			c-1,0-1.6-1.3-0.8-2c3.3-3.3,9-10,7.5-16.2c-1.9-8.1-11.5-6.7-16.5-4.9C61.9,408.4,61.5,408.9,61.6,409.4z"/>
		<path fill="#F9B233" d="M101.8,422.7c-0.4-17.1-8.5-15.9-10-15.9c-2.5,0-9-0.4-9.7,15.3s9.7,15.1,9.7,15.1
			S102.2,438.4,101.8,422.7z M94.9,422c0,10.3-2.3,10.3-2.7,10.3c-0.4,0-3.6,0.4-3.3-10.2c0.3-10.9,3.2-10.4,3.2-10.4
			S95.1,411.4,94.9,422z"/>
		<path fill="#F9B233" d="M287.5,403.8L287.5,403.8c0.1,0.7,0.8,1.2,1.4,0.9c0.8-0.3,1.8-0.4,2.2,0.8c0.7,1.8-2.5,4.8-3.6,5.8
			c-0.2,0.2-0.4,0.5-0.4,0.8v0.5c0,0.6,0.5,1.1,1.1,1.1h5.1c0.6,0,1.1-0.5,1.1-1.1l0,0c0-0.6-0.5-1-1-1.1h-0.6c-0.9,0-1.4-1-0.8-1.7
			c1.1-1.3,2.3-3.3,1.9-5.1c-0.6-2.8-3.7-2.5-5.6-2C287.8,402.8,287.5,403.3,287.5,403.8z"/>
		<path fill="#F9B233" d="M298.8,402.3c-0.9,0-3.4-0.1-3.6,5.7s3.6,5.6,3.6,5.6s3.8,0.4,3.7-5.4
			C302.3,401.9,299.3,402.3,298.8,402.3z M298.9,411.8c-0.1,0-1.3,0.1-1.2-3.8c0.1-4,1.2-3.8,1.2-3.8s1.1-0.1,1,3.8
			C299.9,411.8,299,411.8,298.9,411.8z"/>
		<path fill="#E30613" d="M191.7,300.8l2-4.8c0.2-0.5,0.9-0.5,1.1,0l1.5,4.7c0.1,0.2,0.3,0.4,0.6,0.4h4.5c0.6,0,0.8,0.7,0.4,1.1
			l-4,3c-0.2,0.2-0.3,0.4-0.2,0.7l1.8,4.6c0.2,0.5-0.4,1-0.9,0.7l-4.2-2.8c-0.2-0.1-0.4-0.1-0.6,0L190,310c-0.5,0.2-1-0.2-0.8-0.7
			l1-3.5c0.1-0.2,0-0.5-0.2-0.6l-3.2-2.8c-0.4-0.3-0.2-1,0.3-1l4.1-0.3C191.4,301.1,191.6,301,191.7,300.8z"/>
		<path fill="#E30613" d="M136.7,395l2-4.8c0.2-0.5,0.9-0.5,1.1,0l1.5,4.7c0.1,0.2,0.3,0.4,0.6,0.4h4.5c0.6,0,0.8,0.7,0.4,1.1l-4,3
			c-0.2,0.2-0.3,0.4-0.2,0.7l1.8,4.6c0.2,0.5-0.4,1-0.9,0.7l-4.2-2.8c-0.2-0.1-0.4-0.1-0.6,0l-3.5,1.7c-0.5,0.2-1-0.2-0.8-0.7l1-3.5
			c0.1-0.2,0-0.5-0.2-0.6l-3.2-2.8c-0.4-0.3-0.2-1,0.3-1l4.1-0.3C136.5,395.3,136.7,395.2,136.7,395z"/>
		<path fill="#E30613" d="M136.7,333.1l2-4.8c0.2-0.5,0.9-0.5,1.1,0l1.5,4.7c0.1,0.2,0.3,0.4,0.6,0.4h4.5c0.6,0,0.8,0.7,0.4,1.1
			l-4,3c-0.2,0.2-0.3,0.4-0.2,0.7l1.8,4.6c0.2,0.5-0.4,1-0.9,0.7l-4.2-2.8c-0.2-0.1-0.4-0.1-0.6,0l-3.5,1.7c-0.5,0.2-1-0.2-0.8-0.7
			l1-3.5c0.1-0.2,0-0.5-0.2-0.6l-3.2-2.8c-0.4-0.3-0.2-1,0.3-1l4.1-0.3C136.5,333.5,136.7,333.3,136.7,333.1z"/>
		<path fill="#E30613" d="M164.5,309.6l-2-4.8c-0.2-0.5-0.9-0.5-1.1,0l-1.5,4.7c-0.1,0.2-0.3,0.4-0.6,0.4h-4.5
			c-0.6,0-0.8,0.7-0.4,1.1l4,3c0.2,0.2,0.3,0.4,0.2,0.7l-1.8,4.6c-0.2,0.5,0.4,1,0.9,0.7l4.2-2.8c0.2-0.1,0.4-0.1,0.6,0l3.5,1.7
			c0.5,0.2,1-0.2,0.8-0.7l-1-3.5c-0.1-0.2,0-0.5,0.2-0.6l3.2-2.8c0.4-0.3,0.2-1-0.3-1L165,310C164.8,310,164.6,309.8,164.5,309.6z"
			/>
		<path fill="#E30613" d="M133.4,363.4l-2-4.8c-0.2-0.5-0.9-0.5-1.1,0l-1.5,4.7c-0.1,0.2-0.3,0.4-0.6,0.4h-4.5
			c-0.6,0-0.8,0.7-0.4,1.1l4,3c0.2,0.2,0.3,0.4,0.2,0.7l-1.8,4.6c-0.2,0.5,0.4,1,0.9,0.7l4.2-2.8c0.2-0.1,0.4-0.1,0.6,0l3.5,1.7
			c0.5,0.2,1-0.2,0.8-0.7l-1-3.5c-0.1-0.2,0-0.5,0.2-0.6l3.2-2.8c0.4-0.3,0.2-1-0.3-1l-4.1-0.3C133.7,363.8,133.5,363.6,133.4,363.4
			z"/>
	</g>
	<g>
		<path fill="#FFFFFF" stroke="#27348B" stroke-width="6" stroke-miterlimit="10" d="M323.9,553.7H44.1c-6.3,0-11.3-5.1-11.3-11.3
			V401.8c0-6.3,5.1-11.3,11.3-11.3h279.8c6.3,0,11.3,5.1,11.3,11.3v140.5C335.3,548.6,330.2,553.7,323.9,553.7z"/>
		<path fill="none" stroke="#F9B233" stroke-width="5" stroke-miterlimit="10" d="M185.3,541.6v-85.4c0-0.2,0.1-0.4,0.1-0.6
			c1.2-2.2,10.3-17.5,29.2-26c0.3-0.1,0.7-0.1,1,0c3.1,1.4,19.9,9.8,29.2,26.7c0.1,0.2,0.1,0.4,0.1,0.6v85.4c0,0.7-0.5,1.2-1.2,1.2
			l-57.4-0.6C185.8,542.8,185.3,542.3,185.3,541.6z"/>
		<path fill="none" stroke="#F9B233" stroke-width="4" stroke-linecap="round" stroke-miterlimit="10" d="M189.3,470.7
			c0,0,10.9-24.3,25.6-29.3c0.2-0.1,0.5-0.1,0.7,0c2.1,0.6,13,4.8,25.3,29.4"/>
		<path fill="none" stroke="#F9B233" stroke-width="5" stroke-linecap="round" stroke-miterlimit="10" d="M225.8,435.6v-10.9
			c0-0.2,0-0.3,0.1-0.5c0.8-1.9,7-15.3,24-21.9c0.3-0.1,0.6-0.1,0.9,0c2.8,1.3,17.2,8.4,22.6,21.3c0.1,0.1,0.1,0.3,0.1,0.5v118.1
			c0,0.7-0.5,1.2-1.2,1.2H245"/>
		<path fill="#F9B233" d="M128.4,403.9l0.6,8c0.1,0.9,1.1,1.4,1.8,0.9c3.4-2.2,11.2-6.2,14.1,1.2c3.4,8.8-14.2,24.4-17.1,26.9
			c-0.3,0.2-0.4,0.6-0.4,0.9v7.2c0,0.7,0.5,1.2,1.2,1.2h29.5c0.7,0,1.2-0.5,1.2-1.2v-7c0-0.7-0.5-1.2-1.2-1.2l-14-0.1
			c-1.1,0-1.6-1.3-0.8-2c5-4.7,16.4-16.9,13.8-28.1c-3.2-13.7-19.7-10.9-27.9-7.8C128.6,402.9,128.3,403.4,128.4,403.9z"/>
		<path fill="#F9B233" d="M195,426.4c-0.6-28.2-14-26.3-16.5-26.3c-4.2,0-15-0.6-16.1,25.3s16.1,25,16.1,25S195.6,452.5,195,426.4z
			 M183.5,425.2c0,17-3.8,17.1-4.5,17.1s-5.9,0.6-5.4-16.8c0.5-18,5.3-17.1,5.3-17.1S183.8,407.8,183.5,425.2z"/>
		<path fill="#F9B233" d="M61.6,516l0.3,3.7c0.1,0.9,1,1.4,1.8,0.9c2.3-1.3,6.3-3,7.9,1.1c2,5.2-8,14.2-10.2,16.1
			c-0.3,0.2-0.4,0.6-0.4,0.9v3.7c0,0.7,0.5,1.2,1.2,1.2H79c0.7,0,1.2-0.5,1.2-1.2V539c0-0.7-0.5-1.2-1.2-1.2l-6.9-0.1
			c-1,0-1.6-1.3-0.8-2c3.3-3.3,9-10,7.5-16.2c-1.9-8.1-11.5-6.7-16.5-4.9C61.9,514.9,61.5,515.4,61.6,516z"/>
		<path fill="#F9B233" d="M101.8,529.2c-0.4-17.1-8.5-15.9-10-15.9c-2.5,0-9-0.4-9.7,15.3s9.7,15.1,9.7,15.1S102.2,545,101.8,529.2z
			 M94.9,528.5c0,10.3-2.3,10.3-2.7,10.3c-0.4,0-3.6,0.4-3.3-10.2c0.3-10.9,3.2-10.4,3.2-10.4S95.1,517.9,94.9,528.5z"/>
		<path fill="#F9B233" d="M287.5,510.3L287.5,510.3c0.1,0.7,0.8,1.2,1.4,0.9c0.8-0.3,1.8-0.4,2.2,0.8c0.7,1.8-2.5,4.8-3.6,5.8
			c-0.2,0.2-0.4,0.5-0.4,0.8v0.5c0,0.6,0.5,1.1,1.1,1.1h5.1c0.6,0,1.1-0.5,1.1-1.1l0,0c0-0.6-0.5-1-1-1.1h-0.6c-0.9,0-1.4-1-0.8-1.7
			c1.1-1.3,2.3-3.3,1.9-5.1c-0.6-2.8-3.7-2.5-5.6-2C287.8,509.4,287.5,509.8,287.5,510.3z"/>
		<path fill="#F9B233" d="M298.8,508.9c-0.9,0-3.4-0.1-3.6,5.7c-0.3,5.8,3.6,5.6,3.6,5.6s3.8,0.4,3.7-5.4
			C302.3,508.4,299.3,508.9,298.8,508.9z M298.9,518.3c-0.1,0-1.3,0.1-1.2-3.8c0.1-4,1.2-3.8,1.2-3.8s1.1-0.1,1,3.8
			C299.9,518.3,299,518.3,298.9,518.3z"/>
		<path fill="#E30613" d="M191.7,407.3l2-4.8c0.2-0.5,0.9-0.5,1.1,0l1.5,4.7c0.1,0.2,0.3,0.4,0.6,0.4h4.5c0.6,0,0.8,0.7,0.4,1.1
			l-4,3c-0.2,0.2-0.3,0.4-0.2,0.7l1.8,4.6c0.2,0.5-0.4,1-0.9,0.7l-4.2-2.8c-0.2-0.1-0.4-0.1-0.6,0l-3.5,1.7c-0.5,0.2-1-0.2-0.8-0.7
			l1-3.5c0.1-0.2,0-0.5-0.2-0.6L187,409c-0.4-0.3-0.2-1,0.3-1l4.1-0.3C191.4,407.6,191.6,407.5,191.7,407.3z"/>
		<path fill="#E30613" d="M136.7,501.5l2-4.8c0.2-0.5,0.9-0.5,1.1,0l1.5,4.7c0.1,0.2,0.3,0.4,0.6,0.4h4.5c0.6,0,0.8,0.7,0.4,1.1
			l-4,3c-0.2,0.2-0.3,0.4-0.2,0.7l1.8,4.6c0.2,0.5-0.4,1-0.9,0.7l-4.2-2.8c-0.2-0.1-0.4-0.1-0.6,0l-3.5,1.7c-0.5,0.2-1-0.2-0.8-0.7
			l1-3.5c0.1-0.2,0-0.5-0.2-0.6l-3.2-2.8c-0.4-0.3-0.2-1,0.3-1l4.1-0.3C136.5,501.9,136.7,501.7,136.7,501.5z"/>
		<path fill="#E30613" d="M136.7,439.7l2-4.8c0.2-0.5,0.9-0.5,1.1,0l1.5,4.7c0.1,0.2,0.3,0.4,0.6,0.4h4.5c0.6,0,0.8,0.7,0.4,1.1
			l-4,3c-0.2,0.2-0.3,0.4-0.2,0.7l1.8,4.6c0.2,0.5-0.4,1-0.9,0.7l-4.2-2.8c-0.2-0.1-0.4-0.1-0.6,0l-3.5,1.7c-0.5,0.2-1-0.2-0.8-0.7
			l1-3.5c0.1-0.2,0-0.5-0.2-0.6l-3.2-2.8c-0.4-0.3-0.2-1,0.3-1l4.1-0.3C136.5,440,136.7,439.9,136.7,439.7z"/>
		<path fill="#E30613" d="M164.5,416.2l-2-4.8c-0.2-0.5-0.9-0.5-1.1,0l-1.5,4.7c-0.1,0.2-0.3,0.4-0.6,0.4h-4.5
			c-0.6,0-0.8,0.7-0.4,1.1l4,3c0.2,0.2,0.3,0.4,0.2,0.7l-1.8,4.6c-0.2,0.5,0.4,1,0.9,0.7l4.2-2.8c0.2-0.1,0.4-0.1,0.6,0l3.5,1.7
			c0.5,0.2,1-0.2,0.8-0.7l-1-3.5c-0.1-0.2,0-0.5,0.2-0.6l3.2-2.8c0.4-0.3,0.2-1-0.3-1l-4.1-0.3C164.8,416.5,164.6,416.4,164.5,416.2
			z"/>
		<path fill="#E30613" d="M133.4,469.9l-2-4.8c-0.2-0.5-0.9-0.5-1.1,0l-1.5,4.7c-0.1,0.2-0.3,0.4-0.6,0.4h-4.5
			c-0.6,0-0.8,0.7-0.4,1.1l4,3c0.2,0.2,0.3,0.4,0.2,0.7l-1.8,4.6c-0.2,0.5,0.4,1,0.9,0.7l4.2-2.8c0.2-0.1,0.4-0.1,0.6,0l3.5,1.7
			c0.5,0.2,1-0.2,0.8-0.7l-1-3.5c-0.1-0.2,0-0.5,0.2-0.6l3.2-2.8c0.4-0.3,0.2-1-0.3-1l-4.1-0.3C133.7,470.3,133.5,470.2,133.4,469.9
			z"/>
	</g>
	<g>
		<path fill="#FFFFFF" stroke="#27348B" stroke-width="6" stroke-miterlimit="10" d="M323.9,660.2H44.1c-6.3,0-11.3-5.1-11.3-11.3
			V508.4c0-6.3,5.1-11.3,11.3-11.3h279.8c6.3,0,11.3,5.1,11.3,11.3v140.5C335.3,655.2,330.2,660.2,323.9,660.2z"/>
		<path fill="none" stroke="#F9B233" stroke-width="5" stroke-miterlimit="10" d="M185.3,648.2v-85.4c0-0.2,0.1-0.4,0.1-0.6
			c1.2-2.2,10.3-17.5,29.2-26c0.3-0.1,0.7-0.1,1,0c3.1,1.4,19.9,9.8,29.2,26.7c0.1,0.2,0.1,0.4,0.1,0.6v85.4c0,0.7-0.5,1.2-1.2,1.2
			l-57.4-0.6C185.8,649.3,185.3,648.8,185.3,648.2z"/>
		<path fill="none" stroke="#F9B233" stroke-width="4" stroke-linecap="round" stroke-miterlimit="10" d="M189.3,577.2
			c0,0,10.9-24.3,25.6-29.3c0.2-0.1,0.5-0.1,0.7,0c2.1,0.6,13,4.8,25.3,29.4"/>
		<path fill="none" stroke="#F9B233" stroke-width="5" stroke-linecap="round" stroke-miterlimit="10" d="M225.8,542.1v-10.9
			c0-0.2,0-0.3,0.1-0.5c0.8-1.9,7-15.3,24-21.9c0.3-0.1,0.6-0.1,0.9,0c2.8,1.3,17.2,8.4,22.6,21.3c0.1,0.1,0.1,0.3,0.1,0.5v118.1
			c0,0.7-0.5,1.2-1.2,1.2H245"/>
		<path fill="#F9B233" d="M128.4,510.4l0.6,8c0.1,0.9,1.1,1.4,1.8,0.9c3.4-2.2,11.2-6.2,14.1,1.2c3.4,8.8-14.2,24.4-17.1,26.9
			c-0.3,0.2-0.4,0.6-0.4,0.9v7.2c0,0.7,0.5,1.2,1.2,1.2h29.5c0.7,0,1.2-0.5,1.2-1.2v-7.1c0-0.7-0.5-1.2-1.2-1.2l-14-0.1
			c-1.1,0-1.6-1.3-0.8-2c5-4.7,16.4-16.9,13.8-28.1c-3.2-13.7-19.7-10.9-27.9-7.8C128.6,509.4,128.3,509.9,128.4,510.4z"/>
		<path fill="#F9B233" d="M195,533c-0.6-28.2-14-26.3-16.5-26.3c-4.2,0-15-0.6-16.1,25.3c-1.1,25.9,16.1,25,16.1,25
			S195.6,559,195,533z M183.5,531.7c0,17-3.8,17.1-4.5,17.1s-5.9,0.6-5.4-16.8c0.5-18,5.3-17.1,5.3-17.1S183.8,514.3,183.5,531.7z"
			/>
		<path fill="#F9B233" d="M61.6,622.5l0.3,3.7c0.1,0.9,1,1.4,1.8,0.9c2.3-1.3,6.3-3,7.9,1.1c2,5.2-8,14.2-10.2,16.1
			c-0.3,0.2-0.4,0.6-0.4,0.9v3.7c0,0.7,0.5,1.2,1.2,1.2H79c0.7,0,1.2-0.5,1.2-1.2v-3.4c0-0.7-0.5-1.2-1.2-1.2l-6.9-0.1
			c-1,0-1.6-1.3-0.8-2c3.3-3.3,9-10,7.5-16.2c-1.9-8.1-11.5-6.7-16.5-4.9C61.9,621.5,61.5,622,61.6,622.5z"/>
		<path fill="#F9B233" d="M101.8,635.8c-0.4-17.1-8.5-15.9-10-15.9c-2.5,0-9-0.4-9.7,15.3s9.7,15.1,9.7,15.1
			S102.2,651.5,101.8,635.8z M94.9,635c0,10.3-2.3,10.3-2.7,10.3c-0.4,0-3.6,0.4-3.3-10.2c0.3-10.9,3.2-10.4,3.2-10.4
			S95.1,624.5,94.9,635z"/>
		<path fill="#F9B233" d="M287.5,616.9L287.5,616.9c0.1,0.7,0.8,1.2,1.4,0.9c0.8-0.3,1.8-0.4,2.2,0.8c0.7,1.8-2.5,4.8-3.6,5.8
			c-0.2,0.2-0.4,0.5-0.4,0.8v0.5c0,0.6,0.5,1.1,1.1,1.1h5.1c0.6,0,1.1-0.5,1.1-1.1l0,0c0-0.6-0.5-1-1-1.1h-0.6c-0.9,0-1.4-1-0.8-1.7
			c1.1-1.3,2.3-3.3,1.9-5.1c-0.6-2.8-3.7-2.5-5.6-2C287.8,615.9,287.5,616.4,287.5,616.9z"/>
		<path fill="#F9B233" d="M298.8,615.4c-0.9,0-3.4-0.1-3.6,5.7s3.6,5.6,3.6,5.6s3.8,0.4,3.7-5.4C302.3,615,299.3,615.4,298.8,615.4z
			 M298.9,624.9c-0.1,0-1.3,0.1-1.2-3.8c0.1-4,1.2-3.8,1.2-3.8s1.1-0.1,1,3.8C299.9,624.8,299,624.9,298.9,624.9z"/>
		<path fill="#E30613" d="M191.7,513.8l2-4.8c0.2-0.5,0.9-0.5,1.1,0l1.5,4.7c0.1,0.2,0.3,0.4,0.6,0.4h4.5c0.6,0,0.8,0.7,0.4,1.1
			l-4,3c-0.2,0.2-0.3,0.4-0.2,0.7l1.8,4.6c0.2,0.5-0.4,1-0.9,0.7l-4.2-2.8c-0.2-0.1-0.4-0.1-0.6,0l-3.5,1.7c-0.5,0.2-1-0.2-0.8-0.7
			l1-3.5c0.1-0.2,0-0.5-0.2-0.6l-3.2-2.8c-0.4-0.3-0.2-1,0.3-1l4.1-0.3C191.4,514.2,191.6,514,191.7,513.8z"/>
		<path fill="#E30613" d="M136.7,608l2-4.8c0.2-0.5,0.9-0.5,1.1,0l1.5,4.7c0.1,0.2,0.3,0.4,0.6,0.4h4.5c0.6,0,0.8,0.7,0.4,1.1l-4,3
			c-0.2,0.2-0.3,0.4-0.2,0.7l1.8,4.6c0.2,0.5-0.4,1-0.9,0.7l-4.2-2.8c-0.2-0.1-0.4-0.1-0.6,0l-3.5,1.7c-0.5,0.2-1-0.2-0.8-0.7l1-3.5
			c0.1-0.2,0-0.5-0.2-0.6l-3.2-2.8c-0.4-0.3-0.2-1,0.3-1l4.1-0.3C136.5,608.4,136.7,608.2,136.7,608z"/>
		<path fill="#E30613" d="M136.7,546.2l2-4.8c0.2-0.5,0.9-0.5,1.1,0l1.5,4.7c0.1,0.2,0.3,0.4,0.6,0.4h4.5c0.6,0,0.8,0.7,0.4,1.1
			l-4,3c-0.2,0.2-0.3,0.4-0.2,0.7l1.8,4.6c0.2,0.5-0.4,1-0.9,0.7l-4.2-2.8c-0.2-0.1-0.4-0.1-0.6,0l-3.5,1.7c-0.5,0.2-1-0.2-0.8-0.7
			l1-3.5c0.1-0.2,0-0.5-0.2-0.6l-3.2-2.8c-0.4-0.3-0.2-1,0.3-1l4.1-0.3C136.5,546.5,136.7,546.4,136.7,546.2z"/>
		<path fill="#E30613" d="M164.5,522.7l-2-4.8c-0.2-0.5-0.9-0.5-1.1,0l-1.5,4.7c-0.1,0.2-0.3,0.4-0.6,0.4h-4.5
			c-0.6,0-0.8,0.7-0.4,1.1l4,3c0.2,0.2,0.3,0.4,0.2,0.7l-1.8,4.6c-0.2,0.5,0.4,1,0.9,0.7l4.2-2.8c0.2-0.1,0.4-0.1,0.6,0l3.5,1.7
			c0.5,0.2,1-0.2,0.8-0.7l-1-3.5c-0.1-0.2,0-0.5,0.2-0.6l3.2-2.8c0.4-0.3,0.2-1-0.3-1l-4.1-0.3C164.8,523,164.6,522.9,164.5,522.7z"
			/>
		<path fill="#E30613" d="M133.4,576.5l-2-4.8c-0.2-0.5-0.9-0.5-1.1,0l-1.5,4.7c-0.1,0.2-0.3,0.4-0.6,0.4h-4.5
			c-0.6,0-0.8,0.7-0.4,1.1l4,3c0.2,0.2,0.3,0.4,0.2,0.7l-1.8,4.6c-0.2,0.5,0.4,1,0.9,0.7l4.2-2.8c0.2-0.1,0.4-0.1,0.6,0l3.5,1.7
			c0.5,0.2,1-0.2,0.8-0.7l-1-3.5c-0.1-0.2,0-0.5,0.2-0.6l3.2-2.8c0.4-0.3,0.2-1-0.3-1l-4.1-0.3C133.7,576.8,133.5,576.7,133.4,576.5
			z"/>
	</g>
	<g>
		<path fill="#FFFFFF" stroke="#27348B" stroke-width="6" stroke-miterlimit="10" d="M323.9,766.8H44.1c-6.3,0-11.3-5.1-11.3-11.3
			V614.9c0-6.3,5.1-11.3,11.3-11.3h279.8c6.3,0,11.3,5.1,11.3,11.3v140.5C335.3,761.7,330.2,766.8,323.9,766.8z"/>
		<path fill="none" stroke="#F9B233" stroke-width="5" stroke-miterlimit="10" d="M185.3,754.7v-85.4c0-0.2,0.1-0.4,0.1-0.6
			c1.2-2.2,10.3-17.5,29.2-26c0.3-0.1,0.7-0.1,1,0c3.1,1.4,19.9,9.8,29.2,26.7c0.1,0.2,0.1,0.4,0.1,0.6v85.4c0,0.7-0.5,1.2-1.2,1.2
			l-57.4-0.6C185.8,755.9,185.3,755.3,185.3,754.7z"/>
		<path fill="none" stroke="#F9B233" stroke-width="4" stroke-linecap="round" stroke-miterlimit="10" d="M189.3,683.8
			c0,0,10.9-24.3,25.6-29.3c0.2-0.1,0.5-0.1,0.7,0c2.1,0.6,13,4.8,25.3,29.4"/>
		<path fill="none" stroke="#F9B233" stroke-width="5" stroke-linecap="round" stroke-miterlimit="10" d="M225.8,648.6v-10.9
			c0-0.2,0-0.3,0.1-0.5c0.8-1.9,7-15.3,24-21.9c0.3-0.1,0.6-0.1,0.9,0c2.8,1.3,17.2,8.4,22.6,21.3c0.1,0.1,0.1,0.3,0.1,0.5v118.1
			c0,0.7-0.5,1.2-1.2,1.2H245"/>
		<path fill="#F9B233" d="M128.4,617l0.6,8c0.1,0.9,1.1,1.4,1.8,0.9c3.4-2.2,11.2-6.2,14.1,1.2c3.4,8.8-14.2,24.4-17.1,26.9
			c-0.3,0.2-0.4,0.6-0.4,0.9v7.2c0,0.7,0.5,1.2,1.2,1.2h29.5c0.7,0,1.2-0.5,1.2-1.2V655c0-0.7-0.5-1.2-1.2-1.2l-14-0.1
			c-1.1,0-1.6-1.3-0.8-2c5-4.7,16.4-16.9,13.8-28.1c-3.2-13.7-19.7-10.9-27.9-7.8C128.6,615.9,128.3,616.4,128.4,617z"/>
		<path fill="#F9B233" d="M195,639.5c-0.6-28.2-14-26.3-16.5-26.3c-4.2,0-15-0.6-16.1,25.3c-1.1,25.9,16.1,25,16.1,25
			S195.6,665.5,195,639.5z M183.5,638.3c0,17-3.8,17.1-4.5,17.1s-5.9,0.6-5.4-16.8c0.5-18,5.3-17.1,5.3-17.1
			S183.8,620.8,183.5,638.3z"/>
		<path fill="#F9B233" d="M61.6,729l0.3,3.7c0.1,0.9,1,1.4,1.8,0.9c2.3-1.3,6.3-3,7.9,1.1c2,5.2-8,14.2-10.2,16.1
			c-0.3,0.2-0.4,0.6-0.4,0.9v3.7c0,0.7,0.5,1.2,1.2,1.2H79c0.7,0,1.2-0.5,1.2-1.2V752c0-0.7-0.5-1.2-1.2-1.2l-6.9-0.1
			c-1,0-1.6-1.3-0.8-2c3.3-3.3,9-10,7.5-16.2c-1.9-8.1-11.5-6.7-16.5-4.9C61.9,728,61.5,728.5,61.6,729z"/>
		<path fill="#F9B233" d="M101.8,742.3c-0.4-17.1-8.5-15.9-10-15.9c-2.5,0-9-0.4-9.7,15.3s9.7,15.1,9.7,15.1S102.2,758,101.8,742.3z
			 M94.9,741.6c0,10.3-2.3,10.3-2.7,10.3c-0.4,0-3.6,0.4-3.3-10.2c0.3-10.9,3.2-10.4,3.2-10.4S95.1,731,94.9,741.6z"/>
		<path fill="#F9B233" d="M287.5,723.4L287.5,723.4c0.1,0.7,0.8,1.2,1.4,0.9c0.8-0.3,1.8-0.4,2.2,0.8c0.7,1.8-2.5,4.8-3.6,5.8
			c-0.2,0.2-0.4,0.5-0.4,0.8v0.5c0,0.6,0.5,1.1,1.1,1.1h5.1c0.6,0,1.1-0.5,1.1-1.1l0,0c0-0.6-0.5-1-1-1.1h-0.6c-0.9,0-1.4-1-0.8-1.7
			c1.1-1.3,2.3-3.3,1.9-5.1c-0.6-2.8-3.7-2.5-5.6-2C287.8,722.4,287.5,722.9,287.5,723.4z"/>
		<path fill="#F9B233" d="M298.8,721.9c-0.9,0-3.4-0.1-3.6,5.7s3.6,5.6,3.6,5.6s3.8,0.4,3.7-5.4
			C302.3,721.5,299.3,721.9,298.8,721.9z M298.9,731.4c-0.1,0-1.3,0.1-1.2-3.8c0.1-4,1.2-3.8,1.2-3.8s1.1-0.1,1,3.8
			C299.9,731.4,299,731.4,298.9,731.4z"/>
		<path fill="#E30613" d="M191.7,620.3l2-4.8c0.2-0.5,0.9-0.5,1.1,0l1.5,4.7c0.1,0.2,0.3,0.4,0.6,0.4h4.5c0.6,0,0.8,0.7,0.4,1.1
			l-4,3c-0.2,0.2-0.3,0.4-0.2,0.7l1.8,4.6c0.2,0.5-0.4,1-0.9,0.7l-4.2-2.8c-0.2-0.1-0.4-0.1-0.6,0l-3.5,1.7c-0.5,0.2-1-0.2-0.8-0.7
			l1-3.5c0.1-0.2,0-0.5-0.2-0.6L187,622c-0.4-0.3-0.2-1,0.3-1l4.1-0.3C191.4,620.7,191.6,620.6,191.7,620.3z"/>
		<path fill="#E30613" d="M136.7,714.6l2-4.8c0.2-0.5,0.9-0.5,1.1,0l1.5,4.7c0.1,0.2,0.3,0.4,0.6,0.4h4.5c0.6,0,0.8,0.7,0.4,1.1
			l-4,3c-0.2,0.2-0.3,0.4-0.2,0.7l1.8,4.6c0.2,0.5-0.4,1-0.9,0.7l-4.2-2.8c-0.2-0.1-0.4-0.1-0.6,0l-3.5,1.7c-0.5,0.2-1-0.2-0.8-0.7
			l1-3.5c0.1-0.2,0-0.5-0.2-0.6l-3.2-2.8c-0.4-0.3-0.2-1,0.3-1l4.1-0.3C136.5,714.9,136.7,714.8,136.7,714.6z"/>
		<path fill="#E30613" d="M136.7,652.7l2-4.8c0.2-0.5,0.9-0.5,1.1,0l1.5,4.7c0.1,0.2,0.3,0.4,0.6,0.4h4.5c0.6,0,0.8,0.7,0.4,1.1
			l-4,3c-0.2,0.2-0.3,0.4-0.2,0.7l1.8,4.6c0.2,0.5-0.4,1-0.9,0.7l-4.2-2.8c-0.2-0.1-0.4-0.1-0.6,0l-3.5,1.7c-0.5,0.2-1-0.2-0.8-0.7
			l1-3.5c0.1-0.2,0-0.5-0.2-0.6l-3.2-2.8c-0.4-0.3-0.2-1,0.3-1l4.1-0.3C136.5,653.1,136.7,652.9,136.7,652.7z"/>
		<path fill="#E30613" d="M164.5,629.2l-2-4.8c-0.2-0.5-0.9-0.5-1.1,0l-1.5,4.7c-0.1,0.2-0.3,0.4-0.6,0.4h-4.5
			c-0.6,0-0.8,0.7-0.4,1.1l4,3c0.2,0.2,0.3,0.4,0.2,0.7l-1.8,4.6c-0.2,0.5,0.4,1,0.9,0.7l4.2-2.8c0.2-0.1,0.4-0.1,0.6,0l3.5,1.7
			c0.5,0.2,1-0.2,0.8-0.7l-1-3.5c-0.1-0.2,0-0.5,0.2-0.6l3.2-2.8c0.4-0.3,0.2-1-0.3-1l-4.1-0.3C164.8,629.6,164.6,629.4,164.5,629.2
			z"/>
		<path fill="#E30613" d="M133.4,683l-2-4.8c-0.2-0.5-0.9-0.5-1.1,0l-1.5,4.7c-0.1,0.2-0.3,0.4-0.6,0.4h-4.5c-0.6,0-0.8,0.7-0.4,1.1
			l4,3c0.2,0.2,0.3,0.4,0.2,0.7l-1.8,4.6c-0.2,0.5,0.4,1,0.9,0.7l4.2-2.8c0.2-0.1,0.4-0.1,0.6,0l3.5,1.7c0.5,0.2,1-0.2,0.8-0.7
			l-1-3.5c-0.1-0.2,0-0.5,0.2-0.6l3.2-2.8c0.4-0.3,0.2-1-0.3-1l-4.1-0.3C133.7,683.3,133.5,683.2,133.4,683z"/>
	</g>
	<g>
		<path fill="#FFFFFF" stroke="#27348B" stroke-width="6" stroke-miterlimit="10" d="M1014,340.7H734.2c-6.3,0-11.3-5.1-11.3-11.3
			V188.8c0-6.3,5.1-11.3,11.3-11.3H1014c6.3,0,11.3,5.1,11.3,11.3v140.5C1025.3,335.6,1020.3,340.7,1014,340.7z"/>
		<path fill="none" stroke="#F9B233" stroke-width="5" stroke-miterlimit="10" d="M875.3,328.6v-85.4c0-0.2,0.1-0.4,0.1-0.6
			c1.2-2.2,10.3-17.5,29.2-26c0.3-0.1,0.7-0.1,1,0c3.1,1.4,19.9,9.8,29.2,26.7c0.1,0.2,0.1,0.4,0.1,0.6v85.4c0,0.7-0.5,1.2-1.2,1.2
			l-57.4-0.6C875.9,329.7,875.3,329.2,875.3,328.6z"/>
		<path fill="none" stroke="#F9B233" stroke-width="4" stroke-linecap="round" stroke-miterlimit="10" d="M879.3,257.7
			c0,0,10.9-24.3,25.6-29.3c0.2-0.1,0.5-0.1,0.7,0c2.1,0.6,13,4.8,25.3,29.4"/>
		<path fill="none" stroke="#F9B233" stroke-width="5" stroke-linecap="round" stroke-miterlimit="10" d="M915.9,222.5v-10.9
			c0-0.2,0-0.3,0.1-0.5c0.8-1.9,7-15.3,24-21.9c0.3-0.1,0.6-0.1,0.9,0c2.8,1.3,17.2,8.4,22.6,21.3c0.1,0.1,0.1,0.3,0.1,0.5v118.1
			c0,0.7-0.5,1.2-1.2,1.2h-27.2"/>
		<path fill="#F9B233" d="M818.4,190.8l0.6,8c0.1,0.9,1.1,1.4,1.8,0.9c3.4-2.2,11.2-6.2,14.1,1.2c3.4,8.8-14.2,24.4-17.1,26.9
			c-0.3,0.2-0.4,0.6-0.4,0.9v7.2c0,0.7,0.5,1.2,1.2,1.2h29.5c0.7,0,1.2-0.5,1.2-1.2v-7.1c0-0.7-0.5-1.2-1.2-1.2l-14-0.1
			c-1.1,0-1.6-1.3-0.8-2c5-4.7,16.4-16.9,13.8-28.1c-3.2-13.7-19.7-10.9-27.9-7.8C818.7,189.8,818.4,190.3,818.4,190.8z"/>
		<path fill="#F9B233" d="M885.1,213.4c-0.6-28.2-14-26.3-16.5-26.3c-4.2,0-15-0.6-16.1,25.3s16.1,25,16.1,25
			S885.6,239.4,885.1,213.4z M873.5,212.2c0,17-3.8,17.1-4.5,17.1s-5.9,0.6-5.4-16.8c0.5-18,5.3-17.1,5.3-17.1
			S873.8,194.7,873.5,212.2z"/>
		<path fill="#F9B233" d="M751.6,302.9l0.3,3.7c0.1,0.9,1,1.4,1.8,0.9c2.3-1.3,6.3-3,7.9,1.1c2,5.2-8,14.2-10.2,16.1
			c-0.3,0.2-0.4,0.6-0.4,0.9v3.7c0,0.7,0.5,1.2,1.2,1.2h16.9c0.7,0,1.2-0.5,1.2-1.2V326c0-0.7-0.5-1.2-1.2-1.2l-6.9-0.1
			c-1,0-1.6-1.3-0.8-2c3.3-3.3,9-10,7.5-16.2c-1.9-8.1-11.5-6.7-16.5-4.9C751.9,301.9,751.6,302.4,751.6,302.9z"/>
		<path fill="#F9B233" d="M791.9,316.2c-0.4-17.1-8.5-15.9-10-15.9c-2.5,0-9-0.4-9.7,15.3s9.7,15.1,9.7,15.1
			S792.2,331.9,791.9,316.2z M784.9,315.4c0,10.3-2.3,10.3-2.7,10.3s-3.6,0.4-3.3-10.2c0.3-10.9,3.2-10.4,3.2-10.4
			S785.1,304.9,784.9,315.4z"/>
		<path fill="#F9B233" d="M977.6,297.3L977.6,297.3c0.1,0.7,0.8,1.2,1.4,0.9c0.8-0.3,1.8-0.4,2.2,0.8c0.7,1.8-2.5,4.8-3.6,5.8
			c-0.2,0.2-0.4,0.5-0.4,0.8v0.5c0,0.6,0.5,1.1,1.1,1.1h5.1c0.6,0,1.1-0.5,1.1-1.1l0,0c0-0.6-0.5-1-1-1.1h-0.6c-0.9,0-1.4-1-0.8-1.7
			c1.1-1.3,2.3-3.3,1.9-5.1c-0.6-2.8-3.7-2.5-5.6-2C977.9,296.3,977.6,296.8,977.6,297.3z"/>
		<path fill="#F9B233" d="M988.8,295.8c-0.9,0-3.4-0.1-3.6,5.7s3.6,5.6,3.6,5.6s3.8,0.4,3.7-5.4
			C992.4,295.4,989.4,295.8,988.8,295.8z M988.9,305.3c-0.1,0-1.3,0.1-1.2-3.8c0.1-4,1.2-3.8,1.2-3.8s1.1-0.1,1,3.8
			C989.9,305.3,989.1,305.3,988.9,305.3z"/>
		<path fill="#E30613" d="M881.8,194.2l2-4.8c0.2-0.5,0.9-0.5,1.1,0l1.5,4.7c0.1,0.2,0.3,0.4,0.6,0.4h4.5c0.6,0,0.8,0.7,0.4,1.1
			l-4,3c-0.2,0.2-0.3,0.4-0.2,0.7l1.8,4.6c0.2,0.5-0.4,1-0.9,0.7l-4.2-2.8c-0.2-0.1-0.4-0.1-0.6,0l-3.5,1.7c-0.5,0.2-1-0.2-0.8-0.7
			l1-3.5c0.1-0.2,0-0.5-0.2-0.6l-3.2-2.8c-0.4-0.3-0.2-1,0.3-1l4.1-0.3C881.5,194.6,881.7,194.4,881.8,194.2z"/>
		<path fill="#E30613" d="M826.8,288.4l2-4.8c0.2-0.5,0.9-0.5,1.1,0l1.5,4.7c0.1,0.2,0.3,0.4,0.6,0.4h4.5c0.6,0,0.8,0.7,0.4,1.1
			l-4,3c-0.2,0.2-0.3,0.4-0.2,0.7l1.8,4.6c0.2,0.5-0.4,1-0.9,0.7l-4.2-2.8c-0.2-0.1-0.4-0.1-0.6,0l-3.5,1.7c-0.5,0.2-1-0.2-0.8-0.7
			l1-3.5c0.1-0.2,0-0.5-0.2-0.6l-3.2-2.8c-0.4-0.3-0.2-1,0.3-1l4.1-0.3C826.5,288.8,826.7,288.7,826.8,288.4z"/>
		<path fill="#E30613" d="M826.8,226.6l2-4.8c0.2-0.5,0.9-0.5,1.1,0l1.5,4.7c0.1,0.2,0.3,0.4,0.6,0.4h4.5c0.6,0,0.8,0.7,0.4,1.1
			l-4,3c-0.2,0.2-0.3,0.4-0.2,0.7l1.8,4.6c0.2,0.5-0.4,1-0.9,0.7l-4.2-2.8c-0.2-0.1-0.4-0.1-0.6,0l-3.5,1.7c-0.5,0.2-1-0.2-0.8-0.7
			l1-3.5c0.1-0.2,0-0.5-0.2-0.6l-3.2-2.8c-0.4-0.3-0.2-1,0.3-1l4.1-0.3C826.5,227,826.7,226.8,826.8,226.6z"/>
		<path fill="#E30613" d="M854.6,203.1l-2-4.8c-0.2-0.5-0.9-0.5-1.1,0L850,203c-0.1,0.2-0.3,0.4-0.6,0.4H845c-0.6,0-0.8,0.7-0.4,1.1
			l4,3c0.2,0.2,0.3,0.4,0.2,0.7l-1.8,4.6c-0.2,0.5,0.4,1,0.9,0.7l4.2-2.8c0.2-0.1,0.4-0.1,0.6,0l3.5,1.7c0.5,0.2,1-0.2,0.8-0.7
			l-1-3.5c-0.1-0.2,0-0.5,0.2-0.6l3.2-2.8c0.4-0.3,0.2-1-0.3-1l-4.1-0.3C854.8,203.5,854.6,203.3,854.6,203.1z"/>
		<path fill="#E30613" d="M823.5,256.9l-2-4.8c-0.2-0.5-0.9-0.5-1.1,0l-1.5,4.7c-0.1,0.2-0.3,0.4-0.6,0.4h-4.5
			c-0.6,0-0.8,0.7-0.4,1.1l4,3c0.2,0.2,0.3,0.4,0.2,0.7l-1.8,4.6c-0.2,0.5,0.4,1,0.9,0.7l4.2-2.8c0.2-0.1,0.4-0.1,0.6,0l3.5,1.7
			c0.5,0.2,1-0.2,0.8-0.7l-1-3.5c-0.1-0.2,0-0.5,0.2-0.6l3.2-2.8c0.4-0.3,0.2-1-0.3-1l-4.1-0.3C823.8,257.2,823.6,257.1,823.5,256.9
			z"/>
	</g>
	<g>
		<path fill="#FFFFFF" stroke="#27348B" stroke-width="6" stroke-miterlimit="10" d="M1014,447.2H734.2c-6.3,0-11.3-5.1-11.3-11.3
			V295.3c0-6.3,5.1-11.3,11.3-11.3H1014c6.3,0,11.3,5.1,11.3,11.3v140.5C1025.3,442.1,1020.3,447.2,1014,447.2z"/>
		<path fill="none" stroke="#F9B233" stroke-width="5" stroke-miterlimit="10" d="M875.3,435.1v-85.4c0-0.2,0.1-0.4,0.1-0.6
			c1.2-2.2,10.3-17.5,29.2-26c0.3-0.1,0.7-0.1,1,0c3.1,1.4,19.9,9.8,29.2,26.7c0.1,0.2,0.1,0.4,0.1,0.6v85.4c0,0.7-0.5,1.2-1.2,1.2
			l-57.4-0.6C875.9,436.3,875.3,435.7,875.3,435.1z"/>
		<path fill="none" stroke="#F9B233" stroke-width="4" stroke-linecap="round" stroke-miterlimit="10" d="M879.3,364.2
			c0,0,10.9-24.3,25.6-29.3c0.2-0.1,0.5-0.1,0.7,0c2.1,0.6,13,4.8,25.3,29.4"/>
		<path fill="none" stroke="#F9B233" stroke-width="5" stroke-linecap="round" stroke-miterlimit="10" d="M915.9,329v-10.9
			c0-0.2,0-0.3,0.1-0.5c0.8-1.9,7-15.3,24-21.9c0.3-0.1,0.6-0.1,0.9,0c2.8,1.3,17.2,8.4,22.6,21.3c0.1,0.1,0.1,0.3,0.1,0.5v118.1
			c0,0.7-0.5,1.2-1.2,1.2h-27.2"/>
		<path fill="#F9B233" d="M818.4,297.4l0.6,8c0.1,0.9,1.1,1.4,1.8,0.9c3.4-2.2,11.2-6.2,14.1,1.2c3.4,8.8-14.2,24.4-17.1,26.9
			c-0.3,0.2-0.4,0.6-0.4,0.9v7.2c0,0.7,0.5,1.2,1.2,1.2h29.5c0.7,0,1.2-0.5,1.2-1.2v-7.1c0-0.7-0.5-1.2-1.2-1.2l-14-0.1
			c-1.1,0-1.6-1.3-0.8-2c5-4.7,16.4-16.9,13.8-28.1c-3.2-13.7-19.7-10.9-27.9-7.8C818.7,296.4,818.4,296.9,818.4,297.4z"/>
		<path fill="#F9B233" d="M885.1,319.9c-0.6-28.2-14-26.3-16.5-26.3c-4.2,0-15-0.6-16.1,25.3s16.1,25,16.1,25
			S885.6,345.9,885.1,319.9z M873.5,318.7c0,17-3.8,17.1-4.5,17.1s-5.9,0.6-5.4-16.8c0.5-18,5.3-17.1,5.3-17.1
			S873.8,301.2,873.5,318.7z"/>
		<path fill="#F9B233" d="M751.6,409.4l0.3,3.7c0.1,0.9,1,1.4,1.8,0.9c2.3-1.3,6.3-3,7.9,1.1c2,5.2-8,14.2-10.2,16.1
			c-0.3,0.2-0.4,0.6-0.4,0.9v3.7c0,0.7,0.5,1.2,1.2,1.2h16.9c0.7,0,1.2-0.5,1.2-1.2v-3.4c0-0.7-0.5-1.2-1.2-1.2l-6.9-0.1
			c-1,0-1.6-1.3-0.8-2c3.3-3.3,9-10,7.5-16.2c-1.9-8.1-11.5-6.7-16.5-4.9C751.9,408.4,751.6,408.9,751.6,409.4z"/>
		<path fill="#F9B233" d="M791.9,422.7c-0.4-17.1-8.5-15.9-10-15.9c-2.5,0-9-0.4-9.7,15.3s9.7,15.1,9.7,15.1
			S792.2,438.4,791.9,422.7z M784.9,422c0,10.3-2.3,10.3-2.7,10.3s-3.6,0.4-3.3-10.2c0.3-10.9,3.2-10.4,3.2-10.4
			S785.1,411.4,784.9,422z"/>
		<path fill="#F9B233" d="M977.6,403.8L977.6,403.8c0.1,0.7,0.8,1.2,1.4,0.9c0.8-0.3,1.8-0.4,2.2,0.8c0.7,1.8-2.5,4.8-3.6,5.8
			c-0.2,0.2-0.4,0.5-0.4,0.8v0.5c0,0.6,0.5,1.1,1.1,1.1h5.1c0.6,0,1.1-0.5,1.1-1.1l0,0c0-0.6-0.5-1-1-1.1h-0.6c-0.9,0-1.4-1-0.8-1.7
			c1.1-1.3,2.3-3.3,1.9-5.1c-0.6-2.8-3.7-2.5-5.6-2C977.9,402.8,977.6,403.3,977.6,403.8z"/>
		<path fill="#F9B233" d="M988.8,402.3c-0.9,0-3.4-0.1-3.6,5.7s3.6,5.6,3.6,5.6s3.8,0.4,3.7-5.4
			C992.4,401.9,989.4,402.3,988.8,402.3z M988.9,411.8c-0.1,0-1.3,0.1-1.2-3.8c0.1-4,1.2-3.8,1.2-3.8s1.1-0.1,1,3.8
			C989.9,411.8,989.1,411.8,988.9,411.8z"/>
		<path fill="#E30613" d="M881.8,300.8l2-4.8c0.2-0.5,0.9-0.5,1.1,0l1.5,4.7c0.1,0.2,0.3,0.4,0.6,0.4h4.5c0.6,0,0.8,0.7,0.4,1.1
			l-4,3c-0.2,0.2-0.3,0.4-0.2,0.7l1.8,4.6c0.2,0.5-0.4,1-0.9,0.7l-4.2-2.8c-0.2-0.1-0.4-0.1-0.6,0l-3.5,1.7c-0.5,0.2-1-0.2-0.8-0.7
			l1-3.5c0.1-0.2,0-0.5-0.2-0.6l-3.2-2.8c-0.4-0.3-0.2-1,0.3-1l4.1-0.3C881.5,301.1,881.7,301,881.8,300.8z"/>
		<path fill="#E30613" d="M826.8,395l2-4.8c0.2-0.5,0.9-0.5,1.1,0l1.5,4.7c0.1,0.2,0.3,0.4,0.6,0.4h4.5c0.6,0,0.8,0.7,0.4,1.1l-4,3
			c-0.2,0.2-0.3,0.4-0.2,0.7l1.8,4.6c0.2,0.5-0.4,1-0.9,0.7l-4.2-2.8c-0.2-0.1-0.4-0.1-0.6,0l-3.5,1.7c-0.5,0.2-1-0.2-0.8-0.7l1-3.5
			c0.1-0.2,0-0.5-0.2-0.6l-3.2-2.8c-0.4-0.3-0.2-1,0.3-1l4.1-0.3C826.5,395.3,826.7,395.2,826.8,395z"/>
		<path fill="#E30613" d="M826.8,333.1l2-4.8c0.2-0.5,0.9-0.5,1.1,0l1.5,4.7c0.1,0.2,0.3,0.4,0.6,0.4h4.5c0.6,0,0.8,0.7,0.4,1.1
			l-4,3c-0.2,0.2-0.3,0.4-0.2,0.7l1.8,4.6c0.2,0.5-0.4,1-0.9,0.7l-4.2-2.8c-0.2-0.1-0.4-0.1-0.6,0l-3.5,1.7c-0.5,0.2-1-0.2-0.8-0.7
			l1-3.5c0.1-0.2,0-0.5-0.2-0.6l-3.2-2.8c-0.4-0.3-0.2-1,0.3-1l4.1-0.3C826.5,333.5,826.7,333.3,826.8,333.1z"/>
		<path fill="#E30613" d="M854.6,309.6l-2-4.8c-0.2-0.5-0.9-0.5-1.1,0l-1.5,4.7c-0.1,0.2-0.3,0.4-0.6,0.4H845
			c-0.6,0-0.8,0.7-0.4,1.1l4,3c0.2,0.2,0.3,0.4,0.2,0.7l-1.8,4.6c-0.2,0.5,0.4,1,0.9,0.7l4.2-2.8c0.2-0.1,0.4-0.1,0.6,0l3.5,1.7
			c0.5,0.2,1-0.2,0.8-0.7l-1-3.5c-0.1-0.2,0-0.5,0.2-0.6l3.2-2.8c0.4-0.3,0.2-1-0.3-1L855,310C854.8,310,854.6,309.8,854.6,309.6z"
			/>
		<path fill="#E30613" d="M823.5,363.4l-2-4.8c-0.2-0.5-0.9-0.5-1.1,0l-1.5,4.7c-0.1,0.2-0.3,0.4-0.6,0.4h-4.5
			c-0.6,0-0.8,0.7-0.4,1.1l4,3c0.2,0.2,0.3,0.4,0.2,0.7l-1.8,4.6c-0.2,0.5,0.4,1,0.9,0.7l4.2-2.8c0.2-0.1,0.4-0.1,0.6,0l3.5,1.7
			c0.5,0.2,1-0.2,0.8-0.7l-1-3.5c-0.1-0.2,0-0.5,0.2-0.6l3.2-2.8c0.4-0.3,0.2-1-0.3-1l-4.1-0.3C823.8,363.8,823.6,363.6,823.5,363.4
			z"/>
	</g>
</g>
<g id="schein1">
	<path id="hintergrund_7_" fill="#27348B" stroke="#FFFFFF" stroke-width="6" stroke-miterlimit="10" d="M1014,553.7H734.2
		c-6.3,0-11.3-5.1-11.3-11.3V401.8c0-6.3,5.1-11.3,11.3-11.3H1014c6.3,0,11.3,5.1,11.3,11.3v140.5
		C1025.3,548.6,1020.3,553.7,1014,553.7z"/>
	<path fill="none" stroke="#F9B233" stroke-width="5" stroke-miterlimit="10" d="M875.3,541.6v-85.4c0-0.2,0.1-0.4,0.1-0.6
		c1.2-2.2,10.3-17.5,29.2-26c0.3-0.1,0.7-0.1,1,0c3.1,1.4,19.9,9.8,29.2,26.7c0.1,0.2,0.1,0.4,0.1,0.6v85.4c0,0.7-0.5,1.2-1.2,1.2
		l-57.4-0.6C875.9,542.8,875.3,542.3,875.3,541.6z"/>
	<path fill="none" stroke="#F9B233" stroke-width="4" stroke-linecap="round" stroke-miterlimit="10" d="M879.3,470.7
		c0,0,10.9-24.3,25.6-29.3c0.2-0.1,0.5-0.1,0.7,0c2.1,0.6,13,4.8,25.3,29.4"/>
	<path fill="none" stroke="#F9B233" stroke-width="5" stroke-linecap="round" stroke-miterlimit="10" d="M915.9,435.6v-10.9
		c0-0.2,0-0.3,0.1-0.5c0.8-1.9,7-15.3,24-21.9c0.3-0.1,0.6-0.1,0.9,0c2.8,1.3,17.2,8.4,22.6,21.3c0.1,0.1,0.1,0.3,0.1,0.5v118.1
		c0,0.7-0.5,1.2-1.2,1.2h-27.2"/>
	<path fill="#F9B233" d="M818.4,403.9l0.6,8c0.1,0.9,1.1,1.4,1.8,0.9c3.4-2.2,11.2-6.2,14.1,1.2c3.4,8.8-14.2,24.4-17.1,26.9
		c-0.3,0.2-0.4,0.6-0.4,0.9v7.2c0,0.7,0.5,1.2,1.2,1.2h29.5c0.7,0,1.2-0.5,1.2-1.2v-7c0-0.7-0.5-1.2-1.2-1.2l-14-0.1
		c-1.1,0-1.6-1.3-0.8-2c5-4.7,16.4-16.9,13.8-28.1c-3.2-13.7-19.7-10.9-27.9-7.8C818.7,402.9,818.4,403.4,818.4,403.9z"/>
	<path fill="#F9B233" d="M885.1,426.4c-0.6-28.2-14-26.3-16.5-26.3c-4.2,0-15-0.6-16.1,25.3s16.1,25,16.1,25
		S885.6,452.5,885.1,426.4z M873.5,425.2c0,17-3.8,17.1-4.5,17.1s-5.9,0.6-5.4-16.8c0.5-18,5.3-17.1,5.3-17.1
		S873.8,407.8,873.5,425.2z"/>
	<path fill="#F9B233" d="M751.6,516l0.3,3.7c0.1,0.9,1,1.4,1.8,0.9c2.3-1.3,6.3-3,7.9,1.1c2,5.2-8,14.2-10.2,16.1
		c-0.3,0.2-0.4,0.6-0.4,0.9v3.7c0,0.7,0.5,1.2,1.2,1.2h16.9c0.7,0,1.2-0.5,1.2-1.2V539c0-0.7-0.5-1.2-1.2-1.2l-6.9-0.1
		c-1,0-1.6-1.3-0.8-2c3.3-3.3,9-10,7.5-16.2c-1.9-8.1-11.5-6.7-16.5-4.9C751.9,514.9,751.6,515.4,751.6,516z"/>
	<path fill="#F9B233" d="M791.9,529.2c-0.4-17.1-8.5-15.9-10-15.9c-2.5,0-9-0.4-9.7,15.3s9.7,15.1,9.7,15.1S792.2,545,791.9,529.2z
		 M784.9,528.5c0,10.3-2.3,10.3-2.7,10.3s-3.6,0.4-3.3-10.2c0.3-10.9,3.2-10.4,3.2-10.4S785.1,517.9,784.9,528.5z"/>
	<path fill="#F9B233" d="M977.6,510.3L977.6,510.3c0.1,0.7,0.8,1.2,1.4,0.9c0.8-0.3,1.8-0.4,2.2,0.8c0.7,1.8-2.5,4.8-3.6,5.8
		c-0.2,0.2-0.4,0.5-0.4,0.8v0.5c0,0.6,0.5,1.1,1.1,1.1h5.1c0.6,0,1.1-0.5,1.1-1.1l0,0c0-0.6-0.5-1-1-1.1h-0.6c-0.9,0-1.4-1-0.8-1.7
		c1.1-1.3,2.3-3.3,1.9-5.1c-0.6-2.8-3.7-2.5-5.6-2C977.9,509.4,977.6,509.8,977.6,510.3z"/>
	<path fill="#F9B233" d="M988.8,508.9c-0.9,0-3.4-0.1-3.6,5.7c-0.3,5.8,3.6,5.6,3.6,5.6s3.8,0.4,3.7-5.4
		C992.4,508.4,989.4,508.9,988.8,508.9z M988.9,518.3c-0.1,0-1.3,0.1-1.2-3.8c0.1-4,1.2-3.8,1.2-3.8s1.1-0.1,1,3.8
		C989.9,518.3,989.1,518.3,988.9,518.3z"/>
	<path fill="#E30613" d="M881.8,407.3l2-4.8c0.2-0.5,0.9-0.5,1.1,0l1.5,4.7c0.1,0.2,0.3,0.4,0.6,0.4h4.5c0.6,0,0.8,0.7,0.4,1.1l-4,3
		c-0.2,0.2-0.3,0.4-0.2,0.7l1.8,4.6c0.2,0.5-0.4,1-0.9,0.7l-4.2-2.8c-0.2-0.1-0.4-0.1-0.6,0l-3.5,1.7c-0.5,0.2-1-0.2-0.8-0.7l1-3.5
		c0.1-0.2,0-0.5-0.2-0.6l-3.2-2.8c-0.4-0.3-0.2-1,0.3-1l4.1-0.3C881.5,407.6,881.7,407.5,881.8,407.3z"/>
	<path fill="#E30613" d="M826.8,501.5l2-4.8c0.2-0.5,0.9-0.5,1.1,0l1.5,4.7c0.1,0.2,0.3,0.4,0.6,0.4h4.5c0.6,0,0.8,0.7,0.4,1.1l-4,3
		c-0.2,0.2-0.3,0.4-0.2,0.7l1.8,4.6c0.2,0.5-0.4,1-0.9,0.7l-4.2-2.8c-0.2-0.1-0.4-0.1-0.6,0l-3.5,1.7c-0.5,0.2-1-0.2-0.8-0.7l1-3.5
		c0.1-0.2,0-0.5-0.2-0.6l-3.2-2.8c-0.4-0.3-0.2-1,0.3-1l4.1-0.3C826.5,501.9,826.7,501.7,826.8,501.5z"/>
	<path fill="#E30613" d="M826.8,439.7l2-4.8c0.2-0.5,0.9-0.5,1.1,0l1.5,4.7c0.1,0.2,0.3,0.4,0.6,0.4h4.5c0.6,0,0.8,0.7,0.4,1.1l-4,3
		c-0.2,0.2-0.3,0.4-0.2,0.7l1.8,4.6c0.2,0.5-0.4,1-0.9,0.7l-4.2-2.8c-0.2-0.1-0.4-0.1-0.6,0l-3.5,1.7c-0.5,0.2-1-0.2-0.8-0.7l1-3.5
		c0.1-0.2,0-0.5-0.2-0.6l-3.2-2.8c-0.4-0.3-0.2-1,0.3-1l4.1-0.3C826.5,440,826.7,439.9,826.8,439.7z"/>
	<path fill="#E30613" d="M854.6,416.2l-2-4.8c-0.2-0.5-0.9-0.5-1.1,0l-1.5,4.7c-0.1,0.2-0.3,0.4-0.6,0.4H845c-0.6,0-0.8,0.7-0.4,1.1
		l4,3c0.2,0.2,0.3,0.4,0.2,0.7l-1.8,4.6c-0.2,0.5,0.4,1,0.9,0.7l4.2-2.8c0.2-0.1,0.4-0.1,0.6,0l3.5,1.7c0.5,0.2,1-0.2,0.8-0.7
		l-1-3.5c-0.1-0.2,0-0.5,0.2-0.6l3.2-2.8c0.4-0.3,0.2-1-0.3-1l-4.1-0.3C854.8,416.5,854.6,416.4,854.6,416.2z"/>
	<path fill="#E30613" d="M823.5,469.9l-2-4.8c-0.2-0.5-0.9-0.5-1.1,0l-1.5,4.7c-0.1,0.2-0.3,0.4-0.6,0.4h-4.5
		c-0.6,0-0.8,0.7-0.4,1.1l4,3c0.2,0.2,0.3,0.4,0.2,0.7l-1.8,4.6c-0.2,0.5,0.4,1,0.9,0.7l4.2-2.8c0.2-0.1,0.4-0.1,0.6,0l3.5,1.7
		c0.5,0.2,1-0.2,0.8-0.7l-1-3.5c-0.1-0.2,0-0.5,0.2-0.6l3.2-2.8c0.4-0.3,0.2-1-0.3-1l-4.1-0.3C823.8,470.3,823.6,470.2,823.5,469.9z
		"/>
</g>
<g id="schein2">
	<path id="hintergrund_6_" fill="#27348B" stroke="#FFFFFF" stroke-width="6" stroke-miterlimit="10" d="M1014,660.2H734.2
		c-6.3,0-11.3-5.1-11.3-11.3V508.4c0-6.3,5.1-11.3,11.3-11.3H1014c6.3,0,11.3,5.1,11.3,11.3v140.5
		C1025.3,655.2,1020.3,660.2,1014,660.2z"/>
	<path fill="none" stroke="#F9B233" stroke-width="5" stroke-miterlimit="10" d="M875.3,648.2v-85.4c0-0.2,0.1-0.4,0.1-0.6
		c1.2-2.2,10.3-17.5,29.2-26c0.3-0.1,0.7-0.1,1,0c3.1,1.4,19.9,9.8,29.2,26.7c0.1,0.2,0.1,0.4,0.1,0.6v85.4c0,0.7-0.5,1.2-1.2,1.2
		l-57.4-0.6C875.9,649.3,875.3,648.8,875.3,648.2z"/>
	<path fill="none" stroke="#F9B233" stroke-width="4" stroke-linecap="round" stroke-miterlimit="10" d="M879.3,577.2
		c0,0,10.9-24.3,25.6-29.3c0.2-0.1,0.5-0.1,0.7,0c2.1,0.6,13,4.8,25.3,29.4"/>
	<path fill="none" stroke="#F9B233" stroke-width="5" stroke-linecap="round" stroke-miterlimit="10" d="M915.9,542.1v-10.9
		c0-0.2,0-0.3,0.1-0.5c0.8-1.9,7-15.3,24-21.9c0.3-0.1,0.6-0.1,0.9,0c2.8,1.3,17.2,8.4,22.6,21.3c0.1,0.1,0.1,0.3,0.1,0.5v118.1
		c0,0.7-0.5,1.2-1.2,1.2h-27.2"/>
	<path fill="#F9B233" d="M818.4,510.4l0.6,8c0.1,0.9,1.1,1.4,1.8,0.9c3.4-2.2,11.2-6.2,14.1,1.2c3.4,8.8-14.2,24.4-17.1,26.9
		c-0.3,0.2-0.4,0.6-0.4,0.9v7.2c0,0.7,0.5,1.2,1.2,1.2h29.5c0.7,0,1.2-0.5,1.2-1.2v-7.1c0-0.7-0.5-1.2-1.2-1.2l-14-0.1
		c-1.1,0-1.6-1.3-0.8-2c5-4.7,16.4-16.9,13.8-28.1c-3.2-13.7-19.7-10.9-27.9-7.8C818.7,509.4,818.4,509.9,818.4,510.4z"/>
	<path fill="#F9B233" d="M885.1,533c-0.6-28.2-14-26.3-16.5-26.3c-4.2,0-15-0.6-16.1,25.3c-1.1,25.9,16.1,25,16.1,25
		S885.6,559,885.1,533z M873.5,531.7c0,17-3.8,17.1-4.5,17.1s-5.9,0.6-5.4-16.8c0.5-18,5.3-17.1,5.3-17.1S873.8,514.3,873.5,531.7z"
		/>
	<path fill="#F9B233" d="M751.6,622.5l0.3,3.7c0.1,0.9,1,1.4,1.8,0.9c2.3-1.3,6.3-3,7.9,1.1c2,5.2-8,14.2-10.2,16.1
		c-0.3,0.2-0.4,0.6-0.4,0.9v3.7c0,0.7,0.5,1.2,1.2,1.2h16.9c0.7,0,1.2-0.5,1.2-1.2v-3.4c0-0.7-0.5-1.2-1.2-1.2l-6.9-0.1
		c-1,0-1.6-1.3-0.8-2c3.3-3.3,9-10,7.5-16.2c-1.9-8.1-11.5-6.7-16.5-4.9C751.9,621.5,751.6,622,751.6,622.5z"/>
	<path fill="#F9B233" d="M791.9,635.8c-0.4-17.1-8.5-15.9-10-15.9c-2.5,0-9-0.4-9.7,15.3s9.7,15.1,9.7,15.1S792.2,651.5,791.9,635.8
		z M784.9,635c0,10.3-2.3,10.3-2.7,10.3s-3.6,0.4-3.3-10.2c0.3-10.9,3.2-10.4,3.2-10.4S785.1,624.5,784.9,635z"/>
	<path fill="#F9B233" d="M977.6,616.9L977.6,616.9c0.1,0.7,0.8,1.2,1.4,0.9c0.8-0.3,1.8-0.4,2.2,0.8c0.7,1.8-2.5,4.8-3.6,5.8
		c-0.2,0.2-0.4,0.5-0.4,0.8v0.5c0,0.6,0.5,1.1,1.1,1.1h5.1c0.6,0,1.1-0.5,1.1-1.1l0,0c0-0.6-0.5-1-1-1.1h-0.6c-0.9,0-1.4-1-0.8-1.7
		c1.1-1.3,2.3-3.3,1.9-5.1c-0.6-2.8-3.7-2.5-5.6-2C977.9,615.9,977.6,616.4,977.6,616.9z"/>
	<path fill="#F9B233" d="M988.8,615.4c-0.9,0-3.4-0.1-3.6,5.7s3.6,5.6,3.6,5.6s3.8,0.4,3.7-5.4C992.4,615,989.4,615.4,988.8,615.4z
		 M988.9,624.9c-0.1,0-1.3,0.1-1.2-3.8c0.1-4,1.2-3.8,1.2-3.8s1.1-0.1,1,3.8C989.9,624.8,989.1,624.9,988.9,624.9z"/>
	<path fill="#E30613" d="M881.8,513.8l2-4.8c0.2-0.5,0.9-0.5,1.1,0l1.5,4.7c0.1,0.2,0.3,0.4,0.6,0.4h4.5c0.6,0,0.8,0.7,0.4,1.1l-4,3
		c-0.2,0.2-0.3,0.4-0.2,0.7l1.8,4.6c0.2,0.5-0.4,1-0.9,0.7l-4.2-2.8c-0.2-0.1-0.4-0.1-0.6,0l-3.5,1.7c-0.5,0.2-1-0.2-0.8-0.7l1-3.5
		c0.1-0.2,0-0.5-0.2-0.6l-3.2-2.8c-0.4-0.3-0.2-1,0.3-1l4.1-0.3C881.5,514.2,881.7,514,881.8,513.8z"/>
	<path fill="#E30613" d="M826.8,608l2-4.8c0.2-0.5,0.9-0.5,1.1,0l1.5,4.7c0.1,0.2,0.3,0.4,0.6,0.4h4.5c0.6,0,0.8,0.7,0.4,1.1l-4,3
		c-0.2,0.2-0.3,0.4-0.2,0.7l1.8,4.6c0.2,0.5-0.4,1-0.9,0.7l-4.2-2.8c-0.2-0.1-0.4-0.1-0.6,0l-3.5,1.7c-0.5,0.2-1-0.2-0.8-0.7l1-3.5
		c0.1-0.2,0-0.5-0.2-0.6l-3.2-2.8c-0.4-0.3-0.2-1,0.3-1l4.1-0.3C826.5,608.4,826.7,608.2,826.8,608z"/>
	<path fill="#E30613" d="M826.8,546.2l2-4.8c0.2-0.5,0.9-0.5,1.1,0l1.5,4.7c0.1,0.2,0.3,0.4,0.6,0.4h4.5c0.6,0,0.8,0.7,0.4,1.1l-4,3
		c-0.2,0.2-0.3,0.4-0.2,0.7l1.8,4.6c0.2,0.5-0.4,1-0.9,0.7l-4.2-2.8c-0.2-0.1-0.4-0.1-0.6,0l-3.5,1.7c-0.5,0.2-1-0.2-0.8-0.7l1-3.5
		c0.1-0.2,0-0.5-0.2-0.6l-3.2-2.8c-0.4-0.3-0.2-1,0.3-1l4.1-0.3C826.5,546.5,826.7,546.4,826.8,546.2z"/>
	<path fill="#E30613" d="M854.6,522.7l-2-4.8c-0.2-0.5-0.9-0.5-1.1,0l-1.5,4.7c-0.1,0.2-0.3,0.4-0.6,0.4H845c-0.6,0-0.8,0.7-0.4,1.1
		l4,3c0.2,0.2,0.3,0.4,0.2,0.7l-1.8,4.6c-0.2,0.5,0.4,1,0.9,0.7l4.2-2.8c0.2-0.1,0.4-0.1,0.6,0l3.5,1.7c0.5,0.2,1-0.2,0.8-0.7
		l-1-3.5c-0.1-0.2,0-0.5,0.2-0.6l3.2-2.8c0.4-0.3,0.2-1-0.3-1l-4.1-0.3C854.8,523,854.6,522.9,854.6,522.7z"/>
	<path fill="#E30613" d="M823.5,576.5l-2-4.8c-0.2-0.5-0.9-0.5-1.1,0l-1.5,4.7c-0.1,0.2-0.3,0.4-0.6,0.4h-4.5
		c-0.6,0-0.8,0.7-0.4,1.1l4,3c0.2,0.2,0.3,0.4,0.2,0.7l-1.8,4.6c-0.2,0.5,0.4,1,0.9,0.7l4.2-2.8c0.2-0.1,0.4-0.1,0.6,0l3.5,1.7
		c0.5,0.2,1-0.2,0.8-0.7l-1-3.5c-0.1-0.2,0-0.5,0.2-0.6l3.2-2.8c0.4-0.3,0.2-1-0.3-1l-4.1-0.3C823.8,576.8,823.6,576.7,823.5,576.5z
		"/>
</g>
<g id="schein3">
	<path id="hintergrund_5_" fill="#27348B" stroke="#FFFFFF" stroke-width="6" stroke-miterlimit="10" d="M1014,766.8H734.2
		c-6.3,0-11.3-5.1-11.3-11.3V614.9c0-6.3,5.1-11.3,11.3-11.3H1014c6.3,0,11.3,5.1,11.3,11.3v140.5
		C1025.3,761.7,1020.3,766.8,1014,766.8z"/>
	<path fill="none" stroke="#F9B233" stroke-width="5" stroke-miterlimit="10" d="M875.3,754.7v-85.4c0-0.2,0.1-0.4,0.1-0.6
		c1.2-2.2,10.3-17.5,29.2-26c0.3-0.1,0.7-0.1,1,0c3.1,1.4,19.9,9.8,29.2,26.7c0.1,0.2,0.1,0.4,0.1,0.6v85.4c0,0.7-0.5,1.2-1.2,1.2
		l-57.4-0.6C875.9,755.9,875.3,755.3,875.3,754.7z"/>
	<path fill="none" stroke="#F9B233" stroke-width="4" stroke-linecap="round" stroke-miterlimit="10" d="M879.3,683.8
		c0,0,10.9-24.3,25.6-29.3c0.2-0.1,0.5-0.1,0.7,0c2.1,0.6,13,4.8,25.3,29.4"/>
	<path fill="none" stroke="#F9B233" stroke-width="5" stroke-linecap="round" stroke-miterlimit="10" d="M915.9,648.6v-10.9
		c0-0.2,0-0.3,0.1-0.5c0.8-1.9,7-15.3,24-21.9c0.3-0.1,0.6-0.1,0.9,0c2.8,1.3,17.2,8.4,22.6,21.3c0.1,0.1,0.1,0.3,0.1,0.5v118.1
		c0,0.7-0.5,1.2-1.2,1.2h-27.2"/>
	<path fill="#F9B233" d="M818.4,617l0.6,8c0.1,0.9,1.1,1.4,1.8,0.9c3.4-2.2,11.2-6.2,14.1,1.2c3.4,8.8-14.2,24.4-17.1,26.9
		c-0.3,0.2-0.4,0.6-0.4,0.9v7.2c0,0.7,0.5,1.2,1.2,1.2h29.5c0.7,0,1.2-0.5,1.2-1.2V655c0-0.7-0.5-1.2-1.2-1.2l-14-0.1
		c-1.1,0-1.6-1.3-0.8-2c5-4.7,16.4-16.9,13.8-28.1c-3.2-13.7-19.7-10.9-27.9-7.8C818.7,615.9,818.4,616.4,818.4,617z"/>
	<path fill="#F9B233" d="M885.1,639.5c-0.6-28.2-14-26.3-16.5-26.3c-4.2,0-15-0.6-16.1,25.3c-1.1,25.9,16.1,25,16.1,25
		S885.6,665.5,885.1,639.5z M873.5,638.3c0,17-3.8,17.1-4.5,17.1s-5.9,0.6-5.4-16.8c0.5-18,5.3-17.1,5.3-17.1
		S873.8,620.8,873.5,638.3z"/>
	<path fill="#F9B233" d="M751.6,729l0.3,3.7c0.1,0.9,1,1.4,1.8,0.9c2.3-1.3,6.3-3,7.9,1.1c2,5.2-8,14.2-10.2,16.1
		c-0.3,0.2-0.4,0.6-0.4,0.9v3.7c0,0.7,0.5,1.2,1.2,1.2h16.9c0.7,0,1.2-0.5,1.2-1.2V752c0-0.7-0.5-1.2-1.2-1.2l-6.9-0.1
		c-1,0-1.6-1.3-0.8-2c3.3-3.3,9-10,7.5-16.2c-1.9-8.1-11.5-6.7-16.5-4.9C751.9,728,751.6,728.5,751.6,729z"/>
	<path fill="#F9B233" d="M791.9,742.3c-0.4-17.1-8.5-15.9-10-15.9c-2.5,0-9-0.4-9.7,15.3s9.7,15.1,9.7,15.1S792.2,758,791.9,742.3z
		 M784.9,741.6c0,10.3-2.3,10.3-2.7,10.3s-3.6,0.4-3.3-10.2c0.3-10.9,3.2-10.4,3.2-10.4S785.1,731,784.9,741.6z"/>
	<path fill="#F9B233" d="M977.6,723.4L977.6,723.4c0.1,0.7,0.8,1.2,1.4,0.9c0.8-0.3,1.8-0.4,2.2,0.8c0.7,1.8-2.5,4.8-3.6,5.8
		c-0.2,0.2-0.4,0.5-0.4,0.8v0.5c0,0.6,0.5,1.1,1.1,1.1h5.1c0.6,0,1.1-0.5,1.1-1.1l0,0c0-0.6-0.5-1-1-1.1h-0.6c-0.9,0-1.4-1-0.8-1.7
		c1.1-1.3,2.3-3.3,1.9-5.1c-0.6-2.8-3.7-2.5-5.6-2C977.9,722.4,977.6,722.9,977.6,723.4z"/>
	<path fill="#F9B233" d="M988.8,721.9c-0.9,0-3.4-0.1-3.6,5.7s3.6,5.6,3.6,5.6s3.8,0.4,3.7-5.4C992.4,721.5,989.4,721.9,988.8,721.9
		z M988.9,731.4c-0.1,0-1.3,0.1-1.2-3.8c0.1-4,1.2-3.8,1.2-3.8s1.1-0.1,1,3.8C989.9,731.4,989.1,731.4,988.9,731.4z"/>
	<path fill="#E30613" d="M881.8,620.3l2-4.8c0.2-0.5,0.9-0.5,1.1,0l1.5,4.7c0.1,0.2,0.3,0.4,0.6,0.4h4.5c0.6,0,0.8,0.7,0.4,1.1l-4,3
		c-0.2,0.2-0.3,0.4-0.2,0.7l1.8,4.6c0.2,0.5-0.4,1-0.9,0.7l-4.2-2.8c-0.2-0.1-0.4-0.1-0.6,0l-3.5,1.7c-0.5,0.2-1-0.2-0.8-0.7l1-3.5
		c0.1-0.2,0-0.5-0.2-0.6l-3.2-2.8c-0.4-0.3-0.2-1,0.3-1l4.1-0.3C881.5,620.7,881.7,620.6,881.8,620.3z"/>
	<path fill="#E30613" d="M826.8,714.6l2-4.8c0.2-0.5,0.9-0.5,1.1,0l1.5,4.7c0.1,0.2,0.3,0.4,0.6,0.4h4.5c0.6,0,0.8,0.7,0.4,1.1l-4,3
		c-0.2,0.2-0.3,0.4-0.2,0.7l1.8,4.6c0.2,0.5-0.4,1-0.9,0.7l-4.2-2.8c-0.2-0.1-0.4-0.1-0.6,0l-3.5,1.7c-0.5,0.2-1-0.2-0.8-0.7l1-3.5
		c0.1-0.2,0-0.5-0.2-0.6l-3.2-2.8c-0.4-0.3-0.2-1,0.3-1l4.1-0.3C826.5,714.9,826.7,714.8,826.8,714.6z"/>
	<path fill="#E30613" d="M826.8,652.7l2-4.8c0.2-0.5,0.9-0.5,1.1,0l1.5,4.7c0.1,0.2,0.3,0.4,0.6,0.4h4.5c0.6,0,0.8,0.7,0.4,1.1l-4,3
		c-0.2,0.2-0.3,0.4-0.2,0.7l1.8,4.6c0.2,0.5-0.4,1-0.9,0.7l-4.2-2.8c-0.2-0.1-0.4-0.1-0.6,0l-3.5,1.7c-0.5,0.2-1-0.2-0.8-0.7l1-3.5
		c0.1-0.2,0-0.5-0.2-0.6l-3.2-2.8c-0.4-0.3-0.2-1,0.3-1l4.1-0.3C826.5,653.1,826.7,652.9,826.8,652.7z"/>
	<path fill="#E30613" d="M854.6,629.2l-2-4.8c-0.2-0.5-0.9-0.5-1.1,0l-1.5,4.7c-0.1,0.2-0.3,0.4-0.6,0.4H845c-0.6,0-0.8,0.7-0.4,1.1
		l4,3c0.2,0.2,0.3,0.4,0.2,0.7l-1.8,4.6c-0.2,0.5,0.4,1,0.9,0.7l4.2-2.8c0.2-0.1,0.4-0.1,0.6,0l3.5,1.7c0.5,0.2,1-0.2,0.8-0.7
		l-1-3.5c-0.1-0.2,0-0.5,0.2-0.6l3.2-2.8c0.4-0.3,0.2-1-0.3-1l-4.1-0.3C854.8,629.6,854.6,629.4,854.6,629.2z"/>
	<path fill="#E30613" d="M823.5,683l-2-4.8c-0.2-0.5-0.9-0.5-1.1,0l-1.5,4.7c-0.1,0.2-0.3,0.4-0.6,0.4h-4.5c-0.6,0-0.8,0.7-0.4,1.1
		l4,3c0.2,0.2,0.3,0.4,0.2,0.7l-1.8,4.6c-0.2,0.5,0.4,1,0.9,0.7l4.2-2.8c0.2-0.1,0.4-0.1,0.6,0l3.5,1.7c0.5,0.2,1-0.2,0.8-0.7
		l-1-3.5c-0.1-0.2,0-0.5,0.2-0.6l3.2-2.8c0.4-0.3,0.2-1-0.3-1l-4.1-0.3C823.8,683.3,823.6,683.2,823.5,683z"/>
</g>
<g id="schein4">
	<path id="hintergrund_4_" fill="#27348B" stroke="#FFFFFF" stroke-width="6" stroke-miterlimit="10" d="M1359,340.7h-279.8
		c-6.3,0-11.3-5.1-11.3-11.3V188.8c0-6.3,5.1-11.3,11.3-11.3H1359c6.3,0,11.3,5.1,11.3,11.3v140.5
		C1370.4,335.6,1365.3,340.7,1359,340.7z"/>
	<path fill="none" stroke="#F9B233" stroke-width="5" stroke-miterlimit="10" d="M1220.4,328.6v-85.4c0-0.2,0.1-0.4,0.1-0.6
		c1.2-2.2,10.3-17.5,29.2-26c0.3-0.1,0.7-0.1,1,0c3.1,1.4,19.9,9.8,29.2,26.7c0.1,0.2,0.1,0.4,0.1,0.6v85.4c0,0.7-0.5,1.2-1.2,1.2
		l-57.4-0.6C1220.9,329.7,1220.4,329.2,1220.4,328.6z"/>
	<path fill="none" stroke="#F9B233" stroke-width="4" stroke-linecap="round" stroke-miterlimit="10" d="M1224.3,257.7
		c0,0,10.9-24.3,25.6-29.3c0.2-0.1,0.5-0.1,0.7,0c2.1,0.6,13,4.8,25.3,29.4"/>
	<path fill="none" stroke="#F9B233" stroke-width="5" stroke-linecap="round" stroke-miterlimit="10" d="M1260.9,222.5v-10.9
		c0-0.2,0-0.3,0.1-0.5c0.8-1.9,7-15.3,24-21.9c0.3-0.1,0.6-0.1,0.9,0c2.8,1.3,17.2,8.4,22.6,21.3c0.1,0.1,0.1,0.3,0.1,0.5v118.1
		c0,0.7-0.5,1.2-1.2,1.2h-27.2"/>
	<path fill="#F9B233" d="M1163.5,190.8l0.6,8c0.1,0.9,1.1,1.4,1.8,0.9c3.4-2.2,11.2-6.2,14.1,1.2c3.4,8.8-14.2,24.4-17.1,26.9
		c-0.3,0.2-0.4,0.6-0.4,0.9v7.2c0,0.7,0.5,1.2,1.2,1.2h29.5c0.7,0,1.2-0.5,1.2-1.2v-7.1c0-0.7-0.5-1.2-1.2-1.2l-14-0.1
		c-1.1,0-1.6-1.3-0.8-2c5-4.7,16.4-16.9,13.8-28.1c-3.2-13.7-19.7-10.9-27.9-7.8C1163.7,189.8,1163.4,190.3,1163.5,190.8z"/>
	<path fill="#F9B233" d="M1230.1,213.4c-0.6-28.2-14-26.3-16.5-26.3c-4.2,0-15-0.6-16.1,25.3s16.1,25,16.1,25
		S1230.7,239.4,1230.1,213.4z M1218.6,212.2c0,17-3.8,17.1-4.5,17.1s-5.9,0.6-5.4-16.8c0.5-18,5.3-17.1,5.3-17.1
		S1218.9,194.7,1218.6,212.2z"/>
	<path fill="#F9B233" d="M1096.7,302.9l0.3,3.7c0.1,0.9,1,1.4,1.8,0.9c2.3-1.3,6.3-3,7.9,1.1c2,5.2-8,14.2-10.2,16.1
		c-0.3,0.2-0.4,0.6-0.4,0.9v3.7c0,0.7,0.5,1.2,1.2,1.2h16.9c0.7,0,1.2-0.5,1.2-1.2V326c0-0.7-0.5-1.2-1.2-1.2l-6.9-0.1
		c-1,0-1.6-1.3-0.8-2c3.3-3.3,9-10,7.5-16.2c-1.9-8.1-11.5-6.7-16.5-4.9C1096.9,301.9,1096.6,302.4,1096.7,302.9z"/>
	<path fill="#F9B233" d="M1136.9,316.2c-0.4-17.1-8.5-15.9-10-15.9c-2.5,0-9-0.4-9.7,15.3s9.7,15.1,9.7,15.1
		S1137.3,331.9,1136.9,316.2z M1130,315.4c0,10.3-2.3,10.3-2.7,10.3c-0.4,0-3.6,0.4-3.3-10.2c0.3-10.9,3.2-10.4,3.2-10.4
		S1130.1,304.9,1130,315.4z"/>
	<path fill="#F9B233" d="M1322.6,297.3L1322.6,297.3c0.1,0.7,0.8,1.2,1.4,0.9c0.8-0.3,1.8-0.4,2.2,0.8c0.7,1.8-2.5,4.8-3.6,5.8
		c-0.2,0.2-0.4,0.5-0.4,0.8v0.5c0,0.6,0.5,1.1,1.1,1.1h5.1c0.6,0,1.1-0.5,1.1-1.1l0,0c0-0.6-0.5-1-1-1.1h-0.6c-0.9,0-1.4-1-0.8-1.7
		c1.1-1.3,2.3-3.3,1.9-5.1c-0.6-2.8-3.7-2.5-5.6-2C1322.9,296.3,1322.6,296.8,1322.6,297.3z"/>
	<path fill="#F9B233" d="M1333.8,295.8c-0.9,0-3.4-0.1-3.6,5.7s3.6,5.6,3.6,5.6s3.8,0.4,3.7-5.4
		C1337.4,295.4,1334.4,295.8,1333.8,295.8z M1334,305.3c-0.1,0-1.3,0.1-1.2-3.8c0.1-4,1.2-3.8,1.2-3.8s1.1-0.1,1,3.8
		C1335,305.3,1334.1,305.3,1334,305.3z"/>
	<path fill="#E30613" d="M1226.8,194.2l2-4.8c0.2-0.5,0.9-0.5,1.1,0l1.5,4.7c0.1,0.2,0.3,0.4,0.6,0.4h4.5c0.6,0,0.8,0.7,0.4,1.1
		l-4,3c-0.2,0.2-0.3,0.4-0.2,0.7l1.8,4.6c0.2,0.5-0.4,1-0.9,0.7l-4.2-2.8c-0.2-0.1-0.4-0.1-0.6,0l-3.5,1.7c-0.5,0.2-1-0.2-0.8-0.7
		l1-3.5c0.1-0.2,0-0.5-0.2-0.6l-3.2-2.8c-0.4-0.3-0.2-1,0.3-1l4.1-0.3C1226.5,194.6,1226.7,194.4,1226.8,194.2z"/>
	<path fill="#E30613" d="M1171.8,288.4l2-4.8c0.2-0.5,0.9-0.5,1.1,0l1.5,4.7c0.1,0.2,0.3,0.4,0.6,0.4h4.5c0.6,0,0.8,0.7,0.4,1.1
		l-4,3c-0.2,0.2-0.3,0.4-0.2,0.7l1.8,4.6c0.2,0.5-0.4,1-0.9,0.7l-4.2-2.8c-0.2-0.1-0.4-0.1-0.6,0l-3.5,1.7c-0.5,0.2-1-0.2-0.8-0.7
		l1-3.5c0.1-0.2,0-0.5-0.2-0.6l-3.2-2.8c-0.4-0.3-0.2-1,0.3-1l4.1-0.3C1171.6,288.8,1171.8,288.7,1171.8,288.4z"/>
	<path fill="#E30613" d="M1171.8,226.6l2-4.8c0.2-0.5,0.9-0.5,1.1,0l1.5,4.7c0.1,0.2,0.3,0.4,0.6,0.4h4.5c0.6,0,0.8,0.7,0.4,1.1
		l-4,3c-0.2,0.2-0.3,0.4-0.2,0.7l1.8,4.6c0.2,0.5-0.4,1-0.9,0.7l-4.2-2.8c-0.2-0.1-0.4-0.1-0.6,0l-3.5,1.7c-0.5,0.2-1-0.2-0.8-0.7
		l1-3.5c0.1-0.2,0-0.5-0.2-0.6l-3.2-2.8c-0.4-0.3-0.2-1,0.3-1l4.1-0.3C1171.6,227,1171.8,226.8,1171.8,226.6z"/>
	<path fill="#E30613" d="M1199.6,203.1l-2-4.8c-0.2-0.5-0.9-0.5-1.1,0l-1.5,4.7c-0.1,0.2-0.3,0.4-0.6,0.4h-4.5
		c-0.6,0-0.8,0.7-0.4,1.1l4,3c0.2,0.2,0.3,0.4,0.2,0.7l-1.8,4.6c-0.2,0.5,0.4,1,0.9,0.7l4.2-2.8c0.2-0.1,0.4-0.1,0.6,0l3.5,1.7
		c0.5,0.2,1-0.2,0.8-0.7l-1-3.5c-0.1-0.2,0-0.5,0.2-0.6l3.2-2.8c0.4-0.3,0.2-1-0.3-1l-4.1-0.3
		C1199.9,203.5,1199.7,203.3,1199.6,203.1z"/>
	<path fill="#E30613" d="M1168.5,256.9l-2-4.8c-0.2-0.5-0.9-0.5-1.1,0l-1.5,4.7c-0.1,0.2-0.3,0.4-0.6,0.4h-4.5
		c-0.6,0-0.8,0.7-0.4,1.1l4,3c0.2,0.2,0.3,0.4,0.2,0.7l-1.8,4.6c-0.2,0.5,0.4,1,0.9,0.7l4.2-2.8c0.2-0.1,0.4-0.1,0.6,0l3.5,1.7
		c0.5,0.2,1-0.2,0.8-0.7l-1-3.5c-0.1-0.2,0-0.5,0.2-0.6l3.2-2.8c0.4-0.3,0.2-1-0.3-1l-4.1-0.3
		C1168.8,257.2,1168.6,257.1,1168.5,256.9z"/>
</g>
<g id="schein5">
	<path id="hintergrund_3_" fill="#27348B" stroke="#FFFFFF" stroke-width="6" stroke-miterlimit="10" d="M1359,447.2h-279.8
		c-6.3,0-11.3-5.1-11.3-11.3V295.3c0-6.3,5.1-11.3,11.3-11.3H1359c6.3,0,11.3,5.1,11.3,11.3v140.5
		C1370.4,442.1,1365.3,447.2,1359,447.2z"/>
	<path fill="none" stroke="#F9B233" stroke-width="5" stroke-miterlimit="10" d="M1220.4,435.1v-85.4c0-0.2,0.1-0.4,0.1-0.6
		c1.2-2.2,10.3-17.5,29.2-26c0.3-0.1,0.7-0.1,1,0c3.1,1.4,19.9,9.8,29.2,26.7c0.1,0.2,0.1,0.4,0.1,0.6v85.4c0,0.7-0.5,1.2-1.2,1.2
		l-57.4-0.6C1220.9,436.3,1220.4,435.7,1220.4,435.1z"/>
	<path fill="none" stroke="#F9B233" stroke-width="4" stroke-linecap="round" stroke-miterlimit="10" d="M1224.3,364.2
		c0,0,10.9-24.3,25.6-29.3c0.2-0.1,0.5-0.1,0.7,0c2.1,0.6,13,4.8,25.3,29.4"/>
	<path fill="none" stroke="#F9B233" stroke-width="5" stroke-linecap="round" stroke-miterlimit="10" d="M1260.9,329v-10.9
		c0-0.2,0-0.3,0.1-0.5c0.8-1.9,7-15.3,24-21.9c0.3-0.1,0.6-0.1,0.9,0c2.8,1.3,17.2,8.4,22.6,21.3c0.1,0.1,0.1,0.3,0.1,0.5v118.1
		c0,0.7-0.5,1.2-1.2,1.2h-27.2"/>
	<path fill="#F9B233" d="M1163.5,297.4l0.6,8c0.1,0.9,1.1,1.4,1.8,0.9c3.4-2.2,11.2-6.2,14.1,1.2c3.4,8.8-14.2,24.4-17.1,26.9
		c-0.3,0.2-0.4,0.6-0.4,0.9v7.2c0,0.7,0.5,1.2,1.2,1.2h29.5c0.7,0,1.2-0.5,1.2-1.2v-7.1c0-0.7-0.5-1.2-1.2-1.2l-14-0.1
		c-1.1,0-1.6-1.3-0.8-2c5-4.7,16.4-16.9,13.8-28.1c-3.2-13.7-19.7-10.9-27.9-7.8C1163.7,296.4,1163.4,296.9,1163.5,297.4z"/>
	<path fill="#F9B233" d="M1230.1,319.9c-0.6-28.2-14-26.3-16.5-26.3c-4.2,0-15-0.6-16.1,25.3s16.1,25,16.1,25
		S1230.7,345.9,1230.1,319.9z M1218.6,318.7c0,17-3.8,17.1-4.5,17.1s-5.9,0.6-5.4-16.8c0.5-18,5.3-17.1,5.3-17.1
		S1218.9,301.2,1218.6,318.7z"/>
	<path fill="#F9B233" d="M1096.7,409.4l0.3,3.7c0.1,0.9,1,1.4,1.8,0.9c2.3-1.3,6.3-3,7.9,1.1c2,5.2-8,14.2-10.2,16.1
		c-0.3,0.2-0.4,0.6-0.4,0.9v3.7c0,0.7,0.5,1.2,1.2,1.2h16.9c0.7,0,1.2-0.5,1.2-1.2v-3.4c0-0.7-0.5-1.2-1.2-1.2l-6.9-0.1
		c-1,0-1.6-1.3-0.8-2c3.3-3.3,9-10,7.5-16.2c-1.9-8.1-11.5-6.7-16.5-4.9C1096.9,408.4,1096.6,408.9,1096.7,409.4z"/>
	<path fill="#F9B233" d="M1136.9,422.7c-0.4-17.1-8.5-15.9-10-15.9c-2.5,0-9-0.4-9.7,15.3s9.7,15.1,9.7,15.1
		S1137.3,438.4,1136.9,422.7z M1130,422c0,10.3-2.3,10.3-2.7,10.3c-0.4,0-3.6,0.4-3.3-10.2c0.3-10.9,3.2-10.4,3.2-10.4
		S1130.1,411.4,1130,422z"/>
	<path fill="#F9B233" d="M1322.6,403.8L1322.6,403.8c0.1,0.7,0.8,1.2,1.4,0.9c0.8-0.3,1.8-0.4,2.2,0.8c0.7,1.8-2.5,4.8-3.6,5.8
		c-0.2,0.2-0.4,0.5-0.4,0.8v0.5c0,0.6,0.5,1.1,1.1,1.1h5.1c0.6,0,1.1-0.5,1.1-1.1l0,0c0-0.6-0.5-1-1-1.1h-0.6c-0.9,0-1.4-1-0.8-1.7
		c1.1-1.3,2.3-3.3,1.9-5.1c-0.6-2.8-3.7-2.5-5.6-2C1322.9,402.8,1322.6,403.3,1322.6,403.8z"/>
	<path fill="#F9B233" d="M1333.8,402.3c-0.9,0-3.4-0.1-3.6,5.7s3.6,5.6,3.6,5.6s3.8,0.4,3.7-5.4
		C1337.4,401.9,1334.4,402.3,1333.8,402.3z M1334,411.8c-0.1,0-1.3,0.1-1.2-3.8c0.1-4,1.2-3.8,1.2-3.8s1.1-0.1,1,3.8
		C1335,411.8,1334.1,411.8,1334,411.8z"/>
	<path fill="#E30613" d="M1226.8,300.8l2-4.8c0.2-0.5,0.9-0.5,1.1,0l1.5,4.7c0.1,0.2,0.3,0.4,0.6,0.4h4.5c0.6,0,0.8,0.7,0.4,1.1
		l-4,3c-0.2,0.2-0.3,0.4-0.2,0.7l1.8,4.6c0.2,0.5-0.4,1-0.9,0.7l-4.2-2.8c-0.2-0.1-0.4-0.1-0.6,0l-3.5,1.7c-0.5,0.2-1-0.2-0.8-0.7
		l1-3.5c0.1-0.2,0-0.5-0.2-0.6l-3.2-2.8c-0.4-0.3-0.2-1,0.3-1l4.1-0.3C1226.5,301.1,1226.7,301,1226.8,300.8z"/>
	<path fill="#E30613" d="M1171.8,395l2-4.8c0.2-0.5,0.9-0.5,1.1,0l1.5,4.7c0.1,0.2,0.3,0.4,0.6,0.4h4.5c0.6,0,0.8,0.7,0.4,1.1l-4,3
		c-0.2,0.2-0.3,0.4-0.2,0.7l1.8,4.6c0.2,0.5-0.4,1-0.9,0.7l-4.2-2.8c-0.2-0.1-0.4-0.1-0.6,0l-3.5,1.7c-0.5,0.2-1-0.2-0.8-0.7l1-3.5
		c0.1-0.2,0-0.5-0.2-0.6l-3.2-2.8c-0.4-0.3-0.2-1,0.3-1l4.1-0.3C1171.6,395.3,1171.8,395.2,1171.8,395z"/>
	<path fill="#E30613" d="M1171.8,333.1l2-4.8c0.2-0.5,0.9-0.5,1.1,0l1.5,4.7c0.1,0.2,0.3,0.4,0.6,0.4h4.5c0.6,0,0.8,0.7,0.4,1.1
		l-4,3c-0.2,0.2-0.3,0.4-0.2,0.7l1.8,4.6c0.2,0.5-0.4,1-0.9,0.7l-4.2-2.8c-0.2-0.1-0.4-0.1-0.6,0l-3.5,1.7c-0.5,0.2-1-0.2-0.8-0.7
		l1-3.5c0.1-0.2,0-0.5-0.2-0.6l-3.2-2.8c-0.4-0.3-0.2-1,0.3-1l4.1-0.3C1171.6,333.5,1171.8,333.3,1171.8,333.1z"/>
	<path fill="#E30613" d="M1199.6,309.6l-2-4.8c-0.2-0.5-0.9-0.5-1.1,0l-1.5,4.7c-0.1,0.2-0.3,0.4-0.6,0.4h-4.5
		c-0.6,0-0.8,0.7-0.4,1.1l4,3c0.2,0.2,0.3,0.4,0.2,0.7l-1.8,4.6c-0.2,0.5,0.4,1,0.9,0.7l4.2-2.8c0.2-0.1,0.4-0.1,0.6,0l3.5,1.7
		c0.5,0.2,1-0.2,0.8-0.7l-1-3.5c-0.1-0.2,0-0.5,0.2-0.6l3.2-2.8c0.4-0.3,0.2-1-0.3-1l-4.1-0.3C1199.9,310,1199.7,309.8,1199.6,309.6
		z"/>
	<path fill="#E30613" d="M1168.5,363.4l-2-4.8c-0.2-0.5-0.9-0.5-1.1,0l-1.5,4.7c-0.1,0.2-0.3,0.4-0.6,0.4h-4.5
		c-0.6,0-0.8,0.7-0.4,1.1l4,3c0.2,0.2,0.3,0.4,0.2,0.7l-1.8,4.6c-0.2,0.5,0.4,1,0.9,0.7l4.2-2.8c0.2-0.1,0.4-0.1,0.6,0l3.5,1.7
		c0.5,0.2,1-0.2,0.8-0.7l-1-3.5c-0.1-0.2,0-0.5,0.2-0.6l3.2-2.8c0.4-0.3,0.2-1-0.3-1l-4.1-0.3
		C1168.8,363.8,1168.6,363.6,1168.5,363.4z"/>
</g>
<g id="schein6">
	<path id="hintergrund_2_" fill="#27348B" stroke="#FFFFFF" stroke-width="6" stroke-miterlimit="10" d="M1359,553.7h-279.8
		c-6.3,0-11.3-5.1-11.3-11.3V401.8c0-6.3,5.1-11.3,11.3-11.3H1359c6.3,0,11.3,5.1,11.3,11.3v140.5
		C1370.4,548.6,1365.3,553.7,1359,553.7z"/>
	<path fill="none" stroke="#F9B233" stroke-width="5" stroke-miterlimit="10" d="M1220.4,541.6v-85.4c0-0.2,0.1-0.4,0.1-0.6
		c1.2-2.2,10.3-17.5,29.2-26c0.3-0.1,0.7-0.1,1,0c3.1,1.4,19.9,9.8,29.2,26.7c0.1,0.2,0.1,0.4,0.1,0.6v85.4c0,0.7-0.5,1.2-1.2,1.2
		l-57.4-0.6C1220.9,542.8,1220.4,542.3,1220.4,541.6z"/>
	<path fill="none" stroke="#F9B233" stroke-width="4" stroke-linecap="round" stroke-miterlimit="10" d="M1224.3,470.7
		c0,0,10.9-24.3,25.6-29.3c0.2-0.1,0.5-0.1,0.7,0c2.1,0.6,13,4.8,25.3,29.4"/>
	<path fill="none" stroke="#F9B233" stroke-width="5" stroke-linecap="round" stroke-miterlimit="10" d="M1260.9,435.6v-10.9
		c0-0.2,0-0.3,0.1-0.5c0.8-1.9,7-15.3,24-21.9c0.3-0.1,0.6-0.1,0.9,0c2.8,1.3,17.2,8.4,22.6,21.3c0.1,0.1,0.1,0.3,0.1,0.5v118.1
		c0,0.7-0.5,1.2-1.2,1.2h-27.2"/>
	<path fill="#F9B233" d="M1163.5,403.9l0.6,8c0.1,0.9,1.1,1.4,1.8,0.9c3.4-2.2,11.2-6.2,14.1,1.2c3.4,8.8-14.2,24.4-17.1,26.9
		c-0.3,0.2-0.4,0.6-0.4,0.9v7.2c0,0.7,0.5,1.2,1.2,1.2h29.5c0.7,0,1.2-0.5,1.2-1.2v-7c0-0.7-0.5-1.2-1.2-1.2l-14-0.1
		c-1.1,0-1.6-1.3-0.8-2c5-4.7,16.4-16.9,13.8-28.1c-3.2-13.7-19.7-10.9-27.9-7.8C1163.7,402.9,1163.4,403.4,1163.5,403.9z"/>
	<path fill="#F9B233" d="M1230.1,426.4c-0.6-28.2-14-26.3-16.5-26.3c-4.2,0-15-0.6-16.1,25.3s16.1,25,16.1,25
		S1230.7,452.5,1230.1,426.4z M1218.6,425.2c0,17-3.8,17.1-4.5,17.1s-5.9,0.6-5.4-16.8c0.5-18,5.3-17.1,5.3-17.1
		S1218.9,407.8,1218.6,425.2z"/>
	<path fill="#F9B233" d="M1096.7,516l0.3,3.7c0.1,0.9,1,1.4,1.8,0.9c2.3-1.3,6.3-3,7.9,1.1c2,5.2-8,14.2-10.2,16.1
		c-0.3,0.2-0.4,0.6-0.4,0.9v3.7c0,0.7,0.5,1.2,1.2,1.2h16.9c0.7,0,1.2-0.5,1.2-1.2V539c0-0.7-0.5-1.2-1.2-1.2l-6.9-0.1
		c-1,0-1.6-1.3-0.8-2c3.3-3.3,9-10,7.5-16.2c-1.9-8.1-11.5-6.7-16.5-4.9C1096.9,514.9,1096.6,515.4,1096.7,516z"/>
	<path fill="#F9B233" d="M1136.9,529.2c-0.4-17.1-8.5-15.9-10-15.9c-2.5,0-9-0.4-9.7,15.3s9.7,15.1,9.7,15.1
		S1137.3,545,1136.9,529.2z M1130,528.5c0,10.3-2.3,10.3-2.7,10.3c-0.4,0-3.6,0.4-3.3-10.2c0.3-10.9,3.2-10.4,3.2-10.4
		S1130.1,517.9,1130,528.5z"/>
	<path fill="#F9B233" d="M1322.6,510.3L1322.6,510.3c0.1,0.7,0.8,1.2,1.4,0.9c0.8-0.3,1.8-0.4,2.2,0.8c0.7,1.8-2.5,4.8-3.6,5.8
		c-0.2,0.2-0.4,0.5-0.4,0.8v0.5c0,0.6,0.5,1.1,1.1,1.1h5.1c0.6,0,1.1-0.5,1.1-1.1l0,0c0-0.6-0.5-1-1-1.1h-0.6c-0.9,0-1.4-1-0.8-1.7
		c1.1-1.3,2.3-3.3,1.9-5.1c-0.6-2.8-3.7-2.5-5.6-2C1322.9,509.4,1322.6,509.8,1322.6,510.3z"/>
	<path fill="#F9B233" d="M1333.8,508.9c-0.9,0-3.4-0.1-3.6,5.7c-0.3,5.8,3.6,5.6,3.6,5.6s3.8,0.4,3.7-5.4
		C1337.4,508.4,1334.4,508.9,1333.8,508.9z M1334,518.3c-0.1,0-1.3,0.1-1.2-3.8c0.1-4,1.2-3.8,1.2-3.8s1.1-0.1,1,3.8
		C1335,518.3,1334.1,518.3,1334,518.3z"/>
	<path fill="#E30613" d="M1226.8,407.3l2-4.8c0.2-0.5,0.9-0.5,1.1,0l1.5,4.7c0.1,0.2,0.3,0.4,0.6,0.4h4.5c0.6,0,0.8,0.7,0.4,1.1
		l-4,3c-0.2,0.2-0.3,0.4-0.2,0.7l1.8,4.6c0.2,0.5-0.4,1-0.9,0.7l-4.2-2.8c-0.2-0.1-0.4-0.1-0.6,0l-3.5,1.7c-0.5,0.2-1-0.2-0.8-0.7
		l1-3.5c0.1-0.2,0-0.5-0.2-0.6l-3.2-2.8c-0.4-0.3-0.2-1,0.3-1l4.1-0.3C1226.5,407.6,1226.7,407.5,1226.8,407.3z"/>
	<path fill="#E30613" d="M1171.8,501.5l2-4.8c0.2-0.5,0.9-0.5,1.1,0l1.5,4.7c0.1,0.2,0.3,0.4,0.6,0.4h4.5c0.6,0,0.8,0.7,0.4,1.1
		l-4,3c-0.2,0.2-0.3,0.4-0.2,0.7l1.8,4.6c0.2,0.5-0.4,1-0.9,0.7l-4.2-2.8c-0.2-0.1-0.4-0.1-0.6,0l-3.5,1.7c-0.5,0.2-1-0.2-0.8-0.7
		l1-3.5c0.1-0.2,0-0.5-0.2-0.6l-3.2-2.8c-0.4-0.3-0.2-1,0.3-1l4.1-0.3C1171.6,501.9,1171.8,501.7,1171.8,501.5z"/>
	<path fill="#E30613" d="M1171.8,439.7l2-4.8c0.2-0.5,0.9-0.5,1.1,0l1.5,4.7c0.1,0.2,0.3,0.4,0.6,0.4h4.5c0.6,0,0.8,0.7,0.4,1.1
		l-4,3c-0.2,0.2-0.3,0.4-0.2,0.7l1.8,4.6c0.2,0.5-0.4,1-0.9,0.7l-4.2-2.8c-0.2-0.1-0.4-0.1-0.6,0l-3.5,1.7c-0.5,0.2-1-0.2-0.8-0.7
		l1-3.5c0.1-0.2,0-0.5-0.2-0.6l-3.2-2.8c-0.4-0.3-0.2-1,0.3-1l4.1-0.3C1171.6,440,1171.8,439.9,1171.8,439.7z"/>
	<path fill="#E30613" d="M1199.6,416.2l-2-4.8c-0.2-0.5-0.9-0.5-1.1,0l-1.5,4.7c-0.1,0.2-0.3,0.4-0.6,0.4h-4.5
		c-0.6,0-0.8,0.7-0.4,1.1l4,3c0.2,0.2,0.3,0.4,0.2,0.7l-1.8,4.6c-0.2,0.5,0.4,1,0.9,0.7l4.2-2.8c0.2-0.1,0.4-0.1,0.6,0l3.5,1.7
		c0.5,0.2,1-0.2,0.8-0.7l-1-3.5c-0.1-0.2,0-0.5,0.2-0.6l3.2-2.8c0.4-0.3,0.2-1-0.3-1l-4.1-0.3
		C1199.9,416.5,1199.7,416.4,1199.6,416.2z"/>
	<path fill="#E30613" d="M1168.5,469.9l-2-4.8c-0.2-0.5-0.9-0.5-1.1,0l-1.5,4.7c-0.1,0.2-0.3,0.4-0.6,0.4h-4.5
		c-0.6,0-0.8,0.7-0.4,1.1l4,3c0.2,0.2,0.3,0.4,0.2,0.7l-1.8,4.6c-0.2,0.5,0.4,1,0.9,0.7l4.2-2.8c0.2-0.1,0.4-0.1,0.6,0l3.5,1.7
		c0.5,0.2,1-0.2,0.8-0.7l-1-3.5c-0.1-0.2,0-0.5,0.2-0.6l3.2-2.8c0.4-0.3,0.2-1-0.3-1l-4.1-0.3
		C1168.8,470.3,1168.6,470.2,1168.5,469.9z"/>
</g>
<g id="schein7">
	<path id="hintergrund" fill="#27348B" stroke="#FFFFFF" stroke-width="6" stroke-miterlimit="10" d="M1359,660.2h-279.8
		c-6.3,0-11.3-5.1-11.3-11.3V508.4c0-6.3,5.1-11.3,11.3-11.3H1359c6.3,0,11.3,5.1,11.3,11.3v140.5
		C1370.4,655.2,1365.3,660.2,1359,660.2z"/>
	<path fill="none" stroke="#F9B233" stroke-width="5" stroke-miterlimit="10" d="M1220.4,648.2v-85.4c0-0.2,0.1-0.4,0.1-0.6
		c1.2-2.2,10.3-17.5,29.2-26c0.3-0.1,0.7-0.1,1,0c3.1,1.4,19.9,9.8,29.2,26.7c0.1,0.2,0.1,0.4,0.1,0.6v85.4c0,0.7-0.5,1.2-1.2,1.2
		l-57.4-0.6C1220.9,649.3,1220.4,648.8,1220.4,648.2z"/>
	<path fill="none" stroke="#F9B233" stroke-width="4" stroke-linecap="round" stroke-miterlimit="10" d="M1224.3,577.2
		c0,0,10.9-24.3,25.6-29.3c0.2-0.1,0.5-0.1,0.7,0c2.1,0.6,13,4.8,25.3,29.4"/>
	<path fill="none" stroke="#F9B233" stroke-width="5" stroke-linecap="round" stroke-miterlimit="10" d="M1260.9,542.1v-10.9
		c0-0.2,0-0.3,0.1-0.5c0.8-1.9,7-15.3,24-21.9c0.3-0.1,0.6-0.1,0.9,0c2.8,1.3,17.2,8.4,22.6,21.3c0.1,0.1,0.1,0.3,0.1,0.5v118.1
		c0,0.7-0.5,1.2-1.2,1.2h-27.2"/>
	<path fill="#F9B233" d="M1163.5,510.4l0.6,8c0.1,0.9,1.1,1.4,1.8,0.9c3.4-2.2,11.2-6.2,14.1,1.2c3.4,8.8-14.2,24.4-17.1,26.9
		c-0.3,0.2-0.4,0.6-0.4,0.9v7.2c0,0.7,0.5,1.2,1.2,1.2h29.5c0.7,0,1.2-0.5,1.2-1.2v-7.1c0-0.7-0.5-1.2-1.2-1.2l-14-0.1
		c-1.1,0-1.6-1.3-0.8-2c5-4.7,16.4-16.9,13.8-28.1c-3.2-13.7-19.7-10.9-27.9-7.8C1163.7,509.4,1163.4,509.9,1163.5,510.4z"/>
	<path fill="#F9B233" d="M1230.1,533c-0.6-28.2-14-26.3-16.5-26.3c-4.2,0-15-0.6-16.1,25.3c-1.1,25.9,16.1,25,16.1,25
		S1230.7,559,1230.1,533z M1218.6,531.7c0,17-3.8,17.1-4.5,17.1s-5.9,0.6-5.4-16.8c0.5-18,5.3-17.1,5.3-17.1
		S1218.9,514.3,1218.6,531.7z"/>
	<path fill="#F9B233" d="M1096.7,622.5l0.3,3.7c0.1,0.9,1,1.4,1.8,0.9c2.3-1.3,6.3-3,7.9,1.1c2,5.2-8,14.2-10.2,16.1
		c-0.3,0.2-0.4,0.6-0.4,0.9v3.7c0,0.7,0.5,1.2,1.2,1.2h16.9c0.7,0,1.2-0.5,1.2-1.2v-3.4c0-0.7-0.5-1.2-1.2-1.2l-6.9-0.1
		c-1,0-1.6-1.3-0.8-2c3.3-3.3,9-10,7.5-16.2c-1.9-8.1-11.5-6.7-16.5-4.9C1096.9,621.5,1096.6,622,1096.7,622.5z"/>
	<path fill="#F9B233" d="M1136.9,635.8c-0.4-17.1-8.5-15.9-10-15.9c-2.5,0-9-0.4-9.7,15.3s9.7,15.1,9.7,15.1
		S1137.3,651.5,1136.9,635.8z M1130,635c0,10.3-2.3,10.3-2.7,10.3c-0.4,0-3.6,0.4-3.3-10.2c0.3-10.9,3.2-10.4,3.2-10.4
		S1130.1,624.5,1130,635z"/>
	<path fill="#F9B233" d="M1322.6,616.9L1322.6,616.9c0.1,0.7,0.8,1.2,1.4,0.9c0.8-0.3,1.8-0.4,2.2,0.8c0.7,1.8-2.5,4.8-3.6,5.8
		c-0.2,0.2-0.4,0.5-0.4,0.8v0.5c0,0.6,0.5,1.1,1.1,1.1h5.1c0.6,0,1.1-0.5,1.1-1.1l0,0c0-0.6-0.5-1-1-1.1h-0.6c-0.9,0-1.4-1-0.8-1.7
		c1.1-1.3,2.3-3.3,1.9-5.1c-0.6-2.8-3.7-2.5-5.6-2C1322.9,615.9,1322.6,616.4,1322.6,616.9z"/>
	<path fill="#F9B233" d="M1333.8,615.4c-0.9,0-3.4-0.1-3.6,5.7s3.6,5.6,3.6,5.6s3.8,0.4,3.7-5.4
		C1337.4,615,1334.4,615.4,1333.8,615.4z M1334,624.9c-0.1,0-1.3,0.1-1.2-3.8c0.1-4,1.2-3.8,1.2-3.8s1.1-0.1,1,3.8
		C1335,624.8,1334.1,624.9,1334,624.9z"/>
	<path fill="#E30613" d="M1226.8,513.8l2-4.8c0.2-0.5,0.9-0.5,1.1,0l1.5,4.7c0.1,0.2,0.3,0.4,0.6,0.4h4.5c0.6,0,0.8,0.7,0.4,1.1
		l-4,3c-0.2,0.2-0.3,0.4-0.2,0.7l1.8,4.6c0.2,0.5-0.4,1-0.9,0.7l-4.2-2.8c-0.2-0.1-0.4-0.1-0.6,0l-3.5,1.7c-0.5,0.2-1-0.2-0.8-0.7
		l1-3.5c0.1-0.2,0-0.5-0.2-0.6l-3.2-2.8c-0.4-0.3-0.2-1,0.3-1l4.1-0.3C1226.5,514.2,1226.7,514,1226.8,513.8z"/>
	<path fill="#E30613" d="M1171.8,608l2-4.8c0.2-0.5,0.9-0.5,1.1,0l1.5,4.7c0.1,0.2,0.3,0.4,0.6,0.4h4.5c0.6,0,0.8,0.7,0.4,1.1l-4,3
		c-0.2,0.2-0.3,0.4-0.2,0.7l1.8,4.6c0.2,0.5-0.4,1-0.9,0.7l-4.2-2.8c-0.2-0.1-0.4-0.1-0.6,0l-3.5,1.7c-0.5,0.2-1-0.2-0.8-0.7l1-3.5
		c0.1-0.2,0-0.5-0.2-0.6l-3.2-2.8c-0.4-0.3-0.2-1,0.3-1l4.1-0.3C1171.6,608.4,1171.8,608.2,1171.8,608z"/>
	<path fill="#E30613" d="M1171.8,546.2l2-4.8c0.2-0.5,0.9-0.5,1.1,0l1.5,4.7c0.1,0.2,0.3,0.4,0.6,0.4h4.5c0.6,0,0.8,0.7,0.4,1.1
		l-4,3c-0.2,0.2-0.3,0.4-0.2,0.7l1.8,4.6c0.2,0.5-0.4,1-0.9,0.7l-4.2-2.8c-0.2-0.1-0.4-0.1-0.6,0l-3.5,1.7c-0.5,0.2-1-0.2-0.8-0.7
		l1-3.5c0.1-0.2,0-0.5-0.2-0.6l-3.2-2.8c-0.4-0.3-0.2-1,0.3-1l4.1-0.3C1171.6,546.5,1171.8,546.4,1171.8,546.2z"/>
	<path fill="#E30613" d="M1199.6,522.7l-2-4.8c-0.2-0.5-0.9-0.5-1.1,0l-1.5,4.7c-0.1,0.2-0.3,0.4-0.6,0.4h-4.5
		c-0.6,0-0.8,0.7-0.4,1.1l4,3c0.2,0.2,0.3,0.4,0.2,0.7l-1.8,4.6c-0.2,0.5,0.4,1,0.9,0.7l4.2-2.8c0.2-0.1,0.4-0.1,0.6,0l3.5,1.7
		c0.5,0.2,1-0.2,0.8-0.7l-1-3.5c-0.1-0.2,0-0.5,0.2-0.6l3.2-2.8c0.4-0.3,0.2-1-0.3-1l-4.1-0.3C1199.9,523,1199.7,522.9,1199.6,522.7
		z"/>
	<path fill="#E30613" d="M1168.5,576.5l-2-4.8c-0.2-0.5-0.9-0.5-1.1,0l-1.5,4.7c-0.1,0.2-0.3,0.4-0.6,0.4h-4.5
		c-0.6,0-0.8,0.7-0.4,1.1l4,3c0.2,0.2,0.3,0.4,0.2,0.7l-1.8,4.6c-0.2,0.5,0.4,1,0.9,0.7l4.2-2.8c0.2-0.1,0.4-0.1,0.6,0l3.5,1.7
		c0.5,0.2,1-0.2,0.8-0.7l-1-3.5c-0.1-0.2,0-0.5,0.2-0.6l3.2-2.8c0.4-0.3,0.2-1-0.3-1l-4.1-0.3
		C1168.8,576.8,1168.6,576.7,1168.5,576.5z"/>
</g>
<g id="schein8">
	<path id="hintergrund_1_" fill="#27348B" stroke="#FFFFFF" stroke-width="6" stroke-miterlimit="10" d="M1359,766.8h-279.8
		c-6.3,0-11.3-5.1-11.3-11.3V614.9c0-6.3,5.1-11.3,11.3-11.3H1359c6.3,0,11.3,5.1,11.3,11.3v140.5
		C1370.4,761.7,1365.3,766.8,1359,766.8z"/>
	<path fill="none" stroke="#F9B233" stroke-width="5" stroke-miterlimit="10" d="M1220.4,754.7v-85.4c0-0.2,0.1-0.4,0.1-0.6
		c1.2-2.2,10.3-17.5,29.2-26c0.3-0.1,0.7-0.1,1,0c3.1,1.4,19.9,9.8,29.2,26.7c0.1,0.2,0.1,0.4,0.1,0.6v85.4c0,0.7-0.5,1.2-1.2,1.2
		l-57.4-0.6C1220.9,755.9,1220.4,755.3,1220.4,754.7z"/>
	<path fill="none" stroke="#F9B233" stroke-width="4" stroke-linecap="round" stroke-miterlimit="10" d="M1224.3,683.8
		c0,0,10.9-24.3,25.6-29.3c0.2-0.1,0.5-0.1,0.7,0c2.1,0.6,13,4.8,25.3,29.4"/>
	<path fill="none" stroke="#F9B233" stroke-width="5" stroke-linecap="round" stroke-miterlimit="10" d="M1260.9,648.6v-10.9
		c0-0.2,0-0.3,0.1-0.5c0.8-1.9,7-15.3,24-21.9c0.3-0.1,0.6-0.1,0.9,0c2.8,1.3,17.2,8.4,22.6,21.3c0.1,0.1,0.1,0.3,0.1,0.5v118.1
		c0,0.7-0.5,1.2-1.2,1.2h-27.2"/>
	<path fill="#F9B233" d="M1163.5,617l0.6,8c0.1,0.9,1.1,1.4,1.8,0.9c3.4-2.2,11.2-6.2,14.1,1.2c3.4,8.8-14.2,24.4-17.1,26.9
		c-0.3,0.2-0.4,0.6-0.4,0.9v7.2c0,0.7,0.5,1.2,1.2,1.2h29.5c0.7,0,1.2-0.5,1.2-1.2V655c0-0.7-0.5-1.2-1.2-1.2l-14-0.1
		c-1.1,0-1.6-1.3-0.8-2c5-4.7,16.4-16.9,13.8-28.1c-3.2-13.7-19.7-10.9-27.9-7.8C1163.7,615.9,1163.4,616.4,1163.5,617z"/>
	<path fill="#F9B233" d="M1230.1,639.5c-0.6-28.2-14-26.3-16.5-26.3c-4.2,0-15-0.6-16.1,25.3c-1.1,25.9,16.1,25,16.1,25
		S1230.7,665.5,1230.1,639.5z M1218.6,638.3c0,17-3.8,17.1-4.5,17.1s-5.9,0.6-5.4-16.8c0.5-18,5.3-17.1,5.3-17.1
		S1218.9,620.8,1218.6,638.3z"/>
	<path fill="#F9B233" d="M1096.7,729l0.3,3.7c0.1,0.9,1,1.4,1.8,0.9c2.3-1.3,6.3-3,7.9,1.1c2,5.2-8,14.2-10.2,16.1
		c-0.3,0.2-0.4,0.6-0.4,0.9v3.7c0,0.7,0.5,1.2,1.2,1.2h16.9c0.7,0,1.2-0.5,1.2-1.2V752c0-0.7-0.5-1.2-1.2-1.2l-6.9-0.1
		c-1,0-1.6-1.3-0.8-2c3.3-3.3,9-10,7.5-16.2c-1.9-8.1-11.5-6.7-16.5-4.9C1096.9,728,1096.6,728.5,1096.7,729z"/>
	<path fill="#F9B233" d="M1136.9,742.3c-0.4-17.1-8.5-15.9-10-15.9c-2.5,0-9-0.4-9.7,15.3s9.7,15.1,9.7,15.1
		S1137.3,758,1136.9,742.3z M1130,741.6c0,10.3-2.3,10.3-2.7,10.3c-0.4,0-3.6,0.4-3.3-10.2c0.3-10.9,3.2-10.4,3.2-10.4
		S1130.1,731,1130,741.6z"/>
	<path fill="#F9B233" d="M1322.6,723.4L1322.6,723.4c0.1,0.7,0.8,1.2,1.4,0.9c0.8-0.3,1.8-0.4,2.2,0.8c0.7,1.8-2.5,4.8-3.6,5.8
		c-0.2,0.2-0.4,0.5-0.4,0.8v0.5c0,0.6,0.5,1.1,1.1,1.1h5.1c0.6,0,1.1-0.5,1.1-1.1l0,0c0-0.6-0.5-1-1-1.1h-0.6c-0.9,0-1.4-1-0.8-1.7
		c1.1-1.3,2.3-3.3,1.9-5.1c-0.6-2.8-3.7-2.5-5.6-2C1322.9,722.4,1322.6,722.9,1322.6,723.4z"/>
	<path fill="#F9B233" d="M1333.8,721.9c-0.9,0-3.4-0.1-3.6,5.7s3.6,5.6,3.6,5.6s3.8,0.4,3.7-5.4
		C1337.4,721.5,1334.4,721.9,1333.8,721.9z M1334,731.4c-0.1,0-1.3,0.1-1.2-3.8c0.1-4,1.2-3.8,1.2-3.8s1.1-0.1,1,3.8
		C1335,731.4,1334.1,731.4,1334,731.4z"/>
	<path fill="#E30613" d="M1226.8,620.3l2-4.8c0.2-0.5,0.9-0.5,1.1,0l1.5,4.7c0.1,0.2,0.3,0.4,0.6,0.4h4.5c0.6,0,0.8,0.7,0.4,1.1
		l-4,3c-0.2,0.2-0.3,0.4-0.2,0.7l1.8,4.6c0.2,0.5-0.4,1-0.9,0.7l-4.2-2.8c-0.2-0.1-0.4-0.1-0.6,0l-3.5,1.7c-0.5,0.2-1-0.2-0.8-0.7
		l1-3.5c0.1-0.2,0-0.5-0.2-0.6l-3.2-2.8c-0.4-0.3-0.2-1,0.3-1l4.1-0.3C1226.5,620.7,1226.7,620.6,1226.8,620.3z"/>
	<path fill="#E30613" d="M1171.8,714.6l2-4.8c0.2-0.5,0.9-0.5,1.1,0l1.5,4.7c0.1,0.2,0.3,0.4,0.6,0.4h4.5c0.6,0,0.8,0.7,0.4,1.1
		l-4,3c-0.2,0.2-0.3,0.4-0.2,0.7l1.8,4.6c0.2,0.5-0.4,1-0.9,0.7l-4.2-2.8c-0.2-0.1-0.4-0.1-0.6,0l-3.5,1.7c-0.5,0.2-1-0.2-0.8-0.7
		l1-3.5c0.1-0.2,0-0.5-0.2-0.6l-3.2-2.8c-0.4-0.3-0.2-1,0.3-1l4.1-0.3C1171.6,714.9,1171.8,714.8,1171.8,714.6z"/>
	<path fill="#E30613" d="M1171.8,652.7l2-4.8c0.2-0.5,0.9-0.5,1.1,0l1.5,4.7c0.1,0.2,0.3,0.4,0.6,0.4h4.5c0.6,0,0.8,0.7,0.4,1.1
		l-4,3c-0.2,0.2-0.3,0.4-0.2,0.7l1.8,4.6c0.2,0.5-0.4,1-0.9,0.7l-4.2-2.8c-0.2-0.1-0.4-0.1-0.6,0l-3.5,1.7c-0.5,0.2-1-0.2-0.8-0.7
		l1-3.5c0.1-0.2,0-0.5-0.2-0.6l-3.2-2.8c-0.4-0.3-0.2-1,0.3-1l4.1-0.3C1171.6,653.1,1171.8,652.9,1171.8,652.7z"/>
	<path fill="#E30613" d="M1199.6,629.2l-2-4.8c-0.2-0.5-0.9-0.5-1.1,0l-1.5,4.7c-0.1,0.2-0.3,0.4-0.6,0.4h-4.5
		c-0.6,0-0.8,0.7-0.4,1.1l4,3c0.2,0.2,0.3,0.4,0.2,0.7l-1.8,4.6c-0.2,0.5,0.4,1,0.9,0.7l4.2-2.8c0.2-0.1,0.4-0.1,0.6,0l3.5,1.7
		c0.5,0.2,1-0.2,0.8-0.7l-1-3.5c-0.1-0.2,0-0.5,0.2-0.6l3.2-2.8c0.4-0.3,0.2-1-0.3-1l-4.1-0.3
		C1199.9,629.6,1199.7,629.4,1199.6,629.2z"/>
	<path fill="#E30613" d="M1168.5,683l-2-4.8c-0.2-0.5-0.9-0.5-1.1,0l-1.5,4.7c-0.1,0.2-0.3,0.4-0.6,0.4h-4.5c-0.6,0-0.8,0.7-0.4,1.1
		l4,3c0.2,0.2,0.3,0.4,0.2,0.7l-1.8,4.6c-0.2,0.5,0.4,1,0.9,0.7l4.2-2.8c0.2-0.1,0.4-0.1,0.6,0l3.5,1.7c0.5,0.2,1-0.2,0.8-0.7
		l-1-3.5c-0.1-0.2,0-0.5,0.2-0.6l3.2-2.8c0.4-0.3,0.2-1-0.3-1l-4.1-0.3C1168.8,683.3,1168.6,683.2,1168.5,683z"/>
</g>
</svg>
