<?xml version="1.0" encoding="utf-8"?>
<!-- Generator: Adobe Illustrator 19.1.0, SVG Export Plug-In . SVG Version: 6.00 Build 0)  -->
<svg version="1.1" id="Layer_1" xmlns="http://www.w3.org/2000/svg" xmlns:xlink="http://www.w3.org/1999/xlink" x="0px" y="0px"
	 viewBox="-200 0 439.4 595.3" style="enable-background:new -200 0 439.4 595.3;" xml:space="preserve">
<style type="text/css">
	.st0{fill:#27348B;}
	.st1{fill:#F9B233;}
	.st2{fill:#E30613;}
</style>
<g id="elfteG">
	<path class="st0" d="M226.2,18.9L226.2,18.9c0-4.1-3.4-7.9-8.8-10.7c-0.6-0.3-1.4-0.5-2.3-0.5h-44.6c-0.8,0-1.5,0.2-2.3,0.5
		c-5.4,2.8-8.8,6.5-8.8,10.6l0,0c0,0.2,0,0.8,0,1l0,0c0,3.2,3.6,6.2,9.3,8.4c0.3,0.1,0.6,0.2,1.1,0.2h45.8c0.3,0,0.8-0.1,1.1-0.2
		c5.7-2.2,9.3-5.1,9.3-8.4l0,0C226.2,19.7,226.2,19.1,226.2,18.9z"/>
	<circle class="st1" cx="192.9" cy="18" r="18"/>
</g>
<g id="zehnteG">
	<path class="st1" d="M228.2,74.8L228.2,74.8c0-4.1-3.4-7.9-8.8-10.7c-0.6-0.3-1.4-0.5-2.3-0.5h-44.6c-0.8,0-1.5,0.2-2.3,0.5
		c-5.4,2.8-8.8,6.5-8.8,10.6l0,0c0,0.2,0,0.8,0,1l0,0c0,3.2,3.6,6.2,9.3,8.4c0.3,0.1,0.6,0.2,1.1,0.2h45.8c0.3,0,0.8-0.1,1.1-0.2
		c5.7-2.2,9.3-5.1,9.3-8.4l0,0C228.2,75.7,228.2,75,228.2,74.8z"/>
	<circle class="st0" cx="194.9" cy="74" r="18"/>
</g>
<g id="neunteG">
	<path class="st1" d="M226.2,130.8C226.2,130.8,226.2,130.7,226.2,130.8c0-4.1-3.4-7.9-8.8-10.7c-0.6-0.3-1.4-0.5-2.3-0.5h-44.6
		c-0.8,0-1.5,0.2-2.3,0.5c-5.4,2.8-8.8,6.5-8.8,10.6l0,0c0,0.2,0,0.8,0,1l0,0c0,3.2,3.6,6.2,9.3,8.4c0.3,0.1,0.6,0.2,1.1,0.2h45.8
		c0.3,0,0.8-0.1,1.1-0.2c5.7-2.2,9.3-5.1,9.3-8.4l0,0C226.2,131.5,226.2,130.9,226.2,130.8z"/>
	<circle class="st2" cx="192.9" cy="129.9" r="18"/>
</g>
<g id="achteG">
	<g>
		<path class="st2" d="M130.2,186.6L130.2,186.6c0-4.1-3.4-7.9-8.8-10.7c-0.6-0.3-1.4-0.5-2.3-0.5H74.5c-0.8,0-1.5,0.2-2.3,0.5
			c-5.4,2.8-8.8,6.5-8.8,10.6l0,0c0,0.2,0,0.8,0,1l0,0c0,3.2,3.6,6.2,9.3,8.4c0.3,0.1,0.6,0.2,1.1,0.2h45.8c0.3,0,0.8-0.1,1.1-0.2
			c5.7-2.2,9.3-5.1,9.3-8.4l0,0C130.2,187.4,130.2,186.9,130.2,186.6z"/>
		<circle class="st1" cx="96.8" cy="185.9" r="18"/>
	</g>
	<g>
		<path class="st2" d="M226.2,186.6L226.2,186.6c0-4.1-3.4-7.9-8.8-10.7c-0.6-0.3-1.4-0.5-2.3-0.5h-44.6c-0.8,0-1.5,0.2-2.3,0.5
			c-5.4,2.8-8.8,6.5-8.8,10.6l0,0c0,0.2,0,0.8,0,1l0,0c0,3.2,3.6,6.2,9.3,8.4c0.3,0.1,0.6,0.2,1.1,0.2h45.8c0.3,0,0.8-0.1,1.1-0.2
			c5.7-2.2,9.3-5.1,9.3-8.4l0,0C226.2,187.4,226.2,186.8,226.2,186.6z"/>
		<circle class="st0" cx="192.9" cy="185.8" r="18"/>
	</g>
</g>
<g id="siebteG">
	<g>
		<path class="st1" d="M130.2,242.5L130.2,242.5c0-4.1-3.4-7.9-8.8-10.7c-0.6-0.3-1.4-0.5-2.3-0.5H74.5c-0.8,0-1.5,0.2-2.3,0.5
			c-5.4,2.8-8.8,6.5-8.8,10.6l0,0c0,0.2,0,0.8,0,1l0,0c0,3.2,3.6,6.2,9.3,8.4c0.3,0.1,0.6,0.2,1.1,0.2h45.8c0.3,0,0.8-0.1,1.1-0.2
			c5.7-2.2,9.3-5.1,9.3-8.4l0,0C130.2,243.4,130.2,242.7,130.2,242.5z"/>
		<circle class="st2" cx="96.8" cy="241.8" r="18"/>
	</g>
	<g>
		<path class="st0" d="M226.2,242.5L226.2,242.5c0-4.1-3.4-7.9-8.8-10.7c-0.6-0.3-1.4-0.5-2.3-0.5h-44.6c-0.8,0-1.5,0.2-2.3,0.5
			c-5.4,2.8-8.8,6.5-8.8,10.6l0,0c0,0.2,0,0.8,0,1l0,0c0,3.2,3.6,6.2,9.3,8.4c0.3,0.1,0.6,0.2,1.1,0.2h45.8c0.3,0,0.8-0.1,1.1-0.2
			c5.7-2.2,9.3-5.1,9.3-8.4l0,0C226.2,243.3,226.2,242.7,226.2,242.5z"/>
		<circle class="st1" cx="192.9" cy="241.7" r="18"/>
	</g>
</g>
<g id="sechsteG">
	<g>
		<path class="st2" d="M130.2,298.5C130.2,298.5,130.2,298.4,130.2,298.5c0-4.1-3.4-7.9-8.8-10.7c-0.6-0.3-1.4-0.5-2.3-0.5H74.5
			c-0.8,0-1.5,0.2-2.3,0.5c-5.4,2.8-8.8,6.5-8.8,10.6l0,0c0,0.2,0,0.8,0,1l0,0c0,3.2,3.6,6.2,9.3,8.4c0.3,0.1,0.6,0.2,1.1,0.2h45.8
			c0.3,0,0.8-0.1,1.1-0.2c5.7-2.2,9.3-5.1,9.3-8.4l0,0C130.2,299.3,130.2,298.6,130.2,298.5z"/>
		<circle class="st0" cx="96.8" cy="297.6" r="18"/>
	</g>
	<g>
		<path class="st2" d="M226.2,298.4L226.2,298.4c0-4.1-3.4-7.9-8.8-10.7c-0.6-0.3-1.4-0.5-2.3-0.5h-44.6c-0.8,0-1.5,0.2-2.3,0.5
			c-5.4,2.8-8.8,6.5-8.8,10.6l0,0c0,0.2,0,0.8,0,1l0,0c0,3.2,3.6,6.2,9.3,8.4c0.3,0.1,0.6,0.2,1.1,0.2h45.8c0.3,0,0.8-0.1,1.1-0.2
			c5.7-2.2,9.3-5.1,9.3-8.4l0,0C226.2,299.3,226.2,298.6,226.2,298.4z"/>
		<circle class="st0" cx="192.9" cy="297.6" r="18"/>
	</g>
	<g>
		<path class="st1" d="M25.6,298.5C25.6,298.5,25.6,298.4,25.6,298.5c0-4.1-3.4-7.9-8.8-10.7c-0.6-0.3-1.4-0.5-2.3-0.5h-44.6
			c-0.8,0-1.5,0.2-2.3,0.5c-5.4,2.8-8.8,6.5-8.8,10.6l0,0c0,0.2,0,0.8,0,1l0,0c0,3.2,3.6,6.2,9.3,8.4c0.3,0.1,0.6,0.2,1.1,0.2H15
			c0.3,0,0.8-0.1,1.1-0.2c5.7-2.2,9.3-5.1,9.3-8.4l0,0C25.6,299.3,25.6,298.6,25.6,298.5z"/>
		<circle class="st0" cx="-7.7" cy="297.6" r="18"/>
	</g>
</g>
<g id="fünfte_G">
	<g>
		<path class="st1" d="M-79.4,354.4L-79.4,354.4c0-4.1-3.4-7.9-8.8-10.7c-0.6-0.3-1.4-0.5-2.3-0.5H-135c-0.8,0-1.5,0.2-2.3,0.5
			c-5.4,2.8-8.8,6.5-8.8,10.6l0,0c0,0.2,0,0.8,0,1l0,0c0,3.2,3.6,6.2,9.3,8.4c0.3,0.1,0.6,0.2,1.1,0.2h45.9c0.3,0,0.8-0.1,1.1-0.2
			c5.7-2.2,9.3-5.1,9.3-8.4l0,0C-79.4,355.1-79.4,354.6-79.4,354.4z"/>
		<circle class="st2" cx="-112.7" cy="353.5" r="18"/>
	</g>
	<g>
		<path class="st1" d="M130.2,354.4L130.2,354.4c0-4.1-3.4-7.9-8.8-10.7c-0.6-0.3-1.4-0.5-2.3-0.5H74.5c-0.8,0-1.5,0.2-2.3,0.5
			c-5.4,2.8-8.8,6.5-8.8,10.6l0,0c0,0.2,0,0.8,0,1l0,0c0,3.2,3.6,6.2,9.3,8.4c0.3,0.1,0.6,0.2,1.1,0.2h45.8c0.3,0,0.8-0.1,1.1-0.2
			c5.7-2.2,9.3-5.1,9.3-8.4l0,0C130.2,355.1,130.2,354.6,130.2,354.4z"/>
		<circle class="st2" cx="96.8" cy="353.5" r="18"/>
	</g>
	<g>
		<path class="st2" d="M226.2,354.4C226.2,354.4,226.2,354.3,226.2,354.4c0-4.1-3.4-7.9-8.8-10.7c-0.6-0.3-1.4-0.5-2.3-0.5h-44.6
			c-0.8,0-1.5,0.2-2.3,0.5c-5.4,2.8-8.8,6.5-8.8,10.6l0,0c0,0.2,0,0.8,0,1l0,0c0,3.2,3.6,6.2,9.3,8.4c0.3,0.1,0.6,0.2,1.1,0.2h45.8
			c0.3,0,0.8-0.1,1.1-0.2c5.7-2.2,9.3-5.1,9.3-8.4l0,0C226.2,355.1,226.2,354.5,226.2,354.4z"/>
		<circle class="st1" cx="192.9" cy="353.5" r="18"/>
	</g>
	<g>
		<path class="st0" d="M25.6,354.4L25.6,354.4c0-4.1-3.4-7.9-8.8-10.7c-0.6-0.3-1.4-0.5-2.3-0.5h-44.6c-0.8,0-1.5,0.2-2.3,0.5
			c-5.4,2.8-8.8,6.5-8.8,10.6l0,0c0,0.2,0,0.8,0,1l0,0c0,3.2,3.6,6.2,9.3,8.4c0.3,0.1,0.6,0.2,1.1,0.2H15c0.3,0,0.8-0.1,1.1-0.2
			c5.7-2.2,9.3-5.1,9.3-8.4l0,0C25.6,355.1,25.6,354.6,25.6,354.4z"/>
		<circle class="st1" cx="-7.7" cy="353.5" r="18"/>
	</g>
</g>
<g id="vierteG">
	<g>
		<path class="st1" d="M-79.4,410.3L-79.4,410.3c0-4.1-3.4-7.9-8.8-10.7c-0.6-0.3-1.4-0.5-2.3-0.5H-135c-0.8,0-1.5,0.2-2.3,0.5
			c-5.4,2.8-8.8,6.5-8.8,10.6l0,0c0,0.2,0,0.8,0,1l0,0c0,3.2,3.6,6.2,9.3,8.4c0.3,0.1,0.6,0.2,1.1,0.2h45.9c0.3,0,0.8-0.1,1.1-0.2
			c5.7-2.2,9.3-5.1,9.3-8.4l0,0C-79.4,411.1-79.4,410.5-79.4,410.3z"/>
		<circle class="st0" cx="-112.7" cy="409.5" r="18"/>
	</g>
	<g>
		<path class="st2" d="M130.2,410.3L130.2,410.3c0-4.1-3.4-7.9-8.8-10.7c-0.6-0.3-1.4-0.5-2.3-0.5H74.5c-0.8,0-1.5,0.2-2.3,0.5
			c-5.4,2.8-8.8,6.5-8.8,10.6l0,0c0,0.2,0,0.8,0,1l0,0c0,3.2,3.6,6.2,9.3,8.4c0.3,0.1,0.6,0.2,1.1,0.2h45.8c0.3,0,0.8-0.1,1.1-0.2
			c5.7-2.2,9.3-5.1,9.3-8.4l0,0C130.2,411.1,130.2,410.5,130.2,410.3z"/>
		<circle class="st0" cx="96.8" cy="409.5" r="18"/>
	</g>
	<g>
		<path class="st0" d="M226.2,410.3L226.2,410.3c0-4.1-3.4-7.9-8.8-10.7c-0.6-0.3-1.4-0.5-2.3-0.5h-44.6c-0.8,0-1.5,0.2-2.3,0.5
			c-5.4,2.8-8.8,6.5-8.8,10.6l0,0c0,0.2,0,0.8,0,1l0,0c0,3.2,3.6,6.2,9.3,8.4c0.3,0.1,0.6,0.2,1.1,0.2h45.8c0.3,0,0.8-0.1,1.1-0.2
			c5.7-2.2,9.3-5.1,9.3-8.4l0,0C226.2,411,226.2,410.5,226.2,410.3z"/>
		<circle class="st1" cx="192.9" cy="409.4" r="18"/>
	</g>
	<g>
		<path class="st0" d="M25.6,410.3L25.6,410.3c0-4.1-3.4-7.9-8.8-10.7c-0.6-0.3-1.4-0.5-2.3-0.5h-44.6c-0.8,0-1.5,0.2-2.3,0.5
			c-5.4,2.8-8.8,6.5-8.8,10.6l0,0c0,0.2,0,0.8,0,1l0,0c0,3.2,3.6,6.2,9.3,8.4c0.3,0.1,0.6,0.2,1.1,0.2H15c0.3,0,0.8-0.1,1.1-0.2
			c5.7-2.2,9.3-5.1,9.3-8.4l0,0C25.6,411.1,25.6,410.5,25.6,410.3z"/>
		<circle class="st2" cx="-7.7" cy="409.5" r="18"/>
	</g>
</g>
<g id="dritteG">
	<g>
		<path class="st2" d="M-79.4,466.2L-79.4,466.2c0-4.1-3.4-7.9-8.8-10.7c-0.6-0.3-1.4-0.5-2.3-0.5H-135c-0.8,0-1.5,0.2-2.3,0.5
			c-5.4,2.8-8.8,6.5-8.8,10.6l0,0c0,0.2,0,0.8,0,1l0,0c0,3.2,3.6,6.2,9.3,8.4c0.3,0.1,0.6,0.2,1.1,0.2h45.9c0.3,0,0.8-0.1,1.1-0.2
			c5.7-2.2,9.3-5.1,9.3-8.4l0,0C-79.4,467-79.4,466.5-79.4,466.2z"/>
		<circle class="st1" cx="-112.7" cy="465.4" r="18"/>
	</g>
	<g>
		<path class="st0" d="M130.2,466.2L130.2,466.2c0-4.1-3.4-7.9-8.8-10.7c-0.6-0.3-1.4-0.5-2.3-0.5H74.5c-0.8,0-1.5,0.2-2.3,0.5
			c-5.4,2.8-8.8,6.5-8.8,10.6l0,0c0,0.2,0,0.8,0,1l0,0c0,3.2,3.6,6.2,9.3,8.4c0.3,0.1,0.6,0.2,1.1,0.2h45.8c0.3,0,0.8-0.1,1.1-0.2
			c5.7-2.2,9.3-5.1,9.3-8.4l0,0C130.2,467,130.2,466.5,130.2,466.2z"/>
		<circle class="st1" cx="96.8" cy="465.4" r="18"/>
	</g>
	<g>
		<path class="st1" d="M226.2,466.1L226.2,466.1c0-4.1-3.4-7.9-8.8-10.7c-0.6-0.3-1.4-0.5-2.3-0.5h-44.6c-0.8,0-1.5,0.2-2.3,0.5
			c-5.4,2.8-8.8,6.5-8.8,10.6l0,0c0,0.2,0,0.8,0,1l0,0c0,3.2,3.6,6.2,9.3,8.4c0.3,0.1,0.6,0.2,1.1,0.2h45.8c0.3,0,0.8-0.1,1.1-0.2
			c5.7-2.2,9.3-5.1,9.3-8.4l0,0C226.2,467,226.2,466.3,226.2,466.1z"/>
		<circle class="st2" cx="192.9" cy="465.4" r="18"/>
	</g>
	<g>
		<path class="st1" d="M25.6,466.2L25.6,466.2c0-4.1-3.4-7.9-8.8-10.7c-0.6-0.3-1.4-0.5-2.3-0.5h-44.6c-0.8,0-1.5,0.2-2.3,0.5
			c-5.4,2.8-8.8,6.5-8.8,10.6l0,0c0,0.2,0,0.8,0,1l0,0c0,3.2,3.6,6.2,9.3,8.4c0.3,0.1,0.6,0.2,1.1,0.2H15c0.3,0,0.8-0.1,1.1-0.2
			c5.7-2.2,9.3-5.1,9.3-8.4l0,0C25.6,467,25.6,466.5,25.6,466.2z"/>
		<circle class="st0" cx="-7.7" cy="465.4" r="18"/>
	</g>
</g>
<g id="zweiteG">
	<g>
		<path class="st2" d="M-79.4,525.8L-79.4,525.8c0-4.1-3.4-7.9-8.8-10.7c-0.6-0.3-1.4-0.5-2.3-0.5H-135c-0.8,0-1.5,0.2-2.3,0.5
			c-5.4,2.8-8.8,6.5-8.8,10.6l0,0c0,0.2,0,0.8,0,1l0,0c0,3.2,3.6,6.2,9.3,8.4c0.3,0.1,0.6,0.2,1.1,0.2h45.9c0.3,0,0.8-0.1,1.1-0.2
			c5.7-2.2,9.3-5.1,9.3-8.4l0,0C-79.4,526.7-79.4,526-79.4,525.8z"/>
		<circle class="st0" cx="-112.7" cy="525" r="18"/>
	</g>
	<g>
		<path class="st2" d="M130.2,522.1L130.2,522.1c0-4.1-3.4-7.9-8.8-10.7c-0.6-0.3-1.4-0.5-2.3-0.5H74.5c-0.8,0-1.5,0.2-2.3,0.5
			c-5.4,2.8-8.8,6.5-8.8,10.6l0,0c0,0.2,0,0.8,0,1l0,0c0,3.2,3.6,6.2,9.3,8.4c0.3,0.1,0.6,0.2,1.1,0.2h45.8c0.3,0,0.8-0.1,1.1-0.2
			c5.7-2.2,9.3-5.1,9.3-8.4l0,0C130.2,523,130.2,522.3,130.2,522.1z"/>
		<circle class="st0" cx="96.8" cy="521.4" r="18"/>
	</g>
	<g>
		<path class="st0" d="M226.2,522.1L226.2,522.1c0-4.1-3.4-7.9-8.8-10.7c-0.6-0.3-1.4-0.5-2.3-0.5h-44.6c-0.8,0-1.5,0.2-2.3,0.5
			c-5.4,2.8-8.8,6.5-8.8,10.6l0,0c0,0.2,0,0.8,0,1l0,0c0,3.2,3.6,6.2,9.3,8.4c0.3,0.1,0.6,0.2,1.1,0.2h45.8c0.3,0,0.8-0.1,1.1-0.2
			c5.7-2.2,9.3-5.1,9.3-8.4l0,0C226.2,522.9,226.2,522.3,226.2,522.1z"/>
		<circle class="st1" cx="192.9" cy="521.2" r="18"/>
	</g>
	<g>
		<path class="st1" d="M25.6,525.8L25.6,525.8c0-4.1-3.4-7.9-8.8-10.7c-0.6-0.3-1.4-0.5-2.3-0.5h-44.6c-0.8,0-1.5,0.2-2.3,0.5
			c-5.4,2.8-8.8,6.5-8.8,10.6l0,0c0,0.2,0,0.8,0,1l0,0c0,3.2,3.6,6.2,9.3,8.4c0.3,0.1,0.6,0.2,1.1,0.2H15c0.3,0,0.8-0.1,1.1-0.2
			c5.7-2.2,9.3-5.1,9.3-8.4l0,0C25.6,526.7,25.6,526,25.6,525.8z"/>
		<circle class="st2" cx="-7.7" cy="525" r="18"/>
	</g>
</g>
<g id="ersteG">
	<g>
		<path class="st0" d="M-79.4,578.1L-79.4,578.1c0-4.1-3.4-7.9-8.8-10.7c-0.6-0.3-1.4-0.5-2.3-0.5H-135c-0.8,0-1.5,0.2-2.3,0.5
			c-5.4,2.8-8.8,6.5-8.8,10.6l0,0c0,0.2,0,0.8,0,1l0,0c0,3.2,3.6,6.2,9.3,8.4c0.3,0.1,0.6,0.2,1.1,0.2h45.9c0.3,0,0.8-0.1,1.1-0.2
			c5.7-2.2,9.3-5.1,9.3-8.4l0,0C-79.4,578.9-79.4,578.2-79.4,578.1z"/>
		<circle class="st1" cx="-112.7" cy="577.2" r="18"/>
	</g>
	<g>
		<path class="st1" d="M130.2,578.1L130.2,578.1c0-4.1-3.4-7.9-8.8-10.7c-0.6-0.3-1.4-0.5-2.3-0.5H74.5c-0.8,0-1.5,0.2-2.3,0.5
			c-5.4,2.8-8.8,6.5-8.8,10.6l0,0c0,0.2,0,0.8,0,1l0,0c0,3.2,3.6,6.2,9.3,8.4c0.3,0.1,0.6,0.2,1.1,0.2h45.8c0.3,0,0.8-0.1,1.1-0.2
			c5.7-2.2,9.3-5.1,9.3-8.4l0,0C130.2,578.9,130.2,578.2,130.2,578.1z"/>
		<circle class="st2" cx="96.8" cy="577.2" r="18"/>
	</g>
	<g>
		<path class="st1" d="M226.2,578L226.2,578c0-4.1-3.4-7.9-8.8-10.7c-0.6-0.3-1.4-0.5-2.3-0.5h-44.6c-0.8,0-1.5,0.2-2.3,0.5
			c-5.4,2.8-8.8,6.5-8.8,10.6l0,0c0,0.2,0,0.8,0,1l0,0c0,3.2,3.6,6.2,9.3,8.4c0.3,0.1,0.6,0.2,1.1,0.2h45.8c0.3,0,0.8-0.1,1.1-0.2
			c5.7-2.2,9.3-5.1,9.3-8.4l0,0C226.2,578.9,226.2,578.2,226.2,578z"/>
		<circle class="st0" cx="192.9" cy="577.2" r="18"/>
	</g>
	<g>
		<path class="st2" d="M25.6,578.1L25.6,578.1c0-4.1-3.4-7.9-8.8-10.7c-0.6-0.3-1.4-0.5-2.3-0.5h-44.6c-0.8,0-1.5,0.2-2.3,0.5
			c-5.4,2.8-8.8,6.5-8.8,10.6l0,0c0,0.2,0,0.8,0,1l0,0c0,3.2,3.6,6.2,9.3,8.4c0.3,0.1,0.6,0.2,1.1,0.2H15c0.3,0,0.8-0.1,1.1-0.2
			c5.7-2.2,9.3-5.1,9.3-8.4l0,0C25.6,578.9,25.6,578.2,25.6,578.1z"/>
		<circle class="st0" cx="-7.7" cy="577.2" r="18"/>
	</g>
</g>
</svg>
