<?xml version="1.0" encoding="utf-8"?>
<!-- Generator: Adobe Illustrator 18.0.0, SVG Export Plug-In . SVG Version: 6.00 Build 0)  -->
<!DOCTYPE svg PUBLIC "-//W3C//DTD SVG 1.1//EN" "http://www.w3.org/Graphics/SVG/1.1/DTD/svg11.dtd" [
	<!ENTITY ns_flows "http://ns.adobe.com/Flows/1.0/">
	<!ENTITY ns_extend "http://ns.adobe.com/Extensibility/1.0/">
	<!ENTITY ns_ai "http://ns.adobe.com/AdobeIllustrator/10.0/">
	<!ENTITY ns_graphs "http://ns.adobe.com/Graphs/1.0/">
	<!ENTITY ns_vars "http://ns.adobe.com/Variables/1.0/">
	<!ENTITY ns_imrep "http://ns.adobe.com/ImageReplacement/1.0/">
	<!ENTITY ns_sfw "http://ns.adobe.com/SaveForWeb/1.0/">
	<!ENTITY ns_custom "http://ns.adobe.com/GenericCustomNamespace/1.0/">
	<!ENTITY ns_adobe_xpath "http://ns.adobe.com/XPath/1.0/">
]>
<svg version="1.1" id="schlange" xmlns:x="&ns_extend;" xmlns:i="&ns_ai;" xmlns:graph="&ns_graphs;"
	 xmlns="http://www.w3.org/2000/svg" xmlns:xlink="http://www.w3.org/1999/xlink" xmlns:a="http://ns.adobe.com/AdobeSVGViewerExtensions/3.0/"
	 x="0px" y="0px" viewBox="20.4 0 409 620" enable-background="new 20.4 0 409 620" xml:space="preserve">
<metadata>
	<sfw  xmlns="&ns_sfw;">
		<slices></slices>
		<sliceSourceBounds  y="0.1" x="55.2" bottomLeftOrigin="true" width="374.3" height="595.2"></sliceSourceBounds>
	</sfw>
</metadata>
<g id="elfteG">
	<path fill="#27348B" d="M427.4,18.9L427.4,18.9c0-4.1-3.4-7.9-8.8-10.7c-0.6-0.3-1.4-0.5-2.3-0.5h-44.6c-0.8,0-1.5,0.2-2.3,0.5
		c-5.4,2.8-8.8,6.5-8.8,10.6l0,0c0,0.2,0,0.8,0,1l0,0c0,3.2,3.6,6.2,9.3,8.4c0.3,0.1,0.6,0.2,1.1,0.2h45.8c0.3,0,0.8-0.1,1.1-0.2
		c5.7-2.2,9.3-5.1,9.3-8.4l0,0C427.4,19.7,427.4,19.1,427.4,18.9z"/>
	<circle fill="#F9B233" cx="394.1" cy="18" r="18"/>
</g>
<g id="zehnteG">
	<path fill="#F9B233" d="M429.4,74.8L429.4,74.8c0-4.1-3.4-7.9-8.8-10.7c-0.6-0.3-1.4-0.5-2.3-0.5h-44.6c-0.8,0-1.5,0.2-2.3,0.5
		c-5.4,2.8-8.8,6.5-8.8,10.6l0,0c0,0.2,0,0.8,0,1l0,0c0,3.2,3.6,6.2,9.3,8.4c0.3,0.1,0.6,0.2,1.1,0.2h45.8c0.3,0,0.8-0.1,1.1-0.2
		c5.7-2.2,9.3-5.1,9.3-8.4l0,0C429.4,75.7,429.4,75,429.4,74.8z"/>
	<circle fill="#27348B" cx="396.1" cy="74" r="18"/>
</g>
<g id="neunteG">
	<path fill="#F9B233" d="M427.4,130.8C427.4,130.8,427.4,130.7,427.4,130.8c0-4.1-3.4-7.9-8.8-10.7c-0.6-0.3-1.4-0.5-2.3-0.5h-44.6
		c-0.8,0-1.5,0.2-2.3,0.5c-5.4,2.8-8.8,6.5-8.8,10.6l0,0c0,0.2,0,0.8,0,1l0,0c0,3.2,3.6,6.2,9.3,8.4c0.3,0.1,0.6,0.2,1.1,0.2h45.8
		c0.3,0,0.8-0.1,1.1-0.2c5.7-2.2,9.3-5.1,9.3-8.4l0,0C427.4,131.5,427.4,130.9,427.4,130.8z"/>
	<circle fill="#E30613" cx="394.1" cy="129.9" r="18"/>
</g>
<g id="achteG">
	<g>
		<path fill="#E30613" d="M331.4,186.6L331.4,186.6c0-4.1-3.4-7.9-8.8-10.7c-0.6-0.3-1.4-0.5-2.3-0.5h-44.6c-0.8,0-1.5,0.2-2.3,0.5
			c-5.4,2.8-8.8,6.5-8.8,10.6l0,0c0,0.2,0,0.8,0,1l0,0c0,3.2,3.6,6.2,9.3,8.4c0.3,0.1,0.6,0.2,1.1,0.2h45.8c0.3,0,0.8-0.1,1.1-0.2
			c5.7-2.2,9.3-5.1,9.3-8.4l0,0C331.4,187.4,331.4,186.9,331.4,186.6z"/>
		<circle fill="#F9B233" cx="298" cy="185.9" r="18"/>
	</g>
	<g>
		<path fill="#E30613" d="M427.4,186.6L427.4,186.6c0-4.1-3.4-7.9-8.8-10.7c-0.6-0.3-1.4-0.5-2.3-0.5h-44.6c-0.8,0-1.5,0.2-2.3,0.5
			c-5.4,2.8-8.8,6.5-8.8,10.6l0,0c0,0.2,0,0.8,0,1l0,0c0,3.2,3.6,6.2,9.3,8.4c0.3,0.1,0.6,0.2,1.1,0.2h45.8c0.3,0,0.8-0.1,1.1-0.2
			c5.7-2.2,9.3-5.1,9.3-8.4l0,0C427.4,187.4,427.4,186.8,427.4,186.6z"/>
		<circle fill="#27348B" cx="394.1" cy="185.8" r="18"/>
	</g>
</g>
<g id="siebteG">
	<g>
		<path fill="#F9B233" d="M331.4,242.5L331.4,242.5c0-4.1-3.4-7.9-8.8-10.7c-0.6-0.3-1.4-0.5-2.3-0.5h-44.6c-0.8,0-1.5,0.2-2.3,0.5
			c-5.4,2.8-8.8,6.5-8.8,10.6l0,0c0,0.2,0,0.8,0,1l0,0c0,3.2,3.6,6.2,9.3,8.4c0.3,0.1,0.6,0.2,1.1,0.2h45.8c0.3,0,0.8-0.1,1.1-0.2
			c5.7-2.2,9.3-5.1,9.3-8.4l0,0C331.4,243.4,331.4,242.7,331.4,242.5z"/>
		<circle fill="#E30613" cx="298" cy="241.8" r="18"/>
	</g>
	<g>
		<path fill="#27348B" d="M427.4,242.5L427.4,242.5c0-4.1-3.4-7.9-8.8-10.7c-0.6-0.3-1.4-0.5-2.3-0.5h-44.6c-0.8,0-1.5,0.2-2.3,0.5
			c-5.4,2.8-8.8,6.5-8.8,10.6l0,0c0,0.2,0,0.8,0,1l0,0c0,3.2,3.6,6.2,9.3,8.4c0.3,0.1,0.6,0.2,1.1,0.2h45.8c0.3,0,0.8-0.1,1.1-0.2
			c5.7-2.2,9.3-5.1,9.3-8.4l0,0C427.4,243.3,427.4,242.7,427.4,242.5z"/>
		<circle fill="#F9B233" cx="394.1" cy="241.7" r="18"/>
	</g>
</g>
<g id="sechsteG">
	<g>
		<path fill="#E30613" d="M331.4,298.5C331.4,298.5,331.4,298.4,331.4,298.5c0-4.1-3.4-7.9-8.8-10.7c-0.6-0.3-1.4-0.5-2.3-0.5h-44.6
			c-0.8,0-1.5,0.2-2.3,0.5c-5.4,2.8-8.8,6.5-8.8,10.6l0,0c0,0.2,0,0.8,0,1l0,0c0,3.2,3.6,6.2,9.3,8.4c0.3,0.1,0.6,0.2,1.1,0.2h45.8
			c0.3,0,0.8-0.1,1.1-0.2c5.7-2.2,9.3-5.1,9.3-8.4l0,0C331.4,299.3,331.4,298.6,331.4,298.5z"/>
		<circle fill="#27348B" cx="298" cy="297.6" r="18"/>
	</g>
	<g>
		<path fill="#E30613" d="M427.4,298.4L427.4,298.4c0-4.1-3.4-7.9-8.8-10.7c-0.6-0.3-1.4-0.5-2.3-0.5h-44.6c-0.8,0-1.5,0.2-2.3,0.5
			c-5.4,2.8-8.8,6.5-8.8,10.6l0,0c0,0.2,0,0.8,0,1l0,0c0,3.2,3.6,6.2,9.3,8.4c0.3,0.1,0.6,0.2,1.1,0.2h45.8c0.3,0,0.8-0.1,1.1-0.2
			c5.7-2.2,9.3-5.1,9.3-8.4l0,0C427.4,299.3,427.4,298.6,427.4,298.4z"/>
		<circle fill="#27348B" cx="394.1" cy="297.6" r="18"/>
	</g>
	<g>
		<path fill="#F9B233" d="M226.8,298.5C226.8,298.5,226.8,298.4,226.8,298.5c0-4.1-3.4-7.9-8.8-10.7c-0.6-0.3-1.4-0.5-2.3-0.5h-44.6
			c-0.8,0-1.5,0.2-2.3,0.5c-5.4,2.8-8.8,6.5-8.8,10.6l0,0c0,0.2,0,0.8,0,1l0,0c0,3.2,3.6,6.2,9.3,8.4c0.3,0.1,0.6,0.2,1.1,0.2h45.8
			c0.3,0,0.8-0.1,1.1-0.2c5.7-2.2,9.3-5.1,9.3-8.4l0,0C226.8,299.3,226.8,298.6,226.8,298.5z"/>
		<circle fill="#27348B" cx="193.5" cy="297.6" r="18"/>
	</g>
</g>
<g id="fünfte_G">
	<g>
		<path fill="#F9B233" d="M121.8,354.4L121.8,354.4c0-4.1-3.4-7.9-8.8-10.7c-0.6-0.3-1.4-0.5-2.3-0.5H66.3c-0.8,0-1.5,0.2-2.3,0.5
			c-5.4,2.8-8.8,6.5-8.8,10.6l0,0c0,0.2,0,0.8,0,1l0,0c0,3.2,3.6,6.2,9.3,8.4c0.3,0.1,0.6,0.2,1.1,0.2h45.9c0.3,0,0.8-0.1,1.1-0.2
			c5.7-2.2,9.3-5.1,9.3-8.4l0,0C121.8,355.1,121.8,354.6,121.8,354.4z"/>
		<circle fill="#E30613" cx="88.5" cy="353.5" r="18"/>
	</g>
	<g>
		<path fill="#F9B233" d="M331.4,354.4L331.4,354.4c0-4.1-3.4-7.9-8.8-10.7c-0.6-0.3-1.4-0.5-2.3-0.5h-44.6c-0.8,0-1.5,0.2-2.3,0.5
			c-5.4,2.8-8.8,6.5-8.8,10.6l0,0c0,0.2,0,0.8,0,1l0,0c0,3.2,3.6,6.2,9.3,8.4c0.3,0.1,0.6,0.2,1.1,0.2h45.8c0.3,0,0.8-0.1,1.1-0.2
			c5.7-2.2,9.3-5.1,9.3-8.4l0,0C331.4,355.1,331.4,354.6,331.4,354.4z"/>
		<circle fill="#E30613" cx="298" cy="353.5" r="18"/>
	</g>
	<g>
		<path fill="#E30613" d="M427.4,354.4C427.4,354.4,427.4,354.3,427.4,354.4c0-4.1-3.4-7.9-8.8-10.7c-0.6-0.3-1.4-0.5-2.3-0.5h-44.6
			c-0.8,0-1.5,0.2-2.3,0.5c-5.4,2.8-8.8,6.5-8.8,10.6l0,0c0,0.2,0,0.8,0,1l0,0c0,3.2,3.6,6.2,9.3,8.4c0.3,0.1,0.6,0.2,1.1,0.2h45.8
			c0.3,0,0.8-0.1,1.1-0.2c5.7-2.2,9.3-5.1,9.3-8.4l0,0C427.4,355.1,427.4,354.5,427.4,354.4z"/>
		<circle fill="#F9B233" cx="394.1" cy="353.5" r="18"/>
	</g>
	<g>
		<path fill="#27348B" d="M226.8,354.4L226.8,354.4c0-4.1-3.4-7.9-8.8-10.7c-0.6-0.3-1.4-0.5-2.3-0.5h-44.6c-0.8,0-1.5,0.2-2.3,0.5
			c-5.4,2.8-8.8,6.5-8.8,10.6l0,0c0,0.2,0,0.8,0,1l0,0c0,3.2,3.6,6.2,9.3,8.4c0.3,0.1,0.6,0.2,1.1,0.2h45.8c0.3,0,0.8-0.1,1.1-0.2
			c5.7-2.2,9.3-5.1,9.3-8.4l0,0C226.8,355.1,226.8,354.6,226.8,354.4z"/>
		<circle fill="#F9B233" cx="193.5" cy="353.5" r="18"/>
	</g>
</g>
<g id="vierteG">
	<g>
		<path fill="#F9B233" d="M121.8,410.3L121.8,410.3c0-4.1-3.4-7.9-8.8-10.7c-0.6-0.3-1.4-0.5-2.3-0.5H66.3c-0.8,0-1.5,0.2-2.3,0.5
			c-5.4,2.8-8.8,6.5-8.8,10.6l0,0c0,0.2,0,0.8,0,1l0,0c0,3.2,3.6,6.2,9.3,8.4c0.3,0.1,0.6,0.2,1.1,0.2h45.9c0.3,0,0.8-0.1,1.1-0.2
			c5.7-2.2,9.3-5.1,9.3-8.4l0,0C121.8,411.1,121.8,410.5,121.8,410.3z"/>
		<circle fill="#27348B" cx="88.5" cy="409.5" r="18"/>
	</g>
	<g>
		<path fill="#E30613" d="M331.4,410.3L331.4,410.3c0-4.1-3.4-7.9-8.8-10.7c-0.6-0.3-1.4-0.5-2.3-0.5h-44.6c-0.8,0-1.5,0.2-2.3,0.5
			c-5.4,2.8-8.8,6.5-8.8,10.6l0,0c0,0.2,0,0.8,0,1l0,0c0,3.2,3.6,6.2,9.3,8.4c0.3,0.1,0.6,0.2,1.1,0.2h45.8c0.3,0,0.8-0.1,1.1-0.2
			c5.7-2.2,9.3-5.1,9.3-8.4l0,0C331.4,411.1,331.4,410.5,331.4,410.3z"/>
		<circle fill="#27348B" cx="298" cy="409.5" r="18"/>
	</g>
	<g>
		<path fill="#27348B" d="M427.4,410.3L427.4,410.3c0-4.1-3.4-7.9-8.8-10.7c-0.6-0.3-1.4-0.5-2.3-0.5h-44.6c-0.8,0-1.5,0.2-2.3,0.5
			c-5.4,2.8-8.8,6.5-8.8,10.6l0,0c0,0.2,0,0.8,0,1l0,0c0,3.2,3.6,6.2,9.3,8.4c0.3,0.1,0.6,0.2,1.1,0.2h45.8c0.3,0,0.8-0.1,1.1-0.2
			c5.7-2.2,9.3-5.1,9.3-8.4l0,0C427.4,411,427.4,410.5,427.4,410.3z"/>
		<circle fill="#F9B233" cx="394.1" cy="409.4" r="18"/>
	</g>
	<g>
		<path fill="#27348B" d="M226.8,410.3L226.8,410.3c0-4.1-3.4-7.9-8.8-10.7c-0.6-0.3-1.4-0.5-2.3-0.5h-44.6c-0.8,0-1.5,0.2-2.3,0.5
			c-5.4,2.8-8.8,6.5-8.8,10.6l0,0c0,0.2,0,0.8,0,1l0,0c0,3.2,3.6,6.2,9.3,8.4c0.3,0.1,0.6,0.2,1.1,0.2h45.8c0.3,0,0.8-0.1,1.1-0.2
			c5.7-2.2,9.3-5.1,9.3-8.4l0,0C226.8,411.1,226.8,410.5,226.8,410.3z"/>
		<circle fill="#E30613" cx="193.5" cy="409.5" r="18"/>
	</g>
</g>
<g id="dritteG">
	<g>
		<path fill="#E30613" d="M121.8,466.2L121.8,466.2c0-4.1-3.4-7.9-8.8-10.7c-0.6-0.3-1.4-0.5-2.3-0.5H66.3c-0.8,0-1.5,0.2-2.3,0.5
			c-5.4,2.8-8.8,6.5-8.8,10.6l0,0c0,0.2,0,0.8,0,1l0,0c0,3.2,3.6,6.2,9.3,8.4c0.3,0.1,0.6,0.2,1.1,0.2h45.9c0.3,0,0.8-0.1,1.1-0.2
			c5.7-2.2,9.3-5.1,9.3-8.4l0,0C121.8,467,121.8,466.5,121.8,466.2z"/>
		<circle fill="#F9B233" cx="88.5" cy="465.4" r="18"/>
	</g>
	<g>
		<path fill="#27348B" d="M331.4,466.2L331.4,466.2c0-4.1-3.4-7.9-8.8-10.7c-0.6-0.3-1.4-0.5-2.3-0.5h-44.6c-0.8,0-1.5,0.2-2.3,0.5
			c-5.4,2.8-8.8,6.5-8.8,10.6l0,0c0,0.2,0,0.8,0,1l0,0c0,3.2,3.6,6.2,9.3,8.4c0.3,0.1,0.6,0.2,1.1,0.2h45.8c0.3,0,0.8-0.1,1.1-0.2
			c5.7-2.2,9.3-5.1,9.3-8.4l0,0C331.4,467,331.4,466.5,331.4,466.2z"/>
		<circle fill="#F9B233" cx="298" cy="465.4" r="18"/>
	</g>
	<g>
		<path fill="#F9B233" d="M427.4,466.1L427.4,466.1c0-4.1-3.4-7.9-8.8-10.7c-0.6-0.3-1.4-0.5-2.3-0.5h-44.6c-0.8,0-1.5,0.2-2.3,0.5
			c-5.4,2.8-8.8,6.5-8.8,10.6l0,0c0,0.2,0,0.8,0,1l0,0c0,3.2,3.6,6.2,9.3,8.4c0.3,0.1,0.6,0.2,1.1,0.2h45.8c0.3,0,0.8-0.1,1.1-0.2
			c5.7-2.2,9.3-5.1,9.3-8.4l0,0C427.4,467,427.4,466.3,427.4,466.1z"/>
		<circle fill="#E30613" cx="394.1" cy="465.4" r="18"/>
	</g>
	<g>
		<path fill="#F9B233" d="M226.8,466.2L226.8,466.2c0-4.1-3.4-7.9-8.8-10.7c-0.6-0.3-1.4-0.5-2.3-0.5h-44.6c-0.8,0-1.5,0.2-2.3,0.5
			c-5.4,2.8-8.8,6.5-8.8,10.6l0,0c0,0.2,0,0.8,0,1l0,0c0,3.2,3.6,6.2,9.3,8.4c0.3,0.1,0.6,0.2,1.1,0.2h45.8c0.3,0,0.8-0.1,1.1-0.2
			c5.7-2.2,9.3-5.1,9.3-8.4l0,0C226.8,467,226.8,466.5,226.8,466.2z"/>
		<circle fill="#27348B" cx="193.5" cy="465.4" r="18"/>
	</g>
</g>
<g id="zweiteG">
	<g>
		<path fill="#E30613" d="M121.8,525.8L121.8,525.8c0-4.1-3.4-7.9-8.8-10.7c-0.6-0.3-1.4-0.5-2.3-0.5H66.3c-0.8,0-1.5,0.2-2.3,0.5
			c-5.4,2.8-8.8,6.5-8.8,10.6l0,0c0,0.2,0,0.8,0,1l0,0c0,3.2,3.6,6.2,9.3,8.4c0.3,0.1,0.6,0.2,1.1,0.2h45.9c0.3,0,0.8-0.1,1.1-0.2
			c5.7-2.2,9.3-5.1,9.3-8.4l0,0C121.8,526.7,121.8,526,121.8,525.8z"/>
		<circle fill="#27348B" cx="88.5" cy="525" r="18"/>
	</g>
	<g>
		<path fill="#E30613" d="M331.4,522.1L331.4,522.1c0-4.1-3.4-7.9-8.8-10.7c-0.6-0.3-1.4-0.5-2.3-0.5h-44.6c-0.8,0-1.5,0.2-2.3,0.5
			c-5.4,2.8-8.8,6.5-8.8,10.6l0,0c0,0.2,0,0.8,0,1l0,0c0,3.2,3.6,6.2,9.3,8.4c0.3,0.1,0.6,0.2,1.1,0.2h45.8c0.3,0,0.8-0.1,1.1-0.2
			c5.7-2.2,9.3-5.1,9.3-8.4l0,0C331.4,523,331.4,522.3,331.4,522.1z"/>
		<circle fill="#27348B" cx="298" cy="521.4" r="18"/>
	</g>
	<g>
		<path fill="#27348B" d="M427.4,522.1L427.4,522.1c0-4.1-3.4-7.9-8.8-10.7c-0.6-0.3-1.4-0.5-2.3-0.5h-44.6c-0.8,0-1.5,0.2-2.3,0.5
			c-5.4,2.8-8.8,6.5-8.8,10.6l0,0c0,0.2,0,0.8,0,1l0,0c0,3.2,3.6,6.2,9.3,8.4c0.3,0.1,0.6,0.2,1.1,0.2h45.8c0.3,0,0.8-0.1,1.1-0.2
			c5.7-2.2,9.3-5.1,9.3-8.4l0,0C427.4,522.9,427.4,522.3,427.4,522.1z"/>
		<circle fill="#F9B233" cx="394.1" cy="521.2" r="18"/>
	</g>
	<g>
		<path fill="#F9B233" d="M226.8,525.8L226.8,525.8c0-4.1-3.4-7.9-8.8-10.7c-0.6-0.3-1.4-0.5-2.3-0.5h-44.6c-0.8,0-1.5,0.2-2.3,0.5
			c-5.4,2.8-8.8,6.5-8.8,10.6l0,0c0,0.2,0,0.8,0,1l0,0c0,3.2,3.6,6.2,9.3,8.4c0.3,0.1,0.6,0.2,1.1,0.2h45.8c0.3,0,0.8-0.1,1.1-0.2
			c5.7-2.2,9.3-5.1,9.3-8.4l0,0C226.8,526.7,226.8,526,226.8,525.8z"/>
		<circle fill="#E30613" cx="193.5" cy="525" r="18"/>
	</g>
</g>
<g id="ersteG">
	<g>
		<path fill="#27348B" d="M121.8,578.1L121.8,578.1c0-4.1-3.4-7.9-8.8-10.7c-0.6-0.3-1.4-0.5-2.3-0.5H66.3c-0.8,0-1.5,0.2-2.3,0.5
			c-5.4,2.8-8.8,6.5-8.8,10.6l0,0c0,0.2,0,0.8,0,1l0,0c0,3.2,3.6,6.2,9.3,8.4c0.3,0.1,0.6,0.2,1.1,0.2h45.9c0.3,0,0.8-0.1,1.1-0.2
			c5.7-2.2,9.3-5.1,9.3-8.4l0,0C121.8,578.9,121.8,578.2,121.8,578.1z"/>
		<circle fill="#F9B233" cx="88.5" cy="577.2" r="18"/>
	</g>
	<g>
		<path fill="#F9B233" d="M331.4,578.1L331.4,578.1c0-4.1-3.4-7.9-8.8-10.7c-0.6-0.3-1.4-0.5-2.3-0.5h-44.6c-0.8,0-1.5,0.2-2.3,0.5
			c-5.4,2.8-8.8,6.5-8.8,10.6l0,0c0,0.2,0,0.8,0,1l0,0c0,3.2,3.6,6.2,9.3,8.4c0.3,0.1,0.6,0.2,1.1,0.2h45.8c0.3,0,0.8-0.1,1.1-0.2
			c5.7-2.2,9.3-5.1,9.3-8.4l0,0C331.4,578.9,331.4,578.2,331.4,578.1z"/>
		<circle fill="#E30613" cx="298" cy="577.2" r="18"/>
	</g>
	<g>
		<path fill="#F9B233" d="M427.4,578L427.4,578c0-4.1-3.4-7.9-8.8-10.7c-0.6-0.3-1.4-0.5-2.3-0.5h-44.6c-0.8,0-1.5,0.2-2.3,0.5
			c-5.4,2.8-8.8,6.5-8.8,10.6l0,0c0,0.2,0,0.8,0,1l0,0c0,3.2,3.6,6.2,9.3,8.4c0.3,0.1,0.6,0.2,1.1,0.2h45.8c0.3,0,0.8-0.1,1.1-0.2
			c5.7-2.2,9.3-5.1,9.3-8.4l0,0C427.4,578.9,427.4,578.2,427.4,578z"/>
		<circle fill="#27348B" cx="394.1" cy="577.2" r="18"/>
	</g>
	<g>
		<path fill="#E30613" d="M226.8,578.1L226.8,578.1c0-4.1-3.4-7.9-8.8-10.7c-0.6-0.3-1.4-0.5-2.3-0.5h-44.6c-0.8,0-1.5,0.2-2.3,0.5
			c-5.4,2.8-8.8,6.5-8.8,10.6l0,0c0,0.2,0,0.8,0,1l0,0c0,3.2,3.6,6.2,9.3,8.4c0.3,0.1,0.6,0.2,1.1,0.2h45.8c0.3,0,0.8-0.1,1.1-0.2
			c5.7-2.2,9.3-5.1,9.3-8.4l0,0C226.8,578.9,226.8,578.2,226.8,578.1z"/>
		<circle fill="#27348B" cx="193.5" cy="577.2" r="18"/>
	</g>
</g>
</svg>
