<?xml version="1.0" encoding="utf-8"?>
<!-- Generator: Adobe Illustrator 19.1.0, SVG Export Plug-In . SVG Version: 6.00 Build 0)  -->
<svg version="1.1" id="Herkunft" xmlns="http://www.w3.org/2000/svg" xmlns:xlink="http://www.w3.org/1999/xlink" x="0px" y="0px"
	 viewBox="0 0 2423.5 685.3" enable-background="new 0 0 2423.5 685.3" xml:space="preserve">
<g id="Obstgruppe">
	<path id="Banane" fill="#F9B233" d="M730.9,389.7c-22.7-41.2-94.8-5.9-97.7-5c-68,20.4-119.4,28.3-184.6,16.8
		c-65.2-11.5-102.5-58.3-102.5-58.3c-1.4-1.9-3-3.8-4.6-5.7c-3.8-4.3-7.8-8.1-12.1-11.5c-7.7-6.9-17.3-14.2-27.4-18.7l-6.3-61.4
		c-0.8-8.2-8.3-14.2-16.5-13.4c-8.2,0.8-14.2,8.3-13.4,16.5l5.8,56.7c-7.9,3.7-15.1,11.5-20.9,25.3c0,0,0,0,0,0
		c-5.8,12.1-4.3,27.2-0.3,43.1c32.5,131,276,190.9,432.2,97.7C705.6,458,754.2,432,730.9,389.7z"/>
	<g id="Apfel">
		<path fill="#27348B" d="M455,402.1h-1c-2.3,0-4.2-1.9-4.2-4.2v-46.6c0-2.3,1.9-4.2,4.2-4.2h1c2.3,0,4.2,1.9,4.2,4.2v46.6
			C459.2,400.2,457.3,402.1,455,402.1z"/>
		<ellipse fill="#27348B" cx="503.5" cy="349.7" rx="53.8" ry="30.5"/>
		<path fill="#E30613" d="M454.5,400.4c-67.6-42.1-111.9,14.4-111.9,75.1c0,61,49.4,110.4,110.4,110.4c0.5,0,1,0,1.5,0
			c0.5,0,1,0,1.5,0c61,0,110.4-49.4,110.4-110.4C566.3,414.8,522.1,358.3,454.5,400.4z"/>
	</g>
	<g id="Trauben">
		
			<ellipse transform="matrix(9.623148e-02 0.9954 -0.9954 9.623148e-02 789.2612 304.4261)" fill="#27348B" stroke="#FFFFFF" stroke-width="4" stroke-miterlimit="10" cx="227" cy="586.8" rx="30.7" ry="24.3"/>
		<path fill="#E30613" d="M188.7,440.7L188.7,440.7c0.6,2.3-0.8,4.6-3,5.2l-39.3,10.3c-2.3,0.6-4.6-0.8-5.2-3v0
			c-0.6-2.3,0.8-4.6,3-5.2l39.3-10.3C185.8,437.1,188.1,438.4,188.7,440.7z"/>
		
			<rect x="120.8" y="378.8" transform="matrix(0.3875 -0.9219 0.9219 0.3875 -334.2918 388.2868)" fill="#E30613" width="8.5" height="133.9"/>
		
			<ellipse transform="matrix(-0.1458 0.9893 -0.9893 -0.1458 712.3504 497.5186)" fill="#27348B" stroke="#FFFFFF" stroke-width="4" stroke-miterlimit="10" cx="141.4" cy="556.3" rx="30.7" ry="24.3"/>
		
			<ellipse transform="matrix(-0.2089 0.9779 -0.9779 -0.2089 923.6797 398.9785)" fill="#27348B" stroke="#FFFFFF" stroke-width="4" stroke-miterlimit="10" cx="300.5" cy="573.1" rx="27.4" ry="21.7"/>
		
			<ellipse transform="matrix(-0.5227 -0.8525 0.8525 -0.5227 33.2098 1191.1678)" fill="#27348B" stroke="#FFFFFF" stroke-width="4" stroke-miterlimit="10" cx="350.1" cy="586.3" rx="31.6" ry="25.1"/>
		
			<ellipse transform="matrix(-0.9406 0.3394 -0.3394 -0.9406 789.1786 770.3228)" fill="#27348B" stroke="#FFFFFF" stroke-width="4" stroke-miterlimit="10" cx="327.2" cy="454.2" rx="25.7" ry="20.4"/>
		
			<ellipse transform="matrix(-1 -5.128868e-03 5.128868e-03 -1 678.6356 966.3685)" fill="#27348B" stroke="#FFFFFF" stroke-width="4" stroke-miterlimit="10" cx="340.6" cy="482.3" rx="25.7" ry="20.4"/>
		
			<ellipse transform="matrix(-0.9647 -0.2633 0.2633 -0.9647 458.798 1099.0023)" fill="#27348B" stroke="#FFFFFF" stroke-width="4" stroke-miterlimit="10" cx="303.1" cy="518.8" rx="26.2" ry="20.8"/>
		
			<ellipse transform="matrix(-0.8245 -0.5658 0.5658 -0.8245 186.0093 1131.5654)" fill="#27348B" stroke="#FFFFFF" stroke-width="4" stroke-miterlimit="10" cx="268.5" cy="536.9" rx="26.2" ry="20.8"/>
		
			<ellipse transform="matrix(-0.7109 0.7033 -0.7033 -0.7109 660.5366 622.9916)" fill="#27348B" stroke="#FFFFFF" stroke-width="4" stroke-miterlimit="10" cx="202.2" cy="447.3" rx="27.4" ry="21.7"/>
		
			<ellipse transform="matrix(-0.9973 7.375007e-02 -7.375007e-02 -0.9973 530.7973 1001.4984)" fill="#27348B" stroke="#FFFFFF" stroke-width="4" stroke-miterlimit="10" cx="246.9" cy="510.5" rx="31.6" ry="25.1"/>
		
			<ellipse transform="matrix(0.2355 -0.9719 0.9719 0.2355 -378.885 616.1867)" fill="#27348B" stroke="#FFFFFF" stroke-width="4" stroke-miterlimit="10" cx="202.2" cy="548.9" rx="24.4" ry="19.4"/>
		
			<ellipse transform="matrix(0.5337 -0.8457 0.8457 0.5337 -308.3437 530.6418)" fill="#27348B" stroke="#FFFFFF" stroke-width="4" stroke-miterlimit="10" cx="327" cy="544.9" rx="31.6" ry="25.1"/>
		
			<ellipse transform="matrix(0.5337 -0.8457 0.8457 0.5337 -310.2435 609.9353)" fill="#27348B" stroke="#FFFFFF" stroke-width="4" stroke-miterlimit="10" cx="397.9" cy="586.3" rx="31.6" ry="25.1"/>
		
			<ellipse transform="matrix(-0.7788 0.6273 -0.6273 -0.7788 1021.3504 668.3383)" fill="#27348B" stroke="#FFFFFF" stroke-width="4" stroke-miterlimit="10" cx="392.8" cy="514.3" rx="31.6" ry="25.1"/>
		
			<ellipse transform="matrix(-0.6986 0.7155 -0.7155 -0.6986 996.9366 541.9294)" fill="#27348B" stroke="#FFFFFF" stroke-width="4" stroke-miterlimit="10" cx="384.3" cy="480.9" rx="25.7" ry="20.4"/>
		
			<ellipse transform="matrix(-0.9051 -0.4251 0.4251 -0.9051 577.7008 1275.1179)" fill="#27348B" stroke="#FFFFFF" stroke-width="4" stroke-miterlimit="10" cx="431.1" cy="573.1" rx="31.6" ry="25.1"/>
		
			<ellipse transform="matrix(-0.7071 -0.7071 0.7071 -0.7071 305.4544 1372.7142)" fill="#27348B" stroke="#FFFFFF" stroke-width="4" stroke-miterlimit="10" cx="437" cy="623.1" rx="31.6" ry="25.1"/>
		
			<ellipse transform="matrix(-0.7071 -0.7071 0.7071 -0.7071 389.8808 1371.6848)" fill="#27348B" stroke="#FFFFFF" stroke-width="4" stroke-miterlimit="10" cx="479" cy="605.1" rx="31.6" ry="25.1"/>
		
			<ellipse transform="matrix(-0.9051 -0.4251 0.4251 -0.9051 589.2651 1205.3679)" fill="#27348B" stroke="#FFFFFF" stroke-width="4" stroke-miterlimit="10" cx="429.1" cy="536.9" rx="31.6" ry="25.1"/>
		
			<ellipse transform="matrix(4.734129e-03 -1 1 4.734129e-03 -242.6299 902.4261)" fill="#27348B" stroke="#FFFFFF" stroke-width="4" stroke-miterlimit="10" cx="332" cy="573.1" rx="31.6" ry="25.1"/>
		
			<ellipse transform="matrix(-0.9051 -0.4251 0.4251 -0.9051 480.3267 1200.6107)" fill="#27348B" stroke="#FFFFFF" stroke-width="4" stroke-miterlimit="10" cx="374.1" cy="546.7" rx="31.6" ry="25.1"/>
		
			<ellipse transform="matrix(-0.8374 -0.5465 0.5465 -0.8374 275.2234 1070.688)" fill="#27348B" stroke="#FFFFFF" stroke-width="4" stroke-miterlimit="10" cx="296.8" cy="494.4" rx="26.2" ry="20.8"/>
		
			<ellipse transform="matrix(-0.8245 -0.5658 0.5658 -0.8245 232.8401 980.5653)" fill="#27348B" stroke="#FFFFFF" stroke-width="4" stroke-miterlimit="10" cx="268.5" cy="454.2" rx="26.2" ry="20.8"/>
		
			<ellipse transform="matrix(-0.8245 -0.5658 0.5658 -0.8245 70.3298 1002.6464)" fill="#27348B" stroke="#FFFFFF" stroke-width="4" stroke-miterlimit="10" cx="190.6" cy="490.4" rx="26.2" ry="20.8"/>
		
			<ellipse transform="matrix(-0.9865 -0.1639 0.1639 -0.9865 521.5018 962.5052)" fill="#27348B" stroke="#FFFFFF" stroke-width="4" stroke-miterlimit="10" cx="300.5" cy="459.7" rx="26.2" ry="20.8"/>
		
			<ellipse transform="matrix(-0.9051 -0.4251 0.4251 -0.9051 304.8521 1173.464)" fill="#27348B" stroke="#FFFFFF" stroke-width="4" stroke-miterlimit="10" cx="283.4" cy="552.7" rx="24.4" ry="19.4"/>
		
			<ellipse transform="matrix(0.2355 -0.9719 0.9719 0.2355 -387.3352 653.8174)" fill="#27348B" stroke="#FFFFFF" stroke-width="4" stroke-miterlimit="10" cx="221.9" cy="573.1" rx="24.4" ry="19.4"/>
		
			<ellipse transform="matrix(-0.9406 0.3394 -0.3394 -0.9406 1113.1637 942.8779)" fill="#27348B" stroke="#FFFFFF" stroke-width="4" stroke-miterlimit="10" cx="474.1" cy="568.8" rx="25.7" ry="20.4"/>
		
			<ellipse transform="matrix(-1 -5.128868e-03 5.128868e-03 -1 805.3557 990.8899)" fill="#27348B" stroke="#FFFFFF" stroke-width="4" stroke-miterlimit="10" cx="403.9" cy="494.4" rx="25.7" ry="20.4"/>
		
			<ellipse transform="matrix(-0.4251 0.9051 -0.9051 -0.4251 685.3559 594.7051)" fill="#27348B" stroke="#FFFFFF" stroke-width="4" stroke-miterlimit="10" cx="153.8" cy="515" rx="27.4" ry="21.7"/>
		
			<ellipse transform="matrix(-0.9961 8.813899e-02 -8.813899e-02 -0.9961 462.1775 931.5361)" fill="#27348B" stroke="#FFFFFF" stroke-width="4" stroke-miterlimit="10" cx="210.5" cy="476" rx="27.4" ry="21.7"/>
		
			<ellipse transform="matrix(-4.217022e-02 0.9991 -0.9991 -4.217022e-02 686.17 211.7171)" fill="#27348B" stroke="#FFFFFF" stroke-width="4" stroke-miterlimit="10" cx="241.6" cy="434.8" rx="27.4" ry="21.7"/>
		
			<ellipse transform="matrix(0.3588 0.9334 -0.9334 0.3588 698.4218 132.3862)" fill="#27348B" stroke="#FFFFFF" stroke-width="4" stroke-miterlimit="10" cx="252.9" cy="574.5" rx="30.7" ry="24.3"/>
		
			<ellipse transform="matrix(-0.7705 0.6375 -0.6375 -0.7705 784.525 564.6199)" fill="#27348B" stroke="#FFFFFF" stroke-width="4" stroke-miterlimit="10" cx="290.6" cy="423.5" rx="31.6" ry="25.1"/>
		
			<ellipse transform="matrix(0.1454 -0.9894 0.9894 0.1454 -419.6766 660.335)" fill="#27348B" stroke="#FFFFFF" stroke-width="4" stroke-miterlimit="10" cx="172.4" cy="573.1" rx="32.8" ry="26"/>
		
			<ellipse transform="matrix(-0.8643 -0.5029 0.5029 -0.8643 151.0245 1085.3901)" fill="#27348B" stroke="#FFFFFF" stroke-width="4" stroke-miterlimit="10" cx="221.9" cy="522.3" rx="32.8" ry="26"/>
		
			<ellipse transform="matrix(0.1454 -0.9894 0.9894 0.1454 -379.3406 625.4944)" fill="#27348B" stroke="#FFFFFF" stroke-width="4" stroke-miterlimit="10" cx="172.4" cy="532.3" rx="32.8" ry="26"/>
		
			<ellipse transform="matrix(-0.6488 -0.761 0.761 -0.6488 182.6834 1089.4338)" fill="#27348B" stroke="#FFFFFF" stroke-width="4" stroke-miterlimit="10" cx="342.7" cy="502.6" rx="25.7" ry="20.4"/>
		
			<ellipse transform="matrix(-0.2469 0.969 -0.969 -0.2469 804.9997 540.0481)" fill="#27348B" stroke="#FFFFFF" stroke-width="4" stroke-miterlimit="10" cx="192.6" cy="582.8" rx="30.7" ry="24.3"/>
		
			<ellipse transform="matrix(-0.8245 -0.5658 0.5658 -0.8245 204.5786 1015.3912)" fill="#27348B" stroke="#FFFFFF" stroke-width="4" stroke-miterlimit="10" cx="259.7" cy="476" rx="26.2" ry="20.8"/>
		
			<ellipse transform="matrix(-0.4251 0.9051 -0.9051 -0.4251 661.2969 556.8246)" fill="#27348B" stroke="#FFFFFF" stroke-width="4" stroke-miterlimit="10" cx="153.8" cy="488.4" rx="27.4" ry="21.7"/>
	</g>
</g>
<g id="WurstFleisch">
	<g>
		<path fill="#E30613" d="M1999,183.7c-9.4-29.1-40.5-45-69.6-35.7c-29.1,9.4-45,40.5-35.7,69.6c1.3,4.1,0.7,2,0.7,2
			c11.3,58.8,22.9,195.6-107.2,258c-3.4,1.2-6.8,2.7-10.1,4.6c-26.4,15.4-35.4,49.2-20,75.6s49.2,35.4,75.6,20
			C1957.4,532,2059.8,318.4,1999,183.7"/>
		<path fill="#E30613" d="M1911.4,143.4l11,11.7c0.8,0.8,2,1,3,0.4l7.5-4.3c0.8-0.5,1.3-1.4,1.2-2.3l-1.3-14.3
			c-0.2-1.6-1.8-2.6-3.3-2l-17.1,6.9C1910.6,140.1,1910.2,142.2,1911.4,143.4z"/>
		<path fill="#F9B233" d="M1736.6,536.5l16-1.9c1.1-0.1,2-1,2.1-2.1l0.9-8.6c0.1-0.9-0.3-1.9-1.2-2.3l-12.3-7.4
			c-1.4-0.8-3.2-0.1-3.6,1.5l-4.6,17.9C1733.5,535.2,1734.9,536.7,1736.6,536.5z"/>
	</g>
	<g>
		<path fill="#F39200" d="M1934,148.9c0,0.5-0.1,0.9-0.3,1.3C1934,149.8,1934.1,149.3,1934,148.9l-0.2-2.1c0,0,0,0,0,0L1934,148.9z"
			/>
		<path fill="#F9B233" d="M1856.8,556.2l-69.7-78.6c-3.4,1.2-6.7,2.7-9.9,4.5c-14.3,8.3-23.5,22.1-26.4,37.2l3.7,2.2
			c0.8,0.5,1.3,1.4,1.2,2.3l-0.9,8.6c-0.1,1.1-1,2-2.1,2.1l-2.6,0.3c0.7,7.8,3.1,15.6,7.3,22.9c15.4,26.4,49.2,35.4,75.6,20
			c10.2-3.8,20.3-8.7,30.2-14.6L1856.8,556.2z"/>
	</g>
</g>
<g id="AlkoFreiGetraenke">
	<path fill="#E30613" d="M2286.7,265.9l-14.1-186.2c0-10.3-7.9-18.6-17.6-18.6h-5.4h-1h-5.4c-9.7,0-17.6,8.4-17.6,18.6l-14.1,186.2
		c-13.9,3.1-24.4,15.6-24.4,30.4v257.7c0,17.2,14,31.2,31.2,31.2h30.3h1h30.3c17.2,0,31.2-14,31.2-31.2V296.4
		C2311.1,281.5,2300.6,269.1,2286.7,265.9z"/>
	<path fill="#27348B" d="M2276.6,75.1h-54.9c-2.8,0-5-2.2-5-5v-7.7c0-2.8,2.2-5,5-5h54.9c2.8,0,5,2.2,5,5v7.7
		C2281.6,72.9,2279.3,75.1,2276.6,75.1z"/>
	<g>
		<path fill="#F9B233" d="M2187.5,558.9c2.3,14.9,15.3,26.4,30.8,26.4h30.3h1h30.3c15.5,0,28.5-11.5,30.8-26.4H2187.5z"/>
		<rect x="2311.1" y="296.4" fill="#F39200" width="0" height="257.7"/>
	</g>
</g>
<g id="Molkereiprodukte">
	<path fill="#E30613" d="M1344,121.3V561c0,3.7,2.8,6.8,6.5,7.2l151.8,17c1.5,0.2,3.1-0.1,4.4-0.9l53.4-30.2
		c2.3-1.3,3.7-3.7,3.7-6.3V116.1c0-1.5-0.4-2.9-1.3-4.1l-28.3-41.3c-0.8-1.2-1.3-2.6-1.3-4.1v-28c0-4-3.3-7.3-7.3-7.3H1386
		c-4,0-7.3,3.3-7.3,7.3V69c0,1.5-0.5,3-1.4,4.3l-31.9,43.7C1344.5,118.3,1344,119.8,1344,121.3z"/>
	<path fill="#27348B" d="M1501.6,122.7l30.8-52.9c0.3-0.5,0.9-0.5,1.2,0l29.5,43.1c0.3,0.4,0,1-0.5,1.1l-60.3,9.8
		C1501.7,123.9,1501.3,123.3,1501.6,122.7z"/>
	<path fill="#27348B" d="M1464.9,89.4l-4.3-26.4l-58.4,10.9l4.2,24.8c-0.1,0.6,0,1.1,0.1,1.7c1.3,7.1,15.5,10.5,31.6,7.4
		C1454.3,104.7,1466.2,96.5,1464.9,89.4z"/>
	
		<ellipse transform="matrix(0.983 -0.1835 0.1835 0.983 11.752 263.7985)" fill="#F9B233" cx="1431.4" cy="68.4" rx="29.7" ry="13.1"/>
	<path fill="#F9B233" d="M1344,487.3V561c0,3.7,2.8,6.8,6.5,7.2l151.8,17c1.5,0.2,3.1-0.1,4.4-0.9l53.4-30.2
		c2.3-1.3,3.7-3.7,3.7-6.3v-76l-61.5,28.4L1344,487.3z"/>
</g>
<g id="ObstGemuese">
	<path fill="#27348B" d="M1062.6,401.5h-1c-2.3,0-4.2-1.9-4.2-4.2v-46.6c0-2.3,1.9-4.2,4.2-4.2h1c2.3,0,4.2,1.9,4.2,4.2v46.6
		C1066.8,399.6,1064.9,401.5,1062.6,401.5z"/>
	<ellipse fill="#27348B" cx="1111.1" cy="349.1" rx="53.8" ry="30.5"/>
	<path fill="#E30613" d="M1062,399.8c-67.6-42.1-111.9,14.4-111.9,75.1c0,61,49.4,110.4,110.4,110.4c0.5,0,1,0,1.5,0
		c0.5,0,1,0,1.5,0c61,0,110.4-49.4,110.4-110.4C1173.9,414.2,1129.7,357.7,1062,399.8z"/>
	<path fill="#F9B233" d="M950.7,485.3c5.2,56.1,52.4,100,109.9,100c0.5,0,1,0,1.5,0c0.5,0,1,0,1.5,0c57.5,0,104.7-43.9,109.9-100
		H950.7z"/>
</g>
</svg>
